<svg xmlns="http://www.w3.org/2000/svg" width="12" height="16" viewBox="0 0 12 16"><path fill="#223041" d="m6 0c-2.378 1.7077-3.8021 2-6 2v7.5c0 4.0878 4.5587 5.9972 6 6.5 1.4413-0.50279 6-2.4122 6-6.5v-7.5c-2.1979 0-3.622-0.2923-6-2z"/><path fill="#fff" d="m6 1c-2.0374 1.4977-2.9673 1.7095-5 1.75v6.55c0 0.40356 0.0449 0.78228 0.13 1.14l4.87-2.69 3.95 2.18c-0.30241 1.905-1.9767 3.1514-3.95 3.9704-1.7189-0.71344-3.2136-1.7558-3.77-3.2704l-0.88039 0.49c0.79753 1.9592 2.8251 3.1615 4.6504 3.88 2.3346-0.91892 5-2.6261 5-5.7v-4.8996h-1v4.3996l-4-2.2-4 2.2v-5.1c1.464-0.11817 2.7408-0.63295 4-1.5 1.2592 0.86705 2.536 1.3818 4 1.5h1v-0.95c-2.0304-0.040445-2.9608-0.25096-5-1.75z"/></svg>
