<svg width="400" height="400" version="1.1" viewBox="0 0 400 400" xmlns="http://www.w3.org/2000/svg"><g transform="matrix(1.0131 0 0 1.0131 -32.964 -36.793)"><g fill="#e0e0e0"><path d="m238.42 430.84-9.8-5.66a0.79 0.79 0 0 1 0-1.5l183.38-105.89a2.9 2.9 0 0 1 2.6 0l9.8 5.66c0.72 0.42 0.72 1.09 0 1.5l-183.4 105.89a2.9 2.9 0 0 1-2.58 0z"/><path d="m212.49 331.13-74.3 42.87a7.14 7.14 0 0 1-6.46 0l-74.2-42.87c-1.78-1-1.78-2.7 0-3.73l74.3-42.86a7.12 7.12 0 0 1 6.45 0l74.21 42.86c1.78 1.03 1.78 2.7 0 3.73z"/></g><polygon points="135.05 257.72 207.16 299.35 135.05 340.99 62.93 299.36" fill="#6da5ea"/><polygon points="135.05 257.72 207.16 299.35 135.05 340.99 62.93 299.36" opacity=".1"/><polygon points="62.92 299.35 135.05 340.99 135.05 335.79 67.44 296.75" opacity=".1"/><path d="m135.05 341v28.49a9.79 9.79 0 0 0 4.8-1.14l31.24-18 33.18-19.17a6.35 6.35 0 0 0 2.89-5v-26.83z" fill="#6da5ea"/><path d="m135.05 341v28.49a9.79 9.79 0 0 0 4.8-1.14l31.24-18 33.18-19.17a6.35 6.35 0 0 0 2.89-5v-26.83z" fill="#fff" opacity=".65"/><path d="m62.92 299.35v26.79a6.38 6.38 0 0 0 2.89 5l28.67 16.56 35.77 20.65a9.76 9.76 0 0 0 4.8 1.14v-28.49z" fill="#6da5ea"/><path d="m62.92 299.35v26.79a6.38 6.38 0 0 0 2.89 5l28.67 16.56 35.77 20.65a9.76 9.76 0 0 0 4.8 1.14v-28.49z" fill="#fff" opacity=".5"/><polygon points="135.05 226.49 207.16 268.13 135.05 309.76 62.93 268.13" fill="#6da5ea"/><polygon points="135.05 226.49 207.16 268.13 135.05 309.76 62.93 268.13" opacity=".1"/><polygon points="62.93 268.13 135.05 309.76 135.05 304.56 67.44 265.52" opacity=".1"/><polygon points="207.16 268.13 207.16 288.94 135.04 330.58 135.05 309.76" fill="#6da5ea"/><polygon points="207.16 268.13 207.16 288.94 135.04 330.58 135.05 309.76" fill="#fff" opacity=".65"/><polygon points="135.05 309.76 135.04 330.58 62.93 288.94 62.93 268.13" fill="#6da5ea"/><polygon points="135.05 309.76 135.04 330.58 62.93 288.94 62.93 268.13" fill="#fff" opacity=".5"/><polygon points="135.05 335.79 198.15 299.35 198.15 294.15 135.04 330.58" fill="#455a64"/><polygon points="135.04 330.58 67.43 291.55 67.44 296.75 135.05 335.79" fill="#6da5ea"/><polygon points="135.04 330.58 67.43 291.55 67.44 296.75 135.05 335.79" fill="#37474f"/><polygon points="135.05 195.26 207.16 236.9 135.05 278.54 62.93 236.9" fill="#6da5ea"/><polygon points="135.05 195.26 207.16 236.9 135.05 278.54 62.93 236.9" opacity=".1"/><polygon points="62.93 236.9 135.05 278.54 135.05 273.33 67.44 234.29" opacity=".1"/><polygon points="207.16 236.9 207.16 257.72 135.04 299.36 135.05 278.54" fill="#6da5ea"/><polygon points="207.16 236.9 207.16 257.72 135.04 299.36 135.05 278.54" fill="#fff" opacity=".65"/><polygon points="135.05 278.54 135.04 299.36 62.93 257.72 62.93 236.9" fill="#6da5ea"/><polygon points="135.05 278.54 135.04 299.36 62.93 257.72 62.93 236.9" fill="#fff" opacity=".5"/><polygon points="135.05 304.56 198.15 268.13 198.15 262.92 135.04 299.36" fill="#455a64"/><polygon points="135.04 299.36 67.43 260.32 67.44 265.52 135.05 304.56" fill="#37474f"/><polygon points="135.05 273.33 198.15 236.9 198.15 231.69 135.04 268.13" fill="#455a64"/><polygon points="135.04 268.13 67.43 229.09 67.44 234.29 135.05 273.33" fill="#37474f"/><polygon points="135.05 164.03 207.16 205.67 135.05 247.31 62.93 205.67" fill="#6da5ea"/><polygon points="135.05 164.03 207.16 205.67 135.05 247.31 62.93 205.67" fill="#fff" opacity=".15"/><polygon points="135.05 164.03 207.16 205.67 135.05 247.31 62.93 205.67" opacity=".1"/><polygon points="67.44 203.07 135.05 242.11 135.05 247.31 62.93 205.67" opacity=".1"/><polygon points="207.16 205.67 207.16 226.49 135.04 268.13 135.05 247.31" fill="#6da5ea"/><polygon points="207.16 205.67 207.16 226.49 135.04 268.13 135.05 247.31" fill="#fff" opacity=".65"/><polygon points="135.05 247.31 135.04 268.13 62.93 226.49 62.93 205.67" fill="#6da5ea"/><polygon points="135.05 247.31 135.04 268.13 62.93 226.49 62.93 205.67" fill="#fff" opacity=".5"/><polygon points="135.05 242.11 198.15 205.68 198.15 200.47 135.04 236.91" fill="#455a64"/><polygon points="135.04 236.91 67.43 197.87 67.44 203.07 135.05 242.11" fill="#37474f"/><polygon points="135.05 132.74 207.16 174.38 135.05 216.02 62.93 174.38" fill="#6da5ea"/><polygon points="135.05 132.74 207.16 174.38 135.05 216.02 62.93 174.38" fill="#fff" opacity=".15"/><polygon points="135.05 132.74 207.16 174.38 135.05 216.02 62.93 174.38" opacity=".1"/><polygon points="67.44 171.79 135.05 210.82 135.05 216.02 62.93 174.38" opacity=".1"/><polygon points="207.16 174.38 207.16 195.2 135.04 236.84 135.05 216.02" fill="#6da5ea"/><polygon points="207.16 174.38 207.16 195.2 135.04 236.84 135.05 216.02" fill="#fff" opacity=".65"/><polygon points="135.05 216.02 135.04 236.84 62.93 195.2 62.93 174.38" fill="#6da5ea"/><polygon points="135.05 216.02 135.04 236.84 62.93 195.2 62.93 174.38" fill="#fff" opacity=".5"/><path d="m65.81 141.5 66.39-38.31a6.38 6.38 0 0 1 5.77 0l66.31 38.31a6.38 6.38 0 0 1 2.89 5v17.5l-72.17 41.62-72.08-41.62v-17.51a6.38 6.38 0 0 1 2.89-4.99z" fill="#6da5ea"/><path d="m65.81 141.5 66.39-38.31a6.38 6.38 0 0 1 5.77 0l66.31 38.31a6.38 6.38 0 0 1 2.89 5v17.5l-72.17 41.62-72.08-41.62v-17.51a6.38 6.38 0 0 1 2.89-4.99z" fill="#fff" opacity=".5"/><path d="m135 183.82v21.8l72.16-41.62v-17.51a6.47 6.47 0 0 0-2.36-4.63c1 0.93 0.88 2.16-0.52 3l-66.4 38.31a5.94 5.94 0 0 1-2.88 0.65z" fill="#6da5ea"/><path d="m135 183.82v21.8l72.16-41.62v-17.51a6.47 6.47 0 0 0-2.36-4.63c1 0.93 0.88 2.16-0.52 3l-66.4 38.31a5.94 5.94 0 0 1-2.88 0.65z" fill="#fff" opacity=".65"/><path d="m204.28 144.83-66.4 38.31a6.36 6.36 0 0 1-5.76 0l-66.31-38.31c-1.6-0.92-1.6-2.41 0-3.33l66.39-38.31a6.38 6.38 0 0 1 5.77 0l66.31 38.31c1.6 0.92 1.6 2.41 0 3.33z" fill="#6da5ea"/><path d="m204.28 144.83-66.4 38.31a6.36 6.36 0 0 1-5.76 0l-66.31-38.31c-1.6-0.92-1.6-2.41 0-3.33l66.39-38.31a6.38 6.38 0 0 1 5.77 0l66.31 38.31c1.6 0.92 1.6 2.41 0 3.33z" fill="#fff" opacity=".85"/><polygon points="135.05 210.82 198.15 174.39 198.15 169.19 135.04 205.62" fill="#455a64"/><polygon points="135.04 205.62 67.43 166.58 67.44 171.79 135.05 210.82" fill="#37474f"/><g fill="#455a64"><path d="m78.61 332.55a2.18 2.18 0 0 1 1 1.73c0 0.64-0.45 0.9-1 0.58a2.23 2.23 0 0 1-1-1.74c0-0.64 0.45-0.89 1-0.57z"/><path d="m87 337.37a2.21 2.21 0 0 1 1 1.72c0 0.64-0.45 0.9-1 0.58a2.21 2.21 0 0 1-1-1.73c0-0.63 0.4-0.89 1-0.57z"/><path d="m95.15 342.1a2.2 2.2 0 0 1 1 1.72c0 0.63-0.44 0.89-1 0.57a2.18 2.18 0 0 1-1-1.72c0-0.67 0.45-0.89 1-0.57z"/><path d="m103.42 346.88a2.19 2.19 0 0 1 1 1.71c0 0.63-0.45 0.89-1 0.57a2.16 2.16 0 0 1-1-1.71c0.01-0.63 0.45-0.89 1-0.57z"/></g><g opacity=".75"><path d="m68.89 308 8.47 4.87a5.28 5.28 0 0 1 2.4 4.16v4.86c0 1.53-1.07 2.15-2.4 1.38l-8.47-4.86a5.32 5.32 0 0 1-2.41-4.16v-4.87c0-1.56 1.08-2.18 2.41-1.38z" fill="#fff"/></g><path d="m71.17 313.45 1.1-0.64a1.48 1.48 0 0 1 1.47 0.15 4.61 4.61 0 0 1 2.09 3.62 1.49 1.49 0 0 1-0.61 1.35l-1 0.58-0.18-0.3a2.28 2.28 0 0 1-0.6-0.24 4.58 4.58 0 0 1-2.09-3.61 2.23 2.23 0 0 1 0.06-0.54z" fill="#6da5ea"/><path d="m71.17 313.45 1.1-0.64a1.48 1.48 0 0 1 1.47 0.15 4.61 4.61 0 0 1 2.09 3.62 1.49 1.49 0 0 1-0.61 1.35l-1 0.58-0.18-0.3a2.28 2.28 0 0 1-0.6-0.24 4.58 4.58 0 0 1-2.09-3.61 2.23 2.23 0 0 1 0.06-0.54z" opacity=".2"/><path d="m72.69 313.57a4.61 4.61 0 0 1 2.09 3.61c0 1.34-0.94 1.88-2.09 1.21a4.64 4.64 0 0 1-2.09-3.62c0-1.33 0.94-1.87 2.09-1.2z" fill="#6da5ea"/><g opacity=".75"><path d="m68.89 276.72 8.47 4.86a5.31 5.31 0 0 1 2.4 4.16v4.87c0 1.53-1.07 2.15-2.4 1.38l-8.47-4.87a5.29 5.29 0 0 1-2.41-4.12v-4.9c0-1.53 1.08-2.1 2.41-1.38z" fill="#fff"/></g><path d="m71.17 282.2 1.1-0.64a1.46 1.46 0 0 1 1.47 0.15 4.61 4.61 0 0 1 2.09 3.61 1.47 1.47 0 0 1-0.61 1.35l-1 0.58-0.22-0.25a1.94 1.94 0 0 1-0.6-0.23 4.58 4.58 0 0 1-2.09-3.62 2.2 2.2 0 0 1 0.06-0.53z" fill="#6da5ea"/><path d="m71.17 282.2 1.1-0.64a1.46 1.46 0 0 1 1.47 0.15 4.61 4.61 0 0 1 2.09 3.61 1.47 1.47 0 0 1-0.61 1.35l-1 0.58-0.22-0.25a1.94 1.94 0 0 1-0.6-0.23 4.58 4.58 0 0 1-2.09-3.62 2.2 2.2 0 0 1 0.06-0.53z" opacity=".2"/><path d="m72.69 282.32a4.61 4.61 0 0 1 2.09 3.61c0 1.33-0.94 1.87-2.09 1.21a4.64 4.64 0 0 1-2.09-3.62c0-1.33 0.94-1.87 2.09-1.2z" fill="#6da5ea"/><g opacity=".75"><path d="m68.89 245.48 8.47 4.87a5.31 5.31 0 0 1 2.4 4.16v4.86c0 1.54-1.07 2.16-2.4 1.39l-8.47-4.87a5.3 5.3 0 0 1-2.41-4.16v-4.86c0-1.53 1.08-2.15 2.41-1.39z" fill="#fff"/></g><path d="m71.17 251 1.1-0.63a1.48 1.48 0 0 1 1.47 0.15 4.64 4.64 0 0 1 2.09 3.62 1.48 1.48 0 0 1-0.61 1.35l-1 0.59-0.18-0.31a1.94 1.94 0 0 1-0.6-0.23 4.61 4.61 0 0 1-2.09-3.62 2.15 2.15 0 0 1 0.06-0.53z" fill="#6da5ea"/><path d="m71.17 251 1.1-0.63a1.48 1.48 0 0 1 1.47 0.15 4.64 4.64 0 0 1 2.09 3.62 1.48 1.48 0 0 1-0.61 1.35l-1 0.59-0.18-0.31a1.94 1.94 0 0 1-0.6-0.23 4.61 4.61 0 0 1-2.09-3.62 2.15 2.15 0 0 1 0.06-0.53z" opacity=".2"/><path d="m72.69 251.08a4.64 4.64 0 0 1 2.09 3.62c0 1.33-0.94 1.87-2.09 1.21a4.64 4.64 0 0 1-2.09-3.62c0-1.29 0.94-1.87 2.09-1.21z" fill="#6da5ea"/><g opacity=".75"><path d="m68.89 214.29 8.47 4.87a5.29 5.29 0 0 1 2.4 4.16v4.86c0 1.53-1.07 2.15-2.4 1.39l-8.47-4.87a5.32 5.32 0 0 1-2.41-4.16v-4.86c0-1.54 1.08-2.16 2.41-1.39z" fill="#fff"/></g><path d="m71.17 219.77 1.1-0.64a1.48 1.48 0 0 1 1.47 0.15 4.64 4.64 0 0 1 2.09 3.62 1.49 1.49 0 0 1-0.61 1.35l-1 0.59-0.18-0.31a2 2 0 0 1-0.6-0.24 4.58 4.58 0 0 1-2.09-3.61 2.29 2.29 0 0 1 0.06-0.54z" fill="#6da5ea"/><path d="m71.17 219.77 1.1-0.64a1.48 1.48 0 0 1 1.47 0.15 4.64 4.64 0 0 1 2.09 3.62 1.49 1.49 0 0 1-0.61 1.35l-1 0.59-0.18-0.31a2 2 0 0 1-0.6-0.24 4.58 4.58 0 0 1-2.09-3.61 2.29 2.29 0 0 1 0.06-0.54z" opacity=".2"/><path d="m72.69 219.89a4.61 4.61 0 0 1 2.09 3.62c0 1.33-0.94 1.87-2.09 1.2a4.61 4.61 0 0 1-2.09-3.62c0-1.33 0.94-1.87 2.09-1.2z" fill="#6da5ea"/><g opacity=".75"><path d="m68.89 183 8.47 4.87a5.31 5.31 0 0 1 2.4 4.16v4.86c0 1.53-1.07 2.16-2.4 1.39l-8.47-4.87a5.3 5.3 0 0 1-2.41-4.16v-4.86c0-1.53 1.08-2.15 2.41-1.39z" fill="#fff"/></g><path d="m71.17 188.48 1.1-0.63a1.48 1.48 0 0 1 1.47 0.15 4.64 4.64 0 0 1 2.09 3.62 1.48 1.48 0 0 1-0.61 1.35l-1 0.59-0.18-0.31a1.94 1.94 0 0 1-0.6-0.23 4.61 4.61 0 0 1-2.09-3.62 2.15 2.15 0 0 1 0.06-0.53z" fill="#6da5ea"/><path d="m71.17 188.48 1.1-0.63a1.48 1.48 0 0 1 1.47 0.15 4.64 4.64 0 0 1 2.09 3.62 1.48 1.48 0 0 1-0.61 1.35l-1 0.59-0.18-0.31a1.94 1.94 0 0 1-0.6-0.23 4.61 4.61 0 0 1-2.09-3.62 2.15 2.15 0 0 1 0.06-0.53z" opacity=".2"/><path d="m72.69 188.6a4.64 4.64 0 0 1 2.09 3.62c0 1.33-0.94 1.87-2.09 1.2a4.61 4.61 0 0 1-2.09-3.61c0-1.33 0.94-1.87 2.09-1.21z" fill="#6da5ea"/><g opacity=".75"><path d="m68.89 151.75 8.47 4.86a5.31 5.31 0 0 1 2.4 4.17v4.86c0 1.53-1.07 2.15-2.4 1.38l-8.47-4.86a5.32 5.32 0 0 1-2.41-4.16v-4.86c0-1.54 1.08-2.14 2.41-1.39z" fill="#fff"/></g><path d="m71.17 157.23 1.1-0.64a1.48 1.48 0 0 1 1.47 0.15 4.61 4.61 0 0 1 2.09 3.62 1.49 1.49 0 0 1-0.61 1.35l-1 0.58-0.22-0.29a2.28 2.28 0 0 1-0.6-0.24 4.58 4.58 0 0 1-2.09-3.61 2.23 2.23 0 0 1 0.06-0.54z" fill="#6da5ea"/><path d="m71.17 157.23 1.1-0.64a1.48 1.48 0 0 1 1.47 0.15 4.61 4.61 0 0 1 2.09 3.62 1.49 1.49 0 0 1-0.61 1.35l-1 0.58-0.22-0.29a2.28 2.28 0 0 1-0.6-0.24 4.58 4.58 0 0 1-2.09-3.61 2.23 2.23 0 0 1 0.06-0.54z" opacity=".2"/><path d="m72.69 157.35a4.61 4.61 0 0 1 2.09 3.65c0 1.34-0.94 1.88-2.09 1.21a4.64 4.64 0 0 1-2.09-3.62c0-1.37 0.94-1.91 2.09-1.24z" fill="#6da5ea"/><path d="m200.25 308.56-35.76 20.64a5.34 5.34 0 0 0-2.4 4.17v4.86c0 1.53 1.08 2.15 2.4 1.38l35.76-20.61a5.32 5.32 0 0 0 2.41-4.16v-4.87c0-1.56-1.08-2.18-2.41-1.41z" fill="#455a64"/><g fill="#6da5ea"><path d="m200.12 312.67v2.33a1 1 0 0 1-0.48 0.83l-0.54 0.32c-0.26 0.15-0.48 0-0.48-0.28v-2.36a1.06 1.06 0 0 1 0.48-0.83l0.54-0.31c0.27-0.13 0.48 0 0.48 0.3z"/><path d="m197.69 314.07v2.36a1 1 0 0 1-0.48 0.83l-0.54 0.32c-0.26 0.15-0.48 0-0.48-0.28v-2.36a1.06 1.06 0 0 1 0.48-0.83l0.54-0.31c0.27-0.16 0.48-0.03 0.48 0.27z"/><path d="m195.27 315.47v2.36a1.06 1.06 0 0 1-0.48 0.83l-0.55 0.32c-0.26 0.15-0.48 0-0.48-0.28v-2.36a1.06 1.06 0 0 1 0.48-0.83l0.55-0.31c0.26-0.2 0.48-0.03 0.48 0.27z"/></g><path d="m192.84 316.87v2.36a1.06 1.06 0 0 1-0.48 0.83l-0.54 0.32c-0.27 0.15-0.48 0-0.48-0.28v-2.36a1 1 0 0 1 0.48-0.83l0.54-0.31c0.26-0.16 0.48-0.03 0.48 0.27z" fill="#37474f"/><path d="m190.41 318.27v2.36a1.06 1.06 0 0 1-0.48 0.83l-0.54 0.32c-0.27 0.15-0.48 0-0.48-0.28v-2.36a1 1 0 0 1 0.48-0.83l0.54-0.31c0.26-0.16 0.48 0 0.48 0.27z" fill="#37474f"/><g fill="#6da5ea"><path d="m188 319.67v2.33a1 1 0 0 1-0.48 0.83l-0.54 0.32c-0.27 0.15-0.48 0-0.48-0.28v-2.36a1 1 0 0 1 0.48-0.83l0.54-0.31c0.25-0.13 0.48 0 0.48 0.3z"/><path d="m185.55 321.07v2.36a1 1 0 0 1-0.48 0.83l-0.54 0.32a0.3 0.3 0 0 1-0.48-0.28v-2.36a1.06 1.06 0 0 1 0.48-0.83l0.54-0.31c0.27-0.16 0.48-0.03 0.48 0.27z"/><path d="m183.12 322.47v2.36a1 1 0 0 1-0.48 0.83l-0.54 0.32a0.3 0.3 0 0 1-0.48-0.28v-2.36a1.06 1.06 0 0 1 0.48-0.83l0.54-0.31c0.27-0.2 0.48-0.03 0.48 0.27z"/><path d="m180.7 323.87v2.36a1.06 1.06 0 0 1-0.48 0.83l-0.55 0.32a0.3 0.3 0 0 1-0.48-0.28v-2.36a1.06 1.06 0 0 1 0.48-0.83l0.55-0.31c0.26-0.16 0.48-0.03 0.48 0.27z"/><path d="m178.27 325.27v2.36a1.06 1.06 0 0 1-0.48 0.83l-0.54 0.32c-0.27 0.15-0.48 0-0.48-0.28v-2.36a1 1 0 0 1 0.48-0.83l0.54-0.31c0.26-0.16 0.48 0 0.48 0.27z"/><path d="m175.84 326.67v2.33a1.06 1.06 0 0 1-0.48 0.83l-0.54 0.32c-0.27 0.15-0.48 0-0.48-0.28v-2.36a1 1 0 0 1 0.48-0.83l0.54-0.31c0.26-0.13 0.48 0 0.48 0.3z"/><path d="m173.41 328.07v2.36a1 1 0 0 1-0.48 0.83l-0.54 0.32c-0.27 0.15-0.48 0-0.48-0.28v-2.36a1 1 0 0 1 0.48-0.83l0.54-0.31c0.27-0.16 0.48-0.03 0.48 0.27z"/></g><path d="m171 329.47v2.36a1 1 0 0 1-0.48 0.83l-0.52 0.34a0.3 0.3 0 0 1-0.48-0.28v-2.36a1.06 1.06 0 0 1 0.48-0.83l0.54-0.31c0.23-0.22 0.46-0.05 0.46 0.25z" fill="#37474f"/><path d="m168.55 330.87v2.36a1 1 0 0 1-0.48 0.83l-0.54 0.31c-0.26 0.16-0.48 0-0.48-0.27v-2.36a1.06 1.06 0 0 1 0.48-0.83l0.54-0.31c0.27-0.16 0.48-0.03 0.48 0.27z" fill="#6da5ea"/><path d="m166.13 332.27v2.36a1.06 1.06 0 0 1-0.48 0.83l-0.55 0.31c-0.26 0.16-0.48 0-0.48-0.27v-2.36a1.06 1.06 0 0 1 0.48-0.83l0.55-0.32a0.3 0.3 0 0 1 0.48 0.28z" fill="#6da5ea"/><path d="m200.25 277.34-35.76 20.66a5.33 5.33 0 0 0-2.4 4.16v4.84c0 1.54 1.08 2.16 2.4 1.39l35.76-20.65a5.29 5.29 0 0 0 2.41-4.16v-4.86c0-1.53-1.08-2.15-2.41-1.38z" fill="#455a64"/><path d="m200.12 281.45v2.36a1 1 0 0 1-0.48 0.83l-0.54 0.31c-0.26 0.16-0.48 0-0.48-0.27v-2.36a1.06 1.06 0 0 1 0.48-0.83l0.54-0.32c0.27-0.17 0.48-0.02 0.48 0.28z" fill="#6da5ea"/><path d="m197.69 282.85v2.36a1 1 0 0 1-0.48 0.83l-0.54 0.31c-0.26 0.16-0.48 0-0.48-0.27v-2.36a1.06 1.06 0 0 1 0.48-0.83l0.54-0.32c0.27-0.15 0.48-0.02 0.48 0.28z" fill="#37474f"/><path d="m195.27 284.25v2.36a1.06 1.06 0 0 1-0.48 0.83l-0.55 0.31c-0.26 0.16-0.48 0-0.48-0.27v-2.36a1.06 1.06 0 0 1 0.48-0.83l0.55-0.32a0.3 0.3 0 0 1 0.48 0.28z" fill="#6da5ea"/><path d="m192.84 285.65v2.35a1.06 1.06 0 0 1-0.48 0.83l-0.54 0.31c-0.27 0.16-0.48 0-0.48-0.27v-2.36a1 1 0 0 1 0.48-0.83l0.54-0.32a0.3 0.3 0 0 1 0.48 0.29z" fill="#37474f"/><path d="m190.41 287.05v2.36a1.06 1.06 0 0 1-0.48 0.83l-0.54 0.31c-0.27 0.16-0.48 0-0.48-0.27v-2.36a1 1 0 0 1 0.48-0.83l0.54-0.32c0.26-0.15 0.48-0.03 0.48 0.28z" fill="#37474f"/><g fill="#6da5ea"><path d="m188 288.45v2.36a1 1 0 0 1-0.48 0.83l-0.52 0.36c-0.27 0.16-0.48 0-0.48-0.27v-2.36a1 1 0 0 1 0.48-0.83l0.54-0.32c0.23-0.22 0.46-0.08 0.46 0.23z"/><path d="m185.55 289.85v2.36a1 1 0 0 1-0.48 0.83l-0.54 0.31c-0.26 0.16-0.48 0-0.48-0.27v-2.36a1.06 1.06 0 0 1 0.48-0.83l0.54-0.32c0.27-0.15 0.48-0.03 0.48 0.28z"/><path d="m183.12 291.25v2.36a1 1 0 0 1-0.48 0.83l-0.54 0.31c-0.26 0.16-0.48 0-0.48-0.27v-2.36a1.06 1.06 0 0 1 0.48-0.83l0.54-0.32c0.27-0.15 0.48-0.03 0.48 0.28z"/></g><path d="m180.7 292.65v2.35a1.06 1.06 0 0 1-0.48 0.83l-0.55 0.31c-0.26 0.16-0.48 0-0.48-0.27v-2.36a1.06 1.06 0 0 1 0.48-0.83l0.55-0.32c0.26-0.14 0.48-0.02 0.48 0.29z" fill="#37474f"/><path d="m178.27 294.05v2.36a1.06 1.06 0 0 1-0.48 0.83l-0.54 0.31c-0.27 0.16-0.48 0-0.48-0.27v-2.36a1 1 0 0 1 0.48-0.83l0.54-0.32c0.26-0.15 0.48-0.03 0.48 0.28z" fill="#6da5ea"/><path d="m175.84 295.45v2.36a1.06 1.06 0 0 1-0.48 0.83l-0.54 0.31c-0.27 0.16-0.48 0-0.48-0.27v-2.36a1 1 0 0 1 0.48-0.83l0.54-0.32c0.26-0.17 0.48-0.03 0.48 0.28z" fill="#37474f"/><path d="m173.41 296.85v2.36a1 1 0 0 1-0.48 0.83l-0.54 0.31c-0.27 0.16-0.48 0-0.48-0.27v-2.36a1 1 0 0 1 0.48-0.83l0.54-0.32c0.27-0.15 0.48-0.03 0.48 0.28z" fill="#6da5ea"/><path d="m171 298.25v2.36a1.05 1.05 0 0 1-0.48 0.83l-0.54 0.31c-0.26 0.16-0.48 0-0.48-0.27v-2.36a1.1 1.1 0 0 1 0.48-0.84l0.54-0.31c0.25-0.15 0.48-0.03 0.48 0.28z" fill="#37474f"/><path d="m168.55 299.65v2.35a1.05 1.05 0 0 1-0.48 0.83l-0.54 0.31c-0.26 0.16-0.48 0-0.48-0.27v-2.36a1.1 1.1 0 0 1 0.48-0.84l0.54-0.31c0.27-0.14 0.48-0.02 0.48 0.29z" fill="#6da5ea"/><path d="m166.13 301.05v2.36a1.08 1.08 0 0 1-0.48 0.83l-0.55 0.31c-0.26 0.16-0.48 0-0.48-0.27v-2.36a1.1 1.1 0 0 1 0.48-0.84l0.55-0.31c0.26-0.15 0.48-0.03 0.48 0.28z" fill="#6da5ea"/><path d="m200.25 246.08-35.76 20.64a5.34 5.34 0 0 0-2.4 4.17v4.86c0 1.53 1.08 2.15 2.4 1.38l35.76-20.64a5.32 5.32 0 0 0 2.41-4.16v-4.87c0-1.53-1.08-2.15-2.41-1.38z" fill="#455a64"/><g fill="#6da5ea"><path d="m200.12 250.19v2.36a1 1 0 0 1-0.48 0.83l-0.54 0.32c-0.26 0.15-0.48 0-0.48-0.28v-2.36a1.06 1.06 0 0 1 0.48-0.83l0.54-0.31c0.27-0.16 0.48-0.03 0.48 0.27z"/><path d="m197.69 251.59v2.41a1 1 0 0 1-0.48 0.83l-0.54 0.32c-0.26 0.15-0.48 0-0.48-0.28v-2.36a1.06 1.06 0 0 1 0.48-0.83l0.54-0.31c0.27-0.21 0.48-0.08 0.48 0.22z"/><path d="m195.27 253v2.36a1.06 1.06 0 0 1-0.48 0.83l-0.55 0.32a0.3 0.3 0 0 1-0.48-0.28v-2.36a1.06 1.06 0 0 1 0.48-0.83l0.55-0.31c0.26-0.17 0.48-0.04 0.48 0.27z"/><path d="m192.84 254.39v2.36a1.06 1.06 0 0 1-0.48 0.83l-0.54 0.32c-0.27 0.15-0.48 0-0.48-0.28v-2.36a1 1 0 0 1 0.48-0.83l0.54-0.31c0.26-0.12 0.48-0.03 0.48 0.27z"/></g><path d="m190.41 255.79v2.36a1.06 1.06 0 0 1-0.48 0.83l-0.54 0.32c-0.27 0.15-0.48 0-0.48-0.28v-2.36a1 1 0 0 1 0.48-0.83l0.54-0.31c0.26-0.16 0.48-0.03 0.48 0.27z" fill="#37474f"/><path d="m188 257.19v2.36a1 1 0 0 1-0.48 0.83l-0.54 0.32c-0.27 0.15-0.48 0-0.48-0.28v-2.36a1 1 0 0 1 0.48-0.83l0.54-0.31c0.25-0.16 0.48-0.03 0.48 0.27z" fill="#37474f"/><g fill="#6da5ea"><path d="m185.55 258.59v2.41a1 1 0 0 1-0.48 0.83l-0.54 0.32a0.3 0.3 0 0 1-0.48-0.28v-2.36a1.06 1.06 0 0 1 0.48-0.83l0.54-0.31c0.27-0.21 0.48-0.08 0.48 0.22z"/><path d="m183.12 260v2.36a1 1 0 0 1-0.48 0.83l-0.54 0.32a0.3 0.3 0 0 1-0.48-0.28v-2.36a1.06 1.06 0 0 1 0.48-0.83l0.54-0.31c0.27-0.17 0.48-0.04 0.48 0.27z"/><path d="m180.7 261.39v2.36a1.06 1.06 0 0 1-0.48 0.83l-0.55 0.32a0.3 0.3 0 0 1-0.48-0.28v-2.36a1.06 1.06 0 0 1 0.48-0.83l0.55-0.31c0.26-0.12 0.48-0.03 0.48 0.27z"/></g><path d="m178.27 262.79v2.36a1.06 1.06 0 0 1-0.48 0.83l-0.54 0.31c-0.27 0.16-0.48 0-0.48-0.27v-2.36a1 1 0 0 1 0.48-0.83l0.54-0.31c0.26-0.16 0.48-0.03 0.48 0.27z" fill="#37474f"/><path d="m175.84 264.19v2.36a1.06 1.06 0 0 1-0.48 0.83l-0.54 0.31c-0.27 0.16-0.48 0-0.48-0.27v-2.36a1 1 0 0 1 0.48-0.83l0.54-0.32a0.3 0.3 0 0 1 0.48 0.28z" fill="#6da5ea"/><path d="m173.41 265.59v2.41a1 1 0 0 1-0.48 0.83l-0.54 0.31c-0.27 0.16-0.48 0-0.48-0.27v-2.36a1 1 0 0 1 0.48-0.83l0.54-0.32c0.27-0.2 0.48-0.07 0.48 0.23z" fill="#6da5ea"/><path d="m171 267v2.36a1 1 0 0 1-0.48 0.83l-0.54 0.31c-0.26 0.16-0.48 0-0.48-0.27v-2.36a1.06 1.06 0 0 1 0.5-0.87l0.54-0.32c0.23-0.12 0.46 0.01 0.46 0.32z" fill="#37474f"/><path d="m168.55 268.39v2.36a1 1 0 0 1-0.48 0.83l-0.54 0.31c-0.26 0.16-0.48 0-0.48-0.27v-2.36a1.06 1.06 0 0 1 0.48-0.83l0.54-0.32c0.27-0.11 0.48-0.02 0.48 0.28z" fill="#6da5ea"/><path d="m166.13 269.79v2.36a1.06 1.06 0 0 1-0.48 0.83l-0.55 0.31c-0.26 0.16-0.48 0-0.48-0.27v-2.36a1.06 1.06 0 0 1 0.48-0.83l0.55-0.32a0.3 0.3 0 0 1 0.48 0.28z" fill="#37474f"/><path d="m200.25 214.87-35.76 20.65a5.33 5.33 0 0 0-2.4 4.16v4.86c0 1.53 1.08 2.16 2.4 1.39l35.76-20.65a5.3 5.3 0 0 0 2.41-4.16v-4.86c0-1.53-1.08-2.15-2.41-1.39z" fill="#455a64"/><path d="m200.12 219v2.36a1.05 1.05 0 0 1-0.48 0.83l-0.54 0.31c-0.26 0.16-0.48 0-0.48-0.28v-2.35a1.1 1.1 0 0 1 0.48-0.84l0.54-0.31c0.27-0.16 0.48-0.04 0.48 0.28z" fill="#6da5ea"/><path d="m197.69 220.39v2.36a1.05 1.05 0 0 1-0.48 0.83l-0.54 0.31c-0.26 0.15-0.48 0-0.48-0.28v-2.35a1.1 1.1 0 0 1 0.48-0.84l0.54-0.31c0.27-0.11 0.48-0.03 0.48 0.28z" fill="#37474f"/><g fill="#6da5ea"><path d="m195.27 221.79v2.36a1.08 1.08 0 0 1-0.48 0.83l-0.55 0.31c-0.26 0.15-0.48 0-0.48-0.28v-2.35a1.1 1.1 0 0 1 0.48-0.84l0.55-0.31c0.26-0.15 0.48-0.03 0.48 0.28z"/><path d="m192.84 223.19v2.36a1.08 1.08 0 0 1-0.48 0.83l-0.54 0.31c-0.27 0.15-0.48 0-0.48-0.28v-2.35a1.07 1.07 0 0 1 0.48-0.84l0.54-0.31c0.26-0.15 0.48-0.03 0.48 0.28z"/><path d="m190.41 224.59v2.41a1.08 1.08 0 0 1-0.48 0.83l-0.54 0.31c-0.27 0.15-0.48 0-0.48-0.28v-2.35a1.07 1.07 0 0 1 0.48-0.84l0.54-0.31c0.26-0.2 0.48-0.08 0.48 0.23z"/></g><path d="m188 226v2.36a1.05 1.05 0 0 1-0.48 0.83l-0.54 0.31c-0.27 0.15-0.48 0-0.48-0.28v-2.35a1.07 1.07 0 0 1 0.5-0.87l0.54-0.31c0.23-0.13 0.46-0.01 0.46 0.31z" fill="#37474f"/><path d="m185.55 227.39v2.36a1.05 1.05 0 0 1-0.48 0.83l-0.54 0.31c-0.26 0.15-0.48 0-0.48-0.28v-2.35a1.1 1.1 0 0 1 0.48-0.84l0.54-0.31c0.27-0.11 0.48-0.03 0.48 0.28z" fill="#37474f"/><path d="m183.12 228.79v2.36a1.05 1.05 0 0 1-0.48 0.83l-0.54 0.31c-0.26 0.15-0.48 0-0.48-0.28v-2.35a1.1 1.1 0 0 1 0.48-0.84l0.54-0.31c0.27-0.15 0.48-0.03 0.48 0.28z" fill="#6da5ea"/><path d="m180.7 230.19v2.36a1.08 1.08 0 0 1-0.48 0.83l-0.55 0.31c-0.26 0.15-0.48 0-0.48-0.28v-2.35a1.1 1.1 0 0 1 0.48-0.84l0.55-0.31c0.26-0.15 0.48-0.03 0.48 0.28z" fill="#37474f"/><g fill="#6da5ea"><path d="m178.27 231.59v2.41a1.08 1.08 0 0 1-0.48 0.83l-0.54 0.31c-0.27 0.15-0.48 0-0.48-0.28v-2.36a1.07 1.07 0 0 1 0.48-0.83l0.54-0.31c0.26-0.2 0.48-0.08 0.48 0.23z"/><path d="m175.84 233v2.36a1.08 1.08 0 0 1-0.48 0.83l-0.54 0.31c-0.27 0.15-0.48 0-0.48-0.28v-2.36a1.07 1.07 0 0 1 0.48-0.83l0.54-0.31c0.26-0.16 0.48-0.04 0.48 0.28z"/><path d="m173.41 234.39v2.36a1.07 1.07 0 0 1-0.48 0.83l-0.54 0.31c-0.27 0.15-0.48 0-0.48-0.28v-2.36a1.07 1.07 0 0 1 0.48-0.83l0.54-0.31c0.27-0.11 0.48-0.03 0.48 0.28z"/></g><path d="m171 235.79v2.36a1.07 1.07 0 0 1-0.48 0.83l-0.54 0.31c-0.26 0.15-0.48 0-0.48-0.28v-2.36a1.09 1.09 0 0 1 0.48-0.83l0.54-0.31c0.25-0.15 0.48-0.03 0.48 0.28z" fill="#37474f"/><path d="m168.55 237.19v2.36a1.07 1.07 0 0 1-0.48 0.83l-0.54 0.31c-0.26 0.15-0.48 0-0.48-0.28v-2.36a1.09 1.09 0 0 1 0.48-0.83l0.54-0.31c0.27-0.15 0.48-0.03 0.48 0.28z" fill="#6da5ea"/><path d="m166.13 238.59v2.41a1.09 1.09 0 0 1-0.48 0.83l-0.55 0.31c-0.26 0.15-0.48 0-0.48-0.28v-2.36a1.09 1.09 0 0 1 0.48-0.83l0.55-0.31c0.26-0.2 0.48-0.08 0.48 0.23z" fill="#6da5ea"/><path d="m200.25 183.59-35.76 20.64a5.33 5.33 0 0 0-2.4 4.16v4.87c0 1.53 1.08 2.15 2.4 1.38l35.76-20.64a5.32 5.32 0 0 0 2.41-4.17v-4.83c0-1.56-1.08-2.18-2.41-1.41z" fill="#455a64"/><path d="m200.12 187.7v2.36a1 1 0 0 1-0.48 0.83l-0.54 0.32a0.3 0.3 0 0 1-0.48-0.28v-2.36a1.06 1.06 0 0 1 0.48-0.83l0.54-0.31c0.27-0.16 0.48-0.03 0.48 0.27z" fill="#6da5ea"/><path d="m197.69 189.1v2.36a1 1 0 0 1-0.48 0.83l-0.54 0.32a0.3 0.3 0 0 1-0.48-0.28v-2.33a1.06 1.06 0 0 1 0.48-0.83l0.54-0.31c0.27-0.19 0.48-0.06 0.48 0.24z" fill="#37474f"/><g fill="#6da5ea"><path d="m195.27 190.5v2.36a1.06 1.06 0 0 1-0.48 0.83l-0.55 0.32a0.3 0.3 0 0 1-0.48-0.28v-2.36a1.06 1.06 0 0 1 0.48-0.83l0.55-0.31c0.26-0.16 0.48-0.03 0.48 0.27z"/><path d="m192.84 191.9v2.36a1.06 1.06 0 0 1-0.48 0.83l-0.54 0.31c-0.27 0.16-0.48 0-0.48-0.27v-2.36a1 1 0 0 1 0.48-0.83l0.54-0.31c0.26-0.16 0.48-0.03 0.48 0.27z"/><path d="m190.41 193.3v2.36a1.06 1.06 0 0 1-0.48 0.83l-0.54 0.31c-0.27 0.16-0.48 0-0.48-0.27v-2.36a1 1 0 0 1 0.48-0.83l0.54-0.32a0.3 0.3 0 0 1 0.48 0.28z"/></g><path d="m188 194.7v2.36a1 1 0 0 1-0.48 0.83l-0.54 0.31c-0.27 0.16-0.48 0-0.48-0.27v-2.36a1 1 0 0 1 0.48-0.83l0.54-0.32c0.25-0.15 0.48-0.02 0.48 0.28z" fill="#37474f"/><path d="m185.55 196.1v2.36a1 1 0 0 1-0.48 0.83l-0.54 0.31c-0.26 0.16-0.48 0-0.48-0.27v-2.33a1.06 1.06 0 0 1 0.48-0.83l0.54-0.32c0.27-0.18 0.48-0.05 0.48 0.25z" fill="#37474f"/><path d="m183.12 197.5v2.36a1 1 0 0 1-0.48 0.83l-0.54 0.31c-0.26 0.16-0.48 0-0.48-0.27v-2.36a1.06 1.06 0 0 1 0.48-0.83l0.54-0.32c0.27-0.15 0.48-0.02 0.48 0.28z" fill="#6da5ea"/><path d="m180.7 198.9v2.36a1.06 1.06 0 0 1-0.48 0.83l-0.55 0.31c-0.26 0.16-0.48 0-0.48-0.27v-2.36a1.06 1.06 0 0 1 0.48-0.83l0.55-0.32a0.3 0.3 0 0 1 0.48 0.28z" fill="#37474f"/><g fill="#6da5ea"><path d="m178.27 200.3v2.36a1.06 1.06 0 0 1-0.48 0.83l-0.54 0.31c-0.27 0.16-0.48 0-0.48-0.27v-2.36a1 1 0 0 1 0.48-0.83l0.54-0.32a0.3 0.3 0 0 1 0.48 0.28z"/><path d="m175.84 201.7v2.36a1.06 1.06 0 0 1-0.48 0.83l-0.54 0.31c-0.27 0.16-0.48 0-0.48-0.27v-2.36a1 1 0 0 1 0.48-0.83l0.54-0.32c0.26-0.15 0.48-0.03 0.48 0.28z"/><path d="m173.41 203.1v2.36a1 1 0 0 1-0.48 0.83l-0.54 0.31c-0.27 0.16-0.48 0-0.48-0.27v-2.33a1 1 0 0 1 0.48-0.83l0.54-0.32c0.27-0.18 0.48-0.06 0.48 0.25z"/></g><path d="m171 204.5v2.36a1 1 0 0 1-0.48 0.83l-0.52 0.31c-0.26 0.16-0.48 0-0.48-0.27v-2.36a1.06 1.06 0 0 1 0.48-0.83l0.54-0.32c0.23-0.15 0.46-0.03 0.46 0.28z" fill="#37474f"/><path d="m168.55 205.9v2.36a1 1 0 0 1-0.48 0.83l-0.54 0.31c-0.26 0.16-0.48 0-0.48-0.27v-2.36a1.06 1.06 0 0 1 0.48-0.83l0.54-0.32c0.27-0.15 0.48-0.03 0.48 0.28z" fill="#6da5ea"/><path d="m166.13 207.3v2.36a1.06 1.06 0 0 1-0.48 0.83l-0.55 0.31c-0.26 0.16-0.48 0-0.48-0.27v-2.36a1.06 1.06 0 0 1 0.48-0.83l0.55-0.32c0.26-0.15 0.48-0.02 0.48 0.28z" fill="#6da5ea"/><path d="m200.25 152.35-35.76 20.65a5.33 5.33 0 0 0-2.4 4.16v4.84c0 1.54 1.08 2.16 2.4 1.39l35.76-20.65a5.29 5.29 0 0 0 2.41-4.16v-4.86c0-1.51-1.08-2.13-2.41-1.37z" fill="#455a64"/><path d="m200.12 156.47v2.36a1 1 0 0 1-0.48 0.83l-0.54 0.31c-0.26 0.16-0.48 0-0.48-0.27v-2.36a1.06 1.06 0 0 1 0.48-0.83l0.54-0.32c0.27-0.19 0.48-0.02 0.48 0.28z" fill="#37474f"/><path d="m197.69 157.87v2.36a1 1 0 0 1-0.48 0.83l-0.54 0.31c-0.26 0.16-0.48 0-0.48-0.27v-2.36a1.06 1.06 0 0 1 0.48-0.83l0.54-0.32c0.27-0.15 0.48-0.02 0.48 0.28z" fill="#6da5ea"/><g fill="#37474f"><path d="m195.27 159.27v2.36a1.06 1.06 0 0 1-0.48 0.83l-0.55 0.31c-0.26 0.16-0.48 0-0.48-0.27v-2.36a1.06 1.06 0 0 1 0.48-0.83l0.55-0.32a0.3 0.3 0 0 1 0.48 0.28z"/><path d="m192.84 160.67v2.33a1.06 1.06 0 0 1-0.48 0.83l-0.54 0.31c-0.27 0.16-0.48 0-0.48-0.27v-2.36a1 1 0 0 1 0.48-0.83l0.54-0.32c0.26-0.12 0.48 0 0.48 0.31z"/><path d="m190.41 162.07v2.36a1.06 1.06 0 0 1-0.48 0.83l-0.54 0.31c-0.27 0.16-0.48 0-0.48-0.27v-2.36a1 1 0 0 1 0.48-0.83l0.54-0.32c0.26-0.15 0.48-0.03 0.48 0.28z"/></g><path d="m188 163.47v2.36a1 1 0 0 1-0.48 0.83l-0.52 0.34c-0.27 0.16-0.48 0-0.48-0.27v-2.36a1 1 0 0 1 0.48-0.83l0.54-0.32c0.23-0.22 0.46-0.06 0.46 0.25z" fill="#6da5ea"/><path d="m185.55 164.87v2.36a1 1 0 0 1-0.48 0.83l-0.54 0.31c-0.26 0.16-0.48 0-0.48-0.27v-2.36a1.06 1.06 0 0 1 0.48-0.83l0.54-0.32c0.27-0.15 0.48-0.03 0.48 0.28z" fill="#6da5ea"/><path d="m183.12 166.27v2.36a1 1 0 0 1-0.48 0.83l-0.54 0.31c-0.26 0.16-0.48 0-0.48-0.27v-2.36a1.06 1.06 0 0 1 0.48-0.83l0.54-0.32c0.27-0.15 0.48 0.01 0.48 0.28z" fill="#37474f"/><path d="m180.7 167.67v2.33a1.06 1.06 0 0 1-0.48 0.83l-0.55 0.31c-0.26 0.16-0.48 0-0.48-0.27v-2.36a1.06 1.06 0 0 1 0.48-0.83l0.55-0.32c0.26-0.12 0.48 0 0.48 0.31z" fill="#6da5ea"/><g fill="#37474f"><path d="m178.27 169.07v2.36a1.08 1.08 0 0 1-0.48 0.83l-0.54 0.31c-0.27 0.16-0.48 0-0.48-0.27v-2.36a1 1 0 0 1 0.48-0.83l0.54-0.32c0.26-0.15 0.48-0.03 0.48 0.28z"/><path d="m175.84 170.47v2.36a1.08 1.08 0 0 1-0.48 0.83l-0.54 0.31c-0.27 0.16-0.48 0-0.48-0.27v-2.36a1.07 1.07 0 0 1 0.48-0.84l0.54-0.31c0.26-0.19 0.48-0.03 0.48 0.28z"/><path d="m173.41 171.87v2.36a1.05 1.05 0 0 1-0.48 0.83l-0.54 0.31c-0.27 0.16-0.48 0-0.48-0.27v-2.36a1.07 1.07 0 0 1 0.48-0.84l0.54-0.31c0.27-0.15 0.48-0.03 0.48 0.28z"/></g><path d="m171 173.27v2.36a1.05 1.05 0 0 1-0.48 0.83l-0.54 0.31c-0.26 0.16-0.48 0-0.48-0.27v-2.36a1.1 1.1 0 0 1 0.48-0.84l0.54-0.31c0.25-0.15 0.48 0.01 0.48 0.28z" fill="#6da5ea"/><path d="m168.55 174.67v2.33a1.05 1.05 0 0 1-0.48 0.83l-0.54 0.31c-0.26 0.16-0.48 0-0.48-0.28v-2.35a1.1 1.1 0 0 1 0.48-0.84l0.54-0.31c0.27-0.12 0.48 0 0.48 0.31z" fill="#37474f"/><path d="m166.13 176.07v2.36a1.08 1.08 0 0 1-0.48 0.83l-0.55 0.31c-0.26 0.16-0.48 0-0.48-0.28v-2.35a1.1 1.1 0 0 1 0.48-0.84l0.55-0.31c0.26-0.15 0.48-0.03 0.48 0.28z" fill="#37474f"/><path d="m155.69 338.1-1.1-0.64a1.47 1.47 0 0 0-1.46 0.15 4.61 4.61 0 0 0-2.09 3.62 1.47 1.47 0 0 0 0.61 1.35l1 0.59 0.19-0.31a2.09 2.09 0 0 0 0.6-0.24 4.61 4.61 0 0 0 2.09-3.61 2.28 2.28 0 0 0-0.07-0.54z" fill="#6da5ea"/><path d="m155.69 338.1-1.1-0.64a1.47 1.47 0 0 0-1.46 0.15 4.61 4.61 0 0 0-2.09 3.62 1.47 1.47 0 0 0 0.61 1.35l1 0.59 0.19-0.31a2.09 2.09 0 0 0 0.6-0.24 4.61 4.61 0 0 0 2.09-3.61 2.28 2.28 0 0 0-0.07-0.54z" opacity=".4"/><path d="m154.17 338.22a4.62 4.62 0 0 0-2.08 3.62c0 1.33 0.93 1.87 2.08 1.2a4.58 4.58 0 0 0 2.09-3.62c0-1.33-0.93-1.87-2.09-1.2z" fill="#6da5ea"/><path d="m154.17 338.22a4.62 4.62 0 0 0-2.08 3.62c0 1.33 0.93 1.87 2.08 1.2a4.58 4.58 0 0 0 2.09-3.62c0-1.33-0.93-1.87-2.09-1.2z" opacity=".2"/><path d="m146.63 343.33-1.1-0.63a1.48 1.48 0 0 0-1.47 0.15 4.64 4.64 0 0 0-2.09 3.62 1.49 1.49 0 0 0 0.61 1.35l1 0.59 0.18-0.31a2.37 2.37 0 0 0 0.6-0.23 4.61 4.61 0 0 0 2.09-3.62 2.76 2.76 0 0 0-0.06-0.53z" fill="#6da5ea"/><path d="m146.63 343.33-1.1-0.63a1.48 1.48 0 0 0-1.47 0.15 4.64 4.64 0 0 0-2.09 3.62 1.49 1.49 0 0 0 0.61 1.35l1 0.59 0.18-0.31a2.37 2.37 0 0 0 0.6-0.23 4.61 4.61 0 0 0 2.09-3.62 2.76 2.76 0 0 0-0.06-0.53z" opacity=".4"/><path d="m145.11 343.45a4.64 4.64 0 0 0-2.09 3.62c0 1.33 0.94 1.87 2.09 1.2a4.61 4.61 0 0 0 2.09-3.61c0-1.34-0.94-1.88-2.09-1.21z" fill="#6da5ea"/><path d="m145.11 343.45a4.64 4.64 0 0 0-2.09 3.62c0 1.33 0.94 1.87 2.09 1.2a4.61 4.61 0 0 0 2.09-3.61c0-1.34-0.94-1.88-2.09-1.21z" opacity=".2"/><path d="m155.69 306.87-1.1-0.63a1.47 1.47 0 0 0-1.46 0.15 4.61 4.61 0 0 0-2.13 3.61 1.47 1.47 0 0 0 0.61 1.35l1 0.59 0.19-0.31a2 2 0 0 0 0.6-0.23 4.64 4.64 0 0 0 2.09-3.62 2.13 2.13 0 0 0-0.07-0.53z" fill="#6da5ea"/><path d="m155.69 306.87-1.1-0.63a1.47 1.47 0 0 0-1.46 0.15 4.61 4.61 0 0 0-2.13 3.61 1.47 1.47 0 0 0 0.61 1.35l1 0.59 0.19-0.31a2 2 0 0 0 0.6-0.23 4.64 4.64 0 0 0 2.09-3.62 2.13 2.13 0 0 0-0.07-0.53z" opacity=".4"/><path d="m154.17 307a4.63 4.63 0 0 0-2.08 3.62c0 1.33 0.93 1.87 2.08 1.2a4.58 4.58 0 0 0 2.09-3.61c0-1.34-0.93-1.88-2.09-1.21z" fill="#6da5ea"/><path d="m154.17 307a4.63 4.63 0 0 0-2.08 3.62c0 1.33 0.93 1.87 2.08 1.2a4.58 4.58 0 0 0 2.09-3.61c0-1.34-0.93-1.88-2.09-1.21z" opacity=".2"/><path d="m146.63 312.1-1.1-0.63a1.48 1.48 0 0 0-1.47 0.15 4.64 4.64 0 0 0-2.09 3.62 1.48 1.48 0 0 0 0.61 1.35l1 0.59 0.18-0.31a2 2 0 0 0 0.6-0.23 4.61 4.61 0 0 0 2.09-3.62 2.76 2.76 0 0 0-0.06-0.53z" fill="#6da5ea"/><path d="m146.63 312.1-1.1-0.63a1.48 1.48 0 0 0-1.47 0.15 4.64 4.64 0 0 0-2.09 3.62 1.48 1.48 0 0 0 0.61 1.35l1 0.59 0.18-0.31a2 2 0 0 0 0.6-0.23 4.61 4.61 0 0 0 2.09-3.62 2.76 2.76 0 0 0-0.06-0.53z" opacity=".4"/><path d="m145.11 312.22a4.64 4.64 0 0 0-2.09 3.62c0 1.33 0.94 1.87 2.09 1.21a4.64 4.64 0 0 0 2.09-3.62c0-1.33-0.94-1.87-2.09-1.21z" fill="#6da5ea"/><path d="m145.11 312.22a4.64 4.64 0 0 0-2.09 3.62c0 1.33 0.94 1.87 2.09 1.21a4.64 4.64 0 0 0 2.09-3.62c0-1.33-0.94-1.87-2.09-1.21z" opacity=".2"/><path d="m155.69 275.64-1.1-0.63a1.47 1.47 0 0 0-1.46 0.15 4.61 4.61 0 0 0-2.09 3.62 1.46 1.46 0 0 0 0.61 1.35l1 0.59 0.19-0.31a2 2 0 0 0 0.6-0.23 4.64 4.64 0 0 0 2.09-3.62 2.13 2.13 0 0 0-0.07-0.53z" fill="#6da5ea"/><path d="m155.69 275.64-1.1-0.63a1.47 1.47 0 0 0-1.46 0.15 4.61 4.61 0 0 0-2.09 3.62 1.46 1.46 0 0 0 0.61 1.35l1 0.59 0.19-0.31a2 2 0 0 0 0.6-0.23 4.64 4.64 0 0 0 2.09-3.62 2.13 2.13 0 0 0-0.07-0.53z" opacity=".4"/><path d="m154.17 275.76a4.63 4.63 0 0 0-2.08 3.62c0 1.33 0.93 1.87 2.08 1.21a4.61 4.61 0 0 0 2.09-3.62c0-1.33-0.93-1.87-2.09-1.21z" fill="#6da5ea"/><path d="m154.17 275.76a4.63 4.63 0 0 0-2.08 3.62c0 1.33 0.93 1.87 2.08 1.21a4.61 4.61 0 0 0 2.09-3.62c0-1.33-0.93-1.87-2.09-1.21z" opacity=".2"/><path d="m146.63 280.88-1.1-0.64a1.46 1.46 0 0 0-1.47 0.15 4.61 4.61 0 0 0-2.06 3.61 1.48 1.48 0 0 0 0.61 1.35l1 0.59 0.18-0.31a2 2 0 0 0 0.6-0.23 4.61 4.61 0 0 0 2.09-3.62 2.76 2.76 0 0 0-0.06-0.53z" fill="#6da5ea"/><path d="m146.63 280.88-1.1-0.64a1.46 1.46 0 0 0-1.47 0.15 4.61 4.61 0 0 0-2.06 3.61 1.48 1.48 0 0 0 0.61 1.35l1 0.59 0.18-0.31a2 2 0 0 0 0.6-0.23 4.61 4.61 0 0 0 2.09-3.62 2.76 2.76 0 0 0-0.06-0.53z" opacity=".4"/><path d="m145.11 281a4.64 4.64 0 0 0-2.09 3.62c0 1.33 0.94 1.87 2.09 1.21a4.64 4.64 0 0 0 2.09-3.62c0-1.34-0.94-1.88-2.09-1.21z" fill="#6da5ea"/><path d="m145.11 281a4.64 4.64 0 0 0-2.09 3.62c0 1.33 0.94 1.87 2.09 1.21a4.64 4.64 0 0 0 2.09-3.62c0-1.34-0.94-1.88-2.09-1.21z" opacity=".2"/><path d="m155.69 244.42-1.1-0.64a1.44 1.44 0 0 0-1.46 0.15 4.58 4.58 0 0 0-2.09 3.61 1.46 1.46 0 0 0 0.61 1.35l1 0.59 0.19-0.31a2 2 0 0 0 0.6-0.23 4.64 4.64 0 0 0 2.09-3.62 2.13 2.13 0 0 0-0.07-0.53z" fill="#6da5ea"/><path d="m155.69 244.42-1.1-0.64a1.44 1.44 0 0 0-1.46 0.15 4.58 4.58 0 0 0-2.09 3.61 1.46 1.46 0 0 0 0.61 1.35l1 0.59 0.19-0.31a2 2 0 0 0 0.6-0.23 4.64 4.64 0 0 0 2.09-3.62 2.13 2.13 0 0 0-0.07-0.53z" opacity=".4"/><path d="m154.17 244.53a4.63 4.63 0 0 0-2.08 3.62c0 1.33 0.93 1.87 2.08 1.21a4.61 4.61 0 0 0 2.09-3.62c0-1.33-0.93-1.87-2.09-1.21z" fill="#6da5ea"/><path d="m154.17 244.53a4.63 4.63 0 0 0-2.08 3.62c0 1.33 0.93 1.87 2.08 1.21a4.61 4.61 0 0 0 2.09-3.62c0-1.33-0.93-1.87-2.09-1.21z" opacity=".2"/><path d="m146.63 249.65-1.1-0.64a1.46 1.46 0 0 0-1.47 0.15 4.61 4.61 0 0 0-2.09 3.61 1.47 1.47 0 0 0 0.61 1.35l1 0.58 0.18-0.31a2 2 0 0 0 0.6-0.23 4.58 4.58 0 0 0 2.09-3.62 2.86 2.86 0 0 0-0.06-0.53z" fill="#6da5ea"/><path d="m146.63 249.65-1.1-0.64a1.46 1.46 0 0 0-1.47 0.15 4.61 4.61 0 0 0-2.09 3.61 1.47 1.47 0 0 0 0.61 1.35l1 0.58 0.18-0.31a2 2 0 0 0 0.6-0.23 4.58 4.58 0 0 0 2.09-3.62 2.86 2.86 0 0 0-0.06-0.53z" opacity=".4"/><path d="m145.11 249.77a4.61 4.61 0 0 0-2.09 3.61c0 1.33 0.94 1.87 2.09 1.21a4.64 4.64 0 0 0 2.09-3.59c0-1.36-0.94-1.9-2.09-1.23z" fill="#6da5ea"/><path d="m145.11 249.77a4.61 4.61 0 0 0-2.09 3.61c0 1.33 0.94 1.87 2.09 1.21a4.64 4.64 0 0 0 2.09-3.59c0-1.36-0.94-1.9-2.09-1.23z" opacity=".2"/><path d="m155.69 213.13-1.1-0.64a1.47 1.47 0 0 0-1.46 0.15 4.58 4.58 0 0 0-2.09 3.62 1.47 1.47 0 0 0 0.61 1.35l1 0.58 0.19-0.3a2.42 2.42 0 0 0 0.6-0.24 4.61 4.61 0 0 0 2.09-3.61 2.21 2.21 0 0 0-0.07-0.54z" fill="#6da5ea"/><path d="m155.69 213.13-1.1-0.64a1.47 1.47 0 0 0-1.46 0.15 4.58 4.58 0 0 0-2.09 3.62 1.47 1.47 0 0 0 0.61 1.35l1 0.58 0.19-0.3a2.42 2.42 0 0 0 0.6-0.24 4.61 4.61 0 0 0 2.09-3.61 2.21 2.21 0 0 0-0.07-0.54z" opacity=".4"/><path d="m154.17 213.25a4.6 4.6 0 0 0-2.08 3.61c0 1.34 0.93 1.88 2.08 1.21a4.61 4.61 0 0 0 2.09-3.62c0-1.33-0.93-1.87-2.09-1.2z" fill="#6da5ea"/><path d="m154.17 213.25a4.6 4.6 0 0 0-2.08 3.61c0 1.34 0.93 1.88 2.08 1.21a4.61 4.61 0 0 0 2.09-3.62c0-1.33-0.93-1.87-2.09-1.2z" opacity=".2"/><path d="m146.63 218.36-1.1-0.64a1.48 1.48 0 0 0-1.47 0.15 4.64 4.64 0 0 0-2.09 3.62 1.49 1.49 0 0 0 0.61 1.35l1 0.59 0.18-0.31a2.09 2.09 0 0 0 0.6-0.24 4.58 4.58 0 0 0 2.09-3.61 3 3 0 0 0-0.06-0.54z" fill="#6da5ea"/><path d="m146.63 218.36-1.1-0.64a1.48 1.48 0 0 0-1.47 0.15 4.64 4.64 0 0 0-2.09 3.62 1.49 1.49 0 0 0 0.61 1.35l1 0.59 0.18-0.31a2.09 2.09 0 0 0 0.6-0.24 4.58 4.58 0 0 0 2.09-3.61 3 3 0 0 0-0.06-0.54z" opacity=".4"/><path d="m145.11 218.48a4.63 4.63 0 0 0-2.11 3.62c0 1.33 0.94 1.87 2.09 1.2a4.61 4.61 0 0 0 2.09-3.62c0.02-1.33-0.92-1.87-2.07-1.2z" fill="#6da5ea"/><path d="m145.11 218.48a4.63 4.63 0 0 0-2.11 3.62c0 1.33 0.94 1.87 2.09 1.2a4.61 4.61 0 0 0 2.09-3.62c0.02-1.33-0.92-1.87-2.07-1.2z" opacity=".2"/><path d="m155.69 181.91-1.1-0.64a1.47 1.47 0 0 0-1.46 0.15 4.6 4.6 0 0 0-2.13 3.58 1.47 1.47 0 0 0 0.61 1.35l1 0.59 0.19-0.31a2.42 2.42 0 0 0 0.6-0.24 4.61 4.61 0 0 0 2.09-3.61 2.21 2.21 0 0 0-0.07-0.54z" fill="#6da5ea"/><path d="m155.69 181.91-1.1-0.64a1.47 1.47 0 0 0-1.46 0.15 4.6 4.6 0 0 0-2.13 3.58 1.47 1.47 0 0 0 0.61 1.35l1 0.59 0.19-0.31a2.42 2.42 0 0 0 0.6-0.24 4.61 4.61 0 0 0 2.09-3.61 2.21 2.21 0 0 0-0.07-0.54z" opacity=".4"/><path d="m154.17 182a4.6 4.6 0 0 0-2.08 3.61c0 1.34 0.93 1.88 2.08 1.21a4.6 4.6 0 0 0 2.09-3.62c0-1.3-0.93-1.84-2.09-1.2z" fill="#6da5ea"/><path d="m154.17 182a4.6 4.6 0 0 0-2.08 3.61c0 1.34 0.93 1.88 2.08 1.21a4.6 4.6 0 0 0 2.09-3.62c0-1.3-0.93-1.84-2.09-1.2z" opacity=".2"/><path d="m146.63 187.14-1.1-0.64a1.48 1.48 0 0 0-1.47 0.15 4.64 4.64 0 0 0-2.09 3.62 1.49 1.49 0 0 0 0.61 1.35l1 0.59 0.18-0.31a2.09 2.09 0 0 0 0.6-0.24 4.58 4.58 0 0 0 2.09-3.61 3 3 0 0 0-0.06-0.54z" fill="#6da5ea"/><path d="m146.63 187.14-1.1-0.64a1.48 1.48 0 0 0-1.47 0.15 4.64 4.64 0 0 0-2.09 3.62 1.49 1.49 0 0 0 0.61 1.35l1 0.59 0.18-0.31a2.09 2.09 0 0 0 0.6-0.24 4.58 4.58 0 0 0 2.09-3.61 3 3 0 0 0-0.06-0.54z" opacity=".4"/><path d="m145.11 187.26a4.63 4.63 0 0 0-2.09 3.62c0 1.33 0.94 1.87 2.09 1.2a4.61 4.61 0 0 0 2.09-3.61c0-1.34-0.94-1.88-2.09-1.21z" fill="#6da5ea"/><path d="m145.11 187.26a4.63 4.63 0 0 0-2.09 3.62c0 1.33 0.94 1.87 2.09 1.2a4.61 4.61 0 0 0 2.09-3.61c0-1.34-0.94-1.88-2.09-1.21z" opacity=".2"/><path d="m86.57 253.79 41.09 23.71a2.92 2.92 0 0 1 1.33 2.3v11.35c0 0.85-0.59 1.2-1.33 0.77l-41.09-23.7a2.94 2.94 0 0 1-1.33-2.31v-11.35c0-0.85 0.59-1.19 1.33-0.77z" fill="#455a64"/><path d="m87.74 258.79a2.86 2.86 0 0 0 1.33 2.21l36.09 20.82c0.74 0.42 1.34 0.12 1.34-0.68a2.87 2.87 0 0 0-1.34-2.21l-36.09-20.81c-0.74-0.42-1.33-0.12-1.33 0.67z" fill="#6da5ea"/><path d="m87.74 264.56a2.83 2.83 0 0 0 1.33 2.21l36.09 20.82c0.74 0.43 1.34 0.13 1.34-0.67a2.84 2.84 0 0 0-1.34-2.21l-36.09-20.82c-0.74-0.42-1.33-0.12-1.33 0.67z" fill="#263238"/><path d="m89.07 263.89 19.93 11.49v2.89l-19.94-11.5a2.83 2.83 0 0 1-1.33-2.21c0.01-0.79 0.6-1.09 1.34-0.67z" fill="#6da5ea"/><path d="m86.57 285.09 41.09 23.71a2.91 2.91 0 0 1 1.33 2.3v11.35c0 0.85-0.59 1.19-1.33 0.77l-41.09-23.71a2.91 2.91 0 0 1-1.33-2.3v-11.35c0-0.86 0.59-1.19 1.33-0.77z" fill="#455a64"/><path d="m87.74 290.09a2.83 2.83 0 0 0 1.33 2.21l36.09 20.82c0.74 0.43 1.34 0.13 1.34-0.67a2.84 2.84 0 0 0-1.34-2.21l-36.09-20.82c-0.74-0.42-1.33-0.13-1.33 0.67z" fill="#6da5ea"/><path d="m87.74 295.86a2.83 2.83 0 0 0 1.33 2.21l36.09 20.82c0.74 0.43 1.34 0.12 1.34-0.67a2.84 2.84 0 0 0-1.34-2.21l-36.09-20.82c-0.74-0.43-1.33-0.13-1.33 0.67z" fill="#263238"/><path d="m89.07 295.19 24.93 14.37v2.89l-24.93-14.38a2.83 2.83 0 0 1-1.33-2.21c0-0.8 0.59-1.1 1.33-0.67z" fill="#6da5ea"/><path d="m86.57 316.16 41.09 23.71a2.91 2.91 0 0 1 1.33 2.3v11.35c0 0.85-0.59 1.19-1.33 0.77l-41.09-23.71a2.91 2.91 0 0 1-1.33-2.3v-11.35c0-0.85 0.59-1.19 1.33-0.77z" fill="#455a64"/><path d="m87.74 321.16a2.83 2.83 0 0 0 1.33 2.21l36.09 20.82c0.74 0.43 1.34 0.13 1.34-0.67a2.84 2.84 0 0 0-1.34-2.21l-36.09-20.82c-0.74-0.43-1.33-0.13-1.33 0.67z" fill="#6da5ea"/><path d="m87.74 326.93a2.83 2.83 0 0 0 1.33 2.21l36.09 20.86c0.74 0.43 1.34 0.12 1.34-0.67a2.84 2.84 0 0 0-1.34-2.21l-36.09-20.86c-0.74-0.43-1.33-0.13-1.33 0.67z" fill="#263238"/><path d="m89.07 326.26 29.93 17.26v2.88l-29.93-17.26a2.83 2.83 0 0 1-1.33-2.21c0-0.8 0.59-1.1 1.33-0.67z" fill="#6da5ea"/><path d="m86.57 222.8 41.09 23.7a2.94 2.94 0 0 1 1.33 2.31v11.35c0 0.85-0.59 1.19-1.33 0.77l-41.09-23.71a2.93 2.93 0 0 1-1.33-2.31v-11.34c0-0.85 0.59-1.2 1.33-0.77z" fill="#455a64"/><path d="m87.74 227.8a2.83 2.83 0 0 0 1.33 2.2l36.09 20.82c0.74 0.42 1.34 0.12 1.34-0.67a2.84 2.84 0 0 0-1.34-2.21l-36.09-20.81c-0.74-0.43-1.33-0.13-1.33 0.67z" fill="#6da5ea"/><path d="m87.74 233.57a2.86 2.86 0 0 0 1.33 2.21l36.09 20.82c0.74 0.42 1.34 0.12 1.34-0.67a2.87 2.87 0 0 0-1.34-2.22l-36.09-20.82c-0.74-0.42-1.33-0.12-1.33 0.68z" fill="#263238"/><path d="m89.07 232.89 32.43 18.71v2.88l-32.43-18.7a2.86 2.86 0 0 1-1.33-2.21c0-0.8 0.59-1.1 1.33-0.68z" fill="#6da5ea"/><path d="m86.57 160.27 41.09 23.73a2.91 2.91 0 0 1 1.33 2.3v11.35c0 0.85-0.59 1.19-1.33 0.77l-41.09-23.73a2.91 2.91 0 0 1-1.33-2.3v-11.39c0-0.81 0.59-1.15 1.33-0.73z" fill="#455a64"/><path d="m87.74 165.27a2.83 2.83 0 0 0 1.33 2.21l36.09 20.82c0.74 0.43 1.34 0.13 1.34-0.67a2.84 2.84 0 0 0-1.34-2.21l-36.09-20.82c-0.74-0.43-1.33-0.13-1.33 0.67z" fill="#6da5ea"/><path d="m87.74 171a2.83 2.83 0 0 0 1.33 2.21l36.09 20.82c0.74 0.43 1.34 0.12 1.34-0.67a2.84 2.84 0 0 0-1.34-2.21l-36.09-20.78c-0.74-0.43-1.33-0.13-1.33 0.63z" fill="#263238"/><path d="m89.07 170.37 24.93 14.37v2.89l-24.93-14.38a2.83 2.83 0 0 1-1.33-2.25c0-0.76 0.59-1.06 1.33-0.63z" fill="#6da5ea"/><path d="m86.57 191.51 41.09 23.71a2.91 2.91 0 0 1 1.33 2.3v11.35c0 0.85-0.59 1.19-1.33 0.77l-41.09-23.71a2.91 2.91 0 0 1-1.33-2.3v-11.35c0-0.85 0.59-1.19 1.33-0.77z" fill="#455a64"/><path d="m87.74 196.51a2.83 2.83 0 0 0 1.33 2.21l36.09 20.82c0.74 0.43 1.34 0.13 1.34-0.67a2.84 2.84 0 0 0-1.34-2.21l-36.09-20.82c-0.74-0.43-1.33-0.12-1.33 0.67z" fill="#6da5ea"/><path d="m87.74 202.28a2.83 2.83 0 0 0 1.33 2.21l36.09 20.82c0.74 0.43 1.34 0.13 1.34-0.67a2.84 2.84 0 0 0-1.34-2.21l-36.09-20.82c-0.74-0.43-1.33-0.13-1.33 0.67z" fill="#263238"/><path d="m89.07 201.61 32.43 18.7v2.89l-32.43-18.71a2.83 2.83 0 0 1-1.33-2.21c0-0.8 0.59-1.1 1.33-0.67z" fill="#6da5ea"/><g fill="#6da5ea"><path d="m256.7 365a0.5 0.5 0 0 1-0.7 0.19l-39.13-22.6a4.45 4.45 0 0 0-3.9 0l-78.26 45.21a4.91 4.91 0 0 1-2.45 0.59 5 5 0 0 1-2.46-0.59l-45.19-26.09a1.84 1.84 0 0 1 0-3.43l18.57-10.71a0.25 0.25 0 0 1 0.23 0 0.8 0.8 0 0 1 0.37 0.62 0.3 0.3 0 0 1-0.06 0.2 0.18 0.18 0 0 1-0.07 0.05h-0.07l-18.46 10.73a1.07 1.07 0 0 0-0.66 0.82c0 0.29 0.24 0.59 0.66 0.84l45.19 26.09a4.36 4.36 0 0 0 3.89 0l78.26-45.18a5.4 5.4 0 0 1 4.92 0l39.13 22.59a0.5 0.5 0 0 1 0.19 0.67z"/><path d="m248.43 369.79a0.51 0.51 0 0 1-0.69 0.2l-30.87-17.83a4.45 4.45 0 0 0-3.9 0l-78.26 45.19a4.91 4.91 0 0 1-2.45 0.6 5 5 0 0 1-2.46-0.6l-61.73-35.64a1.84 1.84 0 0 1 0-3.43l26.82-15.48a0.29 0.29 0 0 1 0.25 0 0.78 0.78 0 0 1 0.35 0.62 0.29 0.29 0 0 1-0.09 0.23l-26.82 15.52a1.1 1.1 0 0 0-0.66 0.82c0 0.29 0.25 0.59 0.66 0.84l61.73 35.63a4.36 4.36 0 0 0 3.89 0l78.26-45.18a5.4 5.4 0 0 1 4.92 0l30.87 17.82a0.5 0.5 0 0 1 0.18 0.69z"/><path d="m240.16 374.57a0.51 0.51 0 0 1-0.69 0.19l-22.6-13.05a4.38 4.38 0 0 0-3.9 0l-78.26 45.18a4.91 4.91 0 0 1-2.45 0.6 5 5 0 0 1-2.46-0.6l-78.26-45.18a2 2 0 0 1-1.16-1.71 2.05 2.05 0 0 1 1.17-1.71l35.09-20.16a0.18 0.18 0 0 1 0.09-0.06 0.26 0.26 0 0 1 0.22 0 0.8 0.8 0 0 1 0.36 0.63 0.23 0.23 0 0 1-0.1 0.22l-35.16 20.25c-0.42 0.24-0.65 0.54-0.65 0.82s0.23 0.59 0.65 0.84l78.26 45.17a4.36 4.36 0 0 0 3.89 0l78.26-45.18a5.4 5.4 0 0 1 4.92 0l22.6 13a0.52 0.52 0 0 1 0.18 0.75z"/><path d="m231.9 379.34a0.51 0.51 0 0 1-0.69 0.19l-14.34-8.27a4.38 4.38 0 0 0-3.9 0l-78.26 45.18a5 5 0 0 1-2.45 0.6 5.12 5.12 0 0 1-2.46-0.6l-94.8-54.73a1.85 1.85 0 0 1 0-3.43l43.3-25a0.1 0.1 0 0 1 0.08-0.05 0.23 0.23 0 0 1 0.23 0 0.76 0.76 0 0 1 0.37 0.62 0.36 0.36 0 0 1 0 0.19h-0.08l-43.29 25a1.08 1.08 0 0 0-0.65 0.82c0 0.29 0.24 0.59 0.65 0.84l94.8 54.73a4.43 4.43 0 0 0 3.89 0l78.26-45.19a5.4 5.4 0 0 1 4.92 0l14.34 8.28a0.51 0.51 0 0 1 0.08 0.82z"/></g><g opacity=".2"><path d="m256.7 365a0.5 0.5 0 0 1-0.7 0.19l-39.13-22.6a4.45 4.45 0 0 0-3.9 0l-78.26 45.21a4.91 4.91 0 0 1-2.45 0.59 5 5 0 0 1-2.46-0.59l-45.19-26.09a1.84 1.84 0 0 1 0-3.43l18.57-10.71a0.25 0.25 0 0 1 0.23 0 0.8 0.8 0 0 1 0.37 0.62 0.3 0.3 0 0 1-0.06 0.2 0.18 0.18 0 0 1-0.07 0.05h-0.07l-18.46 10.73a1.07 1.07 0 0 0-0.66 0.82c0 0.29 0.24 0.59 0.66 0.84l45.19 26.09a4.36 4.36 0 0 0 3.89 0l78.26-45.18a5.4 5.4 0 0 1 4.92 0l39.13 22.59a0.5 0.5 0 0 1 0.19 0.67z"/><path d="m248.43 369.79a0.51 0.51 0 0 1-0.69 0.2l-30.87-17.83a4.45 4.45 0 0 0-3.9 0l-78.26 45.19a4.91 4.91 0 0 1-2.45 0.6 5 5 0 0 1-2.46-0.6l-61.73-35.64a1.84 1.84 0 0 1 0-3.43l26.82-15.48a0.29 0.29 0 0 1 0.25 0 0.78 0.78 0 0 1 0.35 0.62 0.29 0.29 0 0 1-0.09 0.23l-26.82 15.52a1.1 1.1 0 0 0-0.66 0.82c0 0.29 0.25 0.59 0.66 0.84l61.73 35.63a4.36 4.36 0 0 0 3.89 0l78.26-45.18a5.4 5.4 0 0 1 4.92 0l30.87 17.82a0.5 0.5 0 0 1 0.18 0.69z"/><path d="m240.16 374.57a0.51 0.51 0 0 1-0.69 0.19l-22.6-13.05a4.38 4.38 0 0 0-3.9 0l-78.26 45.18a4.91 4.91 0 0 1-2.45 0.6 5 5 0 0 1-2.46-0.6l-78.26-45.18a2 2 0 0 1-1.16-1.71 2.05 2.05 0 0 1 1.17-1.71l35.09-20.16a0.18 0.18 0 0 1 0.09-0.06 0.26 0.26 0 0 1 0.22 0 0.8 0.8 0 0 1 0.36 0.63 0.23 0.23 0 0 1-0.1 0.22l-35.16 20.25c-0.42 0.24-0.65 0.54-0.65 0.82s0.23 0.59 0.65 0.84l78.26 45.17a4.36 4.36 0 0 0 3.89 0l78.26-45.18a5.4 5.4 0 0 1 4.92 0l22.6 13a0.52 0.52 0 0 1 0.18 0.75z"/><path d="m231.9 379.34a0.51 0.51 0 0 1-0.69 0.19l-14.34-8.27a4.38 4.38 0 0 0-3.9 0l-78.26 45.18a5 5 0 0 1-2.45 0.6 5.12 5.12 0 0 1-2.46-0.6l-94.8-54.73a1.85 1.85 0 0 1 0-3.43l43.3-25a0.1 0.1 0 0 1 0.08-0.05 0.23 0.23 0 0 1 0.23 0 0.76 0.76 0 0 1 0.37 0.62 0.36 0.36 0 0 1 0 0.19h-0.08l-43.29 25a1.08 1.08 0 0 0-0.65 0.82c0 0.29 0.24 0.59 0.65 0.84l94.8 54.73a4.43 4.43 0 0 0 3.89 0l78.26-45.19a5.4 5.4 0 0 1 4.92 0l14.34 8.28a0.51 0.51 0 0 1 0.08 0.82z"/></g><path d="m347.71 390.36 26.29-15.2c2.7-1.56 4.06-3.61 4.06-5.66v-3.66l-24.73-14a5.76 5.76 0 0 1-2.62-4.53v-32.4l-45.9 26.52v32.37a5.76 5.76 0 0 0 2.62 4.53l20.66 12c5.42 3.16 14.2 3.16 19.62 0.03z" fill="#263238"/><path d="m315.84 379.54v3.64l-8.42-4.85a5.8 5.8 0 0 1-2.61-4.53v-32.4l8.75-5c0.18 2.22 0.37 4.52 0.55 6.75l-6.11 3.5v25.35a5.74 5.74 0 0 0 2.61 4.53z" opacity=".15"/><path d="m308 372a5.8 5.8 0 0 0 2.62 4.54l17.49 10.19c5.41 3.13 14.2 3.13 19.62 0l26.3-15.2c5.42-3.13 5.42-8.2 0-11.33l-17.52-10.2a5.79 5.79 0 0 1-2.62-4.53v-25.34l-45.89 26.52z" fill="#37474f"/><path d="m361.83 353.06-5.32-3.06a5.79 5.79 0 0 1-2.62-4.53v-25.34l-45.89 26.52v25.35a5.8 5.8 0 0 0 2.62 4.54l5.23 3z" opacity=".15"/><path d="m378.07 365.84v3.66c0 2.05-1.36 4.09-4.07 5.66l-26.29 15.19a19.63 19.63 0 0 1-9.36 2.33v-3.68a19.63 19.63 0 0 0 9.36-2.33l26.29-15.16c2.71-1.51 4.07-3.61 4.07-5.67z" opacity=".15"/><path d="m234.27 406.93a7 7 0 0 0 6.34-0.11c22.57-13 155-89.48 177.54-102.5a7.26 7.26 0 0 0 3.27-5.67v-155.4a6.15 6.15 0 0 0-9.41-5.43l-177.54 102.5a7.26 7.26 0 0 0-3.27 5.68v155.4a7 7 0 0 0 3.07 5.53z" fill="#455a64"/><path d="m240.61 406.81 177.54-102.5a7.24 7.24 0 0 0 3.27-5.66v-155.4c0-2.09-1.47-2.93-3.27-1.89l-177.54 102.5a7.22 7.22 0 0 0-3.27 5.67v155.39c0 2.08 1.46 2.94 3.27 1.89z" fill="#6da5ea"/><path d="m240.61 406.81 177.54-102.5a7.24 7.24 0 0 0 3.27-5.66v-155.4c0-2.09-1.47-2.93-3.27-1.89l-177.54 102.5a7.22 7.22 0 0 0-3.27 5.67v155.39c0 2.08 1.46 2.94 3.27 1.89z" fill="#37474f"/><path d="m240.13 407.46a6.12 6.12 0 0 1-8.93-5.68v-17.48l6.13 3.55v17.48c0 1.9 1.21 2.77 2.8 2.13z"/><path d="m237.33 399.46v5.87c0 2.08 1.46 2.93 3.27 1.88l177.54-102.5a7.23 7.23 0 0 0 3.27-5.66v-5.87z" fill="#263238"/><path d="m243.47 386.32v-134.76a4.34 4.34 0 0 1 2-3.4l167.88-96.92c1.08-0.63 2-0.12 2 1.13v134.76a4.31 4.31 0 0 1-2 3.4l-167.92 96.92c-1.08 0.63-1.96 0.12-1.96-1.13z" fill="#6da5ea"/><path d="m329.38 349.33a3.69 3.69 0 0 0-1.67 2.9c0 1.06 0.74 1.49 1.67 1a3.7 3.7 0 0 0 1.67-2.89c0-1.11-0.75-1.54-1.67-1.01z" fill="#6da5ea"/><path d="m238.3 246.29a7 7 0 0 0-1 3.23v149.94l-6.13-3.55v-149.91a6.74 6.74 0 0 1 1-3.23z" fill="#263238"/><g fill="#fafafa"><path d="m315.91 313.5a22.64 22.64 0 0 1-8.58-1.67c-8.09-3.3-14.3-11.41-17.49-22.83a3.693 3.693 0 0 1 7.11-2c2.56 9.18 7.24 15.57 13.17 18 5.06 2.07 11.09 1.23 17.41-2.43 15.13-8.73 28.88-31.6 34.22-56.9a3.7048 3.7048 0 1 1 7.25 1.53c-5.84 27.65-20.66 51.9-37.75 61.77a30.8 30.8 0 0 1-15.34 4.53z"/><path d="m314.59 252.49c0 4.92-2.59 10.4-5.78 12.24s-5.78-0.65-5.78-5.56 2.59-10.4 5.78-12.24 5.78 0.65 5.78 5.56z"/><path d="m351.19 231.36c0 4.92-2.59 10.4-5.78 12.24s-5.78-0.65-5.78-5.56 2.59-10.39 5.78-12.24 5.78 0.65 5.78 5.56z"/></g><path d="m258 203.86-3.86-11 3.1-9v-5.48l-9.49 5.48v5.48l4.08 10.79a0.61 0.61 0 0 0 0.28 0.25z" fill="#6da5ea"/><path d="m258 203.86-3.86-11 3.1-9v-5.48l-9.49 5.48v5.48l4.08 10.79a0.61 0.61 0 0 0 0.28 0.25z" opacity=".3"/><path d="m280.71 119.77a6.29 6.29 0 0 0-2.85-4.93l-2.31-1.33a6.29 6.29 0 0 0-5.7 0l-35.54 20.56a6.25 6.25 0 0 0-2.85 4.93v54.2a6.25 6.25 0 0 0 2.85 4.93l2.31 1.34a6.29 6.29 0 0 0 5.7 0l11.43-6.6 4.07 10.77a0.61 0.61 0 0 0 1.1-0.1l4.31-16.15 14.63-8.48a6.25 6.25 0 0 0 2.85-4.93z" fill="#6da5ea"/><path d="m231.46 193.2a6.25 6.25 0 0 0 2.85 4.93l2.31 1.34a6.38 6.38 0 0 0 5.21 0.23c-1.34 0.51-2.36-0.25-2.36-1.87v-54.21a5.83 5.83 0 0 1 0.83-2.8l-8-4.63a5.87 5.87 0 0 0-0.83 2.81z" opacity=".2"/><path d="m280.62 119c-0.33-1.21-1.44-1.6-2.75-0.84l-35.55 20.56a5.59 5.59 0 0 0-2 2.13l-8-4.62a5.67 5.67 0 0 1 2-2.13l35.54-20.56a6.29 6.29 0 0 1 5.7 0l2.32 1.34a6.27 6.27 0 0 1 2.74 4.12z" fill="#fff" opacity=".3"/><g fill="#fafafa"><path d="m245 178 30.86-17.82c0.61-0.35 1.1-0.1 1.1 0.56a2.35 2.35 0 0 1-1.1 1.82l-30.86 17.82c-0.61 0.35-1.1 0.11-1.1-0.55a2.35 2.35 0 0 1 1.1-1.83z"/><path d="m245 182.8 30.82-17.8c0.61-0.35 1.1-0.1 1.1 0.56a2.35 2.35 0 0 1-1.1 1.83l-30.82 17.8c-0.61 0.35-1.1 0.1-1.1-0.56a2.35 2.35 0 0 1 1.1-1.83z"/><path d="m245 187.61 30.86-17.82c0.61-0.35 1.1-0.1 1.1 0.55a2.35 2.35 0 0 1-1.1 1.83l-30.86 17.83c-0.61 0.35-1.1 0.1-1.1-0.55a2.35 2.35 0 0 1 1.1-1.84z"/><path d="m269 133a2.5 2.5 0 0 0-3.27 1.33l-9.43 22.45-2.25-2.19a2.5 2.5 0 0 0-3.48 3.58l4.87 4.74a2.51 2.51 0 0 0 1.74 0.7 2.83 2.83 0 0 0 0.5 0 2.48 2.48 0 0 0 1.8-1.48l10.85-25.81a2.5 2.5 0 0 0-1.33-3.32z"/></g><path d="m324.35 165.54-3.85-11 3.1-8.95v-5.49l-9.5 5.49v5.48l4.08 10.79a0.61 0.61 0 0 0 0.28 0.25z" fill="#6da5ea"/><path d="m324.35 165.54-3.85-11 3.1-8.95v-5.49l-9.5 5.49v5.48l4.08 10.79a0.61 0.61 0 0 0 0.28 0.25z" opacity=".3"/><path d="m347 81.46a6.3 6.3 0 0 0-2.85-4.93l-2.32-1.34a6.27 6.27 0 0 0-5.69 0l-35.52 20.56a6.3 6.3 0 0 0-2.85 4.93v54.21a6.31 6.31 0 0 0 2.85 4.93l2.32 1.34a6.33 6.33 0 0 0 5.69 0l11.43-6.61 4.08 10.78a0.61 0.61 0 0 0 1.1-0.11l4.31-16.15 14.63-8.47a6.31 6.31 0 0 0 2.85-4.93z" fill="#6da5ea"/><path d="m297.77 154.89a6.31 6.31 0 0 0 2.85 4.93l2.32 1.34a6.38 6.38 0 0 0 5.21 0.23c-1.34 0.5-2.36-0.25-2.36-1.88v-54.2a5.76 5.76 0 0 1 0.83-2.81l-8-4.63a5.81 5.81 0 0 0-0.84 2.81z" opacity=".2"/><path d="m346.93 80.65c-0.33-1.21-1.43-1.59-2.75-0.84l-35.55 20.57a5.71 5.71 0 0 0-2 2.12l-8-4.62a5.69 5.69 0 0 1 2-2.12l35.54-20.57a6.35 6.35 0 0 1 5.7 0l2.32 1.34a6.26 6.26 0 0 1 2.74 4.12z" fill="#fff" opacity=".3"/><g fill="#fafafa"><path d="m311.09 139.78 30.91-17.78c0.61-0.36 1.11-0.11 1.11 0.55a2.37 2.37 0 0 1-1.11 1.83l-30.86 17.82c-0.61 0.35-1.1 0.1-1.1-0.56a2.37 2.37 0 0 1 1.05-1.86z"/><path d="m311.09 144.59 30.91-17.82c0.61-0.35 1.11-0.1 1.11 0.56a2.38 2.38 0 0 1-1.11 1.83l-30.91 17.84c-0.61 0.36-1.1 0.11-1.1-0.55a2.35 2.35 0 0 1 1.1-1.86z"/><path d="m311.09 149.39 30.91-17.82c0.61-0.35 1.11-0.1 1.11 0.56a2.37 2.37 0 0 1-1.11 1.87l-30.86 17.82c-0.61 0.35-1.1 0.1-1.1-0.56a2.35 2.35 0 0 1 1.05-1.87z"/><path d="m335.14 94.82a2.49 2.49 0 0 0-3.27 1.33l-9.43 22.44-2.25-2.18a2.4929 2.4929 0 0 0-3.47 3.58l4.87 4.73a2.44 2.44 0 0 0 1.73 0.71 2.83 2.83 0 0 0 0.5-0.05 2.49 2.49 0 0 0 1.8-1.48l10.85-25.82a2.48 2.48 0 0 0-1.33-3.26z"/></g><path d="m390.65 127.3-3.86-11 3.1-9v-5.49l-9.49 5.49v5.48l4.08 10.79a0.54 0.54 0 0 0 0.28 0.24z" fill="#6da5ea"/><path d="m390.65 127.3-3.86-11 3.1-9v-5.49l-9.49 5.49v5.48l4.08 10.79a0.54 0.54 0 0 0 0.28 0.24z" opacity=".3"/><path d="m413.32 43.22a6.27 6.27 0 0 0-2.84-4.93l-2.32-1.29a6.29 6.29 0 0 0-5.7 0l-35.54 20.51a6.27 6.27 0 0 0-2.85 4.93v54.21a6.29 6.29 0 0 0 2.85 4.93l2.31 1.34a6.35 6.35 0 0 0 5.7 0l11.43-6.61 4.07 10.78a0.61 0.61 0 0 0 1.1-0.11l4.31-16.15 14.64-8.47a6.3 6.3 0 0 0 2.84-4.93z" fill="#6da5ea"/><path d="m364.07 116.65a6.29 6.29 0 0 0 2.85 4.93l2.31 1.34a6.38 6.38 0 0 0 5.21 0.23c-1.34 0.5-2.36-0.25-2.36-1.88v-54.2a5.87 5.87 0 0 1 0.83-2.81l-8-4.63a5.9 5.9 0 0 0-0.83 2.81z" opacity=".2"/><path d="m413.23 42.41c-0.33-1.21-1.44-1.6-2.75-0.84l-35.55 20.57a5.56 5.56 0 0 0-2 2.12l-8-4.62a5.71 5.71 0 0 1 2-2.12l35.53-20.52a6.35 6.35 0 0 1 5.7 0l2.32 1.34a6.29 6.29 0 0 1 2.75 4.07z" fill="#fff" opacity=".3"/><g fill="#fafafa"><path d="m377.22 101.57 30.87-17.82c0.6-0.35 1.1-0.1 1.1 0.56a2.38 2.38 0 0 1-1.1 1.83l-30.87 17.86c-0.61 0.35-1.1 0.1-1.1-0.56a2.35 2.35 0 0 1 1.1-1.87z"/><path d="m377.22 106.37 30.87-17.81c0.6-0.36 1.1-0.11 1.1 0.55a2.38 2.38 0 0 1-1.1 1.83l-30.87 17.82c-0.61 0.35-1.1 0.1-1.1-0.56a2.37 2.37 0 0 1 1.1-1.83z"/><path d="m377.22 111.18 30.87-17.82c0.6-0.35 1.1-0.1 1.1 0.56a2.38 2.38 0 0 1-1.1 1.83l-30.87 17.82c-0.61 0.35-1.1 0.1-1.1-0.56a2.35 2.35 0 0 1 1.1-1.83z"/><path d="m401.27 56.6a2.5 2.5 0 0 0-3.27 1.33l-9.44 22.45-2.24-2.19a2.5 2.5 0 0 0-3.48 3.58l4.87 4.74a2.49 2.49 0 0 0 1.74 0.7 2 2 0 0 0 0.49 0 2.48 2.48 0 0 0 1.81-1.47l10.85-25.82a2.5 2.5 0 0 0-1.33-3.32z"/></g></g></svg>
