<svg width="240" height="240" version="1.1" viewBox="0 0 240 240" xmlns="http://www.w3.org/2000/svg"><g transform="matrix(.563 0 0 .563 -18.945 -15.46)"><g opacity=".3"><path d="m211.43 371.22c-22-12.69-22-33.27 0-46s57.65-12.7 79.63 0 22 33.27 0 46-57.64 12.7-79.63 0z"/><path d="m179.42 380.74c7.34 4.24 11 9.79 11 15.34s-3.67 11.1-11 15.34c-14.67 8.47-38.46 8.47-53.14 0-7.33-4.24-11-9.79-11-15.34s3.67-11.1 11-15.34c14.72-8.47 38.47-8.47 53.14 0z"/><polygon points="117.9 304.22 164.54 277.3 211.17 304.22 164.54 331.14"/><polygon points="99.36 321.95 33.65 359.84 72.82 382.45 138.54 344.56"/><polygon points="398.89 333.37 429.41 315.75 459.94 333.37 429.41 350.99"/><path d="m361.26 417.34a4.58 4.58 0 0 1-4.43-3.66l-1-5.42a61 61 0 0 1-7-1.71s0.06 0 0 0h-0.12l-9.5 4.45a5.27 5.27 0 0 1-2.23 0.47 5.54 5.54 0 0 1-2.71-0.69l-9.51-5.49a3.77 3.77 0 0 1-0.32-6.45l5.76-4.14a20.9 20.9 0 0 1-1.44-2.17l-12.13-0.77a4.35 4.35 0 0 1-4.06-4.33v-7.07a4.34 4.34 0 0 1 4.07-4.33l12.12-0.77a20.9 20.9 0 0 1 1.44-2.17l-5.76-4.15a3.76 3.76 0 0 1 0.32-6.44l9.51-5.49a5.43 5.43 0 0 1 2.71-0.69 5.27 5.27 0 0 1 2.23 0.47l9.54 4.42h0.18a58.11 58.11 0 0 1 6.88-1.69l1-5.42a4.55 4.55 0 0 1 4.42-3.66h14a4.57 4.57 0 0 1 4.43 3.66l1 5.42a61.54 61.54 0 0 1 7 1.71s-0.07 0 0 0h0.12l9.55-4.42a5.27 5.27 0 0 1 2.23-0.47 5.46 5.46 0 0 1 2.71 0.69l9.51 5.49a3.76 3.76 0 0 1 0.32 6.44l-5.76 4.15a18.54 18.54 0 0 1 1.44 2.17l12.13 0.77a4.34 4.34 0 0 1 4.06 4.33v7.07a4.35 4.35 0 0 1-4.06 4.33l-12.13 0.77a20.38 20.38 0 0 1-1.44 2.17l5.76 4.14a3.77 3.77 0 0 1-0.32 6.45l-9.51 5.49a5.54 5.54 0 0 1-2.71 0.69 5.27 5.27 0 0 1-2.23-0.47l-9.54-4.42h-0.18a60.48 60.48 0 0 1-6.87 1.69l-1 5.42a4.57 4.57 0 0 1-4.43 3.66zm-7.54-34.71c-3.25 1.88-5.12 4.29-5.12 6.62s1.86 4.74 5.12 6.62a32.51 32.51 0 0 0 29.07 0c3.26-1.88 5.12-4.29 5.12-6.62s-1.86-4.74-5.12-6.62a32.51 32.51 0 0 0-29.07 0z"/><path d="m358.21 332-3.86-4.06c-1 0.05-1.94 0.08-2.9 0.08s-1.95 0-2.85-0.08l-4.11 4.32a4.24 4.24 0 0 1-3.09 1.21 4.74 4.74 0 0 1-1.14-0.13l-9.45-2.34a3.82 3.82 0 0 1-2.58-2.05 3.32 3.32 0 0 1 0-2.87l1.6-3.15a28.34 28.34 0 0 1-2.55-1.57l-9 1.51a4.37 4.37 0 0 1-0.64 0 4.57 4.57 0 0 1-3.6-1.88l-3.59-5a3.91 3.91 0 0 1-0.69-2.17 3.36 3.36 0 0 1 2.37-3.22l7-2.22v-0.66l-6.76-2.15a3.6 3.6 0 0 1-2.67-3.18v-0.19a3.23 3.23 0 0 1 0.61-1.89l3.91-5.45a4.18 4.18 0 0 1 3.43-1.61 4.87 4.87 0 0 1 0.76 0.06l8.84 1.49c0.65-0.45 1.35-0.89 2.09-1.31l0.46-0.26-1.47-2.92a3.83 3.83 0 0 1-0.42-1.64v-0.54a3.46 3.46 0 0 1 2.65-2.93l9.77-2.33a3.49 3.49 0 0 1 0.91-0.11 4.83 4.83 0 0 1 3.39 1.48l3.87 4.07c1-0.06 2-0.08 3-0.08s1.9 0 2.79 0.07l4.09-4.3a4.27 4.27 0 0 1 3.11-1.23 5.05 5.05 0 0 1 1.12 0.13l9.43 2.26a3.62 3.62 0 0 1 2.91 3.39 3.3 3.3 0 0 1-0.35 1.52l-1.59 3.16 0.51 0.29c0.73 0.41 1.41 0.85 2 1.26l9-1.51a4.21 4.21 0 0 1 0.62-0.05 4.62 4.62 0 0 1 3.61 1.88l3.55 4.94a3.72 3.72 0 0 1 0.73 2.2v0.46l-0.06 0.18a3.38 3.38 0 0 1-2.3 2.6l-7 2.22v0.66l6.8 2.15a3.9 3.9 0 0 1 2.12 1.6 3 3 0 0 1 0.38 2.51 8 8 0 0 1-1.31 2.31l-2.06 3.07-1 1.34a4.17 4.17 0 0 1-3.41 1.61 4.69 4.69 0 0 1-0.77-0.07l-8.83-1.48a27.87 27.87 0 0 1-2.57 1.57l1.49 2.95a3.6 3.6 0 0 1 0.08 3.18 3.42 3.42 0 0 1-2.35 1.89l-9.81 2.35a3.55 3.55 0 0 1-0.86 0.1 4.84 4.84 0 0 1-3.36-1.44zm6.2-25.33a14.71 14.71 0 0 0-7-3.5 25.67 25.67 0 0 0-5.93-0.68c-6 0-11.49 2-13.61 5a3.28 3.28 0 0 0-0.55 3.31l0.09 0.24 0.25 0.42a7.39 7.39 0 0 0 2 2 9.53 9.53 0 0 0 1.15 0.75 18.09 18.09 0 0 0 4.77 1.82 25.73 25.73 0 0 0 5.93 0.68 22.4 22.4 0 0 0 10.72-2.5 10.6 10.6 0 0 0 1.19-0.78 7.59 7.59 0 0 0 1.71-1.68 3.28 3.28 0 0 0 0.3-3.83l-0.18-0.3a4.4 4.4 0 0 0-0.26-0.36c-0.07-0.1-0.15-0.19-0.23-0.29z"/></g><polygon points="164.53 235.69 203.01 302.98 164.54 325.2" fill="#fafafa"/><polygon points="201.54 302.54 164.54 323.9 164.54 325.2 203.01 302.98 164.53 235.69 164.54 238.18" fill="#e0e0e0"/><polygon points="164.53 235.69 126.06 302.98 164.54 325.2" fill="#e0e0e0"/><polygon points="164.53 235.69 126.06 302.98 164.54 325.2" fill="#263238" opacity=".1"/><polygon points="99.23 303.61 40.65 337.39 72.95 356.03 131.53 322.25" fill="#6da5ea"/><polygon points="99.23 303.61 40.65 337.39 72.95 356.03 131.53 322.25" fill="#fff" opacity=".5"/><polygon points="40.65 359.33 40.65 337.39 72.95 356.03 72.95 377.98" fill="#6da5ea"/><polygon points="72.95 356.03 131.53 322.25 131.53 344.2 72.95 377.98" fill="#6da5ea"/><polygon points="72.95 356.03 131.53 322.25 131.53 344.2 72.95 377.98" fill="#fff" opacity=".3"/><path d="m119.72 375.34c0-4.9 3.24-9.79 9.71-13.53 12.93-7.47 33.91-7.47 46.85 0 6.47 3.74 9.7 8.63 9.7 13.53v17.25c0 4.89-3.23 9.79-9.7 13.52-12.94 7.47-33.92 7.47-46.85 0-6.48-3.73-9.71-8.63-9.71-13.52z" fill="#263238"/><path d="m176.28 361.81c6.47 3.74 9.7 8.63 9.7 13.53s-3.23 9.79-9.7 13.52c-12.94 7.47-33.92 7.47-46.86 0-6.46-3.73-9.7-8.63-9.7-13.52s3.24-9.79 9.71-13.53c12.93-7.47 33.91-7.47 46.85 0z" fill="#455a64"/><polygon points="405.63 306.12 429.41 292.39 453.2 306.12 429.41 319.85" fill="#6da5ea"/><polygon points="405.63 306.12 429.41 292.39 453.2 306.12 429.41 319.85" fill="#fff" opacity=".2"/><polygon points="429.41 319.85 405.63 306.12 405.63 333.58 429.41 347.31" fill="#6da5ea"/><polygon points="429.41 319.85 453.2 306.12 453.2 333.58 429.41 347.31" fill="#6da5ea"/><polygon points="429.41 319.85 453.2 306.12 453.2 333.58 429.41 347.31" fill="#263238" opacity=".2"/><path d="m315.62 374.23v13.2a1.28 1.28 0 0 0 1.19 1.26l9 0.57v12.74a0.79 0.79 0 0 0 0.44 0.64l9.52 5.5a2.46 2.46 0 0 0 1.2 0.24 2.13 2.13 0 0 0 0.9-0.17l9.65-4.47a3.53 3.53 0 0 1 2.2-0.13 58.41 58.41 0 0 0 7.49 1.78 1.81 1.81 0 0 1 1.39 1.35l1.21 6.36a1.41 1.41 0 0 0 0.52 0.83 1.43 1.43 0 0 0 0.89 0.34h14a1.35 1.35 0 0 0 0.8-0.31c0.07 0 0.11-0.1 0.18-0.16a1.54 1.54 0 0 0 0.19-0.17v-0.15c0.08-0.13 0.21-0.23 0.24-0.38l1.2-6.36a1.82 1.82 0 0 1 1.4-1.35 57.86 57.86 0 0 0 7.48-1.78 3.56 3.56 0 0 1 2.21 0.13l9.64 4.47a2.21 2.21 0 0 0 0.59 0.1v0.06a1.82 1.82 0 0 0 0.33 0h0.26a2.23 2.23 0 0 0 0.91-0.24l9.51-5.5a0.88 0.88 0 0 0 0.34-0.32 0.45 0.45 0 0 0 0.07-0.25v-12.72l8.85-0.56h0.17c0.09 0 0.14-0.09 0.23-0.11a1.25 1.25 0 0 0 0.6-0.29 1.3 1.3 0 0 0 0.19-0.45c0.05-0.13 0.16-0.24 0.16-0.4v-19.15a1.28 1.28 0 0 0-1.19-1.26l-9-0.57v-12.7a0.74 0.74 0 0 0-0.44-0.67l-9.51-5.5a2.53 2.53 0 0 0-2.1-0.09l-9.53 4.41a3.6 3.6 0 0 1-2.2 0.13 58.41 58.41 0 0 0-7.49-1.78 1.83 1.83 0 0 1-1.4-1.36l-1.2-6.35a1.48 1.48 0 0 0-1.41-1.17h-14a1.5 1.5 0 0 0-1.41 1.17l-1.2 6.35a1.83 1.83 0 0 1-1.4 1.36 56.26 56.26 0 0 0-7.48 1.78 3.63 3.63 0 0 1-2.21-0.13l-9.64-4.47a2.59 2.59 0 0 0-2.11 0.09l-9.51 5.5a0.75 0.75 0 0 0-0.44 0.69v12.68l-9 0.57a1.28 1.28 0 0 0-1.19 1.26v5.68a2 2 0 0 0-0.09 0.23zm36.56 4.49c8.88-5.13 23.27-5.13 32.15 0 0.67 0.38 1.29 0.78 1.86 1.18a18.73 18.73 0 0 1-1.86 1.23c-8.88 5.12-23.27 5.12-32.15 0a22.16 22.16 0 0 1-1.86-1.22c0.57-0.41 1.19-0.8 1.86-1.19z" fill="#37474f"/><g fill="#263238"><path d="m315.61 374.23v13.2a1.28 1.28 0 0 0 1.19 1.26l9 0.57v12.74a0.79 0.79 0 0 0 0.44 0.64l9.52 5.49a2.24 2.24 0 0 0 1.2 0.25 2.13 2.13 0 0 0 0.9-0.17l9.65-4.47a3.39 3.39 0 0 1 0.9-0.22 3.42 3.42 0 0 1 1.3 0.09 58.41 58.41 0 0 0 7.49 1.78 1.75 1.75 0 0 1 0.59 0.24v0.07a1.7 1.7 0 0 1 0.8 1l1.21 6.36a1.47 1.47 0 0 0 0.52 0.83 1.4 1.4 0 0 0 0.89 0.33h14.26a1.54 1.54 0 0 0 0.91-0.6v-0.15c0.08-0.13 0.21-0.23 0.24-0.38l1.2-6.36a1.74 1.74 0 0 1 0.57-0.91 1.73 1.73 0 0 1 0.83-0.42 57.86 57.86 0 0 0 7.48-1.78 3.61 3.61 0 0 1 1.48-0.07 3.13 3.13 0 0 1 0.73 0.16l9.64 4.47a2.08 2.08 0 0 0 0.59 0.1v0.06a2.59 2.59 0 0 0 1.51-0.25l9.51-5.49a1.27 1.27 0 0 0 0.21-0.15 0.9 0.9 0 0 0 0.15-0.19 0.71 0.71 0 0 0 0.09-0.28v-12.71l1.65-0.11 7.21-0.46h0.16a1.29 1.29 0 0 0 1.19-1.24v-12.08a1.28 1.28 0 0 1-1.19 1.26l-12.67 0.81a2.34 2.34 0 0 0-1.72 1.13 18.7 18.7 0 0 1-2.69 3.74 1 1 0 0 0 0.14 1.55l7.54 5.42a0.71 0.71 0 0 1-0.07 1.29l-9.51 5.5a2.63 2.63 0 0 1-2.11 0.09l-9.54-4.47a3.48 3.48 0 0 0-2.21-0.13 57.86 57.86 0 0 1-7.48 1.78 1.84 1.84 0 0 0-1.4 1.35l-1.2 6.36a1.51 1.51 0 0 1-1.41 1.17h-14a1.49 1.49 0 0 1-1.41-1.17l-1.21-6.36a1.81 1.81 0 0 0-1.38-1.35 56.57 56.57 0 0 1-7.5-1.79 3.53 3.53 0 0 0-2.2 0.14l-9.65 4.47a2.61 2.61 0 0 1-2.1-0.09l-9.52-5.5a0.71 0.71 0 0 1-0.06-1.28l7.54-5.43a1 1 0 0 0 0.14-1.55 19.1 19.1 0 0 1-2.69-3.74 2.34 2.34 0 0 0-1.71-1.13l-12.68-0.8a1.28 1.28 0 0 1-1.18-1.27v-1.38a1.09 1.09 0 0 0-0.08 0.23z"/><path d="m325.85 353.81v12.67l3.66-0.23a2.33 2.33 0 0 0 1.71-1.14 19 19 0 0 1 2.69-3.73 1 1 0 0 0-0.14-1.55l-7.54-5.43a0.81 0.81 0 0 1-0.37-0.59z"/><path d="m402.6 361.38a18.64 18.64 0 0 1 2.69 3.73 2.33 2.33 0 0 0 1.72 1.14l3.64 0.23v-12.7a0.79 0.79 0 0 1-0.38 0.62l-7.54 5.43a1 1 0 0 0-0.13 1.55z"/></g><path d="m398.6 347.53-9.6 4.47a3.6 3.6 0 0 1-2.2 0.13 58.41 58.41 0 0 0-7.49-1.78 1.83 1.83 0 0 1-1.4-1.36l-1.2-6.35a1.48 1.48 0 0 0-1.41-1.17h-14a1.5 1.5 0 0 0-1.41 1.17l-1.2 6.35a1.83 1.83 0 0 1-1.4 1.36 56.26 56.26 0 0 0-7.48 1.78 3.63 3.63 0 0 1-2.21-0.13l-9.64-4.47a2.59 2.59 0 0 0-2.11 0.09l-9.51 5.5a0.7 0.7 0 0 0-0.07 1.28l7.54 5.43a1 1 0 0 1 0.14 1.55 18.64 18.64 0 0 0-2.69 3.73 2.33 2.33 0 0 1-1.71 1.14l-12.68 0.8a1.28 1.28 0 0 0-1.19 1.26v7.07a1.28 1.28 0 0 0 1.19 1.27l12.68 0.8a2.33 2.33 0 0 1 1.71 1.14 18.64 18.64 0 0 0 2.69 3.73 1 1 0 0 1-0.14 1.55l-7.54 5.42a0.71 0.71 0 0 0 0.07 1.29l9.51 5.49a2.59 2.59 0 0 0 2.11 0.1l9.64-4.47a3.48 3.48 0 0 1 2.21-0.13 57.86 57.86 0 0 0 7.48 1.78 1.84 1.84 0 0 1 1.4 1.35l1.2 6.36a1.49 1.49 0 0 0 1.41 1.16h14a1.48 1.48 0 0 0 1.41-1.16l1.2-6.36a1.84 1.84 0 0 1 1.4-1.35 58.41 58.41 0 0 0 7.49-1.78 3.46 3.46 0 0 1 2.2 0.13l9.65 4.47a2.57 2.57 0 0 0 2.1-0.1l9.51-5.49a0.71 0.71 0 0 0 0.07-1.29l-7.54-5.42a1 1 0 0 1-0.14-1.55 18.64 18.64 0 0 0 2.69-3.73 2.33 2.33 0 0 1 1.71-1.14l12.68-0.8a1.28 1.28 0 0 0 1.19-1.27v-7.07a1.28 1.28 0 0 0-1.19-1.26l-12.68-0.8a2.33 2.33 0 0 1-1.71-1.14 18.64 18.64 0 0 0-2.69-3.73 1 1 0 0 1 0.14-1.55l7.54-5.43a0.7 0.7 0 0 0-0.07-1.28l-9.51-5.5a2.57 2.57 0 0 0-2.15-0.09zm-14.27 15c8.87 5.12 8.87 13.43 0 18.56s-23.27 5.12-32.15 0-8.87-13.44 0-18.56 23.27-5.09 32.15 0.04z" fill="#455a64"/><g fill="#37474f"><path d="m410.66 389.93a0.81 0.81 0 0 0-0.38-0.64l-3.8-2.73v-9a1.69 1.69 0 0 1 0.53-0.12l12.67-0.81a1.28 1.28 0 0 0 1.19-1.26v12.07a1.29 1.29 0 0 1-1.19 1.24h-0.16l-7.21 0.46-1.65 0.11z"/><path d="m388.23 391.51a2.53 2.53 0 0 1 0.72 0.19l9.64 4.47a2.42 2.42 0 0 0 1.24 0.15v12.05a2.83 2.83 0 0 1-0.65 0v-0.06a2.08 2.08 0 0 1-0.59-0.1l-9.59-4.47a3 3 0 0 0-0.72-0.16z"/><path d="m376.48 401.51a1.77 1.77 0 0 0 0.18-0.45l1.2-6.36a1.66 1.66 0 0 1 0.19-0.48v12a1.45 1.45 0 0 0-0.19 0.47l-1.2 6.36a0.83 0.83 0 0 1-0.18 0.3z"/></g><path d="m358.46 394.22a1.48 1.48 0 0 1 0.18 0.48l1.21 6.36a1.46 1.46 0 0 0 0.18 0.45v12a1.46 1.46 0 0 1-0.18-0.45l-1.21-6.36a1.23 1.23 0 0 0-0.18-0.43z" opacity=".15"/><path d="m336.68 396.32a2.37 2.37 0 0 0 1.23-0.15l9.65-4.47a2.53 2.53 0 0 1 0.72-0.19v12a2.91 2.91 0 0 0-0.72 0.19l-9.65 4.47a2.13 2.13 0 0 1-0.9 0.17h-0.33z" opacity=".15"/><path d="m316.83 376.65 12.68 0.8a1.63 1.63 0 0 1 0.52 0.12v9l-3.8 2.74a0.81 0.81 0 0 0-0.38 0.63v-0.67l-9-0.57a1.28 1.28 0 0 1-1.19-1.26v-13.2a1.09 1.09 0 0 1 0-0.26v1.41a1.28 1.28 0 0 0 1.17 1.26z" opacity=".15"/><path d="m390.34 303.76a0.57 0.57 0 0 0-0.07-0.22v-11.37a0.91 0.91 0 0 0-0.2-0.54l-3.55-4.95a1.69 1.69 0 0 0-1.46-0.69l-9.28 1.56a2.9 2.9 0 0 1-1.78-0.55c-0.57-0.4-1.19-0.79-1.84-1.16v-7.38c0-0.3-0.28-0.58-0.74-0.69l-9.42-2.25a1.7 1.7 0 0 0-1.51 0.29l-4.49 4.74a2.17 2.17 0 0 1-1.48 0.46 48.37 48.37 0 0 0-6.14 0 2.44 2.44 0 0 1-1.65-0.72l-4-4.24a1.82 1.82 0 0 0-1.57-0.58l-9.79 2.33a0.64 0.64 0 0 0-0.51 0.65v7.32a24.62 24.62 0 0 0-2.18 1.39 2.54 2.54 0 0 1-1.62 0.28l-9.06-1.44a1.59 1.59 0 0 0-1.42 0.42l-3.91 5.44a0.43 0.43 0 0 0-0.08 0.24v14.13a0.4 0.4 0 0 0 0.08 0.22v7.15a1 1 0 0 0 0.2 0.58l3.55 4.95a1.7 1.7 0 0 0 1.46 0.69l9.28-1.57a3 3 0 0 1 1.78 0.51c0.58 0.41 1.19 0.79 1.84 1.17v7.35c0 0.3 0.28 0.59 0.74 0.71l9.42 2.25a1.74 1.74 0 0 0 1.53-0.29l4.5-4.74a2.12 2.12 0 0 1 1.48-0.46 50.3 50.3 0 0 0 6.14 0 2.46 2.46 0 0 1 1.65 0.71l4 4.25a1.84 1.84 0 0 0 1.57 0.58l9.8-2.34a0.62 0.62 0 0 0 0.49-0.54v-7.46a24.56 24.56 0 0 0 2.18-1.38 2.42 2.42 0 0 1 1.62-0.28l9 1.52a1.57 1.57 0 0 0 1.42-0.43l3.91-5.44a0.46 0.46 0 0 0 0.08-0.24v-9.93zm-52.43 0.28c0.43-0.3 0.9-0.59 1.4-0.89 6.73-3.88 17.64-3.88 24.37 0 0.49 0.29 0.95 0.58 1.36 0.88a14.33 14.33 0 0 1-1.47 1c-4.79 2.72-12.1 3.68-18.69 2.11a21.19 21.19 0 0 1-5.53-2.12 13.75 13.75 0 0 1-1.44-1.02z" fill="#37474f"/><path d="m333 284.7c-0.75 0.35-1.48 0.72-2.17 1.11v-7.32a0.8 0.8 0 0 0 0.1 0.38l2.35 4.65a0.85 0.85 0 0 1-0.28 1.18z" fill="#263238"/><path d="m322.17 296.33a9.58 9.58 0 0 0 0 3.07 1 1 0 0 1-0.62 1.08l-8.48 2.68a0.55 0.55 0 0 0-0.39 0.54v2.75a0.37 0.37 0 0 1-0.07-0.2v-13.56-0.59c0 0.25 0.27 0.5 0.68 0.63l8 2.54a1.11 1.11 0 0 1 0.88 1.06z" opacity=".15"/><path d="m327.47 308.31v9.94a1.28 1.28 0 0 0-0.34 0l-9.28 1.55a1.1 1.1 0 0 1-0.47 0v-9.93a1.18 1.18 0 0 0 0.49 0l9.28-1.56a1.13 1.13 0 0 1 0.32 0z" opacity=".15"/><path d="m330.75 319.92c-0.64-0.37-1.26-0.75-1.84-1.16a3.37 3.37 0 0 0-1.44-0.51v-9.94a3.14 3.14 0 0 1 1.45 0.52 28.69 28.69 0 0 0 3.76 2.16c0.55 0.27 0.86 0.75 0.68 1.12l-2.55 5.05a0.54 0.54 0 0 0-0.05 0.21c0 0.29-0.01 2.55-0.01 2.55z" fill="#263238"/><path d="m347.5 315v9.94a1.55 1.55 0 0 0-0.57 0.32l-4.51 4.74a1.35 1.35 0 0 1-0.82 0.33v-9.94a1.3 1.3 0 0 0 0.84-0.32l4.52-4.75a1.34 1.34 0 0 1 0.54-0.32z" opacity=".15"/><path d="m355.14 314.89v9.94a2.23 2.23 0 0 0-0.59-0.09 52.39 52.39 0 0 1-6.14 0 2.4 2.4 0 0 0-0.91 0.14v-9.88a2.48 2.48 0 0 1 0.93-0.14 48.21 48.21 0 0 0 6.13 0 1.75 1.75 0 0 1 0.58 0.03z" fill="#263238"/><path d="m361.14 320.3v9.93a2.05 2.05 0 0 1-0.9-0.53l-4-4.25a2.5 2.5 0 0 0-1.06-0.62v-9.94a2.6 2.6 0 0 1 1.08 0.63l4 4.24a2.06 2.06 0 0 0 0.88 0.54z" opacity=".15"/><path d="m372.12 317.48v6.37 3.55a0.62 0.62 0 0 1-0.5 0.54l-9.79 2.34a1.31 1.31 0 0 1-0.67 0v-9.98a1.52 1.52 0 0 0 0.69 0.05l9.79-2.35a0.59 0.59 0 0 0 0.48-0.52z" fill="#37474f"/><path d="m375.28 308.32v9.94a2.14 2.14 0 0 0-1 0.3 22.47 22.47 0 0 1-2.18 1.38v-2.58a0.85 0.85 0 0 0-0.1-0.4l-2.35-4.66a0.84 0.84 0 0 1 0.29-1.18 27.59 27.59 0 0 0 4.35-2.49 2.05 2.05 0 0 1 0.99-0.31z" opacity=".15"/><path d="m390.34 303.76v9.93a0.69 0.69 0 0 1-0.09 0.25l-3.91 5.43a1.14 1.14 0 0 1-0.66 0.39v-9.93a1.23 1.23 0 0 0 0.69-0.39l3.9-5.44a0.43 0.43 0 0 0 0.07-0.24z" fill="#37474f"/><path d="m330.81 278.46a0.94 0.94 0 0 0 0.1 0.38l2.35 4.65a0.84 0.84 0 0 1-0.3 1.18c-0.74 0.35-1.47 0.72-2.16 1.11a24.62 24.62 0 0 0-2.18 1.39 2.54 2.54 0 0 1-1.62 0.28l-9-1.45a1.59 1.59 0 0 0-1.42 0.42l-3.91 5.44a0.43 0.43 0 0 0-0.08 0.24c0 0.25 0.27 0.5 0.69 0.63l8 2.54a1.09 1.09 0 0 1 0.87 1.06 9.88 9.88 0 0 0 0 3.07 1 1 0 0 1-0.63 1.08l-8.48 2.68a0.55 0.55 0 0 0-0.39 0.54 1 1 0 0 0 0.2 0.55l3.55 4.94a1.67 1.67 0 0 0 1.47 0.69l9.27-1.56a2.84 2.84 0 0 1 1.77 0.51 27.57 27.57 0 0 0 3.77 2.16c0.55 0.27 0.85 0.75 0.67 1.11l-2.55 5.06c-0.18 0.36 0.13 0.75 0.69 0.89l9.42 2.25a1.74 1.74 0 0 0 1.52-0.28l4.51-4.75a2.15 2.15 0 0 1 1.48-0.46 50.15 50.15 0 0 0 6.13 0 2.42 2.42 0 0 1 1.66 0.71l4 4.25a1.91 1.91 0 0 0 1.57 0.58l9.8-2.35a0.68 0.68 0 0 0 0.4-1l-2.35-4.66a0.84 0.84 0 0 1 0.29-1.18 26.44 26.44 0 0 0 4.35-2.5 2.52 2.52 0 0 1 1.61-0.28l9 1.51a1.59 1.59 0 0 0 1.43-0.41l3.89-5.44a0.38 0.38 0 0 0 0.09-0.24 0.57 0.57 0 0 0-0.07-0.22 1.07 1.07 0 0 0-0.61-0.42l-8-2.54a1.11 1.11 0 0 1-0.88-1.06 9.52 9.52 0 0 0 0-3.06 1 1 0 0 1 0.63-1.08l8.48-2.69a0.54 0.54 0 0 0 0.39-0.52 0.91 0.91 0 0 0-0.2-0.54l-3.55-4.95a1.69 1.69 0 0 0-1.46-0.69l-9.28 1.56a2.9 2.9 0 0 1-1.74-0.59c-0.57-0.4-1.19-0.79-1.84-1.16s-1.25-0.68-1.91-1-0.87-0.75-0.68-1.11l2.55-5.06a0.49 0.49 0 0 0 0.05-0.2c0-0.3-0.28-0.58-0.74-0.69l-9.43-2.26a1.7 1.7 0 0 0-1.51 0.29l-4.49 4.74a2.17 2.17 0 0 1-1.48 0.46 48.37 48.37 0 0 0-6.14 0 2.44 2.44 0 0 1-1.65-0.72l-4-4.25a1.84 1.84 0 0 0-1.57-0.57l-9.79 2.33a0.64 0.64 0 0 0-0.56 0.66zm35.62 14.54 0.24 0.24 0.17 0.19a4.87 4.87 0 0 1 0.35 0.42q0.19 0.25 0.36 0.51c0.08 0.11 0.14 0.22 0.21 0.33l0.09 0.16a6.07 6.07 0 0 1-0.47 6.86 10.31 10.31 0 0 1-2.38 2.29 14.33 14.33 0 0 1-1.47 1c-4.79 2.72-12.1 3.68-18.69 2.11a21.19 21.19 0 0 1-5.53-2.12 13.75 13.75 0 0 1-1.44-0.94 9.72 9.72 0 0 1-2.94-3.26 1.74 1.74 0 0 1-0.1-0.19 1.5859e12 1.5859e12 0 0 1-0.18-0.42 6.08 6.08 0 0 1 0.88-6c3.64-5.07 13.71-7.48 22.5-5.38a17.3 17.3 0 0 1 8.4 4.2z" fill="#455a64"/><path d="m327.34 72.79a8.1 8.1 0 0 0-1.8-1.4c-2.18-1.25-11.55-6.68-12.18-7-5.41-3.08-13 1.48-18.33 11.45l-73.26 137.37c-9.41 17.63-10.13 40-1.59 48.65a11.92 11.92 0 0 0 2.46 1.94c2.14 1.27 11.37 6.58 12.26 7.09 8.62 5 21-3.65 28.5-20.7l64.28-146.57c5.2-11.87 5.06-25.35-0.34-30.83z" fill="#6da5ea"/><path d="m327.34 72.79a8.1 8.1 0 0 0-1.8-1.4c-2.18-1.25-11.55-6.68-12.18-7-5.41-3.08-13 1.48-18.33 11.45l-73.26 137.37c-9.41 17.63-10.13 40-1.59 48.65a11.92 11.92 0 0 0 2.46 1.94c2.14 1.27 11.37 6.58 12.26 7.09 8.62 5 21-3.65 28.5-20.7l64.28-146.57c5.2-11.87 5.06-25.35-0.34-30.83z" fill="#fff" opacity=".3"/><path d="m327.68 103.62-64.28 146.57c-8.25 18.81-22.5 27.4-31 18.71-8.54-8.69-7.82-31 1.58-48.65l73.23-137.42c5.94-11.14 14.74-15.53 20.13-10 5.4 5.44 5.54 18.92 0.34 30.79z" fill="#6da5ea" opacity=".6"/><path d="m243.75 256.67c2.18 1 5 0.54 7.9-1.52 5.82-4.12 9.86-13.2 9-20.28-0.41-3.54-2-5.92-4.14-6.89-1.33-0.59-3.33-1.45-4.65-2-2.18-1-5-0.54-7.89 1.52-5.82 4.12-9.87 13.2-9 20.28 0.41 3.54 2 5.91 4.15 6.88z" fill="#263238"/><path d="m260.68 234.87c-0.41-3.54-2-5.92-4.14-6.89s-5-0.54-7.9 1.52c-5.82 4.12-9.86 13.21-9 20.29 0.42 3.54 2 5.91 4.15 6.88s5 0.54 7.9-1.52c5.78-4.15 9.82-13.15 8.99-20.28z" fill="#455a64"/><path d="m315.8 100.79c1.2 0.54 2.74 0.3 4.34-0.83a13.19 13.19 0 0 0 5-11.15c-0.23-2-1.08-3.26-2.28-3.79l-2.56-1.13c-1.2-0.53-2.74-0.29-4.34 0.84a13.19 13.19 0 0 0-5 11.15 4.45 4.45 0 0 0 2.28 3.79z" fill="#263238"/><path d="m325.11 88.81c-0.23-2-1.09-3.26-2.28-3.79s-2.74-0.3-4.34 0.84a13.15 13.15 0 0 0-5 11.15c0.23 1.95 1.08 3.25 2.28 3.78s2.74 0.3 4.34-0.83a13.19 13.19 0 0 0 5-11.15z" fill="#455a64"/><path d="m326.22 71.66a10.39 10.39 0 0 0-7.57-0.92l-113.2 24.08c-6.32 1.34-13.17 8.92-15.59 17.24-1.81 6.24-0.65 11.25 2.6 13.16 1.08 0.64 6.79 3.93 8.22 4.74a6.66 6.66 0 0 0 3.82 0.75l108.78-8.85c9.7-0.79 21.09-12.62 25-25.93 2.73-9.39 0.93-16.81-3.91-19.61-1.37-0.78-6.78-3.86-8.15-4.66z" fill="#6da5ea"/><path d="m326.22 71.66a10.39 10.39 0 0 0-7.57-0.92l-113.2 24.08c-6.32 1.34-13.17 8.92-15.59 17.24-1.81 6.24-0.65 11.25 2.6 13.16 1.08 0.64 6.79 3.93 8.22 4.74a6.66 6.66 0 0 0 3.82 0.75l108.78-8.85c9.7-0.79 21.09-12.62 25-25.93 2.73-9.39 0.93-16.81-3.91-19.61-1.37-0.78-6.78-3.86-8.15-4.66z" fill="#fff" opacity=".5"/><path d="m204.5 130.71 108.78-8.85c9.7-0.79 21.09-12.62 25-25.93 3.87-13.3-1.36-22.66-11.45-20.51l-113.26 24.08c-6.31 1.34-13.17 8.92-15.58 17.24-2.42 8.32 0.44 14.46 6.51 13.97z" fill="#fff" opacity=".3"/><path d="m298.3 346.77v-13.77h-10.3c-1.06-0.72-2.21-1.43-3.44-2.14-18.38-10.62-48.18-10.62-66.57 0-1.22 0.71-2.37 1.42-3.43 2.14h-10.38v13.79c-0.18 5.58 4.4 11.17 13.77 16.58 18.38 10.61 48.19 10.61 66.57 0 9.38-5.44 13.96-11.02 13.78-16.6z" fill="#263238"/><path d="m218 352.19c-18.38-10.61-18.38-27.82 0-38.43s48.19-10.61 66.57 0 18.38 27.82 0 38.43-48.23 10.62-66.57 0z" fill="#37474f"/><path d="m283.7 331.83v-74.83a30.72 30.72 0 1 0-61.43 0v75c0 4.52 3 9 9 12.46 12 6.85 31.49 6.82 43.44-0.08 5.93-3.42 8.91-7.9 9-12.38z" fill="#455a64"/><path d="m264.07 299.21a9 9 0 0 1 4.11-7.08 2.83 2.83 0 0 1 3-0.23l1.82 1.1-0.75 1.32v0.15a9 9 0 0 1-4.1 7.07l-0.85 1.5-2-1.21h-0.07a2.89 2.89 0 0 1-1.16-2.62z" fill="#6da5ea"/><path d="m264.07 299.21a9 9 0 0 1 4.11-7.08 2.83 2.83 0 0 1 3-0.23l1.82 1.1-0.75 1.32v0.15a9 9 0 0 1-4.1 7.07l-0.85 1.5-2-1.21h-0.07a2.89 2.89 0 0 1-1.16-2.62z" opacity=".3"/><path d="m274.29 295.66a9.06 9.06 0 0 1-4.1 7.08c-2.27 1.31-4.11 0.26-4.11-2.34a9 9 0 0 1 4.1-7.07c2.27-1.33 4.11-0.26 4.11 2.33z" fill="#6da5ea"/><path d="m264.07 316.77a9 9 0 0 1 4.11-7.07 2.81 2.81 0 0 1 3-0.24l1.86 1.11-0.75 1.33v0.14a9 9 0 0 1-4.1 7.08l-0.85 1.5-2-1.2h-0.07a2.89 2.89 0 0 1-1.2-2.65z" fill="#e0e0e0"/><path d="m274.29 313.23a9 9 0 0 1-4.1 7.07c-2.27 1.31-4.11 0.26-4.11-2.33a9.06 9.06 0 0 1 4.1-7.08c2.27-1.31 4.11-0.26 4.11 2.34z" fill="#f5f5f5"/><path d="m348.08 84.54a8.14 8.14 0 0 0-1.81-1.41c-2.17-1.24-11.54-6.68-12.18-7-5.41-3.08-13 1.48-18.33 11.44l-73.26 137.43c-9.4 17.63-10.13 40-1.59 48.64a12 12 0 0 0 2.46 1.95c2.14 1.26 11.37 6.57 12.26 7.09 8.62 5 21-3.66 28.5-20.7l64.28-146.57c5.2-11.91 5.06-25.41-0.33-30.87z" fill="#6da5ea"/><path d="m348.08 84.54a8.14 8.14 0 0 0-1.81-1.41c-2.17-1.24-11.54-6.68-12.18-7-5.41-3.08-13 1.48-18.33 11.44l-73.26 137.43c-9.4 17.63-10.13 40-1.59 48.64a12 12 0 0 0 2.46 1.95c2.14 1.26 11.37 6.57 12.26 7.09 8.62 5 21-3.66 28.5-20.7l64.28-146.57c5.2-11.91 5.06-25.41-0.33-30.87z" fill="#fff" opacity=".3"/><path d="m348.41 115.37-64.28 146.57c-8.25 18.81-22.5 27.4-31 18.71-8.54-8.69-7.82-31 1.59-48.65l73.22-137.43c5.94-11.13 14.74-15.52 20.14-10 5.39 5.43 5.53 18.93 0.33 30.8z" fill="#fff" opacity=".3"/><path d="m264.49 268.42c2.17 1 5 0.54 7.89-1.52 5.82-4.12 9.87-13.2 9-20.29-0.42-3.54-2-5.91-4.15-6.88l-4.65-2c-2.18-1-5-0.54-7.89 1.52-5.82 4.12-9.87 13.2-9 20.29 0.41 3.54 2 5.91 4.15 6.88z" fill="#263238"/><path d="m281.42 246.61c-0.42-3.54-2-5.91-4.15-6.88s-5-0.54-7.9 1.52c-5.82 4.12-9.86 13.2-9 20.29 0.41 3.54 2 5.91 4.14 6.88s5 0.54 7.9-1.52c5.79-4.12 9.84-13.2 9.01-20.29z" fill="#455a64"/><path d="m336.53 112.54a4.42 4.42 0 0 0 4.34-0.83 13.17 13.17 0 0 0 5-11.16c-0.23-2-1.08-3.25-2.28-3.78l-2.59-1.13c-1.19-0.53-2.74-0.3-4.34 0.84a13.18 13.18 0 0 0-5 11.15c0.23 2 1.09 3.25 2.29 3.78 0.75 0.33 1.85 0.81 2.58 1.13z" fill="#263238"/><path d="m345.84 100.55c-0.23-2-1.08-3.25-2.28-3.78s-2.74-0.3-4.34 0.83a13.17 13.17 0 0 0-5 11.16c0.23 1.94 1.08 3.25 2.28 3.78a4.42 4.42 0 0 0 4.34-0.83 13.17 13.17 0 0 0 5-11.16z" fill="#455a64"/><path d="m193.17 88.93c3.91-2.94 7.68-3.57 10.6-2.23l17.85 10.38-0.49 1.15a13.74 13.74 0 0 1 2.23 6.36c1.14 9.53-4.15 21.91-11.83 27.66a13.9 13.9 0 0 1-6.07 2.77l-0.46 1.18-17.8-10.36c-3-1.14-5.24-4.32-5.83-9.24-1.18-9.54 4.12-21.92 11.8-27.67z" fill="#6da5ea"/><path d="m193.17 88.93c3.91-2.94 7.68-3.57 10.6-2.23l17.85 10.38-0.49 1.15a13.74 13.74 0 0 1 2.23 6.36c1.14 9.53-4.15 21.91-11.83 27.66a13.9 13.9 0 0 1-6.07 2.77l-0.46 1.18-17.8-10.36c-3-1.14-5.24-4.32-5.83-9.24-1.18-9.54 4.12-21.92 11.8-27.67z" opacity=".15"/><path d="m211.39 99.46c-7.68 5.76-13 18.14-11.83 27.66s8.29 12.58 16 6.83 13-18.13 11.84-27.66-8.33-12.58-16.01-6.83z" fill="#6da5ea"/><path d="m206.8 121.68a6.75 6.75 0 0 0 0.92 2.81c1.35 2.21 4 2.51 6.73 0.46a15.92 15.92 0 0 0 5.65-13.22c-0.36-3-1.9-4.6-3.95-4.64a5.81 5.81 0 0 0-3.68 1.38 15.89 15.89 0 0 0-5.67 13.21z" fill="#6da5ea"/><path d="m206.8 121.68a6.75 6.75 0 0 0 0.92 2.81c1.35 2.21 4 2.51 6.73 0.46a15.92 15.92 0 0 0 5.65-13.22c-0.36-3-1.9-4.6-3.95-4.64a5.81 5.81 0 0 0-3.68 1.38 15.89 15.89 0 0 0-5.67 13.21z" opacity=".3"/><path d="m206.8 121.68a6.75 6.75 0 0 0 0.92 2.81 5.78 5.78 0 0 0 3.69-1.37 15.9 15.9 0 0 0 5.65-13.21 6.7 6.7 0 0 0-0.91-2.82 5.81 5.81 0 0 0-3.68 1.38 15.89 15.89 0 0 0-5.67 13.21z" fill="#263238"/><path d="m149.53 124c-1.29 0.71-2.1 2.27-2.15 4.51a15.52 15.52 0 0 0 6.8 12.29c1.91 1.16 3.67 1.29 4.95 0.59l37.07-20.49c1.28-0.71 2.1-2.27 2.14-4.5a15.53 15.53 0 0 0-6.79-12.29c-1.92-1.16-3.67-1.3-5-0.59z" fill="#263238"/><path d="m154.18 140.75c1.91 1.16 3.67 1.29 4.95 0.58s2.1-2.26 2.14-4.5a15.48 15.48 0 0 0-6.79-12.29c-1.92-1.16-3.67-1.3-4.95-0.59s-2.1 2.27-2.15 4.51a15.52 15.52 0 0 0 6.8 12.29z" fill="#455a64"/><path d="m174.93 104.83c-3.26-1.81-6.26-2.29-8.68-1.62a54.48 54.48 0 0 1-10.32 1.7c-4.63 0.3-8.75 0-13.4 0.19a51.21 51.21 0 0 0-9.16 1.32c-2.73 0.65-4.72 4-6.23 6.16-1.23 1.76-3.19 6.21-2.7 7.27s4.94 1.79 2.78 3.64-9.82 4.42-14.4 7.57 5.54 24.83 13.5 35.32c5.5 7.26 7.81 11 20.09 5.7 7.41-3.22 14.28-6.14 20.77-11 5.88-4.37 13.94-15.68 19.74-22 2.1-1.77 3.33-4.85 3.25-9-0.17-9.34-6.99-20.68-15.24-25.25z" fill="#455a64"/><path d="m111.63 109c-3.93-0.68-9.15 3.21-13.93 2.93-3.84-0.23-4.15 4.25 1.1 6.15 3.43 1.25 11.49 1 11.24-0.65-0.45-2.78 0.42-5.27 1.59-8.43zm3.52-0.88c-2 0.46-4.75 7.9-3.47 9.56s7.89 2.68 11.09 1.27c1.06-7.06 6.91-12.28 6.91-12.28-4.23-0.82-12.57 1.03-14.53 1.48z" fill="#6da5ea"/><g fill="#263238" opacity=".2"><path d="m109.93 115.44a79.83 79.83 0 0 1-8.61-0.2 10.27 10.27 0 0 1-4-0.91 4.46 4.46 0 0 1-1.82-1.73c-1.4 1.27-0.57 4.1 3.33 5.51 3.43 1.25 11.49 1 11.24-0.65a9.9 9.9 0 0 1-0.14-2.02z"/><path d="m123.61 115.75c-2.18-1.27-4.89-0.93-7.4-0.67-1.57 0.17-3.15 0.27-4.73 0.34a3.41 3.41 0 0 0 0.24 2.33c1.29 1.66 7.89 2.68 11.09 1.27a16.82 16.82 0 0 1 0.8-3.27z"/></g><path d="m133.43 137.72c13.72 7.46 30.13 1.9 30.13 1.9a23 23 0 0 1-16.41 5.56c-10.41-0.43-13.72-7.46-13.72-7.46z" fill="#37474f"/><path d="m110.23 140.39c0.9 3.88 2 7.16-2.87 7.81s-11.55 1.66-14.3 3-6 1.49-6.62-2.43-0.87-5.95 3.24-7.09 11.16-3.55 13.84-5 5.48-1.54 6.71 3.71z" fill="#6da5ea"/><path d="m107.36 148.2c4.83-0.65 3.77-3.93 2.87-7.81 0-0.22-0.1-0.42-0.16-0.62a4.81 4.81 0 0 1-0.18 0.65 6.61 6.61 0 0 1-2.69 3.38c-2.58 1.58-5.91 1.25-8.75 2.3-1.86 0.68-3.46 1.93-5.3 2.66a10.25 10.25 0 0 1-6.65 0.28c0.72 3.69 3.88 3.56 6.57 2.21s9.45-2.4 14.29-3.05z" fill="#263238" opacity=".2"/><path d="m85.16 149.37c-1.41-2.56-1.93-4.51-4.92-2.47s-6.17 3.9-9.63 6.21-3.59 4.42-2.75 5.95 3 1.87 6.61 0.59 7.26-3.53 9.88-4.6 2.65-2.36 0.81-5.68z" fill="#6da5ea"/><g opacity=".2"><path d="m85.16 149.37c-0.08-0.13-0.15-0.26-0.22-0.4a0.67 0.67 0 0 0-0.41 0.49 1.89 1.89 0 0 0 0.1 0.74 2.26 2.26 0 0 1-0.78 2 6.68 6.68 0 0 1-1.85 1.1l-9.06 4.11a8.84 8.84 0 0 1-3.59 1 3.58 3.58 0 0 1-1.84-0.5 3.34 3.34 0 0 0 0.39 1.11c0.84 1.52 3 1.87 6.61 0.59s7.26-3.53 9.88-4.6 2.61-2.32 0.77-5.64z" fill="#263238"/></g><path d="m88.74 148.15c0.52 1.58 0.92 2.65 0.38 3s-4.45 1.44-5.31-1.33 2.44-4.4 3.24-4.4 1.29 1.51 1.69 2.73z" fill="#e0e0e0"/><path d="m121 163.58c1.94 3.48 3.87 6.34-0.55 8.37s-10.06 4.63-12.74 6.12c-3.42 1.9-6.21 2.86-7.91-0.74s-1.61-4.2 2-6.5 9.64-6.66 11.79-8.82 4.74-3.13 7.41 1.57z" fill="#6da5ea"/><path d="m98.06 177.75c-1.86-2.25-2.73-4.09-5.27-1.5s-4.27 4-7.22 6.94-2.68 5.05-1.57 6.4 3.25 1.28 6.56-0.67 5.41-3.86 7.77-5.4 2.14-2.84-0.27-5.77z" fill="#6da5ea"/><path d="m95.69 181.56c-1.46 1.16-3.2 2-4.57 3.26-1 0.91-1.73 2-2.68 3a4.11 4.11 0 0 1-4.79 1.29 3.54 3.54 0 0 0 0.35 0.51c1.11 1.34 3.25 1.28 6.56-0.67s5.41-3.86 7.77-5.4 2.14-2.81-0.21-5.69a6.26 6.26 0 0 1-2.43 3.7zm25.26-18c-0.09-0.16-0.18-0.3-0.27-0.45a5.74 5.74 0 0 1 0.12 2.54 6 6 0 0 1-3.06 3.7 42.74 42.74 0 0 1-4.56 1.94 20.05 20.05 0 0 0-4.79 2.91 22.49 22.49 0 0 1-3.4 2.62 7.27 7.27 0 0 1-5.18 0.6c1.7 3.46 4.47 2.51 7.85 0.63 2.68-1.49 8.31-4.09 12.74-6.12s2.49-4.87 0.6-8.35z" fill="#263238" opacity=".2"/><path d="m101.15 176.36c0.74 1.49 1.29 2.49 0.82 2.94s-4.17 2.1-5.43-0.51 1.75-4.74 2.54-4.86 1.49 1.29 2.07 2.43z" fill="#e0e0e0"/><path d="m128.53 174.24c2.31 3 2.78 5-0.06 6.63-5.14 2.87-7.26 4.46-9.89 5.81-4.53 2.33-5.43 2.23-7.25-1.14s-1.14-4.13 2.26-6.69c2.78-2.1 5.78-4.24 8.82-6.31 2.41-1.64 4.16-0.9 6.12 1.7z" fill="#6da5ea"/><path d="m109.85 186.84c-1.9-2.07-2.3-3.2-5.12-1.15a21.26 21.26 0 0 0-4.18 3.7c-2.53 3.1-2.28 5-1.15 6.26s3.19 1 6.25-1 2-1.35 4.15-3 2.52-2.12 0.05-4.81z" fill="#6da5ea"/><path d="m108.87 189.25a14.27 14.27 0 0 1-2.27 1.48 18.83 18.83 0 0 0-3.46 2.7 9.7 9.7 0 0 1-2.14 1.87 2.92 2.92 0 0 1-1.56 0.33c1.14 1.23 3.19 1 6.25-1s2-1.35 4.15-3 2.49-2.09 0.26-4.57a3.34 3.34 0 0 1-1.23 2.19zm19.66-15a11.8 11.8 0 0 0-1-1.2 3.87 3.87 0 0 1-0.58 3.17c-1 1.35-2.72 1.89-4.11 2.82-2.47 1.67-3.89 4.63-6.49 6.09a7 7 0 0 1-4.71 0.78h-0.09c1.7 3 2.7 3 7.06 0.79 2.63-1.35 4.75-2.94 9.89-5.81 2.81-1.6 2.34-3.6 0.03-6.65z" fill="#263238" opacity=".2"/><path d="m112.46 184.77c0.85 1.35 1.47 2.26 1.06 2.73s-3.81 2.39-5.26 0 1.24-4.69 2-4.88 1.54 1.1 2.2 2.15z" fill="#e0e0e0"/><path d="m114.64 151.92c1.65 3.63 3.35 6.63-1.24 8.27s-14.48 5.58-16.88 7.5-5.54 2.72-7-1-2-5.67 1.74-7.65 13.72-7.35 16-9.31 5.14-2.73 7.38 2.19z" fill="#6da5ea"/><path d="m88.51 166.34c-1.73-2.35-2.49-4.22-5.21-1.82s-5.66 4.62-8.81 7.34-3 4.82-2 6.22 3.2 1.48 6.66-0.25 6.79-4.4 9.26-5.78 2.35-2.66 0.1-5.71z" fill="#6da5ea"/><path d="m87.76 168.51a12 12 0 0 1-2.76 1.73 25.58 25.58 0 0 0-4.44 3 29.79 29.79 0 0 1-4 3.25 6 6 0 0 1-4.43 0.81 3.81 3.81 0 0 0 0.44 0.79c1 1.4 3.2 1.48 6.66-0.25s6.79-4.4 9.26-5.78 2.34-2.55 0.36-5.33a3.63 3.63 0 0 1-1.09 1.78zm27-16.31a4 4 0 0 1-0.16 2.16 4.37 4.37 0 0 1-1.17 1.56c-3.4 3.08-8.5 3.26-12.55 5.42-2 1.06-3.69 2.59-5.68 3.64a7.44 7.44 0 0 1-6 0.76c0.11 0.3 0.23 0.61 0.35 0.95 1.41 3.72 4.55 2.93 7 1s12.3-5.85 16.88-7.5 2.95-4.49 1.34-7.99z" fill="#263238" opacity=".2"/><path d="m91.79 165c0.69 1.51 1.2 2.53 0.72 3s-4.25 2-5.41-0.7 1.92-4.68 2.71-4.77 1.45 1.26 1.98 2.47z" fill="#e0e0e0"/></g></svg>
