<svg width="240" height="240" version="1.1" viewBox="0 0 240 240" xmlns="http://www.w3.org/2000/svg"><g transform="matrix(.58057 0 0 .58057 -18.247 -16.149)"><g opacity=".3"><path d="m209 387.14-69 39.77a6.65 6.65 0 0 1-6 0l-68.8-39.77c-1.65-1-1.65-2.51 0-3.46l68.93-39.77a6.65 6.65 0 0 1 6 0l68.87 39.77c1.61 0.95 1.61 2.5 0 3.46z"/><path d="m340.16 376.61a9.88 9.88 0 0 1-4.94-1.25l-70.34-40.61a6.34 6.34 0 0 1 0-11.31l96.25-55.56a10.29 10.29 0 0 1 9.87 0l70.34 40.61a6.33 6.33 0 0 1 0 11.3l-96.24 55.57a9.88 9.88 0 0 1-4.94 1.25z"/></g><g fill="#6da5ea"><path d="m263 377.48a4.89 4.89 0 0 1-2.41-0.59l-32.23-18.65a4.3 4.3 0 0 0-3.83 0l-30.33 17.5a0.5 0.5 0 1 1-0.5-0.86l30.3-17.51a5.28 5.28 0 0 1 4.83 0l32.26 18.63a4.3 4.3 0 0 0 3.83 0l42.51-24.54a0.5 0.5 0 1 1 0.5 0.86l-42.51 24.55a5 5 0 0 1-2.42 0.61z"/><path d="m185.84 371.16a0.51 0.51 0 0 1-0.44-0.25 0.5 0.5 0 0 1 0.19-0.68l38.41-22.23a5.22 5.22 0 0 1 4.83 0l32.23 18.6a4.3 4.3 0 0 0 3.83 0l34.39-19.85a0.5 0.5 0 1 1 0.5 0.86l-34.39 19.86a5.28 5.28 0 0 1-4.83 0l-32.2-18.57a4.3 4.3 0 0 0-3.83 0l-38.44 22.2a0.57 0.57 0 0 1-0.25 0.06z"/><path d="m177.7 366.48a0.52 0.52 0 0 1-0.44-0.25 0.51 0.51 0 0 1 0.19-0.68l46.55-26.89a5.22 5.22 0 0 1 4.83 0l32.23 18.6a4.3 4.3 0 0 0 3.83 0l26.6-15.36a0.51 0.51 0 0 1 0.68 0.19 0.49 0.49 0 0 1-0.18 0.68l-26.6 15.36a5.28 5.28 0 0 1-4.83 0l-32.23-18.61a4.3 4.3 0 0 0-3.83 0l-46.5 26.89a0.47 0.47 0 0 1-0.3 0.07z"/><path d="m169.6 361.78a0.5 0.5 0 0 1-0.25-0.93l54.65-31.58a5.28 5.28 0 0 1 4.83 0l32.22 18.61a4.32 4.32 0 0 0 3.84 0l18.14-10.47a0.5 0.5 0 0 1 0.5 0.86l-18.14 10.48a5.3 5.3 0 0 1-4.84 0l-32.22-18.61a4.3 4.3 0 0 0-3.83 0l-54.68 31.58a0.54 0.54 0 0 1-0.22 0.06z"/></g><path d="m262.17 325a5.51 5.51 0 0 0 2.58 4.29l72.44 41.83a5.74 5.74 0 0 0 5.17 0l99.11-57.23a4.85 4.85 0 0 0 0-8.58l-72.47-41.81a5.7 5.7 0 0 0-5.18 0l-99.11 57.22a5.53 5.53 0 0 0-2.54 4.28z" fill="#37474f"/><path d="m339.77 366.15v5.59a5.29 5.29 0 0 1-2.58-0.61l-72.44-41.82a4.85 4.85 0 0 1-0.26-8.42c-1.16 0.83-1.07 2 0.26 2.81l72.44 41.83a5.29 5.29 0 0 0 2.58 0.62z" fill="#263238"/><path d="m259.74 320.81a5.54 5.54 0 0 1-2.42-4.38v-86.43a5.7 5.7 0 0 1 2.58-4.47l99.1-57.25a4.86 4.86 0 0 1 7.44 4.3v86.42a5.72 5.72 0 0 1-2.59 4.48l-99.11 57.22a5.57 5.57 0 0 1-5 0.11z" fill="#455a64"/><path d="m264.45 320.87a4.83 4.83 0 0 1-7.13-4.44v-86.43a5.11 5.11 0 0 1 0.76-2.54l4.84 2.79a5.34 5.34 0 0 0-0.75 2.54v86.45c0 1.52 0.99 2.2 2.28 1.63z" fill="#263238"/><path d="m262.17 232.78v86.45c0 1.65 1.15 2.31 2.58 1.49l99.11-57.22a5.72 5.72 0 0 0 2.59-4.48v-86.44c0-1.65-1.16-2.32-2.59-1.5l-99.11 57.23a5.7 5.7 0 0 0-2.58 4.47z" fill="#37474f"/><path d="m264.75 323.7 72.44 41.82a5.68 5.68 0 0 0 5.17 0l99.11-57.22c1.43-0.82 1.43-2.16 0-3l-72.47-41.8a5.7 5.7 0 0 0-5.18 0l-99.11 57.22c-1.39 0.82-1.39 2.16 0.04 2.98z" fill="#455a64"/><path d="m266.14 233.1 95.56-55.1c0.86-0.5 1.55-0.1 1.55 0.89v74.83a3.43 3.43 0 0 1-1.55 2.69l-95.56 55.15c-0.85 0.5-1.55 0.1-1.55-0.89v-74.88a3.46 3.46 0 0 1 1.55-2.69z" fill="#fafafa"/><path d="m273.16 321.47 92-53.12a2.86 2.86 0 0 1 2.58 0l4.71 2.72a0.79 0.79 0 0 1 0 1.49l-92 53.11a2.88 2.88 0 0 1-2.59 0l-4.7-2.67a0.79 0.79 0 0 1 0-1.53z" fill="#6da5ea"/><path d="m273.16 321.47 92-53.12a2.86 2.86 0 0 1 2.58 0l4.71 2.72a0.79 0.79 0 0 1 0 1.49l-92 53.11a2.88 2.88 0 0 1-2.59 0l-4.7-2.67a0.79 0.79 0 0 1 0-1.53z" fill="#263238"/><path d="m285.29 328.47 92-53.12a2.88 2.88 0 0 1 2.59 0l28.94 16.71a0.78 0.78 0 0 1 0 1.49l-91.9 53.05a2.88 2.88 0 0 1-2.59 0l-29-16.64a0.78 0.78 0 0 1-0.04-1.49z" fill="#263238"/><path d="m367.75 299.25 2.88-1.66c0.13-0.08 0.12-0.19 0-0.27l-3.33-1.92a0.5 0.5 0 0 0-0.46 0l-2.84 1.65c-0.13 0.07-0.12 0.19 0 0.27l3.33 1.92a0.53 0.53 0 0 0 0.42 0.01zm-5.68-6.61-2.88 1.66c-0.12 0.07-0.12 0.19 0 0.27l3.33 1.92a0.5 0.5 0 0 0 0.46 0l2.88-1.66c0.12-0.07 0.11-0.19 0-0.27l-3.33-1.92a0.5 0.5 0 0 0-0.46 0zm-9.31 5.36-4.87 2.82c-0.12 0.07-0.12 0.19 0 0.26l3.33 1.93a0.53 0.53 0 0 0 0.46 0l4.87-2.82c0.12-0.07 0.12-0.19 0-0.26l-3.33-1.93a0.53 0.53 0 0 0-0.46 0zm5.1-2.94-2.86 1.67c-0.12 0.07-0.12 0.19 0 0.27l3.33 1.92a0.5 0.5 0 0 0 0.46 0l2.88-1.66c0.12-0.07 0.11-0.19 0-0.27l-3.33-1.92a0.5 0.5 0 0 0-0.48 0zm-11.3 6.53-2.88 1.66c-0.12 0.07-0.12 0.19 0 0.26l3.33 1.93a0.53 0.53 0 0 0 0.46 0l2.88-1.67c0.12-0.07 0.11-0.19 0-0.26l-3.35-1.91a0.5 0.5 0 0 0-0.44 0zm-4.21 2.41-2.88 1.66c-0.12 0.07-0.12 0.19 0 0.26l3.33 1.93a0.53 0.53 0 0 0 0.46 0l2.88-1.67c0.12-0.07 0.11-0.19 0-0.26l-3.33-1.92a0.5 0.5 0 0 0-0.46 0zm13.1 7.82 2.88-1.67c0.12-0.07 0.12-0.19 0-0.26l-3.33-1.89a0.48 0.48 0 0 0-0.45 0l-2.89 1.66c-0.12 0.07-0.11 0.19 0 0.26l3.33 1.93a0.53 0.53 0 0 0 0.46 0zm-4.21 2.43 2.88-1.67c0.12-0.07 0.12-0.19 0-0.26l-3.34-1.92a0.45 0.45 0 0 0-0.45 0l-2.89 1.66c-0.12 0.07-0.11 0.19 0 0.26l3.33 1.93a0.53 0.53 0 0 0 0.47 0.03zm-4.24 2.46 2.88-1.67c0.12-0.07 0.12-0.19 0-0.26l-3.34-1.92a0.48 0.48 0 0 0-0.45 0l-2.89 1.66c-0.12 0.07-0.11 0.19 0 0.26l3.33 1.93a0.53 0.53 0 0 0 0.47 0zm-4.21 2.43 2.88-1.67c0.12-0.07 0.12-0.19 0-0.26l-3.34-1.92a0.48 0.48 0 0 0-0.45 0l-2.88 1.65c-0.12 0.07-0.11 0.19 0 0.27l3.33 1.92a0.53 0.53 0 0 0 0.49 0.01zm20.72-17.46 2.88-1.66c0.13-0.07 0.12-0.19 0-0.27l-3.33-1.92a0.5 0.5 0 0 0-0.46 0l-2.88 1.66c-0.12 0.07-0.12 0.19 0 0.27l3.33 1.92a0.5 0.5 0 0 0 0.49 0zm-3.88 7.74 6.43-3.71c0.12-0.08 0.11-0.19 0-0.27l-8.06-4.67a0.5 0.5 0 0 0-0.46 0l-3.32 1.92c-0.12 0.07-0.12 0.19 0 0.26l4.29 2.48c0.13 0.07 0.14 0.19 0 0.26l-2.66 1.54c-0.12 0.07-0.11 0.19 0 0.26l3.33 1.93a0.53 0.53 0 0 0 0.48 0zm-21.52-3-2.88 1.66c-0.12 0.07-0.12 0.19 0 0.26l3.33 1.93a0.53 0.53 0 0 0 0.46 0l2.88-1.67c0.12-0.07 0.11-0.19 0-0.26l-3.33-1.92a0.5 0.5 0 0 0-0.43 0.04zm-4.21 2.43-2.88 1.66c-0.12 0.07-0.12 0.19 0 0.27l3.33 1.92a0.53 0.53 0 0 0 0.46 0l2.88-1.67c0.12-0.07 0.11-0.18 0-0.26l-3.33-1.92a0.5 0.5 0 0 0-0.43 0.04zm-21 27.25a0.5 0.5 0 0 0 0.46 0l2.88-1.66c0.12-0.07 0.12-0.19 0-0.27l-3.33-1.92a0.5 0.5 0 0 0-0.46 0l-2.9 1.75c-0.13 0.07-0.12 0.19 0 0.27zm-12.64-7.81-2.89 1.71c-0.12 0.08-0.11 0.19 0 0.27l3.33 1.92a0.5 0.5 0 0 0 0.46 0l2.88-1.66c0.12-0.07 0.11-0.19 0-0.27l-3.33-1.92a0.53 0.53 0 0 0-0.46-0.01zm6.74 5.71a0.5 0.5 0 0 0 0.46 0l2.88-1.66c0.12-0.07 0.11-0.19 0-0.26l-3.34-1.89a0.53 0.53 0 0 0-0.46 0l-2.88 1.67c-0.12 0.07-0.12 0.19 0 0.26zm13.3 3.59 2.88-1.66c0.12-0.07 0.11-0.19 0-0.27l-3.33-1.92a0.5 0.5 0 0 0-0.46 0l-2.88 1.66c-0.12 0.07-0.12 0.19 0 0.27l3.33 1.92a0.5 0.5 0 0 0 0.49 0.03zm-4.64 2.41a0.5 0.5 0 0 0 0.46 0l2.88-1.66c0.12-0.07 0.11-0.19 0-0.27l-3.33-1.92a0.5 0.5 0 0 0-0.46 0l-2.88 1.66c-0.12 0.07-0.12 0.19 0 0.27zm-11.2-14.14-2.88 1.66c-0.12 0.07-0.11 0.19 0 0.27l3.33 1.92a0.5 0.5 0 0 0 0.46 0l2.88-1.66c0.12-0.07 0.11-0.19 0-0.27l-3.33-1.92a0.5 0.5 0 0 0-0.46 0.04zm21.05-12.15-2.88 1.66c-0.12 0.07-0.12 0.19 0 0.27l3.37 1.96a0.5 0.5 0 0 0 0.46 0l2.88-1.66c0.12-0.07 0.11-0.19 0-0.27l-3.34-1.91a0.5 0.5 0 0 0-0.49-0.01zm-16.84 9.72-2.88 1.66c-0.12 0.07-0.11 0.19 0 0.27l3.33 1.92a0.5 0.5 0 0 0 0.46 0l2.88-1.66c0.12-0.07 0.11-0.19 0-0.27l-3.33-1.92a0.5 0.5 0 0 0-0.46 0.04zm21.05-12.15-2.88 1.72c-0.12 0.07-0.12 0.19 0 0.27l3.33 1.92a0.53 0.53 0 0 0 0.46 0l2.88-1.66c0.12-0.08 0.11-0.19 0-0.27l-3.33-1.92a0.5 0.5 0 0 0-0.46-0.02zm-8.42 4.86-2.88 1.66c-0.12 0.07-0.12 0.19 0 0.27l3.33 1.92a0.5 0.5 0 0 0 0.46 0l2.88-1.66c0.12-0.07 0.11-0.19 0-0.27l-3.33-1.92a0.5 0.5 0 0 0-0.46 0.04zm-4.21 2.43-2.88 1.66c-0.12 0.07-0.12 0.19 0 0.27l3.33 1.92a0.5 0.5 0 0 0 0.46 0l2.88-1.66c0.12-0.07 0.11-0.19 0-0.27l-3.33-1.92a0.5 0.5 0 0 0-0.46 0.04zm-4.21 2.43-2.88 1.7c-0.12 0.07-0.11 0.19 0 0.27l3.33 1.92a0.5 0.5 0 0 0 0.46 0l2.88-1.66c0.12-0.07 0.11-0.19 0-0.27l-3.33-1.92a0.5 0.5 0 0 0-0.46-0.04zm21.52 3 2.88-1.66c0.12-0.07 0.12-0.19 0-0.27l-3.33-1.92a0.5 0.5 0 0 0-0.46 0l-2.88 1.66c-0.13 0.07-0.12 0.19 0 0.27l3.33 1.92a0.5 0.5 0 0 0 0.46 0zm37-36.73-2.88 1.66c-0.13 0.07-0.12 0.19 0 0.27l3.33 1.92a0.53 0.53 0 0 0 0.46 0l2.88-1.66c0.12-0.08 0.12-0.19 0-0.27l-3.33-1.92a0.5 0.5 0 0 0-0.48 0zm-5.1 2.94-2.88 1.66c-0.12 0.07-0.12 0.19 0 0.27l3.33 1.92a0.5 0.5 0 0 0 0.46 0l2.88-1.66c0.12-0.07 0.11-0.19 0-0.27l-3.33-1.92a0.5 0.5 0 0 0-0.48 0zm9.31-5.37-2.88 1.66c-0.13 0.07-0.12 0.19 0 0.27l3.33 1.92a0.53 0.53 0 0 0 0.46 0l2.88-1.67c0.12-0.07 0.12-0.18 0-0.26l-3.33-1.92a0.5 0.5 0 0 0-0.48 0zm-21.81 22.47 2.88-1.67c0.12-0.07 0.11-0.18 0-0.26l-3.33-1.92a0.5 0.5 0 0 0-0.46 0l-2.89 1.65c-0.12 0.07-0.12 0.19 0 0.27l3.34 1.92a0.53 0.53 0 0 0 0.46 0.01zm26.46-24.89a0.5 0.5 0 0 0-0.46 0l-2.88 1.66c-0.13 0.07-0.12 0.19 0 0.26l3.33 1.93a0.53 0.53 0 0 0 0.46 0l2.88-1.67c0.12-0.07 0.12-0.19 0-0.26zm-41.65 39.15 2.88-1.66c0.12-0.08 0.12-0.19 0-0.27l-3.33-1.92a0.5 0.5 0 0 0-0.46 0l-2.88 1.66c-0.13 0.07-0.12 0.19 0 0.27l3.33 1.92a0.53 0.53 0 0 0 0.46 0zm51.63-29.81 2.88-1.66c0.12-0.07 0.11-0.19 0-0.27l-3.33-1.92a0.5 0.5 0 0 0-0.46 0l-2.88 1.66c-0.12 0.07-0.11 0.19 0 0.27l3.33 1.92a0.5 0.5 0 0 0 0.46 0zm-9-0.31 2.88-1.67c0.12-0.07 0.12-0.19 0-0.26l-3.33-1.93a0.53 0.53 0 0 0-0.46 0l-2.88 1.67c-0.12 0.07-0.11 0.19 0 0.26l3.33 1.93a0.53 0.53 0 0 0 0.49 0zm3.74-6.29a0.53 0.53 0 0 0-0.46 0l-2.88 1.67c-0.12 0.07-0.11 0.19 0 0.26l3.36 1.91a0.5 0.5 0 0 0 0.46 0l2.88-1.66c0.12-0.07 0.12-0.19 0-0.26zm0.89-0.51 8.09 4.67a0.5 0.5 0 0 0 0.46 0l2.88-1.66c0.12-0.07 0.11-0.19 0-0.27l-8.09-4.67a0.53 0.53 0 0 0-0.46 0l-2.88 1.67c-0.11 0.07-0.1 0.19 0.03 0.26zm-9.74 5.35-2.88 1.66c-0.12 0.07-0.11 0.19 0 0.26l3.33 1.93a0.53 0.53 0 0 0 0.46 0l2.88-1.67c0.12-0.07 0.12-0.19 0-0.26l-3.33-1.92a0.5 0.5 0 0 0-0.46 0zm-31.68 18.29-2.88 1.71c-0.12 0.07-0.12 0.19 0 0.27l3.33 1.92a0.5 0.5 0 0 0 0.46 0l2.88-1.66c0.12-0.07 0.11-0.19 0-0.27l-3.33-1.92a0.5 0.5 0 0 0-0.46-0.03zm41.12-14.13a0.5 0.5 0 0 0 0.46 0l2.88-1.66c0.12-0.07 0.11-0.19 0-0.27l-3.33-1.92a0.5 0.5 0 0 0-0.46 0l-2.9 1.69c-0.12 0.07-0.11 0.19 0 0.27zm-36.91 11.7-2.88 1.66c-0.12 0.07-0.12 0.19 0 0.27l3.33 1.92a0.53 0.53 0 0 0 0.46 0l2.88-1.66c0.12-0.08 0.11-0.19 0-0.27l-3.33-1.92a0.5 0.5 0 0 0-0.46 0.02zm-31.56 27.85a0.5 0.5 0 0 0 0.46 0l2.88-1.66c0.12-0.07 0.12-0.19 0-0.27l-3.33-1.92a0.5 0.5 0 0 0-0.46 0l-2.88 1.66c-0.13 0.07-0.12 0.19 0 0.27zm-6.33-6-2.88 1.67c-0.12 0.07-0.12 0.19 0 0.26l3.33 1.92a0.5 0.5 0 0 0 0.46 0l2.88-1.66c0.12-0.07 0.11-0.19 0-0.26l-3.33-1.93a0.53 0.53 0 0 0-0.46 0.04zm11 3.54 2.88-1.66c0.12-0.07 0.12-0.19 0-0.27l-3.33-1.92a0.5 0.5 0 0 0-0.46 0l-2.86 1.69c-0.13 0.07-0.12 0.19 0 0.27l3.33 1.92a0.5 0.5 0 0 0 0.44 0.01zm4.21-2.43 2.88-1.66c0.12-0.07 0.12-0.19 0-0.27l-3.34-1.89a0.5 0.5 0 0 0-0.46 0l-2.88 1.66c-0.13 0.07-0.12 0.19 0 0.27l3.33 1.92a0.5 0.5 0 0 0 0.49 0.01zm4.21-2.43 2.88-1.66c0.12-0.07 0.12-0.19 0-0.27l-3.33-1.92a0.5 0.5 0 0 0-0.46 0l-2.88 1.66c-0.13 0.07-0.12 0.19 0 0.27l3.33 1.92a0.5 0.5 0 0 0 0.46 0.04zm-15.19-1.07-2.9 1.68c-0.12 0.07-0.12 0.18 0 0.26l3.33 1.92a0.5 0.5 0 0 0 0.46 0l2.88-1.66c0.12-0.07 0.11-0.19 0-0.27l-3.33-1.92a0.53 0.53 0 0 0-0.44-0.01zm4.21-2.43-2.88 1.66c-0.12 0.08-0.12 0.19 0 0.27l3.33 1.92a0.5 0.5 0 0 0 0.46 0l2.88-1.66c0.12-0.07 0.11-0.19 0-0.27l-3.33-1.92a0.53 0.53 0 0 0-0.48 0zm16.79-9.72-2.88 1.66c-0.12 0.07-0.12 0.19 0 0.27l3.38 1.9a0.5 0.5 0 0 0 0.46 0l2.88-1.66c0.12-0.07 0.11-0.19 0-0.27l-3.33-1.92a0.5 0.5 0 0 0-0.51 0.02zm-4.21 2.43-2.88 1.66c-0.12 0.07-0.12 0.19 0 0.27l3.33 1.92a0.5 0.5 0 0 0 0.46 0l2.88-1.66c0.12-0.07 0.11-0.19 0-0.27l-3.33-1.92a0.5 0.5 0 0 0-0.43 0zm8.42-4.86-2.88 1.66c-0.12 0.07-0.12 0.19 0 0.27l3.33 1.92a0.5 0.5 0 0 0 0.46 0l2.88-1.66c0.12-0.07 0.11-0.19 0-0.27l-3.33-1.92a0.5 0.5 0 0 0-0.43 0zm-16.84 9.72-2.88 1.66c-0.12 0.07-0.12 0.19 0 0.27l3.33 1.92a0.5 0.5 0 0 0 0.46 0l2.88-1.66c0.12-0.07 0.11-0.19 0-0.27l-3.33-1.92a0.5 0.5 0 0 0-0.43 0zm4.21-2.43-2.88 1.66c-0.12 0.07-0.12 0.19 0 0.27l3.33 1.92a0.5 0.5 0 0 0 0.46 0l2.88-1.66c0.12-0.07 0.11-0.19 0-0.27l-3.3-1.95a0.5 0.5 0 0 0-0.46 0zm-3.07 17.16 2.88-1.66c0.12-0.07 0.11-0.19 0-0.27l-3.33-1.92a0.5 0.5 0 0 0-0.46 0l-2.87 1.66c-0.12 0.07-0.12 0.19 0 0.27l3.33 1.92a0.5 0.5 0 0 0 0.48 0zm-24.71-2.5-3.33-1.92a0.53 0.53 0 0 0-0.46 0l-2.88 1.67c-0.12 0.07-0.11 0.18 0 0.26l3.33 1.92a0.5 0.5 0 0 0 0.46 0l2.88-1.66c0.2-0.07 0.2-0.19 0.03-0.27zm6.31 1.86-3.33-1.93a0.53 0.53 0 0 0-0.46 0l-4.43 2.56c-0.12 0.07-0.12 0.19 0 0.27l3.33 1.92a0.5 0.5 0 0 0 0.46 0l4.43-2.56c0.17-0.07 0.16-0.19 0.03-0.26zm-11.39-5.55-3.33-1.93a0.53 0.53 0 0 0-0.46 0l-3.54 2c-0.13 0.07-0.12 0.19 0 0.27l3.33 1.92a0.5 0.5 0 0 0 0.46 0l3.55-2.05c0.13-0.04 0.12-0.16-0.01-0.21zm2.72-1.57a0.53 0.53 0 0 0 0.46 0l2.88-1.67c0.12-0.07 0.11-0.19 0-0.26l-3.33-1.92a0.5 0.5 0 0 0-0.46 0l-2.88 1.66c-0.12 0.07-0.11 0.19 0 0.26zm14.56 9.22-3.33-1.92a0.5 0.5 0 0 0-0.46 0l-5.54 3.2c-0.13 0.07-0.12 0.19 0 0.26l3.33 1.93a0.53 0.53 0 0 0 0.46 0l5.54-3.2c0.15-0.07 0.14-0.19 0-0.27zm2.76 3.9-3.33-1.92a0.5 0.5 0 0 0-0.46 0l-3.54 2.05c-0.13 0.07-0.12 0.19 0 0.26l3.33 1.92a0.5 0.5 0 0 0 0.46 0l3.55-2c0.14-0.11 0.13-0.23 0-0.31zm14-31.21a0.53 0.53 0 0 0 0.46 0l2.88-1.67c0.12-0.07 0.12-0.19 0-0.26l-3.33-1.93a0.53 0.53 0 0 0-0.46 0l-2.88 1.67c-0.12 0.07-0.11 0.19 0 0.26zm-8.42 4.86a0.53 0.53 0 0 0 0.46 0l2.88-1.67c0.12-0.07 0.12-0.19 0-0.26l-3.33-1.92a0.5 0.5 0 0 0-0.46 0l-2.89 1.65c-0.12 0.07-0.11 0.19 0 0.26zm-18.69 10.8a0.53 0.53 0 0 0 0.46 0l2.88-1.67c0.12-0.07 0.11-0.19 0-0.26l-3.33-1.92a0.5 0.5 0 0 0-0.46 0l-2.88 1.66c-0.12 0.07-0.11 0.19 0 0.26zm22.88-13.21a0.53 0.53 0 0 0 0.46 0l2.88-1.67c0.12-0.07 0.12-0.19 0-0.26l-3.33-1.93a0.5 0.5 0 0 0-0.46 0l-2.88 1.66c-0.12 0.07-0.11 0.19 0 0.26zm-8.42 4.86a0.53 0.53 0 0 0 0.46 0l2.88-1.67c0.12-0.07 0.12-0.19 0-0.26l-3.33-1.92a0.5 0.5 0 0 0-0.46 0l-2.88 1.66c-0.12 0.07-0.11 0.19 0 0.26zm1 24.23a0.5 0.5 0 0 0-0.46 0l-4.43 2.55c-0.12 0.07-0.11 0.19 0 0.27l3.33 1.92a0.5 0.5 0 0 0 0.46 0l4.43-2.56c0.12-0.07 0.12-0.19 0-0.26zm-7-20.74a0.53 0.53 0 0 0 0.46 0l2.88-1.67c0.12-0.07 0.11-0.19 0-0.26l-3.33-1.93a0.53 0.53 0 0 0-0.46 0l-2.88 1.67c-0.12 0.07-0.11 0.19 0 0.26zm-4.21 2.43a0.53 0.53 0 0 0 0.46 0l2.88-1.67c0.12-0.07 0.11-0.19 0-0.26l-3.33-1.93a0.5 0.5 0 0 0-0.46 0l-2.88 1.66c-0.12 0.07-0.11 0.19 0 0.26zm89.22-26.71a0.47 0.47 0 0 0-0.46 0l-7.09 4.09c-0.12 0.07-0.12 0.19 0 0.26l3.34 1.93a0.51 0.51 0 0 0 0.45 0l7.09-4.1c0.13-0.07 0.12-0.19 0-0.26zm-9.31 5.37a0.5 0.5 0 0 0-0.46 0l-2.88 1.66c-0.12 0.07-0.11 0.19 0 0.27l3.33 1.92a0.5 0.5 0 0 0 0.46 0l2.88-1.66c0.12-0.07 0.11-0.19 0-0.27zm-57 31.55 2.88-1.66c0.12-0.08 0.11-0.19 0-0.27l-3.33-1.92a0.5 0.5 0 0 0-0.46 0l-2.88 1.66c-0.12 0.07-0.12 0.19 0 0.27l3.33 1.92a0.53 0.53 0 0 0 0.4-0.02zm48.6-26.69a0.5 0.5 0 0 0-0.46 0l-2.95 1.63c-0.12 0.07-0.11 0.19 0 0.27l3.33 1.92a0.5 0.5 0 0 0 0.46 0l2.88-1.66c0.12-0.07 0.11-0.19 0-0.27zm21.94-12.67a0.53 0.53 0 0 0-0.46 0l-2.89 1.64c-0.12 0.07-0.12 0.19 0 0.26l3.33 1.93a0.53 0.53 0 0 0 0.46 0l2.88-1.67c0.13-0.07 0.12-0.19 0-0.26zm7.54-0.5-8.09-4.67a0.5 0.5 0 0 0-0.46 0l-2.88 1.66c-0.12 0.07-0.12 0.19 0 0.27l8.08 4.67a0.53 0.53 0 0 0 0.46 0l2.88-1.67c0.12-0.09 0.12-0.18-0.05-0.28zm-45.21 22.25a0.53 0.53 0 0 0-0.46 0l-3.54 2.05c-0.13 0.07-0.12 0.19 0 0.26l3.33 1.93a0.53 0.53 0 0 0 0.46 0l3.55-2.05c0.12-0.07 0.11-0.19 0-0.27zm10.58-6.17a0.53 0.53 0 0 0-0.46 0l-4.44 2.56c-0.12 0.07-0.11 0.19 0 0.27l3.33 1.92a0.53 0.53 0 0 0 0.46 0l4.43-2.56c0.13-0.07 0.12-0.19 0-0.27zm-20.39 11.77a0.5 0.5 0 0 0-0.46 0l-23.71 13.69c-0.12 0.07-0.11 0.19 0 0.26l3.33 1.93a0.53 0.53 0 0 0 0.46 0l23.73-13.65c0.12-0.07 0.11-0.19 0-0.27zm-25 14.46a0.5 0.5 0 0 0-0.46 0l-3.54 2c-0.12 0.07-0.12 0.19 0 0.27l3.33 1.92a0.5 0.5 0 0 0 0.46 0l3.54-2.05c0.12-0.07 0.12-0.19 0-0.26zm29.88-17.23a0.5 0.5 0 0 0-0.46 0l-3.55 2c-0.12 0.07-0.11 0.19 0 0.27l3.33 1.92a0.5 0.5 0 0 0 0.46 0l3.54-2.05c0.13-0.07 0.12-0.18 0-0.26zm-34.75 20.05a0.5 0.5 0 0 0-0.46 0l-3.55 2c-0.12 0.07-0.11 0.19 0 0.26l3.33 1.93a0.53 0.53 0 0 0 0.46 0l3.55-2.05c0.12-0.07 0.11-0.19 0-0.27zm44.54-25.71a0.5 0.5 0 0 0-0.46 0l-3.55 2c-0.12 0.08-0.11 0.19 0 0.27l3.33 1.92a0.5 0.5 0 0 0 0.46 0l3.54-2c0.12-0.08 0.12-0.19 0-0.27zm15.06-8.7a0.5 0.5 0 0 0-0.46 0l-2.88 1.66c-0.12 0.07-0.11 0.19 0 0.27l3.33 1.92a0.5 0.5 0 0 0 0.46 0l2.88-1.66c0.12-0.07 0.11-0.19 0-0.27zm9.23-6.7 2.88-1.66c0.12-0.07 0.11-0.19 0-0.27l-3.33-1.92a0.5 0.5 0 0 0-0.46 0l-2.92 1.65c-0.12 0.07-0.12 0.19 0 0.27l3.33 1.92a0.5 0.5 0 0 0 0.46 0.01zm-18.83-0.12 2.88-1.67c0.13-0.07 0.12-0.18 0-0.26l-3.38-1.89a0.5 0.5 0 0 0-0.46 0l-2.88 1.66c-0.13 0.07-0.12 0.19 0 0.27l3.33 1.92a0.53 0.53 0 0 0 0.51-0.03zm-9.54 16.49 8.42-4.86c0.13-0.07 0.12-0.19 0-0.26l-3.33-1.93a0.53 0.53 0 0 0-0.46 0l-8.42 4.87c-0.12 0.07-0.12 0.19 0 0.26l3.33 1.91a0.48 0.48 0 0 0 0.42 0.01zm23.7-13.95a0.5 0.5 0 0 0 0.46 0l2.88-1.66c0.12-0.07 0.11-0.19 0-0.27l-3.33-1.92a0.5 0.5 0 0 0-0.46 0l-2.88 1.66c-0.12 0.07-0.12 0.19 0 0.27zm-4.3-2.74 2.84-1.62c0.12-0.07 0.11-0.19 0-0.27l-3.33-1.92a0.53 0.53 0 0 0-0.46 0l-2.91 1.61c-0.12 0.08-0.11 0.19 0 0.27l3.33 1.92a0.5 0.5 0 0 0 0.49 0.01zm-23.6 19.12 2.88-1.66c0.12-0.07 0.11-0.19 0-0.26l-3.33-1.93a0.53 0.53 0 0 0-0.46 0l-2.88 1.67c-0.12 0.07-0.12 0.19 0 0.26l3.34 1.92a0.5 0.5 0 0 0 0.41 0zm18.59-11a0.5 0.5 0 0 0 0.46 0l2.88-1.66c0.12-0.07 0.12-0.19 0-0.27l-3.33-1.92a0.53 0.53 0 0 0-0.46 0l-2.88 1.66c-0.12 0.08-0.11 0.19 0 0.27zm-39.68 23.16 2.88-1.67c0.12-0.07 0.11-0.19 0-0.26l-3.33-1.92a0.5 0.5 0 0 0-0.46 0l-2.88 1.66c-0.12 0.07-0.12 0.19 0 0.26l3.33 1.93a0.53 0.53 0 0 0 0.46 0zm4.21-2.43 2.88-1.67c0.12-0.07 0.11-0.19 0-0.26l-3.33-1.93a0.5 0.5 0 0 0-0.46 0l-2.88 1.66c-0.12 0.07-0.12 0.19 0 0.26l3.33 1.93a0.53 0.53 0 0 0 0.46 0.01zm-8.38 4.86 2.88-1.67c0.12-0.07 0.11-0.18 0-0.26l-3.33-1.92a0.5 0.5 0 0 0-0.46 0l-2.88 1.66c-0.12 0.07-0.12 0.19 0 0.27l3.33 1.92a0.53 0.53 0 0 0 0.46 0zm16.84-9.72 2.88-1.67c0.12-0.07 0.11-0.19 0-0.26l-3.33-1.93a0.53 0.53 0 0 0-0.46 0l-2.93 1.66c-0.12 0.07-0.12 0.19 0 0.26l3.33 1.93a0.53 0.53 0 0 0 0.47 0.01zm-4.25 2.39 2.88-1.67c0.12-0.07 0.11-0.19 0-0.26l-3.33-1.93a0.5 0.5 0 0 0-0.46 0l-2.88 1.66c-0.12 0.07-0.12 0.19 0 0.26l3.33 1.93a0.53 0.53 0 0 0 0.46 0.01zm8.42-4.87 2.88-1.66c0.12-0.07 0.11-0.19 0-0.26l-3.33-1.93a0.53 0.53 0 0 0-0.46 0l-2.9 1.72c-0.12 0.07-0.12 0.19 0 0.26l3.33 1.93a0.5 0.5 0 0 0 0.47-0.02zm19.26-35.95a0.51 0.51 0 0 0 0.45 0l2.89-1.67c0.12-0.07 0.11-0.18 0-0.26l-0.89-0.51a0.5 0.5 0 0 0-0.46 0l-2.88 1.66c-0.12 0.07-0.11 0.19 0 0.27zm-20.72 13.37a0.53 0.53 0 0 0 0.46 0l2.88-1.67c0.12-0.07 0.12-0.18 0-0.26l-3.34-1.92a0.48 0.48 0 0 0-0.45 0l-2.89 1.66c-0.12 0.07-0.11 0.19 0 0.27zm8.42-4.86a0.53 0.53 0 0 0 0.46 0l2.88-1.67c0.12-0.07 0.12-0.19 0-0.26l-3.31-1.87a0.5 0.5 0 0 0-0.46 0l-2.88 1.66c-0.12 0.07-0.11 0.19 0 0.26zm-13.56 7.83a0.53 0.53 0 0 0 0.46 0l2.88-1.67c0.12-0.07 0.12-0.19 0-0.26l-3.33-1.93a0.53 0.53 0 0 0-0.46 0l-2.88 1.67c-0.12 0.07-0.11 0.19 0 0.26zm9.35-5.4a0.53 0.53 0 0 0 0.46 0l2.88-1.67c0.12-0.07 0.12-0.19 0-0.26l-3.34-1.92a0.48 0.48 0 0 0-0.45 0l-2.9 1.73c-0.12 0.07-0.11 0.19 0 0.26zm-17.76 10.3a0.53 0.53 0 0 0 0.46 0l2.88-1.67c0.12-0.07 0.12-0.19 0-0.26l-3.34-1.91a0.5 0.5 0 0 0-0.46 0l-2.88 1.66c-0.12 0.07-0.11 0.19 0 0.26zm4.2-2.42a0.53 0.53 0 0 0 0.46 0l2.88-1.67c0.12-0.07 0.12-0.19 0-0.26l-3.33-1.93a0.5 0.5 0 0 0-0.46 0l-2.88 1.66c-0.12 0.07-0.11 0.19 0 0.26zm21.65-13.91a0.5 0.5 0 0 0 0.46 0l2.88-1.66c0.12-0.07 0.11-0.19 0-0.27l-0.89-0.51a0.5 0.5 0 0 0-0.46 0l-2.88 1.66c-0.12 0.07-0.11 0.19 0 0.27zm12.63-7.29a0.51 0.51 0 0 0 0.45 0l2.89-1.67c0.12-0.07 0.11-0.19 0-0.26l-0.89-0.51a0.5 0.5 0 0 0-0.46 0l-2.9 1.64c-0.12 0.07-0.11 0.19 0 0.27zm7 4a0.53 0.53 0 0 0 0.46 0l2.88-1.67c0.12-0.07 0.12-0.19 0-0.26l-3.36-1.87a0.48 0.48 0 0 0-0.45 0l-2.88 1.66c-0.13 0.07-0.12 0.19 0 0.26zm10.52 10.71 2.88-1.66c0.12-0.08 0.11-0.19 0-0.27l-3.33-1.92a0.5 0.5 0 0 0-0.46 0l-2.88 1.66c-0.12 0.07-0.12 0.19 0 0.27l3.33 1.92a0.5 0.5 0 0 0 0.46 0zm-25.94-9.86a0.51 0.51 0 0 0 0.45 0l2.89-1.65c0.12-0.08 0.11-0.19 0-0.27l-0.89-0.51a0.5 0.5 0 0 0-0.46 0l-2.88 1.66c-0.12 0.07-0.11 0.19 0 0.27zm-34.28 21.2a0.53 0.53 0 0 0 0.46 0l2.88-1.67c0.12-0.07 0.12-0.19 0-0.26l-3.35-1.92a0.5 0.5 0 0 0-0.46 0l-2.88 1.66c-0.12 0.07-0.11 0.19 0 0.26z" fill="#6da5ea"/><path d="m367.75 299.25 2.88-1.66c0.13-0.08 0.12-0.19 0-0.27l-3.33-1.92a0.5 0.5 0 0 0-0.46 0l-2.84 1.65c-0.13 0.07-0.12 0.19 0 0.27l3.33 1.92a0.53 0.53 0 0 0 0.42 0.01zm-5.68-6.61-2.88 1.66c-0.12 0.07-0.12 0.19 0 0.27l3.33 1.92a0.5 0.5 0 0 0 0.46 0l2.88-1.66c0.12-0.07 0.11-0.19 0-0.27l-3.33-1.92a0.5 0.5 0 0 0-0.46 0zm-9.31 5.36-4.87 2.82c-0.12 0.07-0.12 0.19 0 0.26l3.33 1.93a0.53 0.53 0 0 0 0.46 0l4.87-2.82c0.12-0.07 0.12-0.19 0-0.26l-3.33-1.93a0.53 0.53 0 0 0-0.46 0zm5.1-2.94-2.86 1.67c-0.12 0.07-0.12 0.19 0 0.27l3.33 1.92a0.5 0.5 0 0 0 0.46 0l2.88-1.66c0.12-0.07 0.11-0.19 0-0.27l-3.33-1.92a0.5 0.5 0 0 0-0.48 0zm-11.3 6.53-2.88 1.66c-0.12 0.07-0.12 0.19 0 0.26l3.33 1.93a0.53 0.53 0 0 0 0.46 0l2.88-1.67c0.12-0.07 0.11-0.19 0-0.26l-3.35-1.91a0.5 0.5 0 0 0-0.44 0zm-4.21 2.41-2.88 1.66c-0.12 0.07-0.12 0.19 0 0.26l3.33 1.93a0.53 0.53 0 0 0 0.46 0l2.88-1.67c0.12-0.07 0.11-0.19 0-0.26l-3.33-1.92a0.5 0.5 0 0 0-0.46 0zm13.1 7.82 2.88-1.67c0.12-0.07 0.12-0.19 0-0.26l-3.33-1.89a0.48 0.48 0 0 0-0.45 0l-2.89 1.66c-0.12 0.07-0.11 0.19 0 0.26l3.33 1.93a0.53 0.53 0 0 0 0.46 0zm-4.21 2.43 2.88-1.67c0.12-0.07 0.12-0.19 0-0.26l-3.34-1.92a0.45 0.45 0 0 0-0.45 0l-2.89 1.66c-0.12 0.07-0.11 0.19 0 0.26l3.33 1.93a0.53 0.53 0 0 0 0.47 0.03zm-4.24 2.46 2.88-1.67c0.12-0.07 0.12-0.19 0-0.26l-3.34-1.92a0.48 0.48 0 0 0-0.45 0l-2.89 1.66c-0.12 0.07-0.11 0.19 0 0.26l3.33 1.93a0.53 0.53 0 0 0 0.47 0zm-4.21 2.43 2.88-1.67c0.12-0.07 0.12-0.19 0-0.26l-3.34-1.92a0.48 0.48 0 0 0-0.45 0l-2.88 1.65c-0.12 0.07-0.11 0.19 0 0.27l3.33 1.92a0.53 0.53 0 0 0 0.49 0.01zm20.72-17.46 2.88-1.66c0.13-0.07 0.12-0.19 0-0.27l-3.33-1.92a0.5 0.5 0 0 0-0.46 0l-2.88 1.66c-0.12 0.07-0.12 0.19 0 0.27l3.33 1.92a0.5 0.5 0 0 0 0.49 0zm-3.88 7.74 6.43-3.71c0.12-0.08 0.11-0.19 0-0.27l-8.06-4.67a0.5 0.5 0 0 0-0.46 0l-3.32 1.92c-0.12 0.07-0.12 0.19 0 0.26l4.29 2.48c0.13 0.07 0.14 0.19 0 0.26l-2.66 1.54c-0.12 0.07-0.11 0.19 0 0.26l3.33 1.93a0.53 0.53 0 0 0 0.48 0zm-21.52-3-2.88 1.66c-0.12 0.07-0.12 0.19 0 0.26l3.33 1.93a0.53 0.53 0 0 0 0.46 0l2.88-1.67c0.12-0.07 0.11-0.19 0-0.26l-3.33-1.92a0.5 0.5 0 0 0-0.43 0.04zm-4.21 2.43-2.88 1.66c-0.12 0.07-0.12 0.19 0 0.27l3.33 1.92a0.53 0.53 0 0 0 0.46 0l2.88-1.67c0.12-0.07 0.11-0.18 0-0.26l-3.33-1.92a0.5 0.5 0 0 0-0.43 0.04zm-21 27.25a0.5 0.5 0 0 0 0.46 0l2.88-1.66c0.12-0.07 0.12-0.19 0-0.27l-3.33-1.92a0.5 0.5 0 0 0-0.46 0l-2.9 1.75c-0.13 0.07-0.12 0.19 0 0.27zm-12.64-7.81-2.89 1.71c-0.12 0.08-0.11 0.19 0 0.27l3.33 1.92a0.5 0.5 0 0 0 0.46 0l2.88-1.66c0.12-0.07 0.11-0.19 0-0.27l-3.33-1.92a0.53 0.53 0 0 0-0.46-0.01zm6.74 5.71a0.5 0.5 0 0 0 0.46 0l2.88-1.66c0.12-0.07 0.11-0.19 0-0.26l-3.34-1.89a0.53 0.53 0 0 0-0.46 0l-2.88 1.67c-0.12 0.07-0.12 0.19 0 0.26zm13.3 3.59 2.88-1.66c0.12-0.07 0.11-0.19 0-0.27l-3.33-1.92a0.5 0.5 0 0 0-0.46 0l-2.88 1.66c-0.12 0.07-0.12 0.19 0 0.27l3.33 1.92a0.5 0.5 0 0 0 0.49 0.03zm-4.64 2.41a0.5 0.5 0 0 0 0.46 0l2.88-1.66c0.12-0.07 0.11-0.19 0-0.27l-3.33-1.92a0.5 0.5 0 0 0-0.46 0l-2.88 1.66c-0.12 0.07-0.12 0.19 0 0.27zm-11.2-14.14-2.88 1.66c-0.12 0.07-0.11 0.19 0 0.27l3.33 1.92a0.5 0.5 0 0 0 0.46 0l2.88-1.66c0.12-0.07 0.11-0.19 0-0.27l-3.33-1.92a0.5 0.5 0 0 0-0.46 0.04zm21.05-12.15-2.88 1.66c-0.12 0.07-0.12 0.19 0 0.27l3.37 1.96a0.5 0.5 0 0 0 0.46 0l2.88-1.66c0.12-0.07 0.11-0.19 0-0.27l-3.34-1.91a0.5 0.5 0 0 0-0.49-0.01zm-16.84 9.72-2.88 1.66c-0.12 0.07-0.11 0.19 0 0.27l3.33 1.92a0.5 0.5 0 0 0 0.46 0l2.88-1.66c0.12-0.07 0.11-0.19 0-0.27l-3.33-1.92a0.5 0.5 0 0 0-0.46 0.04zm21.05-12.15-2.88 1.72c-0.12 0.07-0.12 0.19 0 0.27l3.33 1.92a0.53 0.53 0 0 0 0.46 0l2.88-1.66c0.12-0.08 0.11-0.19 0-0.27l-3.33-1.92a0.5 0.5 0 0 0-0.46-0.02zm-8.42 4.86-2.88 1.66c-0.12 0.07-0.12 0.19 0 0.27l3.33 1.92a0.5 0.5 0 0 0 0.46 0l2.88-1.66c0.12-0.07 0.11-0.19 0-0.27l-3.33-1.92a0.5 0.5 0 0 0-0.46 0.04zm-4.21 2.43-2.88 1.66c-0.12 0.07-0.12 0.19 0 0.27l3.33 1.92a0.5 0.5 0 0 0 0.46 0l2.88-1.66c0.12-0.07 0.11-0.19 0-0.27l-3.33-1.92a0.5 0.5 0 0 0-0.46 0.04zm-4.21 2.43-2.88 1.7c-0.12 0.07-0.11 0.19 0 0.27l3.33 1.92a0.5 0.5 0 0 0 0.46 0l2.88-1.66c0.12-0.07 0.11-0.19 0-0.27l-3.33-1.92a0.5 0.5 0 0 0-0.46-0.04zm21.52 3 2.88-1.66c0.12-0.07 0.12-0.19 0-0.27l-3.33-1.92a0.5 0.5 0 0 0-0.46 0l-2.88 1.66c-0.13 0.07-0.12 0.19 0 0.27l3.33 1.92a0.5 0.5 0 0 0 0.46 0zm37-36.73-2.88 1.66c-0.13 0.07-0.12 0.19 0 0.27l3.33 1.92a0.53 0.53 0 0 0 0.46 0l2.88-1.66c0.12-0.08 0.12-0.19 0-0.27l-3.33-1.92a0.5 0.5 0 0 0-0.48 0zm-5.1 2.94-2.88 1.66c-0.12 0.07-0.12 0.19 0 0.27l3.33 1.92a0.5 0.5 0 0 0 0.46 0l2.88-1.66c0.12-0.07 0.11-0.19 0-0.27l-3.33-1.92a0.5 0.5 0 0 0-0.48 0zm9.31-5.37-2.88 1.66c-0.13 0.07-0.12 0.19 0 0.27l3.33 1.92a0.53 0.53 0 0 0 0.46 0l2.88-1.67c0.12-0.07 0.12-0.18 0-0.26l-3.33-1.92a0.5 0.5 0 0 0-0.48 0zm-21.81 22.47 2.88-1.67c0.12-0.07 0.11-0.18 0-0.26l-3.33-1.92a0.5 0.5 0 0 0-0.46 0l-2.89 1.65c-0.12 0.07-0.12 0.19 0 0.27l3.34 1.92a0.53 0.53 0 0 0 0.46 0.01zm26.46-24.89a0.5 0.5 0 0 0-0.46 0l-2.88 1.66c-0.13 0.07-0.12 0.19 0 0.26l3.33 1.93a0.53 0.53 0 0 0 0.46 0l2.88-1.67c0.12-0.07 0.12-0.19 0-0.26zm-41.65 39.15 2.88-1.66c0.12-0.08 0.12-0.19 0-0.27l-3.33-1.92a0.5 0.5 0 0 0-0.46 0l-2.88 1.66c-0.13 0.07-0.12 0.19 0 0.27l3.33 1.92a0.53 0.53 0 0 0 0.46 0zm51.63-29.81 2.88-1.66c0.12-0.07 0.11-0.19 0-0.27l-3.33-1.92a0.5 0.5 0 0 0-0.46 0l-2.88 1.66c-0.12 0.07-0.11 0.19 0 0.27l3.33 1.92a0.5 0.5 0 0 0 0.46 0zm-9-0.31 2.88-1.67c0.12-0.07 0.12-0.19 0-0.26l-3.33-1.93a0.53 0.53 0 0 0-0.46 0l-2.88 1.67c-0.12 0.07-0.11 0.19 0 0.26l3.33 1.93a0.53 0.53 0 0 0 0.49 0zm3.74-6.29a0.53 0.53 0 0 0-0.46 0l-2.88 1.67c-0.12 0.07-0.11 0.19 0 0.26l3.36 1.91a0.5 0.5 0 0 0 0.46 0l2.88-1.66c0.12-0.07 0.12-0.19 0-0.26zm0.89-0.51 8.09 4.67a0.5 0.5 0 0 0 0.46 0l2.88-1.66c0.12-0.07 0.11-0.19 0-0.27l-8.09-4.67a0.53 0.53 0 0 0-0.46 0l-2.88 1.67c-0.11 0.07-0.1 0.19 0.03 0.26zm-9.74 5.35-2.88 1.66c-0.12 0.07-0.11 0.19 0 0.26l3.33 1.93a0.53 0.53 0 0 0 0.46 0l2.88-1.67c0.12-0.07 0.12-0.19 0-0.26l-3.33-1.92a0.5 0.5 0 0 0-0.46 0zm-31.68 18.29-2.88 1.71c-0.12 0.07-0.12 0.19 0 0.27l3.33 1.92a0.5 0.5 0 0 0 0.46 0l2.88-1.66c0.12-0.07 0.11-0.19 0-0.27l-3.33-1.92a0.5 0.5 0 0 0-0.46-0.03zm41.12-14.13a0.5 0.5 0 0 0 0.46 0l2.88-1.66c0.12-0.07 0.11-0.19 0-0.27l-3.33-1.92a0.5 0.5 0 0 0-0.46 0l-2.9 1.69c-0.12 0.07-0.11 0.19 0 0.27zm-36.91 11.7-2.88 1.66c-0.12 0.07-0.12 0.19 0 0.27l3.33 1.92a0.53 0.53 0 0 0 0.46 0l2.88-1.66c0.12-0.08 0.11-0.19 0-0.27l-3.33-1.92a0.5 0.5 0 0 0-0.46 0.02zm-31.56 27.85a0.5 0.5 0 0 0 0.46 0l2.88-1.66c0.12-0.07 0.12-0.19 0-0.27l-3.33-1.92a0.5 0.5 0 0 0-0.46 0l-2.88 1.66c-0.13 0.07-0.12 0.19 0 0.27zm-6.33-6-2.88 1.67c-0.12 0.07-0.12 0.19 0 0.26l3.33 1.92a0.5 0.5 0 0 0 0.46 0l2.88-1.66c0.12-0.07 0.11-0.19 0-0.26l-3.33-1.93a0.53 0.53 0 0 0-0.46 0.04zm11 3.54 2.88-1.66c0.12-0.07 0.12-0.19 0-0.27l-3.33-1.92a0.5 0.5 0 0 0-0.46 0l-2.86 1.69c-0.13 0.07-0.12 0.19 0 0.27l3.33 1.92a0.5 0.5 0 0 0 0.44 0.01zm4.21-2.43 2.88-1.66c0.12-0.07 0.12-0.19 0-0.27l-3.34-1.89a0.5 0.5 0 0 0-0.46 0l-2.88 1.66c-0.13 0.07-0.12 0.19 0 0.27l3.33 1.92a0.5 0.5 0 0 0 0.49 0.01zm4.21-2.43 2.88-1.66c0.12-0.07 0.12-0.19 0-0.27l-3.33-1.92a0.5 0.5 0 0 0-0.46 0l-2.88 1.66c-0.13 0.07-0.12 0.19 0 0.27l3.33 1.92a0.5 0.5 0 0 0 0.46 0.04zm-15.19-1.07-2.9 1.68c-0.12 0.07-0.12 0.18 0 0.26l3.33 1.92a0.5 0.5 0 0 0 0.46 0l2.88-1.66c0.12-0.07 0.11-0.19 0-0.27l-3.33-1.92a0.53 0.53 0 0 0-0.44-0.01zm4.21-2.43-2.88 1.66c-0.12 0.08-0.12 0.19 0 0.27l3.33 1.92a0.5 0.5 0 0 0 0.46 0l2.88-1.66c0.12-0.07 0.11-0.19 0-0.27l-3.33-1.92a0.53 0.53 0 0 0-0.48 0zm16.79-9.72-2.88 1.66c-0.12 0.07-0.12 0.19 0 0.27l3.38 1.9a0.5 0.5 0 0 0 0.46 0l2.88-1.66c0.12-0.07 0.11-0.19 0-0.27l-3.33-1.92a0.5 0.5 0 0 0-0.51 0.02zm-4.21 2.43-2.88 1.66c-0.12 0.07-0.12 0.19 0 0.27l3.33 1.92a0.5 0.5 0 0 0 0.46 0l2.88-1.66c0.12-0.07 0.11-0.19 0-0.27l-3.33-1.92a0.5 0.5 0 0 0-0.43 0zm8.42-4.86-2.88 1.66c-0.12 0.07-0.12 0.19 0 0.27l3.33 1.92a0.5 0.5 0 0 0 0.46 0l2.88-1.66c0.12-0.07 0.11-0.19 0-0.27l-3.33-1.92a0.5 0.5 0 0 0-0.43 0zm-16.84 9.72-2.88 1.66c-0.12 0.07-0.12 0.19 0 0.27l3.33 1.92a0.5 0.5 0 0 0 0.46 0l2.88-1.66c0.12-0.07 0.11-0.19 0-0.27l-3.33-1.92a0.5 0.5 0 0 0-0.43 0zm4.21-2.43-2.88 1.66c-0.12 0.07-0.12 0.19 0 0.27l3.33 1.92a0.5 0.5 0 0 0 0.46 0l2.88-1.66c0.12-0.07 0.11-0.19 0-0.27l-3.3-1.95a0.5 0.5 0 0 0-0.46 0zm-3.07 17.16 2.88-1.66c0.12-0.07 0.11-0.19 0-0.27l-3.33-1.92a0.5 0.5 0 0 0-0.46 0l-2.87 1.66c-0.12 0.07-0.12 0.19 0 0.27l3.33 1.92a0.5 0.5 0 0 0 0.48 0zm-24.71-2.5-3.33-1.92a0.53 0.53 0 0 0-0.46 0l-2.88 1.67c-0.12 0.07-0.11 0.18 0 0.26l3.33 1.92a0.5 0.5 0 0 0 0.46 0l2.88-1.66c0.2-0.07 0.2-0.19 0.03-0.27zm6.31 1.86-3.33-1.93a0.53 0.53 0 0 0-0.46 0l-4.43 2.56c-0.12 0.07-0.12 0.19 0 0.27l3.33 1.92a0.5 0.5 0 0 0 0.46 0l4.43-2.56c0.17-0.07 0.16-0.19 0.03-0.26zm-11.39-5.55-3.33-1.93a0.53 0.53 0 0 0-0.46 0l-3.54 2c-0.13 0.07-0.12 0.19 0 0.27l3.33 1.92a0.5 0.5 0 0 0 0.46 0l3.55-2.05c0.13-0.04 0.12-0.16-0.01-0.21zm2.72-1.57a0.53 0.53 0 0 0 0.46 0l2.88-1.67c0.12-0.07 0.11-0.19 0-0.26l-3.33-1.92a0.5 0.5 0 0 0-0.46 0l-2.88 1.66c-0.12 0.07-0.11 0.19 0 0.26zm14.56 9.22-3.33-1.92a0.5 0.5 0 0 0-0.46 0l-5.54 3.2c-0.13 0.07-0.12 0.19 0 0.26l3.33 1.93a0.53 0.53 0 0 0 0.46 0l5.54-3.2c0.15-0.07 0.14-0.19 0-0.27zm2.76 3.9-3.33-1.92a0.5 0.5 0 0 0-0.46 0l-3.54 2.05c-0.13 0.07-0.12 0.19 0 0.26l3.33 1.92a0.5 0.5 0 0 0 0.46 0l3.55-2c0.14-0.11 0.13-0.23 0-0.31zm14-31.21a0.53 0.53 0 0 0 0.46 0l2.88-1.67c0.12-0.07 0.12-0.19 0-0.26l-3.33-1.93a0.53 0.53 0 0 0-0.46 0l-2.88 1.67c-0.12 0.07-0.11 0.19 0 0.26zm-8.42 4.86a0.53 0.53 0 0 0 0.46 0l2.88-1.67c0.12-0.07 0.12-0.19 0-0.26l-3.33-1.92a0.5 0.5 0 0 0-0.46 0l-2.89 1.65c-0.12 0.07-0.11 0.19 0 0.26zm-18.69 10.8a0.53 0.53 0 0 0 0.46 0l2.88-1.67c0.12-0.07 0.11-0.19 0-0.26l-3.33-1.92a0.5 0.5 0 0 0-0.46 0l-2.88 1.66c-0.12 0.07-0.11 0.19 0 0.26zm22.88-13.21a0.53 0.53 0 0 0 0.46 0l2.88-1.67c0.12-0.07 0.12-0.19 0-0.26l-3.33-1.93a0.5 0.5 0 0 0-0.46 0l-2.88 1.66c-0.12 0.07-0.11 0.19 0 0.26zm-8.42 4.86a0.53 0.53 0 0 0 0.46 0l2.88-1.67c0.12-0.07 0.12-0.19 0-0.26l-3.33-1.92a0.5 0.5 0 0 0-0.46 0l-2.88 1.66c-0.12 0.07-0.11 0.19 0 0.26zm1 24.23a0.5 0.5 0 0 0-0.46 0l-4.43 2.55c-0.12 0.07-0.11 0.19 0 0.27l3.33 1.92a0.5 0.5 0 0 0 0.46 0l4.43-2.56c0.12-0.07 0.12-0.19 0-0.26zm-7-20.74a0.53 0.53 0 0 0 0.46 0l2.88-1.67c0.12-0.07 0.11-0.19 0-0.26l-3.33-1.93a0.53 0.53 0 0 0-0.46 0l-2.88 1.67c-0.12 0.07-0.11 0.19 0 0.26zm-4.21 2.43a0.53 0.53 0 0 0 0.46 0l2.88-1.67c0.12-0.07 0.11-0.19 0-0.26l-3.33-1.93a0.5 0.5 0 0 0-0.46 0l-2.88 1.66c-0.12 0.07-0.11 0.19 0 0.26zm89.22-26.71a0.47 0.47 0 0 0-0.46 0l-7.09 4.09c-0.12 0.07-0.12 0.19 0 0.26l3.34 1.93a0.51 0.51 0 0 0 0.45 0l7.09-4.1c0.13-0.07 0.12-0.19 0-0.26zm-9.31 5.37a0.5 0.5 0 0 0-0.46 0l-2.88 1.66c-0.12 0.07-0.11 0.19 0 0.27l3.33 1.92a0.5 0.5 0 0 0 0.46 0l2.88-1.66c0.12-0.07 0.11-0.19 0-0.27zm-57 31.55 2.88-1.66c0.12-0.08 0.11-0.19 0-0.27l-3.33-1.92a0.5 0.5 0 0 0-0.46 0l-2.88 1.66c-0.12 0.07-0.12 0.19 0 0.27l3.33 1.92a0.53 0.53 0 0 0 0.4-0.02zm48.6-26.69a0.5 0.5 0 0 0-0.46 0l-2.95 1.63c-0.12 0.07-0.11 0.19 0 0.27l3.33 1.92a0.5 0.5 0 0 0 0.46 0l2.88-1.66c0.12-0.07 0.11-0.19 0-0.27zm21.94-12.67a0.53 0.53 0 0 0-0.46 0l-2.89 1.64c-0.12 0.07-0.12 0.19 0 0.26l3.33 1.93a0.53 0.53 0 0 0 0.46 0l2.88-1.67c0.13-0.07 0.12-0.19 0-0.26zm7.54-0.5-8.09-4.67a0.5 0.5 0 0 0-0.46 0l-2.88 1.66c-0.12 0.07-0.12 0.19 0 0.27l8.08 4.67a0.53 0.53 0 0 0 0.46 0l2.88-1.67c0.12-0.09 0.12-0.18-0.05-0.28zm-45.21 22.25a0.53 0.53 0 0 0-0.46 0l-3.54 2.05c-0.13 0.07-0.12 0.19 0 0.26l3.33 1.93a0.53 0.53 0 0 0 0.46 0l3.55-2.05c0.12-0.07 0.11-0.19 0-0.27zm10.58-6.17a0.53 0.53 0 0 0-0.46 0l-4.44 2.56c-0.12 0.07-0.11 0.19 0 0.27l3.33 1.92a0.53 0.53 0 0 0 0.46 0l4.43-2.56c0.13-0.07 0.12-0.19 0-0.27zm-20.39 11.77a0.5 0.5 0 0 0-0.46 0l-23.71 13.69c-0.12 0.07-0.11 0.19 0 0.26l3.33 1.93a0.53 0.53 0 0 0 0.46 0l23.73-13.65c0.12-0.07 0.11-0.19 0-0.27zm-25 14.46a0.5 0.5 0 0 0-0.46 0l-3.54 2c-0.12 0.07-0.12 0.19 0 0.27l3.33 1.92a0.5 0.5 0 0 0 0.46 0l3.54-2.05c0.12-0.07 0.12-0.19 0-0.26zm29.88-17.23a0.5 0.5 0 0 0-0.46 0l-3.55 2c-0.12 0.07-0.11 0.19 0 0.27l3.33 1.92a0.5 0.5 0 0 0 0.46 0l3.54-2.05c0.13-0.07 0.12-0.18 0-0.26zm-34.75 20.05a0.5 0.5 0 0 0-0.46 0l-3.55 2c-0.12 0.07-0.11 0.19 0 0.26l3.33 1.93a0.53 0.53 0 0 0 0.46 0l3.55-2.05c0.12-0.07 0.11-0.19 0-0.27zm44.54-25.71a0.5 0.5 0 0 0-0.46 0l-3.55 2c-0.12 0.08-0.11 0.19 0 0.27l3.33 1.92a0.5 0.5 0 0 0 0.46 0l3.54-2c0.12-0.08 0.12-0.19 0-0.27zm15.06-8.7a0.5 0.5 0 0 0-0.46 0l-2.88 1.66c-0.12 0.07-0.11 0.19 0 0.27l3.33 1.92a0.5 0.5 0 0 0 0.46 0l2.88-1.66c0.12-0.07 0.11-0.19 0-0.27zm9.23-6.7 2.88-1.66c0.12-0.07 0.11-0.19 0-0.27l-3.33-1.92a0.5 0.5 0 0 0-0.46 0l-2.92 1.65c-0.12 0.07-0.12 0.19 0 0.27l3.33 1.92a0.5 0.5 0 0 0 0.46 0.01zm-18.83-0.12 2.88-1.67c0.13-0.07 0.12-0.18 0-0.26l-3.38-1.89a0.5 0.5 0 0 0-0.46 0l-2.88 1.66c-0.13 0.07-0.12 0.19 0 0.27l3.33 1.92a0.53 0.53 0 0 0 0.51-0.03zm-9.54 16.49 8.42-4.86c0.13-0.07 0.12-0.19 0-0.26l-3.33-1.93a0.53 0.53 0 0 0-0.46 0l-8.42 4.87c-0.12 0.07-0.12 0.19 0 0.26l3.33 1.91a0.48 0.48 0 0 0 0.42 0.01zm23.7-13.95a0.5 0.5 0 0 0 0.46 0l2.88-1.66c0.12-0.07 0.11-0.19 0-0.27l-3.33-1.92a0.5 0.5 0 0 0-0.46 0l-2.88 1.66c-0.12 0.07-0.12 0.19 0 0.27zm-4.3-2.74 2.84-1.62c0.12-0.07 0.11-0.19 0-0.27l-3.33-1.92a0.53 0.53 0 0 0-0.46 0l-2.91 1.61c-0.12 0.08-0.11 0.19 0 0.27l3.33 1.92a0.5 0.5 0 0 0 0.49 0.01zm-23.6 19.12 2.88-1.66c0.12-0.07 0.11-0.19 0-0.26l-3.33-1.93a0.53 0.53 0 0 0-0.46 0l-2.88 1.67c-0.12 0.07-0.12 0.19 0 0.26l3.34 1.92a0.5 0.5 0 0 0 0.41 0zm18.59-11a0.5 0.5 0 0 0 0.46 0l2.88-1.66c0.12-0.07 0.12-0.19 0-0.27l-3.33-1.92a0.53 0.53 0 0 0-0.46 0l-2.88 1.66c-0.12 0.08-0.11 0.19 0 0.27zm-39.68 23.16 2.88-1.67c0.12-0.07 0.11-0.19 0-0.26l-3.33-1.92a0.5 0.5 0 0 0-0.46 0l-2.88 1.66c-0.12 0.07-0.12 0.19 0 0.26l3.33 1.93a0.53 0.53 0 0 0 0.46 0zm4.21-2.43 2.88-1.67c0.12-0.07 0.11-0.19 0-0.26l-3.33-1.93a0.5 0.5 0 0 0-0.46 0l-2.88 1.66c-0.12 0.07-0.12 0.19 0 0.26l3.33 1.93a0.53 0.53 0 0 0 0.46 0.01zm-8.38 4.86 2.88-1.67c0.12-0.07 0.11-0.18 0-0.26l-3.33-1.92a0.5 0.5 0 0 0-0.46 0l-2.88 1.66c-0.12 0.07-0.12 0.19 0 0.27l3.33 1.92a0.53 0.53 0 0 0 0.46 0zm16.84-9.72 2.88-1.67c0.12-0.07 0.11-0.19 0-0.26l-3.33-1.93a0.53 0.53 0 0 0-0.46 0l-2.93 1.66c-0.12 0.07-0.12 0.19 0 0.26l3.33 1.93a0.53 0.53 0 0 0 0.47 0.01zm-4.25 2.39 2.88-1.67c0.12-0.07 0.11-0.19 0-0.26l-3.33-1.93a0.5 0.5 0 0 0-0.46 0l-2.88 1.66c-0.12 0.07-0.12 0.19 0 0.26l3.33 1.93a0.53 0.53 0 0 0 0.46 0.01zm8.42-4.87 2.88-1.66c0.12-0.07 0.11-0.19 0-0.26l-3.33-1.93a0.53 0.53 0 0 0-0.46 0l-2.9 1.72c-0.12 0.07-0.12 0.19 0 0.26l3.33 1.93a0.5 0.5 0 0 0 0.47-0.02zm19.26-35.95a0.51 0.51 0 0 0 0.45 0l2.89-1.67c0.12-0.07 0.11-0.18 0-0.26l-0.89-0.51a0.5 0.5 0 0 0-0.46 0l-2.88 1.66c-0.12 0.07-0.11 0.19 0 0.27zm-20.72 13.37a0.53 0.53 0 0 0 0.46 0l2.88-1.67c0.12-0.07 0.12-0.18 0-0.26l-3.34-1.92a0.48 0.48 0 0 0-0.45 0l-2.89 1.66c-0.12 0.07-0.11 0.19 0 0.27zm8.42-4.86a0.53 0.53 0 0 0 0.46 0l2.88-1.67c0.12-0.07 0.12-0.19 0-0.26l-3.31-1.87a0.5 0.5 0 0 0-0.46 0l-2.88 1.66c-0.12 0.07-0.11 0.19 0 0.26zm-13.56 7.83a0.53 0.53 0 0 0 0.46 0l2.88-1.67c0.12-0.07 0.12-0.19 0-0.26l-3.33-1.93a0.53 0.53 0 0 0-0.46 0l-2.88 1.67c-0.12 0.07-0.11 0.19 0 0.26zm9.35-5.4a0.53 0.53 0 0 0 0.46 0l2.88-1.67c0.12-0.07 0.12-0.19 0-0.26l-3.34-1.92a0.48 0.48 0 0 0-0.45 0l-2.9 1.73c-0.12 0.07-0.11 0.19 0 0.26zm-17.76 10.3a0.53 0.53 0 0 0 0.46 0l2.88-1.67c0.12-0.07 0.12-0.19 0-0.26l-3.34-1.91a0.5 0.5 0 0 0-0.46 0l-2.88 1.66c-0.12 0.07-0.11 0.19 0 0.26zm4.2-2.42a0.53 0.53 0 0 0 0.46 0l2.88-1.67c0.12-0.07 0.12-0.19 0-0.26l-3.33-1.93a0.5 0.5 0 0 0-0.46 0l-2.88 1.66c-0.12 0.07-0.11 0.19 0 0.26zm21.65-13.91a0.5 0.5 0 0 0 0.46 0l2.88-1.66c0.12-0.07 0.11-0.19 0-0.27l-0.89-0.51a0.5 0.5 0 0 0-0.46 0l-2.88 1.66c-0.12 0.07-0.11 0.19 0 0.27zm12.63-7.29a0.51 0.51 0 0 0 0.45 0l2.89-1.67c0.12-0.07 0.11-0.19 0-0.26l-0.89-0.51a0.5 0.5 0 0 0-0.46 0l-2.9 1.64c-0.12 0.07-0.11 0.19 0 0.27zm7 4a0.53 0.53 0 0 0 0.46 0l2.88-1.67c0.12-0.07 0.12-0.19 0-0.26l-3.36-1.87a0.48 0.48 0 0 0-0.45 0l-2.88 1.66c-0.13 0.07-0.12 0.19 0 0.26zm10.52 10.71 2.88-1.66c0.12-0.08 0.11-0.19 0-0.27l-3.33-1.92a0.5 0.5 0 0 0-0.46 0l-2.88 1.66c-0.12 0.07-0.12 0.19 0 0.27l3.33 1.92a0.5 0.5 0 0 0 0.46 0zm-25.94-9.86a0.51 0.51 0 0 0 0.45 0l2.89-1.65c0.12-0.08 0.11-0.19 0-0.27l-0.89-0.51a0.5 0.5 0 0 0-0.46 0l-2.88 1.66c-0.12 0.07-0.11 0.19 0 0.27zm-34.28 21.2a0.53 0.53 0 0 0 0.46 0l2.88-1.67c0.12-0.07 0.12-0.19 0-0.26l-3.35-1.92a0.5 0.5 0 0 0-0.46 0l-2.88 1.66c-0.12 0.07-0.11 0.19 0 0.26z" fill="#455a64"/><path d="m353.45 331.12 28.43-16.41a3.39 3.39 0 0 1 3.1 0l16.3 9.41a1 1 0 0 1 0 1.79l-28.43 16.41a3.45 3.45 0 0 1-3.1 0l-16.3-9.41c-0.86-0.5-0.86-1.3 0-1.79z" fill="#6da5ea"/><path d="m353.45 331.12 28.43-16.41a3.39 3.39 0 0 1 3.1 0l16.3 9.41a1 1 0 0 1 0 1.79l-28.43 16.41a3.45 3.45 0 0 1-3.1 0l-16.3-9.41c-0.86-0.5-0.86-1.3 0-1.79z" fill="#263238"/><path d="m259.74 320.81a4.48 4.48 0 0 0 0.8 0.34 3.85 3.85 0 0 1-0.8-0.34 1.25 1.25 0 0 1-0.24-0.16 2 2 0 0 0 0.24 0.16z" fill="#6da5ea"/><path d="m264.27 321.05" fill="#6da5ea"/><path d="m268.38 301.86c0 1.21 0.86 1.71 1.91 1.1l87.71-50.62a4.21 4.21 0 0 0 1.91-3.31v-59.03l-91.5 52.82z" fill="#6da5ea"/><g opacity=".75"><path d="m268.38 301.86c0 1.21 0.86 1.71 1.91 1.1l87.71-50.62a4.21 4.21 0 0 0 1.91-3.31v-59.03l-91.5 52.82z" fill="#fff"/></g><path d="m268.38 238.83a4.25 4.25 0 0 1 1.91-3.32l87.71-50.62c1.06-0.61 1.91-0.11 1.91 1.11v4l-91.5 52.82z" fill="#6da5ea"/><g fill="#37474f"><path d="m349.12 192.07a2 2 0 0 0-0.9 1.56c0 0.57 0.4 0.8 0.9 0.51a2 2 0 0 0 0.89-1.55c-0.01-0.59-0.4-0.8-0.89-0.52z"/><path d="m352.26 190.26a2 2 0 0 0-0.9 1.56c0 0.57 0.4 0.8 0.9 0.52a2 2 0 0 0 0.89-1.56c0-0.57-0.4-0.78-0.89-0.52z"/><path d="m355.4 188.46a2 2 0 0 0-0.9 1.55c0 0.57 0.4 0.8 0.9 0.52a2 2 0 0 0 0.89-1.56c0-0.57-0.4-0.8-0.89-0.51z"/></g><g fill="#455a64"><path d="m298 249.39c0.18-0.11 0.33-0.11 0.42 0a0.81 0.81 0 0 1 0.21 0.34l1.37 5.7 1.38-7.29a2.8 2.8 0 0 1 0.2-0.57 1.06 1.06 0 0 1 0.43-0.48l2.31-1.33a0.23 0.23 0 0 1 0.31 0 0.53 0.53 0 0 1 0.13 0.41 1.06 1.06 0 0 1 0 0.24l-3 15a2.64 2.64 0 0 1-0.2 0.6 1 1 0 0 1-0.41 0.47l-2.15 1.18c-0.19 0.11-0.33 0.11-0.41 0a1.12 1.12 0 0 1-0.21-0.37l-1.32-5.25-1.32 6.77a4.82 4.82 0 0 1-0.2 0.61 0.92 0.92 0 0 1-0.41 0.46l-2.12 1.23c-0.19 0.1-0.32 0.11-0.42 0a0.8 0.8 0 0 1-0.19-0.38l-3-11.54a1.5 1.5 0 0 1 0-0.22 1.39 1.39 0 0 1 0.13-0.56 0.82 0.82 0 0 1 0.32-0.38l2.3-1.33c0.19-0.11 0.33-0.12 0.43 0a0.75 0.75 0 0 1 0.21 0.34l1.37 5.7 1.38-7.29a2.36 2.36 0 0 1 0.2-0.58 1 1 0 0 1 0.43-0.47z"/><path d="m315 239.56c0.18-0.11 0.32-0.12 0.42 0a0.75 0.75 0 0 1 0.21 0.34l1.37 5.7 1.38-7.29a2.87 2.87 0 0 1 0.2-0.58 1 1 0 0 1 0.43-0.47l2.31-1.33a0.24 0.24 0 0 1 0.31 0 0.55 0.55 0 0 1 0.13 0.41 1.1 1.1 0 0 1 0 0.25l-2.95 14.95a2.35 2.35 0 0 1-0.2 0.6 1 1 0 0 1-0.41 0.48l-2.12 1.22c-0.19 0.11-0.33 0.11-0.41 0a1.23 1.23 0 0 1-0.21-0.37l-1.32-5.25-1.33 6.78a5.41 5.41 0 0 1-0.2 0.61 1 1 0 0 1-0.41 0.46l-2.12 1.23c-0.19 0.1-0.32 0.1-0.42 0a0.8 0.8 0 0 1-0.19-0.38l-3-11.54a1.64 1.64 0 0 1 0-0.22 1.39 1.39 0 0 1 0.13-0.56 0.91 0.91 0 0 1 0.32-0.39l2.3-1.33c0.19-0.1 0.33-0.11 0.43 0a0.75 0.75 0 0 1 0.21 0.34l1.37 5.7 1.38-7.29a2.23 2.23 0 0 1 0.2-0.58 1 1 0 0 1 0.43-0.47z"/><path d="m332 229.73c0.19-0.11 0.33-0.12 0.43 0a0.75 0.75 0 0 1 0.21 0.34l1.37 5.7 1.38-7.29a2.36 2.36 0 0 1 0.2-0.58 1 1 0 0 1 0.43-0.47l2.3-1.33a0.25 0.25 0 0 1 0.32 0 0.55 0.55 0 0 1 0.13 0.41 1 1 0 0 1 0 0.24l-2.95 15a2.82 2.82 0 0 1-0.2 0.6 0.92 0.92 0 0 1-0.42 0.47l-2.11 1.18c-0.18 0.1-0.32 0.11-0.41 0a1.25 1.25 0 0 1-0.2-0.36l-1.32-5.25-1.32 6.77a4.69 4.69 0 0 1-0.2 0.6 1 1 0 0 1-0.41 0.47l-2.12 1.22c-0.19 0.11-0.33 0.11-0.42 0a0.92 0.92 0 0 1-0.2-0.38l-2.95-11.54a1.64 1.64 0 0 1 0-0.22 1.31 1.31 0 0 1 0.13-0.57 0.82 0.82 0 0 1 0.32-0.38l2.3-1.33c0.19-0.1 0.33-0.11 0.43 0a0.7 0.7 0 0 1 0.2 0.34l1.38 5.71 1.38-7.29a2.23 2.23 0 0 1 0.2-0.58 1.06 1.06 0 0 1 0.43-0.48z"/></g><polygon points="202.08 365.97 137.08 403.5 72.09 365.97 137.08 328.45" fill="#6da5ea"/><polygon points="202.08 365.97 137.08 403.5 72.09 365.97 137.08 328.45" opacity=".1"/><polygon points="137.09 403.49 137.08 398.81 76.15 363.63 72.09 365.97" opacity=".1"/><path d="m137.09 403.49v17.3a8.88 8.88 0 0 0 4.33-1l28.16-16.26 29.9-17.27a5.73 5.73 0 0 0 2.6-4.5v-15.76z" fill="#6da5ea"/><path d="m137.09 403.49v17.3a8.88 8.88 0 0 0 4.33-1l28.16-16.26 29.9-17.27a5.73 5.73 0 0 0 2.6-4.5v-15.76z" fill="#fff" opacity=".65"/><path d="m195.85 374.27-32.23 18.6a4.78 4.78 0 0 0-2.17 3.75v4.38c0 1.39 1 1.94 2.17 1.25l32.23-18.6a4.8 4.8 0 0 0 2.15-3.75v-4.38c0-1.38-1-1.94-2.15-1.25z" fill="#6da5ea"/><g fill="#fafafa"><path d="m195.73 378v2.12a1 1 0 0 1-0.43 0.75l-0.49 0.28c-0.24 0.14-0.43 0-0.43-0.25v-2.12a1 1 0 0 1 0.43-0.75l0.49-0.28c0.23-0.16 0.43-0.05 0.43 0.25z"/><path d="m193.54 379.24v2.12a0.93 0.93 0 0 1-0.43 0.75l-0.49 0.28c-0.24 0.14-0.43 0-0.43-0.25v-2.14a1 1 0 0 1 0.43-0.75l0.49-0.28c0.24-0.12 0.43 0.03 0.43 0.27z"/><path d="m191.35 380.5v2.12a0.93 0.93 0 0 1-0.43 0.75l-0.49 0.29c-0.24 0.13-0.43 0-0.43-0.25v-2.13a1 1 0 0 1 0.43-0.75l0.49-0.28c0.24-0.14 0.43-0.03 0.43 0.25z"/></g><path d="m189.16 381.76v2.13a1 1 0 0 1-0.43 0.75l-0.49 0.28c-0.24 0.14-0.43 0-0.43-0.25v-2.13a1 1 0 0 1 0.43-0.75l0.49-0.28c0.27-0.14 0.43-0.03 0.43 0.25z" fill="#455a64"/><path d="m187 383v2.13a1 1 0 0 1-0.44 0.75l-0.48 0.28c-0.24 0.14-0.44 0-0.44-0.25v-2.11a1 1 0 0 1 0.44-0.75l0.48-0.28a0.27 0.27 0 0 1 0.44 0.23z" fill="#455a64"/><g fill="#fafafa"><path d="m184.79 384.28v2.13a1 1 0 0 1-0.44 0.75l-0.48 0.28c-0.24 0.14-0.44 0-0.44-0.25v-2.12a0.94 0.94 0 0 1 0.44-0.75l0.48-0.29c0.24-0.13 0.44-0.03 0.44 0.25z"/><path d="m182.6 385.55v2.12a1 1 0 0 1-0.43 0.75l-0.49 0.28c-0.24 0.14-0.43 0-0.43-0.25v-2.12a1 1 0 0 1 0.43-0.75l0.49-0.28c0.23-0.14 0.43-0.03 0.43 0.25z"/><path d="m180.41 386.81v2.12a1 1 0 0 1-0.43 0.75l-0.49 0.28c-0.24 0.14-0.43 0-0.43-0.25v-2.12a1 1 0 0 1 0.43-0.75l0.49-0.28c0.24-0.14 0.43-0.03 0.43 0.25z"/><path d="m178.22 388.07v2.12a0.93 0.93 0 0 1-0.43 0.75l-0.49 0.29c-0.24 0.13-0.43 0-0.43-0.25v-2.13a1 1 0 0 1 0.43-0.75l0.49-0.28c0.21-0.14 0.43-0.03 0.43 0.25z"/><path d="m176 389.33v2.13a1 1 0 0 1-0.43 0.75l-0.49 0.28c-0.24 0.13-0.43 0-0.43-0.25v-2.13a1 1 0 0 1 0.43-0.75l0.49-0.28c0.27-0.14 0.43-0.03 0.43 0.25z"/><path d="m173.85 390.59v2.13a1 1 0 0 1-0.44 0.75l-0.49 0.28c-0.23 0.14-0.43 0-0.43-0.25v-2.13a1 1 0 0 1 0.43-0.75l0.49-0.28a0.27 0.27 0 0 1 0.44 0.25z"/><path d="m171.66 391.85v2.15a1 1 0 0 1-0.44 0.75l-0.48 0.28c-0.24 0.14-0.44 0-0.44-0.25v-2.13a1 1 0 0 1 0.44-0.75l0.48-0.28c0.24-0.15 0.44-0.04 0.44 0.23z"/></g><path d="m169.47 393.11v2.13a1 1 0 0 1-0.43 0.75l-0.49 0.28c-0.24 0.14-0.43 0-0.43-0.25v-2.12a0.93 0.93 0 0 1 0.43-0.75l0.49-0.29a0.27 0.27 0 0 1 0.43 0.25z" fill="#455a64"/><path d="m167.28 394.38v2.12a1 1 0 0 1-0.43 0.75l-0.49 0.28c-0.24 0.14-0.43 0-0.43-0.25v-2.12a1 1 0 0 1 0.43-0.75l0.49-0.28c0.24-0.13 0.43-0.03 0.43 0.25z" fill="#fafafa"/><path d="m165.09 395.64v2.12a0.93 0.93 0 0 1-0.43 0.75l-0.49 0.28c-0.24 0.14-0.43 0-0.43-0.25v-2.12a1 1 0 0 1 0.43-0.75l0.49-0.28c0.24-0.14 0.43-0.03 0.43 0.25z" fill="#fafafa"/><path d="m72.09 366v15.76a5.76 5.76 0 0 0 2.6 4.5l25.84 14.92 32.23 18.61a8.86 8.86 0 0 0 4.33 1v-17.3z" fill="#6da5ea"/><path d="m72.09 366v15.76a5.76 5.76 0 0 0 2.6 4.5l25.84 14.92 32.23 18.61a8.86 8.86 0 0 0 4.33 1v-17.3z" fill="#fff" opacity=".5"/><g opacity=".75"><path d="m82.37 376.63 16 9.23a4.78 4.78 0 0 1 2.17 3.75v4.39c0 1.38-1 1.94-2.17 1.25l-16-9.23a4.8 4.8 0 0 1-2.16-3.75v-4.38c0-1.39 0.97-1.95 2.16-1.26z" fill="#fff"/></g><path d="m84.43 381.57 1-0.57a1.34 1.34 0 0 1 1.33 0.14 4.18 4.18 0 0 1 1.88 3.26 1.3 1.3 0 0 1-0.55 1.21l-0.93 0.52-0.16-0.27a1.82 1.82 0 0 1-0.54-0.21 4.17 4.17 0 0 1-1.89-3.26 2.25 2.25 0 0 1 0.06-0.48z" fill="#6da5ea"/><path d="m84.43 381.57 1-0.57a1.34 1.34 0 0 1 1.33 0.14 4.18 4.18 0 0 1 1.88 3.26 1.3 1.3 0 0 1-0.55 1.21l-0.93 0.52-0.16-0.27a1.82 1.82 0 0 1-0.54-0.21 4.17 4.17 0 0 1-1.89-3.26 2.25 2.25 0 0 1 0.06-0.48z" opacity=".2"/><path d="m85.8 381.68a4.16 4.16 0 0 1 1.88 3.26c0 1.2-0.84 1.68-1.88 1.08a4.16 4.16 0 0 1-1.88-3.26c0-1.2 0.84-1.68 1.88-1.08z" fill="#6da5ea"/><path d="m92.6 386.28 1-0.57a1.32 1.32 0 0 1 1.32 0.13 4.17 4.17 0 0 1 1.89 3.26 1.33 1.33 0 0 1-0.55 1.22l-0.93 0.53-0.17-0.28a1.77 1.77 0 0 1-0.53-0.21 4.17 4.17 0 0 1-1.89-3.26 2.33 2.33 0 0 1 0.06-0.48z" fill="#6da5ea"/><path d="m92.6 386.28 1-0.57a1.32 1.32 0 0 1 1.32 0.13 4.17 4.17 0 0 1 1.89 3.26 1.33 1.33 0 0 1-0.55 1.22l-0.93 0.53-0.17-0.28a1.77 1.77 0 0 1-0.53-0.21 4.17 4.17 0 0 1-1.89-3.26 2.33 2.33 0 0 1 0.06-0.48z" opacity=".2"/><path d="m94 386.39a4.16 4.16 0 0 1 1.88 3.26c0 1.2-0.84 1.69-1.88 1.09a4.16 4.16 0 0 1-1.88-3.26c-0.03-1.2 0.81-1.69 1.88-1.09z" fill="#6da5ea"/><g opacity=".75"><path d="m82.37 376.63 16 9.23a4.78 4.78 0 0 1 2.17 3.75v4.39c0 1.38-1 1.94-2.17 1.25l-16-9.23a4.8 4.8 0 0 1-2.16-3.75v-4.38c0-1.39 0.97-1.95 2.16-1.26z" fill="#fff"/></g><path d="m84.43 381.57 1-0.57a1.34 1.34 0 0 1 1.33 0.14 4.18 4.18 0 0 1 1.88 3.26 1.3 1.3 0 0 1-0.55 1.21l-0.93 0.52-0.16-0.27a1.82 1.82 0 0 1-0.54-0.21 4.17 4.17 0 0 1-1.89-3.26 2.25 2.25 0 0 1 0.06-0.48z" fill="#6da5ea"/><path d="m84.43 381.57 1-0.57a1.34 1.34 0 0 1 1.33 0.14 4.18 4.18 0 0 1 1.88 3.26 1.3 1.3 0 0 1-0.55 1.21l-0.93 0.52-0.16-0.27a1.82 1.82 0 0 1-0.54-0.21 4.17 4.17 0 0 1-1.89-3.26 2.25 2.25 0 0 1 0.06-0.48z" opacity=".2"/><path d="m85.8 381.68a4.16 4.16 0 0 1 1.88 3.26c0 1.2-0.84 1.68-1.88 1.08a4.16 4.16 0 0 1-1.88-3.26c0-1.2 0.84-1.68 1.88-1.08z" fill="#6da5ea"/><path d="m92.6 386.28 1-0.57a1.32 1.32 0 0 1 1.32 0.13 4.17 4.17 0 0 1 1.89 3.26 1.33 1.33 0 0 1-0.55 1.22l-0.93 0.53-0.17-0.28a1.77 1.77 0 0 1-0.53-0.21 4.17 4.17 0 0 1-1.89-3.26 2.33 2.33 0 0 1 0.06-0.48z" fill="#6da5ea"/><path d="m92.6 386.28 1-0.57a1.32 1.32 0 0 1 1.32 0.13 4.17 4.17 0 0 1 1.89 3.26 1.33 1.33 0 0 1-0.55 1.22l-0.93 0.53-0.17-0.28a1.77 1.77 0 0 1-0.53-0.21 4.17 4.17 0 0 1-1.89-3.26 2.33 2.33 0 0 1 0.06-0.48z" opacity=".2"/><path d="m94 386.39a4.16 4.16 0 0 1 1.88 3.26c0 1.2-0.84 1.69-1.88 1.09a4.16 4.16 0 0 1-1.88-3.26c-0.03-1.2 0.81-1.69 1.88-1.09z" fill="#6da5ea"/><path d="m155.69 400.89-1-0.57a1.32 1.32 0 0 0-1.32 0.14 4.16 4.16 0 0 0-1.88 3.26 1.35 1.35 0 0 0 0.54 1.22l0.92 0.53 0.17-0.28a1.93 1.93 0 0 0 0.54-0.21 4.16 4.16 0 0 0 1.88-3.26 2.25 2.25 0 0 0-0.06-0.48z" fill="#6da5ea"/><path d="m155.69 400.89-1-0.57a1.32 1.32 0 0 0-1.32 0.14 4.16 4.16 0 0 0-1.88 3.26 1.35 1.35 0 0 0 0.54 1.22l0.92 0.53 0.17-0.28a1.93 1.93 0 0 0 0.54-0.21 4.16 4.16 0 0 0 1.88-3.26 2.25 2.25 0 0 0-0.06-0.48z" opacity=".4"/><path d="m154.32 401a4.16 4.16 0 0 0-1.88 3.26c0 1.2 0.84 1.68 1.88 1.08a4.16 4.16 0 0 0 1.88-3.26c0-1.2-0.84-1.68-1.88-1.08z" fill="#6da5ea"/><path d="m154.32 401a4.16 4.16 0 0 0-1.88 3.26c0 1.2 0.84 1.68 1.88 1.08a4.16 4.16 0 0 0 1.88-3.26c0-1.2-0.84-1.68-1.88-1.08z" opacity=".2"/><path d="m147.52 405.6-1-0.57a1.34 1.34 0 0 0-1.32 0.13 4.16 4.16 0 0 0-1.88 3.26 1.33 1.33 0 0 0 0.55 1.22l0.92 0.53 0.17-0.28a1.93 1.93 0 0 0 0.54-0.21 4.16 4.16 0 0 0 1.88-3.26 1.8 1.8 0 0 0-0.06-0.48z" fill="#6da5ea"/><path d="m147.52 405.6-1-0.57a1.34 1.34 0 0 0-1.32 0.13 4.16 4.16 0 0 0-1.88 3.26 1.33 1.33 0 0 0 0.55 1.22l0.92 0.53 0.17-0.28a1.93 1.93 0 0 0 0.54-0.21 4.16 4.16 0 0 0 1.88-3.26 1.8 1.8 0 0 0-0.06-0.48z" opacity=".4"/><path d="m146.15 405.71a4.16 4.16 0 0 0-1.88 3.26c0 1.2 0.84 1.69 1.88 1.09a4.16 4.16 0 0 0 1.85-3.26c0-1.2-0.81-1.69-1.85-1.09z" fill="#6da5ea"/><path d="m146.15 405.71a4.16 4.16 0 0 0-1.88 3.26c0 1.2 0.84 1.69 1.88 1.09a4.16 4.16 0 0 0 1.85-3.26c0-1.2-0.81-1.69-1.85-1.09z" opacity=".2"/><polygon points="202.08 337.83 137.08 375.35 72.09 337.83 137.08 300.31" fill="#6da5ea"/><polygon points="202.08 337.83 137.08 375.35 72.09 337.83 137.08 300.31" opacity=".1"/><polygon points="137.08 375.35 137.08 370.66 76.15 335.49 72.09 337.83" opacity=".1"/><polygon points="202.07 356.59 137.08 394.12 137.08 375.35 202.08 337.83" fill="#6da5ea"/><polygon points="202.07 356.59 137.08 394.12 137.08 375.35 202.08 337.83" fill="#fff" opacity=".65"/><path d="m195.85 346.13-32.23 18.61a4.78 4.78 0 0 0-2.17 3.75v4.38c0 1.38 1 1.94 2.17 1.25l32.23-18.61a4.8 4.8 0 0 0 2.16-3.75v-4.38c-0.01-1.38-1.01-1.94-2.16-1.25z" fill="#6da5ea"/><path d="m195.73 349.84v2.16a1 1 0 0 1-0.43 0.75l-0.49 0.29c-0.24 0.13-0.43 0-0.43-0.25v-2.13a1 1 0 0 1 0.43-0.75l0.49-0.28c0.23-0.18 0.43-0.07 0.43 0.21z" fill="#fafafa"/><path d="m193.54 351.1v2.13a1 1 0 0 1-0.43 0.75l-0.49 0.28c-0.24 0.14-0.43 0-0.43-0.25v-2.13a1 1 0 0 1 0.43-0.75l0.49-0.28c0.24-0.14 0.43-0.03 0.43 0.25z" fill="#455a64"/><path d="m191.35 352.36v2.13a1 1 0 0 1-0.43 0.75l-0.49 0.28c-0.24 0.14-0.43 0-0.43-0.25v-2.13a1 1 0 0 1 0.43-0.75l0.49-0.28c0.24-0.11 0.43-0.02 0.43 0.25z" fill="#fafafa"/><path d="m189.16 353.62v2.13a1 1 0 0 1-0.43 0.75l-0.49 0.28c-0.24 0.14-0.43 0-0.43-0.25v-2.12a0.93 0.93 0 0 1 0.43-0.75l0.49-0.29c0.27-0.13 0.43-0.02 0.43 0.25z" fill="#455a64"/><path d="m187 354.89v2.11a1 1 0 0 1-0.44 0.75l-0.48 0.28c-0.24 0.14-0.44 0-0.44-0.25v-2.12a1 1 0 0 1 0.44-0.75l0.48-0.28c0.22-0.13 0.44-0.02 0.44 0.26z" fill="#455a64"/><g fill="#fafafa"><path d="m184.79 356.15v2.12a1 1 0 0 1-0.44 0.75l-0.48 0.28c-0.24 0.14-0.44 0-0.44-0.25v-2.12a1 1 0 0 1 0.44-0.75l0.48-0.28c0.24-0.14 0.44-0.03 0.44 0.25z"/><path d="m182.6 357.41v2.12a1 1 0 0 1-0.43 0.75l-0.49 0.29c-0.24 0.13-0.43 0-0.43-0.25v-2.13a1 1 0 0 1 0.43-0.75l0.49-0.28c0.23-0.16 0.43-0.03 0.43 0.25z"/><path d="m180.41 358.67v2.13a1 1 0 0 1-0.43 0.75l-0.49 0.28c-0.24 0.13-0.43 0-0.43-0.25v-2.13a1 1 0 0 1 0.43-0.75l0.49-0.28c0.24-0.14 0.43-0.03 0.43 0.25z"/></g><path d="m178.22 359.93v2.13a1 1 0 0 1-0.43 0.75l-0.49 0.28c-0.24 0.14-0.43 0-0.43-0.25v-2.13a1 1 0 0 1 0.43-0.75l0.49-0.28c0.21-0.14 0.43-0.02 0.43 0.25z" fill="#455a64"/><path d="m176 361.19v2.13a1 1 0 0 1-0.43 0.75l-0.49 0.28c-0.24 0.14-0.43 0-0.43-0.25v-2.1a1 1 0 0 1 0.43-0.75l0.49-0.28c0.27-0.16 0.43-0.05 0.43 0.22z" fill="#fafafa"/><path d="m173.85 362.45v2.13a1 1 0 0 1-0.44 0.75l-0.49 0.28c-0.23 0.14-0.43 0-0.43-0.25v-2.12a1 1 0 0 1 0.43-0.75l0.49-0.29c0.24-0.13 0.44-0.02 0.44 0.25z" fill="#455a64"/><path d="m171.66 363.72v2.12a1 1 0 0 1-0.44 0.75l-0.48 0.28c-0.24 0.14-0.44 0-0.44-0.25v-2.12a1 1 0 0 1 0.44-0.75l0.48-0.28c0.24-0.14 0.44-0.03 0.44 0.25z" fill="#fafafa"/><path d="m169.47 365v2.12a1 1 0 0 1-0.43 0.75l-0.49 0.28c-0.24 0.14-0.43 0-0.43-0.25v-2.12a1 1 0 0 1 0.43-0.75l0.49-0.28c0.23-0.16 0.43-0.05 0.43 0.25z" fill="#455a64"/><path d="m167.28 366.24v2.12a0.93 0.93 0 0 1-0.43 0.75l-0.49 0.29c-0.24 0.13-0.43 0-0.43-0.25v-2.15a1 1 0 0 1 0.43-0.75l0.49-0.28c0.24-0.12 0.43 0.03 0.43 0.27z" fill="#fafafa"/><path d="m165.09 367.5v2.13a1 1 0 0 1-0.43 0.75l-0.49 0.28c-0.24 0.14-0.43 0-0.43-0.25v-2.13a1 1 0 0 1 0.43-0.75l0.49-0.28c0.24-0.14 0.43-0.03 0.43 0.25z" fill="#fafafa"/><polygon points="137.08 394.12 72.09 356.59 72.09 337.83 137.08 375.35" fill="#6da5ea"/><polygon points="137.08 394.12 72.09 356.59 72.09 337.83 137.08 375.35" fill="#fff" opacity=".5"/><g opacity=".75"><path d="m82.37 348.47 16 9.22a4.78 4.78 0 0 1 2.17 3.75v4.38c0 1.38-1 1.94-2.17 1.25l-16-9.22a4.8 4.8 0 0 1-2.16-3.75v-4.38c0-1.39 0.97-1.94 2.16-1.25z" fill="#fff"/></g><path d="m84.43 353.41 1-0.58a1.36 1.36 0 0 1 1.33 0.13 4.18 4.18 0 0 1 1.88 3.26 1.33 1.33 0 0 1-0.55 1.22l-0.93 0.53-0.16-0.28a1.82 1.82 0 0 1-0.54-0.21 4.17 4.17 0 0 1-1.89-3.26 2.42 2.42 0 0 1 0.06-0.48z" fill="#6da5ea"/><path d="m84.43 353.41 1-0.58a1.36 1.36 0 0 1 1.33 0.13 4.18 4.18 0 0 1 1.88 3.26 1.33 1.33 0 0 1-0.55 1.22l-0.93 0.53-0.16-0.28a1.82 1.82 0 0 1-0.54-0.21 4.17 4.17 0 0 1-1.89-3.26 2.42 2.42 0 0 1 0.06-0.48z" opacity=".2"/><path d="m85.8 353.51a4.16 4.16 0 0 1 1.88 3.26c0 1.2-0.84 1.69-1.88 1.09a4.16 4.16 0 0 1-1.88-3.26c0-1.2 0.84-1.69 1.88-1.09z" fill="#6da5ea"/><path d="m92.6 358.12 1-0.57a1.32 1.32 0 0 1 1.32 0.14 4.17 4.17 0 0 1 1.89 3.26 1.33 1.33 0 0 1-0.55 1.22l-0.93 0.53-0.17-0.28a1.77 1.77 0 0 1-0.53-0.21 4.17 4.17 0 0 1-1.89-3.26 2.25 2.25 0 0 1 0.06-0.48z" fill="#6da5ea"/><path d="m92.6 358.12 1-0.57a1.32 1.32 0 0 1 1.32 0.14 4.17 4.17 0 0 1 1.89 3.26 1.33 1.33 0 0 1-0.55 1.22l-0.93 0.53-0.17-0.28a1.77 1.77 0 0 1-0.53-0.21 4.17 4.17 0 0 1-1.89-3.26 2.25 2.25 0 0 1 0.06-0.48z" opacity=".2"/><path d="m94 358.23a4.16 4.16 0 0 1 1.88 3.26c0 1.2-0.84 1.68-1.88 1.08a4.16 4.16 0 0 1-1.88-3.26c-0.03-1.2 0.81-1.68 1.88-1.08z" fill="#6da5ea"/><polygon points="193.95 365.97 193.95 361.28 137.08 394.12 137.08 398.81" fill="#455a64"/><polygon points="76.15 358.94 76.15 363.63 137.08 398.81 137.08 394.12" fill="#6da5ea"/><polygon points="76.15 358.94 76.15 363.63 137.08 398.81 137.08 394.12" fill="#37474f"/><path d="m155.69 372.75-1-0.57a1.32 1.32 0 0 0-1.32 0.14 4.16 4.16 0 0 0-1.88 3.26 1.32 1.32 0 0 0 0.54 1.21l0.92 0.53 0.17-0.27a2.3 2.3 0 0 0 0.54-0.21 4.16 4.16 0 0 0 1.88-3.26 2.25 2.25 0 0 0-0.06-0.48z" fill="#6da5ea"/><path d="m155.69 372.75-1-0.57a1.32 1.32 0 0 0-1.32 0.14 4.16 4.16 0 0 0-1.88 3.26 1.32 1.32 0 0 0 0.54 1.21l0.92 0.53 0.17-0.27a2.3 2.3 0 0 0 0.54-0.21 4.16 4.16 0 0 0 1.88-3.26 2.25 2.25 0 0 0-0.06-0.48z" opacity=".4"/><path d="m154.32 372.86a4.14 4.14 0 0 0-1.88 3.25c0 1.21 0.84 1.69 1.88 1.09a4.16 4.16 0 0 0 1.88-3.26c0-1.2-0.84-1.68-1.88-1.08z" fill="#6da5ea"/><path d="m154.32 372.86a4.14 4.14 0 0 0-1.88 3.25c0 1.21 0.84 1.69 1.88 1.09a4.16 4.16 0 0 0 1.88-3.26c0-1.2-0.84-1.68-1.88-1.08z" opacity=".2"/><path d="m147.52 377.46-1-0.57a1.29 1.29 0 0 0-1.32 0.13 4.16 4.16 0 0 0-1.88 3.26 1.33 1.33 0 0 0 0.55 1.22l0.92 0.53 0.17-0.28a1.93 1.93 0 0 0 0.54-0.21 4.16 4.16 0 0 0 1.88-3.26 1.8 1.8 0 0 0-0.06-0.48z" fill="#6da5ea"/><path d="m147.52 377.46-1-0.57a1.29 1.29 0 0 0-1.32 0.13 4.16 4.16 0 0 0-1.88 3.26 1.33 1.33 0 0 0 0.55 1.22l0.92 0.53 0.17-0.28a1.93 1.93 0 0 0 0.54-0.21 4.16 4.16 0 0 0 1.88-3.26 1.8 1.8 0 0 0-0.06-0.48z" opacity=".4"/><path d="m146.15 377.57a4.16 4.16 0 0 0-1.88 3.26c0 1.2 0.84 1.69 1.88 1.09a4.16 4.16 0 0 0 1.88-3.26c-0.03-1.2-0.84-1.66-1.88-1.09z" fill="#6da5ea"/><path d="m146.15 377.57a4.16 4.16 0 0 0-1.88 3.26c0 1.2 0.84 1.69 1.88 1.09a4.16 4.16 0 0 0 1.88-3.26c-0.03-1.2-0.84-1.66-1.88-1.09z" opacity=".2"/><polygon points="202.08 309.69 137.08 347.21 72.09 309.69 137.08 272.16" fill="#6da5ea"/><polygon points="202.08 309.69 137.08 347.21 72.09 309.69 137.08 272.16" opacity=".1"/><polygon points="137.08 347.21 137.08 342.52 76.15 307.34 72.09 309.69" opacity=".1"/><polygon points="202.07 328.45 137.08 365.97 137.08 347.21 202.08 309.69" fill="#6da5ea"/><polygon points="202.07 328.45 137.08 365.97 137.08 347.21 202.08 309.69" fill="#fff" opacity=".65"/><path d="m195.85 318-32.23 18.61a4.78 4.78 0 0 0-2.17 3.75v4.38c0 1.38 1 1.94 2.17 1.25l32.23-18.61a4.8 4.8 0 0 0 2.16-3.75v-4.38c-0.01-1.42-1.01-1.98-2.16-1.25z" fill="#6da5ea"/><g fill="#fafafa"><path d="m195.73 321.67v2.13a1 1 0 0 1-0.43 0.75l-0.49 0.28c-0.24 0.13-0.43 0-0.43-0.25v-2.13a1 1 0 0 1 0.43-0.75l0.49-0.28c0.23-0.14 0.43-0.03 0.43 0.25z"/><path d="m193.54 322.93v2.13a1 1 0 0 1-0.43 0.75l-0.49 0.28c-0.24 0.14-0.43 0-0.43-0.25v-2.13a1 1 0 0 1 0.43-0.75l0.49-0.28c0.24-0.14 0.43-0.02 0.43 0.25z"/><path d="m191.35 324.19v2.13a1 1 0 0 1-0.43 0.75l-0.49 0.28c-0.24 0.14-0.43 0-0.43-0.25v-2.1a1 1 0 0 1 0.43-0.75l0.49-0.28c0.24-0.16 0.43-0.05 0.43 0.22z"/><path d="m189.16 325.45v2.13a1 1 0 0 1-0.43 0.75l-0.49 0.28c-0.24 0.14-0.43 0-0.43-0.25v-2.12a0.93 0.93 0 0 1 0.43-0.75l0.49-0.29c0.27-0.13 0.43-0.02 0.43 0.25z"/></g><path d="m187 326.72v2.12a1 1 0 0 1-0.44 0.75l-0.48 0.28c-0.24 0.14-0.44 0-0.44-0.25v-2.12a1 1 0 0 1 0.44-0.75l0.48-0.28c0.22-0.14 0.44-0.03 0.44 0.25z" fill="#455a64"/><path d="m184.79 328v2.12a0.94 0.94 0 0 1-0.44 0.75l-0.48 0.28c-0.24 0.14-0.44 0-0.44-0.25v-2.12a1 1 0 0 1 0.44-0.75l0.48-0.28c0.24-0.16 0.44-0.05 0.44 0.25z" fill="#455a64"/><g fill="#fafafa"><path d="m182.6 329.24v2.12a1 1 0 0 1-0.43 0.75l-0.49 0.29c-0.24 0.13-0.43 0-0.43-0.25v-2.15a1 1 0 0 1 0.43-0.75l0.49-0.28c0.23-0.12 0.43 0.03 0.43 0.27z"/><path d="m180.41 330.5v2.13a1 1 0 0 1-0.43 0.75l-0.49 0.28c-0.24 0.14-0.43 0-0.43-0.25v-2.13a1 1 0 0 1 0.43-0.75l0.49-0.28c0.24-0.14 0.43-0.03 0.43 0.25z"/><path d="m178.22 331.76v2.13a1 1 0 0 1-0.43 0.75l-0.49 0.28c-0.24 0.14-0.43 0-0.43-0.25v-2.13a1 1 0 0 1 0.43-0.75l0.49-0.28c0.21-0.14 0.43-0.02 0.43 0.25z"/></g><path d="m176 333v2.13a1 1 0 0 1-0.43 0.75l-0.49 0.28c-0.24 0.14-0.43 0-0.43-0.25v-2.12a0.93 0.93 0 0 1 0.43-0.75l0.49-0.29c0.27-0.11 0.43 0 0.43 0.25z" fill="#455a64"/><path d="m173.85 334.29v2.12a1 1 0 0 1-0.44 0.75l-0.49 0.28c-0.23 0.14-0.43 0-0.43-0.25v-2.12a1 1 0 0 1 0.43-0.75l0.49-0.28c0.24-0.14 0.44-0.04 0.44 0.25z" fill="#fafafa"/><path d="m171.66 335.55v2.12a1 1 0 0 1-0.44 0.75l-0.48 0.28c-0.24 0.14-0.44 0-0.44-0.25v-2.12a1 1 0 0 1 0.44-0.75l0.48-0.28c0.24-0.14 0.44-0.03 0.44 0.25z" fill="#fafafa"/><path d="m169.47 336.81v2.12a1 1 0 0 1-0.43 0.75l-0.49 0.29c-0.24 0.13-0.43 0-0.43-0.25v-2.13a1 1 0 0 1 0.43-0.75l0.49-0.28c0.23-0.14 0.43-0.03 0.43 0.25z" fill="#455a64"/><path d="m167.28 338.07v2.13a1 1 0 0 1-0.43 0.75l-0.49 0.28c-0.24 0.13-0.43 0-0.43-0.25v-2.13a1 1 0 0 1 0.43-0.75l0.49-0.28c0.24-0.14 0.43-0.03 0.43 0.25z" fill="#fafafa"/><path d="m165.09 339.33v2.13a1 1 0 0 1-0.43 0.75l-0.49 0.28c-0.24 0.14-0.43 0-0.43-0.25v-2.13a1 1 0 0 1 0.43-0.75l0.49-0.28c0.24-0.14 0.43-0.02 0.43 0.25z" fill="#455a64"/><polygon points="137.08 365.97 72.09 328.45 72.09 309.69 137.08 347.21" fill="#6da5ea"/><polygon points="137.08 365.97 72.09 328.45 72.09 309.69 137.08 347.21" fill="#fff" opacity=".5"/><g opacity=".75"><path d="m82.37 320.32 16 9.23a4.76 4.76 0 0 1 2.17 3.75v4.38c0 1.38-1 1.94-2.17 1.25l-16-9.23a4.8 4.8 0 0 1-2.16-3.7v-4.38c0-1.43 0.97-1.99 2.16-1.3z" fill="#fff"/></g><path d="m84.43 325.26 1-0.57a1.34 1.34 0 0 1 1.33 0.14 4.18 4.18 0 0 1 1.88 3.26 1.3 1.3 0 0 1-0.55 1.21l-0.93 0.52-0.16-0.27a1.82 1.82 0 0 1-0.54-0.21 4.17 4.17 0 0 1-1.89-3.26 2.25 2.25 0 0 1 0.06-0.48z" fill="#6da5ea"/><path d="m84.43 325.26 1-0.57a1.34 1.34 0 0 1 1.33 0.14 4.18 4.18 0 0 1 1.88 3.26 1.3 1.3 0 0 1-0.55 1.21l-0.93 0.52-0.16-0.27a1.82 1.82 0 0 1-0.54-0.21 4.17 4.17 0 0 1-1.89-3.26 2.25 2.25 0 0 1 0.06-0.48z" opacity=".2"/><path d="m85.8 325.37a4.16 4.16 0 0 1 1.88 3.26c0 1.2-0.84 1.68-1.88 1.08a4.16 4.16 0 0 1-1.88-3.26c0-1.2 0.84-1.68 1.88-1.08z" fill="#6da5ea"/><path d="m92.6 330 1-0.57a1.32 1.32 0 0 1 1.32 0.13 4.17 4.17 0 0 1 1.89 3.26 1.33 1.33 0 0 1-0.55 1.22l-0.93 0.53-0.17-0.28a1.77 1.77 0 0 1-0.53-0.21 4.17 4.17 0 0 1-1.89-3.26 2.33 2.33 0 0 1 0.06-0.48z" fill="#6da5ea"/><path d="m92.6 330 1-0.57a1.32 1.32 0 0 1 1.32 0.13 4.17 4.17 0 0 1 1.89 3.26 1.33 1.33 0 0 1-0.55 1.22l-0.93 0.53-0.17-0.28a1.77 1.77 0 0 1-0.53-0.21 4.17 4.17 0 0 1-1.89-3.26 2.33 2.33 0 0 1 0.06-0.48z" opacity=".2"/><path d="m94 330.08a4.16 4.16 0 0 1 1.88 3.26c0 1.2-0.84 1.69-1.88 1.09a4.16 4.16 0 0 1-1.88-3.26c-0.03-1.17 0.81-1.69 1.88-1.09z" fill="#6da5ea"/><polygon points="193.95 337.83 193.95 333.14 137.08 365.97 137.08 370.66" fill="#455a64"/><polygon points="76.15 330.79 76.15 335.49 137.08 370.66 137.08 365.97" fill="#37474f"/><path d="m155.69 344.61-1-0.58a1.34 1.34 0 0 0-1.32 0.13 4.16 4.16 0 0 0-1.88 3.26 1.35 1.35 0 0 0 0.54 1.22l0.92 0.53 0.17-0.28a1.93 1.93 0 0 0 0.54-0.21 4.16 4.16 0 0 0 1.88-3.26 2.33 2.33 0 0 0-0.06-0.48z" fill="#6da5ea"/><path d="m155.69 344.61-1-0.58a1.34 1.34 0 0 0-1.32 0.13 4.16 4.16 0 0 0-1.88 3.26 1.35 1.35 0 0 0 0.54 1.22l0.92 0.53 0.17-0.28a1.93 1.93 0 0 0 0.54-0.21 4.16 4.16 0 0 0 1.88-3.26 2.33 2.33 0 0 0-0.06-0.48z" opacity=".4"/><path d="m154.32 344.71a4.16 4.16 0 0 0-1.88 3.26c0 1.2 0.84 1.69 1.88 1.09a4.16 4.16 0 0 0 1.88-3.26c0-1.2-0.84-1.69-1.88-1.09z" fill="#6da5ea"/><path d="m154.32 344.71a4.16 4.16 0 0 0-1.88 3.26c0 1.2 0.84 1.69 1.88 1.09a4.16 4.16 0 0 0 1.88-3.26c0-1.2-0.84-1.69-1.88-1.09z" opacity=".2"/><path d="m147.52 349.32-1-0.57a1.32 1.32 0 0 0-1.32 0.14 4.16 4.16 0 0 0-1.88 3.26 1.33 1.33 0 0 0 0.55 1.22l0.92 0.53 0.17-0.28a1.93 1.93 0 0 0 0.54-0.21 4.16 4.16 0 0 0 1.88-3.26 1.75 1.75 0 0 0-0.06-0.48z" fill="#6da5ea"/><path d="m147.52 349.32-1-0.57a1.32 1.32 0 0 0-1.32 0.14 4.16 4.16 0 0 0-1.88 3.26 1.33 1.33 0 0 0 0.55 1.22l0.92 0.53 0.17-0.28a1.93 1.93 0 0 0 0.54-0.21 4.16 4.16 0 0 0 1.88-3.26 1.75 1.75 0 0 0-0.06-0.48z" opacity=".4"/><path d="m146.15 349.43a4.16 4.16 0 0 0-1.88 3.26c0 1.2 0.84 1.68 1.88 1.08a4.16 4.16 0 0 0 1.88-3.26c-0.03-1.2-0.84-1.68-1.88-1.08z" fill="#6da5ea"/><path d="m146.15 349.43a4.16 4.16 0 0 0-1.88 3.26c0 1.2 0.84 1.68 1.88 1.08a4.16 4.16 0 0 0 1.88-3.26c-0.03-1.2-0.84-1.68-1.88-1.08z" opacity=".2"/><polygon points="202.08 281.55 137.08 319.07 72.09 281.55 137.08 244.02" fill="#6da5ea"/><polygon points="202.08 281.55 137.08 319.07 72.09 281.55 137.08 244.02" fill="#fff" opacity=".15"/><polygon points="202.08 281.55 137.08 319.07 72.09 281.55 137.08 244.02" opacity=".1"/><polygon points="137.08 314.39 137.08 319.07 72.09 281.55 76.15 279.21" opacity=".1"/><polygon points="202.07 300.31 137.08 337.83 137.08 319.07 202.08 281.55" fill="#6da5ea"/><polygon points="202.07 300.31 137.08 337.83 137.08 319.07 202.08 281.55" fill="#fff" opacity=".65"/><path d="m195.85 289.84-32.23 18.61a4.78 4.78 0 0 0-2.17 3.75v4.38c0 1.38 1 1.94 2.17 1.25l32.23-18.61a4.8 4.8 0 0 0 2.16-3.75v-4.38c-0.01-1.38-1.01-1.94-2.16-1.25z" fill="#6da5ea"/><path d="m195.73 293.55v2.12a1 1 0 0 1-0.43 0.75l-0.49 0.29c-0.24 0.13-0.43 0-0.43-0.25v-2.13a1 1 0 0 1 0.43-0.75l0.49-0.28c0.23-0.14 0.43-0.03 0.43 0.25z" fill="#fafafa"/><path d="m193.54 294.81v2.13a1 1 0 0 1-0.43 0.75l-0.49 0.28c-0.24 0.14-0.43 0-0.43-0.25v-2.13a1 1 0 0 1 0.43-0.75l0.49-0.28c0.24-0.14 0.43-0.03 0.43 0.25z" fill="#455a64"/><g fill="#fafafa"><path d="m191.35 296.07v2.13a1 1 0 0 1-0.43 0.75l-0.49 0.28c-0.24 0.14-0.43 0-0.43-0.25v-2.13a1 1 0 0 1 0.43-0.75l0.49-0.28c0.24-0.14 0.43-0.02 0.43 0.25z"/><path d="m189.16 297.33v2.13a1 1 0 0 1-0.43 0.75l-0.49 0.28c-0.24 0.14-0.43 0-0.43-0.25v-2.12a0.93 0.93 0 0 1 0.43-0.75l0.49-0.29c0.27-0.08 0.43-0.02 0.43 0.25z"/><path d="m187 298.6v2.12a1 1 0 0 1-0.44 0.75l-0.48 0.28c-0.24 0.14-0.44 0-0.44-0.25v-2.12a0.94 0.94 0 0 1 0.44-0.75l0.48-0.28c0.22-0.14 0.44-0.03 0.44 0.25z"/></g><path d="m184.79 299.86v2.14a1 1 0 0 1-0.44 0.75l-0.48 0.28c-0.24 0.14-0.44 0-0.44-0.25v-2.12a1 1 0 0 1 0.44-0.75l0.48-0.28c0.24-0.16 0.44-0.05 0.44 0.23z" fill="#455a64"/><path d="m182.6 301.12v2.12a1 1 0 0 1-0.43 0.75l-0.49 0.28c-0.24 0.14-0.43 0-0.43-0.25v-2.12a1 1 0 0 1 0.43-0.75l0.49-0.28c0.23-0.14 0.43-0.03 0.43 0.25z" fill="#455a64"/><path d="m180.41 302.38v2.13a1 1 0 0 1-0.43 0.75l-0.49 0.28c-0.24 0.13-0.43 0-0.43-0.25v-2.13a1 1 0 0 1 0.43-0.75l0.49-0.28c0.24-0.13 0.43-0.03 0.43 0.25z" fill="#fafafa"/><path d="m178.22 303.64v2.13a1 1 0 0 1-0.43 0.75l-0.49 0.28c-0.24 0.14-0.43 0-0.43-0.25v-2.13a1 1 0 0 1 0.43-0.75l0.49-0.28c0.21-0.14 0.43-0.02 0.43 0.25z" fill="#455a64"/><g fill="#fafafa"><path d="m176 304.9v2.1a1 1 0 0 1-0.43 0.75l-0.49 0.28c-0.24 0.14-0.43 0-0.43-0.25v-2.13a1 1 0 0 1 0.43-0.75l0.49-0.28c0.27-0.1 0.43 0.01 0.43 0.28z"/><path d="m173.85 306.16v2.13a1 1 0 0 1-0.44 0.75l-0.49 0.28c-0.23 0.14-0.43 0-0.43-0.25v-2.07a1 1 0 0 1 0.43-0.75l0.49-0.29c0.24-0.18 0.44-0.07 0.44 0.2z"/><path d="m171.66 307.43v2.12a1 1 0 0 1-0.44 0.75l-0.48 0.28c-0.24 0.14-0.44 0-0.44-0.25v-2.12a1 1 0 0 1 0.44-0.75l0.48-0.28c0.24-0.18 0.44-0.03 0.44 0.25z"/></g><path d="m169.47 308.69v2.12a1 1 0 0 1-0.43 0.75l-0.49 0.28c-0.24 0.14-0.43 0-0.43-0.25v-2.12a1 1 0 0 1 0.43-0.75l0.49-0.28c0.23-0.14 0.43-0.03 0.43 0.25z" fill="#455a64"/><path d="m167.28 310v2.12a0.93 0.93 0 0 1-0.43 0.75l-0.49 0.29c-0.24 0.13-0.43 0-0.43-0.25v-2.13a1 1 0 0 1 0.43-0.75l0.49-0.28c0.24-0.19 0.43-0.08 0.43 0.25z" fill="#fafafa"/><path d="m165.09 311.21v2.13a1 1 0 0 1-0.43 0.75l-0.49 0.28c-0.24 0.14-0.43 0-0.43-0.25v-2.12a1 1 0 0 1 0.43-0.75l0.49-0.28c0.24-0.15 0.43-0.04 0.43 0.24z" fill="#fafafa"/><polygon points="137.08 337.83 72.09 300.31 72.09 281.55 137.08 319.07" fill="#6da5ea"/><polygon points="137.08 337.83 72.09 300.31 72.09 281.55 137.08 319.07" fill="#fff" opacity=".5"/><g opacity=".75"><path d="m82.37 292.21 16 9.22a4.78 4.78 0 0 1 2.17 3.75v4.39c0 1.38-1 1.94-2.17 1.25l-16-9.23a4.8 4.8 0 0 1-2.16-3.75v-4.38c0-1.38 0.97-1.94 2.16-1.25z" fill="#fff"/></g><path d="m84.43 297.15 1-0.57a1.34 1.34 0 0 1 1.33 0.14 4.18 4.18 0 0 1 1.88 3.28 1.3 1.3 0 0 1-0.55 1.21l-0.93 0.53-0.16-0.27a2.15 2.15 0 0 1-0.54-0.21 4.17 4.17 0 0 1-1.89-3.26 2.43 2.43 0 0 1 0.06-0.49z" fill="#6da5ea"/><path d="m84.43 297.15 1-0.57a1.34 1.34 0 0 1 1.33 0.14 4.18 4.18 0 0 1 1.88 3.28 1.3 1.3 0 0 1-0.55 1.21l-0.93 0.53-0.16-0.27a2.15 2.15 0 0 1-0.54-0.21 4.17 4.17 0 0 1-1.89-3.26 2.43 2.43 0 0 1 0.06-0.49z" opacity=".2"/><path d="m85.8 297.26a4.14 4.14 0 0 1 1.88 3.25c0 1.2-0.84 1.69-1.88 1.09a4.16 4.16 0 0 1-1.88-3.26c0-1.2 0.84-1.68 1.88-1.08z" fill="#6da5ea"/><path d="m92.6 301.86 1-0.57a1.29 1.29 0 0 1 1.32 0.13 4.17 4.17 0 0 1 1.89 3.26 1.33 1.33 0 0 1-0.55 1.22l-0.93 0.53-0.17-0.28a1.77 1.77 0 0 1-0.53-0.21 4.17 4.17 0 0 1-1.89-3.26 2.25 2.25 0 0 1 0.06-0.48z" fill="#6da5ea"/><path d="m92.6 301.86 1-0.57a1.29 1.29 0 0 1 1.32 0.13 4.17 4.17 0 0 1 1.89 3.26 1.33 1.33 0 0 1-0.55 1.22l-0.93 0.53-0.17-0.28a1.77 1.77 0 0 1-0.53-0.21 4.17 4.17 0 0 1-1.89-3.26 2.25 2.25 0 0 1 0.06-0.48z" opacity=".2"/><path d="m94 302a4.16 4.16 0 0 1 1.88 3.26c0 1.2-0.84 1.69-1.88 1.09a4.16 4.16 0 0 1-1.88-3.26c-0.03-1.23 0.81-1.72 1.88-1.09z" fill="#6da5ea"/><polygon points="193.95 309.69 193.95 305 137.08 337.83 137.08 342.52" fill="#455a64"/><polygon points="76.15 302.65 76.15 307.34 137.08 342.52 137.08 337.83" fill="#37474f"/><path d="m155.69 316.46-1-0.57a1.29 1.29 0 0 0-1.32 0.13 4.16 4.16 0 0 0-1.88 3.26 1.35 1.35 0 0 0 0.54 1.22l0.92 0.53 0.17-0.28a1.93 1.93 0 0 0 0.54-0.21 4.16 4.16 0 0 0 1.88-3.26 2.33 2.33 0 0 0-0.06-0.48z" fill="#6da5ea"/><path d="m155.69 316.46-1-0.57a1.29 1.29 0 0 0-1.32 0.13 4.16 4.16 0 0 0-1.88 3.26 1.35 1.35 0 0 0 0.54 1.22l0.92 0.53 0.17-0.28a1.93 1.93 0 0 0 0.54-0.21 4.16 4.16 0 0 0 1.88-3.26 2.33 2.33 0 0 0-0.06-0.48z" opacity=".4"/><path d="m154.32 316.57a4.16 4.16 0 0 0-1.88 3.26c0 1.2 0.84 1.69 1.88 1.09a4.16 4.16 0 0 0 1.88-3.26c0-1.2-0.84-1.66-1.88-1.09z" fill="#6da5ea"/><path d="m154.32 316.57a4.16 4.16 0 0 0-1.88 3.26c0 1.2 0.84 1.69 1.88 1.09a4.16 4.16 0 0 0 1.88-3.26c0-1.2-0.84-1.66-1.88-1.09z" opacity=".2"/><path d="m147.52 321.18-1-0.58a1.32 1.32 0 0 0-1.32 0.14 4.16 4.16 0 0 0-1.88 3.26 1.31 1.31 0 0 0 0.55 1.21l0.92 0.53 0.17-0.28a1.93 1.93 0 0 0 0.54-0.21 4.14 4.14 0 0 0 1.88-3.26 1.86 1.86 0 0 0-0.06-0.48z" fill="#6da5ea"/><path d="m147.52 321.18-1-0.58a1.32 1.32 0 0 0-1.32 0.14 4.16 4.16 0 0 0-1.88 3.26 1.31 1.31 0 0 0 0.55 1.21l0.92 0.53 0.17-0.28a1.93 1.93 0 0 0 0.54-0.21 4.14 4.14 0 0 0 1.88-3.26 1.86 1.86 0 0 0-0.06-0.48z" opacity=".4"/><path d="m146.15 321.28a4.16 4.16 0 0 0-1.88 3.26c0 1.2 0.84 1.69 1.88 1.09a4.16 4.16 0 0 0 1.88-3.26c-0.03-1.2-0.84-1.69-1.88-1.09z" fill="#6da5ea"/><path d="m146.15 321.28a4.16 4.16 0 0 0-1.88 3.26c0 1.2 0.84 1.69 1.88 1.09a4.16 4.16 0 0 0 1.88-3.26c-0.03-1.2-0.84-1.69-1.88-1.09z" opacity=".2"/><path d="m74.69 251.91 59.83-34.52a5.74 5.74 0 0 1 5.2 0l59.76 34.52a5.76 5.76 0 0 1 2.6 4.5v15.76l-65.08 37.53-64.91-37.53v-15.76a5.77 5.77 0 0 1 2.6-4.5z" fill="#6da5ea"/><path d="m74.69 251.91 59.83-34.52a5.74 5.74 0 0 1 5.2 0l59.76 34.52a5.76 5.76 0 0 1 2.6 4.5v15.76l-65.08 37.53-64.91-37.53v-15.76a5.77 5.77 0 0 1 2.6-4.5z" fill="#fff" opacity=".5"/><g opacity=".75"><path d="m82.37 264 16 9.23a4.78 4.78 0 0 1 2.17 3.75v4.38c0 1.38-1 1.94-2.17 1.25l-16-9.23a4.8 4.8 0 0 1-2.16-3.75v-4.38c0-1.34 0.97-1.9 2.16-1.25z" fill="#fff"/></g><path d="m84.43 269 1-0.57a1.34 1.34 0 0 1 1.33 0.14 4.18 4.18 0 0 1 1.88 3.26 1.33 1.33 0 0 1-0.55 1.22l-0.93 0.53-0.16-0.28a1.82 1.82 0 0 1-0.54-0.21 4.17 4.17 0 0 1-1.89-3.26 2.25 2.25 0 0 1 0.06-0.48z" fill="#6da5ea"/><path d="m84.43 269 1-0.57a1.34 1.34 0 0 1 1.33 0.14 4.18 4.18 0 0 1 1.88 3.26 1.33 1.33 0 0 1-0.55 1.22l-0.93 0.53-0.16-0.28a1.82 1.82 0 0 1-0.54-0.21 4.17 4.17 0 0 1-1.89-3.26 2.25 2.25 0 0 1 0.06-0.48z" opacity=".2"/><path d="m85.8 269.09a4.16 4.16 0 0 1 1.88 3.26c0 1.2-0.84 1.68-1.88 1.08a4.16 4.16 0 0 1-1.88-3.26c0-1.17 0.84-1.68 1.88-1.08z" fill="#6da5ea"/><path d="m92.6 273.7 1-0.58a1.34 1.34 0 0 1 1.32 0.13 4.17 4.17 0 0 1 1.89 3.26 1.33 1.33 0 0 1-0.55 1.22l-0.93 0.53-0.17-0.28a1.77 1.77 0 0 1-0.53-0.21 4.17 4.17 0 0 1-1.89-3.26 2.42 2.42 0 0 1 0.06-0.48z" fill="#6da5ea"/><path d="m92.6 273.7 1-0.58a1.34 1.34 0 0 1 1.32 0.13 4.17 4.17 0 0 1 1.89 3.26 1.33 1.33 0 0 1-0.55 1.22l-0.93 0.53-0.17-0.28a1.77 1.77 0 0 1-0.53-0.21 4.17 4.17 0 0 1-1.89-3.26 2.42 2.42 0 0 1 0.06-0.48z" opacity=".2"/><path d="m94 273.8a4.16 4.16 0 0 1 1.88 3.26c0 1.2-0.84 1.69-1.88 1.09a4.16 4.16 0 0 1-1.88-3.26c-0.03-1.2 0.81-1.69 1.88-1.09z" fill="#6da5ea"/><path d="m137.05 290.05v19.64l65-37.52v-15.76a5.81 5.81 0 0 0-2.13-4.17c0.95 0.83 0.79 1.94-0.47 2.67l-59.83 34.52a5.31 5.31 0 0 1-2.57 0.62z" fill="#6da5ea"/><path d="m137.05 290.05v19.64l65-37.52v-15.76a5.81 5.81 0 0 0-2.13-4.17c0.95 0.83 0.79 1.94-0.47 2.67l-59.83 34.52a5.31 5.31 0 0 1-2.57 0.62z" fill="#fff" opacity=".65"/><path d="m195.85 261.69-32.23 18.61a4.78 4.78 0 0 0-2.17 3.75v4.38c0 1.38 1 1.94 2.17 1.25l32.23-18.6a4.8 4.8 0 0 0 2.16-3.75v-4.39c-0.01-1.38-1.01-1.94-2.16-1.25z" fill="#6da5ea"/><path d="m195.73 265.4v2.13a1 1 0 0 1-0.43 0.75l-0.49 0.28c-0.24 0.14-0.43 0-0.43-0.25v-2.12a0.93 0.93 0 0 1 0.43-0.75l0.49-0.29a0.27 0.27 0 0 1 0.43 0.25z" fill="#455a64"/><path d="m193.54 266.67v2.12a1 1 0 0 1-0.43 0.75l-0.49 0.28c-0.24 0.14-0.43 0-0.43-0.25v-2.12a1 1 0 0 1 0.43-0.75l0.49-0.28c0.24-0.14 0.43-0.03 0.43 0.25z" fill="#fafafa"/><g fill="#455a64"><path d="m191.35 267.93v2.12a1 1 0 0 1-0.43 0.75l-0.49 0.28c-0.24 0.14-0.43 0-0.43-0.25v-2.12a1 1 0 0 1 0.43-0.75l0.49-0.28c0.24-0.14 0.43-0.03 0.43 0.25z"/><path d="m189.16 269.19v2.12a0.93 0.93 0 0 1-0.43 0.75l-0.49 0.29c-0.24 0.13-0.43 0-0.43-0.25v-2.1a1 1 0 0 1 0.43-0.75l0.49-0.28c0.27-0.17 0.43-0.06 0.43 0.22z"/><path d="m187 270.45v2.13a1 1 0 0 1-0.44 0.75l-0.48 0.28a0.27 0.27 0 0 1-0.44-0.25v-2.13a1 1 0 0 1 0.44-0.75l0.48-0.28c0.22-0.14 0.44-0.03 0.44 0.25z"/></g><path d="m184.79 271.71v2.13a1 1 0 0 1-0.44 0.75l-0.48 0.28a0.27 0.27 0 0 1-0.44-0.25v-2.13a1 1 0 0 1 0.44-0.75l0.48-0.28a0.27 0.27 0 0 1 0.44 0.25z" fill="#fafafa"/><path d="m182.6 273v2.13a1 1 0 0 1-0.43 0.75l-0.49 0.28c-0.24 0.14-0.43 0-0.43-0.25v-2.12a0.93 0.93 0 0 1 0.43-0.75l0.49-0.29a0.27 0.27 0 0 1 0.43 0.25z" fill="#fafafa"/><path d="m180.41 274.24v2.12a1 1 0 0 1-0.43 0.75l-0.49 0.28c-0.24 0.14-0.43 0-0.43-0.25v-2.14a0.93 0.93 0 0 1 0.43-0.75l0.51-0.25c0.22-0.15 0.41 0 0.41 0.24z" fill="#455a64"/><path d="m178.22 275.5v2.12a1 1 0 0 1-0.43 0.75l-0.49 0.28c-0.24 0.14-0.43 0-0.43-0.25v-2.12a1 1 0 0 1 0.43-0.75l0.49-0.28c0.21-0.14 0.43-0.03 0.43 0.25z" fill="#fafafa"/><g fill="#455a64"><path d="m176 276.76v2.12a0.93 0.93 0 0 1-0.43 0.75l-0.49 0.28c-0.24 0.14-0.43 0-0.43-0.25v-2.12a1 1 0 0 1 0.43-0.75l0.49-0.28c0.27-0.14 0.43-0.03 0.43 0.25z"/><path d="m173.85 278v2.13a1 1 0 0 1-0.44 0.75l-0.49 0.28a0.27 0.27 0 0 1-0.43-0.25v-2.11a1 1 0 0 1 0.43-0.75l0.49-0.28c0.24-0.14 0.44-0.03 0.44 0.23z"/><path d="m171.66 279.28v2.13a1 1 0 0 1-0.44 0.75l-0.48 0.28a0.27 0.27 0 0 1-0.44-0.25v-2.13a1 1 0 0 1 0.44-0.75l0.48-0.28a0.27 0.27 0 0 1 0.44 0.25z"/></g><path d="m169.47 280.54v2.13a1 1 0 0 1-0.43 0.75l-0.49 0.28c-0.24 0.14-0.43 0-0.43-0.25v-2.13a1 1 0 0 1 0.43-0.75l0.49-0.28c0.23-0.14 0.43-0.02 0.43 0.25z" fill="#fafafa"/><path d="m167.28 281.8v2.13a1 1 0 0 1-0.43 0.75l-0.49 0.28c-0.24 0.14-0.43 0-0.43-0.25v-2.12a0.93 0.93 0 0 1 0.43-0.75l0.49-0.29c0.24-0.13 0.43-0.02 0.43 0.25z" fill="#455a64"/><path d="m165.09 283.07v2.12a1 1 0 0 1-0.43 0.75l-0.49 0.28c-0.24 0.14-0.43 0-0.43-0.25v-2.12a1 1 0 0 1 0.43-0.75l0.49-0.28c0.24-0.14 0.43-0.03 0.43 0.25z" fill="#455a64"/><path d="m199.48 254.91-59.84 34.52a5.72 5.72 0 0 1-5.19 0l-59.76-34.52c-1.44-0.83-1.44-2.17 0-3l59.83-34.52a5.74 5.74 0 0 1 5.2 0l59.76 34.52c1.43 0.83 1.43 2.17 0 3z" fill="#6da5ea"/><path d="m199.48 254.91-59.84 34.52a5.72 5.72 0 0 1-5.19 0l-59.76-34.52c-1.44-0.83-1.44-2.17 0-3l59.83-34.52a5.74 5.74 0 0 1 5.2 0l59.76 34.52c1.43 0.83 1.43 2.17 0 3z" fill="#fff" opacity=".85"/><polygon points="193.95 281.55 193.95 276.86 137.08 309.7 137.08 314.39" fill="#455a64"/><polygon points="76.15 274.52 76.15 279.21 137.08 314.39 137.08 309.7" fill="#37474f"/><path d="m155.69 288.33-1-0.57a1.32 1.32 0 0 0-1.32 0.14 4.16 4.16 0 0 0-1.88 3.26 1.32 1.32 0 0 0 0.54 1.21l0.92 0.53 0.17-0.27a2.3 2.3 0 0 0 0.54-0.21 4.16 4.16 0 0 0 1.88-3.26 2.25 2.25 0 0 0-0.06-0.48z" fill="#6da5ea"/><path d="m155.69 288.33-1-0.57a1.32 1.32 0 0 0-1.32 0.14 4.16 4.16 0 0 0-1.88 3.26 1.32 1.32 0 0 0 0.54 1.21l0.92 0.53 0.17-0.27a2.3 2.3 0 0 0 0.54-0.21 4.16 4.16 0 0 0 1.88-3.26 2.25 2.25 0 0 0-0.06-0.48z" opacity=".4"/><path d="m154.32 288.44a4.14 4.14 0 0 0-1.88 3.25c0 1.21 0.84 1.69 1.88 1.09a4.16 4.16 0 0 0 1.88-3.26c0-1.2-0.84-1.68-1.88-1.08z" fill="#6da5ea"/><path d="m154.32 288.44a4.14 4.14 0 0 0-1.88 3.25c0 1.21 0.84 1.69 1.88 1.09a4.16 4.16 0 0 0 1.88-3.26c0-1.2-0.84-1.68-1.88-1.08z" opacity=".2"/><path d="m147.52 293-1-0.57a1.29 1.29 0 0 0-1.32 0.13 4.16 4.16 0 0 0-1.88 3.26 1.33 1.33 0 0 0 0.55 1.22l0.92 0.53 0.17-0.28a1.93 1.93 0 0 0 0.54-0.21 4.16 4.16 0 0 0 1.88-3.26 1.8 1.8 0 0 0-0.06-0.48z" fill="#6da5ea"/><path d="m147.52 293-1-0.57a1.29 1.29 0 0 0-1.32 0.13 4.16 4.16 0 0 0-1.88 3.26 1.33 1.33 0 0 0 0.55 1.22l0.92 0.53 0.17-0.28a1.93 1.93 0 0 0 0.54-0.21 4.16 4.16 0 0 0 1.88-3.26 1.8 1.8 0 0 0-0.06-0.48z" opacity=".4"/><path d="m146.15 293.15a4.16 4.16 0 0 0-1.88 3.26c0 1.2 0.84 1.69 1.88 1.09a4.16 4.16 0 0 0 1.88-3.26c-0.03-1.24-0.84-1.69-1.88-1.09z" fill="#6da5ea"/><path d="m146.15 293.15a4.16 4.16 0 0 0-1.88 3.26c0 1.2 0.84 1.69 1.88 1.09a4.16 4.16 0 0 0 1.88-3.26c-0.03-1.24-0.84-1.69-1.88-1.09z" opacity=".2"/><g fill="#6da5ea"><path d="m137.64 184.61a0.27 0.27 0 0 0-0.16-0.23 0.91 0.91 0 0 0-0.79 0 0.29 0.29 0 0 0-0.17 0.23v6.71a0.27 0.27 0 0 0 0.17 0.23 0.85 0.85 0 0 0 0.79 0 0.26 0.26 0 0 0 0.16-0.23z"/><path d="m137.64 193.43a0.26 0.26 0 0 0-0.16-0.23 0.85 0.85 0 0 0-0.79 0 0.27 0.27 0 0 0-0.17 0.23v3.19a0.29 0.29 0 0 0 0.17 0.23 0.85 0.85 0 0 0 0.79 0 0.27 0.27 0 0 0 0.16-0.23z"/><path d="m137.64 198.72a0.29 0.29 0 0 0-0.16-0.23 0.91 0.91 0 0 0-0.79 0 0.3 0.3 0 0 0-0.17 0.23v3.2a0.3 0.3 0 0 0 0.17 0.23 0.91 0.91 0 0 0 0.79 0 0.29 0.29 0 0 0 0.16-0.23z"/><path d="m137.64 204a0.29 0.29 0 0 0-0.16-0.23 0.91 0.91 0 0 0-0.79 0 0.3 0.3 0 0 0-0.17 0.23v3.2a0.27 0.27 0 0 0 0.17 0.22 0.85 0.85 0 0 0 0.79 0 0.26 0.26 0 0 0 0.16-0.22z"/><path d="m137.64 209.32a0.27 0.27 0 0 0-0.16-0.23 0.85 0.85 0 0 0-0.79 0 0.29 0.29 0 0 0-0.17 0.23v3.19a0.27 0.27 0 0 0 0.17 0.23 0.85 0.85 0 0 0 0.79 0 0.26 0.26 0 0 0 0.16-0.23z"/><path d="m137.64 214.62a0.26 0.26 0 0 0-0.16-0.23 0.85 0.85 0 0 0-0.79 0 0.27 0.27 0 0 0-0.17 0.23v3.19a0.29 0.29 0 0 0 0.17 0.23 0.91 0.91 0 0 0 0.79 0 0.27 0.27 0 0 0 0.16-0.23z"/><path d="m137.64 219.91a0.29 0.29 0 0 0-0.16-0.23 0.91 0.91 0 0 0-0.79 0 0.3 0.3 0 0 0-0.17 0.23v3.2a0.3 0.3 0 0 0 0.17 0.23 0.91 0.91 0 0 0 0.79 0 0.29 0.29 0 0 0 0.16-0.23z"/><path d="m137.64 225.21a0.29 0.29 0 0 0-0.16-0.23 0.91 0.91 0 0 0-0.79 0 0.3 0.3 0 0 0-0.17 0.23v3.19a0.27 0.27 0 0 0 0.17 0.23 0.85 0.85 0 0 0 0.79 0 0.26 0.26 0 0 0 0.16-0.23z"/><path d="m137.64 230.51a0.27 0.27 0 0 0-0.16-0.23 0.85 0.85 0 0 0-0.79 0 0.29 0.29 0 0 0-0.17 0.23v3.19a0.27 0.27 0 0 0 0.17 0.23 0.85 0.85 0 0 0 0.79 0 0.26 0.26 0 0 0 0.16-0.23z"/><path d="m137.64 235.81a0.26 0.26 0 0 0-0.16-0.23 0.85 0.85 0 0 0-0.79 0 0.27 0.27 0 0 0-0.17 0.23v3.19a0.29 0.29 0 0 0 0.17 0.23 0.91 0.91 0 0 0 0.79 0 0.27 0.27 0 0 0 0.16-0.23z"/><path d="m137.64 241.1a0.29 0.29 0 0 0-0.16-0.23 0.91 0.91 0 0 0-0.79 0 0.3 0.3 0 0 0-0.17 0.23v3.2a0.3 0.3 0 0 0 0.17 0.23 0.91 0.91 0 0 0 0.79 0 0.29 0.29 0 0 0 0.16-0.23z"/><path d="m137.64 246.4a0.27 0.27 0 0 0-0.16-0.23 0.91 0.91 0 0 0-0.79 0 0.29 0.29 0 0 0-0.17 0.23v3.19a0.27 0.27 0 0 0 0.17 0.23 0.85 0.85 0 0 0 0.79 0 0.26 0.26 0 0 0 0.16-0.23z"/><path d="m137.64 251.7a0.27 0.27 0 0 0-0.16-0.23 0.85 0.85 0 0 0-0.79 0 0.29 0.29 0 0 0-0.17 0.23v3.19a0.27 0.27 0 0 0 0.17 0.23 0.85 0.85 0 0 0 0.79 0 0.26 0.26 0 0 0 0.16-0.23z"/></g><path d="m140.65 177.41a1.77 1.77 0 0 0-1.05-1.41 5.53 5.53 0 0 0-5 0 1.76 1.76 0 0 0-1 1.45v9.38a1.76 1.76 0 0 0 1 1.46 5.59 5.59 0 0 0 5 0 1.77 1.77 0 0 0 1.05-1.46v-9.38z" fill="#455a64"/><path d="m142.83 168a2.83 2.83 0 0 0-1.69-2.34 8.94 8.94 0 0 0-8.12 0 2.84 2.84 0 0 0-1.68 2.34v9.22a2.77 2.77 0 0 0 1.66 2.51 9 9 0 0 0 8.12 0 2.74 2.74 0 0 0 1.66-2.51v-9.22z" fill="#37474f"/><g fill="#6da5ea"><path d="m158 172.8a0.3 0.3 0 0 0-0.17-0.23 0.91 0.91 0 0 0-0.79 0 0.29 0.29 0 0 0-0.16 0.23v6.71a0.26 0.26 0 0 0 0.16 0.23 0.85 0.85 0 0 0 0.79 0 0.27 0.27 0 0 0 0.17-0.23z"/><path d="m158 181.62a0.27 0.27 0 0 0-0.17-0.23 0.85 0.85 0 0 0-0.79 0 0.26 0.26 0 0 0-0.16 0.23v3.19a0.26 0.26 0 0 0 0.16 0.23 0.85 0.85 0 0 0 0.79 0 0.27 0.27 0 0 0 0.17-0.23z"/><path d="m158 186.92a0.27 0.27 0 0 0-0.17-0.23 0.85 0.85 0 0 0-0.79 0 0.26 0.26 0 0 0-0.16 0.23v3.19a0.27 0.27 0 0 0 0.16 0.23 0.91 0.91 0 0 0 0.79 0 0.29 0.29 0 0 0 0.17-0.23z"/><path d="m158 192.21a0.3 0.3 0 0 0-0.17-0.23 0.91 0.91 0 0 0-0.79 0 0.29 0.29 0 0 0-0.16 0.23v3.2a0.29 0.29 0 0 0 0.16 0.23 0.91 0.91 0 0 0 0.79 0 0.3 0.3 0 0 0 0.17-0.23z"/><path d="m158 197.51a0.29 0.29 0 0 0-0.17-0.23 0.91 0.91 0 0 0-0.79 0 0.27 0.27 0 0 0-0.16 0.23v3.19a0.26 0.26 0 0 0 0.16 0.23 0.85 0.85 0 0 0 0.79 0 0.27 0.27 0 0 0 0.17-0.23z"/><path d="m158 202.81a0.27 0.27 0 0 0-0.17-0.23 0.85 0.85 0 0 0-0.79 0 0.26 0.26 0 0 0-0.16 0.23v3.19a0.27 0.27 0 0 0 0.16 0.23 0.85 0.85 0 0 0 0.79 0 0.29 0.29 0 0 0 0.17-0.23z"/><path d="m158 208.1a0.27 0.27 0 0 0-0.17-0.22 0.85 0.85 0 0 0-0.79 0 0.26 0.26 0 0 0-0.16 0.22v3.2a0.27 0.27 0 0 0 0.16 0.23 0.91 0.91 0 0 0 0.79 0 0.29 0.29 0 0 0 0.17-0.23z"/><path d="m158 213.4a0.3 0.3 0 0 0-0.17-0.23 0.91 0.91 0 0 0-0.79 0 0.29 0.29 0 0 0-0.16 0.23v3.2a0.29 0.29 0 0 0 0.16 0.23 0.91 0.91 0 0 0 0.79 0 0.3 0.3 0 0 0 0.17-0.23z"/><path d="m158 218.7a0.29 0.29 0 0 0-0.17-0.23 0.91 0.91 0 0 0-0.79 0 0.27 0.27 0 0 0-0.16 0.23v3.19a0.26 0.26 0 0 0 0.16 0.23 0.85 0.85 0 0 0 0.79 0 0.27 0.27 0 0 0 0.17-0.23z"/><path d="m158 224a0.27 0.27 0 0 0-0.17-0.23 0.85 0.85 0 0 0-0.79 0 0.26 0.26 0 0 0-0.16 0.23v3.19a0.27 0.27 0 0 0 0.16 0.23 0.85 0.85 0 0 0 0.79 0 0.29 0.29 0 0 0 0.17-0.23z"/><path d="m158 229.29a0.27 0.27 0 0 0-0.17-0.22 0.85 0.85 0 0 0-0.79 0 0.26 0.26 0 0 0-0.16 0.22v3.2a0.29 0.29 0 0 0 0.16 0.23 0.91 0.91 0 0 0 0.79 0 0.3 0.3 0 0 0 0.17-0.23z"/><path d="m158 234.59a0.3 0.3 0 0 0-0.17-0.23 0.91 0.91 0 0 0-0.79 0 0.29 0.29 0 0 0-0.16 0.23v3.2a0.29 0.29 0 0 0 0.16 0.23 0.91 0.91 0 0 0 0.79 0 0.3 0.3 0 0 0 0.17-0.23z"/><path d="m158 239.89a0.29 0.29 0 0 0-0.17-0.23 0.85 0.85 0 0 0-0.79 0 0.27 0.27 0 0 0-0.16 0.23v3.19a0.26 0.26 0 0 0 0.16 0.23 0.85 0.85 0 0 0 0.79 0 0.27 0.27 0 0 0 0.17-0.23z"/></g><path d="m161 165.6a1.78 1.78 0 0 0-1-1.45 5.59 5.59 0 0 0-5 0 1.77 1.77 0 0 0-1.05 1.45v9.4a1.77 1.77 0 0 0 1.05 1.45 5.59 5.59 0 0 0 5 0 1.78 1.78 0 0 0 1-1.45z" fill="#455a64"/><path d="m163.13 156.22a2.86 2.86 0 0 0-1.68-2.34 9 9 0 0 0-8.13 0 2.86 2.86 0 0 0-1.68 2.34v9.22a2.73 2.73 0 0 0 1.65 2.51 9 9 0 0 0 8.13 0 2.73 2.73 0 0 0 1.65-2.51v-9.22z" fill="#37474f"/><g fill="#6da5ea"><path d="m117.33 196.16a0.27 0.27 0 0 0-0.17-0.23 0.85 0.85 0 0 0-0.79 0 0.26 0.26 0 0 0-0.16 0.23v6.71a0.29 0.29 0 0 0 0.16 0.23 0.91 0.91 0 0 0 0.79 0 0.3 0.3 0 0 0 0.17-0.23z"/><path d="m116.21 208.16a0.26 0.26 0 0 0 0.16 0.23 0.85 0.85 0 0 0 0.79 0 0.27 0.27 0 0 0 0.17-0.23v-3.16a0.29 0.29 0 0 0-0.17-0.23 0.91 0.91 0 0 0-0.79 0 0.27 0.27 0 0 0-0.16 0.23"/><path d="m117.33 210.27a0.29 0.29 0 0 0-0.17-0.23 0.85 0.85 0 0 0-0.79 0 0.27 0.27 0 0 0-0.16 0.23v3.19a0.26 0.26 0 0 0 0.16 0.23 0.85 0.85 0 0 0 0.79 0 0.27 0.27 0 0 0 0.17-0.23z"/><path d="m117.33 215.57a0.27 0.27 0 0 0-0.17-0.23 0.85 0.85 0 0 0-0.79 0 0.26 0.26 0 0 0-0.16 0.23v3.19a0.27 0.27 0 0 0 0.16 0.23 0.91 0.91 0 0 0 0.79 0 0.29 0.29 0 0 0 0.17-0.23"/><path d="m117.33 220.86a0.3 0.3 0 0 0-0.17-0.23 0.91 0.91 0 0 0-0.79 0 0.29 0.29 0 0 0-0.16 0.23v3.2a0.29 0.29 0 0 0 0.16 0.23 0.91 0.91 0 0 0 0.79 0 0.3 0.3 0 0 0 0.17-0.23z"/><path d="m117.33 226.16a0.29 0.29 0 0 0-0.17-0.23 0.91 0.91 0 0 0-0.79 0 0.27 0.27 0 0 0-0.16 0.23v3.19a0.26 0.26 0 0 0 0.16 0.23 0.85 0.85 0 0 0 0.79 0 0.27 0.27 0 0 0 0.17-0.23"/><path d="m117.33 231.46a0.29 0.29 0 0 0-0.17-0.23 0.85 0.85 0 0 0-0.79 0 0.27 0.27 0 0 0-0.16 0.23v3.19a0.27 0.27 0 0 0 0.16 0.23 0.85 0.85 0 0 0 0.79 0 0.29 0.29 0 0 0 0.17-0.23z"/><path d="m117.33 236.76a0.27 0.27 0 0 0-0.17-0.23 0.85 0.85 0 0 0-0.79 0 0.26 0.26 0 0 0-0.16 0.23v3.24a0.27 0.27 0 0 0 0.16 0.23 0.91 0.91 0 0 0 0.79 0 0.29 0.29 0 0 0 0.17-0.23"/><path d="m117.33 242.05a0.3 0.3 0 0 0-0.17-0.23 0.91 0.91 0 0 0-0.79 0 0.29 0.29 0 0 0-0.16 0.23v3.2a0.29 0.29 0 0 0 0.16 0.23 0.91 0.91 0 0 0 0.79 0 0.3 0.3 0 0 0 0.17-0.23z"/><path d="m117.33 247.35a0.29 0.29 0 0 0-0.17-0.23 0.91 0.91 0 0 0-0.79 0 0.27 0.27 0 0 0-0.16 0.23v3.19a0.26 0.26 0 0 0 0.16 0.23 0.85 0.85 0 0 0 0.79 0 0.27 0.27 0 0 0 0.17-0.23"/><path d="m117.33 252.65a0.27 0.27 0 0 0-0.17-0.23 0.85 0.85 0 0 0-0.79 0 0.26 0.26 0 0 0-0.16 0.23v3.19a0.27 0.27 0 0 0 0.16 0.23 0.85 0.85 0 0 0 0.79 0 0.29 0.29 0 0 0 0.17-0.23z"/><path d="m117.33 258a0.27 0.27 0 0 0-0.17-0.23 0.85 0.85 0 0 0-0.79 0 0.26 0.26 0 0 0-0.16 0.23v3.19a0.27 0.27 0 0 0 0.16 0.23 0.91 0.91 0 0 0 0.79 0 0.29 0.29 0 0 0 0.17-0.23"/><path d="m117.33 263.24a0.3 0.3 0 0 0-0.17-0.23 0.91 0.91 0 0 0-0.79 0 0.29 0.29 0 0 0-0.16 0.23v3.2a0.29 0.29 0 0 0 0.16 0.23 0.91 0.91 0 0 0 0.79 0 0.3 0.3 0 0 0 0.17-0.23z"/></g><path d="m120.33 189a1.78 1.78 0 0 0-1-1.46 5.59 5.59 0 0 0-5 0 1.77 1.77 0 0 0-1 1.46v9.38a1.76 1.76 0 0 0 1 1.45 5.53 5.53 0 0 0 5 0 1.76 1.76 0 0 0 1-1.45z" fill="#455a64"/><path d="m122.51 179.58a2.86 2.86 0 0 0-1.68-2.35 9 9 0 0 0-8.13 0 2.86 2.86 0 0 0-1.68 2.35v9.22a2.73 2.73 0 0 0 1.65 2.5 9 9 0 0 0 8.13 0 2.73 2.73 0 0 0 1.65-2.5v-9.22z" fill="#37474f"/><path d="m215.38 92.3-0.46-0.26-0.28-0.16-10.05-5.88v-0.7c0-12.37-4.16-21-10.72-24.67l-19.33-11.15c-5.32-3.06-12.26-2.78-19.85 1.6a45.51 45.51 0 0 0-9.57 7.6 19.94 19.94 0 0 0-4.19-3.32l-18.7-10.75c-6.85-4.54-16-4.45-26.1 1.38-21.13 12.25-38.36 45.07-38.36 73.32a59.7 59.7 0 0 0 0.71 9.35l-2.64 1.53c-13.48 7.81-24.41 28.66-24.41 46.63 0 9.92 3.34 17 8.59 20l19.58 11.35c4.25 2.43 9.75 2.24 15.77-1.23l130.04-75.08c8.09-4.67 14.65-17.2 14.65-28 0-5.63-1.81-9.65-4.68-11.56z" fill="#6da5ea" opacity=".8"/><g fill="#fff"><path d="m215.38 92.3-0.46-0.26-0.28-0.16-10.05-5.88v-0.7c0-12.37-4.16-21-10.72-24.67l-19.33-11.15c-5.32-3.06-12.26-2.78-19.85 1.6a45.51 45.51 0 0 0-9.57 7.6 19.94 19.94 0 0 0-4.19-3.32l-18.7-10.75c-6.85-4.54-16-4.45-26.1 1.38-21.13 12.25-38.36 45.07-38.36 73.32a59.7 59.7 0 0 0 0.71 9.35l-2.64 1.53c-13.48 7.81-24.41 28.66-24.41 46.63 0 9.92 3.34 17 8.59 20l19.58 11.35c4.25 2.43 9.75 2.24 15.77-1.23l130.04-75.08c8.09-4.67 14.65-17.2 14.65-28 0-5.63-1.81-9.65-4.68-11.56z" opacity=".2"/><path d="m193.9 60.66c-5.29-2.95-12.16-2.61-19.65 1.72a46.11 46.11 0 0 0-10 8.07l-17.81-10.31-1.74-1 0.43-0.44a45.78 45.78 0 0 1 9.57-7.59c7.59-4.38 14.53-4.66 19.85-1.6z" opacity=".35"/><path d="m145.13 58.69c0.46 0.46 0.89 0.94 1.31 1.45l-1.74-1z" opacity=".8"/><path d="m140.47 55.1c-6.68-3.72-15.34-3.29-24.8 2.17s-18.4 15.34-25.13 27l-19.54-11.27c6.73-11.68 15.51-21.47 25.12-27 10.09-5.82 19.26-5.91 26.11-1.37z" opacity=".35"/><path d="m78 139.94-2.65 1.52c-9.13 5.27-17.1 16.57-21.27 28.9l-19.52-11.28c3.33-9.83 9.07-19 15.89-25l8-5.44z" opacity=".35"/></g><path d="m205.41 92.81-1.4 0.81a61.47 61.47 0 0 0 0.59-8.28c0-22.36-13.6-32.64-30.37-23-7.77 4.49-14.87 12.49-20.24 22-0.76-26.92-17.62-39.06-38.32-27.1-21.19 12.23-38.37 45-38.37 73.29a59.73 59.73 0 0 0 0.71 9.36l-2.64 1.52c-13.48 7.84-24.37 28.71-24.37 46.69 0 18 10.93 26.62 24.41 18.84l130.04-75.08c8.09-4.67 14.65-17.2 14.65-28-0.04-10.76-6.6-15.72-14.69-11.05z" fill="#6da5ea"/><path d="m205.41 92.81-1.4 0.81a61.47 61.47 0 0 0 0.59-8.28c0-22.36-13.6-32.64-30.37-23-7.77 4.49-14.87 12.49-20.24 22-0.76-26.92-17.62-39.06-38.32-27.1-21.19 12.23-38.37 45-38.37 73.29a59.73 59.73 0 0 0 0.71 9.36l-2.64 1.52c-13.48 7.84-24.37 28.71-24.37 46.69 0 18 10.93 26.62 24.41 18.84l130.04-75.08c8.09-4.67 14.65-17.2 14.65-28-0.04-10.76-6.6-15.72-14.69-11.05z" fill="#fff" opacity=".7"/><path d="m65.86 204.81c-6 0-9.9-6.56-9.9-16.71 0-16.08 10-35.45 21.91-42.31l2.64-1.52a5 5 0 0 0 2.49-5.11 54.82 54.82 0 0 1-0.65-8.58c0-26.61 16.09-57.55 35.86-69 4.52-2.61 8.81-3.94 12.73-3.94 10.7 0 17.64 10.29 18.1 26.85a5 5 0 0 0 9.35 2.32c5.15-9.11 11.68-16.26 18.39-20.14a19.48 19.48 0 0 1 9.56-3c8.08 0 13.31 8.48 13.31 21.6a56 56 0 0 1-0.54 7.6 5 5 0 0 0 7.45 5l1.4-0.81a7 7 0 0 1 3.32-1.09c2.64 0 3.83 3.93 3.83 7.83 0 9-5.57 19.85-12.15 23.65l-130 75.08a14.31 14.31 0 0 1-7 2.2z" fill="#fff" opacity=".7"/></g></svg>
