<svg width="400" height="400" version="1.1" viewBox="0 0 400 400" xmlns="http://www.w3.org/2000/svg"><g transform="matrix(.98896 0 0 .98896 -16.18 -46.705)"><ellipse cx="329.71" cy="417.03" rx="60.03" ry="34.66" fill="#e6e6e6"/><path d="m204.3 51.19a2.35 2.35 0 0 0-1-2.21l-2.66-1.51a2.35 2.35 0 0 0-2.43 0.21l-147.36 85.06a7.48 7.48 0 0 0-3.39 5.87v131.48a2.37 2.37 0 0 0 1 2.2l2.72 1.55a2.38 2.38 0 0 0 2.4-0.24l147.33-85.06a7.5 7.5 0 0 0 3.39-5.87z" fill="#6da5ea" opacity=".4"/><path d="m204.3 51.2v131.48a7.49 7.49 0 0 1-3.38 5.87l-147.34 85.07c-1.66 1-3 0.37-3.32-1.29a2.85 2.85 0 0 0 0.59-0.28l147.33-85.05a7.48 7.48 0 0 0 3.39-5.87v-131.5a3 3 0 0 0-0.06-0.68c1.59-0.59 2.79 0.32 2.79 2.25z" fill="#6da5ea" opacity=".4"/><path d="m200.91 49.24-11.34 7-30 17.55-36.93 21.4-42.45 24.5-18.5 10.64-4.62 2.67-2.31 1.33c-0.37 0.22-0.82 0.45-1.12 0.66a6 6 0 0 0-0.91 0.77 7 7 0 0 0-1.94 4.38v59.18l-0.12 27.28c-0.07 28.45-0.27 16.61-0.44 45.07-0.18-28.46-0.37-16.62-0.44-45.07l-0.12-27.28v-59.19a8.13 8.13 0 0 1 2.25-5.19 6.78 6.78 0 0 1 1.08-0.94c0.44-0.29 0.79-0.47 1.18-0.7l6.93-4.02 18.46-10.69 42.43-24.52 37-21.27 30.21-17.21z" fill="#fff"/><g fill="#fff" opacity=".5"><polygon points="65.68 151.19 73.6 146.61 73.6 239.5 65.68 244.07"/><polygon points="79.66 143.12 87.57 138.54 87.57 231.43 79.66 236"/><polygon points="93.63 135.05 101.55 130.48 101.55 223.36 93.63 227.94"/><polygon points="107.6 126.98 115.52 122.41 115.52 215.29 107.6 219.87"/><polygon points="121.58 118.91 129.5 114.34 129.5 207.23 121.58 211.8"/><polygon points="135.55 110.84 143.47 106.27 143.47 199.16 135.55 203.73"/><polygon points="149.53 102.78 157.44 98.2 157.44 191.09 149.53 195.66"/><polygon points="163.5 94.71 171.42 90.14 171.42 183.02 163.5 187.59"/><polygon points="177.48 86.64 185.39 82.07 185.39 174.95 177.48 179.53"/></g><g fill="#455a64"><path d="m73.09 250.07-6.44 3.72a1.76 1.76 0 0 0-0.73 1.4v0.15c0 0.54 0.33 0.79 0.73 0.56l6.44-3.72a1.76 1.76 0 0 0 0.74-1.41v-0.14c0-0.54-0.33-0.79-0.74-0.56z"/><path d="m87.07 242-6.44 3.72a1.76 1.76 0 0 0-0.73 1.4v0.15c0 0.54 0.33 0.79 0.73 0.55l6.44-3.71a1.77 1.77 0 0 0 0.74-1.41v-0.14c0-0.56-0.33-0.79-0.74-0.56z"/><path d="m101.05 233.93-6.44 3.72a1.76 1.76 0 0 0-0.73 1.4v0.15c0 0.54 0.33 0.79 0.73 0.55l6.44-3.72a1.74 1.74 0 0 0 0.74-1.4v-0.15c0-0.54-0.33-0.79-0.74-0.55z"/><path d="m115 225.86-6.44 3.71a1.79 1.79 0 0 0-0.73 1.41v0.14c0 0.54 0.33 0.79 0.73 0.56l6.44-3.68a1.73 1.73 0 0 0 0.73-1.4v-0.15c0.03-0.58-0.29-0.83-0.73-0.59z"/><path d="m129 217.78-6.44 3.72a1.78 1.78 0 0 0-0.73 1.41v0.14c0 0.54 0.33 0.79 0.73 0.56l6.44-3.72a1.76 1.76 0 0 0 0.73-1.4v-0.15c0.01-0.54-0.32-0.79-0.73-0.56z"/><path d="m143 209.71-6.44 3.72a1.73 1.73 0 0 0-0.73 1.4v0.17c0 0.54 0.32 0.79 0.73 0.56l6.44-3.72a1.78 1.78 0 0 0 0.73-1.41v-0.14c-0.01-0.56-0.34-0.81-0.73-0.58z"/><path d="m157 201.64-6.44 3.72a1.74 1.74 0 0 0-0.74 1.4v0.15c0 0.54 0.33 0.79 0.74 0.55l6.44-3.71a1.79 1.79 0 0 0 0.73-1.41v-0.14c-0.03-0.55-0.36-0.79-0.73-0.56z"/><path d="m171 193.57-6.44 3.72a1.74 1.74 0 0 0-0.74 1.4v0.15c0 0.54 0.33 0.79 0.74 0.55l6.44-3.72a1.76 1.76 0 0 0 0.73-1.4v-0.15c-0.05-0.54-0.38-0.79-0.73-0.55z"/><path d="m184.93 185.5-6.44 3.71a1.77 1.77 0 0 0-0.74 1.41v0.14c0 0.54 0.33 0.79 0.74 0.56l6.44-3.72a1.76 1.76 0 0 0 0.73-1.4v-0.15c0-0.54-0.33-0.79-0.73-0.55z"/></g><g fill="#6da5ea"><polygon points="73.6 239.5 65.68 244.07 65.68 223.33 73.6 218.75"/><polygon points="87.57 231.43 79.66 236 79.66 193.86 87.57 189.29"/><polygon points="101.55 223.36 93.63 227.94 93.63 159.12 101.55 154.54"/><polygon points="115.52 215.29 107.6 219.87 107.6 188.31 115.52 183.74"/><polygon points="129.5 207.23 121.58 211.8 121.58 173.23 129.5 168.65"/><polygon points="143.47 199.16 135.55 203.73 135.55 153.24 143.47 148.67"/><polygon points="157.44 191.09 149.53 195.66 149.53 172.32 157.44 167.75"/><polygon points="171.42 183.02 163.5 187.59 163.5 156.81 171.42 152.24"/><polygon points="185.39 174.95 177.48 179.53 177.48 143.8 185.39 139.23"/><polygon points="73.6 218.75 65.68 223.33 65.68 171.47 73.6 166.89"/><polygon points="87.57 189.29 79.66 193.86 79.66 175.19 87.57 170.61"/><polygon points="101.55 154.54 93.63 159.12 93.63 142.82 101.55 138.25"/><polygon points="115.52 183.74 107.6 188.31 107.6 147.26 115.52 142.69"/><polygon points="129.5 168.65 121.58 173.23 121.58 155.87 129.5 151.3"/><polygon points="143.47 148.67 135.55 153.24 135.55 110.84 143.47 106.27"/><polygon points="157.44 167.75 149.53 172.32 149.53 151.9 157.44 147.33"/><polygon points="171.42 152.24 163.5 156.81 163.5 110.63 171.42 106.06"/><polygon points="185.39 139.23 177.48 143.8 177.48 127.72 185.39 123.15"/></g><g fill="#fff" opacity=".4"><polygon points="73.6 218.75 65.68 223.33 65.68 171.47 73.6 166.89"/><polygon points="87.57 189.29 79.66 193.86 79.66 175.19 87.57 170.61"/><polygon points="101.55 154.54 93.63 159.12 93.63 142.82 101.55 138.25"/><polygon points="115.52 183.74 107.6 188.31 107.6 147.26 115.52 142.69"/><polygon points="129.5 168.65 121.58 173.23 121.58 155.87 129.5 151.3"/><polygon points="143.47 148.67 135.55 153.24 135.55 110.84 143.47 106.27"/><polygon points="157.44 167.75 149.53 172.32 149.53 151.9 157.44 147.33"/><polygon points="171.42 152.24 163.5 156.81 163.5 110.63 171.42 106.06"/><polygon points="185.39 139.23 177.48 143.8 177.48 127.72 185.39 123.15"/></g><g fill="#6da5ea"><path d="m340.14 96.53a2.35 2.35 0 0 0-1-2.21l-2.66-1.52a2.35 2.35 0 0 0-2.48 0.2l-178.15 102.88a7.5 7.5 0 0 0-3.39 5.87v145a2.37 2.37 0 0 0 1 2.2l2.72 1.55a2.37 2.37 0 0 0 2.4-0.23l178.18-102.87a7.5 7.5 0 0 0 3.39-5.87z" opacity=".1"/><path d="m336.75 94.58-178.17 102.87a7.47 7.47 0 0 0-3.38 5.87v145c0 2.16 1.51 3 3.39 2l178.17-102.92a7.5 7.5 0 0 0 3.39-5.87v-145c-0.01-2.16-1.52-3.04-3.4-1.95z" opacity=".1"/><path d="m340.14 96.53v145a7.49 7.49 0 0 1-3.38 5.87l-178.17 102.87c-1.67 1-3.05 0.38-3.34-1.28a5.26 5.26 0 0 0 0.6-0.28l178.15-102.87a7.5 7.5 0 0 0 3.39-5.87v-144.97a3.58 3.58 0 0 0-0.06-0.68c1.61-0.62 2.81 0.29 2.81 2.21z" opacity=".15"/></g><path d="m336.75 94.58-75.32 43.88-35.43 20.72-35.54 20.6-17.77 10.29-8.9 5.13-4.45 2.56a6.62 6.62 0 0 0-3 3.48 5.75 5.75 0 0 0-0.45 2.27v38.53l-0.12 41.08-0.18 4.36-0.27 60.86-0.28-60.86-0.18-4.36-0.23-41.12v-38.53a6.93 6.93 0 0 1 0.53-2.74 8.73 8.73 0 0 1 1.42-2.36 8.41 8.41 0 0 1 1-1 8.63 8.63 0 0 1 1.15-0.75l4.45-2.58 8.82-5.04 17.81-10.24 35.6-20.48 35.68-20.37z" fill="#fff"/><path d="m323.84 117.34-8.9 5.14-0.66 0.38-8.9 5.14-0.66 0.38-8.91 5.14-0.65 0.38-8.91 5.1-0.66 0.38-8.9 5.14-0.66 0.38-8.9 5.14-0.66 0.38-8.91 5.14-0.66 0.38-8.43 4.88-0.47 0.27-0.66 0.38-8.9 5.13-0.66 0.39-8.91 5.14-0.65 0.38-9.57 5.52-8.9 5.14-0.66 0.38-8 4.6-0.93 0.54-0.66 0.38-8.91 5.14-0.66 0.38-8.9 5.15-0.66 0.37-8.9 5.14-0.66 0.38v98.74l153.19-88.37 0.49-0.29v-98.71zm-143.44 180.66-8.9 5.14v-13.1l8.9-5.14zm0-14-8.9 5.14v-13.1l8.9-5.14zm0-14-8.9 5.13v-13.1l8.9-5.13zm0-14-8.9 5.15v-13.1l8.9-5.15zm0-14-8.9 5.14v-13.1l8.9-5.14zm0-14-8.9 5.13v-13.1l8.9-5.13zm0-14-8.9 5.15v-13.1l8.9-5.15zm9.6 78.49-8.9 5.14v-13.1l8.9-5.14zm0-14-8.9 5.14v-13.1l8.9-5.14zm0-14-8.9 5.14v-13.1l8.9-5.14zm0-14-8.9 5.14v-13.1l8.9-5.14zm0-14-8.9 5.14v-13.1l8.9-5.14zm0-14-8.9 5.14v-13.1l8.9-5.14zm0-14-8.9 5.13v-13.1l8.9-5.13zm9.53 78.51-8.91 5.13v-13.13l8.91-5.14zm0-14-8.91 5.14v-13.14l8.91-5.14zm0-14-8.91 5.14v-13.1l8.91-5.14zm0-14-8.91 5.14v-13.1l8.91-5.14zm0-14-8.91 5.14v-13.1l8.91-5.14zm0-14-8.91 5.14v-13.1l8.91-5.14zm0-14-8.91 5.14v-13.1l8.91-5.14zm9.56 78.35-8.9 5.15v-13.1l8.9-5.15zm0-14-8.9 5.14v-13.1l8.9-5.14zm0-14-8.9 5.14v-13.1l8.9-5.14zm0-14-8.9 5.14v-13.1l8.9-5.14zm0-14-8.9 5.14v-13.1l8.9-5.14zm0-14-8.9 5.14v-13.1l8.9-5.14zm0-14-8.9 5.14v-13.1l8.9-5.14zm9.56 78.36-8.9 5.13v-12.84l8.9-5.13zm0-14-8.9 5.14v-12.85l8.9-5.14zm0-14-8.9 5.15v-12.86l8.9-5.15zm0-14-8.9 5.13v-12.84l8.9-5.13zm0-14-8.9 5.14v-13.1l8.9-5.14zm0-14-8.9 5.14v-13.1l8.9-5.14zm0-14-8.9 5.14v-13.1l8.9-5.14zm9.57 78.35-8.91 5.15v-13.1l8.91-5.15zm0-14-8.91 5.14v-12.73l8.91-5.14zm0-14-8.91 5.13v-12.7l8.91-5.14zm0-14-8.91 5.14v-13.1l8.91-5.15zm0-14-8.91 5.14v-12.68l8.91-5.13zm0-14-8.91 5.14v-13.1l8.91-5.14zm0-14-8.91 5.14v-13.1l8.91-5.15zm9.56 78.35-8.91 5.59v-13.1l8.91-5.13zm0-14-8.91 5.14v-12.55l8.91-5.14zm0-14-8.91 5.15v-12.56l8.91-5.15zm0-14-8.91 5.13v-12.54l8.91-5.13zm0-14-8.91 5.14v-12.55l8.91-5.14zm0-14-8.91 5.15v-12.56l8.91-5.15zm0-14-8.91 5.13v-12.54l8.91-5.13zm9.56 78.35-8.9 5.15v-13.1l8.9-5.15zm0-14-8.9 5.14v-13.1l8.9-5.14zm0-14-8.9 5.13v-13.1l8.9-5.13zm0-14-8.9 5.15v-13.1l8.9-5.15zm0-14-8.9 5.14v-13.1l8.9-5.14zm0-14-8.9 5.13v-12.38l8.9-5.14zm0-14-8.9 5.15v-13.1l8.9-5.15zm9.56 78.36-8.9 5.88v-13.1l8.9-5.14zm0-14-8.9 5.88v-13.1l8.9-5.14zm0-14-8.9 5.88v-13.1l8.9-5.15zm0-14-8.9 5.88v-13.1l8.9-5.13zm0-14-8.9 5.14v-12.26l8.9-5.15zm0-14-8.9 5.15v-12.27l8.9-5.15zm0-14-8.9 5.98v-13.1l8.9-5.13zm9.57 78.35-8.91 5.14v-13.1l8.91-5.14zm0-14-8.91 5.14v-13.1l8.91-5.14zm0-14-8.91 5.14v-12.21l8.91-5.13zm0-14-8.91 5.15v-13.1l8.91-5.15zm0-14-8.91 5.14v-13.1l8.91-5.14zm0-14-8.91 5.13v-13.1l8.91-5.13zm0-14-8.91 5.15v-13.1l8.91-5.15zm9.53 79.33-8.9 5.14v-13.1l8.9-5.14zm0-14-8.9 5.14v-13.1l8.9-5.14zm0-14-8.9 5.14v-13.1l8.9-5.14zm0-14-8.9 5.14v-13.04l8.9-5.14zm0-14-8.9 5.14v-13.1l8.9-5.14zm0-14-8.9 5.14v-13.1l8.9-5.14zm0-14-8.9 5.14v-12.94l8.9-5.14zm9.56 78.36-8.9 5.13v-13.1l8.9-5.13zm0-14-8.9 5.14v-13.1l8.9-5.14zm0-14-8.9 5.14v-13.1l8.9-5.14zm0-14-8.9 5.14v-13.1l8.9-5.14zm0-14-8.9 5.14v-12.9l8.9-5.14zm0-14-8.9 5.14v-13.1l8.9-5.14zm0-14-8.9 5.15v-12.87l8.9-5.14zm9.57 78.35-8.91 5.15v-12.86l8.91-5.14zm0-14-8.91 5.14v-13.1l8.91-5.14zm0-14-8.91 5.14v-13.1l8.91-5.14zm0-14-8.88 5.49v-13.1l8.91-5.14zm0-14-8.88 5.49v-13.1l8.91-5.14zm0-14-8.88 5.49v-13.1l8.91-5.14zm0-14-8.88 5.49v-13.1l8.91-5.14zm9.56 78.36-8.91 5.13v-13.1l8.91-5.13zm0-14-8.91 5.14v-12.71l8.91-5.14zm0-14-8.91 5.15v-13.1l8.91-5.15zm0-14-8.91 5.13v-13.1l8.91-5.13zm0-14-8.91 5.14v-13.1l8.91-5.14zm0-14-8.91 5.14v-13.1l8.91-5.14zm0-14-8.91 5.14v-12.61l8.91-5.14zm9.56 78.35-8.9 5.15v-13.1l8.9-5.15zm0-14-8.9 5.15v-13.1l8.9-5.15zm0-14-8.9 5.13v-13.1l8.9-5.13zm0-14-8.9 5.14v-13.1l8.9-5.15zm0-14-8.9 5.14v-13.1l8.9-5.14zm0-14-8.9 5.14v-13.1l8.9-5.14zm0-14-8.9 5.15v-13.1l8.9-5.15zm9.56 78.36-8.9 5.14v-13.1l8.9-5.14zm0-14-8.9 5.13v-12.45l8.9-5.14zm0-14-8.9 5.15v-13.1l8.9-5.15zm0-14-8.9 5.13v-13.1l8.9-5.13zm0-14-8.9 5.14v-13.1l8.9-5.14zm0-14-8.9 5.15v-13.1l8.9-5.15zm0-14-8.9 5.13v-13.1l8.9-5.13z" fill="#fff" opacity=".3"/><polygon points="324.5 122.61 309.14 158.62 293.77 169.25 278.4 187.58 263.04 193.65 247.67 212.09 232.3 208.94 216.94 224.12 201.57 246.63 186.2 255.5 170.84 283.84 170.84 304.41 324.5 215.69" fill="#6da5ea"/><polygon points="324.5 122.61 309.14 158.62 293.77 169.25 278.4 187.58 263.04 193.65 247.67 212.09 232.3 208.94 216.94 224.12 201.57 246.63 186.2 255.5 170.84 283.84 170.84 304.41 324.5 215.69" fill="#fff" opacity=".7"/><g fill="#455a64"><path d="m170.84 316.17a0.42 0.42 0 0 1-0.37-0.21 0.42 0.42 0 0 1 0.16-0.57l153.66-88.72a0.4211 0.4211 0 1 1 0.42 0.73l-153.66 88.72a0.54 0.54 0 0 1-0.21 0.05z"/><path d="m170.84 319.57a0.42 0.42 0 0 1-0.42-0.43v-6.78a0.42 0.42 0 0 1 0.42-0.42 0.42 0.42 0 0 1 0.42 0.42v6.78a0.42 0.42 0 0 1-0.42 0.43z"/><path d="m186.2 310.69a0.42 0.42 0 0 1-0.42-0.42v-6.78a0.43 0.43 0 1 1 0.85 0v6.78a0.42 0.42 0 0 1-0.43 0.42z"/><path d="m201.57 301.82a0.42 0.42 0 0 1-0.42-0.42v-6.79a0.42 0.42 0 1 1 0.84 0v6.79a0.42 0.42 0 0 1-0.42 0.42z"/><path d="m216.94 293a0.42 0.42 0 0 1-0.42-0.42v-6.79a0.42 0.42 0 0 1 0.42-0.42 0.42 0.42 0 0 1 0.42 0.42v6.79a0.42 0.42 0 0 1-0.42 0.42z"/><path d="m232.3 284.08a0.42 0.42 0 0 1-0.42-0.42v-6.79a0.43 0.43 0 0 1 0.85 0v6.79a0.42 0.42 0 0 1-0.43 0.42z"/><path d="m247.67 275.21a0.42 0.42 0 0 1-0.42-0.43v-6.78a0.42 0.42 0 0 1 0.84 0v6.78a0.42 0.42 0 0 1-0.42 0.43z"/><path d="m263 266.33a0.42 0.42 0 0 1-0.42-0.42v-6.78a0.41 0.41 0 0 1 0.42-0.42 0.42 0.42 0 0 1 0.42 0.42v6.78a0.42 0.42 0 0 1-0.42 0.42z"/><path d="m278.4 257.46a0.42 0.42 0 0 1-0.4-0.46v-6.78a0.43 0.43 0 1 1 0.85 0v6.78a0.42 0.42 0 0 1-0.45 0.46z"/><path d="m293.77 248.59a0.42 0.42 0 0 1-0.42-0.42v-6.79a0.42 0.42 0 1 1 0.84 0v6.79a0.42 0.42 0 0 1-0.42 0.42z"/><path d="m309.14 239.72a0.42 0.42 0 0 1-0.43-0.42v-6.79a0.43 0.43 0 0 1 0.85 0v6.79a0.42 0.42 0 0 1-0.42 0.42z"/><path d="m324.5 230.85a0.42 0.42 0 0 1-0.42-0.43v-6.78a0.43 0.43 0 0 1 0.85 0v6.78a0.43 0.43 0 0 1-0.43 0.43z"/></g><polygon points="324.5 147.55 309.14 178.2 293.77 182.06 278.4 197.94 263.04 203.03 247.67 217.61 232.3 215.29 216.94 230.17 201.57 254.61 186.2 265.9 170.84 289.64 170.84 304.41 324.5 215.69" fill="#6da5ea"/><polygon points="324.5 147.55 309.14 178.2 293.77 182.06 278.4 197.94 263.04 203.03 247.67 217.61 232.3 215.29 216.94 230.17 201.57 254.61 186.2 265.9 170.84 289.64 170.84 304.41 324.5 215.69" fill="#fff" opacity=".4"/><polygon points="324.5 215.69 324.5 167.73 308.71 194.68 293.77 198.12 278.83 222.32 263.04 223.66 248.18 236.39 232.3 228.89 216.94 240.89 201.57 266.51 186.2 274.78 170.84 294.56 170.84 304.41" fill="#6da5ea"/><path d="m186.19 295.55 15.38-8.88v-40l-15.37 8.83zm30.75-17.75 15.36-8.88v-60l-15.36 15.18zm30.73-17.75 15.33-8.87v-57.53l-15.37 18.44zm30.73-17.74 15.37-8.87v-64.19l-15.37 18.33zm30.74-83.69v65.94l15.36-8.87v-93.08z" fill="#6da5ea" opacity=".2"/><path d="m247.67 236.15v23.9l6.07-3.5 9.3-5.37v-27.52l-14.86 12.73zm-61.47 38.64v20.76l15.38-8.88v-20.15l-15.37 8.26zm30.74 3 5.12-3 10.24-5.92v-40l-15.36 12zm92.2-83.79v30.61l15.36-8.87v-48zm-30.74 28.4v20l15.37-8.87v-35.41l-14.94 24.2z" opacity=".15"/><g fill="#37474f"><path d="m189.42 316.32-6.42 3.68a1.74 1.74 0 0 0-0.74 1.4v0.15c0 0.54 0.33 0.79 0.74 0.55l6.43-3.71a1.77 1.77 0 0 0 0.74-1.41v-0.14c-0.01-0.5-0.34-0.75-0.75-0.52z"/><path d="m204.79 307.45-6.44 3.72a1.76 1.76 0 0 0-0.73 1.4v0.15c0 0.54 0.33 0.79 0.73 0.55l6.44-3.71a1.77 1.77 0 0 0 0.73-1.41v-0.15c0-0.54-0.32-0.78-0.73-0.55z"/><path d="m220.16 298.58-6.44 3.72a1.74 1.74 0 0 0-0.74 1.4v0.15c0 0.54 0.33 0.79 0.74 0.55l6.44-3.72a1.76 1.76 0 0 0 0.73-1.4v-0.15c0-0.54-0.33-0.79-0.73-0.55z"/><path d="m235.52 289.71-6.43 3.71a1.77 1.77 0 0 0-0.74 1.41v0.17c0 0.54 0.33 0.79 0.74 0.56l6.43-3.72a1.74 1.74 0 0 0 0.74-1.4v-0.15c0-0.57-0.33-0.82-0.74-0.58z"/><path d="m250.89 280.83-6.44 3.72a1.78 1.78 0 0 0-0.73 1.41v0.14c0 0.54 0.33 0.79 0.73 0.56l6.44-3.72a1.73 1.73 0 0 0 0.73-1.4v-0.15c0-0.54-0.32-0.79-0.73-0.56z"/><path d="m266.26 272-6.44 3.72a1.74 1.74 0 0 0-0.74 1.4v0.15c0 0.54 0.33 0.79 0.74 0.56l6.44-3.72a1.78 1.78 0 0 0 0.73-1.41v-0.14c0.01-0.56-0.33-0.83-0.73-0.56z"/><path d="m281.62 263.09-6.44 3.72a1.76 1.76 0 0 0-0.73 1.4v0.15c0 0.54 0.33 0.79 0.73 0.55l6.44-3.71a1.77 1.77 0 0 0 0.74-1.41v-0.14c0-0.55-0.36-0.79-0.74-0.56z"/><path d="m297 254.22-6.44 3.72a1.76 1.76 0 0 0-0.73 1.4v0.15c0 0.54 0.33 0.79 0.73 0.55l6.44-3.72a1.73 1.73 0 0 0 0.73-1.4v-0.15c-0.01-0.54-0.33-0.77-0.73-0.55z"/><path d="m312.36 245.35-6.44 3.71a1.77 1.77 0 0 0-0.74 1.41v0.14c0 0.55 0.33 0.79 0.74 0.56l6.44-3.72a1.76 1.76 0 0 0 0.73-1.4v-0.15c0-0.54-0.33-0.79-0.73-0.55z"/></g><g fill="#6da5ea"><path d="m186.2 246.43a0.42 0.42 0 0 1-0.42-0.42v-24.67a0.43 0.43 0 0 1 0.85 0v24.66a0.42 0.42 0 0 1-0.43 0.43z"/><path d="m184.67 222.23a2.08 2.08 0 0 1-1.1-0.29 2.8 2.8 0 0 1-1.21-2.58 7.93 7.93 0 0 1 3.63-6.3 2.5 2.5 0 0 1 4.06 2.34 7.93 7.93 0 0 1-3.63 6.3 3.55 3.55 0 0 1-1.75 0.53zm3.06-8.85a2.71 2.71 0 0 0-1.31 0.41 7.11 7.11 0 0 0-3.22 5.57 1.68 1.68 0 0 0 2.8 1.64 7.09 7.09 0 0 0 3.22-5.57 2 2 0 0 0-0.79-1.85 1.41 1.41 0 0 0-0.7-0.2z"/><path d="m232.3 199.87a0.42 0.42 0 0 1-0.42-0.42v-10.22a0.43 0.43 0 0 1 0.85 0v10.22a0.42 0.42 0 0 1-0.43 0.42z"/><path d="m230.77 190.12a2.18 2.18 0 0 1-1.1-0.29 2.8 2.8 0 0 1-1.21-2.58 7.92 7.92 0 0 1 3.63-6.3 2.5 2.5 0 0 1 4.06 2.34 8 8 0 0 1-3.63 6.3 3.55 3.55 0 0 1-1.75 0.53zm3.06-8.85a2.71 2.71 0 0 0-1.31 0.41 7.09 7.09 0 0 0-3.22 5.57 1.68 1.68 0 0 0 2.79 1.61 7.09 7.09 0 0 0 3.22-5.57 2 2 0 0 0-0.79-1.85 1.31 1.31 0 0 0-0.69-0.17z"/><path d="m278.4 178.51a0.42 0.42 0 0 1-0.42-0.42v-16.26a0.43 0.43 0 0 1 0.85 0v16.26a0.42 0.42 0 0 1-0.43 0.42z"/><path d="m276.87 162.73a2.18 2.18 0 0 1-1.1-0.29 2.8 2.8 0 0 1-1.21-2.58 7.9 7.9 0 0 1 3.63-6.3 2.5 2.5 0 0 1 4.06 2.34 7.93 7.93 0 0 1-3.64 6.3 3.49 3.49 0 0 1-1.74 0.53zm3.06-8.85a2.67 2.67 0 0 0-1.32 0.41 7.11 7.11 0 0 0-3.21 5.57 1.68 1.68 0 0 0 2.79 1.61 7.09 7.09 0 0 0 3.22-5.57 2 2 0 0 0-0.79-1.85 1.31 1.31 0 0 0-0.69-0.17z"/></g><path d="m170.86 271.35a0.8 0.8 0 0 1-0.4-0.11 0.83 0.83 0 0 1-0.34-1.14l12.33-22.76a1 1 0 0 1 0.32-0.33l18.23-10.51 15.26-22.35 0.1-0.12 15.37-15.18a0.83 0.83 0 0 1 0.76-0.23l14.88 3 15-18a0.84 0.84 0 0 1 0.34-0.25l15.16-6 15.23-18.17a0.8 0.8 0 0 1 0.17-0.15l11.94-8.25 15.29-35.8a0.85 0.85 0 0 1 1.11-0.45 0.84 0.84 0 0 1 0.44 1.11l-15.36 36a0.84 0.84 0 0 1-0.3 0.37l-12.05 8.32-15.29 18.25a0.81 0.81 0 0 1-0.34 0.24l-15.16 6-15.23 18.27a0.85 0.85 0 0 1-0.82 0.29l-14.92-3.06-15 14.81-15.32 22.44a0.77 0.77 0 0 1-0.28 0.26l-18.17 10.49-12.21 22.56a0.83 0.83 0 0 1-0.74 0.45z" fill="#fff"/><path d="m322.45 122.33a0.85 0.85 0 0 1-0.85-0.85v-6l-5.09 3a0.85 0.85 0 0 1-1.15-0.31 0.84 0.84 0 0 1 0.3-1.15l6.36-3.7a0.86 0.86 0 0 1 0.85 0 0.84 0.84 0 0 1 0.42 0.73v7.51a0.85 0.85 0 0 1-0.84 0.77z" fill="#fff"/><polygon points="159.49 328.47 152.4 324.39 132.96 373.74 140.04 377.82 144.07 375.5 144.07 415.4 144.08 415.39 151.15 419.47 151.15 419.48 151.16 419.48 167.82 409.86 167.82 361.79 178.93 355.37" fill="#6da5ea"/><polygon points="151.15 419.48 151.15 371.41 140.04 377.82 159.49 328.47 178.93 355.37 167.82 361.79 167.82 409.86 151.16 419.48" fill="#6da5ea"/><polygon points="151.15 419.48 151.15 371.41 140.04 377.82 159.49 328.47 178.93 355.37 167.82 361.79 167.82 409.86 151.16 419.48" opacity=".3"/><polygon points="132.96 373.74 140.04 377.82 159.49 328.47 152.4 324.39" opacity=".15"/><polygon points="144.07 375.5 140.04 377.82 151.15 371.41 151.15 419.48 144.07 415.4" opacity=".45"/><polygon points="116.11 372.79 109.03 368.7 89.58 418.06 96.67 422.14 100.69 419.81 100.69 440.44 100.7 440.44 107.78 444.51 107.78 444.53 107.79 444.52 124.44 434.9 124.44 406.1 135.55 399.69" fill="#6da5ea"/><polygon points="107.78 444.53 107.78 415.73 96.67 422.14 116.11 372.79 135.55 399.69 124.44 406.1 124.44 434.9 107.79 444.52" fill="#6da5ea"/><g fill="#fff"><polygon points="107.78 444.53 107.78 415.73 96.67 422.14 116.11 372.79 135.55 399.69 124.44 406.1 124.44 434.9 107.79 444.52" opacity=".3"/><polygon points="89.58 418.06 96.67 422.14 116.11 372.79 109.03 368.7" opacity=".55"/><polygon points="100.69 419.81 96.67 422.14 107.78 415.73 107.78 444.53 100.69 440.44" opacity=".1"/></g><path d="m365.76 410.36c0 1.38 0.26 1.91-1.43 3.16s-5.36 1.82-8.15 1.06a7.48 7.48 0 0 1-4.5-2.71 38.38 38.38 0 0 1-2.61-3.94c-0.49-0.63-2.76-1.82-4.95-2.79s-6.71-3.06-8.29-6.8a8.82 8.82 0 0 1-0.49-6.41z" fill="#263238"/><path d="m351 391.39c4.46 2.91 8.21 10.23 14.31 8 0.31 3.59 1.26 7.45 0.41 11-2.6 3.21-8.29 3.83-11.57 1.51-1.65-1.4-2.58-3.05-4.17-4.54a16.16 16.16 0 0 0-4.39-2.67 46.9 46.9 0 0 1-5.31-2.94c-9.81-7.3-4.92-20.61 10.72-10.36z" fill="#37474f"/><path d="m335.32 431.22c0 1.5-0.1 2.62-1 3.25s-7.75 1.76-9.57 2-2.08-1-3.35-0.56-4.25 2.6-8.71 3.59-8.11 2-14.3 0-6.79-4.44-6.71-6.53 43.64-1.75 43.64-1.75z" fill="#263238"/><path d="m334.42 417.26c1 4.28 2.06 10.7 0.9 14-1.25 1.24-5.43 2-9.07 2.46a28.09 28.09 0 0 0-9.65 3c-7.07 2.95-19.51 4-24.47-2.63-4.94-8.89 20.81-6.71 24-17 1.12-3.78 13.62 1.18 18.29 0.17z" fill="#37474f"/><path d="m367.74 362.59c-3.45-36.59-2.74-66.59-3.89-95.79 0 0-50.38-5.35-51.65 12.08s-0.92 66.84-0.52 74.52c0.18 7.78 3 60.4 3 65.89 12.75 6.32 20.66 1.54 20.66 1.54-0.08-7.08 5.45-38.69 2.45-55.95l2-33.66s8.75 56.84 10.23 71c3.76 5.58 14.45 4.28 16.23 0.91 0.02-0.01 2.69-29.78 1.49-40.54z" fill="#455a64"/><g fill="#37474f"><path d="m339.81 331.22 2.87-24.5a27.13 27.13 0 0 0 14.12-8.72c-1.53 5.59-6.84 9.57-10.68 10.93l-4.07 21.07 1.59 26.5z"/><path d="m346.64 325.68c0.6 9.68 1.23 19.69 2.07 24.41 1.32 7.37 5.05 46.16 5.92 55.34a8.82 8.82 0 0 1-0.86-0.31c-0.94-9.83-4.57-47.64-5.87-54.88-0.86-4.77-1.48-14.81-2.09-24.51-0.46-7.3-0.89-14.2-1.37-17.78l0.82-0.11c0.49 3.61 0.92 10.52 1.38 17.84z"/><path d="m321.14 421.73c-1.1-16.55-3.75-58.23-3.53-75 0.25-20 0.92-55.45 2.54-68.37l0.82 0.1c-1.61 12.88-2.28 48.31-2.54 68.28-0.21 16.81 2.46 58.81 3.55 75.17z"/><path d="m318.58 308.87 0.42-0.71c-6.33-3.73-5.58-14.76-5.14-21.35 0-0.49 0.07-1 0.09-1.41h-0.82q0 0.66-0.09 1.41c-0.46 6.73-1.23 18.07 5.54 22.06z"/></g><path d="m363.91 212.82c5.1 2.4 7 5.79 8.73 14.88s4 27.64 3.87 32.06-3.09 7-7.86 6.26-13.4-1.34-13.4-1.34z" fill="#263238"/><path d="m364.15 212.94a159.84 159.84 0 0 0-16.79-6.79c-0.56 2.63-9.49 6.21-16.38 4.81-2.05 0.61-11.91 4.9-12.48 5.28-5.76 3.91-6.31 10.47-6.78 28.31s-0.09 46.7-0.09 46.7c8.79 4.28 24.78 5 34.26 3.85 8.23-1 15-4.1 18.52-7.83 0 0-0.81-15.08-0.47-25.23 0.23-6.6 0.71-9.74 1.54-21.59 1.03-14.7 1.92-23.45-1.33-27.51z" fill="#37474f"/><polygon points="349.5 209.98 348.97 194.87 332.65 203.35 333.1 211.32" fill="#ffa8a7"/><path d="m333 207.63s5.81 2.25 10.89 1.83c5.78-0.48 5.54-3 5.54-3v-1.16s0.91 0 1.48 1.27c0.84 1.83 1.39 3.43 1.39 3.43s1 3.32-4.94 4.86c-8.52 2.22-18.7-2.92-18.7-2.92l-1.82 0.66s3.29-4.51 4.74-5.59a2.51 2.51 0 0 1 1.36-0.64z" fill="#263238"/><path d="m322 183.06s-4.06 5.65-3.64 6.24 3.2 1.21 3.2 1.21z" fill="#f28f8f"/><path d="m323.69 186.86a4.56 4.56 0 1 1 4.74-4.37 4.57 4.57 0 0 1-4.74 4.37zm0.32-8.1a3.55 3.55 0 1 0 3.4 3.69 3.55 3.55 0 0 0-3.41-3.69z" fill="#263238"/><path d="m333.93 167.44c-7.8 1.32-11 4.76-12.25 17-1.28 12.81 0.72 16.77 2.34 18.56 1.09 1.22 7.41 1.68 10.64 0.93 4-0.94 13.2-3.78 17.69-10.07 5.29-7.4 7-17.65 1.85-22.09-7.26-6.22-17.09-4.87-20.27-4.33z" fill="#ffa8a7"/><path d="m332.72 204.25-0.26-2.39a15.27 15.27 0 0 1-8 1.48c1.44 0.79 5.28 1.15 8.26 0.91z" fill="#f28f8f"/><g fill="#263238"><polygon points="332.96 184.47 319.83 182.22 319.87 181.19 333.56 183.52"/><path d="m320.16 170.91a4.05 4.05 0 0 0-0.7 2.17 3.63 3.63 0 0 0 1.84 3.25 3.15 3.15 0 0 0 3.63-0.52 4.05 4.05 0 0 0 1.16 3.65 2.87 2.87 0 0 0 3.66 0.14c-0.29 0.7-0.51 1.66 0.11 2.09a1.27 1.27 0 0 0 0.53 0.2 2.7 2.7 0 0 0 1.61-0.2 2.6 2.6 0 0 0-0.56 2.31c0.09 0.26 1.49 1.83 1.55 1.63 0 0 1.41-4.7 5.39-3.94s4.34 5.92 1.68 8.94-4.95 1.74-5 1.72c0.07 0.83 0.21 5.29 4 7.66 2.34 1.44 6.53 2.82 10.09 1.53 2.38-1 4-3.72 6.34-7.42a46.73 46.73 0 0 0 4.35-10c1.13-4 1.26-5.92 0.43-8.83a7.3 7.3 0 0 0-5.4-5.26c-0.28-2.82-0.81-5-4-7.4-5-3.82-10.5-3.86-14.75-3.43a24.17 24.17 0 0 1-4.39 0.37c-1.27-0.11-2.49-0.56-3.75-0.71a4 4 0 0 0-3.51 1 4.09 4.09 0 0 0-0.36 3.84 6.29 6.29 0 0 0-2.89 1 3.52 3.52 0 0 0-1.53 2.56 2.42 2.42 0 0 0 1.53 2.43 4.41 4.41 0 0 0-1.06 1.22z"/><path d="m332.8 188.34 0.36-5.37a2.691 2.691 0 1 0-0.36 5.37z"/></g><path d="m281.67 191.48-25.07 13.08a3.16 3.16 0 0 0-1.47 3.78l13 35.49a2.21 2.21 0 0 0 3.27 1.22l23.16-13a3.45 3.45 0 0 0 1.54-3.89l-11.23-35.36a2.18 2.18 0 0 0-3.2-1.32z" fill="#455a64"/><path d="m281.1 195-21.86 11.41a2.08 2.08 0 0 0-1 2.51l11.86 31.5a1.5 1.5 0 0 0 2.2 0.81l20.24-11.34a2.27 2.27 0 0 0 1-2.58l-10.33-31.43a1.47 1.47 0 0 0-2.11-0.88z" fill="#fff"/><g fill="#e0e0e0"><path d="m261.32 209.49a0.37 0.37 0 0 1-0.17-0.7l20.32-10.6a0.36 0.36 0 0 1 0.5 0.16 0.37 0.37 0 0 1-0.15 0.5l-20.33 10.6a0.33 0.33 0 0 1-0.17 0.04z"/><path d="m262.26 212.14a0.35 0.35 0 0 1-0.33-0.2 0.37 0.37 0 0 1 0.15-0.5l20.33-10.6a0.37 0.37 0 0 1 0.5 0.15 0.38 0.38 0 0 1-0.16 0.5l-20.32 10.61a0.38 0.38 0 0 1-0.17 0.04z"/><path d="m263.19 214.79a0.4 0.4 0 0 1-0.33-0.2 0.38 0.38 0 0 1 0.16-0.5l20.32-10.61a0.38 0.38 0 0 1 0.5 0.16 0.37 0.37 0 0 1-0.15 0.5l-20.33 10.6a0.34 0.34 0 0 1-0.17 0.05z"/><path d="m264.13 217.43a0.35 0.35 0 0 1-0.33-0.2 0.37 0.37 0 0 1 0.15-0.5l20.33-10.6a0.37 0.37 0 0 1 0.5 0.15 0.37 0.37 0 0 1-0.16 0.5l-20.32 10.61a0.38 0.38 0 0 1-0.17 0.04z"/><path d="m265.06 220.08a0.37 0.37 0 0 1-0.17-0.7l20.32-10.61a0.38 0.38 0 0 1 0.5 0.16 0.36 0.36 0 0 1-0.16 0.5l-20.32 10.57a0.47 0.47 0 0 1-0.17 0.08z"/><path d="m266 222.72a0.35 0.35 0 0 1-0.33-0.2 0.37 0.37 0 0 1 0.15-0.5l20.33-10.6a0.36 0.36 0 0 1 0.5 0.16 0.38 0.38 0 0 1-0.16 0.5l-20.32 10.6a0.38 0.38 0 0 1-0.17 0.04z"/><path d="m266.93 225.37a0.37 0.37 0 0 1-0.17-0.7l20.32-10.6a0.36 0.36 0 0 1 0.5 0.15 0.36 0.36 0 0 1-0.16 0.5l-20.32 10.61a0.33 0.33 0 0 1-0.17 0.04z"/><path d="m267.86 228a0.37 0.37 0 0 1-0.32-0.2 0.36 0.36 0 0 1 0.15-0.5l20.31-10.59a0.37 0.37 0 0 1 0.5 0.16 0.37 0.37 0 0 1-0.15 0.5l-20.35 10.63a0.41 0.41 0 0 1-0.14 0z"/><path d="m268.8 230.66a0.38 0.38 0 0 1-0.33-0.2 0.36 0.36 0 0 1 0.16-0.5l20.37-10.6a0.37 0.37 0 1 1 0.34 0.65l-20.34 10.61a0.33 0.33 0 0 1-0.2 0.04z"/><path d="m269.73 233.31a0.37 0.37 0 0 1-0.17-0.7l20.32-10.61a0.37 0.37 0 0 1 0.5 0.16 0.36 0.36 0 0 1-0.15 0.5l-20.32 10.61a0.58 0.58 0 0 1-0.18 0.04z"/><path d="m270.67 236a0.37 0.37 0 0 1-0.17-0.7l20.32-10.6a0.36 0.36 0 0 1 0.5 0.16 0.38 0.38 0 0 1-0.16 0.5l-20.32 10.6a0.33 0.33 0 0 1-0.17 0.04z"/><path d="m271.6 238.6a0.37 0.37 0 0 1-0.17-0.7l20.32-10.61a0.37 0.37 0 0 1 0.5 0.16 0.36 0.36 0 0 1-0.15 0.5l-20.33 10.61a0.33 0.33 0 0 1-0.17 0.04z"/></g><path d="m318.07 217.43c-6.9 0.6-12.45 5.62-16 12.47-5.29 10.3-13.87 23.69-15.24 26-1.91 3.22-2.27 8.12-0.62 11.07 1.53 2.77 6.4 4 11.93-2.21 6.56-7.42 18.78-25.53 18.78-25.53s8.84-10.23 1.15-21.8z" fill="#ffa8a7"/><path d="m263.11 225.13v-0.13a16.42 16.42 0 0 1 0.08-3.64 3.21 3.21 0 0 1 1.37-2.31 1.2 1.2 0 0 1 1.56 0.14 2.49 2.49 0 0 1 0.28 1.24 9.41 9.41 0 0 0 0.4 2.23 14.23 14.23 0 0 0 0.88 1.85 8.85 8.85 0 0 1 0.66 2.52c0.1 0.81 0.17 1.61 0.3 2.4 0.24 1.52 0.33 3.17 1.24 4.48 1.37 2 18.23 16.71 18.23 16.71l1 18.49c-5.28-0.64-17.48-15.51-21.6-20.54-4.51-5.51-6.91-8.2-9.57-11.27s-3.53-7.63-3.72-10.5c-0.23-3.41 0.38-5.15 1.11-8.49 0-2.38 0-3.9 1.66-4.91l2.69 7.34 1.74 4.78c0.33 0.3 0.53 0.58 1 0.61a0.9 0.9 0 0 0 0.37-0.06c0.3-0.17 0.34-0.57 0.32-0.94z" fill="#ffa8a7"/><path d="m318.5 216.24c-10.79 2.87-10.77 4.24-14.66 9.29s-15.71 23.47-15.71 23.47l-13.47-10.4s-7.08 1.45-8.1 8.83c0 0 9 12.39 13.94 17.16 3.94 3.8 8.22 6.37 11.6 5.13s5.58-3.28 13.84-12.6c5.66-6.39 9.33-10.55 12.87-15.06s8.99-21.22-0.31-25.82z" fill="#263238"/></g></svg>
