<svg width="400" height="400" version="1.1" viewBox="0 0 400 400" xmlns="http://www.w3.org/2000/svg"><g transform="matrix(.88198 0 0 .88197 -15.984 -17.522)"><g fill="#e0e0e0"><path d="m121.1 456.46-9.79-5.75a6.08 6.08 0 0 0-5.51 0l-15.18 8.76a6.1 6.1 0 0 1-5.52 0l-51.39-29.67c-1.53-0.88-1.53-2.31 0-3.18l170.39-98.38a6.08 6.08 0 0 1 5.51 0l51.39 29.67c1.52 0.88 1.53 2.32 0 3.21l-15.2 8.94c-1.52 0.89-1.51 2.31 0 3.18l9.76 5.57c1.53 0.87 1.54 2.29 0 3.17l-129 74.48a6.08 6.08 0 0 1-5.46 0z"/><ellipse cx="373.89" cy="418.69" rx="82.11" ry="47.41"/></g><path d="m62 58.8c0-2.46 2.07-5.91 1.44-7.75l-4.57-2.64-9.14 23-9.33 5.31-4.65-6.72 13.79-20.6-4.54-2.64c-0.58 0.27-1.16 0.57-1.75 0.91-10.42 5.92-18.94 20.51-19 32.59 0 6.1 2.08 10.37 5.52 12.36l4.55 2.63 0.52-1.38h0.34v107c-6.44 7.13-10.91 17.13-10.97 25.87 0 4.53 1.13 8 3.13 10.39l4.57 2.64 4.58-25.63 9.33-5.3 4.61 6.72-9.23 23.22 4.57 2.64s16.11-24.06 16.23-36.14a17.12 17.12 0 0 0-2-8.69l1.14-1-4.53-2.59a9.81 9.81 0 0 0-5.61-1.33v-106.97c6.44-7.14 10.91-17.16 11-25.9z" fill="#6da5ea"/><path d="m62 58.8c0-2.46 2.07-5.91 1.44-7.75l-4.57-2.64-9.14 23-9.33 5.31-4.65-6.72 13.79-20.6-4.54-2.64c-0.58 0.27-1.16 0.57-1.75 0.91-10.42 5.92-18.94 20.51-19 32.59 0 6.1 2.08 10.37 5.52 12.36l4.55 2.63 0.52-1.38h0.34v107c-6.44 7.13-10.91 17.13-10.97 25.87 0 4.53 1.13 8 3.13 10.39l4.57 2.64 4.58-25.63 9.33-5.3 4.61 6.72-9.23 23.22 4.57 2.64s16.11-24.06 16.23-36.14a17.12 17.12 0 0 0-2-8.69l1.14-1-4.53-2.59a9.81 9.81 0 0 0-5.61-1.33v-106.97c6.44-7.14 10.91-17.16 11-25.9z" fill="#fff" opacity=".2"/><path d="m55.6 194.31v-107c6.4-7.11 10.87-17.14 10.93-25.87 0-4.53-1.13-8-3.13-10.39l-9.15 22.95-9.32 5.3-4.61-6.72 9.22-23.18c-0.58 0.27-1.16 0.57-1.75 0.9-10.42 5.93-18.93 20.52-19 32.6-0.06 8.85 4.43 13.87 10.92 13.61v107c-6.4 7.14-10.86 17.16-10.92 25.9 0 4.53 1.13 8.05 3.13 10.39l9.14-23 9.33-5.31 4.61 6.71-9.22 23.22c0.57-0.27 1.15-0.57 1.75-0.91 10.42-5.92 18.93-20.51 19-32.59 0.06-8.86-4.43-13.87-10.93-13.61z" fill="#6da5ea"/><path d="m55.6 194.31v-107c6.4-7.11 10.87-17.14 10.93-25.87 0-4.53-1.13-8-3.13-10.39l-9.15 22.95-9.32 5.3-4.61-6.72 9.22-23.18c-0.58 0.27-1.16 0.57-1.75 0.9-10.42 5.93-18.93 20.52-19 32.6-0.06 8.85 4.43 13.87 10.92 13.61v107c-6.4 7.14-10.86 17.16-10.92 25.9 0 4.53 1.13 8.05 3.13 10.39l9.14-23 9.33-5.31 4.61 6.71-9.22 23.22c0.57-0.27 1.15-0.57 1.75-0.91 10.42-5.92 18.93-20.51 19-32.59 0.06-8.86-4.43-13.87-10.93-13.61z" fill="#fff" opacity=".55"/><path d="m48.4 212.6 2 3-9.2 23.18 4.57 2.64 9.23-23.22-4.61-6.73zm5.85-138.6 9.15-23-4.57-2.64-9.14 23-7.34 4.18 2.58 3.76z" fill="#6da5ea"/><path d="m48.4 212.6 2 3-9.2 23.18 4.57 2.64 9.23-23.22-4.61-6.73zm5.85-138.6 9.15-23-4.57-2.64-9.14 23-7.34 4.18 2.58 3.76z" fill="#fff" opacity=".2"/><path d="m48.4 212.6 2 3-9.2 23.18 4.57 2.64 9.23-23.22-4.61-6.73zm5.85-138.6 9.15-23-4.57-2.64-9.14 23-7.34 4.18 2.58 3.76z" opacity=".1"/><path d="m446.34 193.86-7.72-4.42a0.85 0.85 0 0 0-0.79 0l-5.27 2.38a2.27 2.27 0 0 1 0.16-1.28l6.08-12.27a1.38 1.38 0 0 0-0.54-1.78l-6.6-3.82-7.66-4.42a1.39 1.39 0 0 0-1.82 0.43l-7.58 11.4a2.21 2.21 0 0 1-1 0.76l-0.58-5.78a0.85 0.85 0 0 0-0.39-0.69l-7.74-4.44a0.85 0.85 0 0 0-0.83 0.08l-10.25 5.92a2.75 2.75 0 0 0-1.22 1.91l-1 11.41a3.81 3.81 0 0 1-1.07 2.13 61.67 61.67 0 0 0-5.69 6 2 2 0 0 1-2 0.57l-6.58-2.3a1.61 1.61 0 0 0-1.84 0.69l-7.54 13a1.6 1.6 0 0 0 0.33 2l5.28 4.55a2 2 0 0 1 0.51 2 61 61 0 0 0-2.37 8 3.84 3.84 0 0 1-1.31 2l-9.37 6.6a2.75 2.75 0 0 0-1.05 2v11.84a0.82 0.82 0 0 0 0.37 0.76l7.72 4.42a0.87 0.87 0 0 0 0.8 0l5.27-2.38a2.35 2.35 0 0 1-0.16 1.28l-6.08 12.27a1.36 1.36 0 0 0 0.54 1.78l9.26 5.33 5 2.9a1.38 1.38 0 0 0 1.81-0.43l7.58-11.4a2.34 2.34 0 0 1 1-0.76l0.58 5.78a0.88 0.88 0 0 0 0.4 0.7l7.71 4.42a0.83 0.83 0 0 0 0.84-0.06l10.2-5.94a2.76 2.76 0 0 0 1.23-1.91l1-11.41a3.88 3.88 0 0 1 1.07-2.13 61.75 61.75 0 0 0 5.7-6 2 2 0 0 1 2-0.57l6.58 2.3a1.6 1.6 0 0 0 1.85-0.69l7.54-13.05a1.63 1.63 0 0 0-0.33-1.95l-5.25-4.59a2 2 0 0 1-0.52-2 63 63 0 0 0 2.38-7.94 3.75 3.75 0 0 1 1.31-2l9.37-6.6a2.77 2.77 0 0 0 1-2v-11.84a0.83 0.83 0 0 0-0.32-0.76zm-57.06 39.83c0-11.05 7.76-24.48 17.33-30 3.74-2.16 7.2-2.79 10-2.1 1.46 2 2.25 5.14 2.25 9.19 0 11.05-7.76 24.48-17.32 30-3.75 2.16-6.93 2.86-9.42 2.27-1.78-2.12-2.84-5.29-2.84-9.36z" fill="#6da5ea"/><path d="m446.34 193.86-7.72-4.42a0.85 0.85 0 0 0-0.79 0l-5.27 2.38a2.27 2.27 0 0 1 0.16-1.28l6.08-12.27a1.38 1.38 0 0 0-0.54-1.78l-6.6-3.82-7.66-4.42a1.39 1.39 0 0 0-1.82 0.43l-7.58 11.4a2.21 2.21 0 0 1-1 0.76l-0.58-5.78a0.85 0.85 0 0 0-0.39-0.69l-7.74-4.44a0.85 0.85 0 0 0-0.83 0.08l-10.25 5.92a2.75 2.75 0 0 0-1.22 1.91l-1 11.41a3.81 3.81 0 0 1-1.07 2.13 61.67 61.67 0 0 0-5.69 6 2 2 0 0 1-2 0.57l-6.58-2.3a1.61 1.61 0 0 0-1.84 0.69l-7.54 13a1.6 1.6 0 0 0 0.33 2l5.28 4.55a2 2 0 0 1 0.51 2 61 61 0 0 0-2.37 8 3.84 3.84 0 0 1-1.31 2l-9.37 6.6a2.75 2.75 0 0 0-1.05 2v11.84a0.82 0.82 0 0 0 0.37 0.76l7.72 4.42a0.87 0.87 0 0 0 0.8 0l5.27-2.38a2.35 2.35 0 0 1-0.16 1.28l-6.08 12.27a1.36 1.36 0 0 0 0.54 1.78l9.26 5.33 5 2.9a1.38 1.38 0 0 0 1.81-0.43l7.58-11.4a2.34 2.34 0 0 1 1-0.76l0.58 5.78a0.88 0.88 0 0 0 0.4 0.7l7.71 4.42a0.83 0.83 0 0 0 0.84-0.06l10.2-5.94a2.76 2.76 0 0 0 1.23-1.91l1-11.41a3.88 3.88 0 0 1 1.07-2.13 61.75 61.75 0 0 0 5.7-6 2 2 0 0 1 2-0.57l6.58 2.3a1.6 1.6 0 0 0 1.85-0.69l7.54-13.05a1.63 1.63 0 0 0-0.33-1.95l-5.25-4.59a2 2 0 0 1-0.52-2 63 63 0 0 0 2.38-7.94 3.75 3.75 0 0 1 1.31-2l9.37-6.6a2.77 2.77 0 0 0 1-2v-11.84a0.83 0.83 0 0 0-0.32-0.76zm-57.06 39.83c0-11.05 7.76-24.48 17.33-30 3.74-2.16 7.2-2.79 10-2.1 1.46 2 2.25 5.14 2.25 9.19 0 11.05-7.76 24.48-17.32 30-3.75 2.16-6.93 2.86-9.42 2.27-1.78-2.12-2.84-5.29-2.84-9.36z" fill="#fff" opacity=".2"/><path d="m378.33 250.1a1.09 1.09 0 0 0-1.52-0.71l-3.81 1.74a2.27 2.27 0 0 1-0.17 1.28l-6.09 12.27a1.39 1.39 0 0 0 0.55 1.79l9.26 5.32-1.55-0.9a1.38 1.38 0 0 1-0.55-1.78l6.09-12.27a2.53 2.53 0 0 0-0.14-2.21 20.41 20.41 0 0 1-2.07-4.53zm22.22 22.9a1 1 0 0 1-0.31-0.65l-1-10a1.08 1.08 0 0 0-1.36-1 21.08 21.08 0 0 1-4.94 0.5 2.35 2.35 0 0 0-1 0.21l0.58 5.79a0.83 0.83 0 0 0 0.4 0.69z" opacity=".1"/><path d="m423.92 213.69c0 11-7.74 24.48-17.31 30-6.05 3.49-11.37 3-14.47-0.64 2.49 0.6 5.68-0.1 9.43-2.27 9.57-5.52 17.31-18.95 17.31-30 0-4.05-0.77-7.15-2.23-9.19 4.41 1.08 7.27 5.41 7.27 12.1z" opacity=".1"/><path d="m423.94 168.25a1.38 1.38 0 0 0-1.81 0.43l-7.58 11.4a1.81 1.81 0 0 1-0.51 0.48l7.72 4.44a1.83 1.83 0 0 0 0.5-0.5l7.58-11.4a1.41 1.41 0 0 1 1.66-0.51zm14.67 21.17a0.87 0.87 0 0 0-0.79 0l-5.27 2.38a2.69 2.69 0 0 0 0.31 0.93 20.42 20.42 0 0 1 1.95 4.3 1.55 1.55 0 0 1 0.08 0.23 1.29 1.29 0 0 0 0.27 0.47l0.13 0.12a1.3 1.3 0 0 0 0.31 0.16 1.05 1.05 0 0 0 0.56 0 0.81 0.81 0 0 0 0.25-0.08l9.13-4.12a1 1 0 0 1 0.23-0.08 0.55 0.55 0 0 1 0.31 0 0.54 0.54 0 0 1 0.26 0.09zm-33.76-19.49a0.85 0.85 0 0 0-0.83 0.08l-10.25 5.92a2.75 2.75 0 0 0-1 1.23l7.7 4.43a2.67 2.67 0 0 1 1-1.24l10.25-5.92a0.87 0.87 0 0 1 0.78-0.1zm-34.92 57.19a3.26 3.26 0 0 1-0.71 0.76l-9.37 6.59a2.59 2.59 0 0 0-0.62 0.72l7.7 4.41a2.15 2.15 0 0 1 0.63-0.7l9.37-6.59a3.3 3.3 0 0 0 0.72-0.76zm5.7-31.51a1.62 1.62 0 0 0-1.32 0.76l-7.54 13a1.58 1.58 0 0 0-0.17 1l7.71 4.43a1.52 1.52 0 0 1 0.17-1l7.52-13.01a1.56 1.56 0 0 1 1.22-0.76z" fill="#6da5ea"/><path d="m423.94 168.25a1.38 1.38 0 0 0-1.81 0.43l-7.58 11.4a1.81 1.81 0 0 1-0.51 0.48l7.72 4.44a1.83 1.83 0 0 0 0.5-0.5l7.58-11.4a1.41 1.41 0 0 1 1.66-0.51zm14.67 21.17a0.87 0.87 0 0 0-0.79 0l-5.27 2.38a2.69 2.69 0 0 0 0.31 0.93 20.42 20.42 0 0 1 1.95 4.3 1.55 1.55 0 0 1 0.08 0.23 1.29 1.29 0 0 0 0.27 0.47l0.13 0.12a1.3 1.3 0 0 0 0.31 0.16 1.05 1.05 0 0 0 0.56 0 0.81 0.81 0 0 0 0.25-0.08l9.13-4.12a1 1 0 0 1 0.23-0.08 0.55 0.55 0 0 1 0.31 0 0.54 0.54 0 0 1 0.26 0.09zm-33.76-19.49a0.85 0.85 0 0 0-0.83 0.08l-10.25 5.92a2.75 2.75 0 0 0-1 1.23l7.7 4.43a2.67 2.67 0 0 1 1-1.24l10.25-5.92a0.87 0.87 0 0 1 0.78-0.1zm-34.92 57.19a3.26 3.26 0 0 1-0.71 0.76l-9.37 6.59a2.59 2.59 0 0 0-0.62 0.72l7.7 4.41a2.15 2.15 0 0 1 0.63-0.7l9.37-6.59a3.3 3.3 0 0 0 0.72-0.76zm5.7-31.51a1.62 1.62 0 0 0-1.32 0.76l-7.54 13a1.58 1.58 0 0 0-0.17 1l7.71 4.43a1.52 1.52 0 0 1 0.17-1l7.52-13.01a1.56 1.56 0 0 1 1.22-0.76z" fill="#fff" opacity=".7"/><path d="m446.7 206.46v-11.84a0.76 0.76 0 0 0-1.16-0.76l-9.13 4.14a1.08 1.08 0 0 1-1.52-0.71 20.55 20.55 0 0 0-2-4.52 2.53 2.53 0 0 1-0.13-2.21l6.08-12.27a1.38 1.38 0 0 0-0.54-1.78l-6.6-3.82a1.39 1.39 0 0 0-1.82 0.43l-7.58 11.4a2.52 2.52 0 0 1-2 1 20.46 20.46 0 0 0-4.94 0.5 1.08 1.08 0 0 1-1.37-1l-1-10a0.77 0.77 0 0 0-1.24-0.63l-10.25 5.92a2.75 2.75 0 0 0-1.22 1.91l-1 11.41a3.78 3.78 0 0 1-1.07 2.13 61.67 61.67 0 0 0-5.69 6 1.94 1.94 0 0 1-2 0.57l-6.58-2.3a1.62 1.62 0 0 0-1.85 0.69l-7.53 13.06a1.59 1.59 0 0 0 0.33 1.94l5.28 4.55a2 2 0 0 1 0.51 2 61 61 0 0 0-2.37 7.95 3.9 3.9 0 0 1-1.31 2l-9.37 6.59a2.77 2.77 0 0 0-1.05 2v11.84a0.77 0.77 0 0 0 1.17 0.75l9.13-4.11a1.09 1.09 0 0 1 1.52 0.7 20.12 20.12 0 0 0 2 4.52 2.55 2.55 0 0 1 0.14 2.22l-6.09 12.26a1.39 1.39 0 0 0 0.54 1.79l6.61 3.81a1.38 1.38 0 0 0 1.81-0.43l7.58-11.4a2.51 2.51 0 0 1 2-1 20.46 20.46 0 0 0 4.94-0.5 1.07 1.07 0 0 1 1.36 1l1 10a0.77 0.77 0 0 0 1.24 0.64l10.2-5.9a2.76 2.76 0 0 0 1.23-1.91l1-11.41a3.88 3.88 0 0 1 1.07-2.13 61.75 61.75 0 0 0 5.7-6 2 2 0 0 1 2-0.57l6.58 2.3a1.6 1.6 0 0 0 1.85-0.69l7.54-13.05a1.63 1.63 0 0 0-0.33-1.95l-5.25-4.59a2 2 0 0 1-0.52-2 63 63 0 0 0 2.38-7.94 3.75 3.75 0 0 1 1.31-2l9.37-6.6a2.77 2.77 0 0 0 1.04-2zm-40.09 37.23c-9.57 5.52-17.33 1-17.33-10s7.76-24.48 17.33-30 17.32-1.05 17.32 10-7.76 24.48-17.32 30z" fill="#6da5ea"/><g fill="#fff" opacity=".55"><path d="m446.7 206.46v-11.84a0.76 0.76 0 0 0-1.16-0.76l-9.13 4.14a1.08 1.08 0 0 1-1.52-0.71 20.55 20.55 0 0 0-2-4.52 2.53 2.53 0 0 1-0.13-2.21l6.08-12.27a1.38 1.38 0 0 0-0.54-1.78l-6.6-3.82a1.39 1.39 0 0 0-1.82 0.43l-7.58 11.4a2.52 2.52 0 0 1-2 1 20.46 20.46 0 0 0-4.94 0.5 1.08 1.08 0 0 1-1.37-1l-1-10a0.77 0.77 0 0 0-1.24-0.63l-10.25 5.92a2.75 2.75 0 0 0-1.22 1.91l-1 11.41a3.78 3.78 0 0 1-1.07 2.13 61.67 61.67 0 0 0-5.69 6 1.94 1.94 0 0 1-2 0.57l-6.58-2.3a1.62 1.62 0 0 0-1.85 0.69l-7.53 13.06a1.59 1.59 0 0 0 0.33 1.94l5.28 4.55a2 2 0 0 1 0.51 2 61 61 0 0 0-2.37 7.95 3.9 3.9 0 0 1-1.31 2l-9.37 6.59a2.77 2.77 0 0 0-1.05 2v11.84a0.77 0.77 0 0 0 1.17 0.75l9.13-4.11a1.09 1.09 0 0 1 1.52 0.7 20.12 20.12 0 0 0 2 4.52 2.55 2.55 0 0 1 0.14 2.22l-6.09 12.26a1.39 1.39 0 0 0 0.54 1.79l6.61 3.81a1.38 1.38 0 0 0 1.81-0.43l7.58-11.4a2.51 2.51 0 0 1 2-1 20.46 20.46 0 0 0 4.94-0.5 1.07 1.07 0 0 1 1.36 1l1 10a0.77 0.77 0 0 0 1.24 0.64l10.2-5.9a2.76 2.76 0 0 0 1.23-1.91l1-11.41a3.88 3.88 0 0 1 1.07-2.13 61.75 61.75 0 0 0 5.7-6 2 2 0 0 1 2-0.57l6.58 2.3a1.6 1.6 0 0 0 1.85-0.69l7.54-13.05a1.63 1.63 0 0 0-0.33-1.95l-5.25-4.59a2 2 0 0 1-0.52-2 63 63 0 0 0 2.38-7.94 3.75 3.75 0 0 1 1.31-2l9.37-6.6a2.77 2.77 0 0 0 1.04-2zm-40.09 37.23c-9.57 5.52-17.33 1-17.33-10s7.76-24.48 17.33-30 17.32-1.05 17.32 10-7.76 24.48-17.32 30z"/><path d="m382.22 275.38a1.91 1.91 0 0 1-0.92-0.24l-6.6-3.82a1.9 1.9 0 0 1-0.74-2.44l6.09-12.27a2 2 0 0 0-0.12-1.72 20.85 20.85 0 0 1-2.08-4.64 0.69 0.69 0 0 0-0.35-0.41 0.6 0.6 0 0 0-0.49 0l-9.12 4.16a1.37 1.37 0 0 1-1.31 0 1.36 1.36 0 0 1-0.57-1.17v-11.91a3.27 3.27 0 0 1 1.26-2.43l9.37-6.59a3.35 3.35 0 0 0 1.11-1.69 61.58 61.58 0 0 1 2.39-8 1.49 1.49 0 0 0-0.37-1.48l-5.28-4.55a2.1 2.1 0 0 1-0.44-2.57l7.54-13.06a2.08 2.08 0 0 1 2.45-0.91l6.58 2.3a1.48 1.48 0 0 0 1.46-0.42 63.05 63.05 0 0 1 5.74-6.08 3.27 3.27 0 0 0 0.91-1.8l1-11.41a3.28 3.28 0 0 1 1.47-2.31l10.28-5.92a1.37 1.37 0 0 1 1.31-0.09 1.35 1.35 0 0 1 0.68 1.11l1 10a0.62 0.62 0 0 0 0.23 0.44 0.68 0.68 0 0 0 0.53 0.09 20.77 20.77 0 0 1 5.06-0.52 2 2 0 0 0 1.55-0.76l7.58-11.4a1.89 1.89 0 0 1 2.49-0.58l6.6 3.81a1.89 1.89 0 0 1 0.74 2.45l-6.08 12.26a2 2 0 0 0 0.11 1.73 21 21 0 0 1 2.09 4.63 0.64 0.64 0 0 0 0.34 0.42 0.6 0.6 0 0 0 0.49 0l9.13-4.11a1.26 1.26 0 0 1 1.88 1.21v11.84a3.32 3.32 0 0 1-1.26 2.43l-9.37 6.59a3.27 3.27 0 0 0-1.11 1.69 63.66 63.66 0 0 1-2.39 8 1.46 1.46 0 0 0 0.37 1.47l5.28 4.55a2.1 2.1 0 0 1 0.43 2.58l-7.54 13.06a2.1 2.1 0 0 1-2.44 0.91l-6.59-2.3a1.48 1.48 0 0 0-1.46 0.41 61.9 61.9 0 0 1-5.74 6.08 3.29 3.29 0 0 0-0.9 1.81l-1 11.41a3.3 3.3 0 0 1-1.47 2.3l-10.26 5.92a1.33 1.33 0 0 1-1.3 0.09 1.34 1.34 0 0 1-0.69-1.11l-1-10a0.58 0.58 0 0 0-0.23-0.43 0.6 0.6 0 0 0-0.53-0.09 21.17 21.17 0 0 1-5.05 0.51 2 2 0 0 0-1.52 0.76l-7.58 11.4a1.89 1.89 0 0 1-1.64 0.81zm-4.93-26.6a1.59 1.59 0 0 1 1.51 1.22 19.73 19.73 0 0 0 2 4.41 3 3 0 0 1 0.16 2.7l-6.08 12.27a0.87 0.87 0 0 0 0.34 1.12l6.6 3.81a0.87 0.87 0 0 0 1.18-0.31l7.58-11.4a3.13 3.13 0 0 1 2.42-1.21 20.36 20.36 0 0 0 4.82-0.48 1.62 1.62 0 0 1 1.33 0.25 1.59 1.59 0 0 1 0.65 1.15l1 10a0.4 0.4 0 0 0 0.14 0.32 0.43 0.43 0 0 0 0.34-0.07l10.25-5.92a2.28 2.28 0 0 0 1-1.52l1-11.41a4.29 4.29 0 0 1 1.23-2.46 59.92 59.92 0 0 0 5.65-6 2.48 2.48 0 0 1 2.57-0.72l6.58 2.29a1.07 1.07 0 0 0 1.24-0.46l7.54-13.05a1.09 1.09 0 0 0-0.22-1.31l-5.28-4.56a2.46 2.46 0 0 1-0.66-2.58 61.82 61.82 0 0 0 2.36-7.89 4.2 4.2 0 0 1 1.51-2.28l9.37-6.6a2.27 2.27 0 0 0 0.83-1.6v-11.87a0.39 0.39 0 0 0-0.11-0.33h-0.35l-9.12 4.12a1.56 1.56 0 0 1-1.32 0 1.62 1.62 0 0 1-0.89-1 20.25 20.25 0 0 0-2-4.42 3 3 0 0 1-0.17-2.7l6.09-12.26a0.88 0.88 0 0 0-0.34-1.13l-6.6-3.81a0.88 0.88 0 0 0-1.15 0.27l-7.58 11.4a3 3 0 0 1-2.42 1.21 19.7 19.7 0 0 0-4.81 0.49 1.65 1.65 0 0 1-1.34-0.26 1.6 1.6 0 0 1-0.64-1.15l-1-10a0.41 0.41 0 0 0-0.14-0.31 0.36 0.36 0 0 0-0.34 0.07l-10.26 5.91a2.31 2.31 0 0 0-1 1.53l-1 11.41a4.2 4.2 0 0 1-1.23 2.45 63.37 63.37 0 0 0-5.64 6 2.48 2.48 0 0 1-2.57 0.73l-6.58-2.3a1.1 1.1 0 0 0-1.25 0.46l-7.54 13.06a1.11 1.11 0 0 0 0.22 1.31l5.28 4.55a2.47 2.47 0 0 1 0.66 2.59 61.13 61.13 0 0 0-2.35 7.88 4.34 4.34 0 0 1-1.51 2.29l-9.37 6.59a2.25 2.25 0 0 0-0.84 1.61v11.84a0.37 0.37 0 0 0 0.12 0.32 0.35 0.35 0 0 0 0.34 0l9.13-4.11a1.7 1.7 0 0 1 0.66-0.15zm21.58-2.22a9.37 9.37 0 0 1-4.76-1.22c-3.44-2-5.33-6.12-5.33-11.65 0-11.19 7.89-24.85 17.58-30.44 4.79-2.77 9.31-3.2 12.75-1.21s5.32 6.12 5.32 11.65c0 11.19-7.88 24.84-17.57 30.43a16.16 16.16 0 0 1-7.99 2.44zm15.47-44.74a15.25 15.25 0 0 0-7.48 2.3c-9.41 5.44-17.07 18.7-17.07 29.57 0 5.15 1.71 9 4.82 10.78s7.28 1.36 11.75-1.22c9.41-5.43 17.07-18.7 17.07-29.56 0-5.16-1.72-9-4.83-10.78a8.39 8.39 0 0 0-4.26-1.09z"/></g><path d="m458.14 115.1a4.44 4.44 0 0 1 1.18-2.4l4.84-4.45a2.91 2.91 0 0 0 0.81-2.38l-0.91-5.27a1 1 0 0 0-0.46-0.74l-5.73-3.31a0.93 0.93 0 0 0-1 0.09l-2.07 1.36 2-5.43a1.2 1.2 0 0 0-0.56-1.5l-5.74-3.3a1.26 1.26 0 0 0-0.38-0.15l-3.65-0.82a2 2 0 0 0-2.06 1l-3.41 6.49a3.4 3.4 0 0 1-1.36 1.26l-0.14-0.55a1 1 0 0 0-0.46-0.64l-5.75-3.32a0.93 0.93 0 0 0-1.07 0.15l-5.46 4.29a3 3 0 0 0-1 2.32l0.24 5.2a4.14 4.14 0 0 1-0.84 2.51 41.51 41.51 0 0 0-2.54 3.35 2.8 2.8 0 0 1-2.22 1.13l-3.51-0.17a2.26 2.26 0 0 0-2 1.24l-3.3 7.39a1.4 1.4 0 0 0 0.57 1.78l3.9 2.24a1.83 1.83 0 0 1 0.09 1 32.22 32.22 0 0 0-0.61 3.53 4.47 4.47 0 0 1-1.18 2.4l-4.84 4.44a2.94 2.94 0 0 0-0.81 2.39l0.91 5.27a1 1 0 0 0 0.43 0.72l5.77 3.33a0.91 0.91 0 0 0 1-0.1l2.08-1.36-2 5.43a1.22 1.22 0 0 0 0.49 1.48l5.76 3.33a1.32 1.32 0 0 0 0.4 0.18l3.65 0.82a2 2 0 0 0 2.06-1l3.43-6.53a3.33 3.33 0 0 1 1.31-1.2l0.16 0.52a1 1 0 0 0 0.47 0.64l5.71 3.29h0.07a0.94 0.94 0 0 0 1-0.16l5.46-4.3a3 3 0 0 0 1-2.31l-0.32-5.2a4.09 4.09 0 0 1 0.85-2.51c0.89-1.07 1.74-2.19 2.53-3.36a2.82 2.82 0 0 1 2.22-1.12l3.51 0.17a2.27 2.27 0 0 0 2-1.24l3.3-7.4a1.41 1.41 0 0 0-0.74-1.87l-2.83-1.21a1.76 1.76 0 0 1-1-2 32.22 32.22 0 0 0 0.75-3.44zm-29.14 16.06c-1.07-6.22 2.86-15 8.78-19.68a12 12 0 0 1 6.22-2.78 9.52 9.52 0 0 1 0.69 2.29c1.07 6.22-2.86 15-8.78 19.68a12 12 0 0 1-6.2 2.77 9.11 9.11 0 0 1-0.71-2.28z" fill="#6da5ea"/><path d="m458.14 115.1a4.44 4.44 0 0 1 1.18-2.4l4.84-4.45a2.91 2.91 0 0 0 0.81-2.38l-0.91-5.27a1 1 0 0 0-0.46-0.74l-5.73-3.31a0.93 0.93 0 0 0-1 0.09l-2.07 1.36 2-5.43a1.2 1.2 0 0 0-0.56-1.5l-5.74-3.3a1.26 1.26 0 0 0-0.38-0.15l-3.65-0.82a2 2 0 0 0-2.06 1l-3.41 6.49a3.4 3.4 0 0 1-1.36 1.26l-0.14-0.55a1 1 0 0 0-0.46-0.64l-5.75-3.32a0.93 0.93 0 0 0-1.07 0.15l-5.46 4.29a3 3 0 0 0-1 2.32l0.24 5.2a4.14 4.14 0 0 1-0.84 2.51 41.51 41.51 0 0 0-2.54 3.35 2.8 2.8 0 0 1-2.22 1.13l-3.51-0.17a2.26 2.26 0 0 0-2 1.24l-3.3 7.39a1.4 1.4 0 0 0 0.57 1.78l3.9 2.24a1.83 1.83 0 0 1 0.09 1 32.22 32.22 0 0 0-0.61 3.53 4.47 4.47 0 0 1-1.18 2.4l-4.84 4.44a2.94 2.94 0 0 0-0.81 2.39l0.91 5.27a1 1 0 0 0 0.43 0.72l5.77 3.33a0.91 0.91 0 0 0 1-0.1l2.08-1.36-2 5.43a1.22 1.22 0 0 0 0.49 1.48l5.76 3.33a1.32 1.32 0 0 0 0.4 0.18l3.65 0.82a2 2 0 0 0 2.06-1l3.43-6.53a3.33 3.33 0 0 1 1.31-1.2l0.16 0.52a1 1 0 0 0 0.47 0.64l5.71 3.29h0.07a0.94 0.94 0 0 0 1-0.16l5.46-4.3a3 3 0 0 0 1-2.31l-0.32-5.2a4.09 4.09 0 0 1 0.85-2.51c0.89-1.07 1.74-2.19 2.53-3.36a2.82 2.82 0 0 1 2.22-1.12l3.51 0.17a2.27 2.27 0 0 0 2-1.24l3.3-7.4a1.41 1.41 0 0 0-0.74-1.87l-2.83-1.21a1.76 1.76 0 0 1-1-2 32.22 32.22 0 0 0 0.75-3.44zm-29.14 16.06c-1.07-6.22 2.86-15 8.78-19.68a12 12 0 0 1 6.22-2.78 9.52 9.52 0 0 1 0.69 2.29c1.07 6.22-2.86 15-8.78 19.68a12 12 0 0 1-6.2 2.77 9.11 9.11 0 0 1-0.71-2.28z" fill="#fff" opacity=".2"/><path d="m423.59 142.75a1.4 1.4 0 0 0-1.94-0.44l-2.76 1.82-2 5.43a1.23 1.23 0 0 0 0.48 1.48l5.7 3.28a1.22 1.22 0 0 1-0.43-1.45l2.47-6.67a2.43 2.43 0 0 0-0.57-2.3 9.78 9.78 0 0 1-0.95-1.15zm16.8 8.32a1 1 0 0 1-0.46-0.63l-1.23-4.09a1.24 1.24 0 0 0-1.72-0.79 14.77 14.77 0 0 1-2.25 0.74 3 3 0 0 0-0.71 0.3l0.16 0.53a1.1 1.1 0 0 0 0.48 0.63z" opacity=".1"/><path d="m441.66 134c-5.11 4-10 3.63-12-0.55a12 12 0 0 0 6.2-2.76c5.91-4.66 9.85-13.46 8.78-19.68a9.3 9.3 0 0 0-0.69-2.28c3.25-0.28 5.76 1.67 6.44 5.59 1.12 6.2-2.82 15.01-8.73 19.68z" opacity=".1"/><path d="m421.45 109.81a2.51 2.51 0 0 1-1 0.21l-3.51-0.17a2.21 2.21 0 0 0-1.46 0.53l5.75 3.31a2.32 2.32 0 0 1 1.45-0.53l3.52 0.17a2.12 2.12 0 0 0 1-0.19zm11.84-18.74a0.93 0.93 0 0 0-1.07 0.15l-5.47 4.29a3.09 3.09 0 0 0-0.9 1.43l5.75 3.32a2.91 2.91 0 0 1 0.9-1.43l5.5-4.29a0.93 0.93 0 0 1 1-0.14zm-19 38.43-4.78 4.39a2.8 2.8 0 0 0-0.74 1.38l5.73 3.3a2.8 2.8 0 0 1 0.76-1.36l4.78-4.39zm36.23-41.73a1.22 1.22 0 0 0-0.39-0.15l-3.64-0.82a2 2 0 0 0-2.06 1l-3.43 6.48a2.88 2.88 0 0 1-0.77 0.88l5.77 3.32a3.15 3.15 0 0 0 0.77-0.88l3.43-6.53a2 2 0 0 1 2.06-1l3.64 0.83a1.78 1.78 0 0 1 0.37 0.13zm7.34 8.78a0.94 0.94 0 0 0-1 0.09l-2.06 1.36-0.46 1.23a2.42 2.42 0 0 0 0.57 2.31 9.78 9.78 0 0 1 0.94 1.15 3.22 3.22 0 0 0 0.24 0.28l0.22 0.16a1.5 1.5 0 0 0 0.48 0.19 1.31 1.31 0 0 0 0.65 0 1.15 1.15 0 0 0 0.35-0.15l4.83-3.18a1.29 1.29 0 0 1 0.36-0.17 0.73 0.73 0 0 1 0.41 0 1.14 1.14 0 0 1 0.22 0.07z" fill="#6da5ea"/><path d="m421.45 109.81a2.51 2.51 0 0 1-1 0.21l-3.51-0.17a2.21 2.21 0 0 0-1.46 0.53l5.75 3.31a2.32 2.32 0 0 1 1.45-0.53l3.52 0.17a2.12 2.12 0 0 0 1-0.19zm11.84-18.74a0.93 0.93 0 0 0-1.07 0.15l-5.47 4.29a3.09 3.09 0 0 0-0.9 1.43l5.75 3.32a2.91 2.91 0 0 1 0.9-1.43l5.5-4.29a0.93 0.93 0 0 1 1-0.14zm-19 38.43-4.78 4.39a2.8 2.8 0 0 0-0.74 1.38l5.73 3.3a2.8 2.8 0 0 1 0.76-1.36l4.78-4.39zm36.23-41.73a1.22 1.22 0 0 0-0.39-0.15l-3.64-0.82a2 2 0 0 0-2.06 1l-3.43 6.48a2.88 2.88 0 0 1-0.77 0.88l5.77 3.32a3.15 3.15 0 0 0 0.77-0.88l3.43-6.53a2 2 0 0 1 2.06-1l3.64 0.83a1.78 1.78 0 0 1 0.37 0.13zm7.34 8.78a0.94 0.94 0 0 0-1 0.09l-2.06 1.36-0.46 1.23a2.42 2.42 0 0 0 0.57 2.31 9.78 9.78 0 0 1 0.94 1.15 3.22 3.22 0 0 0 0.24 0.28l0.22 0.16a1.5 1.5 0 0 0 0.48 0.19 1.31 1.31 0 0 0 0.65 0 1.15 1.15 0 0 0 0.35-0.15l4.83-3.18a1.29 1.29 0 0 1 0.36-0.17 0.73 0.73 0 0 1 0.41 0 1.14 1.14 0 0 1 0.22 0.07z" fill="#fff" opacity=".7"/><path d="m465 105.87-0.91-5.27a0.87 0.87 0 0 0-1.44-0.63l-4.83 3.18a1.4 1.4 0 0 1-1.94-0.44 10.68 10.68 0 0 0-0.94-1.15 2.39 2.39 0 0 1-0.57-2.3l2.47-6.67a1.23 1.23 0 0 0-0.9-1.66l-3.65-0.81a2 2 0 0 0-2.06 1l-3.43 6.52a3.58 3.58 0 0 1-2.07 1.56 17.76 17.76 0 0 0-2.24 0.74 1.23 1.23 0 0 1-1.72-0.79l-1.27-4.15a0.91 0.91 0 0 0-1.54-0.49l-5.46 4.29a3.06 3.06 0 0 0-1 2.32l0.32 5.19a4.12 4.12 0 0 1-0.85 2.52c-0.89 1.07-1.74 2.19-2.53 3.35a2.83 2.83 0 0 1-2.22 1.13l-3.51-0.18a2.28 2.28 0 0 0-2 1.24l-3.3 7.4a1.41 1.41 0 0 0 0.74 1.87l2.83 1.21a1.75 1.75 0 0 1 1 2 31.59 31.59 0 0 0-0.6 3.52 4.35 4.35 0 0 1-1.19 2.4l-4.83 4.45a2.93 2.93 0 0 0-0.82 2.38l0.91 5.28a0.87 0.87 0 0 0 1.44 0.62l4.84-3.18a1.41 1.41 0 0 1 1.94 0.44 8.87 8.87 0 0 0 0.94 1.15 2.41 2.41 0 0 1 0.57 2.31l-2.47 6.66a1.22 1.22 0 0 0 0.9 1.66l3.65 0.82a2 2 0 0 0 2.06-1l3.43-6.53a3.59 3.59 0 0 1 2.07-1.56 16.28 16.28 0 0 0 2.24-0.74 1.24 1.24 0 0 1 1.72 0.79l1.23 4.09a0.91 0.91 0 0 0 1.54 0.49l5.46-4.3a3 3 0 0 0 1-2.31l-0.32-5.2a4.09 4.09 0 0 1 0.85-2.51c0.89-1.07 1.74-2.19 2.53-3.36a2.82 2.82 0 0 1 2.22-1.12l3.51 0.17a2.27 2.27 0 0 0 2-1.24l3.3-7.4a1.41 1.41 0 0 0-0.74-1.87l-2.83-1.21a1.76 1.76 0 0 1-1-2 32.22 32.22 0 0 0 0.61-3.53 4.44 4.44 0 0 1 1.18-2.4l4.84-4.45a2.91 2.91 0 0 0 0.84-2.3zm-23.34 28.13c-5.92 4.65-11.59 3.38-12.66-2.83s2.86-15 8.78-19.68 11.58-3.39 12.65 2.83-2.86 15.01-8.77 19.68z" fill="#6da5ea"/><g fill="#fff" opacity=".55"><path d="m465 105.87-0.91-5.27a0.87 0.87 0 0 0-1.44-0.63l-4.83 3.18a1.4 1.4 0 0 1-1.94-0.44 10.68 10.68 0 0 0-0.94-1.15 2.39 2.39 0 0 1-0.57-2.3l2.47-6.67a1.23 1.23 0 0 0-0.9-1.66l-3.65-0.81a2 2 0 0 0-2.06 1l-3.43 6.52a3.58 3.58 0 0 1-2.07 1.56 17.76 17.76 0 0 0-2.24 0.74 1.23 1.23 0 0 1-1.72-0.79l-1.27-4.15a0.91 0.91 0 0 0-1.54-0.49l-5.46 4.29a3.06 3.06 0 0 0-1 2.32l0.32 5.19a4.12 4.12 0 0 1-0.85 2.52c-0.89 1.07-1.74 2.19-2.53 3.35a2.83 2.83 0 0 1-2.22 1.13l-3.51-0.18a2.28 2.28 0 0 0-2 1.24l-3.3 7.4a1.41 1.41 0 0 0 0.74 1.87l2.83 1.21a1.75 1.75 0 0 1 1 2 31.59 31.59 0 0 0-0.6 3.52 4.35 4.35 0 0 1-1.19 2.4l-4.83 4.45a2.93 2.93 0 0 0-0.82 2.38l0.91 5.28a0.87 0.87 0 0 0 1.44 0.62l4.84-3.18a1.41 1.41 0 0 1 1.94 0.44 8.87 8.87 0 0 0 0.94 1.15 2.41 2.41 0 0 1 0.57 2.31l-2.47 6.66a1.22 1.22 0 0 0 0.9 1.66l3.65 0.82a2 2 0 0 0 2.06-1l3.43-6.53a3.59 3.59 0 0 1 2.07-1.56 16.28 16.28 0 0 0 2.24-0.74 1.24 1.24 0 0 1 1.72 0.79l1.23 4.09a0.91 0.91 0 0 0 1.54 0.49l5.46-4.3a3 3 0 0 0 1-2.31l-0.32-5.2a4.09 4.09 0 0 1 0.85-2.51c0.89-1.07 1.74-2.19 2.53-3.36a2.82 2.82 0 0 1 2.22-1.12l3.51 0.17a2.27 2.27 0 0 0 2-1.24l3.3-7.4a1.41 1.41 0 0 0-0.74-1.87l-2.83-1.21a1.76 1.76 0 0 1-1-2 32.22 32.22 0 0 0 0.61-3.53 4.44 4.44 0 0 1 1.18-2.4l4.84-4.45a2.91 2.91 0 0 0 0.84-2.3zm-23.34 28.13c-5.92 4.65-11.59 3.38-12.66-2.83s2.86-15 8.78-19.68 11.58-3.39 12.65 2.83-2.86 15.01-8.77 19.68z"/><path d="m427.53 156a2.61 2.61 0 0 1-0.48 0l-3.64-0.82a1.77 1.77 0 0 1-1.31-2.4l2.47-6.67a1.86 1.86 0 0 0-0.45-1.72 9.09 9.09 0 0 1-1-1.22 0.86 0.86 0 0 0-1.17-0.29l-4.83 3.12a1.48 1.48 0 0 1-1.45 0.19 1.5 1.5 0 0 1-0.85-1.19l-0.91-5.27a3.54 3.54 0 0 1 1-2.9l4.84-4.44a3.87 3.87 0 0 0 1-2 34.55 34.55 0 0 1 0.61-3.59 1.2 1.2 0 0 0-0.64-1.31l-2.84-1.21a2 2 0 0 1-1.06-1.09 2 2 0 0 1 0-1.53l3.3-7.4a2.87 2.87 0 0 1 2.55-1.57l3.51 0.17a2.22 2.22 0 0 0 1.73-0.88c0.81-1.18 1.67-2.32 2.57-3.4a3.52 3.52 0 0 0 0.72-2.11l-0.33-5.2a3.63 3.63 0 0 1 1.25-2.79l5.46-4.29a1.57 1.57 0 0 1 1.44-0.32 1.54 1.54 0 0 1 1 1.08l1.26 4.05a0.68 0.68 0 0 0 0.34 0.43 0.77 0.77 0 0 0 0.63 0 19.55 19.55 0 0 1 2.31-0.77 3 3 0 0 0 1.71-1.27l3.43-6.53a2.53 2.53 0 0 1 2.68-1.24l3.65 0.81a1.81 1.81 0 0 1 1.21 0.9 1.77 1.77 0 0 1 0.09 1.51l-2.46 6.66a1.86 1.86 0 0 0 0.45 1.72 9.94 9.94 0 0 1 1 1.22 0.84 0.84 0 0 0 1.17 0.29l4.83-3.18a1.56 1.56 0 0 1 1.46-0.19 1.54 1.54 0 0 1 0.85 1.19l0.91 5.28a3.52 3.52 0 0 1-1 2.89l-4.83 4.45a3.84 3.84 0 0 0-1 2 31.4 31.4 0 0 1-0.62 3.59 1.19 1.19 0 0 0 0.65 1.31l2.83 1.21a2 2 0 0 1 1 2.62l-3.3 7.4a2.84 2.84 0 0 1-2.56 1.57l-3.51-0.17a2.22 2.22 0 0 0-1.72 0.88c-0.81 1.19-1.68 2.33-2.57 3.4a3.52 3.52 0 0 0-0.72 2.12l0.32 5.19a3.65 3.65 0 0 1-1.25 2.8l-5.46 4.29a1.57 1.57 0 0 1-1.43 0.32 1.59 1.59 0 0 1-1-1.09l-1.23-4.09a0.67 0.67 0 0 0-0.35-0.43 0.75 0.75 0 0 0-0.62 0 17.8 17.8 0 0 1-2.31 0.76 3 3 0 0 0-1.71 1.27l-3.43 6.53a2.56 2.56 0 0 1-2.19 1.35zm-5.14-14.43a2 2 0 0 1 1.66 0.91 9.4 9.4 0 0 0 0.89 1.09 2.92 2.92 0 0 1 0.68 2.88l-2.46 6.67a0.69 0.69 0 0 0 0 0.58 0.74 0.74 0 0 0 0.48 0.33l3.64 0.82a1.43 1.43 0 0 0 1.44-0.67l3.43-6.53a4.08 4.08 0 0 1 2.43-1.84 16.21 16.21 0 0 0 2.17-0.72 1.85 1.85 0 0 1 1.53 0 1.76 1.76 0 0 1 0.94 1.12l1.23 4.09c0.06 0.18 0.15 0.3 0.26 0.33a0.45 0.45 0 0 0 0.4-0.13l5.46-4.29a2.51 2.51 0 0 0 0.82-1.84l-0.33-5.19a4.65 4.65 0 0 1 1-2.91c0.87-1 1.72-2.16 2.5-3.31a3.43 3.43 0 0 1 2.72-1.38l3.51 0.18a1.73 1.73 0 0 0 1.47-0.91l3.3-7.4a0.82 0.82 0 0 0 0-0.65 0.85 0.85 0 0 0-0.46-0.47l-2.83-1.21a2.33 2.33 0 0 1-1.31-2.6 31.78 31.78 0 0 0 0.6-3.46 5 5 0 0 1 1.36-2.75l4.84-4.45a2.39 2.39 0 0 0 0.64-1.87l-0.91-5.28c0-0.18-0.1-0.31-0.19-0.34a0.45 0.45 0 0 0-0.39 0.09l-4.83 3.18a2 2 0 0 1-2.71-0.58 8.62 8.62 0 0 0-0.89-1.09 3 3 0 0 1-0.69-2.89l2.47-6.66a0.72 0.72 0 0 0 0-0.58 0.68 0.68 0 0 0-0.47-0.34l-3.64-0.81a1.43 1.43 0 0 0-1.44 0.67l-3.43 6.53a4.19 4.19 0 0 1-2.43 1.84 17.69 17.69 0 0 0-2.17 0.71 1.89 1.89 0 0 1-1.53 0 1.79 1.79 0 0 1-0.94-1.12l-1.21-4.13a0.47 0.47 0 0 0-0.25-0.34 0.5 0.5 0 0 0-0.4 0.13l-5.46 4.29a2.54 2.54 0 0 0-0.82 1.84l0.32 5.2a4.66 4.66 0 0 1-1 2.91c-0.88 1-1.72 2.16-2.51 3.31a3.32 3.32 0 0 1-2.71 1.37l-3.51-0.17a1.67 1.67 0 0 0-1.48 0.9l-3.29 7.4a0.84 0.84 0 0 0 0 0.66 0.8 0.8 0 0 0 0.46 0.46l2.83 1.21a2.33 2.33 0 0 1 1.3 2.6 30 30 0 0 0-0.59 3.47 5 5 0 0 1-1.37 2.75l-4.83 4.44a2.42 2.42 0 0 0-0.64 1.88l0.91 5.27a0.45 0.45 0 0 0 0.19 0.35 0.44 0.44 0 0 0 0.38-0.1l4.84-3.18a1.93 1.93 0 0 1 1.02-0.32zm12.46-4.17a6.35 6.35 0 0 1-2.31-0.41c-2.15-0.83-3.6-2.85-4.09-5.69-1.1-6.39 2.93-15.46 9-20.21 3.34-2.63 6.79-3.54 9.46-2.52 2.15 0.83 3.61 2.85 4.1 5.69 1.1 6.39-2.93 15.46-9 20.22a12 12 0 0 1-7.16 2.87zm9.73-28.11a10.9 10.9 0 0 0-6.45 2.68c-5.76 4.53-9.61 13.12-8.57 19.14 0.42 2.47 1.6 4.14 3.39 4.83 2.29 0.88 5.34 0 8.36-2.35 5.76-4.53 9.6-13.11 8.57-19.14-0.43-2.47-1.6-4.14-3.39-4.82a5.26 5.26 0 0 0-1.91-0.39z"/></g><path d="m391.41 89.43a1.64 1.64 0 0 1-0.38 0l-2.87-0.64a1.46 1.46 0 0 1-1-0.71 1.43 1.43 0 0 1-0.07-1.18l1.95-5.27a1.5 1.5 0 0 0-0.36-1.37 8.16 8.16 0 0 1-0.78-1 0.68 0.68 0 0 0-0.9-0.26l-3.82 2.51a1.12 1.12 0 0 1-1.81-0.78l-0.71-4.17a2.75 2.75 0 0 1 0.77-2.28l3.82-3.51a3.07 3.07 0 0 0 0.8-1.63 27.55 27.55 0 0 1 0.49-2.83 1 1 0 0 0-0.52-1l-2.24-1a1.54 1.54 0 0 1-0.83-0.85 1.48 1.48 0 0 1 0-1.2l2.6-5.85a2.27 2.27 0 0 1 2-1.24l2.77 0.14a1.72 1.72 0 0 0 1.37-0.7c0.64-0.93 1.32-1.84 2-2.69a2.79 2.79 0 0 0 0.57-1.67l-0.25-4.11a2.85 2.85 0 0 1 1-2.2l4.32-3.39a1.18 1.18 0 0 1 1.12-0.25 1.2 1.2 0 0 1 0.78 0.85l1 3.23a0.54 0.54 0 0 0 0.78 0.34 15.6 15.6 0 0 1 1.83-0.6 2.4 2.4 0 0 0 1.36-1l2.74-5.12a2 2 0 0 1 2.11-1l2.88 0.65a1.4 1.4 0 0 1 1 1.88l-1.93 5.26a1.46 1.46 0 0 0 0.35 1.37 9.16 9.16 0 0 1 0.79 1 0.67 0.67 0 0 0 0.93 0.23l3.82-2.51a1.19 1.19 0 0 1 1.14-0.15 1.18 1.18 0 0 1 0.67 0.93l0.72 4.17a2.78 2.78 0 0 1-0.77 2.28l-3.83 3.52a3 3 0 0 0-0.79 1.62 27.55 27.55 0 0 1-0.49 2.83 1 1 0 0 0 0.51 1.05l2.24 1a1.51 1.51 0 0 1 0.84 0.86 1.54 1.54 0 0 1 0 1.19l-2.63 5.82a2.21 2.21 0 0 1-2 1.24l-2.77-0.14a1.79 1.79 0 0 0-1.38 0.7c-0.64 0.94-1.32 1.84-2 2.69a2.79 2.79 0 0 0-0.57 1.68l0.26 4.1a2.83 2.83 0 0 1-1 2.2l-4.31 3.39a1.2 1.2 0 0 1-1.13 0.25 1.19 1.19 0 0 1-0.77-0.85l-1-3.23a0.51 0.51 0 0 0-0.28-0.34 0.62 0.62 0 0 0-0.5 0 14.47 14.47 0 0 1-1.83 0.6 2.42 2.42 0 0 0-1.35 1l-2.71 5.16a2 2 0 0 1-1.75 0.98zm-4.06-11.38a1.6 1.6 0 0 1 1.3 0.71 6.63 6.63 0 0 0 0.71 0.86 2.34 2.34 0 0 1 0.54 2.27l-1.9 5.27a0.52 0.52 0 0 0 0 0.46 0.52 0.52 0 0 0 0.38 0.27l2.88 0.65a1.14 1.14 0 0 0 1.15-0.54l2.7-5.15a3.27 3.27 0 0 1 1.89-1.45 14.9 14.9 0 0 0 1.71-0.57 1.46 1.46 0 0 1 1.21 0 1.42 1.42 0 0 1 0.74 0.88l1 3.23a0.36 0.36 0 0 0 0.21 0.27 0.38 0.38 0 0 0 0.32-0.1l4.32-3.39a2 2 0 0 0 0.65-1.46l-0.26-4.11a3.7 3.7 0 0 1 0.77-2.29c0.69-0.83 1.36-1.71 2-2.62a2.73 2.73 0 0 1 2.14-1.08l2.77 0.14a1.41 1.41 0 0 0 1.18-0.72l2.6-5.85a0.7 0.7 0 0 0 0-0.53 0.7 0.7 0 0 0-0.37-0.37l-2.24-1a1.82 1.82 0 0 1-1-2 25.78 25.78 0 0 0 0.47-2.74 3.92 3.92 0 0 1 1.07-2.17l3.82-3.51a1.9 1.9 0 0 0 0.51-1.49l-0.72-4.17a0.36 0.36 0 0 0-0.15-0.28 0.39 0.39 0 0 0-0.32 0.08l-3.82 2.51a1.53 1.53 0 0 1-2.13-0.46 7.29 7.29 0 0 0-0.7-0.86 2.31 2.31 0 0 1-0.54-2.27l1.95-5.27a0.53 0.53 0 0 0-0.4-0.73l-2.88-0.65a1.13 1.13 0 0 0-1.15 0.54l-2.76 5.17a3.27 3.27 0 0 1-1.91 1.47 13.24 13.24 0 0 0-1.72 0.56 1.43 1.43 0 0 1-1.2 0 1.39 1.39 0 0 1-0.74-0.88l-1-3.23a0.37 0.37 0 0 0-0.2-0.27 0.39 0.39 0 0 0-0.33 0.1l-4.31 3.4a2 2 0 0 0-0.65 1.46l0.25 4.1a3.58 3.58 0 0 1-0.77 2.29c-0.69 0.83-1.35 1.71-2 2.62a2.64 2.64 0 0 1-2.13 1.08l-2.78-0.13a1.28 1.28 0 0 0-1.17 0.72l-2.61 5.84a0.7 0.7 0 0 0 0 0.53 0.67 0.67 0 0 0 0.37 0.37l2.24 1a1.82 1.82 0 0 1 1 2 26.22 26.22 0 0 0-0.47 2.74 3.9 3.9 0 0 1-1.08 2.17l-3.79 3.53a1.91 1.91 0 0 0-0.51 1.49l0.72 4.17a0.39 0.39 0 0 0 0.16 0.28 0.37 0.37 0 0 0 0.31-0.08l3.82-2.51a1.49 1.49 0 0 1 0.85-0.3zm9.85-3.31a5 5 0 0 1-1.82-0.33 5.45 5.45 0 0 1-3.23-4.49c-0.87-5 2.31-12.21 7.09-16 2.64-2.07 5.36-2.79 7.47-2a5.47 5.47 0 0 1 3.23 4.49c0.87 5-2.31 12.21-7.1 16a9.49 9.49 0 0 1-5.64 2.33zm7.68-22.22a8.65 8.65 0 0 0-5.1 2.12c-4.56 3.58-7.59 10.36-6.78 15.13a4.57 4.57 0 0 0 2.68 3.83c1.82 0.69 4.23 0 6.61-1.86 4.56-3.58 7.6-10.37 6.78-15.13-0.34-2-1.26-3.28-2.68-3.82a4 4 0 0 0-1.51-0.27z" fill="#e0e0e0"/><path d="m237.86 29.61-139.62 80.6a10.5 10.5 0 0 0-4.71 8.19v328.82c0 3 2.12 4.24 4.71 2.73l139.62-80.61a10.47 10.47 0 0 0 4.72-8.18v-328.83c0-3.01-2.12-4.23-4.72-2.72zm-2.08 307.21c0 2.57-1.81 4.21-4.05 5.5l-127.83 73.81c-2.23 1.29-4.05 0.25-4.05-2.34v-273.41a8.07 8.07 0 0 1 4-7l127.88-73.83a2.7 2.7 0 0 1 4.05 2.34z" fill="#6da5ea"/><path d="m237.86 29.61-139.62 80.6a10.5 10.5 0 0 0-4.71 8.19v328.82c0 3 2.12 4.24 4.71 2.73l139.62-80.61a10.47 10.47 0 0 0 4.72-8.18v-328.83c0-3.01-2.12-4.23-4.72-2.72zm-2.08 307.21c0 2.57-1.81 4.21-4.05 5.5l-127.83 73.81c-2.23 1.29-4.05 0.25-4.05-2.34v-273.41a8.07 8.07 0 0 1 4-7l127.88-73.83a2.7 2.7 0 0 1 4.05 2.34z" opacity=".3"/><path d="m235.78 336.82c0 2.57-1.81 4.21-4.05 5.5l-127.83 73.81c-2.23 1.29-4.05 0.25-4.05-2.34v-273.41a8.07 8.07 0 0 1 4-7l127.88-73.83a2.7 2.7 0 0 1 4.05 2.34z" fill="#6da5ea"/><path d="m235.78 336.82c0 2.57-1.81 4.21-4.05 5.5l-127.83 73.81c-2.23 1.29-4.05 0.25-4.05-2.34v-273.41a8.07 8.07 0 0 1 4-7l127.88-73.83a2.7 2.7 0 0 1 4.05 2.34z" opacity=".5"/><path d="m103.9 416.13 127.83-73.81a10.94 10.94 0 0 0 2.42-1.79l-134.3-75.66v148.92c0 2.59 1.82 3.63 4.05 2.34z" fill="#6da5ea"/><path d="m103.9 416.13 127.83-73.81a10.94 10.94 0 0 0 2.42-1.79l-134.3-75.66v148.92c0 2.59 1.82 3.63 4.05 2.34z" opacity=".4"/><path d="m225.43 332v-268.81l-121.55 70.21a8.07 8.07 0 0 0-4 7v267.27l121.51-70.17c2.24-1.29 4.04-2.93 4.04-5.5z" fill="#37474f"/><path d="m97.66 450.25a10.58 10.58 0 0 1-8.86-0.3l-5.4-3.12a10.4 10.4 0 0 1-4.74-8.18v-328.81a9 9 0 0 1 0.82-3.53 9.89 9.89 0 0 1 0.56-1.13l14.86 8.57a14.29 14.29 0 0 0-0.82 1.73 8.69 8.69 0 0 0-0.57 2.93v328.82c0.02 2.77 1.82 4.03 4.15 3.02z" fill="#6da5ea"/><path d="m97.66 450.25a10.58 10.58 0 0 1-8.86-0.3l-5.4-3.12a10.4 10.4 0 0 1-4.74-8.18v-328.81a9 9 0 0 1 0.82-3.53 9.89 9.89 0 0 1 0.56-1.13l14.86 8.57a14.29 14.29 0 0 0-0.82 1.73 8.69 8.69 0 0 0-0.57 2.93v328.82c0.02 2.77 1.82 4.03 4.15 3.02z" opacity=".5"/><path d="m172.22 384c3 0 3.35 3.39 3.35 4.85 0 5.27-3.86 11.95-8.42 14.59a6.83 6.83 0 0 1-3.26 1c-3 0-3.35-3.39-3.35-4.85 0-5.27 3.85-11.95 8.42-14.58a6.71 6.71 0 0 1 3.26-1" fill="#6da5ea"/><g fill="#263238"><path d="m168 75.17c1.27-0.74 2.31-0.14 2.31 1.33a5.13 5.13 0 0 1-2.31 4c-1.28 0.73-2.31 0.14-2.31-1.33a5.07 5.07 0 0 1 2.31-4z"/><path d="m153.05 94.65c1.13-0.65 2-0.12 2 1.19a4.52 4.52 0 0 1-2 3.54c-1.13 0.65-2 0.12-2-1.18a4.5 4.5 0 0 1 2-3.55z"/><path d="m159.9 90.6 22.93-13.23c1.25-0.73 2.27-0.21 2.27 1.15a4.9 4.9 0 0 1-2.27 3.78l-22.93 13.23c-1.25 0.73-2.27 0.21-2.27-1.15a4.9 4.9 0 0 1 2.27-3.78z"/></g><path d="m242.53 31.58c-0.34-2.45-2.3-3.34-4.66-2l-139.63 80.63a9.62 9.62 0 0 0-3.33 3.53l-14.86-8.57a9.61 9.61 0 0 1 3.35-3.51l139.6-80.66a10.4 10.4 0 0 1 9.44 0l5.43 3.11a10.58 10.58 0 0 1 4.66 7.47z" fill="#6da5ea"/><path d="m242.53 31.58c-0.34-2.45-2.3-3.34-4.66-2l-139.63 80.63a9.62 9.62 0 0 0-3.33 3.53l-14.86-8.57a9.61 9.61 0 0 1 3.35-3.51l139.6-80.66a10.4 10.4 0 0 1 9.44 0l5.43 3.11a10.58 10.58 0 0 1 4.66 7.47z" opacity=".4"/><path d="m205.91 41.57a5.26 5.26 0 0 1-4.73 0.08 1.49 1.49 0 0 1-0.89-1.29v-2a1.79 1.79 0 0 1 1.04-1.36l15-8.64a5.23 5.23 0 0 1 4.73-0.09 1.54 1.54 0 0 1 0.89 1.23v2a1.79 1.79 0 0 1-1.05 1.43z" fill="#6da5ea"/><path d="m205.91 41.57a5.26 5.26 0 0 1-4.73 0.08 1.49 1.49 0 0 1-0.89-1.29v-2a1.79 1.79 0 0 1 1.04-1.36l15-8.64a5.23 5.23 0 0 1 4.73-0.09 1.54 1.54 0 0 1 0.89 1.23v2a1.79 1.79 0 0 1-1.05 1.43z" opacity=".25"/><path d="m205.91 39.6 15-8.64c1.35-0.78 1.41-2 0.15-2.73a5.23 5.23 0 0 0-4.73 0.09l-15 8.64c-1.35 0.78-1.41 2-0.15 2.73a5.23 5.23 0 0 0 4.73-0.09z" fill="#6da5ea"/><path d="m205.91 39.6 15-8.64c1.35-0.78 1.41-2 0.15-2.73a5.23 5.23 0 0 0-4.73 0.09l-15 8.64c-1.35 0.78-1.41 2-0.15 2.73a5.23 5.23 0 0 0 4.73-0.09z" opacity=".3"/><path d="m88 159.38a5.21 5.21 0 0 0-2.29-4.14 1.51 1.51 0 0 0-1.57-0.13l-1.71 1a1.79 1.79 0 0 0-0.71 1.63v36.66a5.23 5.23 0 0 0 2.28 4.12 1.56 1.56 0 0 0 1.51 0.16c0.32-0.17 1.47-0.84 1.77-1a1.79 1.79 0 0 0 0.72-1.68z" fill="#6da5ea"/><path d="m88 159.38a5.21 5.21 0 0 0-2.29-4.14 1.51 1.51 0 0 0-1.57-0.13l-1.71 1a1.79 1.79 0 0 0-0.71 1.63v36.66a5.23 5.23 0 0 0 2.28 4.12 1.56 1.56 0 0 0 1.51 0.16c0.32-0.17 1.47-0.84 1.77-1a1.79 1.79 0 0 0 0.72-1.68z" opacity=".3"/><path d="m86.31 160.36v36.64c0 1.56-1 2.23-2.29 1.5a5.23 5.23 0 0 1-2.29-4.14v-36.64c0-1.56 1-2.23 2.29-1.5a5.24 5.24 0 0 1 2.29 4.14z" fill="#6da5ea"/><path d="m86.31 160.36v36.64c0 1.56-1 2.23-2.29 1.5a5.23 5.23 0 0 1-2.29-4.14v-36.64c0-1.56 1-2.23 2.29-1.5a5.24 5.24 0 0 1 2.29 4.14z" opacity=".4"/><path d="m88 208.45a5.21 5.21 0 0 0-2.29-4.14 1.54 1.54 0 0 0-1.57-0.13l-1.71 1a1.79 1.79 0 0 0-0.71 1.63v17.28a5.21 5.21 0 0 0 2.28 4.12 1.54 1.54 0 0 0 1.51 0.16c0.32-0.16 1.47-0.83 1.77-1a1.79 1.79 0 0 0 0.71-1.63z" fill="#6da5ea"/><path d="m88 208.45a5.21 5.21 0 0 0-2.29-4.14 1.54 1.54 0 0 0-1.57-0.13l-1.71 1a1.79 1.79 0 0 0-0.71 1.63v17.28a5.21 5.21 0 0 0 2.28 4.12 1.54 1.54 0 0 0 1.51 0.16c0.32-0.16 1.47-0.83 1.77-1a1.79 1.79 0 0 0 0.71-1.63z" opacity=".3"/><path d="m86.31 209.43v17.28c0 1.56-1 2.23-2.29 1.5a5.21 5.21 0 0 1-2.29-4.14v-17.28c0-1.56 1-2.23 2.29-1.5a5.26 5.26 0 0 1 2.29 4.14z" fill="#6da5ea"/><path d="m86.31 209.43v17.28c0 1.56-1 2.23-2.29 1.5a5.21 5.21 0 0 1-2.29-4.14v-17.28c0-1.56 1-2.23 2.29-1.5a5.26 5.26 0 0 1 2.29 4.14z" opacity=".4"/><path d="m247.4 68.91-129 74.39a6.42 6.42 0 0 0-2.91 5v272.95a6.41 6.41 0 0 0 2.91 5l1.82 1a6.43 6.43 0 0 0 5.81 0l129-74.5a6.43 6.43 0 0 0 2.9-5v-272.75a6.38 6.38 0 0 0-2.91-5l-1.81-1a6.48 6.48 0 0 0-5.81-0.09z" fill="#e0e0e0"/><path d="m257.94 348c0 2.56-1.79 4.18-4 5.46l-126.8 73.21c-2.21 1.28-4 0.25-4-2.32v-270.35a8 8 0 0 1 4-6.92l126.78-73.29a2.68 2.68 0 0 1 4 2.32z" fill="#fafafa"/><path d="m123.09 213.22v211.09c0 2.57 1.8 3.6 4 2.32l126.8-73.21c2.22-1.28 4-2.9 4-5.46v-212.58z" fill="#f5f5f5"/><path d="m255.26 74.54a1.57 1.57 0 0 1 1.56 1.57v271.89c0 1.73-1.06 3.12-3.45 4.49l-126.8 73.22a2.53 2.53 0 0 1-1.23 0.39c-1 0-1.1-1.22-1.1-1.75v-270.35a6.9 6.9 0 0 1 3.43-6l126.81-73.24a1.49 1.49 0 0 1 0.78-0.22m0-1.12a2.69 2.69 0 0 0-1.34 0.37l-126.81 73.21a8 8 0 0 0-4 6.92v270.39c0 1.82 0.91 2.87 2.22 2.87a3.64 3.64 0 0 0 1.79-0.55l126.8-73.21c2.22-1.28 4-2.9 4-5.46v-271.85a2.68 2.68 0 0 0-2.68-2.69z" fill="#e0e0e0"/><path d="m257.94 75v1.1a2.68 2.68 0 0 0-4-2.31l-126.83 73.21a7.7 7.7 0 0 0-2.91 3 0.16 0.16 0 0 0 0 0.09l-7.85-4.53a6 6 0 0 1 2.09-2.21l129-74.4a6.49 6.49 0 0 1 5.81 0l1.82 1a6.38 6.38 0 0 1 2.87 5.05z" fill="#f0f0f0"/><g opacity=".15"><path d="m139.93 211.47 26.53-15.29c1.33-0.77 2.42-0.22 2.42 1.23a5.22 5.22 0 0 1-2.42 4l-26.52 15.29c-1.34 0.77-2.43 0.22-2.43-1.23a5.22 5.22 0 0 1 2.42-4z"/></g><path d="m133 229.11a0.54 0.54 0 0 1-0.48-0.27 0.57 0.57 0 0 1 0.2-0.77l118.06-68.17a0.57306 0.57306 0 0 1 0.56 1l-118.08 68.1a0.55 0.55 0 0 1-0.26 0.11z" fill="#e0e0e0"/><path d="m233.29 157.73c1.14-0.66 2.06-0.12 2.06 1.18a4.49 4.49 0 0 1-2.07 3.54c-1.14 0.65-2.06 0.12-2.05-1.18a4.56 4.56 0 0 1 2.06-3.54z" fill="#455a64"/><path d="m232 164.42a2 2 0 0 1-1.06-0.28 2.5 2.5 0 0 1-1.12-2.29 7.56 7.56 0 0 1 3.52-5.9l6.94-4a2.81 2.81 0 0 1 2.83-0.26 2.48 2.48 0 0 1 1.1 2.29 7.51 7.51 0 0 1-3.54 5.89l-6.91 4a3.51 3.51 0 0 1-1.76 0.55zm-1.41-2.58a1.77 1.77 0 0 0 0.73 1.63 2.1 2.1 0 0 0 2.06-0.26l6.9-4a6.73 6.73 0 0 0 3.15-5.22 1.75 1.75 0 0 0-0.71-1.62 2.08 2.08 0 0 0-2.05 0.26l-6.94 4a6.7 6.7 0 0 0-3.14 5.22z" fill="#455a64"/><g opacity=".15"><path d="m139.93 232.43 40.59-23.43c1.33-0.77 2.42-0.22 2.42 1.22a5.2 5.2 0 0 1-2.42 4l-40.58 23.44c-1.34 0.77-2.43 0.23-2.43-1.22a5.2 5.2 0 0 1 2.42-4.01z"/></g><path d="m133 250.07a0.56 0.56 0 0 1-0.28-1l118.08-68.17a0.57306 0.57306 0 0 1 0.56 1l-118.1 68.1a0.48 0.48 0 0 1-0.26 0.07z" fill="#e0e0e0"/><path d="m232 185.37a2.09 2.09 0 0 1-1.06-0.27 2.51 2.51 0 0 1-1.12-2.3 7.54 7.54 0 0 1 3.52-5.89l6.94-4a2.81 2.81 0 0 1 2.83-0.26 2.5 2.5 0 0 1 1.1 2.3 7.5 7.5 0 0 1-3.54 5.88l-6.91 4a3.59 3.59 0 0 1-1.76 0.54z" fill="#6da5ea"/><path d="m240.72 174.34c1.13-0.65 2.05-0.12 2.05 1.19a4.49 4.49 0 0 1-2.06 3.54c-1.14 0.64-2.06 0.11-2.06-1.19a4.56 4.56 0 0 1 2.07-3.54z" fill="#fafafa"/><path d="m232 227.28a2.09 2.09 0 0 1-1.06-0.27 2.51 2.51 0 0 1-1.12-2.3 7.56 7.56 0 0 1 3.52-5.89l6.94-4a2.78 2.78 0 0 1 2.83-0.25 2.47 2.47 0 0 1 1.1 2.29 7.53 7.53 0 0 1-3.54 5.89l-6.91 4a3.59 3.59 0 0 1-1.76 0.53z" fill="#6da5ea"/><path d="m240.72 216.25c1.13-0.65 2.05-0.12 2.05 1.19a4.48 4.48 0 0 1-2.06 3.54c-1.14 0.64-2.06 0.11-2.06-1.19a4.56 4.56 0 0 1 2.07-3.54z" fill="#fafafa"/><path d="m232 248.24a2.09 2.09 0 0 1-1.06-0.27 2.51 2.51 0 0 1-1.12-2.3 7.58 7.58 0 0 1 3.52-5.9l6.94-4a2.81 2.81 0 0 1 2.83-0.26 2.48 2.48 0 0 1 1.1 2.29 7.5 7.5 0 0 1-3.54 5.89l-6.91 4a3.51 3.51 0 0 1-1.76 0.55z" fill="#6da5ea"/><path d="m240.72 237.21c1.13-0.65 2.05-0.12 2.05 1.19a4.49 4.49 0 0 1-2.06 3.54c-1.14 0.64-2.06 0.11-2.06-1.19a4.56 4.56 0 0 1 2.07-3.54z" fill="#fafafa"/><g opacity=".15"><path d="m139.93 253.38 26.53-15.29c1.33-0.77 2.42-0.22 2.42 1.23a5.2 5.2 0 0 1-2.42 4l-26.52 15.29c-1.34 0.77-2.43 0.22-2.43-1.23a5.24 5.24 0 0 1 2.42-4z"/></g><path d="m133 271a0.56 0.56 0 0 1-0.28-1l118.08-68.17a0.56 0.56 0 0 1 0.76 0.21 0.55 0.55 0 0 1-0.2 0.76l-118.1 68.2a0.57 0.57 0 0 1-0.26 0z" fill="#e0e0e0"/><path d="m233.29 199.64c1.14-0.66 2.06-0.12 2.06 1.19a4.47 4.47 0 0 1-2.07 3.53c-1.14 0.65-2.06 0.12-2.05-1.18a4.56 4.56 0 0 1 2.06-3.54z" fill="#455a64"/><path d="m232 206.33a2 2 0 0 1-1.06-0.28 2.48 2.48 0 0 1-1.12-2.29 7.58 7.58 0 0 1 3.52-5.9l6.94-4a2.81 2.81 0 0 1 2.83-0.26 2.48 2.48 0 0 1 1.1 2.29 7.51 7.51 0 0 1-3.54 5.89l-6.91 4a3.51 3.51 0 0 1-1.76 0.55zm-1.41-2.58a1.8 1.8 0 0 0 0.73 1.64 2.14 2.14 0 0 0 2.06-0.27l6.9-4a6.73 6.73 0 0 0 3.15-5.22 1.75 1.75 0 0 0-0.71-1.62 2.08 2.08 0 0 0-2.05 0.26l-6.94 4a6.7 6.7 0 0 0-3.14 5.22z" fill="#455a64"/><g opacity=".15"><path d="m139.93 274.34 36-20.78c1.33-0.77 2.42-0.22 2.42 1.23a5.2 5.2 0 0 1-2.42 4l-36 20.77c-1.34 0.77-2.43 0.23-2.43-1.22a5.2 5.2 0 0 1 2.43-4z"/></g><path d="m133 292a0.56 0.56 0 0 1-0.28-1l118.08-68.17a0.54 0.54 0 0 1 0.76 0.2 0.56 0.56 0 0 1-0.2 0.77l-118.1 68.11a0.55 0.55 0 0 1-0.26 0.09z" fill="#e0e0e0"/><g opacity=".15"><path d="m139.93 295.3 26.53-15.3c1.33-0.77 2.42-0.22 2.42 1.23a5.2 5.2 0 0 1-2.42 4l-26.52 15.29c-1.34 0.77-2.43 0.22-2.43-1.23a5.2 5.2 0 0 1 2.42-3.99z"/><path d="m135.4 321.59 45.12-26c1.33-0.77 2.42-0.22 2.42 1.22a5.2 5.2 0 0 1-2.42 4l-45.12 26.02c-1.33 0.77-2.42 0.22-2.42-1.22a5.2 5.2 0 0 1 2.42-4.02z"/><path d="m139.93 337.35 49.67-28.72c1.34-0.78 2.42-0.23 2.42 1.22a5.18 5.18 0 0 1-2.42 4l-49.66 28.75c-1.34 0.77-2.43 0.22-2.43-1.23a5.22 5.22 0 0 1 2.42-4.02z"/></g><path d="m133 334a0.56 0.56 0 0 1-0.28-1l118.08-68.17a0.57306 0.57306 0 1 1 0.56 1l-118.1 68.17a0.55 0.55 0 0 1-0.26 0z" fill="#e0e0e0"/><path d="m133 355a0.55 0.55 0 0 1-0.48-0.28 0.56 0.56 0 0 1 0.2-0.76l118.08-68.17a0.56 0.56 0 0 1 0.76 0.21 0.55 0.55 0 0 1-0.2 0.76l-118.1 68.16a0.55 0.55 0 0 1-0.26 0.08z" fill="#e0e0e0"/><g opacity=".15"><path d="m139.93 358.31 40.59-23.44c1.33-0.77 2.42-0.22 2.42 1.22a5.2 5.2 0 0 1-2.42 4l-40.58 23.44c-1.34 0.77-2.43 0.23-2.43-1.22a5.2 5.2 0 0 1 2.42-4z"/></g><path d="m217.58 292.45 24.13-13.91c1.34-0.77 2.42-0.22 2.42 1.22a5.18 5.18 0 0 1-2.42 4l-24.13 13.94c-1.34 0.77-2.42 0.22-2.42-1.23a5.18 5.18 0 0 1 2.42-4.02z" fill="#e0e0e0"/><path d="m246.53 277-0.12-0.09a0.28 0.28 0 0 1-0.06-0.2v-0.71a0.28 0.28 0 0 1 0-0.15 0.24 0.24 0 0 1 0.08-0.11h0.06l2 0.93a0.3 0.3 0 0 1 0.13 0.09 0.35 0.35 0 0 1 0 0.19v0.37a0.75 0.75 0 0 1 0 0.24 1.86 1.86 0 0 1-0.13 0.23l-2 3.26a0.06 0.06 0 0 1-0.08 0v-0.12-0.75a0.66 0.66 0 0 1 0.06-0.27c0.05-0.09 0.09-0.16 0.12-0.23l1.31-2.1z" fill="#6da5ea"/><path d="m217.58 313.43 24.13-13.91c1.34-0.78 2.42-0.23 2.42 1.22a5.18 5.18 0 0 1-2.42 4l-24.13 13.91c-1.34 0.77-2.42 0.23-2.42-1.22a5.18 5.18 0 0 1 2.42-4z" fill="#e0e0e0"/><path d="m246.53 298-0.12-0.09a0.25 0.25 0 0 1-0.06-0.19v-0.72a0.29 0.29 0 0 1 0-0.16 0.21 0.21 0 0 1 0.08-0.1h0.06l2 0.93a0.32 0.32 0 0 1 0.13 0.08 0.32 0.32 0 0 1 0 0.19v0.38a0.61 0.61 0 0 1 0 0.24 1.42 1.42 0 0 1-0.13 0.23l-2 3.25v0.05a0.05 0.05 0 0 1-0.08 0 0.12 0.12 0 0 1 0-0.11v-0.75a0.66 0.66 0 0 1 0.06-0.27l0.12-0.23 1.31-2.1z" fill="#6da5ea"/><g fill="#e0e0e0"><path d="m138.86 403.74a1.76 1.76 0 0 1-0.9-0.24 2.23 2.23 0 0 1-1-2.05v-10.15a5.87 5.87 0 0 1 2.7-4.67l31.49-18.18a2.22 2.22 0 0 1 2.27-0.17 2.24 2.24 0 0 1 1 2.05v10.14a5.91 5.91 0 0 1-2.7 4.68l-31.49 18.18a2.79 2.79 0 0 1-1.37 0.41zm33.66-34.58a1.71 1.71 0 0 0-0.8 0.25l-31.49 18.19a4.78 4.78 0 0 0-2.15 3.7v10.15a1.21 1.21 0 0 0 0.43 1.08 1.26 1.26 0 0 0 1.16-0.17l31.49-18.18a4.82 4.82 0 0 0 2.14-3.71v-10.14a1.2 1.2 0 0 0-0.43-1.08 0.68 0.68 0 0 0-0.35-0.09z"/><path d="m147.07 389.92a2.45 2.45 0 0 0 0 0.3v0.78a2.36 2.36 0 0 0 0 0.29 1.63 1.63 0 0 0 0.05 0.33 0.49 0.49 0 0 0 0.11 0.24 0.27 0.27 0 0 0 0.21 0.09 0.5 0.5 0 0 0 0.3-0.09 1.22 1.22 0 0 0 0.3-0.24 1.48 1.48 0 0 0 0.19-0.27 2.14 2.14 0 0 0 0.12-0.28l0.06-0.25a1.29 1.29 0 0 1 0.06-0.22 0.23 0.23 0 0 1 0.12-0.12l0.7-0.41a0.06 0.06 0 0 1 0.08 0 0.12 0.12 0 0 1 0 0.11 3.28 3.28 0 0 1-0.14 0.86 3.71 3.71 0 0 1-0.35 0.85 3.85 3.85 0 0 1-0.52 0.73 2.53 2.53 0 0 1-0.66 0.54 1.38 1.38 0 0 1-0.69 0.22 0.76 0.76 0 0 1-0.51-0.18 1.17 1.17 0 0 1-0.33-0.52 2.66 2.66 0 0 1-0.13-0.79v-0.71-0.75a4.43 4.43 0 0 1 0.13-0.94 4.86 4.86 0 0 1 0.33-0.9 4 4 0 0 1 0.51-0.78 2.69 2.69 0 0 1 0.69-0.57 1.43 1.43 0 0 1 0.66-0.22 0.9 0.9 0 0 1 0.52 0.13 0.92 0.92 0 0 1 0.35 0.44 1.87 1.87 0 0 1 0.14 0.71 0.28 0.28 0 0 1 0 0.15 0.21 0.21 0 0 1-0.08 0.1l-0.7 0.4h-0.12a0.37 0.37 0 0 1-0.06-0.15l-0.06-0.18a0.33 0.33 0 0 0-0.12-0.14 0.29 0.29 0 0 0-0.19 0 0.65 0.65 0 0 0-0.3 0.11 1.05 1.05 0 0 0-0.3 0.25 1.42 1.42 0 0 0-0.21 0.33 1.45 1.45 0 0 0-0.11 0.37 2.6 2.6 0 0 0-0.05 0.38z"/><path d="m150 390.59a2.22 2.22 0 0 1 0.27-1 3.64 3.64 0 0 1 0.88-1l0.62-0.52a0.44 0.44 0 0 0-0.07-0.29c0-0.06-0.12-0.05-0.24 0a0.79 0.79 0 0 0-0.19 0.17l-0.09 0.15-0.09 0.13-0.11 0.08-0.68 0.39a0.06 0.06 0 0 1-0.08 0 0.1 0.1 0 0 1 0-0.11 1.47 1.47 0 0 1 0.1-0.46 3.79 3.79 0 0 1 0.27-0.53 3.14 3.14 0 0 1 0.4-0.52 2.14 2.14 0 0 1 0.5-0.41 1.45 1.45 0 0 1 0.57-0.2 0.59 0.59 0 0 1 0.4 0.11 0.79 0.79 0 0 1 0.23 0.38 2.28 2.28 0 0 1 0.08 0.62v2.42a0.41 0.41 0 0 1-0.05 0.18 0.25 0.25 0 0 1-0.1 0.12l-0.67 0.39h-0.1a0.16 0.16 0 0 1-0.05-0.13v-0.23a2.67 2.67 0 0 1-0.31 0.58 1.92 1.92 0 0 1-0.5 0.43 1 1 0 0 1-0.41 0.14 0.44 0.44 0 0 1-0.3-0.1 0.71 0.71 0 0 1-0.19-0.31 1.65 1.65 0 0 1-0.09-0.48zm1.22-0.51a1 1 0 0 0 0.22-0.19 1.78 1.78 0 0 0 0.17-0.27 1.75 1.75 0 0 0 0.12-0.32 1.24 1.24 0 0 0 0-0.33l-0.49 0.39a1.49 1.49 0 0 0-0.23 0.28 0.58 0.58 0 0 0-0.09 0.3c0 0.11 0 0.17 0.07 0.18a0.25 0.25 0 0 0 0.21-0.04z"/><path d="m156.42 387.87a0.39 0.39 0 0 1 0 0.18 0.25 0.25 0 0 1-0.1 0.12l-0.67 0.39a0.09 0.09 0 0 1-0.11 0 0.22 0.22 0 0 1 0-0.13v-2.08a0.88 0.88 0 0 0-0.11-0.5c-0.08-0.1-0.19-0.11-0.35 0a0.79 0.79 0 0 0-0.35 0.41 1.61 1.61 0 0 0-0.11 0.63v2.11a0.65 0.65 0 0 1 0 0.18 0.26 0.26 0 0 1-0.11 0.12l-0.67 0.39a0.08 0.08 0 0 1-0.1 0 0.17 0.17 0 0 1 0-0.13v-3.83a0.39 0.39 0 0 1 0-0.18 0.28 0.28 0 0 1 0.1-0.13l0.65-0.37a0.07 0.07 0 0 1 0.1 0v0.13 0.19a2.51 2.51 0 0 1 0.26-0.49 2.25 2.25 0 0 1 0.21-0.24 2 2 0 0 1 0.28-0.2 1 1 0 0 1 0.47-0.16 0.45 0.45 0 0 1 0.37 0.13 1 1 0 0 1 0.24 0.44 3.43 3.43 0 0 1 0.08 0.79z"/><path d="m158.13 384.67v0.3 0.28a0.51 0.51 0 0 0 0.15 0.39 0.28 0.28 0 0 0 0.34 0 0.8 0.8 0 0 0 0.27-0.24 1.4 1.4 0 0 0 0.15-0.3l0.06-0.15a0.27 0.27 0 0 1 0.1-0.11l0.7-0.4a0.08 0.08 0 0 1 0.1 0v0.13a2.54 2.54 0 0 1-0.07 0.42 3.25 3.25 0 0 1-0.22 0.64 3.79 3.79 0 0 1-0.44 0.69 2.47 2.47 0 0 1-0.69 0.58 1.24 1.24 0 0 1-0.56 0.19 0.64 0.64 0 0 1-0.45-0.11 0.86 0.86 0 0 1-0.31-0.42 2 2 0 0 1-0.13-0.71v-0.33-0.33a3.51 3.51 0 0 1 0.13-0.86 3.27 3.27 0 0 1 0.31-0.77 3.12 3.12 0 0 1 0.45-0.65 2.64 2.64 0 0 1 0.56-0.45 1.32 1.32 0 0 1 0.69-0.22 0.77 0.77 0 0 1 0.44 0.19 0.91 0.91 0 0 1 0.22 0.38 1.46 1.46 0 0 1 0.07 0.34 0.39 0.39 0 0 1 0 0.18 0.36 0.36 0 0 1-0.1 0.13l-0.7 0.4h-0.1l-0.06-0.08a0.23 0.23 0 0 0-0.15-0.13c-0.06 0-0.15 0-0.27 0.08a0.82 0.82 0 0 0-0.34 0.37 1.33 1.33 0 0 0-0.15 0.57z"/><path d="m161.6 383.43a1 1 0 0 0 0 0.29 0.38 0.38 0 0 0 0.12 0.13 0.29 0.29 0 0 0 0.16 0 0.56 0.56 0 0 0 0.16-0.07 1 1 0 0 0 0.41-0.42l0.09-0.15a0.35 0.35 0 0 1 0.09-0.07l0.69-0.4c0.08-0.05 0.12 0 0.12 0.11a1.55 1.55 0 0 1-0.08 0.35 3.18 3.18 0 0 1-0.25 0.55 3.85 3.85 0 0 1-0.43 0.62 2.32 2.32 0 0 1-0.64 0.52 1.23 1.23 0 0 1-0.62 0.21 0.61 0.61 0 0 1-0.45-0.18 1.15 1.15 0 0 1-0.28-0.54 3.63 3.63 0 0 1-0.09-0.87 4.83 4.83 0 0 1 0.09-0.94 4 4 0 0 1 0.28-0.87 2.92 2.92 0 0 1 0.45-0.72 2.39 2.39 0 0 1 0.62-0.53 1 1 0 0 1 0.67-0.18 0.69 0.69 0 0 1 0.44 0.26 1.34 1.34 0 0 1 0.25 0.58 3 3 0 0 1 0.08 0.75v0.23a0.39 0.39 0 0 1 0 0.18 0.25 0.25 0 0 1-0.1 0.12zm0.48-1.86a0.84 0.84 0 0 0-0.34 0.4 1.65 1.65 0 0 0-0.14 0.55l1-0.56a0.62 0.62 0 0 0-0.14-0.38c-0.12-0.09-0.23-0.1-0.38-0.01z"/><path d="m165.24 382.78a0.58 0.58 0 0 1 0 0.18 0.26 0.26 0 0 1-0.11 0.12l-0.67 0.39a0.08 0.08 0 0 1-0.1 0 0.17 0.17 0 0 1 0-0.13v-5.4a0.39 0.39 0 0 1 0-0.18 0.25 0.25 0 0 1 0.1-0.12l0.67-0.39a0.09 0.09 0 0 1 0.11 0 0.2 0.2 0 0 1 0 0.13z"/></g><path d="m212.39 358.24v-10.14a5.34 5.34 0 0 1 2.42-4.19l31.49-18.18c1.33-0.78 2.42-0.15 2.42 1.39v10.14a5.37 5.37 0 0 1-2.42 4.2l-31.49 18.18c-1.34 0.77-2.42 0.14-2.42-1.4z" fill="#6da5ea"/><g fill="#fafafa"><path d="m224.67 342.94h0.16a0.25 0.25 0 0 1 0.08 0.14l1.17 4.5a0.89 0.89 0 0 1 0 0.11 0.28 0.28 0 0 1 0 0.15 0.17 0.17 0 0 1-0.08 0.1l-0.67 0.39c-0.07 0-0.12 0.05-0.15 0a0.15 0.15 0 0 1-0.06-0.1l-0.15-0.6-1.42 0.82-0.15 0.77a0.7 0.7 0 0 1-0.06 0.17 0.38 0.38 0 0 1-0.15 0.16l-0.67 0.39a0.1 0.1 0 0 1-0.09 0 0.16 0.16 0 0 1 0-0.11 1.05 1.05 0 0 1 0-0.13l1.17-5.86a1.11 1.11 0 0 1 0.07-0.22 0.35 0.35 0 0 1 0.17-0.19zm-0.86 4.1 0.86-0.5-0.43-1.73z"/><path d="m228.41 346.62a0.73 0.73 0 0 1-0.27 0.11h-0.2a0.53 0.53 0 0 1-0.15-0.08 0.44 0.44 0 0 1-0.09-0.11v1.76a0.45 0.45 0 0 1 0 0.18 0.25 0.25 0 0 1-0.1 0.12l-0.67 0.39a0.08 0.08 0 0 1-0.1 0 0.17 0.17 0 0 1-0.05-0.13v-5.4a0.41 0.41 0 0 1 0.05-0.18 0.25 0.25 0 0 1 0.1-0.12l0.64-0.38a0.11 0.11 0 0 1 0.11 0 0.22 0.22 0 0 1 0 0.13v0.19c0-0.07 0.07-0.15 0.1-0.23s0.09-0.16 0.14-0.24a1.51 1.51 0 0 1 0.21-0.23 1.16 1.16 0 0 1 0.29-0.22 1.08 1.08 0 0 1 0.46-0.15 0.51 0.51 0 0 1 0.37 0.13 1 1 0 0 1 0.26 0.44 2.63 2.63 0 0 1 0.11 0.77v0.63a4.1 4.1 0 0 1-0.11 0.9 3.56 3.56 0 0 1-0.26 0.74 2.67 2.67 0 0 1-0.37 0.57 2.2 2.2 0 0 1-0.47 0.41zm0.24-2.13a3.53 3.53 0 0 0 0-0.46 0.84 0.84 0 0 0-0.12-0.43c-0.07-0.1-0.19-0.1-0.36 0a0.7 0.7 0 0 0-0.2 0.18 0.79 0.79 0 0 0-0.14 0.23 1.34 1.34 0 0 0-0.09 0.26 1.26 1.26 0 0 0 0 0.27 2.33 2.33 0 0 0 0 0.29 2.16 2.16 0 0 0 0 0.28 0.78 0.78 0 0 0 0 0.22 0.51 0.51 0 0 0 0.09 0.16 0.21 0.21 0 0 0 0.14 0.07 0.49 0.49 0 0 0 0.2-0.06 0.82 0.82 0 0 0 0.36-0.42 1.94 1.94 0 0 0 0.12-0.59z"/><path d="m232.07 344.51a0.84 0.84 0 0 1-0.28 0.11h-0.2a0.37 0.37 0 0 1-0.14-0.08 0.5 0.5 0 0 1-0.1-0.11v1.76a0.65 0.65 0 0 1 0 0.18 0.32 0.32 0 0 1-0.1 0.12l-0.68 0.39a0.08 0.08 0 0 1-0.1 0v-0.13-5.4a0.39 0.39 0 0 1 0-0.18 0.25 0.25 0 0 1 0.1-0.12l0.65-0.37a0.08 0.08 0 0 1 0.1 0 0.18 0.18 0 0 1 0 0.14v0.18l0.11-0.23a1 1 0 0 1 0.14-0.24 1.07 1.07 0 0 1 0.2-0.23 1.46 1.46 0 0 1 0.3-0.22 1.09 1.09 0 0 1 0.45-0.15 0.5 0.5 0 0 1 0.37 0.13 0.89 0.89 0 0 1 0.26 0.44 2.63 2.63 0 0 1 0.11 0.77 3 3 0 0 1 0 0.33 3.23 3.23 0 0 1 0 0.34 4.1 4.1 0 0 1-0.11 0.9 3.07 3.07 0 0 1-0.26 0.74 2.33 2.33 0 0 1-0.37 0.57 1.93 1.93 0 0 1-0.45 0.36zm0.24-2.13a3.53 3.53 0 0 0 0-0.46 1 1 0 0 0-0.13-0.43c-0.07-0.1-0.19-0.1-0.35 0a0.68 0.68 0 0 0-0.21 0.17 1.76 1.76 0 0 0-0.14 0.23 1.61 1.61 0 0 0-0.09 0.26 2.5 2.5 0 0 0 0 0.56 2.35 2.35 0 0 0 0 0.28 1.43 1.43 0 0 0 0 0.22 0.42 0.42 0 0 0 0.09 0.16 0.27 0.27 0 0 0 0.14 0.07 0.48 0.48 0 0 0 0.21-0.06 0.85 0.85 0 0 0 0.35-0.42 2.32 2.32 0 0 0 0.13-0.58z"/><path d="m235 342.51a0.39 0.39 0 0 1 0 0.18 0.34 0.34 0 0 1-0.1 0.13l-0.67 0.39h-0.1a0.17 0.17 0 0 1-0.05-0.13v-5.4a0.41 0.41 0 0 1 0.05-0.18 0.2 0.2 0 0 1 0.1-0.12l0.67-0.39a0.09 0.09 0 0 1 0.1 0 0.2 0.2 0 0 1 0 0.14z"/><path d="m237.34 342.75a1 1 0 0 1-0.05 0.16 0.28 0.28 0 0 1-0.11 0.13l-0.7 0.4a0.08 0.08 0 0 1-0.09 0 0.19 0.19 0 0 1 0-0.12v-0.06l0.41-1.71-1.08-3.23a0.11 0.11 0 0 1 0-0.06 0.47 0.47 0 0 1 0-0.16 0.2 0.2 0 0 1 0.09-0.11l0.7-0.4h0.1a0.17 0.17 0 0 1 0.06 0.1l0.59 1.79 0.59-2.48a0.58 0.58 0 0 1 0.05-0.16 0.25 0.25 0 0 1 0.1-0.12l0.71-0.41a0.08 0.08 0 0 1 0.09 0 0.21 0.21 0 0 1 0 0.12v0.06z"/></g><g fill="#455a64"><path d="m132.77 176.22 1.31 0.59 0.12 0.09a0.28 0.28 0 0 1 0.06 0.2v0.75a0.41 0.41 0 0 1 0 0.16 0.3 0.3 0 0 1-0.09 0.1h-0.06l-2-0.93a0.36 0.36 0 0 1-0.12-0.08 0.33 0.33 0 0 1 0-0.2v-0.37a0.55 0.55 0 0 1 0-0.24 1.71 1.71 0 0 1 0.12-0.23l2-3.27a0.07 0.07 0 0 1 0.09 0 0.16 0.16 0 0 1 0 0.11v0.76a0.66 0.66 0 0 1-0.06 0.27c0 0.09-0.09 0.16-0.12 0.23z"/><path d="m135.21 177.92a0.08 0.08 0 0 1-0.11 0 0.18 0.18 0 0 1 0-0.14v-5.78a0.45 0.45 0 0 1 0-0.19 0.33 0.33 0 0 1 0.11-0.14l1.7-1a1.11 1.11 0 0 1 0.62-0.19 0.58 0.58 0 0 1 0.4 0.21 1.21 1.21 0 0 1 0.22 0.44 2.48 2.48 0 0 1 0.06 0.54 2.6 2.6 0 0 1 0 0.5 2.1 2.1 0 0 1-0.12 0.42 2.06 2.06 0 0 1-0.13 0.33 1 1 0 0 1-0.11 0.19 0.85 0.85 0 0 1 0.34 0.34 1.7 1.7 0 0 1 0.15 0.78 3.08 3.08 0 0 1-0.09 0.72 4 4 0 0 1-0.23 0.74 3.86 3.86 0 0 1-0.39 0.65 2 2 0 0 1-0.54 0.48zm2.22-5.71c0-0.23 0-0.37-0.13-0.44s-0.24 0-0.44 0.08l-1 0.59v1.37l1-0.59a1.12 1.12 0 0 0 0.44-0.42 1.25 1.25 0 0 0 0.13-0.59zm-1.6 4.24 1.07-0.62a1.14 1.14 0 0 0 0.47-0.48 1.33 1.33 0 0 0 0.14-0.63 0.58 0.58 0 0 0-0.15-0.46c-0.1-0.09-0.25-0.07-0.46 0.05l-1.07 0.62z"/><path d="m139 172.26a2.58 2.58 0 0 1 0.1-0.46 4.09 4.09 0 0 1 0.24-0.54 3.54 3.54 0 0 1 0.37-0.52 2.66 2.66 0 0 1 0.52-0.42 1.33 1.33 0 0 1 0.53-0.18 0.53 0.53 0 0 1 0.41 0.11 0.79 0.79 0 0 1 0.26 0.43 2.31 2.31 0 0 1 0.1 0.75v2.62a0.49 0.49 0 0 1-0.05 0.2 0.29 0.29 0 0 1-0.11 0.13l-0.44 0.25a0.08 0.08 0 0 1-0.11 0 0.21 0.21 0 0 1 0-0.15v-0.29a3.1 3.1 0 0 1-0.35 0.64 2 2 0 0 1-0.59 0.52 0.86 0.86 0 0 1-0.44 0.15 0.46 0.46 0 0 1-0.33-0.09 0.68 0.68 0 0 1-0.2-0.33 1.52 1.52 0 0 1-0.08-0.51 2.25 2.25 0 0 1 0.29-1.12 3.12 3.12 0 0 1 0.75-0.91l0.95-0.8c0-0.24-0.06-0.38-0.16-0.42a0.46 0.46 0 0 0-0.39 0.07 0.84 0.84 0 0 0-0.22 0.19 1.64 1.64 0 0 0-0.16 0.26 0.83 0.83 0 0 1-0.09 0.15 0.41 0.41 0 0 1-0.1 0.09l-0.54 0.31a0.09 0.09 0 0 1-0.1 0s-0.06-0.06-0.06-0.13zm1 2a1.39 1.39 0 0 0 0.35-0.29 2 2 0 0 0 0.26-0.38 1.56 1.56 0 0 0 0.15-0.41 1.43 1.43 0 0 0 0.06-0.39v-0.09l-0.79 0.67a1.43 1.43 0 0 0-0.34 0.38 0.76 0.76 0 0 0-0.11 0.38c0 0.13 0.05 0.19 0.13 0.21a0.51 0.51 0 0 0 0.22-0.12z"/><path d="m142.87 170.87a3.11 3.11 0 0 0 0 0.32 2.63 2.63 0 0 0 0 0.3 1.5 1.5 0 0 0 0.08 0.43 0.5 0.5 0 0 0 0.16 0.22 0.34 0.34 0 0 0 0.21 0.06 0.57 0.57 0 0 0 0.24-0.08 0.76 0.76 0 0 0 0.24-0.18 1 1 0 0 0 0.17-0.19 1.64 1.64 0 0 0 0.12-0.22l0.09-0.25 0.08-0.21c0-0.07 0.07-0.12 0.12-0.14l0.43-0.25a0.09 0.09 0 0 1 0.12 0 0.21 0.21 0 0 1 0 0.15 2 2 0 0 1-0.09 0.5 2.85 2.85 0 0 1-0.25 0.66 3.39 3.39 0 0 1-0.43 0.66 2.22 2.22 0 0 1-0.64 0.54 1 1 0 0 1-0.57 0.16 0.66 0.66 0 0 1-0.44-0.19 1 1 0 0 1-0.3-0.48 2.73 2.73 0 0 1-0.13-0.7v-0.35-0.37a4.48 4.48 0 0 1 0.13-0.86 4.42 4.42 0 0 1 0.29-0.82 3.35 3.35 0 0 1 0.45-0.7 2.23 2.23 0 0 1 0.57-0.5 1.21 1.21 0 0 1 0.64-0.19 0.69 0.69 0 0 1 0.43 0.16 0.76 0.76 0 0 1 0.25 0.36 1.13 1.13 0 0 1 0.09 0.41 0.46 0.46 0 0 1 0 0.19 0.34 0.34 0 0 1-0.12 0.14l-0.43 0.25a0.09 0.09 0 0 1-0.12 0l-0.08-0.12a0.73 0.73 0 0 0-0.09-0.13 0.27 0.27 0 0 0-0.12-0.09 0.25 0.25 0 0 0-0.17 0 1 1 0 0 0-0.24 0.1 1.06 1.06 0 0 0-0.24 0.2 1.94 1.94 0 0 0-0.21 0.3 2.56 2.56 0 0 0-0.16 0.4 2.7 2.7 0 0 0-0.08 0.51z"/><path d="m146.35 169.72v1.53a0.34 0.34 0 0 1 0 0.19 0.27 0.27 0 0 1-0.11 0.14l-0.43 0.25a0.08 0.08 0 0 1-0.11 0s-0.05-0.07-0.05-0.14v-5.84a0.34 0.34 0 0 1 0.05-0.19 0.27 0.27 0 0 1 0.11-0.14l0.43-0.25h0.11a0.16 0.16 0 0 1 0 0.14v2.8l1-1.75a0.6 0.6 0 0 1 0.09-0.15 0.35 0.35 0 0 1 0.13-0.14l0.59-0.34a0.08 0.08 0 0 1 0.1 0v0.13a0.28 0.28 0 0 1 0 0.09 0.51 0.51 0 0 1 0 0.12l-1.35 2.45 1.47 1.33a0.13 0.13 0 0 1 0 0.06 0.19 0.19 0 0 1 0 0.08 0.35 0.35 0 0 1 0 0.17 0.25 0.25 0 0 1-0.1 0.12l-0.56 0.32a0.19 0.19 0 0 1-0.15 0l-0.09-0.05z"/><path d="m239.86 111.47a0.32 0.32 0 0 1-0.26-0.15 0.31 0.31 0 0 1 0.11-0.41l7.36-4.25a0.31 0.31 0 0 1 0.41 0.11 0.29 0.29 0 0 1-0.11 0.4l-7.37 4.26a0.42 0.42 0 0 1-0.14 0.04z"/><path d="m239.86 114.72a0.3 0.3 0 0 1-0.26-0.15 0.29 0.29 0 0 1 0.11-0.4l7.36-4.25a0.3 0.3 0 1 1 0.3 0.51l-7.37 4.25a0.28 0.28 0 0 1-0.14 0.04z"/><path d="m239.86 118a0.32 0.32 0 0 1-0.26-0.15 0.31 0.31 0 0 1 0.11-0.41l7.36-4.25a0.31 0.31 0 0 1 0.41 0.11 0.29 0.29 0 0 1-0.11 0.4l-7.37 4.24a0.42 0.42 0 0 1-0.14 0.06z"/><path d="m239.83 110.07c0.51-0.29 0.93 0 0.93 0.54a2 2 0 0 1-0.94 1.61c-0.51 0.29-0.93 0-0.93-0.54a2.06 2.06 0 0 1 0.94-1.61z"/><path d="m245.51 110.07c0.52-0.29 0.93 0 0.93 0.54a2 2 0 0 1-0.93 1.61c-0.52 0.29-0.94 0-0.94-0.54a2.11 2.11 0 0 1 0.94-1.61z"/><path d="m243 114.78c0.51-0.3 0.93-0.06 0.93 0.53a2 2 0 0 1-0.93 1.61c-0.52 0.29-0.94 0-0.94-0.54a2.08 2.08 0 0 1 0.94-1.6z"/><path d="m172 158.7a1.32 1.32 0 0 1 0-0.27l1.39-9.61a1 1 0 0 1 0.55-0.71l0.58-0.34c0.33-0.19 0.52-0.16 0.56 0.07l1.39 8v0.24a0.65 0.65 0 0 1-0.38 0.53l-0.48 0.28c-0.29 0.16-0.45 0.16-0.48 0l-0.23-1.56-1.37 0.79-0.24 1.83a0.76 0.76 0 0 1-0.43 0.54l-0.46 0.27c-0.29 0.16-0.4 0.14-0.4-0.06zm2.78-5-0.41-2.7c0-0.31-0.08-0.64-0.11-1 0 0.39-0.07 0.76-0.11 1.12l-0.4 3.17z"/><path d="m177.09 155.88c-0.06 0-0.08-0.18-0.08-0.37v-8.59a1 1 0 0 1 0.08-0.47 0.57 0.57 0 0 1 0.25-0.28l1.71-1c0.78-0.45 1.35-0.38 1.72 0.21a6.86 6.86 0 0 1 0.56 3.33 11.76 11.76 0 0 1-0.56 4 4 4 0 0 1-1.72 2.2l-1.71 1c-0.12 0.03-0.2 0.03-0.25-0.03zm1.91-2.79a1.63 1.63 0 0 0 0.69-1.08 11.3 11.3 0 0 0 0.2-2.47 8 8 0 0 0-0.2-2.22q-0.21-0.57-0.69-0.3l-0.57 0.34v6.07z"/><path d="m183 152.35-1.37-8.12a1.76 1.76 0 0 1 0-0.23c0-0.2 0.17-0.4 0.52-0.61l0.34-0.19c0.3-0.18 0.47-0.14 0.5 0.11l0.76 5.82 0.08 0.91 0.08-1 0.81-6.73a0.88 0.88 0 0 1 0.49-0.69l0.34-0.19c0.34-0.2 0.51-0.19 0.51 0a1.58 1.58 0 0 1 0 0.26l-1.37 9.7a0.83 0.83 0 0 1-0.47 0.57l-0.72 0.41c-0.33 0.16-0.5 0.16-0.5-0.02z"/><path d="m186 150.62a1.39 1.39 0 0 1 0-0.27l1.38-9.61a1 1 0 0 1 0.55-0.71l0.59-0.34c0.33-0.19 0.51-0.16 0.56 0.07l1.38 8v0.24a0.64 0.64 0 0 1-0.39 0.53l-0.48 0.28c-0.28 0.16-0.44 0.16-0.47 0l-0.24-1.56-1.36 0.79-0.25 1.83a0.72 0.72 0 0 1-0.42 0.54l-0.47 0.27c-0.28 0.16-0.38 0.14-0.38-0.06zm2.78-5-0.4-2.7c-0.05-0.31-0.08-0.64-0.11-1 0 0.39-0.06 0.76-0.1 1.12l-0.4 3.17z"/><path d="m191 147.59v-8.87a0.87 0.87 0 0 1 0.53-0.74l0.23-0.14a0.71 0.71 0 0 1 0.29-0.09q0.1 0 0.18 0.21l1.62 3.58c0.08 0.2 0.18 0.5 0.3 0.91a9.89 9.89 0 0 1-0.07-1.05v-4.42a0.86 0.86 0 0 1 0.52-0.75l0.22-0.12c0.34-0.2 0.52-0.16 0.52 0.14v8.87a0.88 0.88 0 0 1-0.52 0.74l-0.17 0.1a0.62 0.62 0 0 1-0.3 0.1c-0.08 0-0.14-0.08-0.19-0.21l-1.72-3.71a6.8 6.8 0 0 1-0.24-0.75l-0.05 0.07a7.86 7.86 0 0 1 0.08 0.9v4.56a0.87 0.87 0 0 1-0.53 0.74l-0.21 0.12c-0.36 0.16-0.49 0.11-0.49-0.19z"/><path d="m196.7 143.6a7 7 0 0 1-0.57-3.46 11.56 11.56 0 0 1 0.6-4.06 4.26 4.26 0 0 1 1.85-2.28 2 2 0 0 1 0.78-0.3c0.19 0 0.28 0.12 0.28 0.43a4.17 4.17 0 0 1-0.12 1c-0.08 0.33-0.18 0.49-0.3 0.5a1.47 1.47 0 0 0-0.58 0.19 2 2 0 0 0-0.8 1.23 9 9 0 0 0-0.27 2.47 6 6 0 0 0 0.27 2.16 0.52 0.52 0 0 0 0.85 0.28 1.26 1.26 0 0 0 0.28-0.2l0.31-0.29 0.08-0.06c0.12-0.07 0.21 0 0.27 0.19a3.07 3.07 0 0 1 0.09 0.86 1.52 1.52 0 0 1-0.05 0.38 1 1 0 0 1-0.21 0.35 3.15 3.15 0 0 1-0.41 0.38 3 3 0 0 1-0.52 0.36c-0.84 0.5-1.45 0.45-1.83-0.13z"/><path d="m200.52 142.35a0.59 0.59 0 0 1-0.08-0.37v-8.59a1.21 1.21 0 0 1 0.08-0.47 0.68 0.68 0 0 1 0.25-0.28l2.66-1.53c0.09-0.05 0.16 0 0.2 0a1.35 1.35 0 0 1 0.06 0.49v0.43a2 2 0 0 1-0.06 0.56 0.44 0.44 0 0 1-0.2 0.28l-1.58 0.92v2l1.4-0.81c0.09-0.06 0.16 0 0.2 0.05a1.31 1.31 0 0 1 0.06 0.49v0.48a2 2 0 0 1-0.06 0.56 0.44 0.44 0 0 1-0.2 0.28l-1.4 0.81v2.25l1.59-0.92c0.09-0.06 0.15 0 0.19 0a1.35 1.35 0 0 1 0.06 0.49v0.53a2 2 0 0 1-0.06 0.56 0.43 0.43 0 0 1-0.19 0.28l-2.67 1.54c-0.11 0.03-0.19 0.03-0.25-0.03z"/><path d="m204.63 140a0.62 0.62 0 0 1-0.08-0.38v-8.62a1.24 1.24 0 0 1 0.08-0.47 0.57 0.57 0 0 1 0.26-0.27l1.71-1c0.78-0.45 1.35-0.38 1.72 0.21a6.84 6.84 0 0 1 0.56 3.32 11.83 11.83 0 0 1-0.56 4 4 4 0 0 1-1.72 2.2l-1.71 1c-0.12 0.01-0.2 0.01-0.26 0.01zm1.92-2.79a1.68 1.68 0 0 0 0.69-1.08 11.36 11.36 0 0 0 0.2-2.47 8.13 8.13 0 0 0-0.2-2.23c-0.14-0.38-0.37-0.47-0.69-0.29l-0.57 0.33v6.07z"/><path d="m162.9 179.75a7.07 7.07 0 0 1-0.57-3.47 11.46 11.46 0 0 1 0.6-4.05 4.25 4.25 0 0 1 1.85-2.29 2.39 2.39 0 0 1 0.78-0.3c0.19 0 0.28 0.12 0.28 0.43a4.25 4.25 0 0 1-0.12 1c-0.08 0.32-0.18 0.48-0.3 0.49a1.47 1.47 0 0 0-0.58 0.19 2 2 0 0 0-0.84 1.25 9 9 0 0 0-0.27 2.47 6.08 6.08 0 0 0 0.27 2.17 0.52 0.52 0 0 0 0.85 0.27 1.26 1.26 0 0 0 0.28-0.2l0.31-0.29 0.08-0.06c0.12-0.07 0.21 0 0.27 0.19a3.07 3.07 0 0 1 0.09 0.86 1.6 1.6 0 0 1 0 0.39 1 1 0 0 1-0.21 0.34 3.76 3.76 0 0 1-0.4 0.38 4.6 4.6 0 0 1-0.53 0.37c-0.85 0.48-1.46 0.43-1.84-0.14z"/><path d="m167.16 177.71a2.29 2.29 0 0 1-0.57-1.85v-6.44a0.86 0.86 0 0 1 0.52-0.74l0.36-0.21c0.35-0.2 0.52-0.15 0.52 0.14v6.3a1.23 1.23 0 0 0 0.21 0.81c0.14 0.15 0.32 0.16 0.56 0a1.37 1.37 0 0 0 0.55-0.68 2.58 2.58 0 0 0 0.21-1v-6.3a0.88 0.88 0 0 1 0.48-0.74l0.35-0.2c0.35-0.2 0.53-0.15 0.53 0.14v6.44a5.4 5.4 0 0 1-0.57 2.51 4.13 4.13 0 0 1-1.59 1.69c-0.64 0.42-1.17 0.42-1.56 0.13z"/><path d="m172.36 175.28a0.64 0.64 0 0 1-0.63-0.18 0.74 0.74 0 0 1-0.12-0.42 3.52 3.52 0 0 1 0.13-0.86c0.1-0.32 0.19-0.52 0.3-0.58a0.31 0.31 0 0 1 0.23 0l0.23 0.06a0.87 0.87 0 0 0 0.62-0.08 1.43 1.43 0 0 0 0.49-0.49 1.5 1.5 0 0 0 0.2-0.83 1.24 1.24 0 0 0-0.1-0.57 0.61 0.61 0 0 0-0.27-0.28 2.59 2.59 0 0 0-0.45-0.15 1.64 1.64 0 0 1-1-0.69 3.1 3.1 0 0 1-0.31-1.61 4.78 4.78 0 0 1 0.52-2.25 3.52 3.52 0 0 1 1.37-1.5 1.69 1.69 0 0 1 0.65-0.23 0.8 0.8 0 0 1 0.53 0.05c0.11 0 0.16 0.18 0.16 0.39a3.72 3.72 0 0 1-0.1 0.82c-0.07 0.31-0.16 0.49-0.26 0.55a0.54 0.54 0 0 1-0.26 0 1 1 0 0 0-0.58 0.13 1.13 1.13 0 0 0-0.5 0.52 1.53 1.53 0 0 0-0.13 0.62 1 1 0 0 0 0.17 0.68 1.34 1.34 0 0 0 0.55 0.27l0.21 0.06a1.5 1.5 0 0 1 0.9 0.67 3.25 3.25 0 0 1 0.27 1.52 6 6 0 0 1-0.21 1.56 5.24 5.24 0 0 1-0.66 1.44 3.34 3.34 0 0 1-1.09 1 2.21 2.21 0 0 1-0.86 0.38z"/><path d="m176.64 172.48v-7.48l-1 0.57c-0.09 0.06-0.15 0-0.2-0.05a1.31 1.31 0 0 1-0.06-0.49v-0.43a2 2 0 0 1 0.06-0.56 0.48 0.48 0 0 1 0.2-0.28l3.42-2c0.1-0.05 0.17 0 0.21 0a1.35 1.35 0 0 1 0.06 0.49v0.43a2 2 0 0 1-0.06 0.56 0.46 0.46 0 0 1-0.21 0.29l-1 0.58v7.47a0.86 0.86 0 0 1-0.52 0.74l-0.37 0.22c-0.36 0.29-0.53 0.24-0.53-0.06z"/><path d="m179.56 166.37q0-5 2.35-6.32c0.77-0.45 1.35-0.38 1.75 0.19a6.55 6.55 0 0 1 0.6 3.41 11.57 11.57 0 0 1-0.6 4.1 4.17 4.17 0 0 1-1.75 2.22c-1.57 0.91-2.35-0.3-2.35-3.6zm2.88 1.2a3.31 3.31 0 0 0 0.3-1.14 14.69 14.69 0 0 0 0.1-2 12.08 12.08 0 0 0-0.1-1.83 1.23 1.23 0 0 0-0.3-0.79c-0.13-0.11-0.3-0.11-0.52 0a1.35 1.35 0 0 0-0.52 0.58 3.52 3.52 0 0 0-0.31 1.14 14.73 14.73 0 0 0-0.1 1.95 12.14 12.14 0 0 0 0.1 1.84 1.28 1.28 0 0 0 0.31 0.79 0.44 0.44 0 0 0 0.52 0 1.34 1.34 0 0 0 0.52-0.54z"/><path d="m187.4 163.52a0.31 0.31 0 0 1-0.14-0.17l-0.67-1.53c0-0.08-0.07-0.18-0.1-0.29l-0.09-0.25v0.73 4.8a0.73 0.73 0 0 1-0.12 0.41 1.27 1.27 0 0 1-0.4 0.33l-0.31 0.18a0.6 0.6 0 0 1-0.4 0.13q-0.12 0-0.12-0.27v-8.87a0.71 0.71 0 0 1 0.12-0.41 1.4 1.4 0 0 1 0.4-0.34l0.28-0.16a0.55 0.55 0 0 1 0.35-0.1 0.24 0.24 0 0 1 0.19 0.18l1.12 2.61a2.64 2.64 0 0 1 0.17 0.57 6.72 6.72 0 0 1 0.16-0.76l1.12-3.9a1 1 0 0 1 0.2-0.41 1.09 1.09 0 0 1 0.34-0.29l0.28-0.16a0.62 0.62 0 0 1 0.4-0.13q0.12 0 0.12 0.27v8.87a0.73 0.73 0 0 1-0.12 0.41 1.4 1.4 0 0 1-0.4 0.33l-0.31 0.18a0.62 0.62 0 0 1-0.4 0.13q-0.12 0-0.12-0.27v-4.8a6.56 6.56 0 0 1 0.06-0.8c-0.05 0.2-0.11 0.46-0.2 0.77l-0.67 2.29a1.24 1.24 0 0 1-0.14 0.34 0.6 0.6 0 0 1-0.22 0.2l-0.15 0.09a0.28 0.28 0 0 1-0.23 0.09z"/><path d="m191.27 164v-8.87a0.88 0.88 0 0 1 0.53-0.76l0.37-0.22c0.35-0.2 0.52-0.14 0.52 0.16v8.87a0.84 0.84 0 0 1-0.52 0.75l-0.37 0.22c-0.35 0.24-0.53 0.19-0.53-0.15z"/><path d="m193.49 162.72a2.45 2.45 0 0 1-0.12-0.71 0.58 0.58 0 0 1 0-0.15l2.29-7.83-1.85 1.07c-0.09 0.05-0.15 0-0.19-0.06a1.31 1.31 0 0 1-0.06-0.49v-0.43a2 2 0 0 1 0.06-0.56 0.49 0.49 0 0 1 0.19-0.28l3.29-1.89c0.07 0 0.14 0.07 0.22 0.35a3 3 0 0 1 0.11 0.73v0.06l-2.28 7.82 2-1.17c0.09-0.05 0.15 0 0.19 0.05a1.12 1.12 0 0 1 0.07 0.49v0.43a1.66 1.66 0 0 1-0.07 0.56 0.43 0.43 0 0 1-0.19 0.28l-3.48 2c-0.03 0.09-0.1 0.01-0.18-0.27z"/><path d="m197.74 160.44a1.57 1.57 0 0 1 0-0.27l1.39-9.61a1 1 0 0 1 0.55-0.7l0.58-0.34c0.33-0.19 0.52-0.17 0.56 0.07l1.39 8v0.24a0.62 0.62 0 0 1-0.38 0.52l-0.48 0.28c-0.29 0.17-0.45 0.16-0.48 0l-0.23-1.55-1.37 0.79-0.24 1.83a0.73 0.73 0 0 1-0.43 0.53l-0.46 0.27c-0.25 0.16-0.4 0.14-0.4-0.06zm2.79-5-0.41-2.71c0-0.3-0.08-0.64-0.11-1 0 0.39-0.07 0.76-0.11 1.11l-0.4 3.17z"/><path d="m203.37 157.05v-7.47l-1 0.58c-0.09 0.05-0.15 0-0.2 0a1.35 1.35 0 0 1-0.06-0.49v-0.43a2 2 0 0 1 0.06-0.56 0.48 0.48 0 0 1 0.2-0.28l3.42-2c0.1-0.05 0.17 0 0.21 0a1.35 1.35 0 0 1 0.06 0.49v0.43a2 2 0 0 1-0.06 0.56 0.46 0.46 0 0 1-0.21 0.29l-1 0.58v7.47a0.86 0.86 0 0 1-0.52 0.74l-0.37 0.21c-0.36 0.23-0.53 0.18-0.53-0.12z"/><path d="m206.59 155.19v-8.87a0.88 0.88 0 0 1 0.52-0.75l0.38-0.22c0.34-0.2 0.52-0.15 0.52 0.16v8.87a0.88 0.88 0 0 1-0.52 0.75l-0.38 0.22c-0.34 0.2-0.52 0.15-0.52-0.16z"/><path d="m208.82 149.47c0-3.31 0.79-5.41 2.36-6.32 0.77-0.45 1.35-0.38 1.75 0.19a6.58 6.58 0 0 1 0.6 3.41 11.57 11.57 0 0 1-0.6 4.1 4.13 4.13 0 0 1-1.75 2.22q-2.35 1.37-2.36-3.6zm2.89 1.2a3.85 3.85 0 0 0 0.3-1.13 14.86 14.86 0 0 0 0.1-2 12.08 12.08 0 0 0-0.1-1.83 1.39 1.39 0 0 0-0.3-0.79c-0.13-0.11-0.3-0.1-0.52 0a1.43 1.43 0 0 0-0.53 0.58 4 4 0 0 0-0.3 1.14 14.48 14.48 0 0 0-0.11 1.95 11.88 11.88 0 0 0 0.11 1.84 1.39 1.39 0 0 0 0.3 0.8 0.47 0.47 0 0 0 0.53 0 1.34 1.34 0 0 0 0.52-0.56z"/><path d="m214.34 150.72v-8.87a0.86 0.86 0 0 1 0.52-0.74l0.24-0.14a0.47 0.47 0 0 1 0.28-0.09q0.12 0 0.18 0.21l1.62 3.58a6.53 6.53 0 0 1 0.31 0.91v-0.05c-0.05-0.46-0.08-0.81-0.08-1.06v-4.42a0.87 0.87 0 0 1 0.53-0.74l0.21-0.13c0.35-0.2 0.52-0.15 0.52 0.15v8.86a0.86 0.86 0 0 1-0.52 0.75l-0.17 0.1a0.5 0.5 0 0 1-0.3 0.09c-0.07 0-0.14-0.07-0.18-0.2l-1.72-3.72a4.86 4.86 0 0 1-0.25-0.74v0.06a7.69 7.69 0 0 1 0.07 0.9v4.57a0.86 0.86 0 0 1-0.52 0.75l-0.22 0.12c-0.35 0.19-0.52 0.13-0.52-0.15z"/><path d="m147.88 151.09a0.35 0.35 0 0 1 0-0.19v-0.9l-1.46 0.85c-0.08 0.05-0.12 0-0.12-0.13v-0.34-0.18a0.94 0.94 0 0 1 0.06-0.18l1.55-4.25a0.68 0.68 0 0 1 0.08-0.17 0.3 0.3 0 0 1 0.1-0.09l0.2-0.11h0.13a0.32 0.32 0 0 1 0.05 0.21v3.27l0.32-0.19h0.13a0.45 0.45 0 0 1 0 0.21v0.22a0.75 0.75 0 0 1 0 0.24 0.43 0.43 0 0 1-0.13 0.14l-0.32 0.18v0.94a0.63 0.63 0 0 1 0 0.23 0.4 0.4 0 0 1-0.14 0.15l-0.24 0.14c-0.09-0.02-0.18-0.02-0.21-0.05zm0.06-2v-2.33l-1.06 2.95z"/><path d="m149.62 149.52a3.13 3.13 0 0 1-0.43-1.91 6.1 6.1 0 0 1 0.44-2.41 2.92 2.92 0 0 1 1.21-1.46 1.75 1.75 0 0 1 0.58-0.22 0.62 0.62 0 0 1 0.46 0.07 0.09 0.09 0 0 1 0 0.08 0.65 0.65 0 0 1 0 0.11l-0.13 0.49c0 0.06 0 0.09-0.06 0.1h-0.06a0.82 0.82 0 0 0-0.75 0.12 2 2 0 0 0-0.82 1 4.59 4.59 0 0 0-0.3 1.78 2.37 2.37 0 0 0 0.29 1.44c0.19 0.24 0.46 0.26 0.8 0.07a2.7 2.7 0 0 0 0.36-0.26 2 2 0 0 0 0.28-0.32v-1.52l-0.61 0.35h-0.13a0.48 0.48 0 0 1 0-0.21v-0.21a0.78 0.78 0 0 1 0-0.24 0.35 0.35 0 0 1 0.13-0.14l1-0.56h0.14a0.44 0.44 0 0 1 0 0.25v2.16a1 1 0 0 1 0 0.2 0.53 0.53 0 0 1-0.06 0.14 3.14 3.14 0 0 1-1.15 1.14c-0.5 0.32-0.9 0.3-1.19-0.04z"/><path d="m162 142.05a2.23 2.23 0 0 1-0.85 1.8c-0.47 0.27-0.85-0.09-0.85-0.82a2.26 2.26 0 0 1 0.85-1.8c0.43-0.23 0.85 0.1 0.85 0.82z"/><path d="m161.11 139.09a5.21 5.21 0 0 0-2 3c-0.07 0.26 0 0.52 0.1 0.6 0.16 0.1 0.4-0.11 0.49-0.44a3.59 3.59 0 0 1 1.39-2.1 0.9 0.9 0 0 1 1.39 0.49c0.1 0.23 0.34 0.16 0.5-0.13a0.9 0.9 0 0 0 0.09-0.7 1.29 1.29 0 0 0-1.96-0.72z"/><path d="m161.11 137a8 8 0 0 0-3 4.32c-0.1 0.28-0.07 0.56 0.07 0.65 0.16 0.1 0.38-0.09 0.49-0.41a6.44 6.44 0 0 1 2.47-3.53 1.65 1.65 0 0 1 2.48 0.67c0.1 0.2 0.33 0.13 0.49-0.15a0.88 0.88 0 0 0 0.07-0.73 2 2 0 0 0-3.07-0.82z"/><path d="m183.31 127.29a0.2 0.2 0 0 1 0-0.16 0.35 0.35 0 0 1 0.06-0.19l1.22-2.18 0.09-0.15a0.27 0.27 0 0 1 0.1-0.11l0.44-0.25a0.08 0.08 0 0 1 0.11 0 0.2 0.2 0 0 1 0 0.14v5.61a0.43 0.43 0 0 1 0 0.19 0.25 0.25 0 0 1-0.11 0.13l-0.45 0.27h-0.11a0.2 0.2 0 0 1 0-0.14v-4.27l-0.79 1.42a0.29 0.29 0 0 1-0.11 0.11 0.11 0.11 0 0 1-0.11 0z"/><path d="m186.15 125.65a0.26 0.26 0 0 1 0-0.16 0.6 0.6 0 0 1 0.06-0.19l1.22-2.18 0.09-0.16a0.26 0.26 0 0 1 0.11-0.1l0.43-0.26h0.11a0.2 0.2 0 0 1 0.05 0.14v5.59a0.45 0.45 0 0 1-0.05 0.19 0.24 0.24 0 0 1-0.11 0.13l-0.45 0.26a0.09 0.09 0 0 1-0.11 0 0.2 0.2 0 0 1 0-0.14v-4.27l-0.8 1.42a0.26 0.26 0 0 1-0.11 0.12 0.09 0.09 0 0 1-0.1 0z"/><path d="m189.88 123.25a0.09 0.09 0 0 1 0.11 0 0.18 0.18 0 0 1 0 0.14v0.84a0.41 0.41 0 0 1 0 0.19 0.33 0.33 0 0 1-0.11 0.14l-0.52 0.3a0.09 0.09 0 0 1-0.11 0 0.2 0.2 0 0 1 0-0.14v-0.85a0.46 0.46 0 0 1 0-0.19 0.36 0.36 0 0 1 0.11-0.13zm0 3a0.08 0.08 0 0 1 0.11 0 0.17 0.17 0 0 1 0 0.13v0.85a0.41 0.41 0 0 1 0 0.19 0.25 0.25 0 0 1-0.11 0.13l-0.52 0.31a0.09 0.09 0 0 1-0.11 0 0.2 0.2 0 0 1 0-0.14v-0.85a0.43 0.43 0 0 1 0-0.19 0.29 0.29 0 0 1 0.11-0.13z"/><path d="m192.89 125.86h-0.11a0.18 0.18 0 0 1-0.05-0.14v-1l-1.74 1a0.09 0.09 0 0 1-0.11 0 0.2 0.2 0 0 1 0-0.14v-0.62a0.62 0.62 0 0 1 0-0.23 2.25 2.25 0 0 1 0.08-0.24l1.72-4.3c0.08-0.19 0.15-0.31 0.23-0.35l0.43-0.25a0.09 0.09 0 0 1 0.11 0 0.18 0.18 0 0 1 0 0.14v3.46l0.49-0.28a0.07 0.07 0 0 1 0.1 0 0.16 0.16 0 0 1 0 0.13v0.62a0.45 0.45 0 0 1 0 0.19 0.28 0.28 0 0 1-0.1 0.13l-0.49 0.28v1a0.46 0.46 0 0 1 0 0.19 0.36 0.36 0 0 1-0.11 0.13zm-0.16-2.27v-1.86l-1 2.41z"/><path d="m195.14 118.73a0.49 0.49 0 0 1 0.05-0.19 0.28 0.28 0 0 1 0.11-0.13l2.11-1.22a0.09 0.09 0 0 1 0.11 0 0.18 0.18 0 0 1 0 0.14v0.67a0.41 0.41 0 0 1 0 0.19 0.25 0.25 0 0 1-0.11 0.13l-1.58 0.91-0.06 1.15a1.61 1.61 0 0 1 0.3-0.29l0.24-0.16a1.38 1.38 0 0 1 0.59-0.2 0.65 0.65 0 0 1 0.46 0.11 0.89 0.89 0 0 1 0.31 0.45 2.23 2.23 0 0 1 0.12 0.79 4.08 4.08 0 0 1-0.12 1 3.58 3.58 0 0 1-0.32 0.83 2.65 2.65 0 0 1-1 1.09 1.57 1.57 0 0 1-0.66 0.24 0.63 0.63 0 0 1-0.46-0.11 0.73 0.73 0 0 1-0.28-0.38 1.78 1.78 0 0 1-0.1-0.59 0.33 0.33 0 0 1 0-0.19 0.36 0.36 0 0 1 0.11-0.13l0.45-0.26a0.09 0.09 0 0 1 0.1 0 0.18 0.18 0 0 1 0.07 0.11 0.49 0.49 0 0 0 0.1 0.26 0.36 0.36 0 0 0 0.17 0.11 0.44 0.44 0 0 0 0.22 0 1 1 0 0 0 0.24-0.11 1.37 1.37 0 0 0 0.52-0.57 1.87 1.87 0 0 0 0.2-0.85 0.61 0.61 0 0 0-0.2-0.53 0.47 0.47 0 0 0-0.52 0 1.17 1.17 0 0 0-0.26 0.2 0.86 0.86 0 0 0-0.16 0.18l-0.12 0.16a0.36 0.36 0 0 1-0.13 0.11l-0.51 0.3a0.09 0.09 0 0 1-0.11 0 0.18 0.18 0 0 1 0-0.14z"/><polygon points="133.28 158.42 133.28 160.22 131.71 161.12 131.71 159.32"/><polygon points="135.62 155.26 135.62 158.87 134.06 159.77 134.06 156.16"/><polygon points="137.96 152.1 137.96 157.52 136.4 158.42 136.4 153.01"/><polygon points="140.31 148.95 140.31 156.16 138.74 157.06 138.74 149.85"/><path d="m248.46 87.87c-0.17-0.25-0.37-0.31-0.58-0.19l-5.88 3.32a2.2 2.2 0 0 0-0.67 1.77v3.28a1.92 1.92 0 0 0 0.25 1 0.62 0.62 0 0 0 0.24 0.22 0.35 0.35 0 0 0 0.34 0l5.84-3.27a2.25 2.25 0 0 0 0.67-1.77v-3.32a1.92 1.92 0 0 0-0.21-1.04zm-6.68 8.84a0.94 0.94 0 0 1-0.09-0.48v-3.23a1.75 1.75 0 0 1 0.51-1.35l5.8-3.4a0.2 0.2 0 0 1 0.18 0l0.08 0.07a0.94 0.94 0 0 1 0.09 0.48v3.28a1.79 1.79 0 0 1-0.51 1.35l-5.84 3.32a0.17 0.17 0 0 1-0.22-0.04z"/><path d="m243.31 91.53v3.88l-0.92 0.53a0.13 0.13 0 0 1-0.18-0.1v-2.84a1.39 1.39 0 0 1 0.38-1z"/><polygon points="244.83 94.54 243.73 95.17 243.73 91.3 244.83 90.66"/><polygon points="246.35 93.68 245.25 94.3 245.25 90.42 246.35 89.79"/><path d="m247.87 89.17v2.83a1.45 1.45 0 0 1-0.73 1.25l-0.37 0.21v-3.91l0.88-0.5a0.14 0.14 0 0 1 0.22 0.12z"/><path d="m248.93 88.81c0.16-0.1 0.29 0.37 0.29 1v0.61a2.35 2.35 0 0 1-0.3 1.42l-0.29 0.2v-3.04z"/><polygon points="236.43 101.07 235.6 98 232.51 98.72 238.18 93.69"/></g><path d="m276.05 71.44 75-43.52c1.41-0.81 2.55-0.24 2.55 1.28a5.48 5.48 0 0 1-2.55 4.23l-75 43.57c-1.41 0.81-2.54 0.24-2.54-1.28a5.43 5.43 0 0 1 2.54-4.28z" fill="#6da5ea"/><path d="m276.05 71.44 75-43.52c1.41-0.81 2.55-0.24 2.55 1.28a5.48 5.48 0 0 1-2.55 4.23l-75 43.57c-1.41 0.81-2.54 0.24-2.54-1.28a5.43 5.43 0 0 1 2.54-4.28z" fill="#fff" opacity=".9"/><g fill="#6da5ea"><path d="m296.8 59.49-20.75 11.95a5.43 5.43 0 0 0-2.54 4.23c0 1.52 1.13 2.09 2.54 1.28l20.75-11.95z" opacity=".3"/><path d="m288.45 67.24a5.72 5.72 0 0 0 0.43 2.32l7.92-4.56v-5.51l-7.8 4.51a10.69 10.69 0 0 0-0.55 3.24z" opacity=".3"/><path d="m296.8 55.26c3.34-1.93 6.05-0.37 6.05 3.49a13.39 13.39 0 0 1-6.05 10.49c-3.35 1.93-6.06 0.36-6.06-3.5a13.36 13.36 0 0 1 6.06-10.48z"/></g><path d="m296.8 55.26c3.34-1.93 6.05-0.37 6.05 3.49a13.39 13.39 0 0 1-6.05 10.49c-3.35 1.93-6.06 0.36-6.06-3.5a13.36 13.36 0 0 1 6.06-10.48z" fill="#fff" opacity=".3"/><path d="m276.05 92.43 75-43.52c1.41-0.81 2.55-0.24 2.55 1.28a5.48 5.48 0 0 1-2.55 4.23l-75 43.52c-1.41 0.81-2.54 0.24-2.54-1.28a5.43 5.43 0 0 1 2.54-4.23z" fill="#6da5ea"/><path d="m276.05 92.43 75-43.52c1.41-0.81 2.55-0.24 2.55 1.28a5.48 5.48 0 0 1-2.55 4.23l-75 43.52c-1.41 0.81-2.54 0.24-2.54-1.28a5.43 5.43 0 0 1 2.54-4.23z" fill="#fff" opacity=".9"/><g fill="#6da5ea"><path d="m331.28 60.44-55.23 32a5.43 5.43 0 0 0-2.54 4.23c0 1.52 1.13 2.09 2.54 1.28l55.23-32z" opacity=".3"/><path d="m323.2 68a5.82 5.82 0 0 0 0.43 2.34l7.65-4.34v-5.56l-7.51 4.36a10.49 10.49 0 0 0-0.57 3.2z" opacity=".3"/><path d="m331.54 56.05c3.35-1.93 6.06-0.36 6.06 3.5a13.38 13.38 0 0 1-6.06 10.45c-3.34 1.93-6.05 0.36-6.05-3.5a13.41 13.41 0 0 1 6.05-10.45z"/></g><path d="m331.54 56.05c3.35-1.93 6.06-0.36 6.06 3.5a13.38 13.38 0 0 1-6.06 10.45c-3.34 1.93-6.05 0.36-6.05-3.5a13.41 13.41 0 0 1 6.05-10.45z" fill="#fff" opacity=".3"/><path d="m276.05 113.42 75-43.52c1.41-0.81 2.55-0.24 2.55 1.28a5.48 5.48 0 0 1-2.55 4.23l-75 43.52c-1.41 0.81-2.54 0.24-2.54-1.28a5.43 5.43 0 0 1 2.54-4.23z" fill="#6da5ea"/><path d="m276.05 113.42 75-43.52c1.41-0.81 2.55-0.24 2.55 1.28a5.48 5.48 0 0 1-2.55 4.23l-75 43.52c-1.41 0.81-2.54 0.24-2.54-1.28a5.43 5.43 0 0 1 2.54-4.23z" fill="#fff" opacity=".9"/><g fill="#6da5ea"><path d="m296.8 101.47-20.75 12a5.43 5.43 0 0 0-2.54 4.23c0 1.52 1.13 2.09 2.54 1.28l20.75-12z" opacity=".3"/><path d="m288.45 109.22a5.75 5.75 0 0 0 0.43 2.32l7.92-4.54v-5.51l-7.8 4.45a10.81 10.81 0 0 0-0.55 3.28z" opacity=".3"/><path d="m296.8 97.24c3.34-1.94 6.05-0.37 6.05 3.49a13.39 13.39 0 0 1-6.05 10.49c-3.35 1.93-6.06 0.36-6.06-3.5a13.36 13.36 0 0 1 6.06-10.48z"/></g><path d="m296.8 97.24c3.34-1.94 6.05-0.37 6.05 3.49a13.39 13.39 0 0 1-6.05 10.49c-3.35 1.93-6.06 0.36-6.06-3.5a13.36 13.36 0 0 1 6.06-10.48z" fill="#fff" opacity=".3"/><g opacity=".2"><path d="m246.81 154.35 111.19-64.17c0.72-0.41 1.3-0.07 1.3 0.75v34.58a2.86 2.86 0 0 1-1.3 2.25l-111.19 64.18c-0.72 0.41-1.3 0.07-1.3-0.75v-34.59a2.89 2.89 0 0 1 1.3-2.25z"/></g><path d="m255.19 161.4a3.84 3.84 0 0 1 0.18-0.35 3.9 3.9 0 0 0-0.18 0.35z" fill="#ebebeb"/><path d="m367.31 97.13a0.77 0.77 0 0 0-0.74-0.6 1.3 1.3 0 0 0-0.65 0.21l-109.51 63.26a3 3 0 0 0-1 1.09l-5.41-3.09a3 3 0 0 1 1-1l109.54-63.28a3.28 3.28 0 0 1 2.93 0l2.44 1.37a3.17 3.17 0 0 1 1.4 2.04z" fill="#37474f" opacity=".5"/><g opacity=".9"><path d="m256.41 197.47a3.35 3.35 0 0 1-2.93 0l-2.48-1.47a3.17 3.17 0 0 1-1.47-2.5v-34.04a3 3 0 0 1 0.47-1.46l5.34 3.08a2.89 2.89 0 0 0-0.43 1.44v34.14c0.09 0.82 0.64 1.34 1.5 0.81z" fill="#263238"/></g><g opacity=".85"><path d="m366.57 96.54a1.25 1.25 0 0 0-0.65 0.2l-109.51 63.26a3.23 3.23 0 0 0-1.46 2.53v34.14c0 0.66 0.33 1 0.81 1a1.3 1.3 0 0 0 0.65-0.2l109.51-63.22a3.24 3.24 0 0 0 1.45-2.53v-34.14c0-0.66-0.33-1-0.8-1z" fill="#37474f"/><path d="m366.57 97.19c0.15 0 0.15 0.32 0.15 0.39v34.14a2.57 2.57 0 0 1-1.13 2l-109.51 63.19a0.69 0.69 0 0 1-0.32 0.11c-0.15 0-0.16-0.33-0.16-0.39v-34.14a2.61 2.61 0 0 1 1.13-2l109.51-63.19a0.71 0.71 0 0 1 0.33-0.11m0-0.65a1.25 1.25 0 0 0-0.65 0.2l-109.51 63.26a3.23 3.23 0 0 0-1.46 2.53v34.14c0 0.66 0.33 1 0.81 1a1.3 1.3 0 0 0 0.65-0.2l109.51-63.22a3.24 3.24 0 0 0 1.45-2.53v-34.14c0-0.66-0.33-1-0.8-1z" fill="#455a64"/></g><ellipse transform="rotate(-66.95 271.03 170.32)" cx="271.03" cy="170.31" rx="9.78" ry="5.53" fill="#6da5ea"/><ellipse transform="rotate(-66.95 271.03 170.32)" cx="271.03" cy="170.31" rx="9.78" ry="5.53" fill="#fff" opacity=".7"/><ellipse transform="rotate(-66.95 291.09 158.73)" cx="291.1" cy="158.73" rx="9.78" ry="5.53" fill="#6da5ea"/><ellipse transform="rotate(-66.95 291.09 158.73)" cx="291.1" cy="158.73" rx="9.78" ry="5.53" fill="#fff" opacity=".45"/><path d="m317.53 143.47c0 4.69-2.85 10.14-6.37 12.17s-6.37-0.13-6.37-4.82 2.85-10.14 6.37-12.17 6.37 0.13 6.37 4.82z" fill="#6da5ea"/><path d="m317.53 143.47c0 4.69-2.85 10.14-6.37 12.17s-6.37-0.13-6.37-4.82 2.85-10.14 6.37-12.17 6.37 0.13 6.37 4.82z" fill="#fff" opacity=".25"/><ellipse transform="rotate(-66.95 331.22 135.56)" cx="331.23" cy="135.56" rx="9.78" ry="5.53" fill="#6da5ea"/><path d="m357.66 120.3c0 4.69-2.85 10.14-6.37 12.17s-6.37-0.13-6.37-4.82 2.85-10.14 6.37-12.17 6.37 0.13 6.37 4.82z" fill="#6da5ea"/><path d="m357.66 120.3c0 4.69-2.85 10.14-6.37 12.17s-6.37-0.13-6.37-4.82 2.85-10.14 6.37-12.17 6.37 0.13 6.37 4.82z" opacity=".2"/><g opacity=".2"><path d="m246.81 296.9 111.19-64.17c0.72-0.42 1.3-0.08 1.3 0.75v34.58a2.87 2.87 0 0 1-1.3 2.25l-111.19 64.17c-0.72 0.41-1.3 0.08-1.3-0.75v-34.58a2.86 2.86 0 0 1 1.3-2.25z"/></g><path d="m255.19 303.94a3.84 3.84 0 0 1 0.18-0.35 3.9 3.9 0 0 0-0.18 0.35z" fill="#ebebeb"/><path d="m367.31 239.68a0.77 0.77 0 0 0-0.74-0.6 1.28 1.28 0 0 0-0.65 0.2l-109.51 63.22a3 3 0 0 0-1 1.09l-5.41-3.08a3.06 3.06 0 0 1 1-1l109.51-63.22a3.25 3.25 0 0 1 2.93 0l2.44 1.37a3.14 3.14 0 0 1 1.43 2.02z" fill="#37474f" opacity=".5"/><g opacity=".9"><path d="m256.41 340a3.35 3.35 0 0 1-2.93 0l-2.48-1.42a3.15 3.15 0 0 1-1.47-2.5v-34.08a2.93 2.93 0 0 1 0.47-1.49l5.34 3.08a2.86 2.86 0 0 0-0.34 1.41v34.14c0 0.86 0.55 1.37 1.41 0.86z" fill="#263238"/></g><g opacity=".85"><path d="m366.57 239.08a1.35 1.35 0 0 0-0.65 0.2l-109.51 63.22a3.23 3.23 0 0 0-1.41 2.5v34.14c0 0.66 0.33 1 0.81 1a1.3 1.3 0 0 0 0.65-0.2l109.51-63.22a3.23 3.23 0 0 0 1.45-2.52v-34.08c0-0.66-0.33-1-0.8-1z" fill="#37474f"/><path d="m366.57 239.73c0.15 0 0.15 0.33 0.15 0.39v34.15a2.6 2.6 0 0 1-1.13 2l-109.51 63.18a0.69 0.69 0 0 1-0.32 0.11c-0.15 0-0.16-0.32-0.16-0.39v-34.17a2.59 2.59 0 0 1 1.13-2l109.51-63.23a0.71 0.71 0 0 1 0.33-0.11m0-0.65a1.35 1.35 0 0 0-0.65 0.2l-109.51 63.29a3.23 3.23 0 0 0-1.41 2.5v34.14c0 0.66 0.33 1 0.81 1a1.3 1.3 0 0 0 0.65-0.2l109.51-63.22a3.23 3.23 0 0 0 1.45-2.52v-34.08c0-0.66-0.33-1-0.8-1z" fill="#455a64"/></g><g fill="#f0f0f0"><path d="m300.88 304.65 1.54-1.23 3.92-19.85 1.54-0.89 3.93 15.46 1.27-0.51v1.37l-5.42 3.14v-1.33l1.65-1.27-0.9-3.76-4.1 2.36-0.9 4.71 1.64-0.56v1.35l-4.17 2.36zm3.77-8.25 3.44-2-1.71-7z"/><path d="m319.11 293.66c-0.92 2-1.52 3.11-2.72 3.8-1.41 0.81-2.5 0.17-2.5-2.2 0-1.85 0.66-3.62 3.36-6.51 0.49-0.54 1.15-1.21 1.81-1.85v-0.81c0-2.69-0.43-3.19-1.66-2.49a6.27 6.27 0 0 0-0.77 0.56l-0.22 1.72c-0.11 1.46-0.56 2.35-1.18 2.71s-1 0.09-1.06-0.69a8 8 0 0 1 4-6.11c2.17-1.25 3.13-0.33 3.13 3.43v6.3c0 0.92 0.21 1.18 0.55 1a1.86 1.86 0 0 0 0.65-1l0.44 0.33a4.39 4.39 0 0 1-1.94 2.94c-1 0.54-1.66 0.1-1.89-1.13zm-1.69 1.09c0.51-0.29 0.83-0.76 1.64-2.1v-4.59c-0.53 0.56-1 1.07-1.34 1.46a6 6 0 0 0-1.63 3.86c0 1.51 0.58 1.81 1.33 1.37z"/><path d="m269.76 304.57c0.19-0.11 0.33-0.12 0.43 0a1.56 1.56 0 0 1 0.25 0.56l4.38 14.87a0.9 0.9 0 0 1 0 0.18 1.5 1.5 0 0 1-0.14 0.61 0.9 0.9 0 0 1-0.34 0.41l-1.29 0.75c-0.24 0.14-0.41 0.16-0.5 0.05a0.79 0.79 0 0 1-0.2-0.34l-0.77-2.61-5.66 3.26-0.77 3.51a2.71 2.71 0 0 1-0.19 0.57 1.21 1.21 0 0 1-0.51 0.52l-1.29 0.75a0.27 0.27 0 0 1-0.34 0 0.61 0.61 0 0 1-0.14-0.44 1.23 1.23 0 0 1 0-0.2l4.39-20a3.7 3.7 0 0 1 0.25-0.84 1 1 0 0 1 0.43-0.49zm1 11.53-2-6.72-2 9z"/><path d="m276.31 309.27a8.15 8.15 0 0 1 0.33-1.43 9.14 9.14 0 0 1 0.73-1.66 9.42 9.42 0 0 1 1.17-1.63 6.48 6.48 0 0 1 1.6-1.29 3.77 3.77 0 0 1 1.65-0.58 1.72 1.72 0 0 1 1.26 0.36 2.61 2.61 0 0 1 0.81 1.33 7.7 7.7 0 0 1 0.29 2.33v8.11a1.46 1.46 0 0 1-0.14 0.6 0.93 0.93 0 0 1-0.34 0.42l-1.36 0.79a0.27 0.27 0 0 1-0.34 0 0.57 0.57 0 0 1-0.15-0.44v-0.91a8.26 8.26 0 0 1-1.08 2 5.67 5.67 0 0 1-1.8 1.6 3.09 3.09 0 0 1-1.38 0.48 1.43 1.43 0 0 1-1-0.3 2.21 2.21 0 0 1-0.63-1 5 5 0 0 1-0.23-1.6 7 7 0 0 1 0.88-3.48 10.06 10.06 0 0 1 2.34-2.81l2.92-2.46q0-1.12-0.48-1.32a1.4 1.4 0 0 0-1.2 0.22 2.48 2.48 0 0 0-0.7 0.6 5 5 0 0 0-0.48 0.8 2.92 2.92 0 0 1-0.3 0.48 1.13 1.13 0 0 1-0.29 0.25l-1.67 1a0.26 0.26 0 0 1-0.3 0c-0.11-0.13-0.13-0.26-0.11-0.46zm3 6.05a4.17 4.17 0 0 0 1.08-0.89 5.45 5.45 0 0 0 0.8-1.16 6.35 6.35 0 0 0 0.48-1.27 5 5 0 0 0 0.16-1.23v-0.27l-2.43 2.07a4.78 4.78 0 0 0-1.06 1.17 2.39 2.39 0 0 0-0.32 1.19c0 0.39 0.13 0.6 0.38 0.64a1.52 1.52 0 0 0 0.9-0.25z"/><path d="m349.68 275.09a6 6 0 0 1 0.32 1.54 2 2 0 0 1-0.8 1.54l-0.1 0.06c-0.59 0.34-0.76-0.36-0.89-1l-0.52-2.27-0.41-1.64c-0.94 0.57-1.87 1.14-2.81 1.75l-1.75 1.25-0.37 0.26c-0.34 1.43-0.69 2.89-1 4.35-0.21 0.9-0.31 2.06-1 2.45s-0.9-0.13-0.9-0.72a3.3 3.3 0 0 1 0.16-1l1-4.37a1.32 1.32 0 0 1-0.18-0.82 2 2 0 0 1 0.8-1.75c0.37-1.52 0.73-3.05 1.12-4.58 0.6-2.41 1.28-5 1.77-7.32l0.15-0.66a2.32 2.32 0 0 1 0.77-1.55c0.08 0 0.18-0.13 0.26-0.17s0.37-0.11 0.47 0 0.25 0.22 0.3 0.65c0.34 1.51 0.67 3 1 4.52 0.7 2.81 1.47 5.61 2.22 8.39zm-2.92-4-0.19-0.69-1.05-4-0.38-1.37-0.14 0.54-1.45 5.83c-0.18 0.75-0.37 1.47-0.53 2.21 1.25-0.77 2.5-1.61 3.74-2.49z"/><path d="m359.67 270.5a2.66 2.66 0 0 1-0.9 2c-0.37 0.21-0.69-0.22-0.87-0.68a8.9 8.9 0 0 1-2.89 3.05c-2.12 1.23-4.18 0-4.18-4a14 14 0 0 1 0.86-4.6 10.2 10.2 0 0 1 3.94-5.29 3.55 3.55 0 0 1 2.15-0.49 2.7 2.7 0 0 1 0.45-1.19 1.79 1.79 0 0 1 0.57-0.53c0.57-0.33 0.65 0.55 0.65 0.88s-0.05 0.57-0.06 0.78c-0.12 1.23-0.17 4.37-0.17 5.17s0.07 3.07 0.07 3.79 0.38 0.61 0.38 1.11zm-2.12-1.63c0-0.14 0.08-0.3 0.13-0.48v-4.68l-0.21-0.16a1.63 1.63 0 0 0-2 0.07c-1.59 0.91-3.14 3.61-3.14 6.54 0 1.67 0.78 3.43 2.65 2.35a6.1 6.1 0 0 0 2.57-3.64z"/><path d="m292.48 313.91a0.5 0.5 0 0 1-0.5-0.5v-26.17a0.5 0.5 0 0 1 0.5-0.5 0.5 0.5 0 0 1 0.5 0.5v26.17a0.51 0.51 0 0 1-0.5 0.5z"/><path d="m331.31 291.49a0.5 0.5 0 0 1-0.5-0.5v-26.17a0.5 0.5 0 0 1 0.5-0.5 0.5 0.5 0 0 1 0.5 0.5v26.18a0.51 0.51 0 0 1-0.5 0.49z"/></g><g opacity=".2"><path d="m270.49 203.43 116.45-67.23c0.72-0.42 1.3-0.08 1.3 0.75v51.57a2.86 2.86 0 0 1-1.3 2.25l-116.45 67.23c-0.72 0.41-1.3 0.07-1.3-0.75v-51.57a2.86 2.86 0 0 1 1.3-2.25z"/></g><path d="m278.87 210.48a3.84 3.84 0 0 1 0.18-0.35 3.9 3.9 0 0 0-0.18 0.35z" fill="#ebebeb"/><path d="m396.3 143.15a0.76 0.76 0 0 0-0.74-0.6 1.25 1.25 0 0 0-0.65 0.2l-114.83 66.25a2.93 2.93 0 0 0-1 1.09l-5.34-3.08a3 3 0 0 1 1-1l114.82-66.28a3.23 3.23 0 0 1 2.92 0l2.45 1.36a3.19 3.19 0 0 1 1.37 2.06z" fill="#37474f" opacity=".5"/><g opacity=".9"><path d="m280.08 263.54a3.33 3.33 0 0 1-2.92 0l-2.44-1.45a3.15 3.15 0 0 1-1.47-2.5v-51.05a3 3 0 0 1 0.46-1.49l5.35 3.08a2.89 2.89 0 0 0-0.43 1.43v51.14c0 0.85 0.6 1.3 1.45 0.84z" fill="#263238"/></g><g opacity=".85"><path d="m395.56 142.55a1.35 1.35 0 0 0-0.65 0.2l-114.83 66.25a3.21 3.21 0 0 0-1.45 2.52v51.18c0 0.66 0.32 1 0.8 1a1.25 1.25 0 0 0 0.65-0.2l114.83-66.29a3.21 3.21 0 0 0 1.45-2.52v-51.1c0-0.66-0.33-1-0.8-1z" fill="#37474f"/><path d="m395.56 143.2c0.14 0 0.15 0.33 0.15 0.39v51.14a2.59 2.59 0 0 1-1.13 2l-114.82 66.27a0.71 0.71 0 0 1-0.33 0.11c-0.15 0-0.15-0.33-0.15-0.39v-51.16a2.6 2.6 0 0 1 1.13-2l114.82-66.29a0.71 0.71 0 0 1 0.33-0.11m0-0.65a1.35 1.35 0 0 0-0.65 0.2l-114.83 66.29a3.21 3.21 0 0 0-1.45 2.52v51.18c0 0.66 0.32 1 0.8 1a1.25 1.25 0 0 0 0.65-0.2l114.83-66.29a3.21 3.21 0 0 0 1.45-2.52v-51.1c0-0.66-0.33-1-0.8-1z" fill="#455a64"/></g><path d="m286.74 248.84v-15.77a2.89 2.89 0 0 1 1.29-2.25l17.72-10.22c0.71-0.42 1.29-0.08 1.29 0.75v15.76a2.89 2.89 0 0 1-1.29 2.25l-17.75 10.22c-0.68 0.42-1.26 0.08-1.26-0.74z" fill="#fafafa"/><path d="m287.73 233.07a1.89 1.89 0 0 1 0.8-1.38l17.47-10.11v15.53a1.86 1.86 0 0 1-0.79 1.38l-17.48 10.11z" fill="#6da5ea"/><path d="m287.73 233.07a1.89 1.89 0 0 1 0.8-1.38l17.47-10.11v15.53a1.86 1.86 0 0 1-0.79 1.38l-17.48 10.11z" fill="#fff" opacity=".7"/><path d="m298.58 236.48 1 1.77-6.12-4.87-5.69 11.16v4.06l17.52-10.11a1.86 1.86 0 0 0 0.79-1.38v-2l-4.62-2.89z" fill="#6da5ea"/><path d="m298.92 228.4c0.79-0.45 1.42-0.08 1.42 0.82a3.15 3.15 0 0 1-1.42 2.47c-0.78 0.45-1.42 0.08-1.42-0.82a3.17 3.17 0 0 1 1.42-2.47z" fill="#6da5ea"/><path d="m315.17 231.84v-22.07a4 4 0 0 1 1.82-3.15l24.79-14.32c1-0.58 1.82-0.11 1.82 1v22.07a4 4 0 0 1-1.82 3.15l-24.78 14.37c-1 0.58-1.83 0.11-1.83-1.05z" fill="#fafafa"/><path d="m316.57 209.77a2.65 2.65 0 0 1 1.12-1.94l24.51-14.15v21.74a2.61 2.61 0 0 1-1.12 1.94l-24.51 14.16z" fill="#6da5ea"/><path d="m316.57 209.77a2.65 2.65 0 0 1 1.12-1.94l24.51-14.15v21.74a2.61 2.61 0 0 1-1.12 1.94l-24.51 14.16z" fill="#fff" opacity=".7"/><path d="m331.76 214.54 1.33 2.48-8.56-6.81-8 15.62v5.69l24.51-14.16a2.61 2.61 0 0 0 1.12-1.94v-2.82l-6.48-4z" fill="#6da5ea"/><path d="m332.23 203.23c1.1-0.63 2-0.12 2 1.15a4.39 4.39 0 0 1-2 3.45c-1.1 0.64-2 0.12-2-1.15a4.41 4.41 0 0 1 2-3.45z" fill="#6da5ea"/><path d="m351.74 210.1v-28.36a5.18 5.18 0 0 1 2.34-4.05l31.92-18.4c1.29-0.75 2.34-0.14 2.34 1.35v28.36a5.18 5.18 0 0 1-2.34 4.05l-31.87 18.4c-1.34 0.75-2.39 0.14-2.39-1.35z" fill="#fafafa"/><path d="m353.54 181.74a3.4 3.4 0 0 1 1.44-2.49l31.51-18.19v27.94a3.4 3.4 0 0 1-1.44 2.49l-31.51 18.2z" fill="#6da5ea"/><path d="m353.54 181.74a3.4 3.4 0 0 1 1.44-2.49l31.51-18.19v27.94a3.4 3.4 0 0 1-1.44 2.49l-31.51 18.2z" fill="#fff" opacity=".7"/><path d="m373.06 187.87 1.71 3.19-11-8.76-10.23 20.08v7.31l31.51-18.2a3.4 3.4 0 0 0 1.44-2.49v-3.63l-8.33-5.2z" fill="#6da5ea"/><path d="m373.67 173.34c1.41-0.82 2.56-0.16 2.56 1.47a5.67 5.67 0 0 1-2.56 4.44c-1.42 0.81-2.56 0.15-2.56-1.48a5.63 5.63 0 0 1 2.56-4.43z" fill="#6da5ea"/><path d="m361.93 425.09c1.54 2.66 4.78 1.75 6.39 4.59a8.49 8.49 0 0 1 0.87 6.46 11.37 11.37 0 0 0-0.62 3.37c0.15 1.38 0.31 2.78 0.43 4.18a48.76 48.76 0 0 0 1.18 6.58c1.23 5.32-1 10.92-4.3 15.08a19.23 19.23 0 0 1-5.81 5.23c-1.64 0.95-4.13 1.75-5.83 0.58s-2.19-3.44-2.27-5.36c-0.09-2.35 0.85-4.63 1.31-6.9s1.11-5.51 0.26-7.64a52.81 52.81 0 0 1-1.68-5.54c-1-3.41-1.87-6.83-2.76-10.26-0.08-0.35-0.17-0.69-0.26-1a65.93 65.93 0 0 0-3.94-8.8l15.41-4.49a18.83 18.83 0 0 0 1.62 3.92z" fill="#c8856a"/><path d="m369.32 429.64a5.71 5.71 0 0 1 2.76 2.74 17.64 17.64 0 0 1-1.08 6.82c-1.07 3.05-1.45 4.29-0.65 6.62a21.43 21.43 0 0 1 1.67 9.46c-0.31 4.27-2.16 9.82-8.4 14.55-5.12 3.87-9.61 3.73-11.32 3.43s-2.11-2.67-2.11-2.67z" fill="#263238"/><path d="m361.06 423.29a19.49 19.49 0 0 1 1.12 3.91c0.44 3.4-3.09 7.83-4.09 9a3.46 3.46 0 0 0-2.7-0.94c-2.22 0-6.07 0.39-6.45 1.37s3 8 3.55 13.15a22.25 22.25 0 0 1-2.06 12.11c-1.3 2.69-3.55 6.34 0.25 9.57 2.21 0.62 11.33-0.64 16.63-8.4 4.7-6.89 2.5-13.93 1.26-17.54s-0.2-5.79 0.83-10.25c0.44-1.95 0.92-3.41-0.08-5.62-1.8-2.21-4.46-3.18-6-4.51-1.24-1.09-1.38-2.29-2.26-1.85z" fill="#37474f"/><path d="m367.31 463.05c-0.73-2.06-4.05-4.9-8.28-5.71-5.21-1-7 0.08-8.15 1.83-0.95 1.46-6.07 9.83-0.42 12.42 1.83 1.11 10.7 1.02 16.85-8.54z" fill="#fafafa"/><path d="m358.09 436.19a2 2 0 0 0-0.63 1.14 4 4 0 0 0 0.19 1.31c0.24 0.82 0.44 1.62 0.65 2.45 0.44 1.63 0.84 3.27 1.18 4.92a46.37 46.37 0 0 1 0.75 5 23 23 0 0 1-0.08 5 15.49 15.49 0 0 0 0.68-5.07 28.26 28.26 0 0 0-0.57-5.11 44 44 0 0 0-1.32-5c-0.27-0.8-0.57-1.61-0.88-2.4a4.27 4.27 0 0 1-0.36-1.17 2 2 0 0 1 0.39-1.07z" fill="#263238"/><g fill="#fafafa"><path d="m361.16 454.73c-2.05-0.84-7.63-1.05-8.76 0.7l-0.1 0.59a2.69 2.69 0 0 1 0-1.81c0.36-1.09 4.14-2.29 8.87-0.78 0.54 0.47 0.62 1.49-0.01 1.3z"/><path d="m360.91 450.37c-2-1-7.11-1.29-8.34 0.39v0.49a1.58 1.58 0 0 1-0.12-1.65c0.42-1.06 3.92-2.31 8.56-0.53 0.51 0.5 0.52 1.52-0.1 1.3z"/><path d="m360.27 446c-2.06-0.77-7.24-0.91-8.32 0.9l0.14 0.57a2 2 0 0 1-0.43-1.56c0.24-1.16 3.91-2.57 8.64-1.21 0.51 0.4 0.59 1.42-0.03 1.3z"/><path d="m359.53 442.21c-2-0.77-7.58-1-8.65 0.83l0.15 0.58a2.32 2.32 0 0 1-0.45-1.65c0.25-1.16 4.24-2.43 9-1.07 0.48 0.46 0.58 1.48-0.05 1.31z"/></g><path d="m381.46 368c-1.74 2.38-4.72 1.23-13.3 0-16.84-2.4-24.1-3.63-31.73-2.21-4.3 0.8-8.25 1.94-10.95 6.09-2 3.09-3.48 8.15-1.66 15.23 4 15.65 12.2 28.14 18.48 41.23 0 0 11.68-6.08 19.91-5.79l-5.31-20.73 27.3 8z" fill="#455a64"/><path d="m342.49 417.46c-2.79-1.61-12.45-16.7-17.44-26.08 4.3 13.71 11.55 25.11 17.25 37 0 0 11.68-6.08 19.91-5.79l-0.82-3.19c-5.1-0.08-16.26-0.4-18.9-1.94z" fill="#37474f"/><path d="m384.2 409.85-2.19-4.4s-8-2.22-15.34-5.11c-6.23-2.45-8.82-7.81-10.5-11.87s-4.35-7.6-7.42-8.8c3.71 3.23 5.71 13.86 8.15 22.18z" fill="#37474f"/><path d="m334.87 420.44c-2.85-1.14-2.42-4.48-5.45-5.67a8.59 8.59 0 0 0-6.53 0.06 11 11 0 0 1-3.24 1.1c-1.39 0.05-2.8 0.09-4.2 0.17a49.67 49.67 0 0 1-6.68-0.23c-5.43-0.46-10.65 2.58-14.32 6.4a19.47 19.47 0 0 0-4.34 6.5c-0.7 1.76-1.14 4.33 0.26 5.85s3.71 1.68 5.62 1.48c2.34-0.24 4.47-1.49 6.64-2.28s5.3-1.88 7.53-1.34a55 55 0 0 0 5.73 0.88c3.51 0.46 7 0.87 10.54 1.26l1.07 0.12a65.18 65.18 0 0 1 9.27 2.64l2.23-15.89a18.25 18.25 0 0 1-4.13-1.05z" fill="#c8856a"/><path d="m329.31 413.78a5.7 5.7 0 0 0-3.1-2.34 17.57 17.57 0 0 0-6.59 2.08c-2.87 1.49-4 2.05-6.47 1.58a21.33 21.33 0 0 0-9.6-0.3c-4.18 0.92-9.41 3.54-13.2 10.39-3.1 5.61-2.32 10-1.78 11.69s2.94 1.71 2.94 1.71z" fill="#263238"/><path d="m336.78 421.05a20.27 20.27 0 0 0-4-0.55c-3.43 0.05-7.31 4.17-8.31 5.33a3.45 3.45 0 0 1 1.31 2.53c0.31 2.21 0.49 6.08-0.43 6.59s-8.31-1.82-13.53-1.64a22.2 22.2 0 0 0-11.69 3.76c-2.47 1.67-5.77 4.41-9.51 1.11-0.93-2.1-1-11.3 5.95-17.65 6.15-5.63 13.43-4.46 17.18-3.75s5.76-0.63 10-2.27c1.86-0.72 3.24-1.4 5.57-0.73 2.45 1.46 3.78 4 5.32 5.29 1.24 1.08 2.44 1.05 2.14 1.98z" fill="#37474f"/><path d="m296.53 420.53c2.14 0.42 5.43 3.31 6.83 7.39 1.74 5 0.92 6.94-0.65 8.32-1.31 1.15-8.86 7.41-12.23 2.19-1.36-1.66-2.54-10.43 6.05-17.9z" fill="#fafafa"/><path d="m324.43 425.83a1.92 1.92 0 0 1-1 0.78 3.9 3.9 0 0 1-1.32 0c-0.85-0.11-1.67-0.2-2.52-0.29-1.68-0.2-3.36-0.36-5-0.47a46.87 46.87 0 0 0-5 0 23 23 0 0 0-5 0.8 15.59 15.59 0 0 1 4.92-1.4 28.51 28.51 0 0 1 5.14-0.16 42.94 42.94 0 0 1 5.08 0.6c0.84 0.15 1.69 0.34 2.51 0.53a4.26 4.26 0 0 0 1.2 0.18 2 2 0 0 0 0.99-0.57z" fill="#263238"/><g fill="#fafafa"><path d="m305.64 425.43c1.12 1.91 2.13 7.4 0.56 8.77l-0.58 0.18a2.66 2.66 0 0 0 1.79-0.29c1-0.51 1.68-4.43-0.49-8.89-0.54-0.43-1.55-0.36-1.28 0.23z"/><path d="m310 425.05c1.22 1.85 2.28 6.86 0.79 8.32h-0.48a1.58 1.58 0 0 0 1.65-0.11c1-0.57 1.72-4.22-0.7-8.56-0.57-0.36-1.58-0.22-1.26 0.35z"/><path d="m314.45 425.07c1.06 1.92 1.94 7 0.31 8.35l-0.6-0.05a2 2 0 0 0 1.61 0.2c1.11-0.4 2-4.24 0-8.72-0.55-0.44-1.57-0.38-1.32 0.22z"/><path d="m318.27 425.26c1.05 1.92 2 7.36 0.4 8.69l-0.59-0.07a2.27 2.27 0 0 0 1.69 0.2c1.12-0.4 1.81-4.54-0.21-9-0.56-0.46-1.56-0.42-1.29 0.18z"/></g><path d="m384.2 409.85-10.9 11.69a38.07 38.07 0 0 0-11.78-1.63c-6.26 0.2-19.95 1.32-24 0.76-4.82 2.25-8.67 9.51-4.92 15.67 8.89 2.76 23.87 7.42 33.26 9.42 11.34 2.42 18.75 3.53 28.06-2.14s27.29-19.48 32.69-25.9 7.11-18.11 7.47-26c-13.61 2.33-44.64-3.34-50.26-22.93-8.13 9.11-3.66 25.51 0.38 41.06z" fill="#455a64"/><path d="m387.46 405.86s-8.46-4.86-8.41-14.09c-2.36 9 2.12 13.88 5.15 18.08z" fill="#37474f"/><path d="m432.48 391.93h-0.13c-0.54 0.06-1.11 0.1-1.69 0.14-0.8 8.86-1.89 17-10.5 27.13-11.82 13.93-27.46 24.91-28.63 25.72 0.8-0.41 1.59-0.84 2.38-1.32 9.31-5.67 27.29-19.48 32.69-25.9a19.69 19.69 0 0 0 1.85-2.64 31.6 31.6 0 0 0 2.79-6.33 67.19 67.19 0 0 0 2.83-17c-0.5 0.07-1.07 0.14-1.59 0.2z" fill="#37474f"/><path d="m319.69 327.08c6.36 1.44 29.25 2.11 29.25 2.11s9.35-5 14.66-8.05c18.3-10.56 25.14-15 31.44-12.94l-10.12 25.23s-15.8 7-27.45 11.42c-6.07 2.28-8.1 2.49-12.16 1.43-5-1.31-6.19-1.68-13.5-3.38l-13.28-3.08s-5.19-14.18 1.16-12.74z" fill="#c8856a"/><path d="m395 307.68c-4.49-0.95-7.44-0.78-17.66 5.07s-20.67 12-20.67 12 2.73 12 9 17.44l20.45-8.35 9.41-25.26z" fill="#6da5ea"/><path d="m323.44 327.81c-6-1.2-8.28-1.16-9.93-4.86s-2.28-4.41-2.95-5.12a59.06 59.06 0 0 0-6.82-4.16c-1.37-0.73-2.61-0.65-5.09-1.19-1.24-0.27-2.65-0.66-3.87-1a11.14 11.14 0 0 0-3.07-0.85c-1.37 0-1.07 2-0.12 2.89a11.68 11.68 0 0 0 3.84 2.14c1 0.4 3.36 1.31 3.36 1.31-0.36 0.81-1.29 2.28-1.27 3.28s0.18 1.39 2 3.11a2.21 2.21 0 0 0-0.6 1.68 5 5 0 0 0 1.38 2.08 2.21 2.21 0 0 0-0.5 1.35c0 0.79 1.35 2.29 2.73 3.46 1.4 1.53 2.59 3.86 3.89 5.07s3.15 1.56 6.22 1.81a108.7 108.7 0 0 1 11 2.2s5.58-12.01-0.2-13.2z" fill="#c8856a"/><g fill="#af6152"><path d="m308.48 319.79a7.6 7.6 0 0 1-4.24-2.43c-1.05-1.28-2.12-2.76-2.61-2.56-0.82 0.33-1.66 2.57-0.14 4.79s3.75 4.34 4.13 5a12.25 12.25 0 0 1 0.56 3.91 7 7 0 0 0 5.22 6 6.47 6.47 0 0 1-4.4-1.93c-2.25-2.07-1.85-5.34-2.09-6.71s-0.28-1.65-2-3.43-3.54-3.69-2.82-6.49 1.92-2.13 2.51-1.57 3.06 4.78 5.88 5.42z"/><path d="m298.79 317 1.62 0.39-0.31 0.6a2.44 2.44 0 0 0-2.29 1c0.19-0.54 0.68-1.44 0.98-1.99z"/><path d="m299.48 323.34c0.57 0.58 2.44 2.28 2.81 2.63s1.14-0.15 1.25-1.19a3.31 3.31 0 0 0-0.5-2.42 3.62 3.62 0 0 1 0.93 2.43c-0.1 1.33-0.81 1.81-1.35 1.88s-1.92-2.1-3.14-3.33z"/><path d="m300.26 327.1c0.42 0.44 1.1 0.95 2.28 2.15 0.69 0.7 1.1 1.16 1.59 0.87a2.42 2.42 0 0 0 0.32-2.75 8.9 8.9 0 0 0-1.17-1.55l0.33-0.36a6.55 6.55 0 0 1 1.64 2.57c0.33 1.32-0.43 2.8-1.1 2.72s-1-0.49-2-1.52-1.89-2.13-1.89-2.13z"/><path d="m303.79 330.41c0.24 0.32 0.41 1.2-0.17 1.49a1.39 1.39 0 0 1-1.13 0 1.16 1.16 0 0 0 1.34 0.27c0.7-0.35 0.71-1.23 0.55-1.89z"/></g><path d="m411 310.61c7.67 2.14 11.71 3.7 20.91 9.51 2.19 2.15 6.36 7.55 6.44 17.1 0.12 14.44 1.08 18.84-0.58 35.75a203.81 203.81 0 0 1-3.77 23.1c-26.47 7-55.2-14.32-56.8-26.61 2.62-3.73 2.43-9.48 3.77-35.66 0.79-15.42 5.18-26.56 14.06-26.12 2.49 0.61 8.31 0.78 15.97 2.93z" fill="#263238"/><path d="m354.6 322.52a0.49 0.49 0 0 1 0.45 0l15.39 6.82a2.34 2.34 0 0 1 1.09 1.15l11.25 30.38c0.09 0.24 0.07 0.41 0 0.49l-1.85 1.35c-0.09 0.07-0.25 0.06-0.45 0l-15.39-6.82a2.32 2.32 0 0 1-1.08-1.15l-11.25-30.38c-0.09-0.24-0.07-0.41 0-0.49z" fill="#455a64"/><path d="m369.22 331.18a2.37 2.37 0 0 1 0.46 0.69l11.25 30.38c0.08 0.23 0.07 0.39 0 0.47l1.83-1.33c0.1-0.08 0.13-0.25 0-0.49l-11.25-30.38a2.37 2.37 0 0 0-0.46-0.69z" fill="#37474f"/><path d="m380.44 362.71-15.39-6.82a2.32 2.32 0 0 1-1.08-1.15l-11.25-30.38c-0.17-0.45 0-0.65 0.48-0.46l15.39 6.82a2.34 2.34 0 0 1 1.09 1.15l11.25 30.38c0.16 0.45-0.05 0.65-0.49 0.46z" fill="#263238"/><path d="m369.65 336.84-1.15-3.1a2.65 2.65 0 0 0-1.24-1.32l-0.6-0.27c-0.79-0.35-1.19 0-0.89 0.84l1.15 3.09a2.72 2.72 0 0 0 1.24 1.33l0.6 0.26c0.79 0.33 1.24-0.02 0.89-0.83z" fill="#37474f"/><path d="m369 336.46a2.48 2.48 0 0 0-1.18-1.21c-0.49-0.22-0.74 0-0.58 0.43a2.56 2.56 0 0 0 1.18 1.21c0.52 0.21 0.77 0.02 0.58-0.43z" fill="#455a64"/><path d="m368.6 336.26a1.29 1.29 0 0 0-0.61-0.61c-0.24-0.11-0.37 0-0.29 0.22a1.31 1.31 0 0 0 0.61 0.62c0.24 0.11 0.37 0.01 0.29-0.23z" fill="#fff" opacity=".2"/><path d="m368.16 334.16a2.56 2.56 0 0 0-1.16-1.16c-0.49-0.21-0.74 0-0.58 0.43a2.48 2.48 0 0 0 1.18 1.21c0.47 0.17 0.73-0.03 0.56-0.48z" fill="#455a64"/><path d="m367.73 334a1.33 1.33 0 0 0-0.6-0.62c-0.25-0.11-0.38 0-0.3 0.22a1.27 1.27 0 0 0 0.61 0.62c0.24 0.08 0.38-0.02 0.29-0.22z" fill="#fff" opacity=".2"/><path d="m371.41 334 0.25-0.18a0.25 0.25 0 0 1 0.26 0l0.29 0.13a0.26 0.26 0 0 1 0.14 0.15l1 2.76a0.48 0.48 0 0 1-0.15 0.53l-0.25 0.18a0.28 0.28 0 0 1-0.26 0l-0.29-0.14a0.26 0.26 0 0 1-0.14-0.15l-1-2.76a0.48 0.48 0 0 1 0.15-0.52z" fill="#263238"/><path d="m372.57 337.45-1-2.76a0.47 0.47 0 0 1 0.16-0.53l0.27-0.16a0.25 0.25 0 0 1 0.4 0.12l1 2.76a0.48 0.48 0 0 1-0.15 0.53l-0.25 0.18a0.25 0.25 0 0 1-0.43-0.14z" fill="#455a64"/><path d="m373.09 338.56 0.25-0.18a0.22 0.22 0 0 1 0.25 0l0.3 0.13a0.28 0.28 0 0 1 0.14 0.16l1 2.76a0.46 0.46 0 0 1-0.16 0.52l-0.24 0.18a0.28 0.28 0 0 1-0.26 0l-0.29-0.13a0.28 0.28 0 0 1-0.14-0.16l-1-2.76a0.49 0.49 0 0 1 0.15-0.52z" fill="#263238"/><path d="m374.25 342-1-2.76a0.46 0.46 0 0 1 0.16-0.52l0.24-0.18a0.25 0.25 0 0 1 0.4 0.12l1 2.76a0.46 0.46 0 0 1-0.16 0.52l-0.24 0.18a0.25 0.25 0 0 1-0.4-0.12z" fill="#455a64"/><path d="m375.42 341-0.52-1.42c-0.09-2.31 1.62-3.31 2.71-0.7 0.87 2.07 4.38 5.49 5.22 8.15s0.74 5.25 3.8 8.14c3.26 3.06 25.51 10.3 25.51 10.3l9.35-24.78s3.41-15.69 10.39-19.69c6.5 3.28 7.7 7.72 8.6 12.35 1.17 6-0.12 12.92-4.94 24.93-4.6 11.46-7.75 18.8-10.38 22.82-3.25 5-6.87 6-16.43 2.28s-18.51-10.78-28.5-17.11c-4.81-3.05-8-4.63-11.61-7.9a17.49 17.49 0 0 1-3.61-4.17 10.42 10.42 0 0 1-1.66-4.74 2.83 2.83 0 0 0-0.11-0.92 5.22 5.22 0 0 0-0.39-0.83 5.82 5.82 0 0 1-0.71-1.59 9.42 9.42 0 0 1-0.05-1.84 6 6 0 0 0 0-0.85 4.91 4.91 0 0 0-0.21-0.86 6.77 6.77 0 0 1-0.52-2.24 1.19 1.19 0 0 1 0.6-1s-0.46-0.89-0.6-1.2a6.43 6.43 0 0 1-0.43-1.35 0.63 0.63 0 0 1 0.06-0.54 0.59 0.59 0 0 1 0.27-0.17c1.67-0.58 3 0.6 4.1 1.71 2.81 2.89 4 5.29 7.1 7.87 4.31 3.56 5.16 1.35 5.16 1.35z" fill="#c8856a"/><g fill="#af6152"><path d="m412.14 365.51a24.61 24.61 0 0 1 6.66 3.49 12.48 12.48 0 0 0-6.06-5.06z"/><path d="m362 339.51c0.42 0.91 0.93 1.78 1.44 2.65s1.05 1.71 1.57 2.57c0.26 0.42 0.5 0.87 0.79 1.29s0.58 0.83 0.89 1.22c0.63 0.8 1.28 1.57 2 2.29l-0.87-1.23c-0.29-0.41-0.58-0.81-0.86-1.23s-0.57-0.82-0.84-1.24-0.5-0.86-0.76-1.29c-0.53-0.86-1.08-1.71-1.64-2.54z"/><path d="m362 343.31a11.69 11.69 0 0 0 0.81 2.18c0.33 0.7 0.69 1.38 1.07 2.06s0.79 1.33 1.22 2a18 18 0 0 0 1.4 1.85c-0.39-0.66-0.76-1.34-1.15-2l-2.28-4c-0.33-0.72-0.71-1.4-1.07-2.09z"/></g><path d="m431.92 320.12c3.57 2.06 8.6 6.06 9.44 15.66s-7.74 27.81-7.74 27.81-12.53-1.59-18.56-7.87c0 0 3.8-11.31 6.18-18.8s6.43-15.16 10.68-16.8z" fill="#6da5ea"/><path d="m389.05 283.08a8.55 8.55 0 0 1-3.28-4.18 13.36 13.36 0 0 1-0.77-5.9 6.7 6.7 0 0 1 0.55-2 3 3 0 0 1 2.27-1.1c0.55-0.08 1.09-0.15 1.64-0.21a10.65 10.65 0 0 1-2.47-3.51 5.55 5.55 0 0 1-0.17-3.2 1.79 1.79 0 0 1 0.36-0.79 1.84 1.84 0 0 1 1.85-0.22 36.09 36.09 0 0 0 11.71 1c3.11-0.16 4.67-0.53 8.94-0.91s11.88 1.61 13.16 9.67c5.72 1 6.41 10.2 4.76 14.09-3.05 7.15-5.95 11.88-7.5 17-0.29-0.21-19.41-11.39-23.79-14.53l-4.92-3.52c-0.81-0.62-1.61-1.14-2.34-1.69z" fill="#263238"/><path d="m425.67 297.49c-3.41 2.54-5.62 0.09-5.62 0.09l0.05 16.42c-7.07 9.17-26.12 7.66-17.94-1.6v-3.13a27.81 27.81 0 0 1-5.23-0.24 8.76 8.76 0 0 1-3-1.13 9.3 9.3 0 0 1-4.15-5.58 45.65 45.65 0 0 1-1.59-12.47c0-5.05 0.5-11.58 2.17-15 3-2.66 12-2.92 19.59-0.75 0.14 1.89-0.05 3.54 1.46 5.62a8 8 0 0 0 2.89 2.27c0.2 3.68 0.35 4.67 1 6.29 0.38 0.93 1.13 2.33 3 1.66 0.88-0.32 1.54-2.28 2.45-3.57 1.23-1.75 5.08-2.56 6.95 1.21a8.32 8.32 0 0 1-2.03 9.91z" fill="#c8856a"/><path d="m402.16 309.22c3.82-0.38 10.63-1.82 12.6-4.16s3.5-7.72 3.5-7.72-0.76 6.05-2.25 8.68-4.8 3.69-7.21 4.43a42.27 42.27 0 0 1-6.64 1.09z" fill="#af6152"/><path d="m404.74 283.44 3.65 1.59a2.09 2.09 0 0 0-1.07-2.69 1.94 1.94 0 0 0-2.58 1.1z" fill="#263238"/><path d="m394.15 283.24-3.53 1.86a2.08 2.08 0 0 1 0.87-2.76 1.93 1.93 0 0 1 2.66 0.9z" fill="#263238"/><path d="m405.92 296.59-6.62 2.54a3.72 3.72 0 0 0 4.71 2.09 3.47 3.47 0 0 0 1.91-4.63z" fill="#af6152"/><path d="m405.72 298a3.46 3.46 0 0 0-3.46 3.42 3.5 3.5 0 0 0 1.75-0.18 3.45 3.45 0 0 0 2.2-3.19 2.63 2.63 0 0 0-0.49-0.05z" fill="#f28f8f"/><polygon points="399.3 295.79 393.11 293.19 400.49 283.84" fill="#af6152"/><path d="m407 287.81a1.64 1.64 0 1 1-1.66-1.61 1.63 1.63 0 0 1 1.66 1.61z" fill="#263238"/><path d="m394.88 287.46a1.63 1.63 0 1 1-1.66-1.61 1.65 1.65 0 0 1 1.66 1.61z" fill="#263238"/></g></svg>
