<svg width="240" height="240" version="1.1" viewBox="0 0 240 240" xmlns="http://www.w3.org/2000/svg"><g transform="matrix(.57011 0 0 .57011 -17.533 -18.003)"><path d="m300.64 386.55c-19.95 12.65-36.57 22.76-45.2 23.06-6.83 0.22-9.71-3.86-10.15-7.4a8.72 8.72 0 0 0-4.6-6.67c-6.58-3.81-20-2.31-29.79 3.38s-12.43 13.38-5.85 17.19c1.88 1.07 5.39 2.43 11.56 2.64s13.17 1.94 12.85 5.85c-0.6 6.56-15.43 14.81-41 27.95-5-2.91-9.63-5.66-13.68-8.14-15.11-9.14-25.06-15.15-34.7-14.64-8.27 0.44-12.92 5.42-14.42 9.55a12.38 12.38 0 0 1-5.58 6.34c-6.66 3.87-18.33 3.4-26-1.06s-8.49-11.18-1.83-15c1.88-1.09 5.31-2.53 11-3.21 7.15-0.87 15.78-3.56 16.54-8.32 1-5.66-11.56-12.6-28.9-22.21-4.29-2.36-8.76-4.81-13.3-7.45l6.72-4c22.91-13.55 31.35-19.4 41.47-19.67 6.77-0.22 9.68 3.86 10.12 7.4a8.73 8.73 0 0 0 4.57 6.66c6.61 3.81 20 2.32 29.82-3.37s12.44-13.39 5.83-17.2c-1.88-1.09-5.37-2.42-11.54-2.66s-13.17-1.94-12.82-5.85c0.57-6.86 15-15.18 38.23-27.2l5 2.91c21.06 12.22 33.82 19.59 45.22 19 8.24-0.43 12.92-5.41 14.42-9.55a12.3 12.3 0 0 1 5.55-6.34c6.67-3.86 18.37-3.37 26 1.06s8.51 11.19 1.85 15c-1.88 1.09-5.31 2.53-11 3.18-7.13 0.88-15.73 3.6-16.54 8.33-1 6.29 12.54 14.5 31.88 25.69z" opacity=".3"/><path d="m382.1 341.87c-0.38 4.76 7.65 6.78 14.64 7 5.55 0.25 8.65 1.42 10.29 2.34 5.79 3.35 3.26 10.23-5.64 15.35s-20.76 6.58-26.55 3.23a7.69 7.69 0 0 1-4-5.93c-0.46-4.05-3.92-8.68-12.19-8.46-9.5 0.27-21.39 8.76-39.32 19.73-5.11 3.15-10.91 6.69-17.09 10.34l-4.3-2.47c-20.21-11.64-36.16-20.84-35.18-27 0.65-3.95 8.19-6.21 14.42-7s10.18-2.39 12.33-3.65c7.62-4.38 6.91-12-1.61-16.86s-21.63-5.34-29.25-1a14 14 0 0 0-6.31 7.13c-1.28 3.62-5.22 7.95-12.05 8.33-10.43 0.57-22.94-6.67-43.62-18.64l-4.44-2.59c6.45-3.29 12.66-6.34 18.18-9 18.91-9.25 31.4-15.37 31.86-20.81 0.38-4.77-7.64-6.78-14.64-7.05-5.55-0.22-8.65-1.39-10.28-2.31-5.8-3.35-3.27-10.24 5.6-15.35s20.79-6.59 26.59-3.24a7.73 7.73 0 0 1 4 5.93c0.47 4 3.95 8.68 12.19 8.47 9.26-0.28 15.05-4.44 31.54-15.76 5.39-3.7 11-7.51 17-11.48 4.55 2.64 9 5.09 13.31 7.45 16.3 9 29.17 16.17 28.32 21.25-0.62 3.92-8.16 6.21-14.39 7s-10.23 2.39-12.35 3.62c-7.65 4.41-6.91 12 1.6 16.92s21.66 5.34 29.31 0.93a14 14 0 0 0 6.28-7.13 13.31 13.31 0 0 1 12.08-8.33c8.6-0.46 18.34 5.42 33 14.32 4.11 2.5 8.77 5.3 13.85 8.24-4.76 2.45-9.38 4.76-13.68 6.94-21.12 10.67-29.01 13.67-29.5 19.54z" opacity=".3"/><path d="m242.28 264.08c0.38-4.76-7.65-6.77-14.64-7.05-5.55-0.21-8.65-1.38-10.29-2.31a5.46 5.46 0 0 1-3.11-4.79v24.84a5.48 5.48 0 0 0 3.1 4.79 13.35 13.35 0 0 0 2 0.92c13.85-6.87 22.55-11.87 22.94-16.4z" fill="#37474f"/><path d="m240.29 315.15v24.85c6.83-0.38 10.78-4.71 12.05-8.33v-24.84c-1.27 3.62-5.22 7.94-12.05 8.32z" fill="#455a64"/><path d="m196.67 296.52-4.43-2.59v24.85l4.43 2.59c20.68 12 33.2 19.21 43.62 18.64v-24.86c-10.42 0.58-22.94-6.66-43.62-18.63z" fill="#263238"/><path d="m287.91 300.65c-8.49-4.92-21.63-5.33-29.25-0.95a14.05 14.05 0 0 0-6.32 7.13v24.85a14.05 14.05 0 0 1 6.32-7.13c4.13-2.37 9.89-3.33 15.65-2.93 1-0.19 1.94-0.34 2.87-0.45 6.32-0.76 10.18-2.4 12.33-3.65 7.62-4.38 6.91-11.97-1.6-16.87z" fill="#37474f"/><path d="m329.2 262.59c2.13-1.23 6.05-2.86 12.36-3.62s13.77-3.05 14.39-7a2 2 0 0 0 0.05-0.48v24.89a2.13 2.13 0 0 1 0 0.44c-0.53 3.35-6.09 5.49-11.58 6.54a31.86 31.86 0 0 1-13.55-3.88c-8.57-4.9-9.3-12.48-1.67-16.89z" fill="#37474f"/><path d="m297.94 355.1c-19.63-11.31-35.24-20.32-35.21-26.43v24.86c0 6.12 15.6 15.12 35.21 26.42l4.28 2.48v-24.86z" fill="#263238"/><path d="m401.4 338.66c-8.87 5.15-20.76 6.59-26.56 3.24l-0.4 24.62 0.4 0.23c5.8 3.35 17.69 1.91 26.56-3.23 5.68-3.27 8.75-7.26 8.73-10.59v-24.65c-0.08 3.29-3.13 7.18-8.73 10.38z" fill="#455a64"/><path d="m370.81 336c-0.46-4.06-3.91-8.68-12.19-8.46v24.85c8.28-0.22 11.73 4.41 12.19 8.46a7.66 7.66 0 0 0 3.63 5.7l0.4-24.62a7.69 7.69 0 0 1-4.03-5.93z" fill="#37474f"/><g fill="#455a64"><path d="m319.31 347.23c-5.13 3.16-10.91 6.7-17.09 10.34v24.86c6.18-3.65 12-7.19 17.09-10.34 17.93-11 29.82-19.46 39.31-19.73v-24.85c-9.49 0.27-21.38 8.76-39.31 19.72z"/><path d="m425.37 287.54v24.85c-4.76 2.45-9.39 4.76-13.69 6.94-2.28 1.14-4.4 2.2-6.39 3.18a27 27 0 0 0-8.54-1.53c-7-0.25-15-2.26-14.64-7 0.49-5.85 8.38-8.85 29.57-19.49 4.32-2.19 8.93-4.49 13.69-6.95z"/><path d="m382.1 314c-0.38 4.76 7.65 6.77 14.64 7 5.55 0.24 8.65 1.41 10.29 2.34 5.79 3.35 3.26 10.23-5.64 15.35s-20.76 6.58-26.55 3.23a7.69 7.69 0 0 1-4-5.93c-0.46-4.05-3.92-8.68-12.19-8.46-9.5 0.27-21.39 8.76-39.32 19.73-5.11 3.15-10.91 6.69-17.09 10.34l-4.27-2.48c-20.21-11.65-36.16-20.84-35.18-27 0.65-3.95 8.19-6.21 14.42-7s10.18-2.39 12.33-3.65c7.62-4.38 6.91-12-1.61-16.87s-21.63-5.33-29.25-0.95a14 14 0 0 0-6.31 7.13c-1.28 3.62-5.22 7.95-12.05 8.33-10.43 0.57-22.94-6.67-43.62-18.64l-4.44-2.59c6.45-3.29 12.66-6.34 18.18-9 18.91-9.25 31.4-15.37 31.86-20.82 0.38-4.76-7.64-6.77-14.64-7-5.55-0.22-8.65-1.39-10.28-2.32-5.8-3.34-3.27-10.23 5.6-15.34s20.79-6.59 26.59-3.24a7.73 7.73 0 0 1 4 5.93c0.47 4 3.95 8.68 12.19 8.46 9.26-0.27 15.05-4.43 31.54-15.75 5.39-3.7 11-7.51 17-11.48 4.55 2.64 9 5.09 13.31 7.45 16.3 9 29.17 16.17 28.32 21.25-0.62 3.92-8.16 6.21-14.39 7s-10.23 2.39-12.35 3.62c-7.65 4.41-6.91 12 1.6 16.92s21.66 5.34 29.31 0.93a14 14 0 0 0 6.28-7.13 13.31 13.31 0 0 1 12.1-8.36c8.6-0.46 18.34 5.42 33 14.31 4.11 2.51 8.77 5.31 13.85 8.25-4.76 2.45-9.38 4.76-13.68 6.94-21.17 10.62-29.06 13.61-29.55 19.5z"/></g><path d="m314.39 225.65c4 2.28 7.84 4.42 11.61 6.49l0.7 0.38c8.23 4.57 15.33 8.5 20.4 12 6.53 4.51 7 6.51 6.88 7.18-0.34 2.14-5.91 4.47-12.66 5.29s-10.82 2.56-13.11 3.88c-4.06 2.33-6.29 5.65-6.29 9.33 0 4.12 2.87 8.15 7.89 11.05a35.18 35.18 0 0 0 17.11 4.25 29 29 0 0 0 14.2-3.32 15.91 15.91 0 0 0 7.16-8.18c1.1-3 4.47-6.68 10.31-7h0.85c7.84 0 17.57 5.89 31 14 2.9 1.77 6.58 4 10.72 6.43l-6.51 3.29-3.9 2c-3 1.49-5.66 2.82-8.12 4-16 7.94-22 10.91-22.55 17.07a5.86 5.86 0 0 0 1.55 4.46c3.48 3.91 11.66 4.6 15 4.72 5.12 0.22 7.93 1.25 9.38 2.07a3.53 3.53 0 0 1 2.11 3.07c0 2.65-3 6.11-7.75 8.82a36 36 0 0 1-17.23 4.77 14.91 14.91 0 0 1-7.34-1.55 5.61 5.61 0 0 1-3-4.41c-0.54-4.73-4.43-10.25-13.63-10.25h-0.61c-8.51 0.24-18.41 6.42-32.12 15-2.61 1.62-5.31 3.3-8.19 5.06-6 3.72-11.16 6.83-16.05 9.73l-3.26-1.89c-9.79-5.64-19-11-25.38-15.46-8.08-5.71-9-8.38-8.83-9.45 0.37-2.18 5.82-4.46 12.69-5.3 6.66-0.81 10.8-2.57 13.09-3.9 4.05-2.33 6.28-5.64 6.28-9.32 0-4.12-2.88-8.14-7.88-11a35.13 35.13 0 0 0-17.12-4.25 28.89 28.89 0 0 0-14.14 3.3 16.1 16.1 0 0 0-7.2 8.19c-1.06 3-4.4 6.67-10.27 7h-1.05c-9.68 0-21.64-6.93-41.45-18.4l-1.27-0.74c5.34-2.69 10.45-5.2 14.88-7.35 20.21-9.89 32.42-15.86 33-22.46a5.9 5.9 0 0 0-1.55-4.45c-3.46-3.9-11.65-4.62-15-4.75-5.11-0.2-7.92-1.23-9.36-2a3.53 3.53 0 0 1-2.12-3.07c0-2.65 3-6.1 7.72-8.81a36.16 36.16 0 0 1 17.26-4.77 15 15 0 0 1 7.34 1.54 5.67 5.67 0 0 1 3 4.42c0.54 4.72 4.43 10.24 13.62 10.24h0.61c9.57-0.28 15.46-4.32 31.2-15.13l1.41-1c4.24-2.91 9.82-6.72 16-10.78m-0.07-2.35c-6 4-11.64 7.78-17 11.48-16.55 11.28-22.35 15.44-31.6 15.71h-0.55c-7.85 0-11.18-4.53-11.64-8.47a7.73 7.73 0 0 0-4-5.93 17 17 0 0 0-8.33-1.8 38.25 38.25 0 0 0-18.26 5c-8.87 5.11-11.4 12-5.6 15.34 1.63 0.93 4.73 2.1 10.28 2.32 7 0.27 15 2.28 14.64 7-0.46 5.45-13 11.57-31.86 20.82-5.52 2.69-11.73 5.74-18.18 9l4.44 2.59c19.92 11.53 32.26 18.67 42.46 18.67h1.16c6.83-0.38 10.77-4.71 12.05-8.33a14 14 0 0 1 6.31-7.13 26.91 26.91 0 0 1 13.14-3 33 33 0 0 1 16.11 4c8.52 4.9 9.23 12.49 1.61 16.87-2.15 1.26-6 2.89-12.33 3.65s-13.77 3-14.42 7c-1 6.12 15 15.31 35.18 27l4.27 2.48c6.18-3.65 12-7.19 17.09-10.34 17.93-11 29.82-19.46 39.32-19.73h0.56c7.87 0 11.18 4.51 11.63 8.47a7.69 7.69 0 0 0 4 5.93 16.92 16.92 0 0 0 8.32 1.81 38.16 38.16 0 0 0 18.23-5c8.9-5.12 11.43-12 5.64-15.35-1.64-0.93-4.74-2.1-10.29-2.34-7-0.25-15-2.26-14.64-7 0.49-5.85 8.38-8.84 29.58-19.48 4.3-2.18 8.92-4.49 13.68-6.94-5.08-2.94-9.74-5.74-13.84-8.25-14.15-8.67-23.7-14.39-32.07-14.39h-1a13.31 13.31 0 0 0-12.08 8.33 14 14 0 0 1-6.28 7.13 27 27 0 0 1-13.2 3.05 33 33 0 0 1-16.11-4c-8.51-4.92-9.25-12.51-1.6-16.92 2.12-1.23 6-2.86 12.35-3.62s13.77-3.05 14.39-7c0.85-5.08-12-12.21-28.32-21.25-4.3-2.36-8.76-4.81-13.31-7.45z" fill="#37474f"/><path d="m300.64 358.64c-19.95 12.65-36.57 22.76-45.2 23.06-6.83 0.22-9.71-3.86-10.15-7.4a8.7 8.7 0 0 0-4.6-6.67c-6.58-3.81-20-2.31-29.79 3.38s-12.43 13.38-5.85 17.19c1.88 1.06 5.39 2.42 11.56 2.64s13.17 1.93 12.85 5.85c-0.6 6.56-15.43 14.8-41 27.95-5-2.91-9.63-5.66-13.68-8.14-15.11-9.14-25.06-15.15-34.7-14.64-8.27 0.44-12.92 5.42-14.42 9.55a12.38 12.38 0 0 1-5.58 6.34c-6.66 3.87-18.33 3.4-26-1.06s-8.49-11.18-1.83-15c1.88-1.09 5.31-2.53 11-3.21 7.15-0.87 15.78-3.56 16.54-8.32 1-5.66-11.56-12.6-28.9-22.21-4.29-2.36-8.76-4.81-13.3-7.45l6.72-4c22.91-13.55 31.35-19.4 41.47-19.68 6.77-0.21 9.68 3.87 10.12 7.41a8.73 8.73 0 0 0 4.57 6.66c6.61 3.81 20 2.32 29.82-3.37s12.44-13.39 5.83-17.2c-1.88-1.09-5.37-2.42-11.54-2.66s-13.17-1.94-12.82-5.85c0.57-6.86 15-15.18 38.23-27.2l5 2.91c21.06 12.22 33.82 19.59 45.22 19 8.24-0.43 12.92-5.41 14.42-9.55a12.3 12.3 0 0 1 5.55-6.34c6.67-3.86 18.37-3.37 26 1.06s8.51 11.19 1.85 15.05c-1.88 1.09-5.31 2.53-11 3.18-7.13 0.87-15.73 3.6-16.54 8.33-1 6.29 12.54 14.5 31.88 25.69z" fill="#fafafa"/><path d="m189.87 296.87 4.08 2.36c20.72 12 33.22 19.27 44.87 19.27h1.46c9.23-0.49 14.49-6.16 16.2-10.87a10.31 10.31 0 0 1 4.67-5.29 21 21 0 0 1 10.33-2.34 28.11 28.11 0 0 1 13.71 3.41c3.4 2 5.35 4.42 5.36 6.75s-1.91 3.84-3.55 4.84-4.9 2.32-10.26 2.93c-4 0.48-17 2.63-18.28 10-1.25 7.6 11.67 15.49 32.87 27.74l5.4 3.11c-18.16 11.47-33.65 20.71-41.39 21h-0.46c-5.12 0-7.31-2.92-7.64-5.64a10.68 10.68 0 0 0-5.58-8.17 21.67 21.67 0 0 0-10.66-2.44 44.17 44.17 0 0 0-21.11 5.74c-6.66 3.84-10.48 8.7-10.48 13.34 0 3 1.64 5.6 4.65 7.33s7.27 2.72 12.46 2.9c5 0.2 9.28 1.34 10.6 2.83a1.08 1.08 0 0 1 0.34 0.84c-0.51 5.59-17.13 14.62-39 25.85-4.26-2.47-8.52-5-12.71-7.57-14.88-9-24.71-15-34.57-15h-1.26c-9.23 0.48-14.49 6.15-16.19 10.85a10.44 10.44 0 0 1-4.71 5.3 21 21 0 0 1-10.34 2.35 28.12 28.12 0 0 1-13.68-3.29c-3.39-2-5.34-4.41-5.34-6.74s1.92-3.89 3.53-4.82 4.88-2.31 10.2-2.95c4-0.49 17.1-2.64 18.27-10 1.19-7.06-10.51-13.54-29.9-24.29l-0.69-0.38c-3.13-1.72-6.35-3.49-9.61-5.35l1.47-0.88 2.3-1.37 7.91-4.7c16.65-9.94 24.25-14.47 32.6-14.7h0.45c5.11 0 7.29 2.92 7.62 5.63a10.63 10.63 0 0 0 5.56 8.17 21.64 21.64 0 0 0 10.74 2.38 44 44 0 0 0 21.11-5.75c6.66-3.84 10.48-8.69 10.48-13.33 0-3-1.66-5.6-4.65-7.33s-7.19-2.72-12.47-2.93c-5-0.18-9.24-1.31-10.57-2.82a1 1 0 0 1-0.32-0.87c0.5-6 17.28-15.29 36.18-25.08m0-2.28c-23.24 12-37.66 20.34-38.23 27.2-0.35 3.91 6.67 5.63 12.82 5.85s9.66 1.57 11.53 2.66c6.62 3.81 4 11.54-5.82 17.2a42 42 0 0 1-20.06 5.48 19.75 19.75 0 0 1-9.71-2.11 8.73 8.73 0 0 1-4.57-6.66c-0.43-3.45-3.2-7.41-9.61-7.41h-0.51c-10.12 0.28-18.56 6.13-41.47 19.68l-6.72 4c4.54 2.64 9 5.09 13.3 7.45 17.34 9.61 29.85 16.55 28.9 22.21-0.76 4.76-9.39 7.45-16.54 8.32-5.66 0.68-9.09 2.12-11 3.21-6.66 3.84-5.87 10.59 1.83 15a30 30 0 0 0 14.69 3.68 23 23 0 0 0 11.34-2.62 12.38 12.38 0 0 0 5.58-6.34c1.5-4.13 6.15-9.11 14.42-9.55h1.16c9.28 0 19 5.89 33.54 14.67 4 2.48 8.65 5.23 13.68 8.14 25.58-13.15 40.41-21.39 41-27.95 0.32-3.92-6.7-5.6-12.85-5.85s-9.68-1.58-11.56-2.64c-6.58-3.81-4-11.53 5.85-17.19a41.85 41.85 0 0 1 20.1-5.48 19.75 19.75 0 0 1 9.69 2.1 8.7 8.7 0 0 1 4.6 6.67c0.43 3.45 3.17 7.41 9.63 7.41h0.52c8.63-0.3 25.25-10.41 45.2-23.06l-8.28-4.76c-19.34-11.19-32.92-19.4-31.88-25.69 0.81-4.73 9.41-7.46 16.54-8.33 5.71-0.65 9.14-2.09 11-3.18 6.66-3.86 5.85-10.61-1.85-15.05a30.28 30.28 0 0 0-14.65-3.67 23.05 23.05 0 0 0-11.33 2.61 12.3 12.3 0 0 0-5.55 6.34c-1.5 4.14-6.18 9.12-14.42 9.55h-1.36c-11.06 0-23.63-7.27-43.86-19l-5-2.91z" fill="#6da5ea"/><path d="m90.83 392.78c-4.3-2.36-8.77-4.81-13.31-7.45v-24.85c4.54 2.64 9 5.08 13.31 7.45 17.33 9.61 29.84 16.54 28.89 22.2-0.76 4.77-9.39 7.46-16.54 8.33-0.62 0.07-1.21 0.16-1.77 0.25-3.24-1.86-6.8-3.83-10.58-5.93z" fill="#6da5ea"/><path d="m90.83 392.78c-4.3-2.36-8.77-4.81-13.31-7.45v-24.85c4.54 2.64 9 5.08 13.31 7.45 17.33 9.61 29.84 16.54 28.89 22.2-0.76 4.77-9.39 7.46-16.54 8.33-0.62 0.07-1.21 0.16-1.77 0.25-3.24-1.86-6.8-3.83-10.58-5.93z" opacity=".2"/><path d="m159 351.87c-4.17-0.82-7.57-2.48-7.32-5.23v-24.58c0 3.72 6.83 5.37 12.83 5.57 6.18 0.25 9.66 1.58 11.54 2.67 6.61 3.81 4 11.54-5.83 17.2a41.76 41.76 0 0 1-11.16 4.38z" fill="#6da5ea"/><path d="m159 351.87c-4.17-0.82-7.57-2.48-7.32-5.23v-24.58c0 3.72 6.83 5.37 12.83 5.57 6.18 0.25 9.66 1.58 11.54 2.67 6.61 3.81 4 11.54-5.83 17.2a41.76 41.76 0 0 1-11.16 4.38z" opacity=".1"/><path d="m94 416.69c-4.21-2.42-6.35-5.53-6.34-8.48v24.79c0 3 2.1 6.08 6.33 8.51 7.7 4.47 19.37 4.93 26 1.07v-24.83c-6.58 3.87-18.25 3.4-25.99-1.06z" fill="#6da5ea"/><path d="m94 416.69c-4.21-2.42-6.35-5.53-6.34-8.48v24.79c0 3 2.1 6.08 6.33 8.51 7.7 4.47 19.37 4.93 26 1.07v-24.83c-6.58 3.87-18.25 3.4-25.99-1.06z" opacity=".1"/><g fill="#6da5ea"><path d="m120.08 417.75v24.86a12.46 12.46 0 0 0 5.57-6.34v-24.86a12.41 12.41 0 0 1-5.57 6.34z"/><path d="m120.08 417.75v24.86a12.46 12.46 0 0 0 5.57-6.34v-24.86a12.41 12.41 0 0 1-5.57 6.34z"/><path d="m174.77 416.5c-15.1-9.14-25.06-15.16-34.7-14.64-8.27 0.44-12.92 5.42-14.42 9.55v24.86c1.5-4.14 6.15-9.12 14.42-9.56 9.64-0.51 19.6 5.5 34.7 14.64 4 2.48 8.65 5.23 13.68 8.14v-24.85c-5.03-2.92-9.63-5.64-13.68-8.14z"/></g><path d="m174.77 416.5c-15.1-9.14-25.06-15.16-34.7-14.64-8.27 0.44-12.92 5.42-14.42 9.55v24.86c1.5-4.14 6.15-9.12 14.42-9.56 9.64-0.51 19.6 5.5 34.7 14.64 4 2.48 8.65 5.23 13.68 8.14v-24.85c-5.03-2.92-9.63-5.64-13.68-8.14z" opacity=".2"/><path d="m188.45 424.64v24.85c25.58-13.14 40.41-21.39 41-27.95v-24.85c-0.59 6.56-15.45 14.8-41 27.95z" fill="#6da5ea"/><path d="m260.48 328.19c0.82-4.74 9.42-7.46 16.54-8.33 5.72-0.65 9.15-2.09 11-3.18 3-1.76 4.51-4.1 4.51-6.56v24.77c0 2.48-1.43 4.87-4.49 6.64-1.87 1.09-5.3 2.53-11 3.18-10.76-6.71-17.29-12.09-16.56-16.52z" fill="#6da5ea"/><path d="m260.48 328.19c0.82-4.74 9.42-7.46 16.54-8.33 5.72-0.65 9.15-2.09 11-3.18 3-1.76 4.51-4.1 4.51-6.56v24.77c0 2.48-1.43 4.87-4.49 6.64-1.87 1.09-5.3 2.53-11 3.18-10.76-6.71-17.29-12.09-16.56-16.52z" opacity=".2"/><path d="m240.7 367.63c-6.59-3.81-20-2.31-29.8 3.38s-12.43 13.38-5.85 17.19c1.88 1.06 5.39 2.42 11.56 2.64a36.29 36.29 0 0 1 5.53 0.63c7.16-1.68 14.29-1.45 18.56 1a8.69 8.69 0 0 1 4.59 6.66v-24.83a8.69 8.69 0 0 0-4.59-6.67z" fill="#6da5ea"/><path d="m240.7 367.63c-6.59-3.81-20-2.31-29.8 3.38s-12.43 13.38-5.85 17.19c1.88 1.06 5.39 2.42 11.56 2.64a36.29 36.29 0 0 1 5.53 0.63c7.16-1.68 14.29-1.45 18.56 1a8.69 8.69 0 0 1 4.59 6.66v-24.83a8.69 8.69 0 0 0-4.59-6.67z" opacity=".2"/><path d="m255.44 381.7v24.85c8.63-0.3 25.25-10.41 45.2-23.06v-24.86c-19.95 12.66-36.57 22.77-45.2 23.07z" fill="#6da5ea"/><path d="m245.29 374.3v24.85c0.44 3.54 3.32 7.62 10.15 7.4v-24.85c-6.83 0.22-9.71-3.86-10.15-7.4z" fill="#6da5ea"/><path d="m245.29 374.3v24.85c0.44 3.54 3.32 7.62 10.15 7.4v-24.85c-6.83 0.22-9.71-3.86-10.15-7.4z" opacity=".1"/><path d="m302.22 357.57v24.86l-1.58-0.92v-22.88l-8.27-4.76c-14.08-8.14-25.1-14.71-29.65-20.1v-5.1c0 6.11 15.58 15.12 35.21 26.43z" fill="#263238"/><path d="m411.68 294.48c4.3-2.18 8.92-4.49 13.68-6.94-5.08-2.94-9.74-5.74-13.85-8.25-14.69-8.89-24.43-14.77-33-14.31a13.31 13.31 0 0 0-12.08 8.33 14 14 0 0 1-6.28 7.13c-7.65 4.41-20.79 4-29.31-0.93s-9.25-12.51-1.6-16.92c2.12-1.23 6-2.86 12.35-3.62s13.77-3.05 14.39-7c0.85-5.08-12-12.21-28.32-21.25-4.3-2.36-8.76-4.81-13.31-7.45-6 4-11.64 7.78-17 11.48-16.55 11.35-22.35 15.51-31.6 15.78-8.24 0.22-11.72-4.43-12.19-8.46a7.73 7.73 0 0 0-4-5.93c-5.8-3.35-17.69-1.9-26.59 3.24s-11.4 12-5.6 15.34c1.63 0.93 4.73 2.1 10.28 2.32 7 0.27 15 2.28 14.64 7-0.46 5.45-13 11.57-31.86 20.82-5.52 2.69-11.73 5.74-18.18 9l4.44 2.59c20.68 12 33.19 19.21 43.62 18.64 6.83-0.38 10.77-4.71 12.05-8.33a14 14 0 0 1 6.31-7.13c7.62-4.38 20.76-4 29.25 0.95s9.23 12.49 1.61 16.87c-2.15 1.26-6 2.89-12.33 3.65s-13.77 3-14.42 7c-1 6.12 15 15.31 35.18 27l4.27 2.48c6.18-3.65 12-7.19 17.09-10.34 17.93-11 29.82-19.46 39.32-19.73 8.27-0.22 11.73 4.41 12.19 8.46a7.69 7.69 0 0 0 4 5.93c5.79 3.35 17.68 1.91 26.55-3.23s11.43-12 5.64-15.35c-1.64-0.93-4.74-2.1-10.29-2.34-7-0.25-15-2.26-14.64-7 0.5-5.87 8.39-8.86 29.59-19.5z" fill="#fafafa"/><path d="m314.39 225.65c4 2.28 7.84 4.42 11.61 6.49l0.7 0.38c8.23 4.57 15.33 8.5 20.4 12 6.53 4.51 7 6.51 6.88 7.18-0.34 2.14-5.91 4.47-12.66 5.29s-10.82 2.56-13.11 3.88c-4.06 2.33-6.29 5.65-6.29 9.33 0 4.12 2.87 8.15 7.89 11.05a35.18 35.18 0 0 0 17.11 4.25 29 29 0 0 0 14.2-3.32 15.91 15.91 0 0 0 7.16-8.18c1.1-3 4.47-6.68 10.31-7h0.85c7.84 0 17.57 5.89 31 14 2.9 1.77 6.58 4 10.72 6.43l-6.5 3.29-3.91 2c-3 1.49-5.66 2.82-8.12 4-16 7.94-22 10.91-22.55 17.07a5.86 5.86 0 0 0 1.55 4.46c3.48 3.91 11.66 4.6 15 4.72 5.12 0.22 7.93 1.25 9.38 2.07a3.53 3.53 0 0 1 2.11 3.07c0 2.65-3 6.11-7.75 8.82a36 36 0 0 1-17.23 4.77 14.91 14.91 0 0 1-7.34-1.55 5.61 5.61 0 0 1-3-4.41c-0.54-4.73-4.43-10.25-13.62-10.25h-0.62c-8.51 0.24-18.41 6.42-32.12 15-2.61 1.62-5.31 3.3-8.19 5.06-6 3.73-11.16 6.84-16.05 9.73l-3.26-1.89c-9.79-5.64-19-11-25.38-15.46-8.08-5.71-9-8.38-8.83-9.45 0.37-2.18 5.82-4.46 12.69-5.3 6.66-0.81 10.8-2.57 13.09-3.9 4.05-2.33 6.28-5.64 6.28-9.32 0-4.12-2.88-8.14-7.88-11a35.13 35.13 0 0 0-17.12-4.25 28.89 28.89 0 0 0-14.14 3.3 16.1 16.1 0 0 0-7.2 8.19c-1.06 3-4.4 6.67-10.27 7h-1.06c-9.67 0-21.63-6.93-41.44-18.4l-1.27-0.73c5.34-2.7 10.45-5.21 14.88-7.36 20.21-9.89 32.42-15.86 33-22.46a5.9 5.9 0 0 0-1.55-4.45c-3.46-3.89-11.65-4.62-15-4.75-5.11-0.2-7.92-1.23-9.36-2a3.53 3.53 0 0 1-2.12-3.07c0-2.65 3-6.1 7.72-8.81a36.16 36.16 0 0 1 17.26-4.77 15 15 0 0 1 7.34 1.54 5.67 5.67 0 0 1 3 4.42c0.54 4.72 4.43 10.24 13.62 10.24h0.61c9.57-0.28 15.46-4.32 31.2-15.13l1.41-1c4.24-2.91 9.82-6.72 16-10.78m-0.07-2.35c-6 4-11.64 7.78-17 11.48-16.55 11.28-22.35 15.44-31.6 15.71h-0.55c-7.85 0-11.18-4.53-11.64-8.47a7.73 7.73 0 0 0-4-5.93 17 17 0 0 0-8.33-1.8 38.25 38.25 0 0 0-18.26 5c-8.87 5.11-11.4 12-5.6 15.34 1.63 0.93 4.73 2.1 10.28 2.32 7 0.27 15 2.28 14.64 7-0.46 5.45-13 11.57-31.86 20.82-5.52 2.69-11.73 5.74-18.18 9l4.44 2.59c19.92 11.53 32.26 18.67 42.45 18.67h1.17c6.83-0.38 10.77-4.71 12.05-8.33a14 14 0 0 1 6.31-7.13 26.91 26.91 0 0 1 13.14-3 33 33 0 0 1 16.11 4c8.52 4.9 9.23 12.49 1.61 16.87-2.15 1.26-6 2.89-12.33 3.65s-13.77 3-14.42 7c-1 6.12 15 15.31 35.18 27l4.27 2.48c6.18-3.65 12-7.19 17.09-10.34 17.93-11 29.82-19.46 39.32-19.73h0.56c7.87 0 11.18 4.51 11.63 8.47a7.69 7.69 0 0 0 4 5.93 16.92 16.92 0 0 0 8.32 1.81 38.16 38.16 0 0 0 18.23-5c8.9-5.12 11.43-12 5.64-15.35-1.64-0.93-4.74-2.1-10.29-2.34-7-0.25-15-2.26-14.64-7 0.49-5.85 8.38-8.84 29.58-19.48 4.3-2.18 8.92-4.49 13.68-6.94-5.08-2.94-9.74-5.74-13.85-8.25-14.14-8.66-23.7-14.39-32.06-14.39h-1a13.31 13.31 0 0 0-12.08 8.33 14 14 0 0 1-6.28 7.13 27 27 0 0 1-13.2 3.05 33 33 0 0 1-16.11-4c-8.51-4.92-9.25-12.51-1.6-16.92 2.12-1.23 6-2.86 12.35-3.62s13.77-3.05 14.39-7c0.85-5.08-12-12.21-28.32-21.25-4.3-2.36-8.76-4.81-13.31-7.45z" fill="#455a64"/><path d="m179.33 369.53c9-4.25 17.84-9 27.13-12.43 7.6-2.83 15.58-4.84 22.62-8.87a20.55 20.55 0 0 0 6.77-5.71 9.92 9.92 0 0 0 1.66-8.46c-1.13-3.63-4.4-4.83-7.86-5-8.53-0.35-17 1.86-24.87 5.24s-15.15 7.89-22.42 12.38a87.88 87.88 0 0 1-21.72 10.05c-8.09 2.42-16.44 4.41-23.87 8.56a11.65 11.65 0 0 0-4.77 4.21c-2.34 4.23 1.58 8.61 5.63 9.49a38.83 38.83 0 0 0 14.77-0.06c9.43-1.63 18.24-5.29 26.93-9.4z" opacity=".15"/><path d="m332.28 276.55c-2.1-2.54-5.71-3.65-9.47-3.1s-7.22 2.48-10.56 4.37c-5.53 3.14-11.06 6.27-16.31 9.88-2.7 1.87-6 3.65-8.22 6.12-1.47 1.66-3 3.5-3.24 5.71-0.45 3.84 2.83 6 6.07 6.81a20.33 20.33 0 0 0 8 0.18c6.72-1 13-3.94 18.86-7.21 5.51-3.06 11.2-6.08 14.73-11.53a10.72 10.72 0 0 0 2-5.78 8.47 8.47 0 0 0-1.86-5.45z" opacity=".15"/><path d="m333.22 250.16a10 10 0 0 1 6 3.19c2.15 2.74 6.92 10.93 7.86 11.84a6.7 6.7 0 0 1-2.13 2.24l-2.55-2.88c-0.63-0.52-0.9-1.1-0.87 0.6s0.27 3.45 0.23 6c0 2 0.38 5.8-3.06 9.64-3.21 3.59-6.66 5.32-9.06 5.65-1.43 0.2-3.94-0.13-3.78-3 0.08-1.51 0.76-6.48 1-9.23s6.36-24.05 6.36-24.05z" fill="#263238"/><path d="m333.9 250.79a11.47 11.47 0 0 1-2.72-3.6c-0.62-1.26-3.78-8.23-7.56-17.9-4.88-12.43-13-21.61-15.51-26.28a98.08 98.08 0 0 1-7.06-15.9l-10.05 6.72-13.3-0.24c-0.13 2 0.68 4.6 2.16 7.66v0.08c0.13 0.27 0.28 0.56 0.43 0.84 3 5.82 8 12.86 13.65 20l0.13 0.17 0.2 0.25c5.44 6.88 11.41 13.88 16.63 19.94v-0.15a136.74 136.74 0 0 1 11.54 15.2c4.72 7.73 4.4 14.5 4.43 18.63 0 2.58 2 3.07 4.73 0.82a13.78 13.78 0 0 0 5.26-11.34c0.59-8.83-0.18-11.37-2.96-14.9z" fill="#b16668"/><path d="m300.75 194-23.1-0.43v0.79 0.31c0 0.1 0 0.36 0.05 0.55s0 0.27 0.08 0.41l0.09 0.5c0 0.16 0.09 0.33 0.13 0.5l0.12 0.45c0 0.05 0 0.1 0.05 0.14s5.84 4 16.65 5.84c0 0 0.33 17.24 3.19 24.2l3.21 3.89c0.51-10.3-0.47-37.15-0.47-37.15z" fill="#9a4a4d"/><path d="m316.94 268.46a11.53 11.53 0 0 1 3.14 6.48c0.32 3.73-0.12 13.93 0.17 15.31a6.44 6.44 0 0 1-3 0.77l-0.58-4.1c-0.25-0.84-0.16-1.51-1.06 0s-1.65 3.28-3.05 5.54c-1.12 1.79-2.83 5.47-7.81 6.93-4.64 1.37-8.48 0.91-10.67-0.19-1.31-0.65-3.24-2.43-1.56-4.91 0.89-1.32 4.16-5.41 5.86-7.76s18.56-18.07 18.56-18.07z" fill="#263238"/><path d="m304.3 268.34c0.24-9.76-8.94-54.36-6.47-75.31l26.19-0.32a112.87 112.87 0 0 0-2.71 18.51c-0.43 5.7 1.4 18.74-1.26 32.84a190.37 190.37 0 0 0-3 19.91c0 1.51-0.16 4.71-0.09 5.54 0.42 4.82-0.31 7.56-5.6 15.2-1 1.47-3.48 6.24-10.58 7.17-3.49 0.45-4.91-1.17-3.53-3.51 2.26-3.75 6.82-10.28 7.05-20.03z" fill="#b16668"/><path d="m321.31 211.22c-0.05 2.22 0.08 4.42 0.2 6.63s0.2 4.43 0.27 6.64a107.54 107.54 0 0 1-0.48 13.31c-0.23 2.21-0.59 4.4-1 6.58l-1.2 6.5q-0.59 3.26-1.1 6.53c-0.35 2.18-0.7 4.36-0.91 6.56a127 127 0 0 1 1.5-13.19c0.64-4.38 1.64-8.68 2-13.07 0.26-2.18 0.39-4.39 0.51-6.59s0.1-4.41 0.12-6.62 0-4.42-0.08-6.63-0.04-4.44 0.17-6.65z" fill="#9a4a4d"/><path d="m297.45 204.69a82.08 82.08 0 0 1 0.38-11.66l26.19-0.32a83.34 83.34 0 0 0-1.68 8.81s-10.06 5.07-24.89 3.17z" fill="#9a4a4d"/><path d="m278.12 150.42a153.4 153.4 0 0 1 2.84-17.9c1-4.52 2-8.44 2.71-11.9 7.61 5.07 26.53 5.53 35.24-0.18a90.76 90.76 0 0 1 9.21 16.07c3 7.08 4.23 11.5 4.09 20.29-0.13 8-3.72 31.68-7 41.78-8.85 4.91-39.88 3.78-48.66-5 0.01-0.01 0.52-34.83 1.57-43.16z" fill="#455a64"/><path d="m286.32 41.3a4.72 4.72 0 0 1 0.5-2.95c1.1-2 3.53-2.94 5.81-3.17a9.94 9.94 0 0 0 3.65-0.68c1.02-0.5 1.72-1.5 2.72-2.14a5.68 5.68 0 0 1 3.84-0.7 7.58 7.58 0 0 1 4.22 1.95 7.57 7.57 0 0 0 3.14 1.92c2.85 0.82 4.89-0.2 7.56 2.12a7.24 7.24 0 0 1 2.19 6c2 1.09 4.87 8 1.3 16-1.83 4.08-4.17 6-7.05 9.49l-2.93 0.14c-1.08-2.44-3.55-1.86-5.86-2.32-1.42-0.56-2.24-2-3.59-2.63a10.89 10.89 0 0 0-4-0.67 7.68 7.68 0 0 1-4.35-1.23 7 7 0 0 1-1.81-3c-0.3-0.71-0.84-3.09 0-3.68-1.31 1-3.91 1.52-5.31 0.49a2.88 2.88 0 0 1-1.09-2.85 2.32 2.32 0 0 0 0.11-0.64 1.39 1.39 0 0 0-0.72-1.05c-0.38-0.24-0.8-0.38-1.17-0.63a3.22 3.22 0 0 1-1-3.55 6.21 6.21 0 0 1 2.43-3c0.68-0.49 1.48-1 1.61-1.84a4 4 0 0 0-0.2-1.38z" fill="#263238"/><path d="m297.49 78.57 1.52-0.26c1.3-0.22 1.12-1.7 1.18-3v-2a8.89 8.89 0 0 1-6.62-1.76c-2.8-2.23-4.46-6.85-4.43-11.89 0-3.35 0.82-5 0.74-5.7-0.49-4.47-0.18-5.28 0.76-7.64 1.71-3.77 6.37-5.33 8.59-1.46 5.63-4.82 12.35 0.87 12.42 7.79-0.53 5.74 1.23 5.94 2.35 5.93 1.48-3.63 5.16-3.74 6.81-1.52 1.5 2 1.61 5.22-1 8.26s-5.52 1.27-5.58 0.69c0 0-0.09 7.71-0.08 9.24s0.22 2.43 2.15 3l2.78 0.78s-0.14 0.2-0.43 0.54c-0.65 0.84-2.08 2.67-4.49 5.8a133.29 133.29 0 0 0-18.43 9.4 85.14 85.14 0 0 1-3.4-9.89 36.6 36.6 0 0 1 5.16-6.31z" fill="#b16668"/><path d="m303.39 63.48-4.3 1.36a2.21 2.21 0 0 0 2.79 1.55 2.37 2.37 0 0 0 1.51-2.91z" fill="#9a4a4d"/><path d="m303.11 64.47a2.48 2.48 0 0 0-2.48 1.93 2.13 2.13 0 0 0 1.25 0 2.34 2.34 0 0 0 1.57-1.87z" fill="#f28f8f"/><g fill="#263238"><path d="m291.23 51.59 3.31-1.05a1.67 1.67 0 0 0-2.12-1.16 1.82 1.82 0 0 0-1.19 2.21z"/><path d="m307.07 52.43-3.27-1.27a1.69 1.69 0 0 1 2.21-1 1.84 1.84 0 0 1 1.06 2.27z"/><path d="m295.2 54.87a1.46 1.46 0 0 1-1.31 1.54 1.37 1.37 0 0 1-1.52-1.25 1.45 1.45 0 0 1 1.31-1.54 1.37 1.37 0 0 1 1.52 1.25z"/><path d="m305.48 55.49a1.5 1.5 0 0 1-1.33 1.58 1.4 1.4 0 0 1-1.55-1.29 1.49 1.49 0 0 1 1.33-1.57 1.4 1.4 0 0 1 1.55 1.28z"/></g><path d="m300.22 73.32c5.5-0.54 10.78-2 12.13-5.39a5.65 5.65 0 0 1-3.15 4.68 19.9 19.9 0 0 1-9 2.33z" fill="#9a4a4d"/><polygon points="300.22 51.95 294.5 59.59 299.56 61.46" fill="#9a4a4d"/><path d="m276.37 97c-5.95 16.73-8.69 23.73-8.69 23.73s-19.06 17.07-22.2 19.33-9 5.8-9 5.8c-3.57 2.47-4.84 4-5.75 6.3s0.48 6.44 2 8.25 2.82 3.11 4.76 3.34a13.19 13.19 0 0 0 3.77-0.07c0.45-0.22 0.86-0.54 1.33-0.72s1.22-0.23 1.77-0.5c0.89-0.43 1.35-1.44 2.16-2 0.4-0.27 0.86-0.42 1.25-0.69a3.8 3.8 0 0 0 0.85-0.8 2.47 2.47 0 0 0 0.67-1.81 3 3 0 0 0-0.29-0.78l-0.51-1.08a3.67 3.67 0 0 1 0.48-2.08c0.61-0.79 2.68-3.36 2.68-3.36l0.17-0.12c1.23-1 2.12-2 3.06-2.8a38.69 38.69 0 0 1 5.06-3.48c9.42-5.71 15.24-10.07 18.8-12.27s4.07-4.37 6.7-8.88c4.47-7.67 9.42-19 9.42-19l0.39-25.67c-10.89 0.69-14.99 8.41-18.88 19.36zm-38.93 66.75m0.15 0 0.45 0.06z" fill="#b16668"/><path d="m256.79 130.15-4.37 3.64a14.26 14.26 0 0 1 4.76 4.47 15.38 15.38 0 0 1 2.24 5.87l4.86-3s0-2.63-2.46-6.32a15.12 15.12 0 0 0-5.03-4.66z" fill="#6da5ea"/><path d="m256.79 130.15-4.37 3.64a14.26 14.26 0 0 1 4.76 4.47 15.38 15.38 0 0 1 2.24 5.87l4.86-3s0-2.63-2.46-6.32a15.12 15.12 0 0 0-5.03-4.66z" fill="#fff" opacity=".7"/><path d="m295.2 77.31c-6.23 0.84-10.82 2.14-14.54 9.32s-13.06 33.22-13.06 33.22l-12.89 11.68a14.54 14.54 0 0 1 4.93 4.55 17.23 17.23 0 0 1 2.51 6.7s12.54-8.13 16.69-10.73 5.41-5.27 9.63-12.89 7.45-13.75 7.45-13.75z" fill="#263238"/><path d="m298.93 78.33s-2.45 5.1-0.78 8.18c8.24-0.94 15.2-4.77 18-7.35l6.93 1.09s4.53 8.65 3.12 16-7.3 24.18-7.3 24.18c-7.84 11.39-34.53 5.37-35.24 0.18 0 0-0.79-6.46-1.45-11.78 0 0-3.74-3.59-3.92-8.39-0.2-5 1.88-8.57 7-13.77a62.71 62.71 0 0 1 9.64-8.18z" fill="#6da5ea"/><path d="m298.93 78.33s-2.45 5.1-0.78 8.18c8.24-0.94 15.2-4.77 18-7.35l6.93 1.09s4.53 8.65 3.12 16-7.3 24.18-7.3 24.18c-7.84 11.39-34.53 5.37-35.24 0.18 0 0-0.79-6.46-1.45-11.78 0 0-3.74-3.59-3.92-8.39-0.2-5 1.88-8.57 7-13.77a62.71 62.71 0 0 1 9.64-8.18z" fill="#fff" opacity=".7"/><path d="m313.84 107.79a10.61 10.61 0 0 1-9.14 7 11.18 11.18 0 0 1-10.28-4.48s1.44 7.68 10.56 6.33 8.86-8.85 8.86-8.85z" fill="#6da5ea" opacity=".3"/><path d="m314.28 76.22s-6.8 15.83-9.09 23.47-1.1 13.74-0.24 27.57c0.67 10.64 1.83 26.7 1.83 26.7s20.19-0.29 26.39-9.29c-1.65-5.29-6.83-17.63-8.16-21s-0.68-6.36 1.47-14.16 5.63-12.08 5.53-17.86a16.14 16.14 0 0 0-5.6-11.43z" fill="#37474f"/><path d="m300 77.52a1.27 1.27 0 0 1-0.85 0.8s-13.7 13.17-14.65 26.81-1.81 43.52-1.81 43.52-1.49-0.69-4.39-3.85c0.62-6.2 2.76-30.67 2.18-33.47s-7.26-9.19-1.14-18.3 15.86-15.72 15.86-15.72l5-1.09a3.25 3.25 0 0 1-0.2 1.3z" fill="#37474f"/><path d="m293.24 80.85c-0.87 0.79-1.74 1.58-2.57 2.4-1.68 1.63-3.35 3.27-5 5-0.8 0.86-1.6 1.72-2.37 2.6-0.39 0.44-0.77 0.89-1.14 1.36a4.63 4.63 0 0 0-1 1.62 5.23 5.23 0 0 0-0.11 1.88 10.37 10.37 0 0 0 0.34 1.78 22 22 0 0 0 1.12 3.16 14.35 14.35 0 0 0-2.31 3.78 2.44 2.44 0 0 0-0.14 0.62 3.27 3.27 0 0 0 0 0.63c0 0.39 0.1 0.77 0.16 1.15 0.13 0.75 0.28 1.5 0.44 2.24 0.64 3 1.4 5.91 2.23 8.84-0.59-3-1.18-6-1.72-8.93-0.13-0.75-0.25-1.49-0.35-2.24 0-0.37-0.1-0.74-0.11-1.1a2.07 2.07 0 0 1 0.12-1 14.51 14.51 0 0 1 2.37-3.71l0.14-0.18-0.09-0.21a21.88 21.88 0 0 1-1.12-3.25 10.73 10.73 0 0 1-0.3-1.66 4.54 4.54 0 0 1 0.17-1.63 4.25 4.25 0 0 1 0.81-1.36c0.36-0.46 0.73-0.9 1.11-1.34 0.75-0.89 1.54-1.75 2.32-2.61 1.57-1.73 3.16-3.45 4.78-5.13s3.22-3.39 4.94-5c-0.96 0.73-1.85 1.51-2.72 2.29z" fill="#263238"/><path d="m317.3 99v-5.61c-0.05-5-0.11-9.91-0.28-14.87-0.21 5-0.31 9.92-0.4 14.89v6.04a1 1 0 0 1 0 0.35 2 2 0 0 1-0.38 0.66 8.62 8.62 0 0 1-2.95 1.9 25.08 25.08 0 0 1-3.44 1.21l-0.41 0.11 0.15 0.38a42.77 42.77 0 0 1 1.56 4.59c0.1 0.39 0.19 0.78 0.25 1.17a2.83 2.83 0 0 1 0.05 1.07v0.1l-0.07 0.14-0.95 1.92c-0.72 1.46-1.46 2.91-2.16 4.39l-2.27 4.41 2.4-4.27c0.8-1.42 1.57-2.86 2.35-4.3l0.58-1.07 0.29-0.54 0.22-0.41 0.06-0.19a3.43 3.43 0 0 0 0-1.35 9.9 9.9 0 0 0-0.24-1.23 42.62 42.62 0 0 0-1.39-4.32 26.67 26.67 0 0 0 3.19-1.09 8.55 8.55 0 0 0 3.22-2.13 2.58 2.58 0 0 0 0.52-1 2.22 2.22 0 0 0 0.07-0.57z" fill="#263238"/><path d="m343.11 118c0.87 6.54 1.05 7.65 0.63 12-0.31 3.26-0.65 3.81-1.88 9.75s-4.33 16.78-4.28 18.36a26.36 26.36 0 0 1 0 4.53 19.11 19.11 0 0 1-1.25 5.23c-0.45 1.15-0.74 2.42-1.27 3.54a13.91 13.91 0 0 1-1.62 2.13c-0.6 0.78-0.81 1.78-1.55 2.48-1.28 1.22-2.63 1.4-3.85 2-0.53 0.77-1.41 2.41-2 3.14-1.51 1.85-1.85-1.18-1.8-2.21a15.9 15.9 0 0 1 0.62-3.26 75.15 75.15 0 0 0 1.86-8.12c0.08-0.49 0.67-2.5-0.13-2.49a1 1 0 0 0-0.66 0.39c-0.55 0.62-0.91 1.39-1.4 2.06a12.82 12.82 0 0 1-1.29 1.46 4.38 4.38 0 0 1-1.3 1c-0.52 0.22-2.42 0.37-2.5-0.52a0.92 0.92 0 0 1 0.1-0.42c0.39-0.91 0.86-1.8 1.26-2.71a26.63 26.63 0 0 0 1.1-2.8 22.89 22.89 0 0 1 3.4-7.92c3.22-4.44 3.89-30.65 3.89-30.65l-4.32-18.06a39.76 39.76 0 0 1-2.49-15.2c0.28-8.58 3.49-10.87 3.49-10.87 6.65 2.67 10.27 4.76 12 10.88s4.65 21.88 5.24 26.28z" fill="#b16668"/><path d="m328 141.67-0.5 5.14s2.25-0.62 6.92 0.69c3.69 1.05 5 2.87 5 2.87l1.21-5s-3.91-4.18-12.63-3.7z" fill="#6da5ea"/><path d="m328 141.67-0.5 5.14s2.25-0.62 6.92 0.69c3.69 1.05 5 2.87 5 2.87l1.21-5s-3.91-4.18-12.63-3.7z" fill="#fff" opacity=".7"/><path d="m344 122.67c-0.19-1.55-1.16-9.68-3.57-21.57-2.28-11.3-2.83-12.56-4.79-15.16-1.65-2.18-3.36-3.8-9.18-5.72 0 0-4.74 2.83-4.85 10.28-0.11 7.1 2.94 17 2.94 17l4.11 18.31-1 18.23c3.17-1.11 10.91 0.66 12.56 3.8 0 0 2-7.48 3.23-13.27a35.48 35.48 0 0 0 0.55-11.9z" fill="#263238"/><path d="m141.25 189.24 6.07-22.51c2.8-11.56-0.84-26.17-0.84-26.17-5.19 0.61-9.79 3-12.31 9.55s-6.19 29-7.07 33.89a44 44 0 0 0-0.5 12.8c0.45 5.45 3.19 15.23 4.28 20.57 0.5 2.47 0.81 4.86 1.14 7.38a57.07 57.07 0 0 0 2.08 7.63 7 7 0 0 0 2 3.14c0.58 0.55 1.4 0.65 2 1.17s0.65 1.37 1.44 1.81 1.9 0.25 2.66 0.75a23.65 23.65 0 0 0 2.34 1.69 4.89 4.89 0 0 1 2 1.27c0.48 0.58 0.92 1.86 1.84 1.81s1.25-1 1.34-1.9a7.86 7.86 0 0 0-1.42-4.72 43.55 43.55 0 0 0-2.77-4.41 10.88 10.88 0 0 1-2-4.46c-0.27-1.07-0.11-2.43 1.23-1.75 1.59 0.81 3.23 2.44 5.18 2.19 1.36-0.16 1.48-1.22 0.74-2.14a38.93 38.93 0 0 1-3.31-4.8c-1-1.71-1.82-3.52-2.87-5.2a23.66 23.66 0 0 0-1.88-2.5c-1.85-2.24-1.64-5.16-1.74-7.88-0.2-3.81 0.2-12.34 0.37-17.21z" fill="#ffa8a7"/><path d="m128.05 206.59 1.2 5.49s2.09 1.3 6.43 0.7 5.69-2 5.69-2l-0.25-5.78z" fill="#f0f0f0"/><path d="m144.89 137.59c-7.54 0.92-10.19 5.6-12.48 13.26-2.36 7.86-4.9 25.72-5.54 29.44a51.27 51.27 0 0 0-1.11 13.71 126 126 0 0 0 2.45 14.45s2 1.12 6.23 0.91c5.88-0.3 7-2.12 7-2.12l0.38-17.9 8.39-28.06z" fill="#455a64"/><path d="m233.62 329.72c0.55-0.25 1 1.2 0.87 2-0.39 2.35-2.54 5.46-6.36 7.81s-12.23 3.95-14.7 4.68-6.28 3.46-8.58 4.7c-4.2 2.25-7.63 2-9.54 1a3 3 0 0 1-1.28-2c-0.5-1.78-0.46-2.19-0.27-2.24z" fill="#263238"/><path d="m192.65 340.37a24.21 24.21 0 0 0 1.58 6.51 4.65 4.65 0 0 0 3.72 1.41c3.19 0 6-1.17 8.94-3a24.06 24.06 0 0 1 6.05-2.89c2.57-0.71 8.31-2 10.85-2.83a17.77 17.77 0 0 0 6.44-3.72c1.42-1.38 3.4-4.05 3.54-5.6-0.43-3.36-1.32-5.15-3.39-5.64s-4.9 0.16-8.62 1.11c-1.12 0.28-2.52 0.68-3.12 0.81-2.28 0.49-4.39 1-6.1 1.48a9.56 9.56 0 0 1-4.4 0.45 2.89 2.89 0 0 1-1.78-0.92c-0.6-0.7-1-1.89-1.66-1.73 0 0-11.77 6.46-12.75 6.91s0.18 2.04 0.7 7.65z" fill="#37474f"/><g fill="#fafafa"><path d="m219.57 326.11a3.57 3.57 0 0 1 1.27 0.84 6.73 6.73 0 0 1 1 1.32c0.37 0.61-0.37 1-0.92 0.35a8.62 8.62 0 0 0-1.45-1.52 2 2 0 0 0-1.33-0.44l-0.65 0.15c0.06-0.56 1.51-0.87 2.08-0.7z"/><path d="m213.73 327.33a1.53 1.53 0 0 1 1.29 0 3.12 3.12 0 0 1 1.31 1.08 13.92 13.92 0 0 1 1.11 1.81c0.18 0.41-0.79 0.72-1 0.29a17.12 17.12 0 0 0-1-1.63c-0.2-0.26-1.05-1.22-1.75-1.11l-0.3 0.08c-0.05-0.14 0.11-0.31 0.23-0.39z"/><path d="m210.41 328.35a1.24 1.24 0 0 1 0.86 0.2 3.81 3.81 0 0 1 0.84 0.86 7.42 7.42 0 0 1 0.94 2c0.18 0.54-0.82 0.72-1 0.36a5.73 5.73 0 0 0-1.48-2.56 2.52 2.52 0 0 0-1.11-0.63c0-0.11 0.13-0.17 0.23-0.19s0.56-0.04 0.72-0.04z"/></g><path d="m187.29 319s3.7 11.79 4.83 14.48c0.36 0.86 2.06 0.67 3 0.77a10.13 10.13 0 0 1 3.36 0.75c2.77 1.48 4.5 1.45 4.59-2.8a1.39 1.39 0 0 1 1.4-1.52 5.89 5.89 0 0 0 2.26-0.41c0.09-0.12 0-0.27-0.14-0.36a4 4 0 0 1-1.69-2.77c-1.15-5-1.75-9.39-3-15.59z" fill="#ffa8a7"/><path d="m178.39 202.38s5.65 7.11 9.06 20.41a320.43 320.43 0 0 1 7 37.57c0.82 5.66 1.42 9.7 2.88 20 1.26 8.64 6.67 40.54 6.67 40.54s-3.94 3.58-7.25 4.9c-3.08 1.22-5.94 1.71-7.07 1.22 0 0-3.8-10.25-8.5-23.67a133.68 133.68 0 0 1-5.41-19c-0.61-3.32-0.46-9.22-0.4-12.2l-25.26-41a28.58 28.58 0 0 1-4.71-8.55c-3.32-8.76 0.92-21.38 0.92-21.38z" fill="#263238"/><path d="m153.54 213.89h31a72.29 72.29 0 0 1 2.9 8.9 304.22 304.22 0 0 1 6.62 34.59c-0.76 5.34-1.61 10.81-2.4 14.58-2.09 9.94-3.39 17-5 21.07a66.58 66.58 0 0 1-5.66 9.97 131.75 131.75 0 0 1-5.28-18.56c-0.61-3.32-0.46-9.22-0.4-12.2l-18.32-29.82-1.43-9.22c-4.7-8.03-4.18-14.05-2.03-19.31z"/><path d="m139 335.64c1.77-3 3.37-7.62 7.28-19.29l14.56 12-9 15.05a15.53 15.53 0 0 0-0.66 2.39c-1.93 2.9-12.18-10.15-12.18-10.15z" fill="#ffa8a7"/><path d="m133.64 342c0-0.17-0.06-1.58 0-1.75 0.38-1.51 1.27-1.93 2.41-2.78a18.46 18.46 0 0 0 3.16-2.83c0.38-0.56 0.45-0.85 1.05-1.1a5.37 5.37 0 0 1 4.65 0.64c3.28 1.81 4.28 4 4.1 6.36-0.15 1.81-0.29 4.21 1.22 5.28 0.63 0.45 1.63-2.44 1.63-2.44 0.93 1.65-0.38 3.93-1.06 7.26a14.45 14.45 0 0 0-0.1 5.6c0.34 2.92 0.72 2.91 2.2 3.12 1.27 0.17 4.88-0.08 7.08 1.53a5 5 0 0 1 2.22 5.18c-0.4 1.12-3.69 6.57-15.71 4.54-3.49-0.59-10.82-6.36-10.71-6.89a7.09 7.09 0 0 0 0-1.66c0-1.29-0.09-2.58-0.14-3.88a20.67 20.67 0 0 0-0.21-3.69 22 22 0 0 1-0.45-3.05l-0.69-7.78c-0.11-0.75-0.74-0.92-0.65-1.66z" fill="#37474f"/><path d="m132.13 341.49c-1.19 1.2-0.46 4.7 1.13 8.9 0.7 1.87 2 5.07 1.63 8.48s-0.45 5 0.38 6.62c1.31 2.5 8.3 5.7 12.42 6.7a24.64 24.64 0 0 1-4.19-12.5c-0.41-7.53-1-12.38-4.23-15.72-4.14-4.22-7.14-2.48-7.14-2.48z"/><path d="m162.18 366.07s-2.42 4.74-11.72 4.59c-3.66-0.06-5.62-1.94-5.71-7.79-0.11-7.05-0.65-14.17-2.82-17.67s-5.63-5.2-8.31-4.95a2.64 2.64 0 0 0-1.49 1.24s2.68-0.93 6.86 2.71c3.08 2.69 3.91 8.3 3.87 15.28 0 3-0.2 6.4 0.64 8.68a6.72 6.72 0 0 0 4.44 4.11c5.06 1.49 12-1 13.73-3.21a3.63 3.63 0 0 0 0.51-2.99z" fill="#263238"/><g fill="#fafafa"><path d="m151 358.08a2 2 0 0 1 0.75 1.16 3.39 3.39 0 0 1-1.46 3.06c-0.56 0.37-1 0.24-0.16-1a6.36 6.36 0 0 0 0.87-3.22z"/><path d="m150.5 354.43s0.29 0.2 0.37 1.18c0 0.52-0.74 2.64-1.72 3.14s-0.45-0.68 0-1.26a8 8 0 0 0 1.35-3.06z"/><path d="m150.83 350.39s0.32 0.1 0 1.45a4.22 4.22 0 0 1-2 1.87c-0.63 0.08-0.94-0.26-0.16-0.85 0.56-0.46 2.04-1.81 2.16-2.47z"/></g><path d="m158.8 202.38c-1.48 1.59-5.15 6.91-5.74 15.1a23.42 23.42 0 0 0 4.53 14.92c1.18 18.15 1.16 52.44 1.16 52.44a61.25 61.25 0 0 0-9 19.29c-1.63 5.37-7.65 23.87-7.65 23.87 9.86-1.39 13.29 10.09 13.29 10.09s10.29-16.28 18.63-29c6.12-9.34 10.23-16.3 12.07-21.81 1.69-5.06 2.91-11.19 4.56-23s3.26-27.38 4.07-39 0.34-28.43 0.34-28.43z" fill="#263238"/><path d="m144.15 216.62a7 7 0 0 0 3.32-2.48 10.1 10.1 0 0 0 0.85-2.57 28.13 28.13 0 0 1 1.4-4.36l0.85 0.4a27.28 27.28 0 0 0-1.34 4.21 10.76 10.76 0 0 1-1 2.84 7.65 7.65 0 0 1-4 2.94c-0.03-0.33-0.06-0.66-0.08-0.98z"/><path d="m166.34 227a2.43 2.43 0 0 1-0.59-0.06c-1.36-0.32-2.41-1.27-4.52-4.1-1.59-2.15-1.43-3.69-1.16-6.25 0.1-0.94 1-6 1.1-7.28l0.9 0.52c-0.07 1.36-1 5.92-1.07 6.87-0.27 2.54-0.39 3.7 1 5.54 1.94 2.61 2.87 3.48 4 3.74s5.81-0.57 7.08-1.49c0.72-0.54 1.95-7.1 2.66-12.87l0.93 0.12c-0.36 2.92-1.65 12.53-3.06 13.56-1.31 0.93-5.38 1.77-7.27 1.7z"/><polygon points="155.63 129.63 172.49 131.53 170.78 144.03 153.8 143.17" fill="#ffa8a7"/><path d="m179.25 108.15c1.3 1.66 5.29 6.17 6 7.35l-3.81 2.31z" fill="#f28f8f"/><path d="m169.81 95.58c5.24-0.56 8.65 3.16 10.17 14.32 0.06 0.44 0.71 1.13 1.2 2.8 2.1 7.17 0.93 14-0.29 15.81-3 2.44-6.42 3.35-11.31 2.94-3.73-0.32-13.25-1.46-18.08-6.49-5.67-5.96-8.5-14.86-4.5-19.5 5.67-6.52 19.91-9.57 22.81-9.88z" fill="#ffa8a7"/><path d="m180.89 128.51c-0.67 1-5.47 3.46-8.49 3.66l0.28-2.35a31.62 31.62 0 0 0 8.21-1.31z" fill="#f28f8f"/><path d="m170.84 115.15a1 1 0 0 1-1.75 0.29 13.08 13.08 0 0 0-1.92-2.22 4.74 4.74 0 0 0-3.24-1.09c-4.4 0.33-3.33 6.13-1.17 8.15 3.54 3.31 5.42 0.45 5.42 0.45s2.54 5.62-1.16 8.9c0 0-6.39 2.76-11.41 1.2a45.54 45.54 0 0 1-9.33-9.77c-6-8.25-5.46-16.72-1.62-19-0.22-2.93 1.37-7.33 7.38-9.87 5.72-2.42 9.56-2.18 13.7-2s9.23 2.12 13.08-1.09a7.88 7.88 0 0 1-0.64 7.17 2.6009 2.6009 0 0 1 2.25 4.69 2 2 0 0 1 0.93 2.42 2.48 2.48 0 0 1-2.15 1.6 10.77 10.77 0 0 1-2.6-0.17c-1.21 3.38-5 4.57-7.3 4.42 0.07 0 0.36 0.47 0.4 0.53s0.25 0.38 0.36 0.58a7.36 7.36 0 0 1 0.54 1.26 7 7 0 0 1 0.32 2.72 2.31 2.31 0 0 1-0.09 0.83z" fill="#263238"/><path d="m144.89 137.59c-4.41 2.46-7.14 9.35-6.18 19.32 1.13 11.89 3 14.46 4.34 24.38a100.58 100.58 0 0 1 1.1 15.53c0 4.73-0.64 14.29-0.64 14.29s5.9 7.31 22.11 8.26c20.68 1.22 29.85-3.78 29.85-3.78s0.12-21.38-0.37-34.73c-0.74-19.8-0.79-25.59-3.88-32.33-1-2-2.09-6.42-5.46-7.3-2.67-0.69-11.75-2.76-14.19-3.13-4 1-14.37 1.11-16.94-1.08v-0.57c-3.95 0.21-9.74 1.14-9.74 1.14z" fill="#37474f"/><path d="m151.29 136.73c2.64-2.36 3-2.68 3.79-3l-0.16 1.19s0.53 1.42 5.54 1.92c8.71 0.87 11.45-1.11 11.45-1.11l0.09-0.73a3.21 3.21 0 0 1 2.3 0.79c1.42 1 4.6 3.87 4.6 3.87l-2.27-0.5s-5.08 4.43-17.5 2.67c-8.64-1.27-7.84-5.1-7.84-5.1z" fill="#263238"/><path d="m252.63 149a6 6 0 0 1-1.26 0.44 21.28 21.28 0 0 1-10.91 0.36 1.73 1.73 0 0 1-1.27-0.86 1.85 1.85 0 0 1 0-1l0.42-2.48a11.53 11.53 0 0 0 0.23-3.1 2.83 2.83 0 0 0-0.74-1.77c-0.47-0.45-0.81-0.58-1.38-0.26a3.16 3.16 0 0 0-0.71 1.49c-0.69 2.26-1.77 3.22-3 5.86s-2.11 4.32-6.47 8c-1.54 1.3-16.4 11.23-16.4 11.23s-1.78-2.06-10.68-13.63c-6.07-7.9-7.9-9.76-13.73-11 0 0-6.91 8.12-1.89 21.08 1.83 3.48 12.34 14.2 16.3 17.63 6.53 5.65 10.13 7.69 14.82 3.43 5.07-4.6 9-9.41 13.28-14.12 3.69-4 5.29-5.47 8.25-6.54a31.66 31.66 0 0 0 8.91-5.5 7.71 7.71 0 0 0 1.47-1.55c0.37-0.57 0.61-1.22 1-1.78a30 30 0 0 1 2.35-2.44 5.68 5.68 0 0 0 1.46-2.91c-0.04-0.19 0.03-0.45-0.05-0.58z" fill="#ffa8a7"/><path d="m223.93 158.09 3.93-2.92a9.05 9.05 0 0 1 5.09 3.69 15.39 15.39 0 0 1 2.31 6.07l-3 2.65z" fill="#f0f0f0"/><path d="m186 141.31c5.93 1.27 8 1.93 11 5.56s14.1 19.29 14.1 19.29l14-9.31a12.43 12.43 0 0 1 5.28 3.79 12.27 12.27 0 0 1 2.62 6.76s-9 10-14.27 15.18-7.73 6.18-13.41 2.42-18.15-16.33-18.15-16.33-10.78-15.01-1.17-27.36z" fill="#455a64"/><path d="m237.44 163.73a3.5 3.5 0 0 0 1.82-1.27c0.57-1.08 1.36-1.74 1.61-2.94a7.61 7.61 0 0 1 0.33-1.33 5 5 0 0 1 1.34-1.72c0.51-0.48 0.91-1 1.46-1.51 0.26-0.23 0.74-0.45 1.05-0.14a4.18 4.18 0 0 1 0.58-1.29c0.29-0.4 1.09-1.1 1.59-0.64a1.31 1.31 0 0 1 0.3 0.46c0.48 1 0.95 2 1.43 3a3 3 0 0 1 0.29 0.78 2.47 2.47 0 0 1-0.67 1.81 3.8 3.8 0 0 1-0.85 0.8c-0.39 0.27-0.85 0.42-1.25 0.69-0.81 0.55-1.27 1.56-2.16 2-0.55 0.27-1.2 0.28-1.77 0.5s-0.88 0.5-1.33 0.72a13.19 13.19 0 0 1-3.77 0.08z" fill="#b16668"/><path d="m237.44 163.73a3.5 3.5 0 0 0 1.82-1.27c0.57-1.08 1.36-1.74 1.61-2.94a7.61 7.61 0 0 1 0.33-1.33 5 5 0 0 1 1.34-1.72c0.51-0.48 0.91-1 1.46-1.51 0.26-0.23 0.74-0.45 1.05-0.14a4.18 4.18 0 0 1 0.58-1.29c0.29-0.4 1.09-1.1 1.59-0.64a1.31 1.31 0 0 1 0.3 0.46c0.48 1 0.95 2 1.43 3a3 3 0 0 1 0.29 0.78 2.47 2.47 0 0 1-0.67 1.81 3.8 3.8 0 0 1-0.85 0.8c-0.39 0.27-0.85 0.42-1.25 0.69-0.81 0.55-1.27 1.56-2.16 2-0.55 0.27-1.2 0.28-1.77 0.5s-0.88 0.5-1.33 0.72a13.19 13.19 0 0 1-3.77 0.08z" fill="#b16668"/><path d="m252.42 142.51c-2 1.37-3.95 1.27-6.68 1.31a16.46 16.46 0 0 0-2.62 0.16 4.42 4.42 0 0 0-0.93 0.25 6.23 6.23 0 0 0-1 0.72c-1.44 1-3.31 1.57-4.31 3.1-0.58 0.88-0.77 2-1.35 2.86a11 11 0 0 0-0.74 1.09 1.22 1.22 0 0 0 0.06 1.25 1.3 1.3 0 0 0 0.51 0.35 3.2 3.2 0 0 0 2.2 0.07c1.46-0.5 2.32-2 3.55-2.91a8.45 8.45 0 0 1 3.18-1.38 12.39 12.39 0 0 1 1.58-0.35 6.81 6.81 0 0 1 1.27 0.11c1.86 0.16 5.28-6.63 5.28-6.63z" fill="#b16668"/><path d="m226.6 107.19c-1.36-0.76-1.37-2 0-2.82a5.4 5.4 0 0 1 4.89-0.06c1.36 0.76 1.38 2 0 2.82a5.43 5.43 0 0 1-4.89 0.06z" fill="#263238"/><path d="m232.3 106.36h-0.56a1.72 1.72 0 0 0-0.73-0.71 4.38 4.38 0 0 0-4 0.06 1.74 1.74 0 0 0-0.71 0.72h-0.56l0.66 1a1.78 1.78 0 0 0 0.64 0.56 4.38 4.38 0 0 0 4-0.05 2 2 0 0 0 0.63-0.57z" fill="#263238"/><path d="m225.42 106.3c-2-1.13-2-3 0-4.17a8 8 0 0 1 7.22-0.08c2 1.13 2 3 0 4.17a8 8 0 0 1-7.22 0.08z" fill="#455a64"/><path d="m225.28 105.62c-2.08-1.17-2.1-3.11-0.05-4.32a8.26 8.26 0 0 1 7.5-0.08c2.08 1.17 2.1 3.11 0 4.32a8.24 8.24 0 0 1-7.45 0.08z" fill="#37474f"/><path d="m225.18 104.87c-2.14-1.2-2.16-3.19-0.05-4.44a8.52 8.52 0 0 1 7.68-0.08c2.14 1.21 2.16 3.19 0.05 4.44a8.48 8.48 0 0 1-7.68 0.08z" fill="#455a64"/><path d="m225.07 104.12c-2.18-1.23-2.21-3.27 0-4.55a8.72 8.72 0 0 1 7.88-0.08c2.18 1.23 2.21 3.27 0 4.55a8.75 8.75 0 0 1-7.88 0.08z" fill="#37474f"/><path d="m225 103.37c-2.24-1.27-2.26-3.35-0.05-4.66a8.88 8.88 0 0 1 8.06-0.08c2.24 1.26 2.26 3.34 0.05 4.65a8.91 8.91 0 0 1-8.06 0.09z" fill="#455a64"/><path d="m224.87 102.61c-2.3-1.29-2.32-3.42-0.05-4.76a9.12 9.12 0 0 1 8.25-0.09c2.29 1.29 2.31 3.43 0.05 4.77a9.12 9.12 0 0 1-8.25 0.08z" fill="#37474f"/><path d="m235 97.11a3 3 0 0 0-1.81-2.47 9.53 9.53 0 0 0-8.64 0.09 3 3 0 0 0-1.76 2.51v2.07a3 3 0 0 0 1.82 2.48 9.54 9.54 0 0 0 8.63-0.09 3 3 0 0 0 1.76-2.52c0.06-0.35 0.05-1.72 0-2.07z" fill="#6da5ea"/><path d="m228.5 55.49a18.35 18.35 0 0 0-18.17 18.51c0.15 14.58 12.2 16.88 12.27 22.75a3.13 3.13 0 0 0 1.88 2.57 9.92 9.92 0 0 0 9-0.09 3.15 3.15 0 0 0 1.83-2.61c-0.06-5.88 11.94-8.42 11.79-23a18.37 18.37 0 0 0-18.6-18.13z" fill="#6da5ea"/><path d="m228.5 55.49a18.35 18.35 0 0 0-18.17 18.51c0.15 14.58 12.2 16.88 12.27 22.75a3.13 3.13 0 0 0 1.88 2.57 9.92 9.92 0 0 0 9-0.09 3.15 3.15 0 0 0 1.83-2.61c-0.06-5.88 11.94-8.42 11.79-23a18.37 18.37 0 0 0-18.6-18.13z" fill="#fff" opacity=".7" style="mix-blend-mode:screen"/><path d="m225.21 99c-2.08-1.17-2.1-3.11-0.05-4.33a8.29 8.29 0 0 1 7.5-0.07c2.08 1.17 2.1 3.11 0 4.32a8.27 8.27 0 0 1-7.45 0.08z" fill="#6da5ea"/><path d="m225.21 99c-2.08-1.17-2.1-3.11-0.05-4.33a8.29 8.29 0 0 1 7.5-0.07c2.08 1.17 2.1 3.11 0 4.32a8.27 8.27 0 0 1-7.45 0.08z" fill="#fff" opacity=".55"/><path d="m233.59 98.19a3.81 3.81 0 0 1-0.89 0.69 8.27 8.27 0 0 1-7.49 0.08 3.64 3.64 0 0 1-0.9-0.67 3.77 3.77 0 0 1 0.88-0.7 8.29 8.29 0 0 1 7.5-0.08 4.08 4.08 0 0 1 0.9 0.68z" fill="#6da5ea" opacity=".25"/><path d="m233.59 98.19a3.81 3.81 0 0 1-0.89 0.69 8.27 8.27 0 0 1-7.49 0.08 3.64 3.64 0 0 1-0.9-0.67 3.77 3.77 0 0 1 0.88-0.7 8.29 8.29 0 0 1 7.5-0.08 4.08 4.08 0 0 1 0.9 0.68z" fill="#6da5ea"/><path d="m233.59 98.19a3.81 3.81 0 0 1-0.89 0.69 8.27 8.27 0 0 1-7.49 0.08 3.64 3.64 0 0 1-0.9-0.67 3.77 3.77 0 0 1 0.88-0.7 8.29 8.29 0 0 1 7.5-0.08 4.08 4.08 0 0 1 0.9 0.68z" fill="#fff" opacity=".35"/><path d="m243 65c-1.16-1.73-3-3.13-5.12-2.19a3.33 3.33 0 0 0-0.64 0.39 2.73 2.73 0 0 0-0.87 2.51c0.28 1.78 2 2.87 3 4.24a15.74 15.74 0 0 1 2.45 5 9.63 9.63 0 0 0 0.63 1.9 1.43 1.43 0 0 0 1.83 0.59 2.65 2.65 0 0 0 1.16-2 14.05 14.05 0 0 0-2.44-10.44zm0.49 13.63a1.5 1.5 0 0 0-1.47 1.06 2 2 0 0 0 0.2 1.64 1.19 1.19 0 0 0 1.62 0.35 1.91 1.91 0 0 0 0.86-1.6 1.43 1.43 0 0 0-1.17-1.46z" fill="#fff" opacity=".35"/><path d="m231.1 98.57h-0.22c-0.07-6.54 0.27-10.64 1.13-13.71a13.07 13.07 0 0 1 0.87-2.3 11.27 11.27 0 0 1-4.12-2.38 11.33 11.33 0 0 1-4.08 2.47 12.4 12.4 0 0 1 0.92 2.28c0.92 3 1.35 7.14 1.42 13.68h-0.22c-0.06-6.51-0.49-10.59-1.4-13.62a12.38 12.38 0 0 0-0.93-2.28 4.84 4.84 0 0 1-0.61 0.14c-2.13 0.38-3.38-0.22-3.84-0.91a1.39 1.39 0 0 1 0-1.58 1.41 1.41 0 0 1 1.45-0.59c0.93 0.13 2.1 0.92 3.09 2.69a11 11 0 0 0 4-2.42 4.68 4.68 0 0 1-0.61-0.72 3.55 3.55 0 0 1-0.59-3.55 1.47 1.47 0 0 1 2.62 0 3.55 3.55 0 0 1-0.51 3.56 5.92 5.92 0 0 1-0.6 0.74 11.1 11.1 0 0 0 4.13 2.3c1-1.78 2.1-2.6 3-2.75a1.4 1.4 0 0 1 1.46 0.56 1.37 1.37 0 0 1 0.06 1.57c-0.45 0.7-1.68 1.33-3.82 1-0.2 0-0.41-0.08-0.61-0.13a12 12 0 0 0-0.88 2.3c-0.85 3.08-1.21 7.13-1.11 13.65zm2.1-16.14 0.54 0.11c2 0.32 3.2-0.26 3.61-0.9a1.16 1.16 0 0 0 0-1.34 1.2 1.2 0 0 0-1.26-0.47c-0.87 0.17-1.98 0.91-2.89 2.6zm-12-2.47a1.17 1.17 0 0 0-1 0.51 1.19 1.19 0 0 0 0 1.35c0.43 0.63 1.6 1.18 3.63 0.82a5.23 5.23 0 0 0 0.54-0.12c-1-1.67-2.07-2.42-2.9-2.54zm7.49-4.8a1.24 1.24 0 0 0-1.11 0.71 3.44 3.44 0 0 0 0.57 3.33 5 5 0 0 0 0.59 0.69 4.87 4.87 0 0 0 0.58-0.7 3.47 3.47 0 0 0 0.51-3.35 1.27 1.27 0 0 0-1.13-0.68z" fill="#455a64"/><g fill="#6da5ea"><path d="m229 52.24a0.69 0.69 0 0 1-0.69-0.69v-6.87a0.69 0.69 0 0 1 1.38 0v6.87a0.69 0.69 0 0 1-0.69 0.69z"/><path d="m240.29 55.29a0.73 0.73 0 0 1-0.35-0.09 0.7 0.7 0 0 1-0.25-1l3.43-6a0.69212 0.69212 0 0 1 1.2 0.69l-3.43 5.95a0.68 0.68 0 0 1-0.6 0.45z"/><path d="m248.53 63.57a0.69 0.69 0 0 1-0.6-0.34 0.7 0.7 0 0 1 0.25-0.95l5.95-3.44a0.69212 0.69212 0 1 1 0.69 1.2l-5.94 3.44a0.73 0.73 0 0 1-0.35 0.09z"/><path d="m258.4 74.86h-6.87a0.69 0.69 0 0 1 0-1.38h6.87a0.69 0.69 0 0 1 0 1.38z"/><path d="m254.43 89.58a0.73 0.73 0 0 1-0.35-0.09l-6-3.43a0.7 0.7 0 0 1-0.25-1 0.69 0.69 0 0 1 0.94-0.25l6 3.43a0.68 0.68 0 0 1 0.26 0.94 0.7 0.7 0 0 1-0.6 0.4z"/><path d="m203.43 89.5a0.7 0.7 0 0 1-0.6-0.35 0.69 0.69 0 0 1 0.25-0.94l5.92-3.44a0.69 0.69 0 1 1 0.69 1.19l-5.94 3.44a0.64 0.64 0 0 1-0.32 0.1z"/><path d="m206.38 74.76h-6.87a0.7 0.7 0 0 1 0-1.39h6.87a0.69 0.69 0 1 1 0 1.38z"/><path d="m209.43 63.48a0.73 0.73 0 0 1-0.35-0.09l-6-3.43a0.7 0.7 0 0 1-0.25-1 0.69 0.69 0 0 1 0.94-0.25l6 3.43a0.69 0.69 0 0 1-0.34 1.29z"/><path d="m217.71 55.24a0.7 0.7 0 0 1-0.6-0.35l-3.44-5.89a0.69462 0.69462 0 0 1 1.2-0.7l3.44 6a0.69 0.69 0 0 1-0.25 0.94 0.64 0.64 0 0 1-0.35 0z"/></g><path d="m102.57 77.79a28.56 28.56 0 0 1 13.08 16.5l0.78 3.19a28.66 28.66 0 0 1-55.18 14.8l-0.93-3.14a28.66 28.66 0 0 1 42.25-31.35z" fill="#fff"/><path d="m61.26 87.13a31.11 31.11 0 0 0 51 35.27l9.56 1.46a1.8 1.8 0 0 0 1.67-2.92l-6.07-7.52a31.11 31.11 0 0 0-56.16-26.29zm41.27-9.37a28.58 28.58 0 0 1 13.11 16.48l0.78 3.19a28.66 28.66 0 0 1-55.15 14.9l-0.94-3.15a28.67 28.67 0 0 1 42.2-31.42z" fill="#455a64"/><path d="m83.88 119.1a4.53 4.53 0 0 1-3.29-1.42l-10.19-10.89a4.5106 4.5106 0 0 1 6.6-6.15l6.62 7.07 15.63-19.84a4.5 4.5 0 0 1 7.06 5.57l-18.9 24a4.51 4.51 0 0 1-3.34 1.71z" fill="#6da5ea"/><path d="m392.62 55.86a28.61 28.61 0 0 0-21.06 0.21l-3 1.4a28.65 28.65 0 0 0 23.18 52.21l3-1.25a28.66 28.66 0 0 0-2.19-52.57z" fill="#fff"/><path d="m393.55 53.61a31.16 31.16 0 0 0-38 13.12h-9.66a1.81 1.81 0 0 0-1.22 3.15l7.14 6.5a31.11 31.11 0 1 0 41.71-22.77zm15.52 39.39a28.55 28.55 0 0 1-14.3 15.46l-3 1.26a28.66 28.66 0 0 1-23.09-52.26l3-1.4a28.67 28.67 0 0 1 37.39 36.94z" fill="#455a64"/><path d="m378 99.11a4.52 4.52 0 0 1-3.28-1.41l-10.22-10.87a4.5 4.5 0 0 1 6.55-6.16l6.64 7 15.62-19.87a4.4941 4.4941 0 0 1 7.07 5.55l-18.85 24a4.52 4.52 0 0 1-3.34 1.72z" fill="#6da5ea"/></g></svg>
