<svg width="400" height="400" version="1.1" viewBox="0 0 400 400" xmlns="http://www.w3.org/2000/svg"><g transform="matrix(.91507 0 0 .91507 -32.666 -23.819)"><g fill="#e0e0e0"><ellipse cx="384.43" cy="338.75" rx="37.32" ry="21.54"/><path d="m191.3 461.12-56.06-32.47c-1.27-0.74-1.27-1.94 0-2.68l134.29-77.53a5.11 5.11 0 0 1 4.63 0l56.15 32.42c1.27 0.73 1.27 1.93 0 2.67l-134.4 77.59a5.08 5.08 0 0 1-4.61 0z"/></g><path d="m288.87 126.26a1.19 1.19 0 0 0-0.24-0.63l-0.14-0.14-0.16-0.1a1.08 1.08 0 0 0-0.41-0.1 1.48 1.48 0 0 0-0.62 0.11l-12.91 5.15a1.51 1.51 0 0 1-2.06-1.07c-0.13-0.48-0.27-0.95-0.42-1.42s-0.26-0.77-0.39-1.14c-0.19-0.55-0.41-1.09-0.64-1.6-0.11-0.26-0.23-0.52-0.34-0.77l-0.36-0.74c-0.12-0.25-0.25-0.48-0.38-0.72a3.11 3.11 0 0 1-0.31-0.84 3.36 3.36 0 0 1 0.25-2.23l2.64-4.79 6.55-11.85a1.92 1.92 0 0 0-0.63-2.51l-9-5.72-11.41-7.28-8.89-5.7a0.75 0.75 0 0 0-0.21-0.12l-0.18-0.07h-0.07a1 1 0 0 0-0.23 0 1.57 1.57 0 0 0-0.43 0h-0.17a0.08 0.08 0 0 0-0.08 0h-0.15a0.16 0.16 0 0 0-0.09 0h-0.24a0.69 0.69 0 0 0-0.22 0.14 0.83 0.83 0 0 0-0.17 0.15l-0.16 0.18-8 10.93-9.21-5.88-0.17-0.12-2.79-1.78-3.78-2.41a0.35 0.35 0 0 0-0.12-0.07h-0.07a0.69 0.69 0 0 0-0.2 0h-0.37a1.84 1.84 0 0 0-0.36 0.15l-14.85 7.73h-0.06a0.16 0.16 0 0 0-0.08 0.06h-0.06l-0.21 0.15-0.11 0.08-0.07 0.08h-0.06l-0.15 0.14a0.6 0.6 0 0 0-0.11 0.12l-0.15 0.18-0.15 0.19a2.59 2.59 0 0 0-0.19 0.31 0.41 0.41 0 0 1-0.07 0.15v0.06 0.06a0.61 0.61 0 0 0 0 0.12c0 0.11-0.09 0.24-0.13 0.37a0.49 0.49 0 0 0 0 0.16 1.55 1.55 0 0 0 0 0.21l-2.13 15.76c0 0.14-0.06 0.28-0.09 0.42a1.87 1.87 0 0 1-0.07 0.22 2.09 2.09 0 0 0-0.08 0.23 5.51 5.51 0 0 1-1.37 2c-0.72 0.61-1.43 1.23-2.13 1.87-0.53 0.47-1.05 1-1.58 1.46l-1.76 1.6c-0.52 0.51-1 1-1.53 1.56s-1 1.06-1.5 1.61a1.21 1.21 0 0 1-0.2 0.19 1.18 1.18 0 0 1-0.22 0.17 1.1 1.1 0 0 1-0.26 0.14 0.61 0.61 0 0 1-0.23 0.11 0.86 0.86 0 0 1-0.21 0.07h-0.24a1.11 1.11 0 0 1-0.25 0h-0.08a0.31 0.31 0 0 1-0.16 0 0.33 0.33 0 0 1-0.17 0 2.12 2.12 0 0 1-0.44 0 0.86 0.86 0 0 1-0.23-0.06h-0.11l-9-3.6a1.43 1.43 0 0 0-0.34-0.09h-0.32a2.21 2.21 0 0 0-2 0.95l-11.26 17.64a1.58 1.58 0 0 0-0.16 0.35v0.06a2.22 2.22 0 0 0-0.09 0.37v0.08a0.9 0.9 0 0 0 0 0.16v0.35a2.21 2.21 0 0 0 0.08 0.37 2.43 2.43 0 0 0 0.27 0.62l0.13 0.18a1.36 1.36 0 0 0 0.17 0.17l7 6.64c0.07 0.08 0.14 0.15 0.2 0.23a0.58 0.58 0 0 1 0.11 0.15c0.06 0.08 0.11 0.18 0.17 0.28s0.07 0.17 0.1 0.26 0 0 0 0a0.13 0.13 0 0 1 0 0.06 1.91 1.91 0 0 1 0.12 0.47 0.22 0.22 0 0 1 0 0.11 0.66 0.66 0 0 1 0 0.14v0.16 0.24 0.31 0.1a1.7 1.7 0 0 1-0.1 0.32 86.16 86.16 0 0 0-3.78 10.88 4 4 0 0 1-0.29 0.74 1.41 1.41 0 0 1-0.13 0.24v0.06c0 0.09-0.1 0.18-0.16 0.27a0.2 0.2 0 0 1-0.06 0.07 0.34 0.34 0 0 1-0.07 0.11 1.34 1.34 0 0 1-0.11 0.14c-0.07 0.1-0.16 0.2-0.24 0.3l-0.09 0.09a1.37 1.37 0 0 1-0.16 0.18 5 5 0 0 1-0.58 0.48l-13.45 8.63a2.17 2.17 0 0 0-0.3 0.23 1.29 1.29 0 0 0-0.17 0.16l-0.12 0.13a1.37 1.37 0 0 0-0.19 0.22 2.4 2.4 0 0 0-0.21 0.31l-0.15 0.25-0.13 0.27a1.28 1.28 0 0 0-0.11 0.27 0.7 0.7 0 0 0-0.06 0.19c0 0.11-0.06 0.22-0.09 0.32a2.6 2.6 0 0 0 0 0.37l-0.73 16.42a1.17 1.17 0 0 0 0 0.27v0.15a0.47 0.47 0 0 0 0.06 0.2 0.63 0.63 0 0 0 0.13 0.23 0.58 0.58 0 0 0 0.18 0.17l0.09 0.05 15.94 10.19-6.54 11.84a0.72 0.72 0 0 0-0.09 0.2 1.87 1.87 0 0 0-0.14 0.61 1.58 1.58 0 0 0 0 0.37 2.25 2.25 0 0 0 0.09 0.35 2.14 2.14 0 0 0 0.21 0.43l0.15 0.2a2.52 2.52 0 0 0 0.39 0.33l21.8 14a1.29 1.29 0 0 0 0.33 0.17l7.15 4.55a1.91 1.91 0 0 0 2.54-0.47l8-10.92 16 10.19a1 1 0 0 0 0.25 0.13 1.21 1.21 0 0 0 1-0.12l14.59-7.58a2.89 2.89 0 0 0 0.63-0.46 4.22 4.22 0 0 0 0.55-0.64 3.42 3.42 0 0 0 0.62-1.49l2.14-15.76a5.3 5.3 0 0 1 1.61-2.88 84.05 84.05 0 0 0 8.26-8 2.71 2.71 0 0 1 2.83-0.66l9 3.59a2.23 2.23 0 0 0 2.6-0.85l11.31-17.59a2.24 2.24 0 0 0-0.34-2.72l-7.08-6.64a2.74 2.74 0 0 1-0.58-2.85 84.48 84.48 0 0 0 3.78-10.87 5.33 5.33 0 0 1 1.94-2.68l13.4-8.56a3.85 3.85 0 0 0 1.58-2.73l0.73-16.43c0.03-0.09 0.02-0.18 0.02-0.26zm-51 12.39c-0.71 16-12.81 35-27 42.36a29.07 29.07 0 0 1-4.9 2c-0.11-0.8-0.18-1.64-0.22-2.51q0-0.51 0-1.05v-0.59-1.13c0.71-16 12.82-35 27.05-42.37 0.43-0.23 0.85-0.44 1.28-0.63 0.21-0.11 0.43-0.2 0.63-0.29l0.63-0.26a23.87 23.87 0 0 1 2.35-0.85 30.23 30.23 0 0 1 0.19 5.32z" fill="#6da5ea"/><path d="m288.87 126.26a1.19 1.19 0 0 0-0.24-0.63l-0.14-0.14-0.16-0.1a1.08 1.08 0 0 0-0.41-0.1 1.48 1.48 0 0 0-0.62 0.11l-12.91 5.15a1.51 1.51 0 0 1-2.06-1.07c-0.13-0.48-0.27-0.95-0.42-1.42s-0.26-0.77-0.39-1.14c-0.19-0.55-0.41-1.09-0.64-1.6-0.11-0.26-0.23-0.52-0.34-0.77l-0.36-0.74c-0.12-0.25-0.25-0.48-0.38-0.72a3.11 3.11 0 0 1-0.31-0.84 3.36 3.36 0 0 1 0.25-2.23l2.64-4.79 6.55-11.85a1.92 1.92 0 0 0-0.63-2.51l-9-5.72-11.41-7.28-8.89-5.7a0.75 0.75 0 0 0-0.21-0.12l-0.18-0.07h-0.07a1 1 0 0 0-0.23 0 1.57 1.57 0 0 0-0.43 0h-0.17a0.08 0.08 0 0 0-0.08 0h-0.15a0.16 0.16 0 0 0-0.09 0h-0.24a0.69 0.69 0 0 0-0.22 0.14 0.83 0.83 0 0 0-0.17 0.15l-0.16 0.18-8 10.93-9.21-5.88-0.17-0.12-2.79-1.78-3.78-2.41a0.35 0.35 0 0 0-0.12-0.07h-0.07a0.69 0.69 0 0 0-0.2 0h-0.37a1.84 1.84 0 0 0-0.36 0.15l-14.85 7.73h-0.06a0.16 0.16 0 0 0-0.08 0.06h-0.06l-0.21 0.15-0.11 0.08-0.07 0.08h-0.06l-0.15 0.14a0.6 0.6 0 0 0-0.11 0.12l-0.15 0.18-0.15 0.19a2.59 2.59 0 0 0-0.19 0.31 0.41 0.41 0 0 1-0.07 0.15v0.06 0.06a0.61 0.61 0 0 0 0 0.12c0 0.11-0.09 0.24-0.13 0.37a0.49 0.49 0 0 0 0 0.16 1.55 1.55 0 0 0 0 0.21l-2.13 15.76c0 0.14-0.06 0.28-0.09 0.42a1.87 1.87 0 0 1-0.07 0.22 2.09 2.09 0 0 0-0.08 0.23 5.51 5.51 0 0 1-1.37 2c-0.72 0.61-1.43 1.23-2.13 1.87-0.53 0.47-1.05 1-1.58 1.46l-1.76 1.6c-0.52 0.51-1 1-1.53 1.56s-1 1.06-1.5 1.61a1.21 1.21 0 0 1-0.2 0.19 1.18 1.18 0 0 1-0.22 0.17 1.1 1.1 0 0 1-0.26 0.14 0.61 0.61 0 0 1-0.23 0.11 0.86 0.86 0 0 1-0.21 0.07h-0.24a1.11 1.11 0 0 1-0.25 0h-0.08a0.31 0.31 0 0 1-0.16 0 0.33 0.33 0 0 1-0.17 0 2.12 2.12 0 0 1-0.44 0 0.86 0.86 0 0 1-0.23-0.06h-0.11l-9-3.6a1.43 1.43 0 0 0-0.34-0.09h-0.32a2.21 2.21 0 0 0-2 0.95l-11.26 17.64a1.58 1.58 0 0 0-0.16 0.35v0.06a2.22 2.22 0 0 0-0.09 0.37v0.08a0.9 0.9 0 0 0 0 0.16v0.35a2.21 2.21 0 0 0 0.08 0.37 2.43 2.43 0 0 0 0.27 0.62l0.13 0.18a1.36 1.36 0 0 0 0.17 0.17l7 6.64c0.07 0.08 0.14 0.15 0.2 0.23a0.58 0.58 0 0 1 0.11 0.15c0.06 0.08 0.11 0.18 0.17 0.28s0.07 0.17 0.1 0.26 0 0 0 0a0.13 0.13 0 0 1 0 0.06 1.91 1.91 0 0 1 0.12 0.47 0.22 0.22 0 0 1 0 0.11 0.66 0.66 0 0 1 0 0.14v0.16 0.24 0.31 0.1a1.7 1.7 0 0 1-0.1 0.32 86.16 86.16 0 0 0-3.78 10.88 4 4 0 0 1-0.29 0.74 1.41 1.41 0 0 1-0.13 0.24v0.06c0 0.09-0.1 0.18-0.16 0.27a0.2 0.2 0 0 1-0.06 0.07 0.34 0.34 0 0 1-0.07 0.11 1.34 1.34 0 0 1-0.11 0.14c-0.07 0.1-0.16 0.2-0.24 0.3l-0.09 0.09a1.37 1.37 0 0 1-0.16 0.18 5 5 0 0 1-0.58 0.48l-13.45 8.63a2.17 2.17 0 0 0-0.3 0.23 1.29 1.29 0 0 0-0.17 0.16l-0.12 0.13a1.37 1.37 0 0 0-0.19 0.22 2.4 2.4 0 0 0-0.21 0.31l-0.15 0.25-0.13 0.27a1.28 1.28 0 0 0-0.11 0.27 0.7 0.7 0 0 0-0.06 0.19c0 0.11-0.06 0.22-0.09 0.32a2.6 2.6 0 0 0 0 0.37l-0.73 16.42a1.17 1.17 0 0 0 0 0.27v0.15a0.47 0.47 0 0 0 0.06 0.2 0.63 0.63 0 0 0 0.13 0.23 0.58 0.58 0 0 0 0.18 0.17l0.09 0.05 15.94 10.19-6.54 11.84a0.72 0.72 0 0 0-0.09 0.2 1.87 1.87 0 0 0-0.14 0.61 1.58 1.58 0 0 0 0 0.37 2.25 2.25 0 0 0 0.09 0.35 2.14 2.14 0 0 0 0.21 0.43l0.15 0.2a2.52 2.52 0 0 0 0.39 0.33l21.8 14a1.29 1.29 0 0 0 0.33 0.17l7.15 4.55a1.91 1.91 0 0 0 2.54-0.47l8-10.92 16 10.19a1 1 0 0 0 0.25 0.13 1.21 1.21 0 0 0 1-0.12l14.59-7.58a2.89 2.89 0 0 0 0.63-0.46 4.22 4.22 0 0 0 0.55-0.64 3.42 3.42 0 0 0 0.62-1.49l2.14-15.76a5.3 5.3 0 0 1 1.61-2.88 84.05 84.05 0 0 0 8.26-8 2.71 2.71 0 0 1 2.83-0.66l9 3.59a2.23 2.23 0 0 0 2.6-0.85l11.31-17.59a2.24 2.24 0 0 0-0.34-2.72l-7.08-6.64a2.74 2.74 0 0 1-0.58-2.85 84.48 84.48 0 0 0 3.78-10.87 5.33 5.33 0 0 1 1.94-2.68l13.4-8.56a3.85 3.85 0 0 0 1.58-2.73l0.73-16.43c0.03-0.09 0.02-0.18 0.02-0.26zm-51 12.39c-0.71 16-12.81 35-27 42.36a29.07 29.07 0 0 1-4.9 2c-0.11-0.8-0.18-1.64-0.22-2.51q0-0.51 0-1.05v-0.59-1.13c0.71-16 12.82-35 27.05-42.37 0.43-0.23 0.85-0.44 1.28-0.63 0.21-0.11 0.43-0.2 0.63-0.29l0.63-0.26a23.87 23.87 0 0 1 2.35-0.85 30.23 30.23 0 0 1 0.19 5.32z" opacity=".3"/><path d="m182 200.8-6.35 2.53a1.2 1.2 0 0 1-1.13-0.05l-4.32-2.75-6.54 11.84a1.92 1.92 0 0 0 0.64 2.51l21.8 14a1.91 1.91 0 0 0 1.37 0.26l6-21z" opacity=".05"/><path d="m195.68 160.09-20.38-13a2.67 2.67 0 0 0-0.75-2l-7-6.63a2.15 2.15 0 0 1-0.64-1.34l20.37 13a2.14 2.14 0 0 0 0.63 1.3l7 6.64a2.67 2.67 0 0 1 0.77 2.03z" fill="#6da5ea"/><path d="m195.68 160.09-20.38-13a2.67 2.67 0 0 0-0.75-2l-7-6.63a2.15 2.15 0 0 1-0.64-1.34l20.37 13a2.14 2.14 0 0 0 0.63 1.3l7 6.64a2.67 2.67 0 0 1 0.77 2.03z" opacity=".4"/><path d="m212.1 133.87a2.66 2.66 0 0 1-1.72 0l-9-3.59a1.86 1.86 0 0 0-0.66-0.14l-20.35-13a2 2 0 0 1 0.65 0.13l9 3.59a2.6 2.6 0 0 0 1.7 0z" fill="#6da5ea"/><path d="m212.1 133.87a2.66 2.66 0 0 1-1.72 0l-9-3.59a1.86 1.86 0 0 0-0.66-0.14l-20.35-13a2 2 0 0 1 0.65 0.13l9 3.59a2.6 2.6 0 0 0 1.7 0z" opacity=".2"/><path d="m225.49 105.67a3.63 3.63 0 0 0-0.27 0.85l-2.12 15.77a3.62 3.62 0 0 1-0.25 0.87l-20.36-13a3.93 3.93 0 0 0 0.24-0.87l2.13-15.76a2.94 2.94 0 0 1 0.27-0.86z" fill="#6da5ea"/><path d="m225.49 105.67a3.63 3.63 0 0 0-0.27 0.85l-2.12 15.77a3.62 3.62 0 0 1-0.25 0.87l-20.36-13a3.93 3.93 0 0 0 0.24-0.87l2.13-15.76a2.94 2.94 0 0 1 0.27-0.86z" opacity=".2"/><g fill="#6da5ea"><path d="m272.37 115.22 16 10.17a1.21 1.21 0 0 0-1 0l-12.92 5.14a1.51 1.51 0 0 1-2.06-1.07 28.31 28.31 0 0 0-2.55-6.4 3.52 3.52 0 0 1 0-3.07z"/><path d="m288.41 125.43"/><path d="m269.33 95.14a1.93 1.93 0 0 0-2.51 0.5l-11.22 15.36a2.73 2.73 0 0 1-0.8 0.7l-5.74-3.7-5.35-3.43-0.41-7.28a1.18 1.18 0 0 0-0.53-1h-0.06l-4.25-2.7 8-10.93a1.91 1.91 0 0 1 2.51-0.48l8.94 5.71z"/><path d="m190.78 173.54a4.42 4.42 0 0 1-1 1l-13.4 8.57a3.11 3.11 0 0 0-1 1l-20.34-13a3.33 3.33 0 0 1 0.93-1l13.41-8.56a4.84 4.84 0 0 0 1-1z"/><path d="m200.4 130.13a2.24 2.24 0 0 0-1.6 1l-11.27 17.65a2.07 2.07 0 0 0-0.29 1.41l-20.36-13a2.08 2.08 0 0 1 0.29-1.38l11.25-17.64a2.22 2.22 0 0 1 1.76-1z"/><path d="m242.71 96.27a1.26 1.26 0 0 0-1.09 0.09l-6 3.1-8.62 4.48a3.81 3.81 0 0 0-1.55 1.73l-20.37-13a3.79 3.79 0 0 1 1.59-1.67l14.59-7.57a1.42 1.42 0 0 1 0.72-0.18 0.7 0.7 0 0 1 0.42 0.13l6.68 4.24 0.17 0.11 9.21 5.89z"/></g><path d="m272.37 115.22 16 10.17a1.21 1.21 0 0 0-1 0l-12.92 5.14a1.51 1.51 0 0 1-2.06-1.07 28.31 28.31 0 0 0-2.55-6.4 3.52 3.52 0 0 1 0-3.07z" opacity=".1"/><path d="m269.33 95.14a1.93 1.93 0 0 0-2.51 0.5l-11.22 15.36a2.73 2.73 0 0 1-0.8 0.7l-5.74-3.7-5.35-3.43-0.41-7.28a1.18 1.18 0 0 0-0.53-1h-0.06l-4.25-2.7 8-10.93a1.91 1.91 0 0 1 2.51-0.48l8.94 5.71z" opacity=".2"/><path d="m190.78 173.54a4.42 4.42 0 0 1-1 1l-13.4 8.57a3.11 3.11 0 0 0-1 1l-20.34-13a3.33 3.33 0 0 1 0.93-1l13.41-8.56a4.84 4.84 0 0 0 1-1z" opacity=".2"/><path d="m200.4 130.13a2.24 2.24 0 0 0-1.6 1l-11.27 17.65a2.07 2.07 0 0 0-0.29 1.41l-20.36-13a2.08 2.08 0 0 1 0.29-1.38l11.25-17.64a2.22 2.22 0 0 1 1.76-1z" opacity=".1"/><path d="m242.71 96.27a1.26 1.26 0 0 0-1.09 0.09l-6 3.1-8.62 4.48a3.81 3.81 0 0 0-1.55 1.73l-20.37-13a3.79 3.79 0 0 1 1.59-1.67l14.59-7.57a1.42 1.42 0 0 1 0.72-0.18 0.7 0.7 0 0 1 0.42 0.13l6.68 4.24 0.17 0.11 9.21 5.89z" opacity=".1"/><path d="m193.45 208.1-11.45-7.3 6.55-2.61a1.5 1.5 0 0 1 2.07 1.06 28.12 28.12 0 0 0 2.55 6.41 3.56 3.56 0 0 1 0.28 2.44z" opacity=".15"/><path d="m220.09 232.36-16-10.19 3.24-4.42a3.51 3.51 0 0 1 2.82-1.25 28.55 28.55 0 0 0 6.88-0.39 1.5 1.5 0 0 1 1.83 1.42l0.78 13.88a1.2 1.2 0 0 0 0.45 0.95z" opacity=".15"/><path d="m288.87 126.26a1.19 1.19 0 0 0-0.24-0.63l-0.14-0.14-0.16-0.1a1.08 1.08 0 0 0-0.41-0.1 1.48 1.48 0 0 0-0.62 0.11l-12.91 5.15a1.51 1.51 0 0 1-2.06-1.07c-0.13-0.48-0.27-0.95-0.42-1.42s-0.26-0.77-0.39-1.14c-0.19-0.55-0.41-1.09-0.64-1.6-0.11-0.26-0.23-0.52-0.34-0.77l-0.36-0.74c-0.12-0.25-0.25-0.48-0.38-0.72a3.11 3.11 0 0 1-0.31-0.84 3.36 3.36 0 0 1 0.25-2.23l2.64-4.79 6.55-11.85a1.92 1.92 0 0 0-0.63-2.51l-8.93-5.7h-0.19l-0.2-0.08h-0.44a2 2 0 0 0-1.49 0.59 0.84 0.84 0 0 0-0.15 0.18l-4.12 5.63-7.18 9.51a1 1 0 0 1-0.17 0.19 0.67 0.67 0 0 1-0.14 0.15 2.47 2.47 0 0 1-0.49 0.36 3.71 3.71 0 0 1-2 0.55c-0.76-0.06-1.54-0.08-2.33-0.07a30.46 30.46 0 0 0-4.55 0.45 1.5 1.5 0 0 1-1.84-1.42l-0.37-6.6-0.4-7.28a1.61 1.61 0 0 0-0.06-0.33 1 1 0 0 0-0.1-0.29 0.94 0.94 0 0 0-0.14-0.19 0.06 0.06 0 0 0 0-0.05l-0.2-0.15h-0.07l-0.15-0.05a1.34 1.34 0 0 0-0.91 0.15l-14.68 7.52a2.31 2.31 0 0 0-0.53 0.37l-0.14 0.13a4.15 4.15 0 0 0-0.51 0.6c-0.09 0.12-0.16 0.23-0.24 0.36l-0.13 0.27a3.2 3.2 0 0 0-0.17 0.43 2.53 2.53 0 0 0-0.1 0.42l-1.51 11.23-0.61 4.54c0 0.16-0.07 0.34-0.12 0.52a1.66 1.66 0 0 1-0.13 0.35 5.34 5.34 0 0 1-1.36 2 85.36 85.36 0 0 0-8.28 8 2.46 2.46 0 0 1-1.12 0.68 2.68 2.68 0 0 1-0.49 0.11h-0.24a2.29 2.29 0 0 1-1-0.15l-9-3.59a1.49 1.49 0 0 0-0.3-0.09 0.84 0.84 0 0 0-0.27 0h-0.1a1.42 1.42 0 0 0-0.29 0 2.21 2.21 0 0 0-1.65 1l-2.28 3.58-6.68 10.49-2.29 3.58a2.22 2.22 0 0 0-0.19 1.91 2 2 0 0 0 0.52 0.8l7 6.64a2.74 2.74 0 0 1 0.58 2.85 86 86 0 0 0-3.78 10.87 5.29 5.29 0 0 1-1.94 2.68l-3.72 2.48-9.55 6.11a3.8 3.8 0 0 0-1.57 2.72l-0.73 16.43a1.06 1.06 0 0 0 1.57 1.12l12.91-5.14a1.51 1.51 0 0 1 2.07 1.06 29.26 29.26 0 0 0 1.5 4.32c0.32 0.73 0.66 1.42 1 2.09a3.45 3.45 0 0 1 0.06 3.07l-9.19 16.58a1.91 1.91 0 0 0 0.64 2.51l8.92 5.69a1.91 1.91 0 0 0 2.54-0.47l8-10.92 3.24-4.42a3.5 3.5 0 0 1 2.81-1.25 28.55 28.55 0 0 0 6.88-0.39 1.51 1.51 0 0 1 1.84 1.42l0.78 13.88a1.23 1.23 0 0 0 0.4 0.93 0.72 0.72 0 0 0 0.25 0.12 1.21 1.21 0 0 0 1-0.12l14.59-7.58a2.89 2.89 0 0 0 0.63-0.46 4.22 4.22 0 0 0 0.55-0.64 3.42 3.42 0 0 0 0.62-1.49l2.14-15.76a5.3 5.3 0 0 1 1.61-2.88 84.05 84.05 0 0 0 8.26-8 2.71 2.71 0 0 1 2.83-0.66l9 3.59a2.23 2.23 0 0 0 2.6-0.85l11.29-17.61a2.24 2.24 0 0 0-0.34-2.72l-7.08-6.64a2.74 2.74 0 0 1-0.58-2.85 84.48 84.48 0 0 0 3.78-10.87 5.33 5.33 0 0 1 1.94-2.68l13.4-8.56a3.85 3.85 0 0 0 1.58-2.73l0.73-16.43c0.03-0.09 0.02-0.18 0.02-0.26zm-34.82 38.79a55.15 55.15 0 0 1-2.38 5.28 60.5 60.5 0 0 1-6.31 9.89 53.65 53.65 0 0 1-3.74 4.32 44.11 44.11 0 0 1-11.43 8.81 23.53 23.53 0 0 1-10.68 3c-7.23 0-12.39-4.85-13.57-13.28-0.11-0.8-0.18-1.64-0.22-2.51q0-0.51 0-1.05v-0.59-1.13c0.71-16 12.82-35 27.05-42.37 0.43-0.23 0.85-0.44 1.28-0.63 0.21-0.11 0.43-0.2 0.63-0.29l0.63-0.26a23.87 23.87 0 0 1 2.35-0.85c8.14-2.48 14.69 0.16 17.74 6.71a23.38 23.38 0 0 1 1.82 10.9 44.24 44.24 0 0 1-3.17 14.05z" fill="#6da5ea"/><path d="m123.3 150.64-0.8 17.94c11.08-6.17 21.53-15.48 30.42-26.5l-8.71-9.64a77.32 77.32 0 0 1-20.91 18.2z" fill="#6da5ea"/><path d="m123.3 150.64-0.8 17.94c11.08-6.17 21.53-15.48 30.42-26.5l-8.71-9.64a77.32 77.32 0 0 1-20.91 18.2z" fill="#fff" opacity=".8"/><polygon points="123.3 150.64 112.18 143.51 111.38 161.45 122.5 168.58" fill="#6da5ea"/><polygon points="123.3 150.64 112.18 143.51 111.38 161.45 122.5 168.58" fill="#fff" opacity=".65"/><polygon points="123.3 150.64 112.18 143.51 111.38 161.45 122.5 168.58" fill="#6da5ea"/><polygon points="123.3 150.64 112.18 143.51 111.38 161.45 122.5 168.58" opacity=".05"/><path d="m123.3 150.64a77.32 77.32 0 0 0 20.91-18.2l-11.13-7.13a77.43 77.43 0 0 1-20.9 18.2z" fill="#6da5ea"/><path d="m123.3 150.64a77.32 77.32 0 0 0 20.91-18.2l-11.13-7.13a77.43 77.43 0 0 1-20.9 18.2z" fill="#fff" opacity=".6"/><path d="m99.09 155.88-10 19.36c8.31 2.09 18.4 0.72 29.44-4.59l0.8-18c-7.55 3.57-14.47 4.55-20.24 3.23z" fill="#6da5ea"/><path d="m99.09 155.88-10 19.36c8.31 2.09 18.4 0.72 29.44-4.59l0.8-18c-7.55 3.57-14.47 4.55-20.24 3.23z" fill="#fff" opacity=".65"/><polygon points="99.09 155.88 87.96 148.75 77.96 168.11 89.09 175.24" fill="#6da5ea"/><polygon points="99.09 155.88 87.96 148.75 77.96 168.11 89.09 175.24" fill="#fff" opacity=".55"/><polygon points="99.09 155.88 87.96 148.75 77.96 168.11 89.09 175.24" fill="#6da5ea"/><polygon points="99.09 155.88 87.96 148.75 77.96 168.11 89.09 175.24" opacity=".1"/><path d="m108.2 145.57c-7.55 3.52-14.47 4.5-20.24 3.18l11.13 7.13c5.77 1.32 12.69 0.34 20.24-3.18z" fill="#6da5ea"/><path d="m108.2 145.57c-7.55 3.52-14.47 4.5-20.24 3.18l11.13 7.13c5.77 1.32 12.69 0.34 20.24-3.18z" fill="#fff" opacity=".55"/><path d="m84.17 141.82-15.42 13.43c3.19 9.48 9.24 16 17.25 19l10-19.34c-5.44-2.18-9.55-6.68-11.83-13.09z" fill="#6da5ea"/><path d="m84.17 141.82-15.42 13.43c3.19 9.48 9.24 16 17.25 19l10-19.34c-5.44-2.18-9.55-6.68-11.83-13.09z" fill="#fff" opacity=".55"/><path d="m68.75 155.25-11.13-7.13c2.48 7.35 6.68 12.88 12.18 16.46l11.12 7.13c-5.5-3.54-9.7-9.11-12.17-16.46z" fill="#6da5ea"/><path d="m68.75 155.25-11.13-7.13c2.48 7.35 6.68 12.88 12.18 16.46l11.12 7.13c-5.5-3.54-9.7-9.11-12.17-16.46z" fill="#fff" opacity=".45"/><polygon points="84.17 141.82 73.04 134.69 57.62 148.12 68.75 155.25" fill="#6da5ea"/><polygon points="84.17 141.82 73.04 134.69 57.62 148.12 68.75 155.25" fill="#fff" opacity=".55"/><polygon points="84.17 141.82 73.04 134.69 57.62 148.12 68.75 155.25" fill="#6da5ea"/><polygon points="84.17 141.82 73.04 134.69 57.62 148.12 68.75 155.25" opacity=".1"/><path d="m147.54 128.14 8.7 9.63a131.83 131.83 0 0 0 19.76-38.26l-14.92 2.33a95.35 95.35 0 0 1-13.54 26.3z" fill="#6da5ea"/><path d="m147.54 128.14 8.7 9.63a131.83 131.83 0 0 0 19.76-38.26l-14.92 2.33a95.35 95.35 0 0 1-13.54 26.3z" fill="#fff" opacity=".85"/><polygon points="176.04 99.51 164.92 92.38 150 94.71 161.12 101.84" fill="#6da5ea"/><polygon points="176.04 99.51 164.92 92.38 150 94.71 161.12 101.84" fill="#fff" opacity=".75"/><polygon points="176.04 99.51 164.92 92.38 150 94.71 161.12 101.84" fill="#6da5ea"/><path d="m150 94.71a94.81 94.81 0 0 1-13.59 26.29l11.13 7.13a95.35 95.35 0 0 0 13.58-26.3z" fill="#6da5ea"/><path d="m150 94.71a94.81 94.81 0 0 1-13.59 26.29l11.13 7.13a95.35 95.35 0 0 0 13.58-26.3z" fill="#fff" opacity=".65"/><polygon points="156.24 137.77 147.54 128.14 136.41 121.01 145.11 130.64" fill="#6da5ea"/><polygon points="156.24 137.77 147.54 128.14 136.41 121.01 145.11 130.64" fill="#fff" opacity=".75"/><polygon points="156.24 137.77 147.54 128.14 136.41 121.01 145.11 130.64" fill="#6da5ea"/><path d="m180.46 75.75a89.46 89.46 0 0 1-3 18.87l-14.92 2.38a64.21 64.21 0 0 0 2-13 45.23 45.23 0 0 0-0.3-7.75l12.85-23c0.32 0.75 0.6 1.55 0.88 2.35 0 0 0.63 1.93 1 3.63a58.64 58.64 0 0 1 1.49 16.52z" fill="#6da5ea"/><path d="m180.46 75.75a89.46 89.46 0 0 1-3 18.87l-14.92 2.38a64.21 64.21 0 0 0 2-13 45.23 45.23 0 0 0-0.3-7.75l12.85-23c0.32 0.75 0.6 1.55 0.88 2.35 0 0 0.63 1.93 1 3.63a58.64 58.64 0 0 1 1.49 16.52z" fill="#fff" opacity=".9"/><polygon points="177.12 53.21 165.99 46.08 153.14 69.12 164.27 76.25" fill="#6da5ea"/><polygon points="177.12 53.21 165.99 46.08 153.14 69.12 164.27 76.25" fill="#fff" opacity=".85"/><polygon points="177.12 53.21 165.99 46.08 153.14 69.12 164.27 76.25" fill="#6da5ea"/><path d="m164.27 76.25-11.13-7.13a45.19 45.19 0 0 1 0.31 7.75 64.25 64.25 0 0 1-2 12.95l11.09 7.18a64.21 64.21 0 0 0 2-13 45.23 45.23 0 0 0-0.27-7.75z" fill="#6da5ea"/><path d="m164.64 76.49-11.12-7.13a44.24 44.24 0 0 1 0.3 7.75 63.52 63.52 0 0 1-2 13l11.12 7.13a64.25 64.25 0 0 0 2-13 44.2 44.2 0 0 0-0.3-7.75z" fill="#fff" opacity=".7"/><path d="m175.59 42.38c-0.1-0.06-5.31-3.73-5.31-3.73a1.54 1.54 0 0 0-0.31-0.17l-10.38-4.29a2.31 2.31 0 0 0-2.83 1l-41.92 75.16-16.67-9.16a2.11 2.11 0 0 0-2.79 0.75l-8.18 12.94a1.9 1.9 0 0 0 0.6 2.61s4.48 3.21 5.31 3.73a0.41 0.41 0 0 0 0.11 0.07l29 16a2 2 0 0 0 2.72-0.78l51.19-91.77a1.73 1.73 0 0 0-0.54-2.36z" fill="#263238"/><path d="m175.59 42.38c-0.1-0.06-5.31-3.73-5.31-3.73a1.54 1.54 0 0 0-0.31-0.17l-10.38-4.29a2.28 2.28 0 0 0-1.94 0.13l18.11 11.12 0.39-0.71a1.73 1.73 0 0 0-0.56-2.35z" fill="#455a64"/><path d="m175.28 42.22-10.39-4.29a2.31 2.31 0 0 0-2.82 1l-41.93 75.17-16.66-9.16a2.1 2.1 0 0 0-2.79 0.74l-8.18 13a1.9 1.9 0 0 0 0.71 2.68l29 16a2 2 0 0 0 2.72-0.78l51.19-91.77a1.73 1.73 0 0 0-0.85-2.59z" fill="#37474f"/><path d="m114.84 110.34 5.29 3.75-16.65-9.17a2.06 2.06 0 0 0-1.55-0.18l-5.3-3.74a2 2 0 0 1 1.54 0.18z" fill="#455a64"/><g fill="#6da5ea"><path d="m82.18 126.81a64.21 64.21 0 0 1 2-13l-14.88 2.38a89.43 89.43 0 0 0-3 18.87 59 59 0 0 0 1.43 16.56l15.4-13.41a43.13 43.13 0 0 1-0.95-11.4z"/><path d="m82.18 126.81a64.21 64.21 0 0 1 2-13l-14.88 2.38a89.43 89.43 0 0 0-3 18.87 59 59 0 0 0 1.43 16.56l15.4-13.41a43.13 43.13 0 0 1-0.95-11.4z"/><polygon points="84.21 113.86 73.08 106.73 58.17 109.06 69.3 116.19"/></g><polygon points="84.21 113.86 73.08 106.73 58.17 109.06 69.3 116.19" opacity=".15"/><path d="m69.3 116.19-11.13-7.13a90.73 90.73 0 0 0-3 18.87 59 59 0 0 0 1.44 16.56l11.12 7.13a59 59 0 0 1-1.43-16.56 89.43 89.43 0 0 1 3-18.87z" fill="#6da5ea"/><path d="m69.3 116.19-11.13-7.13a90.73 90.73 0 0 0-3 18.87 59 59 0 0 0 1.44 16.56l11.12 7.13a59 59 0 0 1-1.43-16.56 89.43 89.43 0 0 1 3-18.87z" fill="#fff" opacity=".3"/><path d="m147.65 54.94 10-19.4c-8.64-2.13-18.89-0.42-29.46 4.65l-0.79 17.9c7.26-3.37 14.26-4.49 20.25-3.15z" fill="#6da5ea"/><path d="m147.65 54.94 10-19.4c-8.64-2.13-18.89-0.42-29.46 4.65l-0.79 17.9c7.26-3.37 14.26-4.49 20.25-3.15z" opacity=".3"/><polygon points="128.22 40.19 117.09 33.06 116.29 50.96 127.42 58.09" fill="#6da5ea"/><polygon points="128.22 40.19 117.09 33.06 116.29 50.96 127.42 58.09" opacity=".42"/><path d="m128.21 40.19c10.57-5.07 20.82-6.78 29.46-4.65l-11.12-7.13c-8.64-2.13-18.9-0.42-29.46 4.65z" fill="#6da5ea"/><path d="m128.21 40.19c10.57-5.07 20.82-6.78 29.46-4.65l-11.12-7.13c-8.64-2.13-18.9-0.42-29.46 4.65z" opacity=".2"/><path d="m123.45 60.17 0.79-17.94c-11.07 6.17-21.52 15.47-30.41 26.5l8.71 9.63a77.45 77.45 0 0 1 20.91-18.19z" fill="#6da5ea"/><path d="m123.45 60.17 0.79-17.94c-11.07 6.17-21.52 15.47-30.41 26.5l8.71 9.63a77.45 77.45 0 0 1 20.91-18.19z" opacity=".2"/><path d="m113.12 35.1c-11.12 6.17-21.53 15.47-30.42 26.5l11.13 7.13c8.89-11 19.34-20.33 30.41-26.5z" fill="#6da5ea"/><path d="m113.12 35.1c-11.12 6.17-21.53 15.47-30.42 26.5l11.13 7.13c8.89-11 19.34-20.33 30.41-26.5z" opacity=".1"/><polygon points="102.54 78.36 93.83 68.73 82.7 61.6 91.41 71.23" fill="#6da5ea"/><polygon points="102.54 78.36 93.83 68.73 82.7 61.6 91.41 71.23" opacity=".35"/><path d="m99.21 82.66-8.7-9.66a132.11 132.11 0 0 0-19.81 38.3l14.93-2.3a95.27 95.27 0 0 1 13.58-26.34z" fill="#6da5ea"/><path d="m99.21 82.66-8.7-9.66a132.11 132.11 0 0 0-19.81 38.3l14.93-2.3a95.27 95.27 0 0 1 13.58-26.34z" opacity=".1"/><path d="m70.7 111.3a132.11 132.11 0 0 1 19.81-38.3l-11.13-7.09a131.83 131.83 0 0 0-19.8 38.26z" fill="#6da5ea"/><path d="m141.3 200.94-0.08-0.05-19.22-12.61-0.12-0.06c-9-5.23-21.52-4.53-35.37 3.34-27.81 15.8-50.54 54.55-50.76 86.54-0.11 16 5.4 27.2 14.39 32.53l0.08 0.05 19.26 12.61 0.09 0.06c9 5.24 21.54 4.54 35.4-3.33 27.81-15.81 50.54-54.55 50.76-86.54 0.07-15.96-5.44-27.21-14.43-32.54z" fill="#37474f"/><path d="m68.77 322.88-18.6-12.21-0.09-0.06c-9-5.33-14.49-16.59-14.38-32.51 0.1-14.27 4.68-29.87 12.18-44.18l19.26 12.61c-7.51 14.3-12.08 29.9-12.17 44.17-0.12 15.61 5.15 26.71 13.8 32.18z" fill="#263238"/><ellipse transform="rotate(-59.61 105.32 262.08)" cx="105.32" cy="262.09" rx="70.94" ry="40.96" fill="#455a64"/><path d="m82.55 316.54c-15.88-0.11-17.47-18.06-17.42-25.77 0.19-28.21 21.08-63.83 45.62-77.77 6.24-3.54 12.24-5.4 17.35-5.37 15.88 0.11 17.47 18.06 17.42 25.77-0.2 28.21-21.09 63.83-45.62 77.77-6.24 3.55-12.24 5.4-17.35 5.37z" fill="#fafafa"/><path d="m108.14 267.53a1.81 1.81 0 0 1-0.56-0.12 1.73 1.73 0 0 1-1.07-1.7l2.26-40.71a1.73 1.73 0 0 1 3.45 0.19l-2 35.69 20.34-23.33a1.73 1.73 0 1 1 2.6 2.27l-23.62 27.18a1.76 1.76 0 0 1-1.4 0.53z" fill="#37474f"/><path d="m96.75 297.06a0.67 0.67 0 0 1-0.24 0 0.72 0.72 0 0 1-0.44-0.93l11.34-31.67a0.72279 0.72279 0 1 1 1.36 0.49l-11.33 31.63a0.73 0.73 0 0 1-0.69 0.48z" fill="#6da5ea"/><path d="m108.14 257.64c3.27-1.86 5.9-0.32 5.88 3.44a13.07 13.07 0 0 1-6 10.19c-3.28 1.86-5.91 0.31-5.88-3.45a13 13 0 0 1 6-10.18z" fill="#6da5ea"/><path d="m108.14 257.64c3.27-1.86 5.9-0.32 5.88 3.44a13.07 13.07 0 0 1-6 10.19c-3.28 1.86-5.91 0.31-5.88-3.45a13 13 0 0 1 6-10.18z" opacity=".2"/><path d="m261.22 360.91-6.36 3.67a2.56 2.56 0 0 1-2.32 0l-2-1.17a2 2 0 0 1-0.88-2l21.16-100.15a3.38 3.38 0 0 1 1.43-2l6.37-3.68a2.61 2.61 0 0 1 2.31 0l2 1.18a1.93 1.93 0 0 1 0.88 2l-21.15 100.17a3.43 3.43 0 0 1-1.44 1.98z" fill="#455a64"/><path d="m261.22 360.91-6.36 3.67c-0.64 0.37-1 0.09-0.89-0.64l21.16-100.15a3.39 3.39 0 0 1 1.43-2l6.37-3.68c0.64-0.37 1-0.08 0.88 0.64l-21.15 100.18a3.43 3.43 0 0 1-1.44 1.98z" fill="#263238"/><polygon points="301.81 379.76 257.83 354.37 259.71 345.43 264.05 342.93 304.26 366.14 306.14 377.26" fill="#37474f"/><polygon points="299.92 368.64 301.81 379.76 257.83 354.37 259.71 345.43" fill="#455a64"/><path d="m309 388.48-6.37 3.67a2.54 2.54 0 0 1-2.31 0l-2-1.17a3.22 3.22 0 0 1-1.38-2l-21.31-125.18a2.06 2.06 0 0 1 0.93-2l6.37-3.68a2.56 2.56 0 0 1 2.32 0l2 1.17a3.21 3.21 0 0 1 1.38 2l21.26 125.19a2.05 2.05 0 0 1-0.89 2z" fill="#37474f"/><path d="m275.63 263.8 0.8 4.74 20.46 120.46a3.21 3.21 0 0 0 1.37 2l2 1.18a2.61 2.61 0 0 0 2.31 0l6.36-3.68a2.08 2.08 0 0 0 0.94-2l-21.14-124.77-0.07-0.43a3.29 3.29 0 0 0-1.38-2l-2-1.17a2.56 2.56 0 0 0-2.32 0l-6.37 3.67a2.08 2.08 0 0 0-0.96 2z" fill="#37474f"/><path d="m288.65 261.3 21.26 125.19a2.05 2.05 0 0 1-0.93 2l-6.37 3.67a0.87 0.87 0 0 1-1.38-0.65l-21.23-125.2a2.09 2.09 0 0 1 0.93-2l6.37-3.67a0.87 0.87 0 0 1 1.35 0.66z" fill="#455a64"/><path d="m269.76 266.16 3.34 1.93a5.06 5.06 0 0 0 3.33 0.45 4.28 4.28 0 0 0 1.29-0.45l11-6.36-0.07-0.43a3.29 3.29 0 0 0-1.38-2l-2-1.17a2.56 2.56 0 0 0-2.32 0c0.16-0.72 0.64-1 0-1.34l-2-1.16a2.5 2.5 0 0 0-2.32 0l-6.37 3.67a3.38 3.38 0 0 0-1.43 2z" opacity=".15"/><path d="m265.9 258.36a1.63 1.63 0 0 1 1-1.36l12.74-7.35a5.11 5.11 0 0 1 4.63 0l6.24 3.6a1.64 1.64 0 0 1 1 1.32v2.9a1.62 1.62 0 0 1-1 1.34l-12.74 7.35a5.11 5.11 0 0 1-4.63 0l-6.24-3.6a1.6 1.6 0 0 1-1-1.32c-0.01-0.49 0-2.41 0-2.88z" fill="#37474f"/><path d="m265.9 258.36a1.63 1.63 0 0 1 1-1.36l8.56-4.93v14.65a4.74 4.74 0 0 1-2.32-0.56l-6.24-3.6a1.6 1.6 0 0 1-1-1.32c-0.01-0.49 0-2.41 0-2.88z" fill="#263238"/><path d="m277.72 263.28 12.74-7.36c1.28-0.74 1.28-1.93 0-2.67l-6.24-3.6a5.11 5.11 0 0 0-4.63 0l-12.74 7.35c-1.27 0.74-1.27 1.94 0 2.67l6.24 3.61a5.17 5.17 0 0 0 4.63 0z" fill="#455a64"/><path d="m285.71 242.86-4.3-2.53c-1.23-0.63-2.88-0.45-4.66 0.7a14.69 14.69 0 0 0-6.08 11.83c0.1 2.11 0.91 3.56 2.14 4.2l4.31 2.53c1.23 0.63 2.88 0.44 4.66-0.7a14.71 14.71 0 0 0 6.09-11.83c-0.12-2.06-0.93-3.56-2.16-4.2z" fill="#455a64"/><path d="m277 259.54-4.22-2.49c-1.23-0.64-2-2.09-2.14-4.19a13.2 13.2 0 0 1 1.29-5.94l4.3 2.53a13.2 13.2 0 0 0-1.29 5.94c0.06 2.05 0.88 3.49 2.06 4.15z" fill="#263238"/><path d="m281.77 258.89a14.71 14.71 0 0 0 6.09-11.83c-0.21-4.24-3.27-5.81-6.83-3.51a14.7 14.7 0 0 0-6.09 11.83c0.21 4.23 3.26 5.81 6.83 3.51z" fill="#37474f"/><path d="m278.78 258.59c-2.1 0.11-2.44-2.26-2.49-3.28a13.44 13.44 0 0 1 5.47-10.63 4.91 4.91 0 0 1 2.25-0.84c2.11-0.1 2.45 2.27 2.5 3.29a13.44 13.44 0 0 1-5.51 10.63 4.76 4.76 0 0 1-2.26 0.83z" fill="#263238"/><path d="m281.76 244.68a5 5 0 0 1 2-0.8 5.21 5.21 0 0 1 0.58 2.24 13.47 13.47 0 0 1-5.47 10.63 5 5 0 0 1-2 0.8 5.07 5.07 0 0 1-0.58-2.24 13.44 13.44 0 0 1 5.47-10.63z" fill="#6da5ea"/><path d="m161.35 418.56-6.35 3.68a2.54 2.54 0 0 1-2.31 0l-2-1.17a2 2 0 0 1-0.88-2l21.11-100.07a3.38 3.38 0 0 1 1.43-2l6.37-3.68a2.54 2.54 0 0 1 2.31 0l2 1.17a2 2 0 0 1 0.88 2l-21.12 100.1a3.42 3.42 0 0 1-1.44 1.97z" fill="#455a64"/><path d="m161.35 418.56-6.35 3.68c-0.63 0.37-1 0.08-0.88-0.64l21.16-100.15a3.39 3.39 0 0 1 1.43-2l6.37-3.68c0.64-0.37 1-0.08 0.88 0.64l-21.17 100.18a3.42 3.42 0 0 1-1.44 1.97z" fill="#263238"/><polygon points="201.82 437.57 157.84 412.18 159.73 403.24 164.07 400.74 204.27 423.95 206.16 435.07" fill="#37474f"/><polygon points="199.94 426.45 201.82 437.57 157.84 412.18 159.73 403.24" fill="#455a64"/><path d="m209.11 446.14-6.37 3.67a2.54 2.54 0 0 1-2.31 0l-2-1.17a3.22 3.22 0 0 1-1.38-2l-21.26-125.2a2 2 0 0 1 0.93-2l6.37-3.68a2.56 2.56 0 0 1 2.32 0l2 1.17a3.21 3.21 0 0 1 1.38 2l21.21 125.22a2.07 2.07 0 0 1-0.89 1.99z" fill="#37474f"/><path d="m175.76 321.46 0.8 4.73 20.44 120.46a3.21 3.21 0 0 0 1.37 2l2 1.18a2.63 2.63 0 0 0 2.32 0l6.36-3.68a2.08 2.08 0 0 0 0.94-2l-21.13-124.76-0.07-0.43a3.26 3.26 0 0 0-1.38-2l-2-1.17a2.56 2.56 0 0 0-2.32 0l-6.37 3.67a2.08 2.08 0 0 0-0.96 2z" fill="#37474f"/><path d="m188.78 319 21.22 125.15a2.07 2.07 0 0 1-0.93 2l-6.37 3.67a0.87 0.87 0 0 1-1.38-0.65l-21.22-125.17a2.07 2.07 0 0 1 0.93-2l6.37-3.67a0.87 0.87 0 0 1 1.38 0.67z" fill="#455a64"/><path d="m169.89 323.82 3.34 1.93a5 5 0 0 0 3.33 0.44 4 4 0 0 0 1.29-0.44l11-6.36-0.07-0.43a3.26 3.26 0 0 0-1.38-2l-2-1.17a2.56 2.56 0 0 0-2.32 0c0.16-0.72 0.64-1 0-1.34l-2-1.17a2.56 2.56 0 0 0-2.32 0l-6.41 3.72a3.35 3.35 0 0 0-1.43 2z" opacity=".15"/><path d="m166 316a1.63 1.63 0 0 1 0.95-1.36l12.74-7.35a5.11 5.11 0 0 1 4.63 0l6.24 3.6a1.64 1.64 0 0 1 1 1.32v2.9a1.62 1.62 0 0 1-1 1.34l-12.74 7.35a5.11 5.11 0 0 1-4.63 0l-6.24-3.6a1.6 1.6 0 0 1-0.95-1.32v-2.88z" fill="#37474f"/><path d="m166 316a1.63 1.63 0 0 1 0.95-1.36l8.56-4.94v14.66a4.74 4.74 0 0 1-2.32-0.56l-6.24-3.6a1.6 1.6 0 0 1-0.95-1.32v-2.88z" fill="#263238"/><path d="m177.85 320.93 12.74-7.35c1.27-0.74 1.27-1.93 0-2.67l-6.24-3.6a5.11 5.11 0 0 0-4.63 0l-12.72 7.35c-1.27 0.74-1.27 1.94 0 2.67l6.24 3.6a5.11 5.11 0 0 0 4.61 0z" fill="#455a64"/><path d="m185.84 300.52-4.3-2.53c-1.23-0.62-2.88-0.44-4.66 0.71a14.69 14.69 0 0 0-6.08 11.82c0.1 2.12 0.91 3.57 2.14 4.2l4.3 2.53c1.23 0.63 2.88 0.44 4.66-0.7a14.68 14.68 0 0 0 6.1-11.83c-0.12-2.11-0.93-3.56-2.16-4.2z" fill="#455a64"/><path d="m177.14 317.19-4.22-2.48c-1.23-0.64-2-2.09-2.14-4.19a13.32 13.32 0 0 1 1.28-5.94l4.31 2.53a13.2 13.2 0 0 0-1.29 5.94c0.09 2.05 0.92 3.48 2.06 4.14z" fill="#263238"/><path d="m181.9 316.55a14.68 14.68 0 0 0 6.1-11.83c-0.2-4.24-3.26-5.81-6.82-3.51a14.7 14.7 0 0 0-6.11 11.79c0.21 4.27 3.26 5.85 6.83 3.55z" fill="#37474f"/><path d="m178.91 316.25c-2.1 0.11-2.44-2.26-2.49-3.28a13.43 13.43 0 0 1 5.47-10.63 4.91 4.91 0 0 1 2.25-0.84c2.11-0.1 2.45 2.26 2.5 3.29a13.44 13.44 0 0 1-5.47 10.63 4.76 4.76 0 0 1-2.26 0.83z" fill="#263238"/><path d="m181.89 302.34a5 5 0 0 1 2-0.8 5.21 5.21 0 0 1 0.58 2.24 13.47 13.47 0 0 1-5.47 10.63 5 5 0 0 1-2 0.8 4.93 4.93 0 0 1-0.58-2.24 13.43 13.43 0 0 1 5.47-10.63z" fill="#6da5ea"/><polygon points="169 336.43 171.19 337.69 305.77 259.99 303.58 258.73" fill="#6da5ea"/><polygon points="169 336.43 171.19 337.69 305.77 259.99 303.58 258.73" fill="#fff" opacity=".4"/><polygon points="305.77 259.99 171.19 337.69 177.73 376.55 312.31 298.85" fill="#6da5ea"/><polygon points="171.19 337.69 169 336.43 175.54 375.29 177.73 376.55" fill="#37474f"/><polygon points="172.56 345.79 170.37 344.53 173.98 366.02 176.17 367.28" fill="#6da5ea"/><polyline points="170.37 344.53 173.98 366.02 176.17 367.28 172.56 345.79" opacity=".2"/><g fill="#37474f"><polygon points="171.19 337.69 183.54 330.56 177.73 376.55"/><polygon points="312.31 298.85 299.96 305.98 305.77 259.99"/><polygon points="186.96 371.21 200.32 363.51 206.14 317.51 192.77 325.22"/><polygon points="209.56 358.17 222.92 350.46 228.74 304.47 215.37 312.18"/><polygon points="232.16 345.12 245.52 337.41 251.34 291.42 237.97 299.13"/><polygon points="254.76 332.07 268.12 324.37 273.94 278.37 260.57 286.08"/><polygon points="277.36 319.03 290.73 311.32 296.54 265.33 283.17 273.04"/></g><g fill="#455a64"><polygon points="206.14 317.51 192.77 325.22 190.58 323.96 203.95 316.25"/><polygon points="228.74 304.47 215.37 312.18 213.18 310.91 226.55 303.2"/><polygon points="251.34 291.42 237.97 299.13 235.78 297.87 249.15 290.16"/><polygon points="273.94 278.37 260.57 286.08 258.38 284.82 271.75 277.11"/><polygon points="296.54 265.33 283.17 273.04 280.98 271.77 294.35 264.06"/><polygon points="183.54 330.56 171.19 337.69 169 336.43 181.35 329.3"/></g><polygon points="307.14 268.09 172.56 345.79 176.17 367.28 310.75 289.58" fill="#6da5ea"/><g fill="#fafafa"><path d="m194.26 351.84a0.3 0.3 0 0 1-0.29 0 0.34 0.34 0 0 1-0.16-0.26l-1.75-11.06a0.76 0.76 0 0 1 0.05-0.39 0.61 0.61 0 0 1 0.25-0.29l1.84-1.06a0.26 0.26 0 0 1 0.28 0 0.33 0.33 0 0 1 0.17 0.26l1.75 11.06a0.69 0.69 0 0 1-0.06 0.39 0.6 0.6 0 0 1-0.25 0.29z"/><path d="m205.51 345.34a0.46 0.46 0 0 1-0.41 0.07 0.88 0.88 0 0 1-0.23-0.13l-4.13-4 0.91 5.79a0.65 0.65 0 0 1-0.06 0.38 0.55 0.55 0 0 1-0.24 0.29l-1.84 1.07a0.28 0.28 0 0 1-0.28 0 0.33 0.33 0 0 1-0.17-0.26l-1.75-11.06a0.69 0.69 0 0 1 0.06-0.39 0.64 0.64 0 0 1 0.24-0.29l1.46-0.84a0.5 0.5 0 0 1 0.41-0.07 0.73 0.73 0 0 1 0.23 0.13l4.14 4-0.92-5.78a0.67 0.67 0 0 1 0.06-0.39 0.56 0.56 0 0 1 0.25-0.29l1.83-1.06a0.28 0.28 0 0 1 0.29 0 0.34 0.34 0 0 1 0.16 0.26l1.75 11.06a0.68 0.68 0 0 1-0.06 0.39 0.59 0.59 0 0 1-0.24 0.29z"/><path d="m216.17 326.11a5.78 5.78 0 0 1 1.65-0.68 2.31 2.31 0 0 1 1.34 0.05 2 2 0 0 1 1 0.81 4.06 4.06 0 0 1 0.55 1.58 6.24 6.24 0 0 1 0 1.93 5.21 5.21 0 0 1-0.58 1.69 6.09 6.09 0 0 1-1.13 1.51 7.62 7.62 0 0 1-1.57 1.19l-1.79 1 0.55 3.5a0.69 0.69 0 0 1-0.06 0.39 0.64 0.64 0 0 1-0.24 0.29l-1.84 1.06a0.28 0.28 0 0 1-0.29 0 0.31 0.31 0 0 1-0.16-0.26l-1.75-11.06a0.69 0.69 0 0 1 0.06-0.39 0.64 0.64 0 0 1 0.24-0.29zm-0.95 6.39 1.73-1a2.59 2.59 0 0 0 0.92-0.88 1.78 1.78 0 0 0 0.22-1.26c-0.07-0.48-0.26-0.75-0.55-0.81a1.44 1.44 0 0 0-1 0.24l-1.73 1z"/><path d="m226.27 320.28a6.24 6.24 0 0 1 1.7-0.72 2.57 2.57 0 0 1 1.35 0 1.87 1.87 0 0 1 1 0.77 4.12 4.12 0 0 1 0.55 1.58 5.75 5.75 0 0 1-0.1 2.39 5.38 5.38 0 0 1-1 2l2.38 3.07a0.38 0.38 0 0 1 0.08 0.17 0.58 0.58 0 0 1-0.05 0.31 0.54 0.54 0 0 1-0.2 0.24l-1.91 1.1c-0.19 0.11-0.33 0.13-0.42 0.08a0.8 0.8 0 0 1-0.24-0.2l-2.14-2.77-1.29 0.75 0.58 3.66a0.67 0.67 0 0 1-0.06 0.39 0.59 0.59 0 0 1-0.24 0.29l-1.84 1.06a0.28 0.28 0 0 1-0.29 0 0.37 0.37 0 0 1-0.16-0.26l-1.75-11.06a0.67 0.67 0 0 1 0.06-0.39 0.6 0.6 0 0 1 0.25-0.29zm-0.76 6.1 1.58-0.92a2.6 2.6 0 0 0 0.93-0.83 1.6 1.6 0 0 0 0.23-1.22c-0.07-0.48-0.25-0.74-0.54-0.77a1.74 1.74 0 0 0-1 0.29l-1.58 0.91z"/><path d="m232.92 321.31a7.49 7.49 0 0 1 0.06-2 7.28 7.28 0 0 1 0.62-2 7.53 7.53 0 0 1 1.19-1.77 7.13 7.13 0 0 1 1.77-1.42 4.9 4.9 0 0 1 1.88-0.68 2.67 2.67 0 0 1 1.51 0.21 2.55 2.55 0 0 1 1.09 1 4.7 4.7 0 0 1 0.63 1.6q0.14 0.72 0.27 1.53c0.08 0.54 0.16 1 0.21 1.52a7.55 7.55 0 0 1-0.06 2 7.28 7.28 0 0 1-0.62 2 7.39 7.39 0 0 1-1.19 1.78 7.74 7.74 0 0 1-1.77 1.41 5.06 5.06 0 0 1-1.88 0.69 2.76 2.76 0 0 1-1.51-0.21 2.62 2.62 0 0 1-1.08-1 4.56 4.56 0 0 1-0.63-1.61c-0.1-0.46-0.18-0.95-0.27-1.49s-0.14-1.05-0.22-1.56zm6.62-0.59c0-0.21 0-0.44-0.08-0.7s-0.06-0.51-0.1-0.78-0.09-0.51-0.14-0.75l-0.13-0.64a2.92 2.92 0 0 0-0.27-0.71 1.29 1.29 0 0 0-0.44-0.43 1 1 0 0 0-0.6-0.1 1.89 1.89 0 0 0-0.79 0.28 2.86 2.86 0 0 0-0.73 0.59 3 3 0 0 0-0.47 0.73 2.87 2.87 0 0 0-0.24 0.82 3.62 3.62 0 0 0 0 0.87 6 6 0 0 0 0.07 0.68c0 0.25 0.07 0.5 0.11 0.77s0.09 0.52 0.13 0.76 0.09 0.47 0.15 0.67a1.69 1.69 0 0 0 0.7 1.14 1.36 1.36 0 0 0 1.39-0.18 2.7 2.7 0 0 0 1.2-1.31 3.67 3.67 0 0 0 0.24-1.71z"/><path d="m247.73 310.69a2.58 2.58 0 0 0-0.77 0.63 2.61 2.61 0 0 0-0.46 0.74 2.48 2.48 0 0 0-0.2 0.8 4.72 4.72 0 0 0 0 0.84 4.34 4.34 0 0 0 0.06 0.63l0.12 0.82c0 0.28 0.09 0.55 0.15 0.81s0.09 0.47 0.12 0.61a2.75 2.75 0 0 0 0.26 0.68 1.1 1.1 0 0 0 0.4 0.45 0.94 0.94 0 0 0 0.61 0.13 1.85 1.85 0 0 0 0.81-0.29 3.34 3.34 0 0 0 0.67-0.5 2.44 2.44 0 0 0 0.51-0.65 2.54 2.54 0 0 0 0.29-0.8 3 3 0 0 0 0-0.95l-1.18 0.68a0.26 0.26 0 0 1-0.28 0 0.32 0.32 0 0 1-0.17-0.26l-0.29-1.81a0.67 0.67 0 0 1 0.06-0.39 0.66 0.66 0 0 1 0.25-0.29l3.39-2a0.28 0.28 0 0 1 0.29 0 0.34 0.34 0 0 1 0.16 0.26l0.35 2.19a6.08 6.08 0 0 1 0 2.17 7 7 0 0 1-0.69 2 7.58 7.58 0 0 1-2.89 3 4.85 4.85 0 0 1-1.86 0.67 2.76 2.76 0 0 1-1.51-0.22 2.71 2.71 0 0 1-1.1-1 4.7 4.7 0 0 1-0.63-1.6c-0.09-0.45-0.18-0.95-0.26-1.49s-0.16-1.05-0.22-1.55a7 7 0 0 1 0.05-2 7.67 7.67 0 0 1 0.63-2 7.39 7.39 0 0 1 1.2-1.79 7.08 7.08 0 0 1 1.74-1.41 5 5 0 0 1 1.82-0.67 3.5 3.5 0 0 1 1.48 0.12 2.53 2.53 0 0 1 1 0.69 2.31 2.31 0 0 1 0.53 1 0.46 0.46 0 0 1 0 0.32 0.5 0.5 0 0 1-0.21 0.24l-1.86 1.07a0.35 0.35 0 0 1-0.36 0l-0.28-0.17a1.21 1.21 0 0 0-0.62-0.26 1.81 1.81 0 0 0-1.11 0.55z"/><path d="m258.14 301.88a6.32 6.32 0 0 1 1.69-0.72 2.5 2.5 0 0 1 1.36 0 1.86 1.86 0 0 1 1 0.77 3.85 3.85 0 0 1 0.54 1.58 5.33 5.33 0 0 1-1.12 4.38l2.39 3.11a0.41 0.41 0 0 1 0.07 0.17 0.53 0.53 0 0 1-0.05 0.32 0.42 0.42 0 0 1-0.2 0.23l-1.9 1.1c-0.19 0.11-0.33 0.14-0.42 0.08a0.8 0.8 0 0 1-0.24-0.2l-2.14-2.77-1.29 0.75 0.58 3.66a0.67 0.67 0 0 1-0.06 0.39 0.59 0.59 0 0 1-0.24 0.29l-1.84 1.06a0.28 0.28 0 0 1-0.29 0 0.32 0.32 0 0 1-0.16-0.26l-1.82-11.07a0.68 0.68 0 0 1 0.06-0.39 0.64 0.64 0 0 1 0.24-0.29zm-0.76 6.1 1.58-0.91a2.92 2.92 0 0 0 0.93-0.84 1.6 1.6 0 0 0 0.23-1.22c-0.08-0.48-0.26-0.73-0.54-0.77a1.7 1.7 0 0 0-1 0.29l-1.58 0.92z"/><path d="m272.89 303.45a0.3 0.3 0 0 1 0.29 0 0.34 0.34 0 0 1 0.16 0.26l0.29 1.82a0.67 0.67 0 0 1-0.06 0.39 0.56 0.56 0 0 1-0.25 0.29l-6.64 3.79a0.3 0.3 0 0 1-0.29 0 0.32 0.32 0 0 1-0.16-0.26l-1.75-11.06a0.69 0.69 0 0 1 0.06-0.39 0.64 0.64 0 0 1 0.24-0.29l6.53-3.77a0.3 0.3 0 0 1 0.29 0 0.38 0.38 0 0 1 0.17 0.27l0.28 1.81a0.67 0.67 0 0 1-0.06 0.39 0.64 0.64 0 0 1-0.24 0.29l-4.32 2.49 0.29 1.85 4-2.31a0.28 0.28 0 0 1 0.29 0 0.34 0.34 0 0 1 0.16 0.26l0.29 1.82a0.69 0.69 0 0 1-0.06 0.39 0.64 0.64 0 0 1-0.24 0.29l-4 2.31 0.3 1.92z"/><path d="m277.73 290.38a4.85 4.85 0 0 1 1.7-0.64 3.47 3.47 0 0 1 1.42 0.07 2.25 2.25 0 0 1 1 0.6 1.88 1.88 0 0 1 0.51 1 0.6 0.6 0 0 1-0.05 0.32 0.45 0.45 0 0 1-0.19 0.23l-1.8 1.04a0.6 0.6 0 0 1-0.61 0l-0.16-0.1a0.89 0.89 0 0 0-0.3-0.09 1.18 1.18 0 0 0-0.45 0 2 2 0 0 0-0.63 0.26 3.48 3.48 0 0 0-0.51 0.34 2.52 2.52 0 0 0-0.41 0.38 1.5 1.5 0 0 0-0.27 0.45 0.91 0.91 0 0 0-0.05 0.49 0.51 0.51 0 0 0 0.2 0.36 0.83 0.83 0 0 0 0.5 0.05 4.55 4.55 0 0 0 0.88-0.2c0.36-0.1 0.81-0.24 1.34-0.42a5.68 5.68 0 0 1 1.42-0.29 2.18 2.18 0 0 1 1.08 0.17 1.59 1.59 0 0 1 0.73 0.7 3.57 3.57 0 0 1 0.41 1.28 4.31 4.31 0 0 1-0.07 1.75 5.78 5.78 0 0 1-0.72 1.69 7.53 7.53 0 0 1-1.26 1.54 8.51 8.51 0 0 1-1.69 1.25 5.51 5.51 0 0 1-1.78 0.7 3.31 3.31 0 0 1-1.48 0 2.26 2.26 0 0 1-1.07-0.63 2.13 2.13 0 0 1-0.54-1.09 0.61 0.61 0 0 1 0.23-0.54l1.89-1.05a0.67 0.67 0 0 1 0.32-0.12 0.59 0.59 0 0 1 0.25 0.05l0.2 0.12a1.27 1.27 0 0 0 0.35 0.15 1.51 1.51 0 0 0 0.52 0 2.11 2.11 0 0 0 0.73-0.28 5.25 5.25 0 0 0 1.21-0.92 1.17 1.17 0 0 0 0.39-1 0.37 0.37 0 0 0-0.26-0.32 1.43 1.43 0 0 0-0.59 0 6.62 6.62 0 0 0-1 0.26l-1.39 0.43a2.85 2.85 0 0 1-2.31 0 2.68 2.68 0 0 1-1-2 4.41 4.41 0 0 1 0-1.57 5.9 5.9 0 0 1 0.61-1.63 6.8 6.8 0 0 1 1.12-1.54 7.32 7.32 0 0 1 1.58-1.25z"/><path d="m287.88 284.52a5 5 0 0 1 1.69-0.63 3.36 3.36 0 0 1 1.43 0.11 2.25 2.25 0 0 1 1 0.6 1.79 1.79 0 0 1 0.5 1 0.52 0.52 0 0 1 0 0.32 0.49 0.49 0 0 1-0.18 0.23l-1.84 1.06a0.64 0.64 0 0 1-0.32 0.11 0.74 0.74 0 0 1-0.28-0.06l-0.16-0.09a0.76 0.76 0 0 0-0.3-0.1 1.23 1.23 0 0 0-0.46 0 2.15 2.15 0 0 0-0.63 0.26 5.5 5.5 0 0 0-0.5 0.34 2.52 2.52 0 0 0-0.41 0.38 1.5 1.5 0 0 0-0.27 0.45 0.94 0.94 0 0 0-0.05 0.5 0.47 0.47 0 0 0 0.2 0.35 0.83 0.83 0 0 0 0.5 0.05 5.18 5.18 0 0 0 0.87-0.19l1.35-0.42a6.14 6.14 0 0 1 1.42-0.3 2.14 2.14 0 0 1 1.07 0.17 1.66 1.66 0 0 1 0.74 0.7 3.57 3.57 0 0 1 0.41 1.28 4.48 4.48 0 0 1-0.07 1.75 6.37 6.37 0 0 1-0.72 1.69 7.88 7.88 0 0 1-1.26 1.54 9 9 0 0 1-1.69 1.26 5.66 5.66 0 0 1-1.79 0.69 3.32 3.32 0 0 1-1.48 0 2.33 2.33 0 0 1-1.07-0.62 2.16 2.16 0 0 1-0.54-1.1 0.58 0.58 0 0 1 0.05-0.31 0.45 0.45 0 0 1 0.19-0.23l1.83-1.06a0.71 0.71 0 0 1 0.32-0.12 0.56 0.56 0 0 1 0.25 0.05 1.53 1.53 0 0 1 0.21 0.13 1.25 1.25 0 0 0 0.87 0.15 2.39 2.39 0 0 0 0.73-0.29 5.48 5.48 0 0 0 1.21-0.92 1.12 1.12 0 0 0 0.38-1 0.37 0.37 0 0 0-0.25-0.33 1.48 1.48 0 0 0-0.6 0 8.09 8.09 0 0 0-1 0.26l-1.39 0.43a2.85 2.85 0 0 1-2.31 0 2.63 2.63 0 0 1-1-2 4.35 4.35 0 0 1 0.05-1.56 5.92 5.92 0 0 1 0.6-1.64 7.42 7.42 0 0 1 1.13-1.54 7.09 7.09 0 0 1 1.57-1.35z"/></g><path d="m454.44 249.41a5.07 5.07 0 0 1 1.39-0.76 12.5 12.5 0 0 1 2.71-0.9 4.17 4.17 0 0 1 2.78 0.4c1.25 0.74 1.81 2.23 2.24 3.62 0.64 2.07 1.2 4.16 2 6.17a32 32 0 0 0 5 7.85 13.89 13.89 0 0 1 1.65 11.69 5.93 5.93 0 0 1-4.56 4.35l-3.13-7q-3.24-7.24-6.47-14.5-1.24-2.81-2.5-5.61c-0.36-0.81-0.72-1.63-1.09-2.44-0.45-1-1.19-1.79-0.15-2.75z" fill="#37474f"/><path d="m453.8 248.22 0.21-0.05c1.78-0.48 3.63-1.26 5.35-0.19a6 6 0 0 1 2.31 3 21.79 21.79 0 0 1 0.94 3.74 22.57 22.57 0 0 0 1 3.41 13.88 13.88 0 0 0 1.71 2.86c0.94 1.43 3.48 4.34 4.3 5.85a13.86 13.86 0 0 1 1.35 3.88 13.1 13.1 0 0 1 0.23 4.5c-0.35 2.32-1.69 5.56-3.74 6.73a4.26 4.26 0 0 1-6.32-2.14c-0.37-0.89-0.74-1.78-1.06-2.7a24.55 24.55 0 0 0-2.44-5 29.86 29.86 0 0 0-4.57-5.41c-0.19-0.17-0.38-0.37-0.57-0.52-2.19-1.7-4.47-3.23-4.62-4.18-0.12-0.79 0.93-8.76-0.65-10.82a1.23 1.23 0 0 1-0.17-0.86c0.08-0.43 0.09-0.37 0.58-0.51l2.16-0.58z" fill="#455a64"/><path d="m364.33 180.65c-2.35 13.39-3.13 17.08-5.12 25a371 371 0 0 0-6.47 41.37c-0.34 3.51 3 11.95 4.41 15.16 8.42 18.72 22.25 48.6 22.25 48.6a16.31 16.31 0 0 1 1.46 8.08 43.42 43.42 0 0 1-2.92 12.1 34.13 34.13 0 0 1-1.74 4c-1.52 3.86 0.92 4.4 4.66 2.51 3.94-2 6.29-6.4 7.24-9.55 1.41-4.7 4.2-12.13 3.95-14.47l-0.09-0.26-0.82-4.61s-3.78-14.17-6.95-30.47c-2.83-14.49-4.31-19.24-11.5-29.44l23.82-57.41z" fill="#ffa8a7"/><path d="m397.37 316.67a4.91 4.91 0 0 1 1 2.71c-0.5 3.44-4.08 6-5.45 8.21s-2.67 7-3.5 9.81a9.09 9.09 0 0 1-0.74 1.77 16.14 16.14 0 0 1-0.75 1.5 9.48 9.48 0 0 1-3.26 2.44 16.37 16.37 0 0 1-7.93 1.77 9.4 9.4 0 0 1-5.82-1.77 2.44 2.44 0 0 1-1.08-2.24c0.2-0.93 1.19-1.42 2.08-1.77 1.86-0.72 3.76-1.35 5.58-2.17a17.32 17.32 0 0 0 4.21-2.58 24.8 24.8 0 0 0 3.1-3.52c2-2.5 4-5 6.09-7.45 0.41-0.47 5.9-7.25 6.47-6.71z" fill="#37474f"/><path d="m394.46 311.15c1.22 1.68 4 4.23 2.94 7.32-0.95 2.68-3.52 5.31-5.21 7.48a13.64 13.64 0 0 0-1.75 3.87c-0.86 2.23-1.34 4.6-2.21 6.83-1.09 2.74-4.09 4.51-6.84 5.27a19.71 19.71 0 0 1-8.41 0.25 4.8 4.8 0 0 1-3-1.3 3.3 3.3 0 0 1-0.52-3.09 7.22 7.22 0 0 1 1.75-2.73c1.17-1.26 2.54-2.33 3.74-3.56 2.21-2.27 2.91-5 3.69-8 0.54-2.1 1.34-5.12 1-6.48a7.24 7.24 0 0 1-0.41-2.07 1.3 1.3 0 0 1 0.76-1 6.92 6.92 0 0 1 3.34-0.45c1 0 2 0.24 3 0.29a5 5 0 0 0 4.9-5.21l-0.31-0.95c0.9-0.83 2.16 1.64 3.54 3.53z" fill="#455a64"/><path d="m451.21 255.63c-0.75-3.94-2.47-4.51-2.47-4.51l-12.55 0.24v0.28l-0.22 12.7 13.14-2.34a7 7 0 0 0 2.1-6.37z" fill="#ffa8a7"/><path d="m436.54 250.81-29.21 0.3s5.31-39.19 3.55-62.13l-26.08-3-20.28-6.66c-2.39 7.24-9.44 43.36-9.44 43.36-1.37 10.18-2.27 14.56-3 22.37s1.23 10.66 5.22 19.28 19.89 41.79 19.89 41.79 2 1.6 6.44-0.32a11 11 0 0 0 5.72-5s-4.75-22.18-6.43-31.56-7.22-18.56-9.54-20.59l10.38-25c0.66 10.16 1.33 28.45 3.49 38.89 1.43 6.93 5.54 10.94 13.12 9.73 10.56-1.68 38.46-7.94 38.46-7.94 5.63-0.77 4.23-11.24-2.29-13.52z" fill="#37474f"/><path d="m407.33 251.11s0.4 5.29-1.86 9.24a14.67 14.67 0 0 0 3.63-5.35c1.2-3.27 10.57-2.49 17.57-4.05z" fill="#263238"/><path d="m383.73 223.76-0.74-14a38.27 38.27 0 0 1-10.53-8.85 40.55 40.55 0 0 0 8.35 9.55l0.92 13-8.32 25.18z" fill="#263238"/><path d="m346.69 55.65a36.13 36.13 0 0 1 0.28-5.4c0.45-3.24 1.57-7.67 5.08-8.81a5.54 5.54 0 0 0 1.9-0.69c0.57-0.46 0.79-1.28 1.4-1.69 0.95-0.63 2.27 0 3.33-0.35h0.12a3.45 3.45 0 0 0 1.59-2.09q0.94-2.27 1.87-4.53l0.93-2.26c0.19-0.47 0.27-1.28 0.73-1.57a0.93 0.93 0 0 1 0.87 0 2.74 2.74 0 0 1 1.21 2.34 16.56 16.56 0 0 1-1.28 6.5 58.36 58.36 0 0 0-2 7.21c-0.14 0.64-0.62 2.94 0.5 2.77a4.39 4.39 0 0 0 2.22-1.44 5.89 5.89 0 0 1 2.15-1.28c0.8-0.27 2.65-0.22 2.12 1.1a2.6 2.6 0 0 1-0.49 0.73c-1.05 1.24-2 2.52-3.09 3.73-0.53 0.6-1.08 1.19-1.65 1.76q-0.45 0.45-0.9 0.87c-0.21 0.19-0.78 0.53-0.87 0.78a15.12 15.12 0 0 0-2.18 2.27c-1.12 1.41-1.21 3-1.42 5-0.08 0.77-0.29 3.74-0.29 3.74-0.51 6.89 0.38 28.39 0.64 30.24a7.64 7.64 0 0 0 0.91 2.87c2.06 3.48 14.3 24.75 14.3 24.75s8.08 14.26-4.05 19.44c-4.28-6.29-21.72-31.29-23.59-34.8a21 21 0 0 1-2.72-9.75c-0.23-12.21 2.4-39.38 2.38-41.44z" fill="#ffa8a7"/><path d="m359.47 40.11c1.23 1.18 2.06 2.63 1.94 3.78a34.73 34.73 0 0 1-1.22 5.22c-0.3 0.72-0.93 1.65-2 1.37a2.19 2.19 0 0 1-2.23 0.85 2.38 2.38 0 0 1-2.35 0.87 2.2 2.2 0 0 1-2 0.66 2.05 2.05 0 0 0 2.25-0.15 2.08 2.08 0 0 0 2.27-0.86 2.12 2.12 0 0 0 2.21-0.69 2.08 2.08 0 0 0 2.22-1.09 16.49 16.49 0 0 0 1.39-5c0.26-1.48 0.61-3.07-2.48-4.96z" fill="#f28f8f"/><path d="m354.41 119.41c3.86 5.24 11.33 16.05 13.26 22.08 1.62 3.39 5.92 0.52 7.78-6.59 2.59-9.91 10.36-14.9 6.94-15.41-4.21-0.62-16.4-15-16.4-15-2.36-3-6.05-9-6.05-9l-1.22-22.2s-5.72 2.65-13.25-1.35c0 0-1.23 8.45-1.78 18.19s-0.42 12.24 1.61 15.78a145.71 145.71 0 0 0 9.11 13.5z" fill="#6da5ea"/><path d="m418.36 137.69-6.1 29.75-0.75 25.88c-13.83 6.47-35.55 4.24-49.45-6.94 0 0 2.1-45.55 5-55.64s8-12.16 15.14-11.93c7.55 0.23 17.25 1.3 17.25 1.3l13.33 2.61s5.75 11.38 5.58 14.97z" fill="#455a64"/><path d="m445.6 166.35s-1.69 13.12-3.37 19.43c-1.17 4.38-3.92 13.59-6.77 17.44-7.08 9.55-13.59 5.39-15.22 4.18-1.87-1.4-2-3.36 2.33-8.17a21.49 21.49 0 0 0 2.54-3.53c0.37-0.63 1.73-2.39 0.43-2.71a2.15 2.15 0 0 0-1.19 0.16l-2.73 0.91a3.67 3.67 0 0 1-1.84 0.28 1.28 1.28 0 0 1-1.12-1.28c0.07-0.55 0.58-0.91 1-1.2q4.23-2.61 8.66-4.88c0.6-0.31 1.75-0.58 2.09-1.17a4.51 4.51 0 0 0 0.38-1.16c0.12-0.8 0.22-1.6 0.32-2.41 0.25-2.17 0.48-4.35 0.69-6.52 0.3-3 0.37-9 0.63-12l-17.87-20.16s-4.52-5.85-4.52-21.39a25.52 25.52 0 0 1 8.88 2.15c5.14 2.4 22.2 28 24.44 30.52s3.09 4.1 2.24 11.51z" fill="#ffa8a7"/><path d="m408.92 122c1.17 0.23 5.68 0 8.67 1.29s5.31 2.93 9.12 8.06 16 21.35 17.85 23.84 2.49 3.68 1.86 8.6-2.95 16.3-2.95 16.3a24.06 24.06 0 0 1-11.85-2l0.2-14.19-19.07-20.92s-6.06-7.98-3.83-20.98z" fill="#6da5ea"/><g fill="#263238"><path d="m397.2 88a12.93 12.93 0 1 1-12.31-13.52 12.94 12.94 0 0 1 12.31 13.52z"/><path d="m406.18 97.59s-2.56 9.74-3.47 11.32a4.43 4.43 0 0 1-2.67 2l0.47-6.91z"/><path d="m404.22 83.38a4.87 4.87 0 0 1 3.95 1.6c1.64 1.84 0.41 7.31-2 12.61l-4 0.27z"/></g><path d="m401 97.81c0.77 0.51 2-1 3-1.93s4.27-2.22 5.7 1.2-1.78 7.85-4.32 8.52c-4.38 1.15-4.9-1.65-4.9-1.65l-1.08 16c-5.69 6.63-20.72 6.62-14.17-0.28l0.39-6a27.07 27.07 0 0 1-5.84 0 7.75 7.75 0 0 1-6.17-6.59c-1-6.21-1-10.16 0.49-21 1.65-11.89 15.86-11.31 23.11-6.25s3.79 17.98 3.79 17.98z" fill="#ffa8a7"/><path d="m401 99.14c0.4 0 2-2.41 3.06-3.26 1.42-1.18 0.19-12.5 0.19-12.5a5.45 5.45 0 0 0-0.65-6.11 10.9 10.9 0 0 0-6.87-4c-4.16-0.71-8.43-0.48-12.29-2.5a12.09 12.09 0 0 0-2.33-1.1 2.82 2.82 0 0 0-2.47 0.3 2.68 2.68 0 0 0-1 2.14 7.75 7.75 0 0 0 0.44 2.37 9.46 9.46 0 0 0-3.31-0.09 3.2 3.2 0 0 0-2.49 2 4.78 4.78 0 0 0 0.6 3.37c1.45 3.22 5.4 3.9 8.55 4.44a74.82 74.82 0 0 0 14 0.39c1.47-0.13 1.72 1.31 2.33 5.23 0.57 3.42 0.88 9.23 2.24 9.32z" fill="#263238"/><path d="m404.17 84.25 4.9-2.34a2.64 2.64 0 0 0-3.56-1.37 2.87 2.87 0 0 0-1.34 3.71z" fill="#263238"/><path d="m385.65 113.7s7.15-1.09 9.7-2.3a8.09 8.09 0 0 0 3.58-3.22 11.1 11.1 0 0 1-2.13 3.9c-1.93 2.24-11.28 3.54-11.28 3.54z" fill="#f28f8f"/><path d="m388.22 95.43a1.45 1.45 0 0 0 1.35 1.57 1.48 1.48 0 1 0-1.35-1.54z" fill="#263238"/><path d="m390 90.13 3 1.83a1.83 1.83 0 0 0-0.6-2.46 1.69 1.69 0 0 0-2.4 0.63z" fill="#263238"/><path d="m387.86 104.34-4.49 1.45a2.32 2.32 0 0 0 2.93 1.6 2.49 2.49 0 0 0 1.56-3.05z" fill="#f28f8f"/><path d="m375.74 90.65 2.87-2a1.68 1.68 0 0 0-2.39-0.48 1.84 1.84 0 0 0-0.48 2.48z" fill="#263238"/><path d="m376.42 94.47a1.45 1.45 0 0 0 1.35 1.53 1.48 1.48 0 1 0-1.35-1.54z" fill="#263238"/><polygon points="378.46 100.25 383.72 93.46 382.85 101.98" fill="#f28f8f"/></g></svg>
