<svg width="400" height="400" version="1.1" viewBox="0 0 400 400" xmlns="http://www.w3.org/2000/svg"><g transform="matrix(.89524 0 0 .89524 -26.68 -12.007)"><path d="m74.3 363.6 154.41 89.15a15.06 15.06 0 0 0 13.65 0l228.86-132.13c3.77-2.17 3.77-5.7 0-7.88l-154.42-89.15a15.1 15.1 0 0 0-13.64 0l-228.86 132.13c-3.77 2.18-3.77 5.7 0 7.88z" fill="#e0e0e0"/><path d="m475.87 197.5c-1.95-5-8.63-8.71-13.47-11-18.77-8.71-23.52-9.07-40.68-16.3a6 6 0 0 1-3-2.13c-2.11-3.55 3.42-3.32 5.23-3.26 3.67 0.11 7.31 0.71 11 1.06 6.55 0.63 16.49 3.69 23.35-2.28 1.44-1.25 3.11-3.88-0.84-5.6-11.23-4.87-16.71-8.32-28.49-11.64-10.68-3-28.58-3.55-39.71-4.78-7.81-0.86-13.54-4.53-18.78-7.28-15.7-8.26-25-14-55.49-31.87-4.15-2.21-9.49-1.9-15.31 1.47-13.24 7.64-24 28.14-24 45.79 0 10.69 3.94 17.87 10 20.18 36.09 13.91 54.56 21.23 66.36 31 6 5 12.61 11 20.12 15.92 10.12 6.66 14.74 8.39 25.32 11.44a142.2 142.2 0 0 0 28 5.14c12.66 1.13 14-4 14.72-7.21l7.37 0.37c7.39 0.3 9.27-1.85 10.39-5.88a26.84 26.84 0 0 0 6 1.46c4.75 0.71 9.2-1.89 9.37-6.74a11.76 11.76 0 0 0-2.48-7.93 7.66 7.66 0 0 0 1.87-0.47c4.28-1.75 4.51-5.96 3.15-9.46z" fill="#ffbda7"/><g fill="#f0997a"><path d="m411.26 172.84c-11 6.91-25.05 6.77-37.64 2.19 13.31 9.9 31.13 6.21 37.64-2.19z"/><path d="m388.79 202.5a218.21 218.21 0 0 0 26.81 10.69c4.58 1.48 9.2 2.72 13.85 4.21 3.43 1.22 7.28 2.37 9.81 5.21a4 4 0 0 1 0.86 3.57 3.74 3.74 0 0 0-1.41-3.05c-4.88-3.41-11.25-3.74-16.88-5.44-11.77-3.08-23.27-7.91-33-15.19z"/><path d="m470.76 207.46c-8.53-6.24-19-8.57-28.82-11.94s-20.2-6.4-29.37-11.7c10 3.39 20.13 6 30.16 9.25 9.79 3.43 20.79 6.48 28 14.39z"/><path d="m457.88 220.67c0.37-8.59-11.14-10.4-17.56-12.11a207.27 207.27 0 0 1-22.95-7.15 94.27 94.27 0 0 1-14.47-6.94q7.55 2.72 15.12 5.06c5.08 1.54 10.16 3 15.28 4.46 7.46 2.53 16.38 3.27 22.34 9.09 1.9 1.93 3.26 4.94 2.24 7.59z"/></g><path d="m83.33 352.25c0 3.61 2.69 8.08 6 10l140.94 81.38a13.3 13.3 0 0 0 12 0l219.92-126.94c3.33-1.92 6-6.39 6-10s-2.69-8.08-6-10l-140.94-81.37a13.3 13.3 0 0 0-12 0l-219.9 126.94c-3.35 1.92-6.03 6.39-6.02 9.99z" fill="#37474f"/><path d="m89.35 349.21 140.94 81.38a13.3 13.3 0 0 0 12 0l219.9-126.94c3.33-1.92 3.33-5 0-6.95l-140.94-81.38a13.3 13.3 0 0 0-12 0l-219.9 126.94c-3.35 1.92-3.35 5.03 0 6.95z" fill="#455a64"/><path d="m236.31 432v13a12.29 12.29 0 0 1-6-1.44l-140.97-81.31c-3.32-1.92-6-6.39-6-10 0-3.37 2.38-7.52 5.41-9.6-2.7 1.93-2.49 4.77 0.61 6.56l141 81.38a12.3 12.3 0 0 0 5.95 1.41z" fill="#263238"/><path d="m311.59 24.55c-2.82-2.25-7.66-2.23-11-0.31l-219.84 126.94a13.29 13.29 0 0 0-6 10.42v172.19c0 3.84 2.39 8.06 5.75 9.35 3.56 1.37 5.57 1 8.89-0.92l219.82-126.9a13.32 13.32 0 0 0 6-10.43v-172.18c0.02-3.84-0.68-5.81-3.62-8.16z" fill="#37474f"/><path d="m315.23 32.7c0-3.83-2.7-5.38-6-3.47l-219.89 126.94a12.23 12.23 0 0 0-4.25 4.5l-8.59-5a12.34 12.34 0 0 1 4.26-4.5l219.84-126.93c3.33-1.92 8.18-2 11 0.31 2.94 2.39 3.63 4.32 3.63 8.15z" fill="#455a64"/><path d="m83.35 338.77v-172.18a12.27 12.27 0 0 1 1.77-5.92l-8.6-5a12.19 12.19 0 0 0-1.76 5.92v172.22c0 3.84 2.39 8.06 5.75 9.35 3.55 1.37 5.57 1 8.89-0.92-3.35 1.92-6.05 0.36-6.05-3.47z" fill="#263238"/><path d="m92.58 163.11 211.59-122.11c2-1.15 3.61-0.22 3.61 2.09v160.11a8 8 0 0 1-3.61 6.26l-211.59 122.12c-2 1.15-3.61 0.22-3.61-2.08v-160.13a8 8 0 0 1 3.61-6.26z"/><path d="m92.58 163.11a8 8 0 0 0-3.58 6.26v157.33l209.13-120.7a8 8 0 0 0 3.62-6.26v-157.35z" fill="#fff"/><path d="m107.94 343.28 202.06-116.65a6.23 6.23 0 0 1 5.67 0l7.36 4.13c1.57 0.9 1.57 2.37 0 3.28l-202.03 116.63a6.31 6.31 0 0 1-5.68 0l-7.33-4.11c-1.62-0.91-1.62-2.38-0.05-3.28z" fill="#263238"/><path d="m127.78 355 202-116.65a5.81 5.81 0 0 1 5.19-0.28l52.59 30.36c1.3 0.75 1.08 2.09-0.49 3l-201.77 116.47a5.84 5.84 0 0 1-5.19 0.29l-52.81-30.19c-1.3-0.78-1.08-2.11 0.48-3z" fill="#263238"/><path d="m302.85 287.33 6.33-3.66c0.27-0.15 0.29-0.39 0.06-0.53l-6.06-3.49a1 1 0 0 0-0.92 0l-6.32 3.65c-0.27 0.16-0.29 0.4-0.06 0.53l6.06 3.5a1 1 0 0 0 0.91 0zm-9.23-12.64-6.33 3.65c-0.27 0.16-0.29 0.39-0.05 0.53l6.05 3.5a1.06 1.06 0 0 0 0.92 0l6.33-3.66c0.26-0.15 0.29-0.39 0-0.53l-6-3.49a1 1 0 0 0-0.92 0zm-20.44 11.8-10.7 6.18c-0.27 0.15-0.3 0.39-0.06 0.53l6.05 3.49a1 1 0 0 0 0.92 0l10.71-6.18c0.27-0.15 0.29-0.39 0-0.53l-6-3.49a1 1 0 0 0-0.92 0zm11.19-6.49-6.32 3.65c-0.27 0.15-0.3 0.39-0.06 0.53l6.06 3.49a1 1 0 0 0 0.91 0l6.33-3.65c0.27-0.16 0.29-0.39 0-0.53l-6-3.49a1 1 0 0 0-0.92 0zm-24.81 14.32-6.33 3.68c-0.27 0.15-0.29 0.39 0 0.53l6.05 3.49a1 1 0 0 0 0.92 0l6.32-3.65c0.27-0.16 0.3-0.39 0.06-0.53l-6.06-3.5a1 1 0 0 0-0.96 0.01zm-9.25 5.34-6.31 3.69c-0.26 0.15-0.29 0.39 0 0.53l6 3.49a1 1 0 0 0 0.92 0l6.33-3.65c0.27-0.16 0.29-0.4 0-0.53l-6-3.5a1 1 0 0 0-0.94 0zm23.69 14.34 6.33-3.65c0.27-0.16 0.29-0.39 0.05-0.53l-6.05-3.5a1 1 0 0 0-0.92 0l-6.29 3.68c-0.27 0.15-0.3 0.39-0.06 0.53l6.05 3.49a1 1 0 0 0 0.89-0.02zm-9.24 5.34 6.32-3.65c0.27-0.16 0.3-0.4 0.06-0.53l-6.06-3.5a1 1 0 0 0-0.91 0l-6.33 3.66c-0.27 0.15-0.29 0.39-0.05 0.53l6.05 3.49a1 1 0 0 0 0.95-0.05zm-9.25 5.34 6.33-3.66c0.27-0.15 0.29-0.39 0.05-0.53l-6.02-3.49a1 1 0 0 0-0.92 0l-6.33 3.65c-0.27 0.16-0.29 0.4-0.05 0.53l6.05 3.5a1 1 0 0 0 0.92-0.05zm-9.22 5.32 6.33-3.65c0.27-0.15 0.29-0.39 0.06-0.53l-6.06-3.49a1 1 0 0 0-0.92 0l-6.32 3.67c-0.27 0.16-0.29 0.39-0.06 0.53l6.06 3.5a1 1 0 0 0 0.91-0.03zm47.32-37.3 6.33-3.65c0.26-0.15 0.29-0.39 0.05-0.53l-6.05-3.52a1 1 0 0 0-0.92 0l-6.33 3.65c-0.27 0.16-0.29 0.39-0.05 0.53l6.05 3.5a1 1 0 0 0 0.92-0.02zm-10.33 15.95 14.11-8.14c0.27-0.16 0.29-0.4 0.05-0.54l-14.69-8.48a1 1 0 0 0-0.92 0l-7.3 4.21c-0.27 0.16-0.3 0.4-0.06 0.54l7.78 4.49c0.24 0.13 0.22 0.37-0.05 0.53l-5.84 3.37c-0.27 0.15-0.29 0.39-0.05 0.53l6.05 3.49a1 1 0 0 0 0.92-0.04zm-42.21-3.65-6.33 3.65c-0.27 0.16-0.29 0.4-0.06 0.53l6.06 3.5a1 1 0 0 0 0.92 0l6.34-3.68c0.27-0.15 0.29-0.39 0.06-0.53l-6.06-3.47a1 1 0 0 0-0.93 0zm-9.25 5.34-6.33 3.66c-0.27 0.16-0.29 0.39-0.05 0.53l6.05 3.5a1 1 0 0 0 0.92 0l6.33-3.65c0.26-0.15 0.29-0.39 0-0.53l-6-3.49a1 1 0 0 0-0.92 0.01zm-51.16 57a1 1 0 0 0 0.92 0l6.32-3.65c0.27-0.16 0.29-0.4 0.06-0.53l-6.06-3.5a1 1 0 0 0-0.91 0l-6.33 3.66c-0.27 0.15-0.29 0.39-0.06 0.53zm-22.81-14.29-6.32 3.65c-0.27 0.16-0.29 0.4-0.06 0.54l6.06 3.49a1 1 0 0 0 0.91 0l6.33-3.65c0.27-0.16 0.29-0.4 0-0.53l-6-3.5a1 1 0 0 0-0.92 0.02zm11.73 10.7a1 1 0 0 0 0.92 0l6.32-3.65c0.27-0.15 0.3-0.39 0.06-0.53l-6-3.49a1 1 0 0 0-0.92 0l-6.33 3.65c-0.27 0.16-0.29 0.39-0.05 0.53zm25.51 5.74 6.32-3.65c0.27-0.16 0.3-0.39 0.06-0.53l-6.05-3.5a1 1 0 0 0-0.92 0l-6.33 3.65c-0.27 0.15-0.29 0.39 0 0.53l6 3.49a1 1 0 0 0 0.92 0.03zm-10.17 5.37a1 1 0 0 0 0.92 0l6.33-3.65c0.27-0.16 0.29-0.39 0.05-0.53l-6.05-3.5a1.06 1.06 0 0 0-0.92 0l-6.32 3.66c-0.27 0.15-0.3 0.39-0.06 0.53zm-17.82-27.13-6.33 3.66c-0.27 0.15-0.29 0.39-0.05 0.53l6.05 3.49a1 1 0 0 0 0.92 0l6.33-3.65c0.27-0.16 0.29-0.39 0-0.53l-6-3.5a1.06 1.06 0 0 0-0.92 0zm46.23-26.68-6.33 3.65c-0.27 0.15-0.29 0.39-0.05 0.53l6.05 3.49a1 1 0 0 0 0.92 0l6.32-3.65c0.27-0.16 0.3-0.39 0.06-0.53l-6.05-3.5a1 1 0 0 0-0.92 0.01zm-37 21.35-6.33 3.65c-0.27 0.15-0.29 0.39-0.05 0.53l6.05 3.49a1 1 0 0 0 0.92 0l6.32-3.65c0.27-0.16 0.3-0.39 0.06-0.53l-6.06-3.5a1 1 0 0 0-0.89 0.01zm46.22-26.69-6.32 3.65c-0.27 0.15-0.3 0.39-0.06 0.53l6.05 3.49a1 1 0 0 0 0.92 0l6.33-3.65c0.27-0.16 0.29-0.39 0-0.53l-6-3.49a1 1 0 0 0-0.9 0zm-18.49 10.67-6.3 3.62c-0.27 0.15-0.3 0.39-0.06 0.53l6.05 3.49a1 1 0 0 0 0.92 0l6.33-3.65c0.27-0.16 0.29-0.4 0.05-0.53l-6.05-3.5a1 1 0 0 0-0.92 0.04zm-9.24 5.34-6.33 3.65c-0.27 0.16-0.29 0.4 0 0.53l6 3.5a1 1 0 0 0 0.92 0l6.32-3.66c0.27-0.15 0.3-0.39 0.06-0.53l-6.05-3.49a1 1 0 0 0-0.9 0zm-9.25 5.34-6.32 3.65c-0.27 0.16-0.3 0.39-0.06 0.53l6 3.5a1 1 0 0 0 0.92 0l6.33-3.65c0.27-0.15 0.29-0.39 0.05-0.53l-5.98-3.56a1 1 0 0 0-0.92 0.06zm42.21 3.58 6.33-3.65c0.27-0.16 0.29-0.4 0.05-0.53l-6.05-3.5a1.06 1.06 0 0 0-0.92 0l-6.32 3.66c-0.27 0.15-0.3 0.39-0.06 0.53l6 3.49a1 1 0 0 0 0.99 0zm86.26-77.75-6.33 3.65c-0.27 0.16-0.29 0.39-0.05 0.53l6.05 3.5a1 1 0 0 0 0.92 0l6.32-3.65c0.27-0.15 0.3-0.39 0.06-0.53l-6-3.49a1 1 0 0 0-0.95-0.01zm-11.2 6.46-6.3 3.65c-0.27 0.16-0.29 0.4-0.06 0.53l6.06 3.5a1 1 0 0 0 0.91 0l6.33-3.66c0.27-0.15 0.29-0.39 0.06-0.53l-6.06-3.49a1 1 0 0 0-0.92 0zm20.44-11.8-6.28 3.65c-0.27 0.16-0.3 0.4-0.06 0.53l6.05 3.5a1 1 0 0 0 0.92 0l6.33-3.66c0.27-0.15 0.29-0.39 0-0.53l-6-3.49a1 1 0 0 0-0.94 0zm-51.08 47.45 6.32-3.66c0.27-0.15 0.3-0.39 0.06-0.53l-6.05-3.49a1 1 0 0 0-0.92 0l-6.33 3.68c-0.27 0.16-0.29 0.39 0 0.53l6 3.5a1.06 1.06 0 0 0 0.92-0.03zm61.27-52.85a1 1 0 0 0-0.92 0l-6.33 3.66c-0.27 0.15-0.29 0.39-0.05 0.53l6.05 3.49a1 1 0 0 0 0.92 0l6.32-3.65c0.27-0.16 0.3-0.4 0.06-0.53zm-96.42 83.15 6.33-3.65c0.26-0.16 0.29-0.39 0.05-0.53l-6.05-3.49a1 1 0 0 0-0.92 0l-6.33 3.65c-0.27 0.15-0.29 0.39 0 0.53l6 3.49a1 1 0 0 0 0.92 0zm113.38-65.46 6.33-3.65c0.26-0.16 0.29-0.39 0.05-0.53l-6.05-3.49a1 1 0 0 0-0.92 0l-6.33 3.65c-0.27 0.15-0.29 0.39-0.05 0.53l6.05 3.49a1 1 0 0 0 0.92 0zm-17.89 0.35 6.32-3.65c0.27-0.16 0.3-0.4 0.06-0.53l-6.05-3.5a1 1 0 0 0-0.92 0l-6.33 3.65c-0.27 0.16-0.29 0.4-0.05 0.54l6.05 3.49a1 1 0 0 0 0.92 0zm9.57-13a1.06 1.06 0 0 0-0.92 0l-6.32 3.66c-0.27 0.15-0.3 0.39-0.06 0.53l6.06 3.49a1 1 0 0 0 0.91 0l6.33-3.65c0.27-0.16 0.29-0.39 0.05-0.53zm1.95-1.12 14.7 8.49a1 1 0 0 0 0.92 0l6.32-3.65c0.27-0.15 0.29-0.39 0.06-0.53l-14.7-8.48a1 1 0 0 0-0.92 0l-6.33 3.65c-0.27 0.12-0.29 0.36-0.05 0.5zm-21.36 11.81-6.32 3.65c-0.27 0.16-0.3 0.4-0.06 0.53l6.05 3.5a1 1 0 0 0 0.92 0l6.33-3.66c0.27-0.15 0.29-0.39 0.05-0.53l-6.05-3.49a1 1 0 0 0-0.92 0zm-69.58 40.18-6.33 3.65c-0.27 0.15-0.29 0.39 0 0.53l6 3.49a1 1 0 0 0 0.92 0l6.32-3.65c0.27-0.16 0.3-0.39 0.06-0.53l-6-3.5a1 1 0 0 0-0.97 0.01zm87.15-32.85a1 1 0 0 0 0.91 0l6.33-3.65c0.27-0.16 0.29-0.39 0.05-0.53l-6.05-3.5a1 1 0 0 0-0.92 0l-6.32 3.66c-0.27 0.15-0.3 0.39-0.06 0.53zm-77.91 27.51-6.36 3.65c-0.27 0.16-0.3 0.39-0.06 0.53l6 3.5a1 1 0 0 0 0.92 0l6.33-3.65c0.27-0.15 0.29-0.39 0.05-0.53l-6.05-3.49a1 1 0 0 0-0.83-0.01zm-72.46 59.28a1 1 0 0 0 0.92 0l6.33-3.65c0.27-0.16 0.29-0.39 0-0.53l-6-3.49a1 1 0 0 0-0.92 0l-6.33 3.67c-0.26 0.15-0.29 0.39-0.05 0.53zm-10.75-11.26-6.32 3.65c-0.27 0.16-0.3 0.4-0.06 0.53l6 3.5a1.06 1.06 0 0 0 0.92 0l6.33-3.66c0.27-0.15 0.29-0.39 0.05-0.53l-6.05-3.49a1 1 0 0 0-0.87 0.02zm20.92 5.89 6.32-3.65c0.27-0.15 0.3-0.39 0.06-0.53l-6-3.49a1 1 0 0 0-0.92 0l-6.33 3.65c-0.27 0.16-0.29 0.39-0.05 0.53l6.05 3.5a1 1 0 0 0 0.87 0.01zm9.24-5.33 6.33-3.66c0.27-0.15 0.29-0.39 0.05-0.53l-6.05-3.49a1 1 0 0 0-0.92 0l-6.32 3.65c-0.27 0.16-0.3 0.4-0.06 0.53l6 3.5a1 1 0 0 0 0.97 0.02zm9.25-5.34 6.32-3.65c0.27-0.16 0.3-0.4 0.06-0.53l-6.05-3.5a1 1 0 0 0-0.92 0l-6.33 3.72c-0.27 0.16-0.29 0.4 0 0.54l6 3.49a1 1 0 0 0 0.92-0.03zm-30.16-0.56-6.33 3.65c-0.27 0.16-0.29 0.4 0 0.53l6 3.5a1 1 0 0 0 0.92 0l6.32-3.65c0.27-0.16 0.3-0.4 0.06-0.54l-6.05-3.49a1 1 0 0 0-0.92 0.02zm9.24-5.34-6.32 3.66c-0.27 0.15-0.3 0.39-0.06 0.53l6.05 3.49a1 1 0 0 0 0.92 0l6.33-3.65c0.27-0.16 0.29-0.4 0.05-0.53l-6.05-3.5a1 1 0 0 0-0.92 0.02zm37-21.35-6.33 3.65c-0.27 0.16-0.29 0.4-0.05 0.53l6.05 3.5a1 1 0 0 0 0.92 0l6.32-3.65c0.27-0.16 0.3-0.4 0.06-0.54l-6.06-3.49a1 1 0 0 0-0.92 0.02zm-9.25 5.34-6.33 3.65c-0.26 0.16-0.29 0.4-0.05 0.53l6.05 3.5a1.06 1.06 0 0 0 0.92 0l6.33-3.66c0.27-0.15 0.29-0.39 0-0.53l-6-3.49a1 1 0 0 0-0.93 0.02zm18.49-10.68-6.32 3.66c-0.27 0.15-0.3 0.39-0.06 0.53l6 3.49a1 1 0 0 0 0.92 0l6.33-3.65c0.27-0.16 0.29-0.4 0.05-0.53l-6.05-3.5a1 1 0 0 0-0.88 0.02zm-37 21.36-6.33 3.65c-0.27 0.15-0.29 0.39-0.05 0.53l6.05 3.49a1 1 0 0 0 0.92 0l6.33-3.65c0.26-0.16 0.29-0.39 0.05-0.53l-6.05-3.5a1 1 0 0 0-0.91 0.03zm9.24-5.34-6.32 3.65c-0.27 0.16-0.3 0.39-0.06 0.53l6.06 3.5a1 1 0 0 0 0.91 0l6.33-3.65c0.27-0.15 0.29-0.39 0.06-0.53l-6.06-3.49a1 1 0 0 0-0.91 0.01zm-11.8 34.76 6.33-3.65c0.27-0.15 0.29-0.39 0.05-0.53l-6.05-3.49a1 1 0 0 0-0.92 0l-6.32 3.65c-0.27 0.16-0.3 0.39-0.06 0.53l6 3.5a1 1 0 0 0 0.98 0.01zm-48.75-2.3-6.05-3.49a1 1 0 0 0-0.92 0l-6.33 3.65c-0.27 0.16-0.29 0.4-0.05 0.53l6.05 3.5a1 1 0 0 0 0.92 0l6.33-3.66c0.27-0.13 0.3-0.38 0.06-0.51zm12 3-6-3.5a1 1 0 0 0-0.92 0l-9.73 5.61c-0.27 0.16-0.29 0.4-0.06 0.54l6.06 3.49a1 1 0 0 0 0.91 0l9.74-5.62c0.28-0.1 0.3-0.37 0.06-0.47zm-21.02-9.85-6.06-3.49a1 1 0 0 0-0.91 0l-7.79 4.49c-0.27 0.16-0.29 0.4 0 0.54l6 3.49a1 1 0 0 0 0.92 0l7.78-4.5c0.27-0.18 0.3-0.42 0.06-0.53zm6-3.44a1 1 0 0 0 0.91 0l6.33-3.65c0.27-0.15 0.29-0.39 0.05-0.53l-6.05-3.49a1 1 0 0 0-0.92 0l-6.32 3.65c-0.27 0.16-0.3 0.39-0.06 0.53zm26.19 17-6.05-3.5a1 1 0 0 0-0.92 0l-12.17 7c-0.26 0.15-0.29 0.39 0 0.53l6 3.49a1 1 0 0 0 0.92 0l12.17-7c0.23-0.22 0.31-0.46 0.02-0.59zm4.26 7.44-6.06-3.5a1 1 0 0 0-0.91 0l-7.79 4.5c-0.27 0.15-0.29 0.39-0.05 0.53l6.05 3.49a1 1 0 0 0 0.92 0l7.78-4.49c0.25-0.15 0.27-0.39 0.06-0.53zm38.28-64.17a1 1 0 0 0 0.92 0l6.32-3.66c0.27-0.15 0.3-0.39 0.06-0.53l-6.06-3.49a1 1 0 0 0-0.91 0l-6.33 3.65c-0.27 0.16-0.29 0.4 0 0.53zm-18.49 10.67a1 1 0 0 0 0.92 0l6.32-3.65c0.27-0.15 0.29-0.39 0.05-0.53l-6.08-3.51a1 1 0 0 0-0.92 0l-6.32 3.65c-0.27 0.15-0.29 0.39-0.06 0.53zm-41 23.68a1 1 0 0 0 0.92 0l6.29-3.68c0.26-0.15 0.29-0.39 0.05-0.53l-6.05-3.49a1 1 0 0 0-0.92 0l-6.33 3.65c-0.27 0.16-0.29 0.4 0 0.53zm50.25-29a1 1 0 0 0 0.92 0l6.33-3.65c0.27-0.15 0.29-0.39 0.05-0.53l-6.05-3.49a1 1 0 0 0-0.92 0l-6.37 3.64c-0.26 0.16-0.29 0.39 0 0.53zm-18.49 10.67a1 1 0 0 0 0.92 0l6.33-3.65c0.26-0.16 0.29-0.39 0-0.53l-6-3.5a1.06 1.06 0 0 0-0.92 0l-6.33 3.66c-0.27 0.15-0.29 0.39-0.05 0.53zm-6 48.53a1 1 0 0 0-0.92 0l-9.76 5.62c-0.27 0.15-0.3 0.39-0.06 0.53l6.05 3.49a1 1 0 0 0 0.92 0l9.73-5.62c0.27-0.15 0.3-0.39 0.06-0.53zm-7.27-40.87a1 1 0 0 0 0.92 0l6.33-3.65c0.27-0.16 0.29-0.39 0.05-0.53l-6.05-3.5a1 1 0 0 0-0.92 0l-6.33 3.65c-0.26 0.15-0.29 0.39-0.05 0.53zm-9.28 5.34a1 1 0 0 0 0.92 0l6.32-3.65c0.27-0.16 0.29-0.4 0.06-0.53l-6.06-3.5a1 1 0 0 0-0.92 0l-6.32 3.66c-0.27 0.15-0.29 0.39-0.06 0.53zm187.8-63.36a1 1 0 0 0-0.92 0l-15.57 9c-0.27 0.15-0.29 0.39-0.05 0.53l6.05 3.49a1 1 0 0 0 0.92 0l15.57-9c0.27-0.15 0.29-0.39 0.06-0.53zm-20.43 11.8a1 1 0 0 0-0.92 0l-6.33 3.71c-0.27 0.16-0.29 0.39-0.05 0.53l6.05 3.49a1 1 0 0 0 0.92 0l6.32-3.65c0.27-0.15 0.3-0.39 0.06-0.53zm-124.79 69.55 6.32-3.66c0.27-0.15 0.3-0.39 0.06-0.53l-6.05-3.49a1 1 0 0 0-0.92 0l-6.33 3.65c-0.27 0.16-0.29 0.4 0 0.53l6 3.5a1 1 0 0 0 0.92 0zm106.29-58.84a1 1 0 0 0-0.91 0l-6.33 3.66c-0.27 0.15-0.29 0.39-0.05 0.53l6.05 3.49a1 1 0 0 0 0.92 0l6.32-3.65c0.27-0.16 0.3-0.4 0.06-0.53zm48.18-27.81a1 1 0 0 0-0.92 0l-6.33 3.65c-0.26 0.16-0.29 0.4-0.05 0.53l6.05 3.5a1.06 1.06 0 0 0 0.92 0l6.33-3.66c0.27-0.15 0.29-0.39 0.05-0.53zm15.3-1.84-14.7-8.49a1 1 0 0 0-0.92 0l-6.33 3.65c-0.26 0.16-0.29 0.4 0 0.53l14.7 8.49a1 1 0 0 0 0.92 0l6.32-3.65c0.22-0.2 0.25-0.44 0.01-0.57zm-98 49.6a1 1 0 0 0-0.92 0l-7.79 4.5c-0.27 0.15-0.29 0.39-0.05 0.53l6.05 3.49a1 1 0 0 0 0.92 0l7.78-4.5c0.27-0.15 0.3-0.39 0.06-0.53zm23.35-13.49a1 1 0 0 0-0.92 0l-9.78 5.61c-0.27 0.16-0.29 0.4 0 0.53l6 3.5a1 1 0 0 0 0.92 0l9.73-5.62c0.27-0.16 0.29-0.39 0.05-0.53zm-44.77 25.85a1 1 0 0 0-0.91 0l-52.07 30.06c-0.27 0.16-0.29 0.4-0.06 0.53l6.06 3.5a1 1 0 0 0 0.92 0l52.06-30.06c0.27-0.16 0.3-0.4 0.06-0.54zm-55 31.75a1 1 0 0 0-0.92 0l-7.79 4.49c-0.27 0.16-0.29 0.4-0.05 0.53l6.05 3.5a1 1 0 0 0 0.92 0l7.79-4.5c0.26-0.15 0.29-0.39 0-0.53zm65.69-37.93a1 1 0 0 0-0.92 0l-7.78 4.5c-0.27 0.15-0.3 0.39-0.06 0.53l6.05 3.49a1 1 0 0 0 0.92 0l7.79-4.5c0.27-0.15 0.29-0.39 0.05-0.53zm-76.4 44.11a1 1 0 0 0-0.92 0l-7.78 4.49c-0.27 0.16-0.3 0.4-0.06 0.54l6.06 3.49a1 1 0 0 0 0.91 0l7.79-4.5c0.27-0.15 0.29-0.39 0.05-0.53zm97.78-56.51a1 1 0 0 0-0.92 0l-7.78 4.49c-0.27 0.16-0.3 0.4-0.06 0.53l6.05 3.5a1 1 0 0 0 0.92 0l7.79-4.5c0.27-0.15 0.29-0.39 0.05-0.53zm33.09-19.11a1 1 0 0 0-0.92 0l-6.32 3.65c-0.27 0.15-0.3 0.39-0.06 0.53l6.05 3.49a1 1 0 0 0 0.92 0l6.33-3.65c0.27-0.16 0.29-0.39 0.05-0.53zm20.71-14.45 6.33-3.65c0.26-0.16 0.29-0.39 0-0.53l-6-3.49a1 1 0 0 0-0.92 0l-6.33 3.65c-0.27 0.15-0.29 0.39-0.05 0.53l6.05 3.49a1 1 0 0 0 0.95 0zm-37.7 1.83 6.33-3.65c0.27-0.16 0.29-0.4 0.05-0.53l-6.05-3.5a1 1 0 0 0-0.92 0l-6.33 3.68c-0.26 0.16-0.29 0.4-0.05 0.54l6.05 3.49a1 1 0 0 0 0.92-0.03zm-24.56 34.14 18.46-10.68c0.27-0.16 0.3-0.4 0.06-0.53l-6-3.5a1 1 0 0 0-0.92 0l-18.49 10.68c-0.27 0.15-0.3 0.39-0.06 0.53l6.05 3.49a1 1 0 0 0 0.9 0zm52.13-30.59a1 1 0 0 0 0.91 0l6.33-3.65c0.27-0.16 0.29-0.4 0-0.53l-6-3.5a1 1 0 0 0-0.92 0l-6.32 3.66c-0.27 0.15-0.3 0.39-0.06 0.53zm-7.73-5 6.32-3.65c0.27-0.16 0.3-0.4 0.06-0.53l-6.05-3.5a1 1 0 0 0-0.92 0l-6.35 3.65c-0.27 0.16-0.29 0.4 0 0.54l6 3.49a1 1 0 0 0 0.94-0.03zm-53.64 41 6.32-3.65c0.27-0.16 0.3-0.39 0.06-0.53l-6.05-3.5a1.06 1.06 0 0 0-0.92 0l-6.33 3.66c-0.27 0.15-0.29 0.39-0.05 0.53l6.05 3.49a1 1 0 0 0 0.92-0.08zm40.93-24.13a1 1 0 0 0 0.92 0l6.32-3.65c0.27-0.16 0.3-0.4 0.06-0.53l-6.06-3.5a1 1 0 0 0-0.91 0l-6.33 3.66c-0.27 0.15-0.29 0.39-0.05 0.53zm-87.16 50.82 6.33-3.65c0.26-0.16 0.29-0.39 0-0.53l-6-3.5a1.06 1.06 0 0 0-0.92 0l-6.33 3.66c-0.27 0.15-0.29 0.39-0.05 0.53l6.05 3.49a1 1 0 0 0 0.92-0.08zm9.25-5.34 6.32-3.65c0.27-0.16 0.29-0.39 0.06-0.53l-6.06-3.49a1 1 0 0 0-0.91 0l-6.33 3.65c-0.27 0.15-0.29 0.39-0.06 0.53l6.06 3.49a1 1 0 0 0 0.92-0.08zm-18.5 10.68 6.33-3.65c0.27-0.16 0.29-0.4 0-0.53l-6-3.5a1 1 0 0 0-0.92 0l-6.32 3.66c-0.27 0.15-0.3 0.39-0.06 0.53l6.06 3.49a1 1 0 0 0 0.91-0.08zm37-21.35 6.32-3.66c0.27-0.15 0.3-0.39 0.06-0.53l-6.05-3.49a1 1 0 0 0-0.92 0l-6.33 3.65c-0.27 0.16-0.29 0.4 0 0.53l6 3.5a1 1 0 0 0 0.91-0.08zm-9.25 5.33 6.33-3.65c0.27-0.15 0.29-0.39 0.05-0.53l-6.05-3.49a1 1 0 0 0-0.92 0l-6.33 3.65c-0.26 0.16-0.29 0.39 0 0.53l6 3.5a1 1 0 0 0 0.91-0.09zm18.49-10.67 6.33-3.65c0.27-0.16 0.29-0.4 0.05-0.53l-6.05-3.5a1 1 0 0 0-0.92 0l-6.32 3.66c-0.27 0.15-0.3 0.39-0.06 0.53l6.05 3.49a1 1 0 0 0 0.91-0.08zm50.46-74.26a1 1 0 0 0 0.91 0l6.33-3.65c0.27-0.16 0.29-0.4 0.05-0.53l-1.61-0.93a1 1 0 0 0-0.92 0l-6.28 3.57c-0.27 0.15-0.29 0.39-0.05 0.53zm-46 29.1a1 1 0 0 0 0.92 0l6.36-3.73c0.27-0.15 0.29-0.39 0.05-0.53l-6.05-3.49a1 1 0 0 0-0.92 0l-6.33 3.65c-0.26 0.16-0.29 0.39-0.05 0.53zm18.48-10.73a1 1 0 0 0 0.92 0l6.33-3.65c0.27-0.16 0.29-0.4 0-0.53l-6-3.5a1 1 0 0 0-0.92 0l-6.28 3.68c-0.27 0.15-0.3 0.39-0.06 0.53zm-29.78 17.19a1 1 0 0 0 0.92 0l6.33-3.65c0.27-0.15 0.29-0.39 0.05-0.53l-6.05-3.5a1 1 0 0 0-0.92 0l-6.33 3.65c-0.26 0.15-0.29 0.39-0.05 0.53zm20.54-11.85a1 1 0 0 0 0.92 0l6.32-3.66c0.27-0.15 0.3-0.39 0.06-0.53l-6.06-3.55a1 1 0 0 0-0.91 0l-6.33 3.65c-0.27 0.16-0.29 0.4-0.05 0.53zm-39 22.53a1 1 0 0 0 0.92 0l6.33-3.65c0.26-0.16 0.29-0.4 0-0.53l-6-3.5a1 1 0 0 0-0.92 0l-6.33 3.65c-0.27 0.16-0.29 0.4-0.05 0.54zm9.24-5.37a1 1 0 0 0 0.92 0l6.32-3.65c0.27-0.16 0.29-0.39 0.06-0.53l-6.06-3.5a1.06 1.06 0 0 0-0.92 0l-6.32 3.66c-0.27 0.15-0.29 0.39-0.06 0.53zm48-30.27a1 1 0 0 0 0.92 0l6.33-3.65c0.27-0.15 0.29-0.39 0.05-0.53l-1.61-0.93a1 1 0 0 0-0.92 0l-6.32 3.66c-0.27 0.15-0.3 0.39-0.06 0.53zm27.74-16a1 1 0 0 0 0.92 0l6.33-3.65c0.27-0.16 0.29-0.39 0.05-0.53l-1.61-0.93a1 1 0 0 0-0.92 0l-6.33 3.65c-0.26 0.16-0.29 0.39-0.05 0.53zm12.71 7.34a1 1 0 0 0 0.92 0l6.33-3.65c0.27-0.16 0.29-0.39 0.05-0.53l-6.05-3.5a1 1 0 0 0-0.92 0l-6.32 3.65c-0.27 0.15-0.3 0.39-0.06 0.53zm17.62 20.28 6.32-3.65c0.27-0.15 0.29-0.39 0.06-0.53l-6.06-3.49a1 1 0 0 0-0.92 0l-6.32 3.65c-0.27 0.16-0.29 0.39-0.06 0.53l6.06 3.5a1 1 0 0 0 0.93-0.03zm-48.82-16.94a1 1 0 0 0 0.92 0l6.33-3.66c0.26-0.15 0.29-0.39 0.05-0.53l-1.61-0.93a1 1 0 0 0-0.92 0l-6.33 3.65c-0.26 0.15-0.29 0.39-0.05 0.53zm-75.73 46.29a1 1 0 0 0 0.91 0l6.33-3.66c0.27-0.15 0.29-0.39 0-0.53l-6-3.49a1 1 0 0 0-0.92 0l-6.32 3.65c-0.27 0.16-0.3 0.4-0.06 0.53z" fill="#455a64"/><polygon points="365.24 340.39 327.33 318.51 261.01 356.79 262.38 357.58 298.92 378.67 363.89 341.16" fill="#263238"/><polygon points="263.22 358.07 298.92 378.67 363.05 341.64 327.33 321.03" fill="#37474f"/><path d="m99.3 332.8a4 4 0 0 1-1.81 0.54 4.55 4.55 0 0 1-2.65-0.46 4.9 4.9 0 0 1-2.15-3.9v-134.17l4.32 2.5v134.16c0 1 0.53 1.64 1.28 1.64a2.24 2.24 0 0 0 1.01-0.31z" fill="#e6e6e6"/><path d="m98.18 332.57c-0.66 0-0.73-0.77-0.73-1.11v-146.22l211.2-121.93v145.59a4.56 4.56 0 0 1-2 3.52l-207.72 119.9a1.54 1.54 0 0 1-0.75 0.25z" fill="#fafafa"/><path d="m308.21 64.25v144.65a4 4 0 0 1-1.76 3l-207.69 119.96a1.07 1.07 0 0 1-0.48 0.17c-0.19 0-0.19-0.56-0.19-0.56v-145.91l210.12-121.31m1.08-1.88-212.29 122.56v146.54c0 1 0.52 1.64 1.28 1.64a2.12 2.12 0 0 0 1-0.31l207.72-119.91a5.06 5.06 0 0 0 2.3-4v-146.52z" fill="#ebebeb"/><path d="m309.27 49.7c-0.16-1.19-1.13-1.63-2.28-1l-207.69 119.95a4.83 4.83 0 0 0-1.63 1.72l-4.31-2.5a4.69 4.69 0 0 1 1.64-1.71l207.68-119.91a4.3 4.3 0 0 1 6.59 3.45z" fill="#6da5ea"/><path d="m309.27 49.7c-0.16-1.19-1.13-1.63-2.28-1l-207.69 119.95a4.83 4.83 0 0 0-1.63 1.72l-4.31-2.5a4.69 4.69 0 0 1 1.64-1.71l207.68-119.91a4.3 4.3 0 0 1 6.59 3.45z" fill="#fff" opacity=".3"/><path d="m97.67 170.37a4.72 4.72 0 0 0-0.67 2.26v12.31l-4.32-2.5v-12.3a2.72 2.72 0 0 1 0-0.28 4.58 4.58 0 0 1 0.67-2z" fill="#6da5ea"/><path d="m97.67 170.37a4.72 4.72 0 0 0-0.67 2.26v12.31l-4.32-2.5v-12.3a2.72 2.72 0 0 1 0-0.28 4.58 4.58 0 0 1 0.67-2z" opacity=".2"/><path d="m309.29 50.07v12.3l-145.19 83.89c-1.26 0.73-2.29 0.13-2.29-1.33v-4.66c0-1.47-1-2.06-2.31-1.33l-51.56 29.71c-1.09 0.57-1.17 2-1.48 4l-0.82 4.65c-0.34 1.92-1 3.25-2.3 4l-6.34 3.63v-12.3a5.07 5.07 0 0 1 2.3-4l207.7-119.89c1.26-0.74 2.29-0.14 2.29 1.33z" fill="#6da5ea"/><g fill="#fff"><path d="m302.7 56.66c1-0.56 1.76-0.1 1.76 1a3.9 3.9 0 0 1-1.76 3.06c-1 0.57-1.77 0.11-1.77-1a3.92 3.92 0 0 1 1.77-3.06z"/><path d="m296.34 60.33c1-0.56 1.77-0.11 1.77 1a3.9 3.9 0 0 1-1.77 3.06c-1 0.56-1.77 0.1-1.77-1a3.89 3.89 0 0 1 1.77-3.06z"/><path d="m290 64c1-0.57 1.77-0.11 1.77 1a3.89 3.89 0 0 1-1.77 3.07c-1 0.57-1.76 0.11-1.76-1a3.9 3.9 0 0 1 1.76-3.07z"/></g><path d="m309.29 62.37v12.38l-212.29 122.56v-12.38l4.73-2.74c1.27-0.73 1.69-1.85 2.3-4l1.61-5.57c0.5-1.93 1-3.25 2.3-4l53.47-30.8c1.27-0.73 2.27-0.81 3.24 0.79l2 3.58c0.72 1.24 1.08 2 2.35 1.24z" fill="#e0e0e0"/><polygon points="92.68 194.81 92.68 182.44 97 184.93 97 197.31" fill="#e0e0e0"/><polygon points="92.68 194.81 92.68 182.44 97 184.93 97 197.31" opacity=".15"/><path d="m102.67 187.6-2.6 1.5 1-1.91a0.5 0.5 0 0 0 0-0.46c-0.08-0.09-0.21 0-0.3 0.14l-1.41 2.71a0.42 0.42 0 0 0 0 0.1 0.78 0.78 0 0 0 0 0.14 0.37 0.37 0 0 0 0 0.12 0.09 0.09 0 0 0 0 0.06l1.41 1.08a0.12 0.12 0 0 0 0.14 0 0.37 0.37 0 0 0 0.16-0.2c0.07-0.18 0.06-0.38 0-0.44l-1-0.77 2.6-1.5a0.55 0.55 0 0 0 0.21-0.44c0-0.11-0.1-0.2-0.21-0.13z" opacity=".2"/><path d="m104.84 186.34 2.6-1.5-1-0.76a0.4 0.4 0 0 1 0-0.44c0.07-0.18 0.21-0.27 0.29-0.2l1.42 1.08v0.05a0.5 0.5 0 0 1 0 0.12 0.59 0.59 0 0 1 0 0.14 1 1 0 0 0 0 0.1l-1.42 2.71a0.36 0.36 0 0 1-0.13 0.16 0.12 0.12 0 0 1-0.16 0 0.47 0.47 0 0 1 0-0.47l1-1.9-2.6 1.5c-0.12 0.06-0.21 0-0.21-0.2a0.56 0.56 0 0 1 0.21-0.39z" opacity=".2"/><path d="m113.37 178.85c0-0.15-0.15-0.13-0.22 0l-0.36 0.87c-0.6-0.07-1.34 0.53-1.84 1.58-0.64 1.36-0.64 3 0 3.6a0.92 0.92 0 0 0 1.17 0.06 3.16 3.16 0 0 0 1.17-1.41 0.46 0.46 0 0 0 0-0.46c-0.08-0.08-0.22 0-0.3 0.17-0.48 1-1.26 1.47-1.74 1a2.64 2.64 0 0 1 0-2.69c0.34-0.72 0.83-1.15 1.26-1.18l-0.27 0.66c-0.07 0.17 0 0.33 0.11 0.26l1.06-0.69a0.38 0.38 0 0 0 0.12-0.3z" opacity=".2"/><path d="m162.07 143 1-2.14a0.66 0.66 0 0 0 0-0.67c-0.12-0.11-0.31 0-0.43 0.25l-1 2.14-1-1c-0.12-0.12-0.31 0-0.43 0.25a0.64 0.64 0 0 0 0 0.66l1 1-1 2.14a0.66 0.66 0 0 0 0 0.67 0.18 0.18 0 0 0 0.21 0 0.65 0.65 0 0 0 0.22-0.26l1-2.14 1 1a0.15 0.15 0 0 0 0.21 0 0.53 0.53 0 0 0 0.22-0.26 0.64 0.64 0 0 0 0-0.66z" opacity=".2"/><path d="m116.82 181.32v-3.32a3.65 3.65 0 0 1 1.66-2.87l178.26-102.87c0.91-0.53 1.65-0.1 1.65 1v3.35a3.67 3.67 0 0 1-1.65 2.87l-178.26 102.8c-0.92 0.53-1.66 0.1-1.66-0.96z" fill="#fafafa"/><path d="m294.48 79.7a0.4 0.4 0 0 1-0.15 0 0.44 0.44 0 0 1-0.24-0.5l0.16-1.36-0.64-0.46a0.47 0.47 0 0 1-0.18-0.37 0.76 0.76 0 0 1 0.28-0.58l1-0.75a0.19 0.19 0 0 0 0-0.08l0.44-1.43a0.6 0.6 0 0 1 0.49-0.46 0.39 0.39 0 0 1 0.38 0.23l0.36 0.78 0.83-0.32a0.4 0.4 0 0 1 0.44 0.1 0.6 0.6 0 0 1 0 0.67l-0.65 1.29a0.2 0.2 0 0 0 0 0.09l0.17 1.19a0.8 0.8 0 0 1-0.21 0.6 0.5 0.5 0 0 1-0.39 0.15l-0.79-0.1-0.86 1.09a0.48 0.48 0 0 1-0.44 0.22zm-0.48-2.77 0.64 0.46a0.49 0.49 0 0 1 0.17 0.46l-0.11 0.9 0.58-0.73a0.48 0.48 0 0 1 0.43-0.21l0.8 0.1a0.19 0.19 0 0 0 0-0.09l-0.17-1.2a0.69 0.69 0 0 1 0.09-0.43l0.61-1.15-0.63 0.24a0.4 0.4 0 0 1-0.51-0.2l-0.28-0.61-0.39 1.27a0.66 0.66 0 0 1-0.24 0.36l-1 0.75a0.16 0.16 0 0 0 0.01 0.08z" fill="#e0e0e0"/><g opacity=".2"><path d="m300.35 71.85a0.57 0.57 0 0 1-0.29-1.07l4.66-2.69a0.57 0.57 0 0 1 0.78 0.21 0.56 0.56 0 0 1-0.21 0.78l-4.66 2.7a0.58 0.58 0 0 1-0.28 0.07z"/><path d="m300.35 74.55a0.58 0.58 0 0 1-0.29-1.08l4.66-2.69a0.58 0.58 0 0 1 0.57 1l-4.66 2.69a0.6 0.6 0 0 1-0.28 0.08z"/><path d="m300.35 77.24a0.57 0.57 0 0 1-0.29-1.07l4.66-2.69a0.57552 0.57552 0 0 1 0.57 1l-4.66 2.69a0.6 0.6 0 0 1-0.28 0.07z"/></g><path d="m148 189.71a0.94 0.94 0 0 0-0.88 0.1l-22.84 13.19a0.41 0.41 0 0 1-0.38 0.05 0.42 0.42 0 0 1-0.24-0.29l-0.85-2.84a1.17 1.17 0 0 0-0.54-0.69 1.1 1.1 0 0 0-1.12 0l-10.54 6.08a2.17 2.17 0 0 0-0.73 0.77 2.1 2.1 0 0 0-0.3 1v35.76a0.87 0.87 0 0 0 0.44 0.75 0.83 0.83 0 0 0 0.86 0l36.57-21.12a2.25 2.25 0 0 0 1-1.79v-30.07a1 1 0 0 0-0.4-0.84zm-0.2 31a1.53 1.53 0 0 1-0.68 1.17l-36.59 21.12a0.13 0.13 0 0 1-0.15 0 0.16 0.16 0 0 1-0.08-0.13v-35.77a1.35 1.35 0 0 1 0.2-0.66 1.46 1.46 0 0 1 0.47-0.51l10.53-6.08a0.5 0.5 0 0 1 0.25-0.07 0.31 0.31 0 0 1 0.18 0.05 0.4 0.4 0 0 1 0.19 0.27l0.85 2.83a1.16 1.16 0 0 0 0.67 0.76 1.13 1.13 0 0 0 1-0.1l22.82-13.16a0.53 0.53 0 0 1 0.21-0.08h0.05a0.34 0.34 0 0 1 0.06 0.23zm50.2-59.9a1 1 0 0 0-0.89 0.1l-22.81 13.16a0.41 0.41 0 0 1-0.38 0.05 0.42 0.42 0 0 1-0.24-0.29l-0.85-2.84a1.17 1.17 0 0 0-0.54-0.69 1.1 1.1 0 0 0-1.12 0l-10.53 6.08a2.28 2.28 0 0 0-0.74 0.77 2.08 2.08 0 0 0-0.29 1v35.85a0.86 0.86 0 0 0 0.43 0.75 0.82 0.82 0 0 0 0.43 0.12 0.88 0.88 0 0 0 0.44-0.12l36.56-21.12a2.25 2.25 0 0 0 1-1.79v-30.13a1 1 0 0 0-0.4-0.84zm-0.21 31a1.52 1.52 0 0 1-0.67 1.17l-36.57 21.12a0.13 0.13 0 0 1-0.15 0 0.16 0.16 0 0 1-0.08-0.13v-35.77a1.35 1.35 0 0 1 0.2-0.66 1.48 1.48 0 0 1 0.48-0.54l10.51-6a0.44 0.44 0 0 1 0.24-0.07 0.31 0.31 0 0 1 0.18 0.05 0.4 0.4 0 0 1 0.19 0.26l0.88 2.76a1.11 1.11 0 0 0 1.67 0.66l22.81-13.16a0.53 0.53 0 0 1 0.21-0.08h0.05a0.38 0.38 0 0 1 0.06 0.24zm50.21-59.9a0.94 0.94 0 0 0-0.89 0.1l-22.81 13.16a0.41 0.41 0 0 1-0.38 0.05 0.45 0.45 0 0 1-0.24-0.29l-0.85-2.84a1.14 1.14 0 0 0-0.54-0.69 1.1 1.1 0 0 0-1.12 0l-10.53 6.08a2.17 2.17 0 0 0-0.73 0.77 2 2 0 0 0-0.3 1v35.76a0.86 0.86 0 0 0 0.43 0.75 0.85 0.85 0 0 0 0.87 0l36.57-21.12a2.24 2.24 0 0 0 1-1.79v-30.04a1 1 0 0 0-0.4-0.84zm-0.21 31a1.53 1.53 0 0 1-0.67 1.17l-36.57 21.12a0.15 0.15 0 0 1-0.15 0 0.16 0.16 0 0 1-0.08-0.13v-35.77a1.52 1.52 0 0 1 0.68-1.17l10.53-6.08a0.44 0.44 0 0 1 0.24-0.07 0.31 0.31 0 0 1 0.18 0.05 0.45 0.45 0 0 1 0.2 0.26l0.85 2.84a1.09 1.09 0 0 0 1.66 0.66l22.81-13.16a0.55 0.55 0 0 1 0.22-0.08s0.06 0.09 0.06 0.24zm50.32-59.84h-0.11a0.94 0.94 0 0 0-0.88 0.09l-22.82 13.17a0.42 0.42 0 0 1-0.37 0 0.46 0.46 0 0 1-0.25-0.3l-0.85-2.83a1.19 1.19 0 0 0-0.54-0.7 1.12 1.12 0 0 0-1.12 0l-10.53 6.08a2.17 2.17 0 0 0-0.73 0.77 2.1 2.1 0 0 0-0.3 1v35.76a0.85 0.85 0 0 0 0.87 0.86 0.81 0.81 0 0 0 0.43-0.11l36.57-21.12a2.24 2.24 0 0 0 1-1.79v-30.04a1 1 0 0 0-0.39-0.85zm-0.33 30.93a1.54 1.54 0 0 1-0.68 1.17l-36.57 21.12a0.19 0.19 0 0 1-0.15 0 0.15 0.15 0 0 1-0.07-0.13v-35.76a1.35 1.35 0 0 1 0.2-0.66 1.38 1.38 0 0 1 0.47-0.51l10.53-6.08a0.47 0.47 0 0 1 0.24-0.07 0.34 0.34 0 0 1 0.18 0 0.51 0.51 0 0 1 0.2 0.27l0.85 2.84a1.09 1.09 0 0 0 1.66 0.66l22.81-13.17a0.45 0.45 0 0 1 0.22-0.07s0.07 0.09 0.07 0.24zm-149.78 115.08a0.92 0.92 0 0 0-0.88 0.1l-22.81 13.16a0.41 0.41 0 0 1-0.38 0.05 0.42 0.42 0 0 1-0.24-0.29l-0.85-2.84a1.17 1.17 0 0 0-0.54-0.69 1.1 1.1 0 0 0-1.12 0l-10.54 6.08a2.17 2.17 0 0 0-0.73 0.77 2.1 2.1 0 0 0-0.3 1v35.76a0.87 0.87 0 0 0 0.44 0.75 0.83 0.83 0 0 0 0.86 0l36.57-21.12a2.25 2.25 0 0 0 1-1.79v-30.02a1 1 0 0 0-0.4-0.84zm-0.2 31a1.54 1.54 0 0 1-0.68 1.17l-36.56 21.12a0.18 0.18 0 0 1-0.15 0 0.16 0.16 0 0 1-0.08-0.13v-35.77a1.35 1.35 0 0 1 0.2-0.66 1.46 1.46 0 0 1 0.47-0.51l10.53-6.08a0.5 0.5 0 0 1 0.25-0.07 0.31 0.31 0 0 1 0.18 0.05 0.4 0.4 0 0 1 0.19 0.26l0.85 2.84a1.16 1.16 0 0 0 0.67 0.76 1.13 1.13 0 0 0 1-0.1l22.82-13.16a0.53 0.53 0 0 1 0.21-0.08h0.05a0.36 0.36 0 0 1 0.06 0.24zm50.2-59.9a1 1 0 0 0-0.89 0.09l-22.81 13.17a0.44 0.44 0 0 1-0.38 0.05 0.42 0.42 0 0 1-0.24-0.3l-0.85-2.83a1.22 1.22 0 0 0-0.54-0.7 1.12 1.12 0 0 0-1.12 0l-10.53 6.08a2.19 2.19 0 0 0-0.74 0.77 2.08 2.08 0 0 0-0.29 1v35.75a0.87 0.87 0 0 0 0.43 0.76 0.81 0.81 0 0 0 0.43 0.11 0.87 0.87 0 0 0 0.44-0.11l36.54-21.02a2.25 2.25 0 0 0 1-1.79v-30.13a1 1 0 0 0-0.4-0.85zm-0.21 31a1.53 1.53 0 0 1-0.67 1.17l-36.57 21.12a0.19 0.19 0 0 1-0.15 0 0.16 0.16 0 0 1-0.08-0.14v-35.76a1.35 1.35 0 0 1 0.2-0.66 1.4 1.4 0 0 1 0.48-0.51l10.53-6.08a0.44 0.44 0 0 1 0.24-0.07 0.39 0.39 0 0 1 0.18 0 0.45 0.45 0 0 1 0.19 0.27l0.85 2.84a1.11 1.11 0 0 0 1.67 0.66l22.81-13.17a0.43 0.43 0 0 1 0.21-0.07h0.05a0.36 0.36 0 0 1 0.06 0.24zm100.21-88.81a1 1 0 0 0-0.88 0.1l-22.82 13.17a0.42 0.42 0 0 1-0.37 0.05 0.48 0.48 0 0 1-0.25-0.3l-0.85-2.83a1.19 1.19 0 0 0-0.54-0.7 1.1 1.1 0 0 0-1.12 0l-10.55 6.14a2.27 2.27 0 0 0-1 1.79v35.75a0.87 0.87 0 0 0 0.43 0.76 1 1 0 0 0 0.44 0.11 0.92 0.92 0 0 0 0.43-0.11l36.57-21.12a2.24 2.24 0 0 0 1-1.79v-30.11a1 1 0 0 0-0.4-0.85zm-0.2 31a1.54 1.54 0 0 1-0.68 1.17l-36.57 21.12a0.19 0.19 0 0 1-0.15 0 0.16 0.16 0 0 1-0.07-0.14v-35.75a1.51 1.51 0 0 1 0.67-1.17l10.53-6.08a0.47 0.47 0 0 1 0.24-0.07 0.34 0.34 0 0 1 0.18 0 0.47 0.47 0 0 1 0.2 0.27l0.85 2.84a1.15 1.15 0 0 0 0.66 0.76 1.18 1.18 0 0 0 1-0.1l22.81-13.17a0.45 0.45 0 0 1 0.22-0.07s0.07 0.09 0.07 0.24zm-49.8-2.1a1 1 0 0 0-0.89 0.1l-22.81 13.17a0.44 0.44 0 0 1-0.38 0.05 0.44 0.44 0 0 1-0.24-0.3l-0.85-2.83a1.19 1.19 0 0 0-0.54-0.7 1.12 1.12 0 0 0-1.12 0l-10.53 6.08a2.09 2.09 0 0 0-0.73 0.77 2 2 0 0 0-0.3 1v35.75a0.87 0.87 0 0 0 0.43 0.76 0.92 0.92 0 0 0 0.87 0l36.57-21.12a2.24 2.24 0 0 0 1-1.79v-30.03a1 1 0 0 0-0.4-0.85zm-0.21 31a1.53 1.53 0 0 1-0.67 1.17l-36.57 21.12a0.19 0.19 0 0 1-0.15 0 0.16 0.16 0 0 1-0.08-0.14v-35.75a1.47 1.47 0 0 1 0.2-0.66 1.4 1.4 0 0 1 0.48-0.51l10.53-6.08a0.44 0.44 0 0 1 0.24-0.07 0.39 0.39 0 0 1 0.18 0 0.51 0.51 0 0 1 0.2 0.27l0.85 2.84a1.09 1.09 0 0 0 1.66 0.66l22.79-13.12a0.45 0.45 0 0 1 0.22-0.07s0.06 0.09 0.06 0.24z" fill="#e0e0e0"/><path d="m87.54 162.46v-0.17a3.61 3.61 0 0 0-2.46-4.44l-5.6-1.62a3.66 3.66 0 0 0-4.44 2.52v0.17a3.57 3.57 0 0 0 2.38 4.51l5.71 1.65a3.61 3.61 0 0 0 4.41-2.62zm-2.87-3a1.94 1.94 0 0 1 1.33 2.41v0.18a1.92 1.92 0 0 1-2.35 1.39l-5.69-1.65a1.92 1.92 0 0 1-1.27-2.41l0.05-0.17a2 2 0 0 1 2.37-1.35z" fill="#37474f"/><path d="m88.87 162-3.72-1a0.83 0.83 0 0 0-1 0.6 0.85 0.85 0 0 0 0.57 1l3.74 1z" fill="#455a64"/><path d="m74.05 157.78 3.69 1.07a0.8544 0.8544 0 0 1-0.48 1.64l-3.71-1.08z" fill="#455a64"/><path d="m102.52 166.18v-0.17a3.6 3.6 0 0 0-2.61-4.37c-1.9-0.43-3.78-0.92-5.67-1.41a3.62 3.62 0 0 0-4.34 2.67v0.17a3.61 3.61 0 0 0 2.54 4.44c1.92 0.5 3.83 1 5.75 1.43a3.64 3.64 0 0 0 4.33-2.76zm-3-2.88a1.91 1.91 0 0 1 1.39 2.33v0.18a2 2 0 0 1-2.3 1.47c-1.92-0.43-3.83-0.93-5.74-1.43a1.93 1.93 0 0 1-1.36-2.37v-0.17a1.92 1.92 0 0 1 2.31-1.42c1.93 0.49 3.82 0.98 5.73 1.41z" fill="#37474f"/><path d="m103.83 165.65-3.75-0.88a0.85 0.85 0 0 0-1 0.64 0.84 0.84 0 0 0 0.61 1l3.76 0.88z" fill="#455a64"/><path d="m88.87 162 3.72 1a0.85131 0.85131 0 0 1-0.42 1.65l-3.73-1z" fill="#455a64"/><path d="m117.57 169.55v-0.18a3.61 3.61 0 0 0-2.7-4.32c-1.9-0.42-3.82-0.8-5.72-1.25a3.6 3.6 0 0 0-4.27 2.76v0.18a3.64 3.64 0 0 0 2.66 4.38c1.92 0.46 3.85 0.84 5.78 1.26a3.62 3.62 0 0 0 4.25-2.83zm-3-2.83a1.92 1.92 0 0 1 1.43 2.28v0.17a1.93 1.93 0 0 1-2.27 1.51c-1.92-0.42-3.85-0.8-5.77-1.26a1.94 1.94 0 0 1-1.41-2.34v-0.17a1.92 1.92 0 0 1 2.27-1.48c1.9 0.49 3.82 0.87 5.73 1.29z" fill="#37474f"/><path d="m118.87 169-3.76-0.81a0.85418 0.85418 0 0 0-0.36 1.67l3.77 0.81z" fill="#455a64"/><path d="m103.83 165.65 3.74 0.87a0.85 0.85 0 0 1 0.62 1 0.84 0.84 0 0 1-1 0.65l-3.75-0.88z" fill="#455a64"/><path d="m132.68 172.65v-0.17a3.62 3.62 0 0 0-2.77-4.29l-5.71-1.19a3.61 3.61 0 0 0-4.22 2.84v0.18a3.63 3.63 0 0 0 2.73 4.33l5.8 1.15a3.6 3.6 0 0 0 4.17-2.85zm-3.06-2.79a1.93 1.93 0 0 1 1.47 2.29v0.17a1.93 1.93 0 0 1-2.25 1.55l-5.84-1.16a1.93 1.93 0 0 1-1.46-2.31v-0.17a1.93 1.93 0 0 1 2.26-1.52z" fill="#37474f"/><path d="m134 172.07-3.77-0.75a0.84 0.84 0 0 0-1 0.67 0.85 0.85 0 0 0 0.64 1l3.78 0.75z" fill="#455a64"/><path d="m118.87 169 3.76 0.8a0.86 0.86 0 0 1-0.34 1.68l-3.77-0.81z" fill="#455a64"/><path d="m147.83 175.56v-0.18a3.63 3.63 0 0 0-2.82-4.26l-5.73-1.12a3.61 3.61 0 0 0-4.18 3v0.17a3.62 3.62 0 0 0 2.79 4.29l5.8 1.09a3.61 3.61 0 0 0 4.14-2.99zm-3.09-2.76a1.93 1.93 0 0 1 1.5 2.28v0.17a1.93 1.93 0 0 1-2.23 1.57l-5.79-1.09a1.93 1.93 0 0 1-1.5-2.28v-0.17a1.93 1.93 0 0 1 2.23-1.57z" fill="#37474f"/><path d="m149.12 175-3.78-0.71a0.86 0.86 0 0 0-0.32 1.68l3.79 0.71z" fill="#455a64"/><path d="m134 172.07 3.78 0.75a0.86 0.86 0 0 1-0.32 1.68l-3.79-0.76z" fill="#455a64"/><path d="m163 178.32v-0.17a3.62 3.62 0 0 0-2.85-4.24l-5.78-1a3.61 3.61 0 0 0-4.15 3v0.18a3.63 3.63 0 0 0 2.84 4.25l5.8 1a3.61 3.61 0 0 0 4.14-3.02zm-3.12-2.73a1.93 1.93 0 0 1 1.52 2.26v0.18a1.93 1.93 0 0 1-2.21 1.59l-5.8-1a1.94 1.94 0 0 1-1.52-2.27v-0.17a2 2 0 0 1 2.22-1.59z" fill="#37474f"/><path d="m164.29 177.72-3.79-0.72a0.85329 0.85329 0 0 0-0.3 1.68l3.79 0.68z" fill="#455a64"/><path d="m149.12 175 3.78 0.71a0.85418 0.85418 0 0 1-0.31 1.68l-3.78-0.71z" fill="#455a64"/><path d="m178.21 181v-0.17a3.63 3.63 0 0 0-2.88-4.22l-5.79-1a3.62 3.62 0 0 0-4.14 3v0.17a3.62 3.62 0 0 0 2.87 4.23l5.81 1a3.62 3.62 0 0 0 4.13-3.01zm-3.14-2.7a1.91 1.91 0 0 1 1.53 2.25v0.17a1.92 1.92 0 0 1-2.2 1.6l-5.8-1a1.93 1.93 0 0 1-1.6-2.32v-0.17a1.92 1.92 0 0 1 2.2-1.6z" fill="#37474f"/><path d="m179.48 180.37-3.79-0.65a0.85242 0.85242 0 0 0-0.29 1.68l3.79 0.66z" fill="#455a64"/><path d="m164.29 177.72 3.79 0.68a0.83 0.83 0 0 1 0.67 1 0.85 0.85 0 0 1-1 0.7l-3.75-0.7z" fill="#455a64"/><path d="m193.41 183.58v-0.17a3.61 3.61 0 0 0-2.89-4.21l-5.8-1a3.61 3.61 0 0 0-4.12 3v0.17a3.62 3.62 0 0 0 2.89 4.22l5.81 1a3.61 3.61 0 0 0 4.11-3.01zm-3.15-2.7a1.94 1.94 0 0 1 1.55 2.25v0.17a1.94 1.94 0 0 1-2.2 1.62l-5.81-1a1.93 1.93 0 0 1-1.54-2.25v-0.17a1.94 1.94 0 0 1 2.2-1.61z" fill="#37474f"/><path d="m194.69 183-3.8-0.64a0.84 0.84 0 0 0-1 0.7 0.83 0.83 0 0 0 0.67 1l3.8 0.65z" fill="#455a64"/><path d="m179.48 180.37 3.8 0.66a0.85242 0.85242 0 0 1-0.29 1.68l-3.8-0.65z" fill="#455a64"/><path d="m208.63 186.13v-0.17a3.62 3.62 0 0 0-2.91-4.2l-5.8-1a3.61 3.61 0 0 0-4.11 3v0.18a3.61 3.61 0 0 0 2.9 4.2l5.81 1a3.62 3.62 0 0 0 4.11-3.01zm-3.16-2.69a1.94 1.94 0 0 1 1.55 2.25v0.17a1.94 1.94 0 0 1-2.19 1.62l-5.81-1a1.94 1.94 0 0 1-1.55-2.25v-0.17a1.94 1.94 0 0 1 2.2-1.62z" fill="#37474f"/><path d="m209.9 185.51-3.8-0.63a0.85159 0.85159 0 0 0-0.28 1.68l3.8 0.64z" fill="#455a64"/><path d="m194.69 183 3.79 0.65a0.83 0.83 0 0 1 0.68 1 0.84 0.84 0 0 1-1 0.7l-3.8-0.64z" fill="#455a64"/><path d="m223.84 188.67v-0.18a3.61 3.61 0 0 0-2.9-4.19l-5.81-1a3.63 3.63 0 0 0-4.11 3v0.17a3.61 3.61 0 0 0 2.91 4.2l5.81 1a3.61 3.61 0 0 0 4.1-3zm-3.15-2.67a1.93 1.93 0 0 1 1.55 2.24v0.18a1.92 1.92 0 0 1-2.24 1.58l-5.81-1a1.93 1.93 0 0 1-1.55-2.24v-0.18a1.93 1.93 0 0 1 2.19-1.62z" fill="#37474f"/><path d="m225.12 188.05-3.8-0.63a0.85159 0.85159 0 0 0-0.28 1.68l3.8 0.63z" fill="#455a64"/><path d="m209.9 185.51 3.8 0.64a0.85159 0.85159 0 0 1-0.28 1.68l-3.8-0.63z" fill="#455a64"/><path d="m239.06 191.2v-0.17a3.62 3.62 0 0 0-2.9-4.2l-5.81-1a3.62 3.62 0 0 0-4.11 3v0.18a3.61 3.61 0 0 0 2.91 4.19l5.8 1a3.61 3.61 0 0 0 4.11-3zm-3.16-2.69a1.93 1.93 0 0 1 1.55 2.25v0.17a1.94 1.94 0 0 1-2.2 1.62l-5.8-1a1.92 1.92 0 0 1-1.55-2.24v-0.18a1.94 1.94 0 0 1 2.2-1.62z" fill="#37474f"/><path d="m240.33 190.58-3.8-0.63a0.85159 0.85159 0 0 0-0.28 1.68l3.8 0.64z" fill="#455a64"/><path d="m225.12 188.05 3.8 0.63a0.85159 0.85159 0 0 1-0.28 1.68l-3.8-0.63z" fill="#455a64"/><path d="m254.27 193.76v-0.17a3.62 3.62 0 0 0-2.89-4.21l-5.81-1a3.62 3.62 0 0 0-4.11 3v0.17a3.61 3.61 0 0 0 2.9 4.21l5.8 1a3.61 3.61 0 0 0 4.11-3zm-3.15-2.7a1.94 1.94 0 0 1 1.55 2.25v0.17a1.94 1.94 0 0 1-2.2 1.62l-5.8-1a1.93 1.93 0 0 1-1.55-2.24v-0.18a1.93 1.93 0 0 1 2.2-1.61z" fill="#37474f"/><path d="m255.55 193.15-3.8-0.65a0.84 0.84 0 0 0-1 0.7 0.83 0.83 0 0 0 0.67 1l3.8 0.65z" fill="#455a64"/><path d="m240.33 190.58 3.8 0.64a0.85159 0.85159 0 0 1-0.28 1.68l-3.8-0.63z" fill="#455a64"/><path d="m269.48 196.36v-0.17a3.62 3.62 0 0 0-2.88-4.22l-5.81-1a3.61 3.61 0 0 0-4.12 3v0.17a3.61 3.61 0 0 0 2.89 4.21l5.79 1a3.61 3.61 0 0 0 4.13-2.99zm-3.14-2.71a1.94 1.94 0 0 1 1.54 2.25v0.18a1.92 1.92 0 0 1-2.2 1.6l-5.8-1a1.92 1.92 0 0 1-1.54-2.24v-0.18a1.94 1.94 0 0 1 2.2-1.61z" fill="#37474f"/><path d="m270.75 195.75-3.79-0.66a0.85242 0.85242 0 0 0-0.29 1.68l3.79 0.67z" fill="#455a64"/><path d="m255.55 193.15 3.79 0.64a0.86 0.86 0 0 1-0.28 1.69l-3.8-0.65z" fill="#455a64"/><path d="m284.67 199v-0.18a3.61 3.61 0 0 0-2.86-4.23l-5.81-1a3.61 3.61 0 0 0-4.13 3v0.17a3.62 3.62 0 0 0 2.87 4.22l5.79 1a3.62 3.62 0 0 0 4.14-2.98zm-3.13-2.73a1.94 1.94 0 0 1 1.53 2.26v0.17a1.94 1.94 0 0 1-2.21 1.6l-5.79-1a1.94 1.94 0 0 1-1.54-2.25v-0.18a1.94 1.94 0 0 1 2.21-1.6z" fill="#37474f"/><path d="m286 198.42-3.79-0.68a0.86 0.86 0 0 0-1 0.7 0.85 0.85 0 0 0 0.67 1l3.79 0.67z" fill="#455a64"/><path d="m270.75 195.75 3.8 0.67a0.85242 0.85242 0 0 1-0.29 1.68l-3.8-0.66z" fill="#455a64"/><path d="m299.85 201.77v-0.17a3.6 3.6 0 0 0-2.84-4.24l-5.8-1.05a3.62 3.62 0 0 0-4.15 3v0.18a3.63 3.63 0 0 0 2.85 4.24l5.78 1a3.62 3.62 0 0 0 4.16-2.96zm-3.11-2.77a1.92 1.92 0 0 1 1.51 2.26v0.18a1.93 1.93 0 0 1-2.22 1.58l-5.79-1a1.94 1.94 0 0 1-1.52-2.27v-0.17a2 2 0 0 1 2.22-1.59z" fill="#37474f"/><path d="m301.13 201.18-3.79-0.7a0.85329 0.85329 0 0 0-0.3 1.68l3.78 0.7z" fill="#455a64"/><path d="m286 198.42 3.79 0.69a0.85329 0.85329 0 0 1-0.3 1.68l-3.79-0.69z" fill="#455a64"/><path d="m315 204.64v-0.17a3.6 3.6 0 0 0-2.8-4.26l-5.8-1.1a3.61 3.61 0 0 0-4.17 2.94v0.17a3.63 3.63 0 0 0 2.81 4.27l5.78 1.09a3.64 3.64 0 0 0 4.18-2.94zm-3.09-2.76a1.93 1.93 0 0 1 1.49 2.28v0.17a1.94 1.94 0 0 1-2.23 1.57l-5.78-1.09a1.94 1.94 0 0 1-1.5-2.28v-0.17a1.93 1.93 0 0 1 2.23-1.57z" fill="#37474f"/><path d="m316.3 204.05-3.79-0.72a0.86 0.86 0 0 0-0.32 1.68l3.78 0.72z" fill="#455a64"/><path d="m301.13 201.18 3.79 0.72a0.85 0.85 0 0 1 0.66 1 0.86 0.86 0 0 1-1 0.69l-3.78-0.72z" fill="#455a64"/><path d="m309.48 33.91 0.17 0.06a3.73 3.73 0 0 0 4.61-2.56 30.76 30.76 0 0 0 0.78-3l0.71-3.06a3.61 3.61 0 0 0-2.75-4.46h-0.17a3.77 3.77 0 0 0-4.4 2.78l-0.66 2.89a29 29 0 0 1-0.75 2.88 3.63 3.63 0 0 0 2.46 4.47zm3.13-3a2 2 0 0 1-2.46 1.37h-0.17a1.92 1.92 0 0 1-1.31-2.41 28.87 28.87 0 0 0 0.75-2.91l0.68-2.96a2 2 0 0 1 2.34-1.49h0.18a1.94 1.94 0 0 1 1.46 2.36l-0.69 3a30 30 0 0 1-0.78 3.13z" fill="#37474f"/><path d="m309.91 35.3 1.17-3.84a0.83 0.83 0 0 0-0.57-1.06 0.89 0.89 0 0 0-1.07 0.59l-1.16 3.81z" fill="#455a64"/><path d="m313.93 19.72-0.9 3.92a0.86 0.86 0 0 1-1.67-0.37l0.89-3.87z" fill="#455a64"/><path d="m304.19 49 0.17 0.07a3.59 3.59 0 0 0 4.71-2.16l2.18-5.84a3.68 3.68 0 0 0-2.34-4.71l-0.17-0.05a3.66 3.66 0 0 0-4.58 2.32l-2.1 5.61a3.78 3.78 0 0 0 2.13 4.76zm3.29-2.7a1.93 1.93 0 0 1-2.48 1.17l-0.16-0.06a2 2 0 0 1-1.14-2.54l2.11-5.67a2 2 0 0 1 2.43-1.2l0.17 0.06a1.94 1.94 0 0 1 1.23 2.51z" fill="#37474f"/><path d="m304.48 50.43c0.56-1.21 1-2.49 1.46-3.74a0.87 0.87 0 0 0-0.5-1.11 0.83 0.83 0 0 0-1.09 0.5c-0.48 1.23-0.89 2.5-1.45 3.7z" fill="#455a64"/><path d="m309.91 35.3-1.17 3.85a0.87 0.87 0 0 1-1.1 0.53 0.85 0.85 0 0 1-0.52-1.08l1.16-3.8z" fill="#455a64"/><path d="m297.59 63.6 0.16 0.08a3.72 3.72 0 0 0 4.95-1.75c0.93-1.85 1.68-3.78 2.53-5.67a3.64 3.64 0 0 0-1.88-4.86l-0.16-0.07a3.73 3.73 0 0 0-4.83 1.92c-0.82 1.82-1.55 3.69-2.45 5.48a3.65 3.65 0 0 0 1.68 4.87zm3.57-2.4a2 2 0 0 1-2.65 0.94l-0.16-0.08a1.93 1.93 0 0 1-0.89-2.6c0.9-1.81 1.64-3.69 2.46-5.53a2 2 0 0 1 2.58-1l0.17 0.07a2 2 0 0 1 1 2.59c-0.84 1.86-1.59 3.78-2.51 5.61z" fill="#37474f"/><path d="m297.8 65 1.77-3.6a0.83 0.83 0 0 0-0.39-1.13 0.88 0.88 0 0 0-1.15 0.4l-1.76 3.58z" fill="#455a64"/><path d="m304.48 50.43-1.6 3.68a0.86 0.86 0 1 1-1.57-0.68l1.59-3.65z" fill="#455a64"/><path d="m290.17 77.79 0.16 0.09a3.65 3.65 0 0 0 5-1.5c1-1.81 2-3.61 2.94-5.44a3.72 3.72 0 0 0-1.62-5l-0.16-0.08a3.64 3.64 0 0 0-4.89 1.62c-0.93 1.79-1.91 3.54-2.87 5.31a3.71 3.71 0 0 0 1.44 5zm3.65-2.22a2 2 0 0 1-2.67 0.8l-0.15-0.09a2 2 0 0 1-0.78-2.66c1-1.78 1.95-3.55 2.89-5.34a1.93 1.93 0 0 1 2.61-0.87l0.16 0.08a2 2 0 0 1 0.86 2.67c-0.95 1.84-1.95 3.6-2.92 5.41z" fill="#37474f"/><path d="m290.32 79.25 1.92-3.52a0.88 0.88 0 0 0-0.34-1.17 0.86 0.86 0 0 0-1.16 0.35l-1.91 3.5z" fill="#455a64"/><path d="m297.8 65-1.8 3.64a0.83 0.83 0 0 1-1.14 0.38 0.87 0.87 0 0 1-0.38-1.16l1.76-3.57z" fill="#455a64"/><path d="m282.06 91.59 0.15 0.1a3.63 3.63 0 0 0 5.05-1.26l3.14-5.31a3.63 3.63 0 0 0-1.28-5l-0.12-0.12a3.75 3.75 0 0 0-5.05 1.33l-3.08 5.2a3.73 3.73 0 0 0 1.19 5.06zm3.74-2a1.94 1.94 0 0 1-2.68 0.69l-0.15-0.1a2 2 0 0 1-0.67-2.71l3.1-5.22a2 2 0 0 1 2.69-0.71l0.15 0.08a1.94 1.94 0 0 1 0.69 2.69z" fill="#37474f"/><path d="m282.11 93c0.72-1.13 1.44-2.25 2.11-3.41a0.87 0.87 0 0 0-0.29-1.18 0.84 0.84 0 0 0-1.17 0.29c-0.66 1.15-1.38 2.27-2.1 3.39z" fill="#455a64"/><path d="m290.32 79.25c-0.62 1.18-1.33 2.32-2 3.47a0.87 0.87 0 0 1-1.18 0.31 0.85 0.85 0 0 1-0.3-1.17c0.67-1.14 1.37-2.28 2-3.45z" fill="#455a64"/><path d="m273.35 105 0.15 0.1a3.71 3.71 0 0 0 5.13-1c1.14-1.7 2.22-3.46 3.33-5.19a3.66 3.66 0 0 0-1.11-5.08l-0.15-0.1a3.69 3.69 0 0 0-5.06 1.14c-1.1 1.7-2.15 3.42-3.28 5.1a3.65 3.65 0 0 0 0.99 5.03zm3.85-1.88a2 2 0 0 1-2.74 0.56l-0.14-0.1a1.94 1.94 0 0 1-0.53-2.71c1.13-1.68 2.19-3.41 3.28-5.12a2 2 0 0 1 2.71-0.61l0.15 0.1a2 2 0 0 1 0.59 2.71c-1.11 1.75-2.18 3.5-3.32 5.2z" fill="#37474f"/><path d="m273.36 106.49 2.25-3.32a0.86 0.86 0 0 0-0.23-1.19 0.88 0.88 0 0 0-1.2 0.24l-2.18 3.31z" fill="#455a64"/><path d="m282.11 93-2.11 3.42a0.8544 0.8544 0 1 1-1.44-0.92l2.14-3.37z" fill="#455a64"/><path d="m264.23 118.2 0.14 0.1a3.69 3.69 0 0 0 5.14-0.9c1.19-1.67 2.4-3.33 3.53-5a3.71 3.71 0 0 0-1-5.14l-0.15-0.09a3.65 3.65 0 0 0-5.08 1c-1.12 1.68-2.31 3.32-3.48 5a3.69 3.69 0 0 0 0.9 5.03zm3.88-1.78a2 2 0 0 1-2.74 0.48l-0.14-0.1a2 2 0 0 1-0.46-2.74c1.18-1.65 2.38-3.29 3.49-5a2 2 0 0 1 2.72-0.52l0.14 0.1a2 2 0 0 1 0.51 2.74c-1.13 1.72-2.33 3.37-3.52 5.04z" fill="#37474f"/><path d="m264.2 119.65 2.33-3.26a0.86023 0.86023 0 1 0-1.4-1l-2.31 3.26z" fill="#455a64"/><path d="m273.36 106.49-2.24 3.31a0.85 0.85 0 0 1-1.19 0.23 0.87 0.87 0 0 1-0.22-1.19l2.24-3.31z" fill="#455a64"/><path d="m254.76 131.11 0.14 0.11a3.68 3.68 0 0 0 5.15-0.78l3.67-4.93a3.68 3.68 0 0 0-0.81-5.15l-0.14-0.11a3.67 3.67 0 0 0-5.11 0.84l-3.66 4.91a3.7 3.7 0 0 0 0.76 5.11zm3.92-1.69a2 2 0 0 1-2.75 0.42l-0.14-0.11a2 2 0 0 1-0.39-2.75l3.6-4.88a2 2 0 0 1 2.74-0.45l0.14 0.11a2 2 0 0 1 0.43 2.75z" fill="#37474f"/><path d="m254.7 132.57 2.39-3.21a0.87 0.87 0 0 0-0.17-1.21 0.86 0.86 0 0 0-1.2 0.18l-2.38 3.21z" fill="#455a64"/><path d="m264.2 119.65-2.32 3.26a0.85212 0.85212 0 1 1-1.38-1l2.32-3.25z" fill="#455a64"/><path d="m245 143.81 0.14 0.11a3.66 3.66 0 0 0 5.15-0.67l3.76-4.86a3.65 3.65 0 0 0-0.66-5.15l-0.14-0.11a3.72 3.72 0 0 0-5.16 0.7l-3.72 4.81a3.71 3.71 0 0 0 0.63 5.17zm3.94-1.61a2 2 0 0 1-2.75 0.36l-0.14-0.11a2 2 0 0 1-0.34-2.76l3.74-4.82a2 2 0 0 1 2.76-0.37l0.14 0.11a1.94 1.94 0 0 1 0.34 2.74z" fill="#37474f"/><path d="m244.9 145.26 2.46-3.16a0.86 0.86 0 0 0-0.15-1.21 0.85 0.85 0 0 0-1.2 0.16l-2.45 3.15z" fill="#455a64"/><path d="m254.7 132.57c-0.79 1.07-1.61 2.13-2.43 3.18a0.85 0.85 0 1 1-1.35-1c0.81-1.05 1.63-2.1 2.42-3.17z" fill="#455a64"/><path d="m235 156.3 0.14 0.11a3.67 3.67 0 0 0 5.18-0.56l3.83-4.79a3.67 3.67 0 0 0-0.55-5.17l-0.14-0.11a3.7 3.7 0 0 0-5.17 0.6l-3.81 4.75a3.7 3.7 0 0 0 0.52 5.17zm4-1.52a2 2 0 0 1-2.75 0.3l-0.14-0.11a2 2 0 0 1-0.29-2.77l3.81-4.76a2 2 0 0 1 2.76-0.31l0.14 0.11a1.94 1.94 0 0 1 0.3 2.75z" fill="#37474f"/><path d="m234.85 157.74c0.84-1 1.7-2.05 2.53-3.09a0.86 0.86 0 1 0-1.33-1.08c-0.82 1-1.68 2.06-2.52 3.09z" fill="#455a64"/><path d="m244.9 145.26-2.5 3.12a0.87 0.87 0 0 1-1.21 0.14 0.86 0.86 0 0 1-0.13-1.2l2.5-3.12z" fill="#455a64"/><path d="m224.75 168.63 0.14 0.11a3.69 3.69 0 0 0 5.19-0.47l3.9-4.73a3.68 3.68 0 0 0-0.47-5.18l-0.14-0.11a3.69 3.69 0 0 0-5.17 0.51l-3.88 4.7a3.66 3.66 0 0 0 0.43 5.17zm4-1.45a2 2 0 0 1-2.77 0.25l-0.14-0.12a1.94 1.94 0 0 1-0.23-2.75l3.88-4.71a2 2 0 0 1 2.76-0.28l0.14 0.12a2 2 0 0 1 0.26 2.76z" fill="#37474f"/><path d="m224.6 170.07 2.59-3a0.86 0.86 0 0 0-0.1-1.21 0.87 0.87 0 0 0-1.21 0.11l-2.58 3.03z" fill="#455a64"/><path d="m234.85 157.74-2.55 3.09a0.85276 0.85276 0 1 1-1.32-1.08l2.55-3.09z" fill="#455a64"/><path d="m214.36 180.82 0.14 0.12a3.69 3.69 0 0 0 5.19-0.41c1.34-1.54 2.65-3.11 4-4.67a3.69 3.69 0 0 0-0.41-5.19l-0.14-0.11a3.68 3.68 0 0 0-5.18 0.44c-1.31 1.55-2.61 3.11-3.95 4.64a3.68 3.68 0 0 0 0.35 5.18zm4-1.4a2 2 0 0 1-2.78 0.21l-0.13-0.11a2 2 0 0 1-0.2-2.77c1.34-1.53 2.64-3.09 4-4.64a2 2 0 0 1 2.76-0.24l0.13 0.11a2 2 0 0 1 0.22 2.77c-1.36 1.56-2.62 3.13-3.96 4.67z" fill="#37474f"/><path d="m214.2 182.26 2.62-3a0.86 0.86 0 0 0-1.3-1.12l-2.61 3z" fill="#455a64"/><path d="m224.6 170.07-2.6 3.06a0.85471 0.85471 0 1 1-1.3-1.11l2.6-3.02z" fill="#455a64"/><path d="m203.84 192.9 0.13 0.11a3.69 3.69 0 0 0 5.2-0.35l4-4.62a3.68 3.68 0 0 0-0.35-5.19l-0.14-0.12a3.66 3.66 0 0 0-5.17 0.39l-4 4.59a3.69 3.69 0 0 0 0.33 5.19zm4-1.37a2 2 0 0 1-2.77 0.19l-0.13-0.11a2 2 0 0 1-0.17-2.77l4-4.6a2 2 0 0 1 2.77-0.21l0.13 0.12a2 2 0 0 1 0.19 2.77z" fill="#37474f"/><path d="m203.67 194.34 2.64-3a0.85371 0.85371 0 1 0-1.28-1.13l-2.64 3z" fill="#455a64"/><path d="m214.2 182.26-2.61 3a0.85418 0.85418 0 1 1-1.29-1.12l2.61-3z" fill="#455a64"/><path d="m193.21 204.88 0.13 0.12a3.7 3.7 0 0 0 5.2-0.32l4.07-4.57a3.69 3.69 0 0 0-0.3-5.2l-0.13-0.12a3.68 3.68 0 0 0-5.18 0.34l-4.06 4.56a3.68 3.68 0 0 0 0.27 5.19zm4-1.33a2 2 0 0 1-2.77 0.16l-0.13-0.11a2 2 0 0 1-0.15-2.78l4.06-4.55a2 2 0 0 1 2.77-0.19l0.13 0.12a2 2 0 0 1 0.16 2.78z" fill="#37474f"/><path d="m193 206.32 2.66-3a0.8533 0.8533 0 1 0-1.27-1.14l-2.67 3z" fill="#455a64"/><path d="m203.67 194.34-2.65 3a0.84 0.84 0 0 1-1.2 0.08 0.85 0.85 0 0 1-0.07-1.21l2.64-3z" fill="#455a64"/><path d="m182.5 216.79 0.13 0.11a3.67 3.67 0 0 0 5.19-0.28l4.11-4.54a3.68 3.68 0 0 0-0.27-5.2l-0.13-0.12a3.69 3.69 0 0 0-5.19 0.3l-4.09 4.53a3.69 3.69 0 0 0 0.25 5.2zm4.06-1.31a2 2 0 0 1-2.78 0.15l-0.13-0.12a2 2 0 0 1-0.13-2.77l4.09-4.54a2 2 0 0 1 2.78-0.15l0.13 0.11a2 2 0 0 1 0.14 2.78z" fill="#37474f"/><path d="m182.3 218.23 2.69-3a0.86 0.86 0 1 0-1.27-1.15l-2.68 3z" fill="#455a64"/><path d="m193 206.32-2.67 3a0.8533 0.8533 0 1 1-1.27-1.14l2.66-3z" fill="#455a64"/><path d="m171.72 228.64 0.13 0.12a3.69 3.69 0 0 0 5.2-0.26l4.12-4.53a3.67 3.67 0 0 0-0.23-5.19l-0.13-0.12a3.69 3.69 0 0 0-5.2 0.26l-4.11 4.52a3.69 3.69 0 0 0 0.22 5.2zm4.06-1.3a2 2 0 0 1-2.77 0.14l-0.13-0.12a2 2 0 0 1-0.12-2.77l4.12-4.52a2 2 0 0 1 2.77-0.14l0.13 0.12a2 2 0 0 1 0.12 2.77z" fill="#37474f"/><path d="m171.52 230.08 2.69-3a0.85 0.85 0 1 0-1.21-1.08l-2.69 2.95z" fill="#455a64"/><path d="m182.3 218.23-2.68 3a0.86 0.86 0 1 1-1.27-1.15l2.69-3z" fill="#455a64"/><path d="m160.9 240.45 0.13 0.12a3.68 3.68 0 0 0 5.2-0.25l4.13-4.51a3.67 3.67 0 0 0-0.21-5.19l-0.13-0.12a3.69 3.69 0 0 0-5.2 0.25l-4.12 4.5a3.69 3.69 0 0 0 0.2 5.2zm4.07-1.28a2 2 0 0 1-2.77 0.13l-0.13-0.12a2 2 0 0 1-0.11-2.77l4.12-4.51a2 2 0 0 1 2.78-0.13l0.13 0.12a2 2 0 0 1 0.11 2.77z" fill="#37474f"/><path d="m160.7 241.89 2.7-2.95a0.86 0.86 0 1 0-1.26-1.16l-2.7 2.95z" fill="#455a64"/><path d="m171.52 230.08-2.7 2.94a0.85295 0.85295 0 1 1-1.26-1.15l2.7-3z" fill="#455a64"/><path d="m150.07 252.25 0.13 0.12a3.68 3.68 0 0 0 5.19-0.24l4.14-4.51a3.67 3.67 0 0 0-0.2-5.19l-0.13-0.12a3.68 3.68 0 0 0-5.2 0.24l-4.13 4.5a3.68 3.68 0 0 0 0.2 5.2zm4.07-1.28a2 2 0 0 1-2.78 0.13l-0.13-0.12a2 2 0 0 1-0.1-2.78l4.13-4.5a2 2 0 0 1 2.77-0.13l0.13 0.12a2 2 0 0 1 0.11 2.78z" fill="#37474f"/><path d="m149.86 253.68 2.71-2.94a0.86 0.86 0 1 0-1.26-1.16l-2.7 2.95z" fill="#455a64"/><path d="m160.7 241.89-2.7 2.94a0.85295 0.85295 0 1 1-1.26-1.15l2.71-3z" fill="#455a64"/><path d="m139.25 264.06 0.13 0.12a3.68 3.68 0 0 0 5.19-0.25l4.13-4.51a3.68 3.68 0 0 0-0.21-5.19l-0.13-0.12a3.67 3.67 0 0 0-5.19 0.24l-4.17 4.51a3.68 3.68 0 0 0 0.25 5.2zm4.06-1.29a2 2 0 0 1-2.77 0.14l-0.13-0.12a2 2 0 0 1-0.11-2.78l4.13-4.51a2 2 0 0 1 2.77-0.13l0.13 0.12a2 2 0 0 1 0.11 2.78z" fill="#37474f"/><path d="m139 265.49 2.7-2.95a0.85295 0.85295 0 1 0-1.26-1.15l-2.7 2.95z" fill="#455a64"/><path d="m149.86 253.68-2.7 2.95a0.85295 0.85295 0 1 1-1.26-1.15l2.71-2.95z" fill="#455a64"/><path d="m128.46 275.9 0.13 0.12a3.69 3.69 0 0 0 5.2-0.27l4.1-4.52a3.68 3.68 0 0 0-0.21-5.19l-0.14-0.12a3.68 3.68 0 0 0-5.19 0.25l-4.12 4.53a3.69 3.69 0 0 0 0.23 5.2zm4.06-1.3a2 2 0 0 1-2.77 0.15l-0.13-0.12a2 2 0 0 1-0.12-2.78l4.11-4.52a2 2 0 0 1 2.77-0.14l0.13 0.12a2 2 0 0 1 0.12 2.77z" fill="#37474f"/><path d="m128.27 277.34 2.68-3a0.85295 0.85295 0 1 0-1.26-1.15l-2.69 3z" fill="#455a64"/><path d="m139 265.49-2.69 3a0.86001 0.86001 0 1 1-1.27-1.16l2.7-3z" fill="#455a64"/><path d="m117.75 287.81 0.13 0.12a3.7 3.7 0 0 0 5.2-0.31l4.07-4.54a3.69 3.69 0 0 0-0.25-5.19l-0.13-0.12a3.68 3.68 0 0 0-5.2 0.29l-4.09 4.56a3.67 3.67 0 0 0 0.27 5.19zm4-1.33a2 2 0 0 1-2.77 0.17l-0.13-0.12a2 2 0 0 1-0.14-2.77l4.08-4.56a2 2 0 0 1 2.77-0.15l0.13 0.11a2 2 0 0 1 0.14 2.78z" fill="#37474f"/><path d="m117.57 289.25 2.66-3a0.86 0.86 0 0 0-0.06-1.21 0.87 0.87 0 0 0-1.21 0.07l-2.67 3z" fill="#455a64"/><path d="m128.27 277.34-2.68 3a0.86 0.86 0 1 1-1.27-1.15l2.68-3z" fill="#455a64"/><path d="m107.17 299.84 0.14 0.12a3.67 3.67 0 0 0 5.17-0.38l4-4.57a3.68 3.68 0 0 0-0.3-5.19l-0.13-0.12a3.68 3.68 0 0 0-5.19 0.34l-4.06 4.6a3.69 3.69 0 0 0 0.37 5.2zm4-1.39a2 2 0 0 1-2.76 0.2l-0.13-0.11a2 2 0 0 1-0.18-2.78l4-4.59a2 2 0 0 1 2.77-0.18l0.13 0.12a2 2 0 0 1 0.16 2.77z" fill="#37474f"/><path d="m107 301.28 2.61-3a0.86 0.86 0 0 0-0.08-1.21 0.85 0.85 0 0 0-1.2 0.09l-2.62 3z" fill="#455a64"/><path d="m117.57 289.25-2.65 3a0.85371 0.85371 0 1 1-1.28-1.13l2.65-3z" fill="#455a64"/><path d="m96.77 312 0.14 0.11a3.7 3.7 0 0 0 5.18-0.46c1.31-1.55 2.59-3.11 3.93-4.64a3.68 3.68 0 0 0-0.36-5.18l-0.14-0.11a3.69 3.69 0 0 0-5.2 0.41c-1.34 1.53-2.64 3.12-4 4.68a3.68 3.68 0 0 0 0.45 5.19zm4-1.45a2 2 0 0 1-2.76 0.24l-0.14-0.11a2 2 0 0 1-0.22-2.77c1.32-1.56 2.62-3.14 4-4.67a2 2 0 0 1 2.78-0.22l0.13 0.12a2 2 0 0 1 0.2 2.76c-1.37 1.56-2.66 3.1-3.98 4.68z" fill="#37474f"/><path d="m96.63 313.47 2.58-3.06a0.86 0.86 0 1 0-1.31-1.1l-2.58 3.06z" fill="#455a64"/><path d="m107 301.28-2.62 3a0.85418 0.85418 0 1 1-1.29-1.12l2.62-3z" fill="#455a64"/><path d="m86.66 324.45 0.14 0.11a3.7 3.7 0 0 0 5.2-0.56l3.83-4.71a3.72 3.72 0 0 0-0.5-5.18l-0.13-0.11a3.65 3.65 0 0 0-5.17 0.53l-3.89 4.77a3.68 3.68 0 0 0 0.52 5.15zm4-1.56a2 2 0 0 1-2.76 0.31l-0.14-0.11a1.94 1.94 0 0 1-0.29-2.76l3.87-4.76a2 2 0 0 1 2.75-0.28l0.14 0.11a2 2 0 0 1 0.27 2.77z" fill="#37474f"/><path d="m86.57 325.9 2.43-3.14a0.85 0.85 0 0 0-0.12-1.2 0.86 0.86 0 0 0-1.21 0.13l-2.48 3.16z" fill="#455a64"/><path d="m96.63 313.47c-0.86 1-1.71 2-2.54 3.08a0.86 0.86 0 1 1-1.32-1.09c0.84-1 1.68-2.07 2.55-3.09z" fill="#455a64"/><path d="m77 337.22 0.14 0.1a3.73 3.73 0 0 0 5.15-0.79c1.21-1.61 2.35-3.26 3.62-4.84a3.67 3.67 0 0 0-0.64-5.14l-0.14-0.11a3.7 3.7 0 0 0-5.18 0.68c-1.28 1.61-2.47 3.3-3.7 4.95a3.65 3.65 0 0 0 0.75 5.15zm3.91-1.71a2 2 0 0 1-2.74 0.43l-0.15-0.11a2 2 0 0 1-0.4-2.75c1.23-1.63 2.41-3.32 3.68-4.92a2 2 0 0 1 2.77-0.36l0.14 0.1a2 2 0 0 1 0.34 2.75c-1.29 1.58-2.44 3.24-3.66 4.86z" fill="#37474f"/><path d="m76.94 338.66 2.37-3.21a0.86 0.86 0 1 0-1.38-1l-2.38 3.22z" fill="#455a64"/><path d="m86.57 325.9-2.46 3.15a0.87 0.87 0 0 1-1.2 0.16 0.85 0.85 0 0 1-0.15-1.2l2.46-3.16z" fill="#455a64"/><path d="m231.77 203a2.73 2.73 0 0 0-1.61-2.26l-3.16-1.82a8.62 8.62 0 0 0-7.82 0l-28.88 16.66a2.74 2.74 0 0 0-1.62 2.26v38.1a2.73 2.73 0 0 0 1.61 2.27l3.19 1.83a8.6 8.6 0 0 0 7.81 0l28.86-16.65a2.76 2.76 0 0 0 1.61-2.26v-38.13z" fill="#6da5ea"/><path d="m231.77 203a2.73 2.73 0 0 0-1.61-2.26l-3.16-1.82a8.62 8.62 0 0 0-7.82 0l-28.88 16.66a2.74 2.74 0 0 0-1.62 2.26v38.1a2.73 2.73 0 0 0 1.61 2.27l3.19 1.83a8.6 8.6 0 0 0 7.81 0l28.86-16.65a2.76 2.76 0 0 0 1.61-2.26v-38.13z" fill="#fff" opacity=".4"/><path d="m193.49 221.93-3.19-1.84c-2.16-1.24-2.16-3.27 0-4.51l28.85-16.66a8.62 8.62 0 0 1 7.82 0l3.19 1.84c2.15 1.24 2.15 3.27 0 4.51l-28.86 16.66a8.6 8.6 0 0 1-7.81 0z" fill="#fff" opacity=".4"/><path d="m197.4 222.86v38.14a8 8 0 0 1-3.91-0.93l-3.19-1.85a2.71 2.71 0 0 1-1.61-2.26v-38.13a2.72 2.72 0 0 0 1.61 2.26l3.19 1.84a7.88 7.88 0 0 0 3.91 0.93z" fill="#6da5ea" opacity=".3"/><path d="m218.39 241.72-6.88 4 1.06-12.46c-0.82-0.43-1.35-1.51-1.35-3 0-2.74 1.67-5.93 3.73-7.12s3.73 0.08 3.73 2.82a9.43 9.43 0 0 1-1.35 4.61z" fill="#455a64"/><polygon points="212.16 238.11 211.51 245.69 218.39 241.72" fill="#37474f"/><path d="m215 223.06a8.18 8.18 0 0 0-3.18 4.22l5.56 3.21a9.43 9.43 0 0 0 1.35-4.61c-0.05-2.74-1.73-4-3.73-2.82z" fill="#37474f"/><path d="m224 203.87v-15.25c0-4.72-1.79-8.45-4.9-10.25s-6.63-1.48-10.33 0.65c-6.79 3.93-12.12 13.5-12.12 21.79v15.32a1.55 1.55 0 0 0 0.92 1.27 4.84 4.84 0 0 0 4.4 0 1.55 1.55 0 0 0 0.92-1.27v-15.32c0-6.07 4.12-13.57 9-16.38 1.66-1 3.15-1.2 4.1-0.66 1.11 0.64 1.77 2.46 1.77 4.85v15.24a1.56 1.56 0 0 0 0.92 1.26 4.84 4.84 0 0 0 4.4 0 1.56 1.56 0 0 0 0.92-1.26z" fill="#455a64"/><path d="m190.39 26.54a3.37 3.37 0 0 0-1.39-3.09c-0.87-0.51-5.89-3.41-6.77-3.9a3.35 3.35 0 0 0-3.37 0.34l-114.86 66.29v31.12l6.74 3.88 114.86-66.29a10.6 10.6 0 0 0 4.79-8.29z" fill="#6da5ea"/><path d="m190.39 26.54a3.37 3.37 0 0 0-1.39-3.09c-0.87-0.51-5.89-3.41-6.77-3.9a3.35 3.35 0 0 0-3.37 0.34l-114.86 66.29v31.12l6.74 3.88 114.86-66.29a10.6 10.6 0 0 0 4.79-8.29z" fill="#fff" opacity=".3"/><path d="m185.6 23.78c2.64-1.53 4.79-0.29 4.79 2.76v20.06a10.6 10.6 0 0 1-4.79 8.29l-114.83 66.29v-31.11z" fill="#6da5ea"/><path d="m71.55 91.46 113.45-65.54a3.21 3.21 0 0 1 1.57-0.46 2.47 2.47 0 0 1 2.43 2.75v18.53a8.25 8.25 0 0 1-3.78 6.55l-113.67 65.64z" fill="#fafafa"/><g fill="#455a64"><path d="m90.3 87.7c1.14-0.67 2-0.81 2.61-0.45s0.9 1.18 0.9 2.44a7.29 7.29 0 0 1-0.46 2.55 6.76 6.76 0 0 1-1.35 2.19l1.9 3.44a0.33 0.33 0 0 1 0 0.17 0.75 0.75 0 0 1-0.09 0.34 0.63 0.63 0 0 1-0.21 0.24l-1.17 0.68c-0.19 0.1-0.32 0.12-0.41 0.06a0.52 0.52 0 0 1-0.18-0.22l-1.81-3.23-1.83 1v4.28a0.9 0.9 0 0 1-0.11 0.41 0.71 0.71 0 0 1-0.26 0.3l-1.11 0.65a0.26 0.26 0 0 1-0.27 0 0.35 0.35 0 0 1-0.11-0.29v-11.8a0.9 0.9 0 0 1 0.11-0.41 0.67 0.67 0 0 1 0.27-0.3zm-2.07 7 2-1.15a4.05 4.05 0 0 0 1.25-1.09 2.78 2.78 0 0 0 0.52-1.7c0-0.68-0.16-1.05-0.47-1.1a2 2 0 0 0-1.25 0.37l-2 1.15z"/><path d="m100.12 82c0.15-0.08 0.26-0.09 0.34 0a0.85 0.85 0 0 1 0.19 0.35l3.35 9.65a0.41 0.41 0 0 1 0 0.12 0.82 0.82 0 0 1-0.11 0.41 0.71 0.71 0 0 1-0.26 0.3l-1 0.57c-0.18 0.11-0.31 0.13-0.38 0.07a0.54 0.54 0 0 1-0.16-0.22l-0.59-1.69-4.35 2.51-0.59 2.38a2.52 2.52 0 0 1-0.15 0.39 1 1 0 0 1-0.39 0.38l-1 0.57a0.21 0.21 0 0 1-0.26 0 0.33 0.33 0 0 1-0.11-0.28v-0.14l3.38-13.55a2.62 2.62 0 0 1 0.19-0.58 0.77 0.77 0 0 1 0.33-0.34zm0.76 7.62-1.51-4.35-1.52 6.1z"/><path d="m111.54 88.28c-0.16 0.09-0.28 0.11-0.36 0l-0.18-0.15-3.85-5.41v7.56a0.9 0.9 0 0 1-0.11 0.41 0.73 0.73 0 0 1-0.27 0.3l-1.11 0.65a0.24 0.24 0 0 1-0.26 0 0.32 0.32 0 0 1-0.11-0.28v-11.82a0.79 0.79 0 0 1 0.11-0.41 0.65 0.65 0 0 1 0.26-0.3l1-0.56c0.16-0.09 0.28-0.1 0.36 0l0.18 0.15 3.8 5.37v-7.56a0.93 0.93 0 0 1 0.11-0.41 0.73 0.73 0 0 1 0.27-0.3l1.11-0.64a0.23 0.23 0 0 1 0.26 0 0.33 0.33 0 0 1 0.11 0.29v11.83a0.82 0.82 0 0 1-0.11 0.41 0.71 0.71 0 0 1-0.26 0.3z"/><path d="m118.32 71.33a4.37 4.37 0 0 1 1.63-0.6 2.16 2.16 0 0 1 1.17 0.15 1.56 1.56 0 0 1 0.71 0.68 2.19 2.19 0 0 1 0.26 1 0.73 0.73 0 0 1-0.1 0.42 0.76 0.76 0 0 1-0.27 0.29l-1 0.56c-0.16 0.09-0.27 0.12-0.35 0.08a0.51 0.51 0 0 1-0.22-0.2 0.91 0.91 0 0 0-0.62-0.43 1.9 1.9 0 0 0-1.25 0.38 4.3 4.3 0 0 0-0.68 0.49 4.08 4.08 0 0 0-0.56 0.62 2.93 2.93 0 0 0-0.38 0.69 1.94 1.94 0 0 0-0.14 0.7 1.06 1.06 0 0 0 0.13 0.61 0.54 0.54 0 0 0 0.44 0.21 2.82 2.82 0 0 0 0.82-0.12c0.34-0.08 0.76-0.2 1.27-0.34a5.74 5.74 0 0 1 1.42-0.26 1.72 1.72 0 0 1 1 0.2 1.39 1.39 0 0 1 0.56 0.71 3.33 3.33 0 0 1 0.19 1.24 5.39 5.39 0 0 1-0.28 1.69 7 7 0 0 1-0.78 1.66 8.61 8.61 0 0 1-2.92 2.78 5.24 5.24 0 0 1-1.47 0.6 2.4 2.4 0 0 1-1.25 0 1.56 1.56 0 0 1-0.87-0.62 2.37 2.37 0 0 1-0.37-1.25 0.71 0.71 0 0 1 0.1-0.42 0.7 0.7 0 0 1 0.27-0.29l1-0.56a0.54 0.54 0 0 1 0.36-0.1 0.42 0.42 0 0 1 0.21 0.21 1.63 1.63 0 0 0 0.23 0.35 0.67 0.67 0 0 0 0.37 0.2 1.36 1.36 0 0 0 0.59 0 3.8 3.8 0 0 0 0.87-0.39 5.91 5.91 0 0 0 0.8-0.54 3.86 3.86 0 0 0 0.67-0.67 3.08 3.08 0 0 0 0.47-0.74 1.91 1.91 0 0 0 0.18-0.81 0.65 0.65 0 0 0-0.19-0.55 0.8 0.8 0 0 0-0.59-0.1 5.38 5.38 0 0 0-1 0.21c-0.38 0.11-0.83 0.23-1.33 0.35a4.8 4.8 0 0 1-1.21 0.17 1.43 1.43 0 0 1-0.85-0.25 1.49 1.49 0 0 1-0.5-0.75 4.34 4.34 0 0 1-0.17-1.33 5.28 5.28 0 0 1 0.28-1.68 6.89 6.89 0 0 1 0.76-1.63 8.59 8.59 0 0 1 1.14-1.44 7.17 7.17 0 0 1 1.45-1.18z"/><path d="m123.61 73.25a10.83 10.83 0 0 1 0.29-2.1 8.68 8.68 0 0 1 0.76-2 8.57 8.57 0 0 1 1.23-1.78 7.52 7.52 0 0 1 1.77-1.42 4.22 4.22 0 0 1 1.74-0.62 1.76 1.76 0 0 1 1.24 0.35 2.39 2.39 0 0 1 0.76 1.14 6 6 0 0 1 0.3 1.77v0.76 0.87 0.87 0.79a10.11 10.11 0 0 1-0.29 2.1 8.91 8.91 0 0 1-0.75 2 8.49 8.49 0 0 1-1.25 1.77 7.29 7.29 0 0 1-1.75 1.4 4.22 4.22 0 0 1-1.77 0.63 1.74 1.74 0 0 1-1.23-0.34 2.39 2.39 0 0 1-0.76-1.14 6.55 6.55 0 0 1-0.29-1.77v-0.76-0.87-0.87c0-0.28-0.01-0.54 0-0.78zm6.23-3.5a2 2 0 0 0-0.64-1.68c-0.39-0.26-0.9-0.2-1.54 0.17a4 4 0 0 0-1.55 1.62 5.29 5.29 0 0 0-0.64 2.41v1.57 1.54a2 2 0 0 0 0.64 1.66c0.39 0.26 0.9 0.2 1.55-0.17a4.19 4.19 0 0 0 1.54-1.61 5.29 5.29 0 0 0 0.64-2.41v-1.57c0-0.57 0.02-1.08 0-1.53z"/><path d="m138 66.69 2.62-7.57 0.19-0.4a1 1 0 0 1 0.4-0.44l0.94-0.54a0.22 0.22 0 0 1 0.26 0 0.35 0.35 0 0 1 0.11 0.28v11.86a0.9 0.9 0 0 1-0.11 0.41 0.71 0.71 0 0 1-0.26 0.3l-1.12 0.64a0.21 0.21 0 0 1-0.26 0 0.35 0.35 0 0 1-0.11-0.29v-7.16l-1.79 5.16a2.86 2.86 0 0 1-0.19 0.41 0.76 0.76 0 0 1-0.32 0.34l-0.71 0.42a0.29 0.29 0 0 1-0.32 0 0.57 0.57 0 0 1-0.19-0.19l-1.79-3.09v7.17a0.9 0.9 0 0 1-0.11 0.41 0.78 0.78 0 0 1-0.26 0.3l-1.12 0.65a0.22 0.22 0 0 1-0.26 0 0.35 0.35 0 0 1-0.11-0.29v-11.83a1 1 0 0 1 0.11-0.42 0.74 0.74 0 0 1 0.26-0.29l0.94-0.54c0.18-0.11 0.32-0.12 0.4 0l0.19 0.18z"/><path d="m149.14 60.46-1.14 6.17a3.26 3.26 0 0 1-0.17 0.55 0.76 0.76 0 0 1-0.31 0.35l-1.12 0.65c-0.14 0.07-0.24 0.08-0.32 0a0.61 0.61 0 0 1-0.16-0.36l-1.76-10.56a0.82 0.82 0 0 1 0-0.14 0.92 0.92 0 0 1 0.1-0.42 0.76 0.76 0 0 1 0.27-0.29l1-0.59a0.31 0.31 0 0 1 0.26 0c0.08 0 0.13 0.12 0.16 0.29l1.16 7.11 1-5.49a1.78 1.78 0 0 1 0.13-0.4 0.78 0.78 0 0 1 0.35-0.41l1.13-0.65c0.16-0.09 0.28-0.09 0.35 0a0.86 0.86 0 0 1 0.13 0.25l1 4.32 1.15-8.45a1.18 1.18 0 0 1 0.17-0.48 0.8 0.8 0 0 1 0.26-0.26l1-0.59a0.23 0.23 0 0 1 0.26 0 0.35 0.35 0 0 1 0.11 0.29 0.86 0.86 0 0 1 0 0.15l-1.76 12.6a2.13 2.13 0 0 1-0.16 0.54 0.73 0.73 0 0 1-0.33 0.36l-1.11 0.65c-0.14 0.08-0.24 0.08-0.31 0a0.76 0.76 0 0 1-0.17-0.35z"/><path d="m159.74 47.6q0.22-0.12 0.33 0a0.75 0.75 0 0 1 0.2 0.35l3.37 9.66a0.41 0.41 0 0 1 0 0.12 0.93 0.93 0 0 1-0.11 0.41 0.71 0.71 0 0 1-0.26 0.3l-1 0.57c-0.19 0.11-0.31 0.13-0.39 0.07a0.62 0.62 0 0 1-0.15-0.22l-0.59-1.69-4.35 2.51-0.57 2.32a2.52 2.52 0 0 1-0.15 0.39 1 1 0 0 1-0.39 0.38l-1 0.57a0.21 0.21 0 0 1-0.26 0 0.33 0.33 0 0 1-0.11-0.28 0.61 0.61 0 0 1 0-0.14l3.38-13.55a2.19 2.19 0 0 1 0.19-0.58 0.77 0.77 0 0 1 0.33-0.34zm0.76 7.62-1.5-4.35-1.53 6.13z"/><path d="m168.83 42.36c1.14-0.67 2-0.81 2.61-0.45s0.9 1.18 0.9 2.44a7.29 7.29 0 0 1-0.46 2.55 6.76 6.76 0 0 1-1.36 2.19l1.9 3.44a0.33 0.33 0 0 1 0 0.17 0.75 0.75 0 0 1-0.09 0.34 0.63 0.63 0 0 1-0.21 0.24l-1.12 0.72c-0.18 0.1-0.32 0.12-0.41 0.06a0.6 0.6 0 0 1-0.18-0.22l-1.81-3.23-1.83 1v4.29a0.79 0.79 0 0 1-0.11 0.41 0.71 0.71 0 0 1-0.26 0.3l-1.11 0.65a0.26 0.26 0 0 1-0.27 0 0.34 0.34 0 0 1-0.1-0.28v-11.86a0.88 0.88 0 0 1 0.1-0.41 0.67 0.67 0 0 1 0.27-0.3zm-2.07 7 2-1.15a4.05 4.05 0 0 0 1.24-1.12 2.78 2.78 0 0 0 0.47-1.67c0-0.68-0.16-1.05-0.47-1.1a2 2 0 0 0-1.25 0.37l-2 1.15z"/><path d="m180.54 46.15a0.23 0.23 0 0 1 0.26 0 0.33 0.33 0 0 1 0.11 0.29v1.3a0.79 0.79 0 0 1-0.11 0.41 0.71 0.71 0 0 1-0.26 0.3l-6 3.49a0.23 0.23 0 0 1-0.26 0 0.34 0.34 0 0 1-0.11-0.29v-11.86a0.82 0.82 0 0 1 0.11-0.41 0.71 0.71 0 0 1 0.26-0.3l5.93-3.42a0.23 0.23 0 0 1 0.26 0 0.33 0.33 0 0 1 0.11 0.29v1.3a0.79 0.79 0 0 1-0.11 0.41 0.71 0.71 0 0 1-0.26 0.3l-4.47 2.56v2.92l4.14-2.39a0.23 0.23 0 0 1 0.26 0 0.35 0.35 0 0 1 0.11 0.29v1.3a0.93 0.93 0 0 1-0.11 0.41 0.71 0.71 0 0 1-0.26 0.3l-4.14 2.38v3.05z"/></g><path d="m86.92 111.89-17.32-30a9.76 9.76 0 0 0-3.19-3.56c-1.26-0.75-6-3.49-7.16-4.13-2.7-1.53-5.47 0.06-7 4.62l-21.7 62.5c-1.23 3.53-0.89 5.89 0.63 6.75 1.25 0.71 5.76 3.31 7 4.05s3.39 0.41 6.13-1.17l38-21.94a12.53 12.53 0 0 0 4.61-17.12z" fill="#6da5ea"/><path d="m86.92 111.89-17.32-30a9.76 9.76 0 0 0-3.19-3.56c-1.26-0.75-6-3.49-7.16-4.13-2.7-1.53-5.47 0.06-7 4.62l-21.7 62.5c-1.23 3.53-0.89 5.89 0.63 6.75 1.25 0.71 5.76 3.31 7 4.05s3.39 0.41 6.13-1.17l38-21.94a12.53 12.53 0 0 0 4.61-17.12z" fill="#fff" opacity=".3"/><path d="m31.18 148.07c1.25 0.71 5.76 3.31 7 4.05s3.39 0.41 6.13-1.17l38-21.94a12.53 12.53 0 0 0 4.59-17.12l-11.04-19.15-23.73-13.74-21.58 62.32c-1.23 3.53-0.89 5.89 0.63 6.75z" fill="#6da5ea"/><path d="m31.18 148.07c1.25 0.71 5.76 3.31 7 4.05s3.39 0.41 6.13-1.17l38-21.94a12.53 12.53 0 0 0 4.59-17.12l-11.04-19.15-23.73-13.74-21.58 62.32c-1.23 3.53-0.89 5.89 0.63 6.75z" opacity=".1"/><path d="m59.23 82.87-21.65 62.51c-2.26 6.51 0.78 9 6.75 5.57l38-21.94a12.53 12.53 0 0 0 4.59-17.12l-17.32-30c-3.45-5.97-8.11-5.53-10.37 0.98z" fill="#fafafa"/><path d="m64.29 78.86c1.4 0 3 1.31 4.29 3.61l17.33 30a11.36 11.36 0 0 1-4.16 15.53l-38 22a8.33 8.33 0 0 1-4 1.39 1.46 1.46 0 0 1-1.36-0.57c-0.61-0.85-0.5-2.72 0.28-5l21.66-62.5c1-2.8 2.41-4.4 4-4.4m0-1.18c-2 0-3.87 1.75-5.06 5.19l-21.69 62.45c-1.57 4.53-0.58 7.12 2.18 7.12a9.72 9.72 0 0 0 4.57-1.5l38-21.94a12.53 12.53 0 0 0 4.59-17.12l-17.32-30c-1.63-2.81-3.52-4.2-5.31-4.2z" fill="#6da5ea"/><path d="m65.68 120.23-3.3 1.91a0.71 0.71 0 0 1-1.16-0.62l-1.34-24.74a2.23 2.23 0 0 1 1-1.87l6.26-3.62c0.59-0.34 1-0.06 1 0.63l-1.35 26.44a2.53 2.53 0 0 1-1.11 1.87z" fill="#455a64"/><path d="m64 133.54c-2.11 1.21-3.37-0.36-3.37-2.55a8 8 0 0 1 3.37-6.44c2.11-1.22 3.37 0.36 3.37 2.55a8 8 0 0 1-3.37 6.44z" fill="#455a64"/><path d="m419.77 169.21a27.42 27.42 0 0 0-10.49 3.31c-3.74 2.18-6 5.15-6.51 8.38a8.89 8.89 0 0 0 1.27 5.89l-34.55 20.12 7.35 4.2h11.59l5.79-3.36-0.29-2.13 2-1.1 4.59-0.42 3.18-1.85 0.17-4.09 1.7-1 5 1.1 6.43-3.74a33.83 33.83 0 0 0 6.89 0.69 29.71 29.71 0 0 0 14.67-3.56c4.27-2.49 6.61-5.91 6.6-9.63a8.65 8.65 0 0 0-0.57-3c-6.89-2.6-12.69-4.48-22.79-8.73a10.67 10.67 0 0 1-2.03-1.08zm6.33 9.38a6.45 6.45 0 0 1 5.6 0 1.82 1.82 0 0 1 0.53 0.43 1.68 1.68 0 0 1-0.53 0.43 6.45 6.45 0 0 1-5.6 0 1.68 1.68 0 0 1-0.53-0.43 1.68 1.68 0 0 1 0.53-0.43z" opacity=".1"/><path d="m437.39 174.11c-7.49-4.29-19.6-4.24-27.06 0.1-3.13 1.82-5.09 3-5.58 5.4v2.39a7.72 7.72 0 0 0 2.34 5.27l-33.48 17.05v2.44l3.76 2.15h10.49l4.12-2.39v-2.3l3.28-1.85 4.57-0.42 1.82-1.06 0.17-4.08 3.37-2 5 1.1 6.43-3.75c6.94 1.64 15.23 0.81 20.86-2.46 3.74-2.18 5.6-5 5.58-7.86v-2.41c-0.39-2.5-2.3-3.43-5.67-5.32zm-4.64 7a8.49 8.49 0 0 1-7.67 0c-2.12-1.21-2.13-3.2 0-4.43a8.44 8.44 0 0 1 7.66 0c2.11 1.22 2.12 3.2 0.01 4.43z" fill="#6da5ea"/><path d="m437.39 174.11c-7.49-4.29-19.6-4.24-27.06 0.1-3.13 1.82-5.09 3-5.58 5.4v2.39a7.72 7.72 0 0 0 2.34 5.27l-33.48 17.05v2.44l3.76 2.15h10.49l4.12-2.39v-2.3l3.28-1.85 4.57-0.42 1.82-1.06 0.17-4.08 3.37-2 5 1.1 6.43-3.75c6.94 1.64 15.23 0.81 20.86-2.46 3.74-2.18 5.6-5 5.58-7.86v-2.41c-0.39-2.5-2.3-3.43-5.67-5.32zm-4.64 7a8.49 8.49 0 0 1-7.67 0c-2.12-1.21-2.13-3.2 0-4.43a8.44 8.44 0 0 1 7.66 0c2.11 1.22 2.12 3.2 0.01 4.43z" opacity=".2"/><path d="m437.38 171.67c-7.49-4.28-19.6-4.24-27.06 0.1-6.13 3.57-7.19 8.93-3.23 13.1l-33.47 19.49 3.76 2.16h10.49l4.12-2.4-0.29-2.14 3.56-2 4.57-0.42 1.82-1.06 0.17-4.09 3.37-2 5 1.1 6.43-3.74c6.94 1.63 15.23 0.81 20.86-2.47 7.42-4.3 7.39-11.3-0.1-15.63zm-4.64 7a8.46 8.46 0 0 1-7.67 0c-2.12-1.21-2.13-3.19 0-4.42a8.47 8.47 0 0 1 7.66 0c2.12 1.21 2.12 3.2 0.01 4.43z" fill="#6da5ea"/><path d="m437.38 171.67c-7.49-4.28-19.6-4.24-27.06 0.1-6.13 3.57-7.19 8.93-3.23 13.1l-33.47 19.49 3.76 2.16h10.49l4.12-2.4-0.29-2.14 3.56-2 4.57-0.42 1.82-1.06 0.17-4.09 3.37-2 5 1.1 6.43-3.74c6.94 1.63 15.23 0.81 20.86-2.47 7.42-4.3 7.39-11.3-0.1-15.63zm-4.64 7a8.46 8.46 0 0 1-7.67 0c-2.12-1.21-2.13-3.19 0-4.42a8.47 8.47 0 0 1 7.66 0c2.12 1.21 2.12 3.2 0.01 4.43z" fill="#fff" opacity=".3"/><g fill="#fff" opacity=".2"><path d="m404.81 180.31 18.87-3c-0.51-1.05-0.05-2.22 1.38-3.05a8.47 8.47 0 0 1 7.66 0 3.23 3.23 0 0 1 1.42 1.43l6.86-1.09a13.71 13.71 0 0 0-3.65-2.93c-0.21-0.12-0.45-0.23-0.67-0.35l-31.06 4.9a6.84 6.84 0 0 0-0.81 4.09z"/><path d="m442 183.14a6.76 6.76 0 0 0 0-7.14l-7.84 1.24a3.25 3.25 0 0 1-1.43 1.49 8.46 8.46 0 0 1-7.67 0l-0.1-0.06-19.83 3.13a8.65 8.65 0 0 0 1.95 3.1l-8.86 5.1z"/></g><path d="m423.91 188.39a25.42 25.42 0 0 1-12.44-2.9c-2.87-1.64-4.52-3.79-4.53-5.89s1.63-4.26 4.48-5.93a27.81 27.81 0 0 1 24.87-0.09c2.87 1.65 4.52 3.79 4.53 5.9s-1.63 4.26-4.49 5.92a25.32 25.32 0 0 1-12.42 2.99zm-0.06-17a24.55 24.55 0 0 0-12.08 2.89c-2.64 1.54-4.15 3.48-4.14 5.33s1.53 3.77 4.18 5.29a27.07 27.07 0 0 0 24.18-0.08c2.64-1.54 4.15-3.48 4.14-5.33s-1.53-3.78-4.18-5.3a24.65 24.65 0 0 0-12.1-2.81z" fill="#6da5ea"/><path d="m430.8 189.82v2.43a32.34 32.34 0 0 1-14.22-0.05v-2.43a32.49 32.49 0 0 0 14.22 0.05z" opacity=".1"/><polygon points="405.2 194.84 405.19 192.41 410.15 193.51 410.15 195.95" opacity=".1"/><polygon points="401.66 200.89 401.65 198.46 401.82 194.37 401.83 196.81" opacity=".1"/><polygon points="395.27 202.37 395.26 199.94 399.83 199.52 399.84 201.95" opacity=".1"/><rect transform="rotate(-.21 376.14 205.32)" x="377.39" y="206.5" width="10.49" height="2.44" opacity=".1"/><polygon points="377.39 208.95 377.38 206.52 375.73 205.57 375.74 206.62 374.83 206.1 374.82 205.04 373.62 204.36 373.63 206.8" opacity=".15"/><polygon points="375.74 206.62 374.83 206.1 374.82 205.04 375.73 205.57" fill="#6da5ea"/><polygon points="375.74 206.62 374.83 206.1 374.82 205.04 375.73 205.57" fill="#fff" opacity=".3"/><polygon points="409.15 186.11 408.24 185.58 374.82 205.04 374.83 206.1" fill="#6da5ea"/><polygon points="408.25 186.64 409.15 186.11 408.24 185.58" opacity=".15"/></g></svg>
