<svg width="400" height="400" version="1.1" viewBox="0 0 400 400" xmlns="http://www.w3.org/2000/svg"><g transform="matrix(.93529 0 0 .93529 -50.018 -39.053)"><g fill="#e0e0e0"><ellipse cx="428.67" cy="395.53" rx="45.83" ry="26.46"/><path d="m206.09 468.44-141.81-81.93c-5.53-3.19-5.53-8.42 0-11.61l221.07-127.62a9.21 9.21 0 0 1 8.28 0l150.68 87a0.72 0.72 0 0 1 0 1.37l-229.94 132.79a9.15 9.15 0 0 1-8.28 0z"/></g><path d="m310.92 131.25c-0.49 0.46-1 0.9-1.5 1.31-6.2 4.88-12.15 3.55-13.27-3s3-15.76 9.21-20.64a13.43 13.43 0 0 1 5.56-2.78v-9.58c-0.22 0.08-0.44 0.15-0.66 0.24a1.3 1.3 0 0 1-1.8-0.82l-1.29-4.29a1 1 0 0 0-1.62-0.51l-5.73 4.5a3.22 3.22 0 0 0-1.09 2.43l0.35 5.45a4.3 4.3 0 0 1-0.9 2.64c-0.93 1.12-1.82 2.3-2.65 3.52a3 3 0 0 1-2.34 1.18l-3.68-0.18a2.35 2.35 0 0 0-2.11 1.28l-3.46 7.76a1.48 1.48 0 0 0 0.77 2l3 1.27a1.82 1.82 0 0 1 1 2 32.52 32.52 0 0 0-0.63 3.7 4.62 4.62 0 0 1-1.25 2.51l-5.07 4.67a3.08 3.08 0 0 0-0.85 2.5l1 5.53a0.91 0.91 0 0 0 1.51 0.66l5.07-3.34a1.48 1.48 0 0 1 2 0.46 9 9 0 0 0 1 1.21 2.52 2.52 0 0 1 0.59 2.42l-2.58 7a1.28 1.28 0 0 0 0.94 1.74l3.82 0.85a2.06 2.06 0 0 0 2.17-1l3.59-6.85a3.83 3.83 0 0 1 2.17-1.63 18.07 18.07 0 0 0 2.36-0.78 1.29 1.29 0 0 1 1.8 0.83l1.3 4.29a1 1 0 0 0 1.61 0.51l1.69-1.33z" opacity=".25"/><path d="m369.23 49.35a0.72 0.72 0 0 0-0.78 0.06l-1.61 1.06-0.35 1a1.83 1.83 0 0 0 0.44 1.79 9.37 9.37 0 0 1 0.73 0.89 1.08 1.08 0 0 0 1.5 0.34l3.75-2.49a0.72 0.72 0 0 1 0.76-0.08zm-5.77 13.75c-0.52-3-2.46-4.55-5-4.34a7.26 7.26 0 0 1 0.52 1.77c0.83 4.81-2.22 11.64-6.8 15.24a9.26 9.26 0 0 1-4.8 2.15c1.5 3.23 5.3 3.53 9.26 0.42 4.61-3.6 7.65-10.43 6.82-15.24zm0.08-20.56a0.74 0.74 0 0 0-0.29-0.12l-2.82-0.64a1.53 1.53 0 0 0-1.6 0.74l-2.66 5.06a2.33 2.33 0 0 1-0.59 0.68 2.21 2.21 0 0 1-0.45 0.3l0.83 2.76a1 1 0 0 0 1.33 0.61 13 13 0 0 1 1.74-0.57 2.9 2.9 0 0 0 1-0.53 2.25 2.25 0 0 0 0.6-0.68l2.65-5.06a1.54 1.54 0 0 1 1.6-0.74l2.82 0.64a0.77 0.77 0 0 1 0.28 0.1zm-8 49a0.81 0.81 0 0 1-0.26-0.43l-1-3.17a1 1 0 0 0-1.33-0.61 12.6 12.6 0 0 1-1.74 0.57 2.81 2.81 0 0 0-0.55 0.23l0.13 0.41a0.79 0.79 0 0 0 0.36 0.49zm-5.36-46.44a0.65 0.65 0 0 0-0.31-0.08 0.81 0.81 0 0 0-0.52 0.2l-4.23 3.32-0.16 0.16a0.68 0.68 0 0 0-0.12 0.12 3.31 3.31 0 0 0-0.37 0.67 1 1 0 0 1-0.05 0.16 1.93 1.93 0 0 0-0.11 0.68l0.25 4a3.21 3.21 0 0 1-0.66 2c-0.69 0.83-1.35 1.7-2 2.59a2 2 0 0 1-0.93 0.72 1.92 1.92 0 0 1-0.37 0.11h-0.18a0.65 0.65 0 0 1-0.24 0l-2.72-0.14h-0.07a0.83 0.83 0 0 0-0.22 0 0.71 0.71 0 0 0-0.2 0 0.85 0.85 0 0 0-0.22 0.09 2 2 0 0 0-0.4 0.24 1.65 1.65 0 0 0-0.43 0.56l-2.56 5.73a1.08 1.08 0 0 0 0.43 1.37l3 1.74a1.34 1.34 0 0 1 0.07 0.79 24.38 24.38 0 0 0-0.47 2.73 3.44 3.44 0 0 1-0.91 1.86l-3.71 3.41a1.8 1.8 0 0 0-0.18 0.2 1 1 0 0 0-0.15 0.24 2.26 2.26 0 0 0-0.28 1.37l0.71 4.09a0.85 0.85 0 0 0 0.33 0.55l4.43 2.55a0.8 0.8 0 0 1-0.31-0.54l-0.7-4.08a1.94 1.94 0 0 1 0-0.79 2.21 2.21 0 0 1 0.59-1.06l3.7-3.41a3.42 3.42 0 0 0 0.92-1.86 24 24 0 0 1 0.48-2.73 1.38 1.38 0 0 0-0.76-1.52l-2.2-0.93a1.11 1.11 0 0 1-0.57-1.46l2.56-5.72a1.53 1.53 0 0 1 0.43-0.56 1.73 1.73 0 0 1 1.13-0.41l2.72 0.14a1.89 1.89 0 0 0 0.79-0.16 2.1 2.1 0 0 0 0.93-0.72c0.61-0.89 1.27-1.77 2-2.6a3.1 3.1 0 0 0 0.66-1.94l-0.25-4a1.75 1.75 0 0 1 0.1-0.7 2.28 2.28 0 0 1 0.7-1.1l4.23-3.32a0.73 0.73 0 0 1 0.84-0.12zm-6.34 42.71a1.84 1.84 0 0 0-0.45-1.78 7.1 7.1 0 0 1-0.72-0.9 1.09 1.09 0 0 0-1.5-0.34l-2.17 1.41-1.56 4.2a0.93 0.93 0 0 0 0.38 1.15l4.47 2.57a0.93 0.93 0 0 1-0.38-1.15z" fill="#6da5ea"/><path d="m369.23 49.35a0.72 0.72 0 0 0-0.78 0.06l-1.61 1.06-0.35 1a1.83 1.83 0 0 0 0.44 1.79 9.37 9.37 0 0 1 0.73 0.89 1.08 1.08 0 0 0 1.5 0.34l3.75-2.49a0.72 0.72 0 0 1 0.76-0.08zm-5.77 13.75c-0.52-3-2.46-4.55-5-4.34a7.26 7.26 0 0 1 0.52 1.77c0.83 4.81-2.22 11.64-6.8 15.24a9.26 9.26 0 0 1-4.8 2.15c1.5 3.23 5.3 3.53 9.26 0.42 4.61-3.6 7.65-10.43 6.82-15.24zm0.08-20.56a0.74 0.74 0 0 0-0.29-0.12l-2.82-0.64a1.53 1.53 0 0 0-1.6 0.74l-2.66 5.06a2.33 2.33 0 0 1-0.59 0.68 2.21 2.21 0 0 1-0.45 0.3l0.83 2.76a1 1 0 0 0 1.33 0.61 13 13 0 0 1 1.74-0.57 2.9 2.9 0 0 0 1-0.53 2.25 2.25 0 0 0 0.6-0.68l2.65-5.06a1.54 1.54 0 0 1 1.6-0.74l2.82 0.64a0.77 0.77 0 0 1 0.28 0.1zm-8 49a0.81 0.81 0 0 1-0.26-0.43l-1-3.17a1 1 0 0 0-1.33-0.61 12.6 12.6 0 0 1-1.74 0.57 2.81 2.81 0 0 0-0.55 0.23l0.13 0.41a0.79 0.79 0 0 0 0.36 0.49zm-5.36-46.44a0.65 0.65 0 0 0-0.31-0.08 0.81 0.81 0 0 0-0.52 0.2l-4.23 3.32-0.16 0.16a0.68 0.68 0 0 0-0.12 0.12 3.31 3.31 0 0 0-0.37 0.67 1 1 0 0 1-0.05 0.16 1.93 1.93 0 0 0-0.11 0.68l0.25 4a3.21 3.21 0 0 1-0.66 2c-0.69 0.83-1.35 1.7-2 2.59a2 2 0 0 1-0.93 0.72 1.92 1.92 0 0 1-0.37 0.11h-0.18a0.65 0.65 0 0 1-0.24 0l-2.72-0.14h-0.07a0.83 0.83 0 0 0-0.22 0 0.71 0.71 0 0 0-0.2 0 0.85 0.85 0 0 0-0.22 0.09 2 2 0 0 0-0.4 0.24 1.65 1.65 0 0 0-0.43 0.56l-2.56 5.73a1.08 1.08 0 0 0 0.43 1.37l3 1.74a1.34 1.34 0 0 1 0.07 0.79 24.38 24.38 0 0 0-0.47 2.73 3.44 3.44 0 0 1-0.91 1.86l-3.71 3.41a1.8 1.8 0 0 0-0.18 0.2 1 1 0 0 0-0.15 0.24 2.26 2.26 0 0 0-0.28 1.37l0.71 4.09a0.85 0.85 0 0 0 0.33 0.55l4.43 2.55a0.8 0.8 0 0 1-0.31-0.54l-0.7-4.08a1.94 1.94 0 0 1 0-0.79 2.21 2.21 0 0 1 0.59-1.06l3.7-3.41a3.42 3.42 0 0 0 0.92-1.86 24 24 0 0 1 0.48-2.73 1.38 1.38 0 0 0-0.76-1.52l-2.2-0.93a1.11 1.11 0 0 1-0.57-1.46l2.56-5.72a1.53 1.53 0 0 1 0.43-0.56 1.73 1.73 0 0 1 1.13-0.41l2.72 0.14a1.89 1.89 0 0 0 0.79-0.16 2.1 2.1 0 0 0 0.93-0.72c0.61-0.89 1.27-1.77 2-2.6a3.1 3.1 0 0 0 0.66-1.94l-0.25-4a1.75 1.75 0 0 1 0.1-0.7 2.28 2.28 0 0 1 0.7-1.1l4.23-3.32a0.73 0.73 0 0 1 0.84-0.12zm-6.34 42.71a1.84 1.84 0 0 0-0.45-1.78 7.1 7.1 0 0 1-0.72-0.9 1.09 1.09 0 0 0-1.5-0.34l-2.17 1.41-1.56 4.2a0.93 0.93 0 0 0 0.38 1.15l4.47 2.57a0.93 0.93 0 0 1-0.38-1.15z" opacity=".3"/><g fill="#6da5ea"><path d="m339.93 77.43-3.7 3.41a2.21 2.21 0 0 0-0.59 1.06l-4.44-2.56a3 3 0 0 1 0.22-0.59 1 1 0 0 1 0.15-0.24 1.8 1.8 0 0 1 0.18-0.2l3.71-3.41z"/><path d="m345.47 62.19a1.89 1.89 0 0 1-0.79 0.16l-2.68-0.14a1.73 1.73 0 0 0-1.13 0.41l-4.45-2.57a2 2 0 0 1 0.4-0.24 0.85 0.85 0 0 1 0.22-0.09 0.71 0.71 0 0 1 0.2 0 0.83 0.83 0 0 1 0.22 0h0.07l2.72 0.14a0.65 0.65 0 0 0 0.24 0h0.18a2.42 2.42 0 0 0 0.35-0.12z"/><path d="m373.67 51.91a0.72 0.72 0 0 0-0.76 0.08l-3.75 2.47a1.09 1.09 0 0 1-1.5-0.34 8.18 8.18 0 0 0-0.73-0.9 1.81 1.81 0 0 1-0.44-1.78l0.35-1 1.61-1a0.73 0.73 0 0 1 0.78-0.08z"/><path d="m368 45.1a0.77 0.77 0 0 0-0.28-0.1l-2.82-0.64a1.54 1.54 0 0 0-1.6 0.74l-2.65 5.06a2.25 2.25 0 0 1-0.6 0.68l-4.45-2.57a2.33 2.33 0 0 0 0.59-0.68l2.66-5.06a1.53 1.53 0 0 1 1.6-0.74l2.82 0.64a0.74 0.74 0 0 1 0.29 0.12z"/><path d="m354.64 47.67a0.73 0.73 0 0 0-0.84 0.12l-4.23 3.32a2.28 2.28 0 0 0-0.7 1.1l-4.45-2.56a1 1 0 0 0 0.05-0.16 3.31 3.31 0 0 1 0.37-0.67 0.68 0.68 0 0 1 0.12-0.12l0.16-0.16 4.23-3.32a0.81 0.81 0 0 1 0.52-0.2 0.65 0.65 0 0 1 0.31 0.08z"/><path d="m374.73 56.56-0.73-4.08a0.67 0.67 0 0 0-1.11-0.49l-3.75 2.47a1.08 1.08 0 0 1-1.5-0.34 8.05 8.05 0 0 0-0.73-0.89 1.88 1.88 0 0 1-0.44-1.79l1.91-5.16a1 1 0 0 0-0.7-1.29l-2.82-0.63a1.53 1.53 0 0 0-1.6 0.74l-2.65 5.06a2.85 2.85 0 0 1-1.61 1.21 12.6 12.6 0 0 0-1.74 0.57 1 1 0 0 1-1.33-0.61l-0.93-3.17a0.71 0.71 0 0 0-1.2-0.37l-4.23 3.32a2.36 2.36 0 0 0-0.8 1.79l0.25 4a3.15 3.15 0 0 1-0.66 2 30 30 0 0 0-2 2.6 2.21 2.21 0 0 1-1.72 0.87l-2.64-0.16a1.75 1.75 0 0 0-1.56 1l-2.56 5.73a1.09 1.09 0 0 0 0.57 1.45l2.2 0.94a1.36 1.36 0 0 1 0.75 1.51 24.94 24.94 0 0 0-0.47 2.74 3.33 3.33 0 0 1-0.92 1.85l-3.74 3.45a2.25 2.25 0 0 0-0.63 1.85l0.7 4.08a0.68 0.68 0 0 0 1.12 0.49l3.74-2.47a1.1 1.1 0 0 1 1.51 0.34 8 8 0 0 0 0.73 0.9 1.83 1.83 0 0 1 0.43 1.78l-1.94 5.15a1 1 0 0 0 0.69 1.29l2.83 0.63a1.55 1.55 0 0 0 1.6-0.74l2.65-5.06a2.77 2.77 0 0 1 1.6-1.2 14.19 14.19 0 0 0 1.74-0.58 1 1 0 0 1 1.33 0.61l1 3.17a0.7 0.7 0 0 0 1.19 0.37l4.23-3.32a2.36 2.36 0 0 0 0.8-1.79l-0.25-4a3.21 3.21 0 0 1 0.66-1.95 30 30 0 0 0 2-2.6 2.21 2.21 0 0 1 1.73-0.87l2.71 0.14a1.75 1.75 0 0 0 1.57-1l2.55-5.73a1.08 1.08 0 0 0-0.57-1.45l-2.27-0.92a1.36 1.36 0 0 1-0.76-1.51 24.54 24.54 0 0 0 0.47-2.74 3.4 3.4 0 0 1 0.92-1.85l3.75-3.45a2.29 2.29 0 0 0 0.63-1.89zm-18.07 21.78c-4.58 3.61-9 2.62-9.8-2.19s2.22-11.64 6.8-15.24 9-2.62 9.8 2.19-2.21 11.64-6.8 15.24z"/></g><path d="m374.73 56.56-0.73-4.08a0.67 0.67 0 0 0-1.11-0.49l-3.75 2.47a1.08 1.08 0 0 1-1.5-0.34 8.05 8.05 0 0 0-0.73-0.89 1.88 1.88 0 0 1-0.44-1.79l1.91-5.16a1 1 0 0 0-0.7-1.29l-2.82-0.63a1.53 1.53 0 0 0-1.6 0.74l-2.65 5.06a2.85 2.85 0 0 1-1.61 1.21 12.6 12.6 0 0 0-1.74 0.57 1 1 0 0 1-1.33-0.61l-0.93-3.17a0.71 0.71 0 0 0-1.2-0.37l-4.23 3.32a2.36 2.36 0 0 0-0.8 1.79l0.25 4a3.15 3.15 0 0 1-0.66 2 30 30 0 0 0-2 2.6 2.21 2.21 0 0 1-1.72 0.87l-2.64-0.16a1.75 1.75 0 0 0-1.56 1l-2.56 5.73a1.09 1.09 0 0 0 0.57 1.45l2.2 0.94a1.36 1.36 0 0 1 0.75 1.51 24.94 24.94 0 0 0-0.47 2.74 3.33 3.33 0 0 1-0.92 1.85l-3.74 3.45a2.25 2.25 0 0 0-0.63 1.85l0.7 4.08a0.68 0.68 0 0 0 1.12 0.49l3.74-2.47a1.1 1.1 0 0 1 1.51 0.34 8 8 0 0 0 0.73 0.9 1.83 1.83 0 0 1 0.43 1.78l-1.94 5.15a1 1 0 0 0 0.69 1.29l2.83 0.63a1.55 1.55 0 0 0 1.6-0.74l2.65-5.06a2.77 2.77 0 0 1 1.6-1.2 14.19 14.19 0 0 0 1.74-0.58 1 1 0 0 1 1.33 0.61l1 3.17a0.7 0.7 0 0 0 1.19 0.37l4.23-3.32a2.36 2.36 0 0 0 0.8-1.79l-0.25-4a3.21 3.21 0 0 1 0.66-1.95 30 30 0 0 0 2-2.6 2.21 2.21 0 0 1 1.73-0.87l2.71 0.14a1.75 1.75 0 0 0 1.57-1l2.55-5.73a1.08 1.08 0 0 0-0.57-1.45l-2.27-0.92a1.36 1.36 0 0 1-0.76-1.51 24.54 24.54 0 0 0 0.47-2.74 3.4 3.4 0 0 1 0.92-1.85l3.75-3.45a2.29 2.29 0 0 0 0.63-1.89zm-18.07 21.78c-4.58 3.61-9 2.62-9.8-2.19s2.22-11.64 6.8-15.24 9-2.62 9.8 2.19-2.21 11.64-6.8 15.24z" opacity=".2"/><path d="m334.07 98.55a1 1 0 0 0-1.06 0.09l-2.17 1.44-0.48 1.3a2.53 2.53 0 0 0 0.59 2.42 10.83 10.83 0 0 1 1 1.21 1.48 1.48 0 0 0 2 0.45l5.07-3.34a1 1 0 0 1 1-0.11zm-7.81 18.63c-0.71-4.11-3.33-6.17-6.73-5.89a10.58 10.58 0 0 1 0.7 2.41c1.13 6.52-3 15.76-9.21 20.64a12.58 12.58 0 0 1-6.51 2.91c2 4.37 7.19 4.78 12.54 0.57 6.21-4.88 10.33-14.13 9.21-20.64zm0.11-27.85a1.29 1.29 0 0 0-0.4-0.16l-3.82-0.86a2.08 2.08 0 0 0-2.17 1l-3.6 6.86a3.07 3.07 0 0 1-0.8 0.91 3.1 3.1 0 0 1-0.61 0.41l1.12 3.74a1.31 1.31 0 0 0 1.81 0.82 18.36 18.36 0 0 1 2.35-0.77 4.09 4.09 0 0 0 1.37-0.71 3 3 0 0 0 0.81-0.92l3.57-6.85a2.08 2.08 0 0 1 2.16-1l3.83 0.86a1.42 1.42 0 0 1 0.38 0.14zm-10.77 66.33a1.09 1.09 0 0 1-0.36-0.58l-1.24-4.29a1.3 1.3 0 0 0-1.81-0.82 17.39 17.39 0 0 1-2.35 0.77 3.08 3.08 0 0 0-0.74 0.31l0.17 0.55a1.08 1.08 0 0 0 0.49 0.66zm-7.33-62.86a0.88 0.88 0 0 0-0.42-0.11 1.09 1.09 0 0 0-0.7 0.27l-5.73 4.5a1.45 1.45 0 0 0-0.22 0.21 1.22 1.22 0 0 0-0.15 0.17 3.76 3.76 0 0 0-0.51 0.9l-0.07 0.22a2.62 2.62 0 0 0-0.15 0.93l0.34 5.45a4.35 4.35 0 0 1-0.89 2.64c-0.94 1.12-1.82 2.3-2.65 3.51a2.92 2.92 0 0 1-1.27 1 2.38 2.38 0 0 1-0.5 0.15 1 1 0 0 1-0.24 0 1.22 1.22 0 0 1-0.33 0l-3.68-0.18h-0.1a1.53 1.53 0 0 0-0.3 0 1.31 1.31 0 0 0-0.27 0.06 1.88 1.88 0 0 0-0.3 0.12 2.62 2.62 0 0 0-0.53 0.33 2.23 2.23 0 0 0-0.59 0.75l-3.46 7.76a1.47 1.47 0 0 0 0.58 1.86l4.09 2.36a1.83 1.83 0 0 1 0.09 1.06 35.4 35.4 0 0 0-0.64 3.7 4.6 4.6 0 0 1-1.24 2.52l-0.06 0.05-5 4.61a1.55 1.55 0 0 0-0.24 0.27 1.38 1.38 0 0 0-0.2 0.33 3 3 0 0 0-0.38 1.85l1 5.54a1.09 1.09 0 0 0 0.44 0.75l6 3.46a1.06 1.06 0 0 1-0.42-0.73l-1-5.54a2.57 2.57 0 0 1 0.06-1.06 3 3 0 0 1 0.79-1.44l5-4.61 0.06-0.06a4.67 4.67 0 0 0 1.24-2.51 33 33 0 0 1 0.64-3.7 1.87 1.87 0 0 0-1-2.06l-3-1.26a1.48 1.48 0 0 1-0.77-2l3.46-7.76a2.11 2.11 0 0 1 0.59-0.75 2.33 2.33 0 0 1 1.53-0.56l3.69 0.19a2.27 2.27 0 0 0 1.06-0.22 2.87 2.87 0 0 0 1.26-1c0.83-1.21 1.73-2.39 2.66-3.52a4.24 4.24 0 0 0 0.89-2.63l-0.34-5.45a2.44 2.44 0 0 1 0.14-0.94 3.1 3.1 0 0 1 0.95-1.49l5.73-4.5a1 1 0 0 1 1.13-0.16zm-8.59 57.84a2.55 2.55 0 0 0-0.6-2.42 9.76 9.76 0 0 1-1-1.21 1.48 1.48 0 0 0-2-0.46l-2.89 1.9-2.11 5.7a1.26 1.26 0 0 0 0.51 1.55l6.05 3.49a1.26 1.26 0 0 1-0.51-1.56z" fill="#6da5ea"/><path d="m334.07 98.55a1 1 0 0 0-1.06 0.09l-2.17 1.44-0.48 1.3a2.53 2.53 0 0 0 0.59 2.42 10.83 10.83 0 0 1 1 1.21 1.48 1.48 0 0 0 2 0.45l5.07-3.34a1 1 0 0 1 1-0.11zm-7.81 18.63c-0.71-4.11-3.33-6.17-6.73-5.89a10.58 10.58 0 0 1 0.7 2.41c1.13 6.52-3 15.76-9.21 20.64a12.58 12.58 0 0 1-6.51 2.91c2 4.37 7.19 4.78 12.54 0.57 6.21-4.88 10.33-14.13 9.21-20.64zm0.11-27.85a1.29 1.29 0 0 0-0.4-0.16l-3.82-0.86a2.08 2.08 0 0 0-2.17 1l-3.6 6.86a3.07 3.07 0 0 1-0.8 0.91 3.1 3.1 0 0 1-0.61 0.41l1.12 3.74a1.31 1.31 0 0 0 1.81 0.82 18.36 18.36 0 0 1 2.35-0.77 4.09 4.09 0 0 0 1.37-0.71 3 3 0 0 0 0.81-0.92l3.57-6.85a2.08 2.08 0 0 1 2.16-1l3.83 0.86a1.42 1.42 0 0 1 0.38 0.14zm-10.77 66.33a1.09 1.09 0 0 1-0.36-0.58l-1.24-4.29a1.3 1.3 0 0 0-1.81-0.82 17.39 17.39 0 0 1-2.35 0.77 3.08 3.08 0 0 0-0.74 0.31l0.17 0.55a1.08 1.08 0 0 0 0.49 0.66zm-7.33-62.86a0.88 0.88 0 0 0-0.42-0.11 1.09 1.09 0 0 0-0.7 0.27l-5.73 4.5a1.45 1.45 0 0 0-0.22 0.21 1.22 1.22 0 0 0-0.15 0.17 3.76 3.76 0 0 0-0.51 0.9l-0.07 0.22a2.62 2.62 0 0 0-0.15 0.93l0.34 5.45a4.35 4.35 0 0 1-0.89 2.64c-0.94 1.12-1.82 2.3-2.65 3.51a2.92 2.92 0 0 1-1.27 1 2.38 2.38 0 0 1-0.5 0.15 1 1 0 0 1-0.24 0 1.22 1.22 0 0 1-0.33 0l-3.68-0.18h-0.1a1.53 1.53 0 0 0-0.3 0 1.31 1.31 0 0 0-0.27 0.06 1.88 1.88 0 0 0-0.3 0.12 2.62 2.62 0 0 0-0.53 0.33 2.23 2.23 0 0 0-0.59 0.75l-3.46 7.76a1.47 1.47 0 0 0 0.58 1.86l4.09 2.36a1.83 1.83 0 0 1 0.09 1.06 35.4 35.4 0 0 0-0.64 3.7 4.6 4.6 0 0 1-1.24 2.52l-0.06 0.05-5 4.61a1.55 1.55 0 0 0-0.24 0.27 1.38 1.38 0 0 0-0.2 0.33 3 3 0 0 0-0.38 1.85l1 5.54a1.09 1.09 0 0 0 0.44 0.75l6 3.46a1.06 1.06 0 0 1-0.42-0.73l-1-5.54a2.57 2.57 0 0 1 0.06-1.06 3 3 0 0 1 0.79-1.44l5-4.61 0.06-0.06a4.67 4.67 0 0 0 1.24-2.51 33 33 0 0 1 0.64-3.7 1.87 1.87 0 0 0-1-2.06l-3-1.26a1.48 1.48 0 0 1-0.77-2l3.46-7.76a2.11 2.11 0 0 1 0.59-0.75 2.33 2.33 0 0 1 1.53-0.56l3.69 0.19a2.27 2.27 0 0 0 1.06-0.22 2.87 2.87 0 0 0 1.26-1c0.83-1.21 1.73-2.39 2.66-3.52a4.24 4.24 0 0 0 0.89-2.63l-0.34-5.45a2.44 2.44 0 0 1 0.14-0.94 3.1 3.1 0 0 1 0.95-1.49l5.73-4.5a1 1 0 0 1 1.13-0.16zm-8.59 57.84a2.55 2.55 0 0 0-0.6-2.42 9.76 9.76 0 0 1-1-1.21 1.48 1.48 0 0 0-2-0.46l-2.89 1.9-2.11 5.7a1.26 1.26 0 0 0 0.51 1.55l6.05 3.49a1.26 1.26 0 0 1-0.51-1.56z" opacity=".3"/><g fill="#6da5ea"><path d="m294.39 136.59-5 4.61a3 3 0 0 0-0.79 1.44l-6-3.47a3.66 3.66 0 0 1 0.3-0.8 1.38 1.38 0 0 1 0.2-0.33 1.55 1.55 0 0 1 0.24-0.27l5-4.61z"/><path d="m301.89 115.94a2.27 2.27 0 0 1-1.06 0.22l-3.69-0.19a2.33 2.33 0 0 0-1.53 0.56l-6-3.48a2.62 2.62 0 0 1 0.53-0.33 1.88 1.88 0 0 1 0.3-0.12 1.31 1.31 0 0 1 0.27-0.06 1.53 1.53 0 0 1 0.3 0h0.09l3.68 0.18a1.22 1.22 0 0 0 0.33 0h0.24a4.5 4.5 0 0 0 0.48-0.16z"/><path d="m340.08 102a1 1 0 0 0-1 0.12l-5.08 3.35a1.48 1.48 0 0 1-2-0.46 9.83 9.83 0 0 0-1-1.21 2.51 2.51 0 0 1-0.59-2.42l0.48-1.29 2.11-1.43a1 1 0 0 1 1.06-0.1z"/><path d="m332.38 92.8a1.42 1.42 0 0 0-0.38-0.14l-3.83-0.86a2.08 2.08 0 0 0-2.16 1l-3.59 6.86a3 3 0 0 1-0.81 0.92l-6-3.49a3.07 3.07 0 0 0 0.8-0.91l3.6-6.86a2.08 2.08 0 0 1 2.17-1l3.82 0.86a1.29 1.29 0 0 1 0.4 0.16z"/><path d="m314.31 96.28a1 1 0 0 0-1.13 0.16l-5.73 4.5a3.1 3.1 0 0 0-0.95 1.49l-6-3.47 0.07-0.22a3.76 3.76 0 0 1 0.51-0.9 1.22 1.22 0 0 1 0.15-0.17 1.45 1.45 0 0 1 0.22-0.21l5.73-4.5a1.09 1.09 0 0 1 0.7-0.27 0.88 0.88 0 0 1 0.42 0.11z"/><path d="m341.51 108.33-0.95-5.54a0.91 0.91 0 0 0-1.51-0.65l-5.05 3.33a1.47 1.47 0 0 1-2-0.46 11.83 11.83 0 0 0-1-1.21 2.5 2.5 0 0 1-0.59-2.41l2.58-7a1.28 1.28 0 0 0-0.94-1.74l-3.82-0.85a2.09 2.09 0 0 0-2.17 1l-3.59 6.85a3.75 3.75 0 0 1-2.17 1.63 19.71 19.71 0 0 0-2.36 0.78 1.31 1.31 0 0 1-1.81-0.82l-1.34-4.24a1 1 0 0 0-1.61-0.51l-5.73 4.5a3.22 3.22 0 0 0-1.09 2.43l0.34 5.45a4.35 4.35 0 0 1-0.89 2.64 43.86 43.86 0 0 0-2.66 3.52 3 3 0 0 1-2.33 1.18l-3.68-0.18a2.34 2.34 0 0 0-2.11 1.29l-3.47 7.68a1.49 1.49 0 0 0 0.77 2l3 1.27a1.85 1.85 0 0 1 1 2 35 35 0 0 0-0.64 3.7 4.6 4.6 0 0 1-1.24 2.51l-5.07 4.67a3.08 3.08 0 0 0-0.86 2.5l1 5.53a0.91 0.91 0 0 0 1.51 0.66l5.07-3.34a1.48 1.48 0 0 1 2 0.46 9.76 9.76 0 0 0 1 1.21 2.5 2.5 0 0 1 0.6 2.42l-2.59 7a1.28 1.28 0 0 0 1 1.74l3.82 0.85a2.06 2.06 0 0 0 2.17-1l3.59-6.85a3.83 3.83 0 0 1 2.17-1.63 17.47 17.47 0 0 0 2.35-0.78 1.31 1.31 0 0 1 1.81 0.83l1.29 4.29a1 1 0 0 0 1.62 0.51l5.73-4.5a3.25 3.25 0 0 0 1.09-2.43l-0.35-5.45a4.35 4.35 0 0 1 0.89-2.64 43.86 43.86 0 0 0 2.66-3.52 3 3 0 0 1 2.33-1.18l3.69 0.18a2.36 2.36 0 0 0 2.11-1.3l3.46-7.76a1.46 1.46 0 0 0-0.77-2l-3-1.27a1.83 1.83 0 0 1-1-2.05 35.78 35.78 0 0 0 0.63-3.7 4.67 4.67 0 0 1 1.24-2.52l5.08-4.67a3.07 3.07 0 0 0 0.79-2.41zm-24.46 29.49c-6.21 4.88-12.15 3.55-13.27-3s3-15.76 9.21-20.64 12.14-3.55 13.27 3-3 15.76-9.21 20.64z"/></g><path d="m341.51 108.33-0.95-5.54a0.91 0.91 0 0 0-1.51-0.65l-5.05 3.33a1.47 1.47 0 0 1-2-0.46 11.83 11.83 0 0 0-1-1.21 2.5 2.5 0 0 1-0.59-2.41l2.58-7a1.28 1.28 0 0 0-0.94-1.74l-3.82-0.85a2.09 2.09 0 0 0-2.17 1l-3.59 6.85a3.75 3.75 0 0 1-2.17 1.63 19.71 19.71 0 0 0-2.36 0.78 1.31 1.31 0 0 1-1.81-0.82l-1.34-4.24a1 1 0 0 0-1.61-0.51l-5.73 4.5a3.22 3.22 0 0 0-1.09 2.43l0.34 5.45a4.35 4.35 0 0 1-0.89 2.64 43.86 43.86 0 0 0-2.66 3.52 3 3 0 0 1-2.33 1.18l-3.68-0.18a2.34 2.34 0 0 0-2.11 1.29l-3.47 7.68a1.49 1.49 0 0 0 0.77 2l3 1.27a1.85 1.85 0 0 1 1 2 35 35 0 0 0-0.64 3.7 4.6 4.6 0 0 1-1.24 2.51l-5.07 4.67a3.08 3.08 0 0 0-0.86 2.5l1 5.53a0.91 0.91 0 0 0 1.51 0.66l5.07-3.34a1.48 1.48 0 0 1 2 0.46 9.76 9.76 0 0 0 1 1.21 2.5 2.5 0 0 1 0.6 2.42l-2.59 7a1.28 1.28 0 0 0 1 1.74l3.82 0.85a2.06 2.06 0 0 0 2.17-1l3.59-6.85a3.83 3.83 0 0 1 2.17-1.63 17.47 17.47 0 0 0 2.35-0.78 1.31 1.31 0 0 1 1.81 0.83l1.29 4.29a1 1 0 0 0 1.62 0.51l5.73-4.5a3.25 3.25 0 0 0 1.09-2.43l-0.35-5.45a4.35 4.35 0 0 1 0.89-2.64 43.86 43.86 0 0 0 2.66-3.52 3 3 0 0 1 2.33-1.18l3.69 0.18a2.36 2.36 0 0 0 2.11-1.3l3.46-7.76a1.46 1.46 0 0 0-0.77-2l-3-1.27a1.83 1.83 0 0 1-1-2.05 35.78 35.78 0 0 0 0.63-3.7 4.67 4.67 0 0 1 1.24-2.52l5.08-4.67a3.07 3.07 0 0 0 0.79-2.41zm-24.46 29.49c-6.21 4.88-12.15 3.55-13.27-3s3-15.76 9.21-20.64 12.14-3.55 13.27 3-3 15.76-9.21 20.64z" opacity=".2"/><path d="m397.43 76.88a0.6 0.6 0 0 0-0.65 0.06l-1.33 0.88-0.3 0.8a1.53 1.53 0 0 0 0.36 1.48 6.43 6.43 0 0 1 0.61 0.75 0.9 0.9 0 0 0 1.25 0.27l3.12-2a0.63 0.63 0 0 1 0.64-0.06zm-4.8 11.45c-0.44-2.53-2-3.79-4.13-3.62a6.83 6.83 0 0 1 0.43 1.48c0.69 4-1.85 9.69-5.66 12.69a7.76 7.76 0 0 1-4 1.78c1.25 2.69 4.42 2.94 7.71 0.35 3.81-3.01 6.34-8.68 5.65-12.68zm0.07-17.11a0.82 0.82 0 0 0-0.25-0.1l-2.34-0.52a1.25 1.25 0 0 0-1.33 0.61l-2.22 4.21a1.71 1.71 0 0 1-0.49 0.56 2 2 0 0 1-0.38 0.26l0.69 2.3a0.8 0.8 0 0 0 1.11 0.5 9.76 9.76 0 0 1 1.45-0.47 2.67 2.67 0 0 0 0.83-0.44 1.77 1.77 0 0 0 0.5-0.57l2.21-4.21a1.29 1.29 0 0 1 1.33-0.62l2.35 0.53a0.85 0.85 0 0 1 0.24 0.09zm-6.62 40.78a0.79 0.79 0 0 1-0.22-0.36l-0.79-2.64a0.8 0.8 0 0 0-1.11-0.5 9.4 9.4 0 0 1-1.45 0.47 2.16 2.16 0 0 0-0.45 0.19l0.1 0.34a0.7 0.7 0 0 0 0.3 0.41zm-4.5-38.63a0.59 0.59 0 0 0-0.26-0.07 0.66 0.66 0 0 0-0.43 0.17l-3.52 2.76-0.14 0.13-0.09 0.11a2.45 2.45 0 0 0-0.31 0.55v0.14a1.64 1.64 0 0 0-0.09 0.56l0.21 3.35a2.6 2.6 0 0 1-0.55 1.62 26.7 26.7 0 0 0-1.63 2.17 1.77 1.77 0 0 1-0.77 0.59 1.39 1.39 0 0 1-0.31 0.1h-0.15a0.69 0.69 0 0 1-0.2 0l-2.34-0.1h-0.35l-0.18 0.08a1.38 1.38 0 0 0-0.33 0.2 1.44 1.44 0 0 0-0.36 0.46l-2.17 4.81a0.91 0.91 0 0 0 0.36 1.15l2.51 1.44a1.15 1.15 0 0 1 0.06 0.66 20.81 20.81 0 0 0-0.4 2.27 2.78 2.78 0 0 1-0.76 1.55l-3.12 2.93-0.15 0.17a0.86 0.86 0 0 0-0.13 0.2 1.81 1.81 0 0 0-0.23 1.14l0.59 3.4a0.65 0.65 0 0 0 0.27 0.46l3.69 2.13a0.67 0.67 0 0 1-0.3-0.5l-0.58-3.4a1.6 1.6 0 0 1 0-0.65 1.84 1.84 0 0 1 0.49-0.89l3.08-2.84a2.88 2.88 0 0 0 0.76-1.54q0.13-1.12 0.39-2.28a1.14 1.14 0 0 0-0.62-1.26l-1.83-0.77a0.92 0.92 0 0 1-0.48-1.21l2.13-4.77a1.31 1.31 0 0 1 0.36-0.46 1.42 1.42 0 0 1 0.94-0.34l2.26 0.11a1.58 1.58 0 0 0 0.66-0.13 1.72 1.72 0 0 0 0.77-0.6c0.51-0.74 1.06-1.47 1.64-2.16a2.63 2.63 0 0 0 0.54-1.62l-0.21-3.34a1.52 1.52 0 0 1 0.09-0.58 1.86 1.86 0 0 1 0.59-0.92l3.51-2.77a0.6 0.6 0 0 1 0.7-0.09zm-5.28 35.54a1.56 1.56 0 0 0-0.37-1.48 6.36 6.36 0 0 1-0.6-0.75 0.9 0.9 0 0 0-1.25-0.28l-1.78 1.17-1.3 3.5a0.77 0.77 0 0 0 0.32 1l3.72 2.14a0.78 0.78 0 0 1-0.32-1z" fill="#6da5ea"/><path d="m397.43 76.88a0.6 0.6 0 0 0-0.65 0.06l-1.33 0.88-0.3 0.8a1.53 1.53 0 0 0 0.36 1.48 6.43 6.43 0 0 1 0.61 0.75 0.9 0.9 0 0 0 1.25 0.27l3.12-2a0.63 0.63 0 0 1 0.64-0.06zm-4.8 11.45c-0.44-2.53-2-3.79-4.13-3.62a6.83 6.83 0 0 1 0.43 1.48c0.69 4-1.85 9.69-5.66 12.69a7.76 7.76 0 0 1-4 1.78c1.25 2.69 4.42 2.94 7.71 0.35 3.81-3.01 6.34-8.68 5.65-12.68zm0.07-17.11a0.82 0.82 0 0 0-0.25-0.1l-2.34-0.52a1.25 1.25 0 0 0-1.33 0.61l-2.22 4.21a1.71 1.71 0 0 1-0.49 0.56 2 2 0 0 1-0.38 0.26l0.69 2.3a0.8 0.8 0 0 0 1.11 0.5 9.76 9.76 0 0 1 1.45-0.47 2.67 2.67 0 0 0 0.83-0.44 1.77 1.77 0 0 0 0.5-0.57l2.21-4.21a1.29 1.29 0 0 1 1.33-0.62l2.35 0.53a0.85 0.85 0 0 1 0.24 0.09zm-6.62 40.78a0.79 0.79 0 0 1-0.22-0.36l-0.79-2.64a0.8 0.8 0 0 0-1.11-0.5 9.4 9.4 0 0 1-1.45 0.47 2.16 2.16 0 0 0-0.45 0.19l0.1 0.34a0.7 0.7 0 0 0 0.3 0.41zm-4.5-38.63a0.59 0.59 0 0 0-0.26-0.07 0.66 0.66 0 0 0-0.43 0.17l-3.52 2.76-0.14 0.13-0.09 0.11a2.45 2.45 0 0 0-0.31 0.55v0.14a1.64 1.64 0 0 0-0.09 0.56l0.21 3.35a2.6 2.6 0 0 1-0.55 1.62 26.7 26.7 0 0 0-1.63 2.17 1.77 1.77 0 0 1-0.77 0.59 1.39 1.39 0 0 1-0.31 0.1h-0.15a0.69 0.69 0 0 1-0.2 0l-2.34-0.1h-0.35l-0.18 0.08a1.38 1.38 0 0 0-0.33 0.2 1.44 1.44 0 0 0-0.36 0.46l-2.17 4.81a0.91 0.91 0 0 0 0.36 1.15l2.51 1.44a1.15 1.15 0 0 1 0.06 0.66 20.81 20.81 0 0 0-0.4 2.27 2.78 2.78 0 0 1-0.76 1.55l-3.12 2.93-0.15 0.17a0.86 0.86 0 0 0-0.13 0.2 1.81 1.81 0 0 0-0.23 1.14l0.59 3.4a0.65 0.65 0 0 0 0.27 0.46l3.69 2.13a0.67 0.67 0 0 1-0.3-0.5l-0.58-3.4a1.6 1.6 0 0 1 0-0.65 1.84 1.84 0 0 1 0.49-0.89l3.08-2.84a2.88 2.88 0 0 0 0.76-1.54q0.13-1.12 0.39-2.28a1.14 1.14 0 0 0-0.62-1.26l-1.83-0.77a0.92 0.92 0 0 1-0.48-1.21l2.13-4.77a1.31 1.31 0 0 1 0.36-0.46 1.42 1.42 0 0 1 0.94-0.34l2.26 0.11a1.58 1.58 0 0 0 0.66-0.13 1.72 1.72 0 0 0 0.77-0.6c0.51-0.74 1.06-1.47 1.64-2.16a2.63 2.63 0 0 0 0.54-1.62l-0.21-3.34a1.52 1.52 0 0 1 0.09-0.58 1.86 1.86 0 0 1 0.59-0.92l3.51-2.77a0.6 0.6 0 0 1 0.7-0.09zm-5.28 35.54a1.56 1.56 0 0 0-0.37-1.48 6.36 6.36 0 0 1-0.6-0.75 0.9 0.9 0 0 0-1.25-0.28l-1.78 1.17-1.3 3.5a0.77 0.77 0 0 0 0.32 1l3.72 2.14a0.78 0.78 0 0 1-0.32-1z" opacity=".3"/><g fill="#6da5ea"><path d="m373.05 100.25-3.05 2.84a1.84 1.84 0 0 0-0.49 0.89l-3.69-2.14a2.22 2.22 0 0 1 0.18-0.49 0.86 0.86 0 0 1 0.13-0.2l0.15-0.17 3.09-2.83z"/><path d="m377.66 87.57a1.58 1.58 0 0 1-0.66 0.13l-2.26-0.11a1.42 1.42 0 0 0-0.94 0.34l-3.7-2.14a1.38 1.38 0 0 1 0.33-0.2l0.18-0.08h0.39l2.26 0.11a0.69 0.69 0 0 0 0.2 0h0.15l0.29-0.1z"/><path d="m401.13 79a0.6 0.6 0 0 0-0.64 0.08l-3.12 2a0.92 0.92 0 0 1-1.25-0.29 5.45 5.45 0 0 0-0.61-0.74 1.55 1.55 0 0 1-0.36-1.49l0.3-0.79 1.33-0.88a0.59 0.59 0 0 1 0.65-0.06z"/><path d="m396.4 73.35a0.85 0.85 0 0 0-0.24-0.09l-2.35-0.53a1.29 1.29 0 0 0-1.33 0.62l-2.21 4.21a1.77 1.77 0 0 1-0.5 0.57l-3.7-2.13a1.71 1.71 0 0 0 0.49-0.56l2.22-4.21a1.25 1.25 0 0 1 1.33-0.61l2.34 0.52a0.82 0.82 0 0 1 0.25 0.1z"/><path d="m385.29 75.49a0.6 0.6 0 0 0-0.7 0.09l-3.51 2.77a1.86 1.86 0 0 0-0.59 0.92l-3.7-2.13v-0.14a2.45 2.45 0 0 1 0.31-0.55l0.09-0.11 0.14-0.13 3.52-2.76a0.66 0.66 0 0 1 0.43-0.17 0.59 0.59 0 0 1 0.26 0.07z"/><path d="m402 82.89-0.59-3.4a0.56 0.56 0 0 0-0.93-0.4l-3.12 2a0.91 0.91 0 0 1-1.25-0.29 7.18 7.18 0 0 0-0.6-0.74 1.51 1.51 0 0 1-0.37-1.48l1.59-4.3a0.78 0.78 0 0 0-0.58-1.07l-2.35-0.52a1.26 1.26 0 0 0-1.33 0.61l-2.21 4.21a2.31 2.31 0 0 1-1.33 1 10.69 10.69 0 0 0-1.45 0.48 0.8 0.8 0 0 1-1.11-0.51l-0.79-2.63a0.59 0.59 0 0 0-1-0.32l-3.52 2.77a2 2 0 0 0-0.66 1.49l0.21 3.35a2.64 2.64 0 0 1-0.55 1.62c-0.58 0.69-1.12 1.42-1.64 2.17a1.79 1.79 0 0 1-1.43 0.72l-2.26-0.11a1.46 1.46 0 0 0-1.3 0.8l-2.13 4.77a0.91 0.91 0 0 0 0.48 1.2l1.82 0.78a1.14 1.14 0 0 1 0.63 1.26q-0.25 1.16-0.39 2.28a2.88 2.88 0 0 1-0.76 1.54l-3.08 2.92a1.87 1.87 0 0 0-0.52 1.54l0.52 3.37a0.56 0.56 0 0 0 0.93 0.4l3.12-2.05a0.9 0.9 0 0 1 1.25 0.28 7.58 7.58 0 0 0 0.6 0.75 1.51 1.51 0 0 1 0.37 1.48l-1.59 4.3a0.79 0.79 0 0 0 0.58 1.07l2.35 0.52a1.26 1.26 0 0 0 1.33-0.62l2.21-4.2a2.32 2.32 0 0 1 1.33-1 12.2 12.2 0 0 0 1.45-0.47 0.79 0.79 0 0 1 1.11 0.5l0.79 2.64a0.59 0.59 0 0 0 1 0.31l3.52-2.77a2 2 0 0 0 0.67-1.49l-0.21-3.35a2.63 2.63 0 0 1 0.54-1.62 26.66 26.66 0 0 0 1.64-2.16 1.84 1.84 0 0 1 1.43-0.73l2.26 0.12a1.48 1.48 0 0 0 1.3-0.8l2.13-4.77a0.91 0.91 0 0 0-0.48-1.21l-1.82-0.78a1.14 1.14 0 0 1-0.63-1.26 20.34 20.34 0 0 0 0.39-2.27 2.91 2.91 0 0 1 0.76-1.55l3.12-2.86a1.92 1.92 0 0 0 0.55-1.52zm-15 18.11c-3.81 3-7.46 2.18-8.15-1.82s1.84-9.69 5.66-12.69 7.46-2.18 8.15 1.83-1.87 9.68-5.66 12.68z"/></g><path d="m402 82.89-0.59-3.4a0.56 0.56 0 0 0-0.93-0.4l-3.12 2a0.91 0.91 0 0 1-1.25-0.29 7.18 7.18 0 0 0-0.6-0.74 1.51 1.51 0 0 1-0.37-1.48l1.59-4.3a0.78 0.78 0 0 0-0.58-1.07l-2.35-0.52a1.26 1.26 0 0 0-1.33 0.61l-2.21 4.21a2.31 2.31 0 0 1-1.33 1 10.69 10.69 0 0 0-1.45 0.48 0.8 0.8 0 0 1-1.11-0.51l-0.79-2.63a0.59 0.59 0 0 0-1-0.32l-3.52 2.77a2 2 0 0 0-0.66 1.49l0.21 3.35a2.64 2.64 0 0 1-0.55 1.62c-0.58 0.69-1.12 1.42-1.64 2.17a1.79 1.79 0 0 1-1.43 0.72l-2.26-0.11a1.46 1.46 0 0 0-1.3 0.8l-2.13 4.77a0.91 0.91 0 0 0 0.48 1.2l1.82 0.78a1.14 1.14 0 0 1 0.63 1.26q-0.25 1.16-0.39 2.28a2.88 2.88 0 0 1-0.76 1.54l-3.08 2.92a1.87 1.87 0 0 0-0.52 1.54l0.52 3.37a0.56 0.56 0 0 0 0.93 0.4l3.12-2.05a0.9 0.9 0 0 1 1.25 0.28 7.58 7.58 0 0 0 0.6 0.75 1.51 1.51 0 0 1 0.37 1.48l-1.59 4.3a0.79 0.79 0 0 0 0.58 1.07l2.35 0.52a1.26 1.26 0 0 0 1.33-0.62l2.21-4.2a2.32 2.32 0 0 1 1.33-1 12.2 12.2 0 0 0 1.45-0.47 0.79 0.79 0 0 1 1.11 0.5l0.79 2.64a0.59 0.59 0 0 0 1 0.31l3.52-2.77a2 2 0 0 0 0.67-1.49l-0.21-3.35a2.63 2.63 0 0 1 0.54-1.62 26.66 26.66 0 0 0 1.64-2.16 1.84 1.84 0 0 1 1.43-0.73l2.26 0.12a1.48 1.48 0 0 0 1.3-0.8l2.13-4.77a0.91 0.91 0 0 0-0.48-1.21l-1.82-0.78a1.14 1.14 0 0 1-0.63-1.26 20.34 20.34 0 0 0 0.39-2.27 2.91 2.91 0 0 1 0.76-1.55l3.12-2.86a1.92 1.92 0 0 0 0.55-1.52zm-15 18.11c-3.81 3-7.46 2.18-8.15-1.82s1.84-9.69 5.66-12.69 7.46-2.18 8.15 1.83-1.87 9.68-5.66 12.68z" opacity=".2"/><path d="m73.8 366.39c0 3.36 2.52 7.53 5.62 9.32l122.18 70.56a12.39 12.39 0 0 0 11.22 0l215.18-124.22c3.1-1.79 5.61-6 5.61-9.32s-2.51-7.53-5.61-9.32l-122.21-70.55a12.39 12.39 0 0 0-11.22 0l-215.15 124.21c-3.1 1.79-5.62 5.93-5.62 9.32z" fill="#37474f"/><path d="m79.42 363.55 122.18 70.56a12.39 12.39 0 0 0 11.22 0l215.18-124.22c3.1-1.79 3.1-4.69 0-6.48l-122.21-70.55a12.39 12.39 0 0 0-11.22 0l-215.15 124.21c-3.1 1.79-3.1 4.69 0 6.48z" fill="#455a64"/><path d="m207.21 435.46v12.14a11.49 11.49 0 0 1-5.61-1.33l-122.19-70.56c-3.09-1.79-5.61-6-5.61-9.32 0-3.15 2.22-7 5-8.95-2.51 1.8-2.32 4.44 0.57 6.11l122.23 70.56a11.39 11.39 0 0 0 5.61 1.35z" fill="#263238"/><path d="m300.18 54.38v168.75a12.35 12.35 0 0 1-5.62 9.72l-215.14 124.22a4.22 4.22 0 0 1-0.67 0.34h-0.06l-0.35 0.15a10.84 10.84 0 0 1-9.63-1.16c-2.8-2.12-2.92-3.47-2.92-7.24v-168.75a12.46 12.46 0 0 1 5.61-9.71l215.15-124.22c3.1-1.78 8-1.88 10.87-0.21s2.76 4.52 2.76 8.11z" fill="#37474f"/><path d="m300.18 54.37c0-3.58-2.52-5-5.61-3.24l-215.16 124.22a11.28 11.28 0 0 0-4 4.19l-8-4.65a11.58 11.58 0 0 1 4-4.2l215.14-124.21c3.1-1.79 8-1.88 10.87-0.2s2.76 4.51 2.76 8.09z" fill="#455a64"/><path d="m78.69 357.44-0.35 0.15a10.84 10.84 0 0 1-9.63-1.16c-2.8-2.12-2.92-3.47-2.92-7.24v-168.78a11.29 11.29 0 0 1 1.65-5.52l8 4.64a11.54 11.54 0 0 0-1.65 5.52v168.79c0.01 3.28 2.14 4.78 4.9 3.6z" fill="#263238"/><path d="m82.43 181.82 207.44-119.73c1.86-1.07 3.36-0.2 3.36 2v152.08a7.45 7.45 0 0 1-3.36 5.84l-207.44 119.72c-1.86 1.08-3.36 0.21-3.36-1.94v-152.14a7.44 7.44 0 0 1 3.36-5.83z" fill="#6da5ea"/><path d="m82.43 181.82 207.44-119.73c1.86-1.07 3.36-0.2 3.36 2v152.08a7.45 7.45 0 0 1-3.36 5.84l-207.44 119.72c-1.86 1.08-3.36 0.21-3.36-1.94v-152.14a7.44 7.44 0 0 1 3.36-5.83z" opacity=".3"/><path d="m95 357.4 199.7-115.29a6.17 6.17 0 0 1 5.61 0l3.33 1.82c1.55 0.9 1.55 2.35 0 3.24l-199.79 115.28a6.17 6.17 0 0 1-5.61 0l-3.24-1.81c-1.6-0.89-1.6-2.34 0-3.24z" fill="#37474f"/><path d="m110.61 366.72 199.7-115.3a5.71 5.71 0 0 1 5.13-0.28l52 30c1.28 0.74 1.07 2.07-0.48 3l-199.5 115.11a5.71 5.71 0 0 1-5.13 0.29l-52.2-29.87c-1.28-0.74-1.07-2.06 0.48-2.95z" fill="#263238"/><path d="m283.66 299.85 6.25-3.61c0.26-0.16 0.29-0.39 0-0.53l-6-3.45a1 1 0 0 0-0.91 0l-6.25 3.61c-0.27 0.15-0.29 0.39-0.05 0.52l6 3.46a1 1 0 0 0 0.96 0zm-9.13-12.5-6.26 3.65c-0.26 0.16-0.29 0.39 0 0.53l6 3.45a1 1 0 0 0 0.91 0l6.25-3.61c0.27-0.15 0.29-0.39 0.06-0.52l-6-3.46a1 1 0 0 0-0.96-0.04zm-20.21 11.65-10.58 6.11c-0.26 0.15-0.29 0.39-0.05 0.52l6 3.46a1 1 0 0 0 0.91 0l10.58-6.1c0.27-0.16 0.29-0.39 0-0.53l-6-3.45a1 1 0 0 0-0.86-0.01zm11.07-6.39-6.26 3.61c-0.26 0.15-0.29 0.39-0.05 0.52l6 3.46a1 1 0 0 0 0.91 0l6.25-3.61c0.27-0.16 0.29-0.39 0.06-0.53l-6-3.45a1 1 0 0 0-0.91 0.02zm-24.53 14.16-6.26 3.61c-0.26 0.16-0.29 0.39 0 0.53l6 3.45a1 1 0 0 0 0.91 0l6.25-3.61c0.27-0.15 0.29-0.39 0.06-0.52l-6-3.46a1 1 0 0 0-0.96 0.02zm-9.14 5.28-6.25 3.61c-0.27 0.15-0.29 0.39-0.06 0.52l6 3.46a1 1 0 0 0 0.91 0l6.26-3.61c0.26-0.16 0.28-0.39 0.05-0.53l-6-3.45a1 1 0 0 0-0.91 0.02zm23.45 14.09 6.25-3.61c0.26-0.15 0.29-0.39 0.05-0.52l-6-3.46a1 1 0 0 0-0.91 0l-6.25 3.6c-0.27 0.16-0.29 0.39-0.06 0.53l6 3.45a1 1 0 0 0 0.92 0.03zm-9.17 5.3 6.25-3.61c0.27-0.16 0.29-0.39 0.05-0.53l-6-3.45a1 1 0 0 0-0.91 0l-6.25 3.61c-0.27 0.15-0.29 0.39-0.05 0.53l6 3.45a1 1 0 0 0 0.91 0zm-9.14 5.27 6.25-3.61c0.27-0.15 0.29-0.38 0.05-0.52l-6-3.45a1 1 0 0 0-0.91 0l-6.25 3.61c-0.26 0.15-0.29 0.39-0.05 0.52l6 3.46a1 1 0 0 0 0.94-0.01zm-9.11 5.29 6.25-3.61c0.27-0.15 0.29-0.39 0.06-0.52l-6-3.46a1 1 0 0 0-0.9 0l-6.25 3.59c-0.26 0.16-0.29 0.39 0 0.53l6 3.45a1 1 0 0 0 0.84 0.02zm46.77-36.87 6.25-3.61c0.26-0.15 0.29-0.39 0.05-0.52l-6-3.46a1 1 0 0 0-0.91 0l-6.25 3.61c-0.27 0.16-0.29 0.39-0.05 0.53l6 3.45a1 1 0 0 0 0.91-0.01zm-10.22 15.76 13.95-8.06c0.27-0.15 0.29-0.39 0.06-0.52l-14.53-8.39a1 1 0 0 0-0.91 0l-7.21 4.17c-0.27 0.15-0.29 0.39-0.06 0.52l7.69 4.44c0.24 0.14 0.21 0.37-0.05 0.53l-5.77 3.33c-0.27 0.15-0.29 0.39-0.06 0.52l6 3.46a1 1 0 0 0 0.89 0zm-41.72-3.54-6.25 3.65c-0.27 0.15-0.29 0.38-0.06 0.52l6 3.45a1 1 0 0 0 0.9 0l6.26-3.61c0.26-0.15 0.29-0.39 0.05-0.52l-6-3.46a1 1 0 0 0-0.9-0.03zm-9.14 5.27-6.25 3.61c-0.27 0.16-0.29 0.39-0.06 0.53l6 3.45a1 1 0 0 0 0.9 0l6.26-3.61c0.26-0.15 0.29-0.39 0.05-0.53l-6-3.45a1 1 0 0 0-0.9 0zm-50.57 56.38a1 1 0 0 0 0.91 0l6.25-3.61c0.27-0.15 0.29-0.38 0.06-0.52l-6-3.45a1 1 0 0 0-0.91 0l-6.24 3.58c-0.26 0.15-0.29 0.38-0.05 0.52zm-22.54-14.13-6.25 3.61c-0.27 0.15-0.29 0.39-0.05 0.53l6 3.45a1 1 0 0 0 0.91 0l6.25-3.61c0.26-0.15 0.29-0.39 0.05-0.53l-6-3.45a1 1 0 0 0-0.91-0.04zm11.59 10.58a1 1 0 0 0 0.91 0l6.25-3.61c0.27-0.15 0.29-0.39 0-0.53l-6-3.45a1 1 0 0 0-0.91 0l-6.17 3.57c-0.26 0.16-0.29 0.39-0.05 0.53zm25.21 5.67 6.26-3.61c0.26-0.15 0.29-0.39 0.05-0.52l-6-3.46a1 1 0 0 0-0.91 0l-6.25 3.61c-0.27 0.16-0.29 0.39-0.06 0.53l6 3.45a1 1 0 0 0 0.91-0.04zm-10 5.31a1 1 0 0 0 0.91 0l6.25-3.61c0.26-0.16 0.29-0.39 0.05-0.53l-6-3.45a1 1 0 0 0-0.91 0l-6.25 3.61c-0.27 0.15-0.29 0.39 0 0.52zm-17.62-26.83-6.25 3.61c-0.27 0.15-0.29 0.38-0.06 0.52l6 3.45a1 1 0 0 0 0.9 0l6.26-3.61c0.26-0.15 0.29-0.39 0.05-0.52l-6-3.46a1 1 0 0 0-0.94-0.03zm45.69-26.39-6.25 3.61c-0.26 0.16-0.29 0.39 0 0.53l6 3.45a1 1 0 0 0 0.91 0l6.25-3.61c0.27-0.15 0.29-0.39 0.05-0.52l-6-3.46a1 1 0 0 0-1-0.04zm-36.55 21.11-6.25 3.61c-0.27 0.15-0.29 0.39-0.06 0.52l6 3.46a1 1 0 0 0 0.91 0l6.26-3.61c0.26-0.16 0.29-0.39 0.05-0.53l-6-3.45a1 1 0 0 0-0.95-0.04zm45.65-26.42-6.25 3.61c-0.27 0.15-0.29 0.39-0.05 0.52l6 3.46a1 1 0 0 0 0.91 0l6.25-3.61c0.26-0.16 0.29-0.39 0.05-0.53l-6-3.45a1 1 0 0 0-0.91 0zm-18.3 10.55-6.26 3.61c-0.26 0.15-0.29 0.39-0.05 0.53l6 3.45a1 1 0 0 0 0.91 0l6.25-3.61c0.27-0.16 0.29-0.39 0.06-0.53l-6-3.45a1 1 0 0 0-0.91 0zm-9.14 5.28-6.26 3.61c-0.26 0.15-0.29 0.39 0 0.52l6 3.45a1 1 0 0 0 0.91 0l6.25-3.61c0.27-0.15 0.29-0.38 0.06-0.52l-6-3.45a1 1 0 0 0-0.93 0zm-9.11 5.27-6.25 3.61c-0.27 0.16-0.29 0.39-0.06 0.53l6 3.45a1 1 0 0 0 0.91 0l6.25-3.61c0.27-0.15 0.29-0.39 0.06-0.52l-6-3.46a1 1 0 0 0-0.91 0zm41.72 3.54 6.25-3.61c0.27-0.15 0.29-0.39 0.06-0.52l-6-3.46a1 1 0 0 0-0.91 0l-6.25 3.61c-0.27 0.15-0.29 0.38-0.06 0.52l6 3.45a1 1 0 0 0 0.91 0.01zm85.26-76.85-6.26 3.61c-0.26 0.15-0.29 0.39-0.05 0.53l6 3.45a1 1 0 0 0 0.91 0l6.25-3.61c0.27-0.15 0.29-0.39 0.06-0.53l-6-3.45a1 1 0 0 0-0.91 0zm-11.07 6.39-6.25 3.61c-0.26 0.15-0.29 0.39-0.05 0.52l6 3.46a1 1 0 0 0 0.91 0l6.23-3.67c0.27-0.16 0.29-0.39 0.05-0.53l-6-3.45a1 1 0 0 0-0.89 0.06zm20.21-11.66-6.26 3.58c-0.26 0.15-0.29 0.38-0.05 0.52l6 3.45a1 1 0 0 0 0.91 0l6.25-3.61c0.27-0.15 0.29-0.39 0.06-0.52l-6-3.46a1 1 0 0 0-0.91 0.04zm-50.52 46.92 6.26-3.61c0.26-0.15 0.29-0.39 0.05-0.52l-6-3.46a1 1 0 0 0-0.91 0l-6.25 3.61c-0.27 0.16-0.29 0.39-0.06 0.53l6 3.45a1 1 0 0 0 0.91 0zm60.56-52.23a1 1 0 0 0-0.91 0l-6.25 3.61c-0.26 0.15-0.29 0.39-0.05 0.52l6 3.46a1 1 0 0 0 0.91 0l6.25-3.61c0.27-0.16 0.29-0.39 0.05-0.53zm-95.3 82.16 6.25-3.61c0.27-0.16 0.29-0.39 0.06-0.53l-6-3.45a1 1 0 0 0-0.91 0l-6.26 3.61c-0.26 0.15-0.29 0.39-0.05 0.52l6 3.46a1 1 0 0 0 0.91 0zm112.07-64.71 6.25-3.61c0.27-0.15 0.29-0.38 0.06-0.52l-5.99-3.43a1 1 0 0 0-0.9 0l-6.26 3.61c-0.26 0.15-0.29 0.39 0 0.52l6 3.45a1 1 0 0 0 0.84-0.02zm-17.68 0.35 6.25-3.61c0.26-0.16 0.29-0.39 0.05-0.53l-6-3.45a1 1 0 0 0-0.91 0l-6.23 3.68c-0.27 0.15-0.29 0.39-0.06 0.52l6 3.46a1 1 0 0 0 0.9-0.07zm9.46-12.91a1 1 0 0 0-0.91 0l-6.25 3.61c-0.27 0.16-0.29 0.39-0.06 0.53l6 3.45a1 1 0 0 0 0.9 0l6.26-3.61c0.26-0.15 0.29-0.39 0.05-0.52zm1.92-1.11 14.53 8.39a1 1 0 0 0 0.91 0l6.25-3.61c0.27-0.16 0.29-0.39 0.05-0.53l-14.52-8.38a1 1 0 0 0-0.91 0l-6.25 3.61c-0.27 0.19-0.29 0.43-0.06 0.56zm-21.11 11.7-6.27 3.65c-0.27 0.15-0.29 0.38 0 0.52l6 3.45a1 1 0 0 0 0.91 0l6.25-3.61c0.26-0.15 0.29-0.39 0.05-0.52l-6-3.46a1 1 0 0 0-0.94 0.01zm-68.78 39.71-6.25 3.7c-0.27 0.15-0.29 0.38-0.05 0.52l6 3.45a1 1 0 0 0 0.91 0l6.25-3.61c0.26-0.15 0.29-0.39 0-0.52l-6-3.46a1 1 0 0 0-0.86-0.04zm86.14-32.47a1 1 0 0 0 0.91 0l6.25-3.61c0.27-0.15 0.29-0.39 0.06-0.52l-6-3.46a1 1 0 0 0-0.91 0l-6.26 3.61c-0.26 0.16-0.29 0.39-0.05 0.53zm-77 27.19-6.25 3.61c-0.27 0.15-0.29 0.39-0.06 0.52l6 3.46a1 1 0 0 0 0.9 0l6.26-3.61c0.26-0.16 0.29-0.39 0.05-0.53l-6-3.45a1 1 0 0 0-0.9 0.04zm-71.63 58.66a1 1 0 0 0 0.91 0l6.25-3.61c0.27-0.16 0.29-0.39 0.05-0.53l-6-3.45a1 1 0 0 0-0.91 0l-6.25 3.61c-0.26 0.15-0.29 0.39-0.05 0.52zm-10.63-11.13-6.25 3.61c-0.27 0.15-0.29 0.38 0 0.52l6 3.45a1 1 0 0 0 0.91 0l6.25-3.61c0.27-0.15 0.29-0.39 0.05-0.52l-6-3.46a1 1 0 0 0-0.95 0.01zm20.68 5.82 6.25-3.61c0.26-0.15 0.29-0.39 0.05-0.52l-6-3.46a1 1 0 0 0-0.91 0l-6.25 3.61c-0.27 0.16-0.29 0.39-0.05 0.53l6 3.45a1 1 0 0 0 0.92 0zm9.13-5.27 6.26-3.61c0.26-0.16 0.29-0.39 0.05-0.53l-6-3.45a1 1 0 0 0-0.91 0l-6.25 3.61c-0.27 0.15-0.29 0.39-0.06 0.52l6 3.46a1 1 0 0 0 0.92 0zm9.14-5.28 6.26-3.61c0.26-0.15 0.29-0.39 0-0.53l-6-3.45a1 1 0 0 0-0.91 0l-6.25 3.61c-0.27 0.16-0.29 0.39-0.06 0.53l6 3.45a1 1 0 0 0 0.97 0zm-29.81-0.55-6.25 3.61c-0.27 0.15-0.29 0.39-0.06 0.52l6 3.46a1 1 0 0 0 0.91 0l6.25-3.61c0.26-0.16 0.29-0.39 0-0.53l-6-3.45a1 1 0 0 0-0.84 0zm9.14-5.28-6.25 3.61c-0.27 0.16-0.29 0.39-0.06 0.53l6 3.45a1 1 0 0 0 0.9 0l6.26-3.61c0.26-0.15 0.29-0.39 0.05-0.52l-6-3.46a1 1 0 0 0-0.89 0.01zm36.56-21.1-6.21 3.61c-0.26 0.15-0.29 0.39-0.05 0.52l6 3.46a1 1 0 0 0 0.91 0l6.25-3.6c0.27-0.16 0.29-0.39 0.06-0.53l-6-3.45a1 1 0 0 0-0.95-0.01zm-9.14 5.27-6.26 3.61c-0.26 0.16-0.29 0.39 0 0.53l6 3.45a1 1 0 0 0 0.91 0l6.25-3.61c0.27-0.15 0.29-0.39 0.06-0.52l-6-3.46a1 1 0 0 0-0.95 0zm18.27-10.55-6.25 3.61c-0.26 0.16-0.29 0.39 0 0.53l6 3.45a1 1 0 0 0 0.91 0l6.25-3.61c0.27-0.15 0.29-0.39 0.05-0.53l-6-3.45a1 1 0 0 0-0.95 0zm-36.54 21.11-6.25 3.61c-0.27 0.15-0.29 0.39-0.06 0.52l6 3.45a1 1 0 0 0 0.91 0l6.26-3.61c0.26-0.15 0.29-0.38 0.05-0.52l-6-3.45a1 1 0 0 0-0.91 0zm9.14-5.28-6.26 3.61c-0.26 0.15-0.29 0.39-0.05 0.53l6 3.45a1 1 0 0 0 0.91 0l6.25-3.61c0.27-0.16 0.29-0.39 0.06-0.53l-6-3.45a1 1 0 0 0-0.91 0zm-11.67 34.36 6.26-3.61c0.26-0.15 0.29-0.38 0.05-0.52l-6-3.45a1 1 0 0 0-0.91 0l-6.25 3.61c-0.27 0.15-0.29 0.39-0.06 0.52l6 3.46a1 1 0 0 0 0.91-0.01zm-48.19-2.27-6-3.45a1 1 0 0 0-0.91 0l-6.25 3.61c-0.27 0.15-0.29 0.39 0 0.52l6 3.46a1 1 0 0 0 0.91 0l6.25-3.6c0.22-0.17 0.24-0.4 0-0.54zm11.92 3-6-3.45a1 1 0 0 0-0.9 0l-9.62 5.55c-0.27 0.16-0.29 0.39-0.06 0.53l6 3.45a1 1 0 0 0 0.91 0l9.62-5.56c0.26-0.16 0.28-0.39 0.05-0.53zm-20.85-9.81-6-3.45a1 1 0 0 0-0.91 0l-7.69 4.44c-0.27 0.15-0.29 0.39 0 0.52l6 3.46a1 1 0 0 0 0.91 0l7.69-4.45c0.22-0.16 0.24-0.39 0-0.53zm5.91-3.41a1 1 0 0 0 0.9 0l6.26-3.61c0.26-0.15 0.29-0.39 0.05-0.52l-6-3.46a1 1 0 0 0-0.91 0l-6.25 3.61c-0.27 0.16-0.29 0.39-0.06 0.53zm25.94 16.76-6-3.46a1 1 0 0 0-0.9 0l-12 6.95c-0.26 0.15-0.29 0.38-0.05 0.52l6 3.45a1 1 0 0 0 0.91 0l12-6.94c0.2-0.15 0.22-0.39 0.04-0.52zm4.21 7.43-6-3.45a1 1 0 0 0-0.91 0l-7.69 4.44c-0.27 0.15-0.29 0.39-0.06 0.52l6 3.46a1 1 0 0 0 0.9 0l7.7-4.45c0.23-0.15 0.25-0.38 0.01-0.52zm37.79-63.43a1 1 0 0 0 0.91 0l6.25-3.61c0.27-0.15 0.29-0.38 0.06-0.52l-6-3.46a1 1 0 0 0-0.9 0l-6.26 3.61c-0.26 0.15-0.29 0.38 0 0.52zm-18.28 10.56a1 1 0 0 0 0.91 0l6.26-3.62c0.26-0.15 0.28-0.38 0.05-0.52l-5.94-3.49a1 1 0 0 0-0.91 0l-6.25 3.61c-0.27 0.15-0.29 0.39-0.06 0.52zm-40.53 23.37a1 1 0 0 0 0.91 0l6.25-3.61c0.27-0.16 0.29-0.39 0.06-0.53l-6-3.45a1 1 0 0 0-0.91 0l-6.26 3.61c-0.26 0.15-0.28 0.39 0 0.52zm49.67-28.68a1 1 0 0 0 0.91 0l6.25-3.61c0.27-0.15 0.29-0.39 0.06-0.53l-6-3.45a1 1 0 0 0-0.91 0l-6.26 3.61c-0.26 0.16-0.29 0.39-0.05 0.53zm-18.27 10.58a1 1 0 0 0 0.9 0l6.26-3.61c0.26-0.15 0.29-0.39 0.05-0.52l-6-3.46a1 1 0 0 0-0.91 0l-6.25 3.61c-0.27 0.16-0.29 0.39-0.06 0.53zm-5.94 48a1 1 0 0 0-0.91 0l-9.62 5.55c-0.26 0.16-0.29 0.39-0.05 0.53l6 3.45a1 1 0 0 0 0.91 0l9.62-5.55c0.27-0.16 0.29-0.39 0-0.53zm-7.18-40.4a1 1 0 0 0 0.91 0l6.25-3.61c0.27-0.15 0.29-0.38 0.06-0.52l-6-3.46a1 1 0 0 0-0.9 0l-6.26 3.61c-0.26 0.15-0.29 0.38 0 0.52zm-9.14 5.28a1 1 0 0 0 0.91 0l6.25-3.61c0.27-0.15 0.29-0.39 0.06-0.52l-6-3.46a1 1 0 0 0-0.9 0l-6.26 3.61c-0.26 0.16-0.29 0.39-0.05 0.53zm185.67-62.66a1 1 0 0 0-0.91 0l-15.43 8.88c-0.27 0.15-0.29 0.39-0.06 0.52l6 3.46a1 1 0 0 0 0.9 0l15.39-8.88c0.27-0.16 0.29-0.39 0.06-0.53zm-20.2 11.66a1 1 0 0 0-0.91 0l-6.26 3.61c-0.26 0.16-0.29 0.39 0 0.53l6 3.45a1 1 0 0 0 0.91 0l6.25-3.61c0.27-0.15 0.29-0.39 0.06-0.52zm-123.39 68.75 6.25-3.61c0.27-0.15 0.29-0.39 0.06-0.53l-6-3.45a1 1 0 0 0-0.91 0l-6.25 3.61c-0.27 0.15-0.29 0.39-0.06 0.53l6 3.45a1 1 0 0 0 0.91 0zm105.07-58.19a1 1 0 0 0-0.91 0l-6.25 3.66c-0.27 0.15-0.29 0.38-0.06 0.52l6 3.45a1 1 0 0 0 0.9 0l6.26-3.61c0.26-0.15 0.29-0.38 0-0.52zm47.62-27.5a1 1 0 0 0-0.91 0l-6.26 3.61c-0.26 0.16-0.29 0.39-0.05 0.53l6 3.45a1 1 0 0 0 0.91 0l6.25-3.61c0.27-0.15 0.29-0.39 0.06-0.52zm15.12-1.84-14.53-8.39a1 1 0 0 0-0.91 0l-6.25 3.61c-0.27 0.16-0.29 0.39-0.06 0.53l14.53 8.44a1 1 0 0 0 0.91 0l6.25-3.61c0.27-0.19 0.29-0.42 0.06-0.58zm-96.89 49a1 1 0 0 0-0.91 0l-7.7 4.45c-0.26 0.15-0.29 0.38-0.05 0.52l6 3.45a1 1 0 0 0 0.91 0l7.7-4.44c0.26-0.15 0.29-0.39 0.05-0.52zm23.09-13.33a1 1 0 0 0-0.91 0l-9.62 5.56c-0.27 0.15-0.29 0.39-0.06 0.52l6 3.46a1 1 0 0 0 0.9 0l9.62-5.55c0.27-0.15 0.29-0.39 0.06-0.52zm-44.25 25.55a1 1 0 0 0-0.91 0l-51.47 29.78c-0.26 0.16-0.29 0.39 0 0.53l6 3.45a1 1 0 0 0 0.91 0l51.46-29.71c0.27-0.16 0.29-0.39 0.06-0.53zm-54.36 31.38a1 1 0 0 0-0.9 0l-7.7 4.44c-0.27 0.16-0.29 0.39-0.05 0.53l6 3.45a1 1 0 0 0 0.91 0l7.69-4.44c0.27-0.16 0.29-0.39 0.06-0.53zm64.94-37.49a1 1 0 0 0-0.91 0l-7.7 4.44c-0.26 0.16-0.29 0.39 0 0.53l6 3.45a1 1 0 0 0 0.91 0l7.7-4.44c0.26-0.15 0.28-0.39 0.05-0.53zm-75.52 43.6a1 1 0 0 0-0.91 0l-7.69 4.44c-0.27 0.16-0.29 0.39 0 0.53l6 3.45a1 1 0 0 0 0.91 0l7.69-4.44c0.27-0.16 0.29-0.39 0.05-0.53zm96.68-55.82a1 1 0 0 0-0.91 0l-7.69 4.45c-0.27 0.15-0.29 0.38-0.06 0.52l6 3.45a1 1 0 0 0 0.91 0l7.7-4.44c0.26-0.15 0.29-0.39 0.05-0.52zm32.71-18.88a1 1 0 0 0-0.91 0l-6.25 3.61c-0.27 0.15-0.29 0.39-0.06 0.52l6 3.46a1 1 0 0 0 0.91 0l6.25-3.61c0.27-0.16 0.29-0.39 0.06-0.53zm20.47-14.29 6.25-3.61c0.26-0.15 0.29-0.38 0.05-0.52l-6-3.45a1 1 0 0 0-0.91 0l-6.25 3.61c-0.27 0.15-0.29 0.39-0.05 0.52l6 3.45a1 1 0 0 0 0.91 0.05zm-37.3 1.8 6.26-3.61c0.26-0.15 0.29-0.39 0.05-0.53l-6-3.45a1 1 0 0 0-0.91 0l-6.19 3.69c-0.27 0.16-0.29 0.39-0.06 0.53l6 3.45a1 1 0 0 0 0.85-0.03zm-24.27 33.75 18.28-10.55c0.26-0.16 0.29-0.39 0.05-0.53l-6-3.45a1 1 0 0 0-0.91 0l-18.28 10.55c-0.26 0.16-0.29 0.39-0.05 0.53l6 3.45a1 1 0 0 0 0.91 0.05zm51.48-30.19a1 1 0 0 0 0.91 0l6.25-3.61c0.27-0.15 0.29-0.39 0.05-0.52l-6-3.46a1 1 0 0 0-0.91 0l-6.25 3.61c-0.26 0.16-0.29 0.39-0.05 0.53zm-7.64-5 6.26-3.61c0.26-0.16 0.28-0.39 0-0.53l-6-3.45a1 1 0 0 0-0.91 0l-6.25 3.61c-0.27 0.15-0.29 0.39-0.06 0.52l6 3.46a1 1 0 0 0 1 0.04zm-53 40.48 6.25-3.62c0.27-0.15 0.29-0.38 0.06-0.52l-6-3.45a1 1 0 0 0-0.91 0l-6.25 3.61c-0.27 0.15-0.29 0.39-0.06 0.52l6 3.46a1 1 0 0 0 0.93 0.04zm40.46-23.86a1 1 0 0 0 0.91 0l6.27-3.6c0.26-0.15 0.29-0.38 0.05-0.52l-6-3.45a1 1 0 0 0-0.91 0l-6.25 3.61c-0.27 0.15-0.29 0.38-0.05 0.52zm-86.13 50.3 6.25-3.61c0.27-0.16 0.29-0.39 0.06-0.53l-6-3.45a1 1 0 0 0-0.9 0l-6.25 3.59c-0.26 0.15-0.29 0.39 0 0.52l6 3.46a1 1 0 0 0 0.84 0.02zm9.14-5.28 6.25-3.61c0.27-0.15 0.29-0.39 0-0.52l-6-3.46a1 1 0 0 0-0.91 0l-6.17 3.62c-0.26 0.16-0.29 0.39-0.05 0.53l6 3.45a1 1 0 0 0 0.88-0.03zm-18.28 10.55 6.25-3.61c0.27-0.15 0.29-0.39 0.06-0.52l-6-3.46a1 1 0 0 0-0.9 0l-6.26 3.61c-0.26 0.15-0.29 0.38-0.05 0.52l6 3.45a1 1 0 0 0 0.9-0.01zm36.55-21.1 6.26-3.61c0.26-0.16 0.29-0.39 0-0.53l-6-3.45a1 1 0 0 0-0.91 0l-6.25 3.61c-0.27 0.15-0.29 0.39-0.06 0.52l6 3.46a1 1 0 0 0 0.96-0.02zm-9.1 5.25 6.25-3.61c0.26-0.15 0.29-0.38 0.05-0.52l-6-3.45a1 1 0 0 0-0.91 0l-6.25 3.61c-0.27 0.15-0.29 0.38 0 0.52l6 3.45a1 1 0 0 0 0.86 0zm18.27-10.55 6.26-3.61c0.26-0.15 0.29-0.39 0.05-0.52l-6-3.46a1 1 0 0 0-0.91 0l-6.25 3.61c-0.27 0.16-0.29 0.39-0.06 0.53l6 3.45a1 1 0 0 0 0.88 0zm49.87-73.4a1 1 0 0 0 0.91 0l6.25-3.61c0.27-0.15 0.29-0.39 0.06-0.52l-1.59-0.92a1 1 0 0 0-0.91 0l-6.29 3.58c-0.26 0.15-0.28 0.39-0.05 0.52zm-45.42 28.76a1 1 0 0 0 0.91 0l6.25-3.61c0.27-0.15 0.29-0.39 0.06-0.52l-6-3.46a1 1 0 0 0-0.9 0l-6.26 3.61c-0.26 0.16-0.29 0.39 0 0.53zm18.28-10.55a1 1 0 0 0 0.91 0l6.25-3.61c0.26-0.16 0.29-0.39 0.05-0.53l-6-3.45a1 1 0 0 0-0.91 0l-6.3 3.61c-0.27 0.15-0.29 0.39-0.05 0.52zm-29.44 17a1 1 0 0 0 0.91 0l6.25-3.61c0.27-0.15 0.29-0.39 0.06-0.52l-6-3.46a1 1 0 0 0-0.91 0l-6.26 3.61c-0.26 0.15-0.29 0.38 0 0.52zm20.27-11.68a1 1 0 0 0 0.91 0l6.25-3.61c0.27-0.15 0.29-0.38 0.05-0.52l-6-3.45a1 1 0 0 0-0.91 0l-6.23 3.58c-0.26 0.15-0.29 0.38 0 0.52zm-38.58 22.28a1 1 0 0 0 0.91 0l6.26-3.6c0.26-0.16 0.29-0.39 0.05-0.53l-6-3.45a1 1 0 0 0-0.91 0l-6.25 3.61c-0.27 0.15-0.29 0.39-0.06 0.52zm9.14-5.28a1 1 0 0 0 0.91 0l6.25-3.61c0.27-0.15 0.29-0.39 0.06-0.53l-6-3.45a1 1 0 0 0-0.91 0l-6.23 3.59c-0.27 0.16-0.29 0.39-0.06 0.53zm47.45-30a1 1 0 0 0 0.9 0l6.26-3.61c0.26-0.15 0.29-0.38 0.05-0.52l-1.59-0.92a1 1 0 0 0-0.91 0l-6.25 3.61c-0.27 0.15-0.29 0.39-0.06 0.52zm27.41-15.82a1 1 0 0 0 0.91 0l6.25-3.6c0.27-0.16 0.29-0.39 0.06-0.53l-1.6-0.92a1 1 0 0 0-0.9 0l-6.26 3.61c-0.26 0.16-0.29 0.39 0 0.53zm12.57 7.25a1 1 0 0 0 0.91 0l6.25-3.61c0.27-0.15 0.29-0.39 0-0.52l-6-3.46a1 1 0 0 0-0.91 0l-6.25 3.61c-0.27 0.16-0.29 0.39-0.05 0.53zm17.4 20.05 6.26-3.61c0.26-0.16 0.29-0.39 0-0.53l-6-3.45a1 1 0 0 0-0.91 0l-6.25 3.61c-0.27 0.15-0.29 0.39-0.05 0.52l6 3.46a1 1 0 0 0 0.95 0.02zm-48.22-16.73a1 1 0 0 0 0.91 0l6.26-3.61c0.26-0.16 0.29-0.39 0.05-0.53l-1.59-0.92a1 1 0 0 0-0.91 0l-6.25 3.61c-0.27 0.16-0.29 0.39-0.06 0.53zm-74.88 45.75a1 1 0 0 0 0.9 0l6.26-3.61c0.26-0.15 0.29-0.39 0.05-0.52l-6-3.46a1 1 0 0 0-0.91 0l-6.25 3.61c-0.27 0.16-0.29 0.39-0.06 0.53z" fill="#455a64"/><polygon points="304.98 327.95 243.16 363.63 244.44 364.37 278.5 384.03 339.06 349.07 340.32 348.35" fill="#263238"/><polygon points="304.98 329.41 244.44 364.37 278.5 384.03 339.06 349.07" fill="#37474f"/><path d="m310.89 76a1.51 1.51 0 0 0-0.06-0.37 0.08 0.08 0 0 0 0-0.08 1.36 1.36 0 0 0-0.09-0.36 1.75 1.75 0 0 0-0.24-0.52 0.67 0.67 0 0 0-0.13-0.21 0.81 0.81 0 0 0-0.12-0.14 1.34 1.34 0 0 0-0.26-0.27 2.37 2.37 0 0 0-0.35-0.19 2.89 2.89 0 0 0-2.71 0.34l-203.29 116.94c-2.22 1.29-4 4.43-4 8.93v151a2.73 2.73 0 0 0 1.46 2.42l0.17 0.12 0.21 0.12a2.06 2.06 0 0 0 0.35 0.12 2.24 2.24 0 0 0 0.52 0.06 2.53 2.53 0 0 0 1.33-0.38l0.11-0.06 3.85-2.22 199.24-114.69a9 9 0 0 0 4-7v-153a4.07 4.07 0 0 0 0.01-0.56z" fill="#455a64" opacity=".9"/><path d="m309.59 73.87a2.89 2.89 0 0 0-2.71 0.34l-203.24 116.93a9 9 0 0 0-4 7v7.86l-5.15-3v-7.74a8.9 8.9 0 0 1 4-7l203.23-116.97a2.82 2.82 0 0 1 2.93-0.23c0.73 0.43 4.08 2.36 4.94 2.81z" fill="#6da5ea"/><path d="m310.91 76.52c0-2.55-1.81-3.59-4-2.3l-203.27 116.93a8.93 8.93 0 0 0-4 7v7.85l211.27-121.6z" fill="#6da5ea"/><g opacity=".6"><path d="m306.87 74.21-203.22 116.94a8.29 8.29 0 0 0-2.85 3l-5.13-3a8.24 8.24 0 0 1 2.81-2.95l203.24-116.91a2.85 2.85 0 0 1 2.93-0.24c0.73 0.45 4.08 2.35 4.93 2.81a3 3 0 0 0-2.71 0.35z" fill="#fff"/></g><path d="m94.44 203v-7.76a8.31 8.31 0 0 1 1.23-4l5.14 3a8.16 8.16 0 0 0-1.2 4v7.76z" opacity=".15"/><g fill="#455a64"><path d="m295 84.81a4 4 0 0 0-1.54 3.25c0 1.3 0.69 2 1.54 1.47a4.06 4.06 0 0 0 1.53-3.24c0-1.29-0.69-1.97-1.53-1.48z"/><path d="m300.52 81.61a4 4 0 0 0-1.52 3.25c0 1.31 0.68 2 1.53 1.48a4 4 0 0 0 1.53-3.25c-0.01-1.3-0.69-1.96-1.54-1.48z"/><path d="m306 78.42a4.06 4.06 0 0 0-1.53 3.25c0 1.3 0.69 2 1.53 1.47a4 4 0 0 0 1.54-3.24c0.04-1.31-0.65-1.97-1.54-1.48z"/></g><path d="m101.05 353.54-0.21-0.12-4.25-2.42a4.29 4.29 0 0 1-2.11-3.13 3.9 3.9 0 0 1 0-0.59v-144.28l5.16 3v145.09a2.64 2.64 0 0 0 1.26 2.29 0.51 0.51 0 0 0 0.13 0.09z" fill="#263238" opacity=".9"/><g opacity=".5"><g fill="#6da5ea"><path d="m125.44 200 39.94-23.06c0.56-0.32 1-0.09 1 0.51a2.15 2.15 0 0 1-1 1.68l-39.94 23.06c-0.56 0.32-1 0.09-1-0.51a2.15 2.15 0 0 1 1-1.68z"/><path d="m125.4 226.47 117.54-67.76c0.56-0.32 1-0.09 1 0.51a2.15 2.15 0 0 1-1 1.68l-117.54 67.76c-0.55 0.32-1 0.1-1-0.51a2.2 2.2 0 0 1 1-1.68z"/><path d="m169.3 174.67 74.26-42.73c0.56-0.32 1-0.09 1 0.51a2.15 2.15 0 0 1-1 1.68l-74.26 42.73c-0.56 0.32-1 0.09-1-0.51a2.15 2.15 0 0 1 1-1.68z"/><path d="m125.44 206.28 20.22-11.68c0.56-0.33 1-0.1 1 0.51a2.17 2.17 0 0 1-1 1.68l-20.22 11.69c-0.56 0.32-1 0.09-1-0.52a2.18 2.18 0 0 1 1-1.68z"/></g><path d="m125.44 206.28 20.22-11.68c0.56-0.33 1-0.1 1 0.51a2.17 2.17 0 0 1-1 1.68l-20.22 11.69c-0.56 0.32-1 0.09-1-0.52a2.18 2.18 0 0 1 1-1.68z" fill="#fff" opacity=".6"/><path d="m125.44 212.54 12.15-7c0.56-0.32 1-0.09 1 0.51a2.15 2.15 0 0 1-1 1.68l-12.15 7c-0.56 0.32-1 0.1-1-0.51a2.17 2.17 0 0 1 1-1.68z" fill="#6da5ea"/><path d="m125.44 212.54 12.15-7c0.56-0.32 1-0.09 1 0.51a2.15 2.15 0 0 1-1 1.68l-12.15 7c-0.56 0.32-1 0.1-1-0.51a2.17 2.17 0 0 1 1-1.68z" fill="#fff" opacity=".6"/><path d="m149.58 192.33 70.36-40.53c0.56-0.32 1-0.09 1 0.52a2.18 2.18 0 0 1-1 1.68l-70.36 40.52c-0.56 0.33-1 0.1-1-0.51a2.18 2.18 0 0 1 1-1.68z" fill="#6da5ea"/><path d="m149.58 192.33 70.36-40.53c0.56-0.32 1-0.09 1 0.52a2.18 2.18 0 0 1-1 1.68l-70.36 40.52c-0.56 0.33-1 0.1-1-0.51a2.18 2.18 0 0 1 1-1.68z" fill="#fff" opacity=".6"/><path d="m136 243.05 107.59-62.16c0.56-0.33 1-0.1 1 0.51a2.18 2.18 0 0 1-1 1.68l-107.59 62.16c-0.55 0.32-1 0.09-1-0.51a2.18 2.18 0 0 1 1-1.68z" fill="#ffc7a7"/><path d="m136 236.79 107.56-62.19c0.56-0.32 1-0.09 1 0.51a2.15 2.15 0 0 1-1 1.68l-107.56 62.21c-0.55 0.32-1 0.09-1-0.52a2.21 2.21 0 0 1 1-1.69z" fill="#ffc7a7"/><path d="m140.83 203.7 20-11.61c0.56-0.32 1-0.09 1 0.51a2.15 2.15 0 0 1-1 1.68l-20 11.61c-0.56 0.32-1 0.09-1-0.51a2.15 2.15 0 0 1 1-1.68z" fill="#6da5ea"/><path d="m140.83 203.7 20-11.61c0.56-0.32 1-0.09 1 0.51a2.15 2.15 0 0 1-1 1.68l-20 11.61c-0.56 0.32-1 0.09-1-0.51a2.15 2.15 0 0 1 1-1.68z" fill="#fff" opacity=".6"/><path d="m164.76 189.83 78.24-44.83c0.56-0.32 1-0.09 1 0.51a2.15 2.15 0 0 1-1 1.68l-78.24 44.81c-0.56 0.32-1 0.09-1-0.51a2.15 2.15 0 0 1 1-1.66z" fill="#6da5ea"/><path d="m164.76 189.83 78.24-44.83c0.56-0.32 1-0.09 1 0.51a2.15 2.15 0 0 1-1 1.68l-78.24 44.81c-0.56 0.32-1 0.09-1-0.51a2.15 2.15 0 0 1 1-1.66z" fill="#fff" opacity=".6"/><path d="m125.4 219.15 35.44-20.34c0.56-0.32 1-0.1 1 0.51a2.17 2.17 0 0 1-1 1.68l-35.44 20.34c-0.55 0.32-1 0.09-1-0.51a2.18 2.18 0 0 1 1-1.68z" fill="#6da5ea"/><path d="m125.4 219.15 35.44-20.34c0.56-0.32 1-0.1 1 0.51a2.17 2.17 0 0 1-1 1.68l-35.44 20.34c-0.55 0.32-1 0.09-1-0.51a2.18 2.18 0 0 1 1-1.68z" fill="#fff" opacity=".6"/><path d="m164.76 196.54 78.24-44.79c0.56-0.32 1-0.09 1 0.51a2.15 2.15 0 0 1-1 1.68l-78.2 44.79c-0.56 0.33-1 0.1-1-0.51a2.18 2.18 0 0 1 0.96-1.68z" fill="#6da5ea"/><path d="m164.76 196.54 78.24-44.79c0.56-0.32 1-0.09 1 0.51a2.15 2.15 0 0 1-1 1.68l-78.2 44.79c-0.56 0.33-1 0.1-1-0.51a2.18 2.18 0 0 1 0.96-1.68z" fill="#fff" opacity=".6"/><g fill="#f29b8f"><path d="m136 249.38 107.59-62c0.56-0.32 1-0.09 1 0.52a2.15 2.15 0 0 1-1 1.67l-107.59 62c-0.55 0.33-1 0.1-1-0.51a2.21 2.21 0 0 1 1-1.68z"/><path d="m136 255.65 107.59-62c0.56-0.32 1-0.09 1 0.52a2.18 2.18 0 0 1-1 1.68l-107.59 61.99c-0.55 0.33-1 0.1-1-0.51a2.21 2.21 0 0 1 1-1.68z"/><path d="m136 261.92 107.59-62c0.56-0.32 1-0.09 1 0.52a2.18 2.18 0 0 1-1 1.68l-107.59 61.99c-0.55 0.33-1 0.1-1-0.51a2.21 2.21 0 0 1 1-1.68z"/></g><path d="m136 270.25 107.59-62c0.56-0.32 1-0.09 1 0.51a2.15 2.15 0 0 1-1 1.68l-107.59 62c-0.55 0.32-1 0.09-1-0.51a2.18 2.18 0 0 1 1-1.68z" fill="#6da5ea"/><path d="m125.65 276.12 4.68-2.68c0.56-0.33 1-0.1 1 0.51a2.2 2.2 0 0 1-1 1.68l-4.68 2.69c-0.55 0.32-1 0.09-1-0.52a2.21 2.21 0 0 1 1-1.68z" fill="#6da5ea"/><path d="m125.65 276.12 4.68-2.68c0.56-0.33 1-0.1 1 0.51a2.2 2.2 0 0 1-1 1.68l-4.68 2.69c-0.55 0.32-1 0.09-1-0.52a2.21 2.21 0 0 1 1-1.68z" fill="#fff" opacity=".6"/><path d="m125.65 281.79 4.68-2.69c0.56-0.32 1-0.09 1 0.52a2.2 2.2 0 0 1-1 1.68l-4.68 2.7c-0.55 0.33-1 0.1-1-0.51a2.21 2.21 0 0 1 1-1.7z" fill="#6da5ea"/><path d="m125.65 281.79 4.68-2.69c0.56-0.32 1-0.09 1 0.52a2.2 2.2 0 0 1-1 1.68l-4.68 2.7c-0.55 0.33-1 0.1-1-0.51a2.21 2.21 0 0 1 1-1.7z" fill="#fff" opacity=".6"/><path d="m136 276 107.59-62.2c0.56-0.32 1-0.09 1 0.51a2.15 2.15 0 0 1-1 1.68l-107.59 62.16c-0.55 0.32-1 0.09-1-0.51a2.18 2.18 0 0 1 1-1.64z" fill="#ffc7a7"/><g fill="#6da5ea"><path d="m136.48 316.65 28.9-16.65c0.56-0.33 1-0.1 1 0.51a2.17 2.17 0 0 1-1 1.68l-28.9 16.67c-0.56 0.33-1 0.1-1-0.51a2.17 2.17 0 0 1 1-1.7z"/><path d="m169.3 297.64 74.26-42.64c0.56-0.32 1-0.1 1 0.51a2.17 2.17 0 0 1-1 1.68l-74.26 42.64c-0.56 0.32-1 0.09-1-0.51a2.15 2.15 0 0 1 1-1.68z"/><path d="m125.65 322.84 4.68-2.69c0.56-0.32 1-0.09 1 0.51a2.16 2.16 0 0 1-1 1.68l-4.68 2.66c-0.55 0.32-1 0.1-1-0.51a2.18 2.18 0 0 1 1-1.65z"/></g><path d="m125.65 322.84 4.68-2.69c0.56-0.32 1-0.09 1 0.51a2.16 2.16 0 0 1-1 1.68l-4.68 2.66c-0.55 0.32-1 0.1-1-0.51a2.18 2.18 0 0 1 1-1.65z" fill="#fff" opacity=".6"/><path d="m125.65 328.51 4.68-2.69c0.56-0.32 1-0.09 1 0.51a2.16 2.16 0 0 1-1 1.68l-4.68 2.69c-0.55 0.32-1 0.09-1-0.51a2.18 2.18 0 0 1 1-1.68z" fill="#6da5ea"/><path d="m125.65 328.51 4.68-2.69c0.56-0.32 1-0.09 1 0.51a2.16 2.16 0 0 1-1 1.68l-4.68 2.69c-0.55 0.32-1 0.09-1-0.51a2.18 2.18 0 0 1 1-1.68z" fill="#fff" opacity=".6"/><path d="m136.44 322.07 106.68-61.55c0.56-0.33 1-0.1 1 0.51a2.18 2.18 0 0 1-1 1.68l-106.68 61.56c-0.56 0.32-1 0.09-1-0.52a2.18 2.18 0 0 1 1-1.68z" fill="#ffc7a7"/><path d="m136.15 289.29 107.41-61.84c0.56-0.32 1-0.09 1 0.51a2.15 2.15 0 0 1-1 1.68l-107.41 61.85c-0.56 0.32-1 0.09-1-0.52a2.18 2.18 0 0 1 1-1.68z" fill="#6da5ea"/><path d="m125.65 295.28 4.68-2.69c0.56-0.33 1-0.1 1 0.51a2.18 2.18 0 0 1-1 1.68l-4.68 2.69c-0.55 0.32-1 0.09-1-0.51a2.18 2.18 0 0 1 1-1.68z" fill="#6da5ea"/><path d="m125.65 295.28 4.68-2.69c0.56-0.33 1-0.1 1 0.51a2.18 2.18 0 0 1-1 1.68l-4.68 2.69c-0.55 0.32-1 0.09-1-0.51a2.18 2.18 0 0 1 1-1.68z" fill="#fff" opacity=".6"/><path d="m136.15 295.49 107.41-61.85c0.56-0.32 1-0.09 1 0.51a2.15 2.15 0 0 1-1 1.68l-107.41 61.85c-0.56 0.32-1 0.09-1-0.51a2.15 2.15 0 0 1 1-1.68z" fill="#6da5ea"/><path d="m125.65 301.55 4.68-2.69c0.56-0.33 1-0.1 1 0.51a2.18 2.18 0 0 1-1 1.68l-4.68 2.69c-0.55 0.32-1 0.09-1-0.51a2.18 2.18 0 0 1 1-1.68z" fill="#6da5ea"/><path d="m125.65 301.55 4.68-2.69c0.56-0.33 1-0.1 1 0.51a2.18 2.18 0 0 1-1 1.68l-4.68 2.69c-0.55 0.32-1 0.09-1-0.51a2.18 2.18 0 0 1 1-1.68z" fill="#fff" opacity=".6"/><path d="m136.15 301.78 107.41-61.84c0.56-0.32 1-0.09 1 0.51a2.15 2.15 0 0 1-1 1.68l-107.41 61.87c-0.56 0.32-1 0.09-1-0.52a2.18 2.18 0 0 1 1-1.7z" fill="#f29b8f"/><path d="m125.65 307.82 4.68-2.69c0.56-0.32 1-0.1 1 0.51a2.18 2.18 0 0 1-1 1.68l-4.68 2.68c-0.55 0.32-1 0.09-1-0.51a2.18 2.18 0 0 1 1-1.67z" fill="#6da5ea"/><path d="m125.65 307.82 4.68-2.69c0.56-0.32 1-0.1 1 0.51a2.18 2.18 0 0 1-1 1.68l-4.68 2.68c-0.55 0.32-1 0.09-1-0.51a2.18 2.18 0 0 1 1-1.67z" fill="#fff" opacity=".6"/><g fill="#fff" opacity=".6"><path d="m111.06 289.14 5.5-3.18c0.55-0.31 1-0.06 1 0.58v2a2.23 2.23 0 0 1-1 1.74l-5.5 3.17c-0.55 0.32-1 0.06-1-0.57v-2a2.23 2.23 0 0 1 1-1.74z"/><path d="m111.06 297.19 5.5-3.18c0.55-0.31 1-0.06 1 0.58v2a2.23 2.23 0 0 1-1 1.74l-5.5 3.17c-0.55 0.32-1 0.06-1-0.58v-2a2.21 2.21 0 0 1 1-1.73z"/><path d="m111.06 305.24 5.5-3.18c0.55-0.32 1-0.06 1 0.58v2a2.2 2.2 0 0 1-1 1.73l-5.5 3.18c-0.55 0.32-1 0.06-1-0.58v-2a2.21 2.21 0 0 1 1-1.73z"/><path d="m111.06 313.29 5.5-3.18c0.55-0.32 1-0.06 1 0.58v2a2.2 2.2 0 0 1-1 1.73l-5.5 3.18c-0.55 0.32-1 0.06-1-0.58v-2a2.21 2.21 0 0 1 1-1.73z"/></g><path d="m125.65 241.87 4.68-2.69c0.56-0.33 1-0.1 1 0.51a2.2 2.2 0 0 1-1 1.68l-4.68 2.69c-0.55 0.32-1 0.09-1-0.51a2.18 2.18 0 0 1 1-1.68z" fill="#6da5ea"/><path d="m125.65 241.87 4.68-2.69c0.56-0.33 1-0.1 1 0.51a2.2 2.2 0 0 1-1 1.68l-4.68 2.69c-0.55 0.32-1 0.09-1-0.51a2.18 2.18 0 0 1 1-1.68z" fill="#fff" opacity=".6"/><path d="m125.65 255.35 4.68-2.69c0.56-0.32 1-0.09 1 0.51a2.16 2.16 0 0 1-1 1.68l-4.68 2.69c-0.55 0.32-1 0.09-1-0.51a2.18 2.18 0 0 1 1-1.68z" fill="#6da5ea"/><path d="m125.65 255.35 4.68-2.69c0.56-0.32 1-0.09 1 0.51a2.16 2.16 0 0 1-1 1.68l-4.68 2.69c-0.55 0.32-1 0.09-1-0.51a2.18 2.18 0 0 1 1-1.68z" fill="#fff" opacity=".6"/><path d="m125.65 261.62 4.68-2.69c0.56-0.32 1-0.09 1 0.51a2.16 2.16 0 0 1-1 1.68l-4.68 2.69c-0.55 0.32-1 0.09-1-0.51a2.18 2.18 0 0 1 1-1.68z" fill="#6da5ea"/><path d="m125.65 261.62 4.68-2.69c0.56-0.32 1-0.09 1 0.51a2.16 2.16 0 0 1-1 1.68l-4.68 2.69c-0.55 0.32-1 0.09-1-0.51a2.18 2.18 0 0 1 1-1.68z" fill="#fff" opacity=".6"/><path d="m125.65 267.89 4.68-2.69c0.56-0.32 1-0.09 1 0.51a2.16 2.16 0 0 1-1 1.68l-4.68 2.69c-0.55 0.32-1 0.09-1-0.51a2.18 2.18 0 0 1 1-1.68z" fill="#6da5ea"/><path d="m125.65 267.89 4.68-2.69c0.56-0.32 1-0.09 1 0.51a2.16 2.16 0 0 1-1 1.68l-4.68 2.69c-0.55 0.32-1 0.09-1-0.51a2.18 2.18 0 0 1 1-1.68z" fill="#fff" opacity=".6"/><g fill="#fff" opacity=".6"><path d="m111.06 249.21 5.5-3.17c0.55-0.32 1-0.06 1 0.57v2a2.23 2.23 0 0 1-1 1.73l-5.5 3.17c-0.55 0.32-1 0.06-1-0.57v-2a2.23 2.23 0 0 1 1-1.73z"/><path d="m111.06 257.26 5.5-3.17c0.55-0.32 1-0.06 1 0.57v2a2.23 2.23 0 0 1-1 1.73l-5.5 3.17c-0.55 0.32-1 0.06-1-0.57v-2a2.23 2.23 0 0 1 1-1.73z"/><path d="m111.06 265.31 5.5-3.17c0.55-0.32 1-0.07 1 0.57v2a2.23 2.23 0 0 1-1 1.73l-5.5 3.17c-0.55 0.32-1 0.06-1-0.57v-2a2.23 2.23 0 0 1 1-1.73z"/><path d="m111.06 273.36 5.5-3.18c0.55-0.31 1-0.06 1 0.58v2a2.23 2.23 0 0 1-1 1.74l-5.5 3.17c-0.55 0.32-1 0.06-1-0.58v-2a2.23 2.23 0 0 1 1-1.73z"/><path d="m111.06 329.07 5.5-3.18c0.55-0.32 1-0.06 1 0.58v2a2.2 2.2 0 0 1-1 1.73l-5.5 3.18c-0.55 0.32-1 0.06-1-0.58v-2a2.21 2.21 0 0 1 1-1.73z"/><path d="m111.06 337.12 5.5-3.18c0.55-0.32 1-0.06 1 0.58v2a2.21 2.21 0 0 1-1 1.73l-5.5 3.18c-0.55 0.32-1 0.06-1-0.58v-2a2.21 2.21 0 0 1 1-1.73z"/><path d="m111.06 209.29 5.5-3.18c0.55-0.32 1-0.06 1 0.58v2a2.21 2.21 0 0 1-1 1.73l-5.5 3.18c-0.55 0.31-1 0.06-1-0.58v-2a2.2 2.2 0 0 1 1-1.73z"/><path d="m111.06 217.33 5.5-3.17c0.55-0.32 1-0.06 1 0.57v2a2.23 2.23 0 0 1-1 1.73l-5.5 3.18c-0.55 0.31-1 0.06-1-0.58v-2a2.23 2.23 0 0 1 1-1.73z"/><path d="m111.06 225.38 5.5-3.17c0.55-0.32 1-0.06 1 0.57v2a2.23 2.23 0 0 1-1 1.73l-5.5 3.17c-0.55 0.32-1 0.06-1-0.57v-2a2.23 2.23 0 0 1 1-1.73z"/><path d="m111.06 233.43 5.5-3.17c0.55-0.32 1-0.06 1 0.57v2a2.23 2.23 0 0 1-1 1.73l-5.5 3.17c-0.55 0.32-1 0.06-1-0.57v-2a2.23 2.23 0 0 1 1-1.73z"/></g><path d="m298.93 160.24-42.21 24.37a6.28 6.28 0 0 0-2.84 4.92v63.57c0 1.81 1.27 2.54 2.84 1.64l42.21-24.37a6.3 6.3 0 0 0 2.83-4.91v-63.58c0-1.81-1.27-2.54-2.83-1.64z" fill="#37474f"/><path d="m295 208.56-3.89 2.25a3.06 3.06 0 0 0-1.43 2.38c0 0.86 0.64 1.18 1.43 0.72l3.89-2.24a3.09 3.09 0 0 0 1.43-2.39c0.01-0.85-0.63-1.18-1.43-0.72z" fill="#6da5ea"/><path d="m295 208.56-3.89 2.25a3.06 3.06 0 0 0-1.43 2.38c0 0.86 0.64 1.18 1.43 0.72l3.89-2.24a3.09 3.09 0 0 0 1.43-2.39c0.01-0.85-0.63-1.18-1.43-0.72z" fill="#fff" opacity=".6"/><path d="m295 168.64-3.89 2.25a3.07 3.07 0 0 0-1.43 2.38c0 0.86 0.64 1.19 1.43 0.73l3.89-2.25a3.07 3.07 0 0 0 1.43-2.38c0.01-0.86-0.63-1.18-1.43-0.73z" fill="#6da5ea"/><path d="m295 168.64-3.89 2.25a3.07 3.07 0 0 0-1.43 2.38c0 0.86 0.64 1.19 1.43 0.73l3.89-2.25a3.07 3.07 0 0 0 1.43-2.38c0.01-0.86-0.63-1.18-1.43-0.73z" fill="#fff" opacity=".6"/><path d="m289.55 179.76-3.89 2.24a3.07 3.07 0 0 0-1.43 2.38c0 0.86 0.64 1.18 1.43 0.73l3.89-2.25a3.07 3.07 0 0 0 1.43-2.38c0.02-0.85-0.64-1.18-1.43-0.72z" fill="#6da5ea"/><path d="m289.55 179.76-3.89 2.24a3.07 3.07 0 0 0-1.43 2.38c0 0.86 0.64 1.18 1.43 0.73l3.89-2.25a3.07 3.07 0 0 0 1.43-2.38c0.02-0.85-0.64-1.18-1.43-0.72z" fill="#fff" opacity=".6"/><path d="m289.55 187.72-3.89 2.28a3.09 3.09 0 0 0-1.43 2.38c0 0.86 0.64 1.19 1.43 0.73l3.89-2.25a3.06 3.06 0 0 0 1.43-2.38c0.02-0.89-0.64-1.21-1.43-0.76z" fill="#6da5ea"/><path d="m289.55 187.72-3.89 2.28a3.09 3.09 0 0 0-1.43 2.38c0 0.86 0.64 1.19 1.43 0.73l3.89-2.25a3.06 3.06 0 0 0 1.43-2.38c0.02-0.89-0.64-1.21-1.43-0.76z" fill="#fff" opacity=".6"/><path d="m295 192.59-3.89 2.24a3.09 3.09 0 0 0-1.43 2.39c0 0.85 0.64 1.18 1.43 0.72l3.89-2.25a3.06 3.06 0 0 0 1.43-2.38c0.01-0.86-0.63-1.18-1.43-0.72z" fill="#6da5ea"/><path d="m295 192.59-3.89 2.24a3.09 3.09 0 0 0-1.43 2.39c0 0.85 0.64 1.18 1.43 0.72l3.89-2.25a3.06 3.06 0 0 0 1.43-2.38c0.01-0.86-0.63-1.18-1.43-0.72z" fill="#fff" opacity=".6"/><path d="m289.55 203.71-3.89 2.29a3.07 3.07 0 0 0-1.43 2.38c0 0.86 0.64 1.19 1.43 0.73l3.89-2.25a3.07 3.07 0 0 0 1.43-2.38c0.02-0.9-0.64-1.22-1.43-0.77z" fill="#6da5ea"/><path d="m289.55 203.71-3.89 2.29a3.07 3.07 0 0 0-1.43 2.38c0 0.86 0.64 1.19 1.43 0.73l3.89-2.25a3.07 3.07 0 0 0 1.43-2.38c0.02-0.9-0.64-1.22-1.43-0.77z" fill="#fff" opacity=".6"/><path d="m284.37 174.79-23.73 13.7a3.08 3.08 0 0 0-1.44 2.39c0 0.85 0.64 1.18 1.44 0.72l23.73-13.7a3.09 3.09 0 0 0 1.43-2.38c0-0.86-0.64-1.19-1.43-0.73z" fill="#6da5ea"/><path d="m284.37 174.79-23.73 13.7a3.08 3.08 0 0 0-1.44 2.39c0 0.85 0.64 1.18 1.44 0.72l23.73-13.7a3.09 3.09 0 0 0 1.43-2.38c0-0.86-0.64-1.19-1.43-0.73z" fill="#fff" opacity=".8"/><path d="m284.37 214.71-23.73 13.7a3.06 3.06 0 0 0-1.44 2.38c0 0.86 0.64 1.18 1.44 0.73l23.73-13.71a3.06 3.06 0 0 0 1.43-2.38c0-0.86-0.64-1.18-1.43-0.72z" fill="#6da5ea"/><path d="m284.37 214.71-23.73 13.7a3.06 3.06 0 0 0-1.44 2.38c0 0.86 0.64 1.18 1.44 0.73l23.73-13.71a3.06 3.06 0 0 0 1.43-2.38c0-0.86-0.64-1.18-1.43-0.72z" fill="#fff" opacity=".8"/><path d="m278.91 185.91-18.27 10.57a3 3 0 0 0-1.44 2.38c0 0.86 0.64 1.18 1.44 0.72l18.27-10.58a3.09 3.09 0 0 0 1.43-2.39c0-0.84-0.64-1.16-1.43-0.7z" fill="#6da5ea"/><path d="m278.91 185.91-18.27 10.57a3 3 0 0 0-1.44 2.38c0 0.86 0.64 1.18 1.44 0.72l18.27-10.58a3.09 3.09 0 0 0 1.43-2.39c0-0.84-0.64-1.16-1.43-0.7z" fill="#fff" opacity=".8"/><path d="m278.91 193.89-18.27 10.57a3.06 3.06 0 0 0-1.44 2.38c0 0.86 0.64 1.18 1.44 0.73l18.27-10.57a3.09 3.09 0 0 0 1.43-2.38c0-0.86-0.64-1.19-1.43-0.73z" fill="#6da5ea"/><path d="m278.91 193.89-18.27 10.57a3.06 3.06 0 0 0-1.44 2.38c0 0.86 0.64 1.18 1.44 0.73l18.27-10.57a3.09 3.09 0 0 0 1.43-2.38c0-0.86-0.64-1.19-1.43-0.73z" fill="#fff" opacity=".8"/><path d="m284.37 198.74-23.73 13.7a3.08 3.08 0 0 0-1.44 2.38c0 0.86 0.64 1.19 1.44 0.73l23.73-13.7a3.09 3.09 0 0 0 1.43-2.38c0-0.86-0.64-1.19-1.43-0.73z" fill="#6da5ea"/><path d="m284.37 198.74-23.73 13.7a3.08 3.08 0 0 0-1.44 2.38c0 0.86 0.64 1.19 1.44 0.73l23.73-13.7a3.09 3.09 0 0 0 1.43-2.38c0-0.86-0.64-1.19-1.43-0.73z" fill="#fff" opacity=".8"/><path d="m278.91 209.86-18.27 10.57a3 3 0 0 0-1.44 2.38c0 0.86 0.64 1.18 1.44 0.72l18.27-10.53a3.09 3.09 0 0 0 1.43-2.38c0-0.89-0.64-1.22-1.43-0.76z" fill="#6da5ea"/><path d="m278.91 209.86-18.27 10.57a3 3 0 0 0-1.44 2.38c0 0.86 0.64 1.18 1.44 0.72l18.27-10.53a3.09 3.09 0 0 0 1.43-2.38c0-0.89-0.64-1.22-1.43-0.76z" fill="#fff" opacity=".8"/><path d="m295 224.61-3.89 2.25a3.07 3.07 0 0 0-1.43 2.38c0 0.86 0.64 1.19 1.43 0.73l3.89-2.25a3.07 3.07 0 0 0 1.43-2.38c0.01-0.86-0.63-1.19-1.43-0.73z" fill="#6da5ea"/><path d="m295 224.61-3.89 2.25a3.07 3.07 0 0 0-1.43 2.38c0 0.86 0.64 1.19 1.43 0.73l3.89-2.25a3.07 3.07 0 0 0 1.43-2.38c0.01-0.86-0.63-1.19-1.43-0.73z" fill="#fff" opacity=".6"/><path d="m289.55 219.77-3.89 2.23a3.09 3.09 0 0 0-1.43 2.39c0 0.85 0.64 1.18 1.43 0.72l3.89-2.25a3.06 3.06 0 0 0 1.43-2.38c0.02-0.85-0.64-1.17-1.43-0.71z" fill="#6da5ea"/><path d="m289.55 219.77-3.89 2.23a3.09 3.09 0 0 0-1.43 2.39c0 0.85 0.64 1.18 1.43 0.72l3.89-2.25a3.06 3.06 0 0 0 1.43-2.38c0.02-0.85-0.64-1.17-1.43-0.71z" fill="#fff" opacity=".6"/><path d="m284.37 230.76-23.73 13.7a3.08 3.08 0 0 0-1.44 2.38c0 0.86 0.64 1.19 1.44 0.73l23.73-13.7a3.09 3.09 0 0 0 1.43-2.39c0-0.85-0.64-1.18-1.43-0.72z" fill="#6da5ea"/><path d="m284.37 230.76-23.73 13.7a3.08 3.08 0 0 0-1.44 2.38c0 0.86 0.64 1.19 1.44 0.73l23.73-13.7a3.09 3.09 0 0 0 1.43-2.39c0-0.85-0.64-1.18-1.43-0.72z" fill="#fff" opacity=".8"/><path d="m278.91 225.91-18.27 10.57a3.06 3.06 0 0 0-1.44 2.38c0 0.86 0.64 1.18 1.44 0.73l18.27-10.59a3.07 3.07 0 0 0 1.43-2.38c0-0.84-0.64-1.16-1.43-0.71z" fill="#6da5ea"/><path d="m278.91 225.91-18.27 10.57a3.06 3.06 0 0 0-1.44 2.38c0 0.86 0.64 1.18 1.44 0.73l18.27-10.59a3.07 3.07 0 0 0 1.43-2.38c0-0.84-0.64-1.16-1.43-0.71z" fill="#fff" opacity=".8"/><path d="m298.93 94.85-42.21 24.37a6.25 6.25 0 0 0-2.84 4.91v48.74c0 1.81 1.27 2.55 2.84 1.64l42.21-24.37a6.27 6.27 0 0 0 2.83-4.91v-48.74c0-1.81-1.27-2.49-2.83-1.64z" fill="#37474f"/><path d="m295 143.17-3.89 2.24a3.09 3.09 0 0 0-1.43 2.39c0 0.85 0.64 1.18 1.43 0.72l3.89-2.25a3.06 3.06 0 0 0 1.43-2.38c0.01-0.89-0.63-1.18-1.43-0.72z" fill="#6da5ea"/><path d="m295 143.17-3.89 2.24a3.09 3.09 0 0 0-1.43 2.39c0 0.85 0.64 1.18 1.43 0.72l3.89-2.25a3.06 3.06 0 0 0 1.43-2.38c0.01-0.89-0.63-1.18-1.43-0.72z" fill="#fff" opacity=".6"/><path d="m295 103.25-3.89 2.25a3.06 3.06 0 0 0-1.43 2.38c0 0.86 0.64 1.18 1.43 0.73l3.89-2.25a3.09 3.09 0 0 0 1.43-2.38c0.01-0.86-0.63-1.19-1.43-0.73z" fill="#6da5ea"/><path d="m295 103.25-3.89 2.25a3.06 3.06 0 0 0-1.43 2.38c0 0.86 0.64 1.18 1.43 0.73l3.89-2.25a3.09 3.09 0 0 0 1.43-2.38c0.01-0.86-0.63-1.19-1.43-0.73z" fill="#fff" opacity=".6"/><path d="m289.55 114.37-3.89 2.25a3.06 3.06 0 0 0-1.43 2.38c0 0.86 0.64 1.18 1.43 0.72l3.89-2.24a3.09 3.09 0 0 0 1.43-2.39c0.02-0.85-0.64-1.18-1.43-0.72z" fill="#6da5ea"/><path d="m289.55 114.37-3.89 2.25a3.06 3.06 0 0 0-1.43 2.38c0 0.86 0.64 1.18 1.43 0.72l3.89-2.24a3.09 3.09 0 0 0 1.43-2.39c0.02-0.85-0.64-1.18-1.43-0.72z" fill="#fff" opacity=".6"/><path d="m289.55 122.33-3.89 2.25a3.07 3.07 0 0 0-1.43 2.38c0 0.86 0.64 1.18 1.43 0.73l3.89-2.25a3.07 3.07 0 0 0 1.43-2.38c0.02-0.86-0.64-1.19-1.43-0.73z" fill="#6da5ea"/><path d="m289.55 122.33-3.89 2.25a3.07 3.07 0 0 0-1.43 2.38c0 0.86 0.64 1.18 1.43 0.73l3.89-2.25a3.07 3.07 0 0 0 1.43-2.38c0.02-0.86-0.64-1.19-1.43-0.73z" fill="#fff" opacity=".6"/><path d="m295 127.19-3.89 2.25a3.09 3.09 0 0 0-1.43 2.38c0 0.86 0.64 1.19 1.43 0.73l3.89-2.25a3.07 3.07 0 0 0 1.43-2.38c0.01-0.86-0.63-1.18-1.43-0.73z" fill="#6da5ea"/><path d="m295 127.19-3.89 2.25a3.09 3.09 0 0 0-1.43 2.38c0 0.86 0.64 1.19 1.43 0.73l3.89-2.25a3.07 3.07 0 0 0 1.43-2.38c0.01-0.86-0.63-1.18-1.43-0.73z" fill="#fff" opacity=".6"/><path d="m289.55 138.32-3.89 2.25a3.06 3.06 0 0 0-1.43 2.38c0 0.86 0.64 1.18 1.43 0.73l3.89-2.25a3.09 3.09 0 0 0 1.43-2.38c0.02-0.86-0.64-1.19-1.43-0.73z" fill="#6da5ea"/><path d="m289.55 138.32-3.89 2.25a3.06 3.06 0 0 0-1.43 2.38c0 0.86 0.64 1.18 1.43 0.73l3.89-2.25a3.09 3.09 0 0 0 1.43-2.38c0.02-0.86-0.64-1.19-1.43-0.73z" fill="#fff" opacity=".6"/><path d="m284.37 109.4-23.73 13.7a3.06 3.06 0 0 0-1.44 2.38c0 0.86 0.64 1.19 1.44 0.73l23.73-13.7a3.09 3.09 0 0 0 1.43-2.39c0-0.86-0.64-1.18-1.43-0.72z" fill="#6da5ea"/><path d="m284.37 109.4-23.73 13.7a3.06 3.06 0 0 0-1.44 2.38c0 0.86 0.64 1.19 1.44 0.73l23.73-13.7a3.09 3.09 0 0 0 1.43-2.39c0-0.86-0.64-1.18-1.43-0.72z" fill="#fff" opacity=".8"/><path d="m284.37 149.31-23.73 13.69a3 3 0 0 0-1.44 2.38c0 0.86 0.64 1.18 1.44 0.72l23.73-13.7a3.07 3.07 0 0 0 1.43-2.4c0-0.82-0.64-1.14-1.43-0.69z" fill="#6da5ea"/><path d="m284.37 149.31-23.73 13.69a3 3 0 0 0-1.44 2.38c0 0.86 0.64 1.18 1.44 0.72l23.73-13.7a3.07 3.07 0 0 0 1.43-2.4c0-0.82-0.64-1.14-1.43-0.69z" fill="#fff" opacity=".8"/><path d="m278.91 120.51-18.27 10.57a3.08 3.08 0 0 0-1.44 2.39c0 0.85 0.64 1.18 1.44 0.72l18.27-10.57a3.06 3.06 0 0 0 1.43-2.38c0-0.86-0.64-1.18-1.43-0.73z" fill="#6da5ea"/><path d="m278.91 120.51-18.27 10.57a3.08 3.08 0 0 0-1.44 2.39c0 0.85 0.64 1.18 1.44 0.72l18.27-10.57a3.06 3.06 0 0 0 1.43-2.38c0-0.86-0.64-1.18-1.43-0.73z" fill="#fff" opacity=".8"/><path d="m278.91 128.5-18.27 10.57a3 3 0 0 0-1.44 2.38c0 0.86 0.64 1.18 1.44 0.72l18.27-10.56a3.09 3.09 0 0 0 1.43-2.39c0-0.86-0.64-1.22-1.43-0.72z" fill="#6da5ea"/><path d="m278.91 128.5-18.27 10.57a3 3 0 0 0-1.44 2.38c0 0.86 0.64 1.18 1.44 0.72l18.27-10.56a3.09 3.09 0 0 0 1.43-2.39c0-0.86-0.64-1.22-1.43-0.72z" fill="#fff" opacity=".8"/><path d="m284.37 133.35-23.73 13.7a3.06 3.06 0 0 0-1.44 2.38c0 0.86 0.64 1.18 1.44 0.73l23.73-13.71a3.06 3.06 0 0 0 1.43-2.38c0-0.86-0.64-1.18-1.43-0.72z" fill="#6da5ea"/><path d="m284.37 133.35-23.73 13.7a3.06 3.06 0 0 0-1.44 2.38c0 0.86 0.64 1.18 1.44 0.73l23.73-13.71a3.06 3.06 0 0 0 1.43-2.38c0-0.86-0.64-1.18-1.43-0.72z" fill="#fff" opacity=".8"/><path d="m278.91 144.47-18.27 10.53a3.08 3.08 0 0 0-1.44 2.38c0 0.86 0.64 1.19 1.44 0.73l18.27-10.56a3.09 3.09 0 0 0 1.43-2.39c0-0.83-0.64-1.16-1.43-0.69z" fill="#6da5ea"/><path d="m278.91 144.47-18.27 10.53a3.08 3.08 0 0 0-1.44 2.38c0 0.86 0.64 1.19 1.44 0.73l18.27-10.56a3.09 3.09 0 0 0 1.43-2.39c0-0.83-0.64-1.16-1.43-0.69z" fill="#fff" opacity=".8"/></g><path d="m363.41 110.17a2.2 2.2 0 0 0-0.07-0.37 0.11 0.11 0 0 0 0-0.08 1.71 1.71 0 0 0-0.1-0.36 1.87 1.87 0 0 0-0.23-0.52 0.7 0.7 0 0 0-0.14-0.21s-0.06-0.11-0.12-0.15a1.6 1.6 0 0 0-0.26-0.26 1.9 1.9 0 0 0-0.34-0.2 2.94 2.94 0 0 0-2.72 0.35l-200 115a9 9 0 0 0-4 7v153a2.75 2.75 0 0 0 1.45 2.44l0.18 0.1 0.21 0.12a2.06 2.06 0 0 0 0.35 0.12 2.24 2.24 0 0 0 0.51 0.07 2.58 2.58 0 0 0 1.34-0.39l0.11-0.06 3.85-2.23 195.96-112.85a8.93 8.93 0 0 0 4-7v-153c0.04-0.19 0.03-0.36 0.02-0.52z" fill="#fafafa"/><path d="m361.18 108.76a1.27 1.27 0 0 1 0.54 0.11l0.12 0.07h0.06l0.07 0.07 0.09 0.1c0 0.05 0.05 0.1 0.07 0.14a0.9 0.9 0 0 1 0.12 0.24 0.24 0.24 0 0 0 0 0.08 0.82 0.82 0 0 1 0 0.11 0.59 0.59 0 0 0 0 0.13 0.94 0.94 0 0 0 0 0.16 0.77 0.77 0 0 0 0 0.15v0.42 153a8 8 0 0 1-3.56 6.16l-195.84 112.9-3.85 2.2-0.11 0.06a1.75 1.75 0 0 1-0.8 0.25h-0.09a1.24 1.24 0 0 1-0.3 0h-0.13a0.57 0.57 0 0 1-0.13-0.08l-0.15-0.08h-0.08a1.79 1.79 0 0 1-0.94-1.6v-0.88a0.22 0.22 0 0 0 0-0.08v-152a8 8 0 0 1 3.56-6.17l200-115a2.69 2.69 0 0 1 1.31-0.42m0-1a3.67 3.67 0 0 0-1.79 0.55l-200 115a9 9 0 0 0-4 7v153a2.75 2.75 0 0 0 1.45 2.44l0.18 0.1 0.21 0.12a2.06 2.06 0 0 0 0.35 0.12 2.24 2.24 0 0 0 0.51 0.07h0.06a2.55 2.55 0 0 0 1.28-0.39l0.11-0.06 3.85-2.23 196.04-112.83a8.93 8.93 0 0 0 4-7v-153-0.5a2.2 2.2 0 0 0-0.07-0.37 0.11 0.11 0 0 0 0-0.08 1.71 1.71 0 0 0-0.1-0.36 1.87 1.87 0 0 0-0.23-0.52 0.7 0.7 0 0 0-0.14-0.21s-0.06-0.11-0.12-0.15a1.6 1.6 0 0 0-0.26-0.26 1.9 1.9 0 0 0-0.34-0.2 2.18 2.18 0 0 0-0.93-0.2z" fill="#e0e0e0"/><path d="m362.11 108a2.94 2.94 0 0 0-2.72 0.35l-200 115a9 9 0 0 0-4 7v7.83l-5.16-3v-7.74a9 9 0 0 1 4-7l200-115a2.83 2.83 0 0 1 2.93-0.24c0.73 0.42 4.09 2.34 4.95 2.8z" fill="#6da5ea"/><path d="m363.42 110.64c0-2.55-1.81-3.58-4-2.3l-200 115a8.93 8.93 0 0 0-4 7v7.84l208-119.65z" fill="#6da5ea"/><g opacity=".6"><path d="m359.39 108.34-200 115a8.3 8.3 0 0 0-2.84 3l-5.13-3a8 8 0 0 1 2.81-3l200-115a2.85 2.85 0 0 1 2.93-0.24c0.73 0.45 4.08 2.35 4.93 2.81a2.91 2.91 0 0 0-2.7 0.43z" fill="#fff"/></g><path d="m150.16 235.13v-7.76a8.31 8.31 0 0 1 1.23-4l5.14 2.95a8.16 8.16 0 0 0-1.2 4v7.83z" opacity=".15"/><g fill="#455a64"><path d="m347.51 118.94a4 4 0 0 0-1.54 3.25c0 1.3 0.69 2 1.54 1.47a4 4 0 0 0 1.53-3.25c-0.04-1.3-0.68-1.96-1.53-1.47z"/><path d="m353 115.74a4 4 0 0 0-1.5 3.26c0 1.31 0.68 2 1.53 1.48a4.06 4.06 0 0 0 1.54-3.25c0-1.32-0.69-1.98-1.57-1.49z"/><path d="m358.56 112.55a4 4 0 0 0-1.56 3.25c0 1.3 0.69 2 1.54 1.47a4.06 4.06 0 0 0 1.53-3.25c0.02-1.3-0.67-1.96-1.51-1.47z"/></g><path d="m156.77 385.7-0.21-0.12-4.26-2.46a4.3 4.3 0 0 1-2.1-3.13 3.81 3.81 0 0 1 0-0.59v-144.28l5.17 3v145.13a1.36 1.36 0 0 0 0 0.2 2.65 2.65 0 0 0 1.4 2.21z" fill="#e0e0e0"/><g fill="#e0e0e0"><path d="m178.09 323.05a2.63 2.63 0 0 1-1.33-0.34 3.41 3.41 0 0 1-1.46-3.12v-40.07a9.79 9.79 0 0 1 4.41-7.64l34.7-20a3 3 0 0 1 4.89 2.83v40.06a9.76 9.76 0 0 1-4.41 7.64l-34.7 20a4.19 4.19 0 0 1-2.1 0.64zm2.1-50.33a8.68 8.68 0 0 0-3.93 6.8v40.07a2.08 2.08 0 0 0 3.45 2l34.7-20a8.73 8.73 0 0 0 3.93-6.81v-40.1a2.07 2.07 0 0 0-3.45-2z"/><path d="m211.78 276-0.76-3.13a0.52 0.52 0 0 0-0.89-0.32l-2.77 2.1a0.84 0.84 0 0 1-1.18-0.19 7.55 7.55 0 0 0-0.61-0.65 1.43 1.43 0 0 1-0.43-1.36l1.21-4.1a0.73 0.73 0 0 0-0.6-1l-2.22-0.34a1.18 1.18 0 0 0-1.2 0.66l-1.8 4a2.14 2.14 0 0 1-1.18 1 9.55 9.55 0 0 0-1.31 0.54 0.76 0.76 0 0 1-1.07-0.41l-0.9-2.4a0.54 0.54 0 0 0-0.94-0.23l-3.13 2.91a1.86 1.86 0 0 0-0.53 1.43l0.4 3.1a2.5 2.5 0 0 1-0.41 1.55c-0.49 0.67-0.95 1.38-1.38 2.11a1.72 1.72 0 0 1-1.29 0.76h-2.11a1.34 1.34 0 0 0-1.16 0.82l-1.69 4.57a0.85 0.85 0 0 0 0.51 1.09l1.75 0.62a1 1 0 0 1 0.66 1.13 19.91 19.91 0 0 0-0.22 2.14 2.7 2.7 0 0 1-0.61 1.49l-2.73 2.86a1.75 1.75 0 0 0-0.39 1.46l0.75 3.13a0.52 0.52 0 0 0 0.89 0.31l2.78-2.1a0.85 0.85 0 0 1 1.18 0.19 4.73 4.73 0 0 0 0.61 0.65 1.47 1.47 0 0 1 0.43 1.36l-1.22 4.1a0.74 0.74 0 0 0 0.61 1l2.22 0.34a1.19 1.19 0 0 0 1.2-0.65l1.8-4.06a2.14 2.14 0 0 1 1.18-1 9.55 9.55 0 0 0 1.31-0.54 0.76 0.76 0 0 1 1.07 0.41l0.9 2.4a0.54 0.54 0 0 0 0.94 0.23l3.11-2.79a1.86 1.86 0 0 0 0.53-1.43l-0.41-3.1a2.47 2.47 0 0 1 0.41-1.54 24.94 24.94 0 0 0 1.41-2.12 1.69 1.69 0 0 1 1.29-0.76h2.11a1.32 1.32 0 0 0 1.16-0.82l1.69-4.57a0.85 0.85 0 0 0-0.52-1.09l-1.75-0.61a1.07 1.07 0 0 1-0.66-1.14 20 20 0 0 0 0.23-2.14 2.6 2.6 0 0 1 0.61-1.48l2.73-2.86a1.8 1.8 0 0 0 0.39-1.53zm-12.87 17.8c-3.37 3-6.82 2.49-7.7-1.19s1.11-9.13 4.48-12.15 6.81-2.49 7.7 1.19-1.12 9.13-4.48 12.15z"/></g><g fill="#6da5ea"><path d="m241.77 286.29a2.64 2.64 0 0 1-1.33-0.35 3.38 3.38 0 0 1-1.46-3.12v-40.06a9.76 9.76 0 0 1 4.41-7.64l34.7-20a3 3 0 0 1 4.89 2.82v40.06a9.78 9.78 0 0 1-4.41 7.64l-34.7 20a4.3 4.3 0 0 1-2.1 0.65zm38.42-70.87a3.35 3.35 0 0 0-1.62 0.5l-34.7 20a8.7 8.7 0 0 0-3.93 6.81v40.06a2.07 2.07 0 0 0 3.45 2l34.7-20a8.71 8.71 0 0 0 3.91-6.79v-40.09a2.5 2.5 0 0 0-1-2.28 1.73 1.73 0 0 0-0.81-0.21z"/><path d="m277.39 224.87v14.21l-9.9 5.73a4 4 0 0 0-3.89-3 6.29 6.29 0 0 0-3.1 0.92 14 14 0 0 0-6.26 9.7l-9.67 5.57v-14.19a5.52 5.52 0 0 1 2.51-4.33l27.81-16.06c1.38-0.79 2.5-0.15 2.5 1.45z"/><path d="m277.39 256.92a5.54 5.54 0 0 1-2.5 4.34l-27.81 16.05c-1.39 0.8-2.51 0.15-2.51-1.44v-14.22l9.9-5.71a3.94 3.94 0 0 0 3.89 3 6.2 6.2 0 0 0 3.1-0.93 14 14 0 0 0 6.25-9.69l9.68-5.58z"/><path d="m261 245.31c2.42-1.39 4.38-0.26 4.38 2.53a9.66 9.66 0 0 1-4.38 7.58c-2.42 1.4-4.38 0.27-4.38-2.52a9.68 9.68 0 0 1 4.38-7.59z"/></g><g fill="#e0e0e0"><path d="m305.7 249.38a2.62 2.62 0 0 1-1.33-0.35 3.38 3.38 0 0 1-1.46-3.12v-40.06a9.73 9.73 0 0 1 4.41-7.64l34.69-20a3 3 0 0 1 4.9 2.82v40.07a9.78 9.78 0 0 1-4.41 7.64l-34.7 20a4.3 4.3 0 0 1-2.1 0.64zm2.1-50.38a8.7 8.7 0 0 0-3.93 6.81v40.06a2.08 2.08 0 0 0 3.45 2l34.69-20a8.68 8.68 0 0 0 3.93-6.8v-40.07a2.07 2.07 0 0 0-3.44-2z"/><path d="m337.89 194.69c-0.32 9.34-2.42 27.9-14.08 39.13-8.19-4.37-12.15-17.29-11.88-25.25a1.44 1.44 0 0 1 0.42-1 1.89 1.89 0 0 1 0.71-0.49c3.56-1.44 9-7.48 11.71-13.53 0.19-0.42 0.46-0.56 0.75-0.41h0.05a0.87 0.87 0 0 1 0.25 0.23 0.12 0.12 0 0 1 0.05 0.05c2.52 3.14 7.67 3.31 11.2 0.8 0.26-0.19 0.48-0.25 0.63-0.18 0.15 0.14 0.22 0.33 0.19 0.65z"/></g><text transform="matrix(.65 -.38 0 1 220.89 231.28)" fill="#455a64" font-family="Rubik-Regular, Rubik" font-size="13.346px">Ope<tspan x="24.379999" y="0" letter-spacing="-.0079025em">r</tspan><tspan x="29.32" y="0" letter-spacing="-.0059513em">a</tspan><tspan x="36.529999" y="0">ting</tspan><tspan x="61.169998" y="0" font-family="Rubik-Medium, Rubik" font-weight="500"/><tspan x="64.209999" y="0" font-family="Rubik-Bold, Rubik" font-size="15.411px" font-weight="700">S</tspan><tspan x="74.599998" y="0" font-family="Rubik-Bold, Rubik" font-size="15.411px" font-weight="700" letter-spacing="-.020024em">y</tspan><tspan x="83.93" y="0" font-family="Rubik-Bold, Rubik" font-size="15.411px" font-weight="700">stem</tspan></text><path d="m230.24 309 61.48-35.5c1.82-1.05 3.3-0.3 3.3 1.67a7.09 7.09 0 0 1-3.3 5.48l-61.48 35.49c-1.82 1.06-3.3 0.31-3.3-1.66a7.07 7.07 0 0 1 3.3-5.48z" fill="#e0e0e0"/><path d="m230.75 309.86a6 6 0 0 0-2.8 4.6c0 0.74 0.25 1.12 0.74 1.12a2.06 2.06 0 0 0 1-0.34l19.31-11.1v-4.8z" fill="#6da5ea"/><path d="m291.21 279.75a6 6 0 0 0 2.79-4.6c0-0.75-0.24-1.13-0.73-1.13a2.13 2.13 0 0 0-1 0.34l-13.58 7.84-29.69 17.14v4.8l29.65-17.14z" fill="#f5f5f5"/><text transform="matrix(.65 -.38 0 1 250.68 315.15)" fill="#455a64" font-family="Rubik-Regular, Rubik" font-size="7.9649px">Please<tspan x="24.27" y="0" letter-spacing="-.022887em"/><tspan x="26.030001" y="0" letter-spacing="-.017002em">w</tspan><tspan x="32.299999" y="0">ait...</tspan></text><path d="m428 303.41-42-24.27-22 14.72c-15.69 8.62-14.49 14.28-7.06 19.37s35.06 17.77 35.06 17.77v11.85l36-20.76c3.1-1.79 5.61-6 5.61-9.32s-2.54-7.57-5.61-9.36z" opacity=".1"/><path d="m424.56 346.67s-5.21 12.76-5.48 17.8c-0.27 5.24-1.54 7-0.65 12.68 0.19 1.25 0.84 3.74 1 4.75a1.49 1.49 0 0 1-1.35 1.86c-2.28 0.47-6.06-3.81-7.86-8.46a135.35 135.35 0 0 1-4.5-16.41 7.12 7.12 0 0 1 0.72-3.67 11.14 11.14 0 0 1 1-1.9c0.76-2.28 1.12-6.62 1.75-9.63z" fill="#ffc7a7"/><path d="m401.27 363.68a5.47 5.47 0 0 0-0.61 1.72c-0.05 1 2.31 4.49 3.24 5.75a8.39 8.39 0 0 1 1.71 6 14.5 14.5 0 0 0 3.5 9.34 23.06 23.06 0 0 0 11.45 7.48c5.52 1.7 7.47-1.07 7.47-1.07s1.71-2.66 0.68-3.75-27.44-25.47-27.44-25.47z" fill="#263238"/><path d="m407.49 353.32c-0.17 0-0.46-0.05-0.9 0.47-0.16 0.2-1.17 2.68-2 4s-3 3.78-3.32 5.9c1.28 4.09 5.13 6.94 5.7 10.81s0.65 8.36 6.59 13.09 12.05 5.22 14.25 4 2-3.61-1.07-8.09c-3.24-4.75-5.43-15.06-5.44-15.07a33.86 33.86 0 0 1-0.57-4.38 29.09 29.09 0 0 1 0.41-4.34 3.19 3.19 0 0 0-0.28-2 3.28 3.28 0 0 0-1.63-1.13 14.45 14.45 0 0 0-3.05-1 4.87 4.87 0 0 0-3.15 0.38c-0.69 0.37-1.25 1-2 1.26a2.84 2.84 0 0 1-2.92-0.52 2.43 2.43 0 0 1-0.79-2.69 6.2 6.2 0 0 1 0.17-0.69z" fill="#455a64"/><g fill="#fafafa"><path d="m410.09 383.79a9.45 9.45 0 0 1 8.61-4.66c6.31 0 8.49 3.23 9.45 5.12 1.15 2.25 2.34 6.33-0.27 7.5-2.81 1.26-6.07 0.87-11.19-1.7s-6.6-6.26-6.6-6.26z"/><path d="m411.23 364.78a0.66 0.66 0 0 0 0.58 0c1-0.49 6.13-1.57 9.14 1.22 0.39-0.32 0.31-0.89-0.19-1.69-3.52-2.23-8.4-1.24-9.58-0.64a0.61 0.61 0 0 0-0.24 0.84 0.65 0.65 0 0 0 0.29 0.27z"/><path d="m421.6 369.66a2 2 0 0 0-0.37-1.73 11.83 11.83 0 0 0-9.13-0.37 0.59 0.59 0 0 0-0.24 0.84 0.61 0.61 0 0 0 0.29 0.28 0.66 0.66 0 0 0 0.58 0c0.94-0.49 5.84-1.51 8.87 0.98z"/><path d="m424.17 378.19a3.55 3.55 0 0 0-0.81-2.28c-3.5-2.11-8.27-1.14-9.43-0.55a0.59 0.59 0 0 0-0.24 0.84 0.64 0.64 0 0 0 0.87 0.27c1.03-0.47 6.71-1.69 9.61 1.72z"/><path d="m413.07 372.58a0.64 0.64 0 0 0 0.57 0c1-0.49 6-1.54 9 1.13a2.23 2.23 0 0 0-0.53-1.87 11.83 11.83 0 0 0-9.13-0.37 0.61 0.61 0 0 0-0.25 0.84 0.63 0.63 0 0 0 0.34 0.27z"/></g><path d="m430.16 362.34s2.58 15.57 5.45 21.61 4.35 8.95 8.3 13.52c0.86 1 2.82 2.85 3.53 3.65a1.56 1.56 0 0 1-0.17 2.4c-1.76 1.68-9.21 2.08-13.39-1s-8-9.8-10.47-12.32c-0.93-0.95-1.81-1.92-2.65-2.94s-0.59-1.94-0.66-3v-2c-0.57-2.62-2.12-6.73-2.94-9.28z" fill="#ffc7a7"/><path d="m418.67 393.93a5.53 5.53 0 0 0 0.19 1.89c0.42 1 4.19 3.23 5.63 4a8.78 8.78 0 0 1 4.28 4.88c1.37 3.23 4.21 5.62 7.49 7.27a24.05 24.05 0 0 0 14.17 2c6-0.85 6.6-4.35 6.6-4.35s0.43-3.28-1-3.86-37.36-11.83-37.36-11.83z" fill="#263238"/><path d="m419.93 381.35c-0.16 0.07-0.46 0.16-0.64 0.84-0.07 0.26 0.09 3.06-0.12 4.67s-1.18 4.94-0.5 7.07c3 3.3 7.95 4.28 10.22 7.68s4.35 7.62 12.08 9.45 13.74-0.44 15.26-2.61 0.28-4.31-4.62-7.18c-5.2-3-11.87-11.82-11.88-11.83a36.76 36.76 0 0 1-2.5-3.89 31.27 31.27 0 0 1-1.55-4.29 3.35 3.35 0 0 0-1.14-1.73 3.41 3.41 0 0 0-2.05-0.34 15 15 0 0 0-3.35 0.38 5.11 5.11 0 0 0-2.81 1.77 23 23 0 0 1-1.3 2.06 2.93 2.93 0 0 1-3 0.81 2.53 2.53 0 0 1-2-2.18 6 6 0 0 1-0.1-0.68z" fill="#455a64"/><g fill="#fafafa"><path d="m436 409a9.92 9.92 0 0 1 6.07-8.26c6-2.79 9.49-0.73 11.24 0.63 2.09 1.62 5 4.94 3.09 7.21-2.1 2.46-5.35 3.54-11.35 3.4s-9.05-2.98-9.05-2.98z"/><path d="m428.59 390.52a0.69 0.69 0 0 0 0.54-0.26c0.7-0.91 5.1-4.23 9.19-2.94 0.23-0.47-0.1-1-0.93-1.51-4.33-0.54-8.5 2.58-9.35 3.68a0.63 0.63 0 0 0 0.15 0.9 0.66 0.66 0 0 0 0.4 0.13z"/><path d="m440.58 390.51a2.08 2.08 0 0 0-1.12-1.48 12.36 12.36 0 0 0-8.81 3.74 0.63 0.63 0 0 0 0.14 0.9 0.71 0.71 0 0 0 0.41 0.13 0.69 0.69 0 0 0 0.54-0.26c0.68-0.88 4.86-4.03 8.84-3.03z"/><path d="m446.82 397.43a3.78 3.78 0 0 0-1.78-1.8c-4.26-0.43-8.34 2.62-9.17 3.7a0.62 0.62 0 0 0 0.14 0.9 0.66 0.66 0 0 0 0.4 0.13 0.71 0.71 0 0 0 0.55-0.26c0.74-0.95 5.6-4.6 9.86-2.67z"/><path d="m433.8 397.08a0.69 0.69 0 0 0 0.55-0.26c0.69-0.9 5-4.15 9-3a2.29 2.29 0 0 0-1.33-1.53 12.3 12.3 0 0 0-8.81 3.73 0.62 0.62 0 0 0 0.14 0.9 0.66 0.66 0 0 0 0.45 0.16z"/></g><path d="m395.82 273.7c6.38 4.67 28.61 17.5 37.63 25.86 2.61 2.41 3.47 5.59 2.83 12.51-0.87 9.4-8.26 41.43-8.26 41.43-1 1.8-2.81-1.63-2.81-1.63l-35.21-44.71z" fill="#6da5ea"/><path d="m395.82 273.7c6.38 4.67 28.61 17.5 37.63 25.86 2.61 2.41 3.47 5.59 2.83 12.51-0.87 9.4-8.26 41.43-8.26 41.43-1 1.8-2.81-1.63-2.81-1.63l-35.21-44.71z" opacity=".3"/><path d="m426.49 343.52c-8.15-6.81-34.47-48.34-34.47-48.34 3.59-3 5.44-13.53 5.44-13.53 1.42 4.05-0.08 10.16-1.19 12.39 2.08 1.8 13.79 11.43 21.92 17.87a11.63 11.63 0 0 1 4.83 7.28c1.69 8.81 3.66 22.55 3.47 24.33z" opacity=".3"/><path d="m395.82 273.7-45.34 10c2.21 8.32 2.84 12.62 5.16 17s4.88 9.09 16.67 14.9c11.36 5.59 25.23 11.34 28 12.66 2.09 1 3.09 5.18 4 10.6 1 5.68 1.08 10.13 6.71 22.07 5.5 11.68 6.63 14.2 6.63 14.2s8.52 0.89 14.18-4.09c0 0-7.72-40.05-9.37-47.26-0.91-4-0.93-6.16-5.93-10.58-4.29-3.8-23.44-18.29-23.44-18.29s7.63-10.18 2.73-21.21z" fill="#6da5ea"/><path d="m395.82 273.7-45.34 10c2.21 8.32 2.84 12.62 5.16 17s4.88 9.09 16.67 14.9c11.36 5.59 25.23 11.34 28 12.66 2.09 1 3.09 5.18 4 10.6 1 5.68 1.08 10.13 6.71 22.07 5.5 11.68 6.63 14.2 6.63 14.2s8.52 0.89 14.18-4.09c0 0-7.72-40.05-9.37-47.26-0.91-4-0.93-6.16-5.93-10.58-4.29-3.8-23.44-18.29-23.44-18.29s7.63-10.18 2.73-21.21z" opacity=".3"/><path d="m406.21 277.71c-8.62-2.45-17.82-5.43-24-7.85-5.58-2.19-6.12-4.77-4.83-11 2-9.77 4.92-37 4.92-37s14.9-1.56 13.51 13.82c-2.57 8.68-4.37 23.54-4.37 23.54s1.8 0.82 4.55 2.17c3.76 1.85 13.46 6.36 16.82 7.58" fill="#ffc7a7"/><path d="m385.64 221.21a15.75 15.75 0 0 1 5.78 1.37c2.89 1.33 4.52 4.34 5 7.3s0.11 7.19-1.36 13.37-2.95 11.85-2.95 11.85l-6.48-3.95z" fill="#37474f"/><path d="m349.21 225.35c-0.74 4-4.75 41.11 3.79 69.12 15.37 1.81 39.38-10.16 43.43-20.34a29.82 29.82 0 0 1-4.41-9.07c0.25-7.75 0-22.54-0.16-27.11-0.31-9.07-1.73-16.08-6.22-16.74l-14.53-0.9-8.24 1z" fill="#6da5ea"/><path d="m349.21 225.35c-0.74 4-4.75 41.11 3.79 69.12 15.37 1.81 39.38-10.16 43.43-20.34a29.82 29.82 0 0 1-4.41-9.07c0.25-7.75 0-22.54-0.16-27.11-0.31-9.07-1.73-16.08-6.22-16.74l-14.53-0.9-8.24 1z" fill="#fff" opacity=".7"/><g fill="#263238"><path d="m363.56 182a7.24 7.24 0 0 0-5.73 3.63c-1.27 2.25-0.74 6.94 0.24 13.16a56.15 56.15 0 0 0 2.82 11.75 4.68 4.68 0 0 0 2.51 2.39l0.44-7.24 0.16-5s4.43 1.75 6.16-5.5c1.09-4.56 0.59-6.1 0.59-6.1z"/><path d="m359.41 178.29 3.7 3.68a2.74 2.74 0 0 1-3.79 0 2.55 2.55 0 0 1 0.09-3.68z"/><path d="m368.45 190.31a13.53 13.53 0 1 0 14.55-12.38 13.53 13.53 0 0 0-14.55 12.38z"/></g><path d="m365.73 200.19c-1.4 0.3-1.85-2.14-2.79-3.29a4.32 4.32 0 0 0-6.58 0.51c-2.56 3-0.35 8.43 2 9.8 3.5 2 5.45-1.54 5.45-1.54l-1 16.35s0.7 3.14 6.75 5.86c4.72 2.13 12.1-0.13 8-5.15l0.4-4.95a21.07 21.07 0 0 0 7 0.72c2.45-0.26 4.49-2 5.92-5.7 2.78-7.22 3.07-17 1-26.06-3.47-3.18-12.91-2-21.12 2.28-1.08 10.06-3.45 10.84-5.03 11.17z" fill="#ffc7a7"/><path d="m395.4 178.06a0.59 0.59 0 0 0-0.45-0.41 0.78 0.78 0 0 0-0.47 0.16 21.21 21.21 0 0 1-3.12 1.73 10.71 10.71 0 0 0 0.4-4c-0.08-0.83-0.15-2.74-1.14-3-0.6-0.17-1.16 0.29-1.65 0.67-4.37 3.45-9.51 1.24-14.4 1-4.09-0.21-9.16 1-11.34 4.84-1 1.75-1.3 3.65 0.26 5a40.78 40.78 0 0 0 7.26 5c4.35 1.69 16.74 4.65 22.52-2.8a14.2 14.2 0 0 0 2.36-4.77 5.91 5.91 0 0 0-0.21-3.34s-0.01-0.06-0.02-0.08z" fill="#263238"/><path d="m378 217.78s-6-2.06-8.34-3.86a11.64 11.64 0 0 1-3.54-4.44 15.73 15.73 0 0 0 2.33 5.28c2.76 3.44 9.36 5.27 9.36 5.27z" fill="#f29b8f"/><path d="m379.17 200.07a1.49 1.49 0 1 1-1.36-1.67 1.53 1.53 0 0 1 1.36 1.67z" fill="#263238"/><path d="m380.92 210.42a1.49 1.49 0 1 1-1.36-1.67 1.52 1.52 0 0 1 1.36 1.67z" fill="#f29b8f"/><g fill="#263238"><path d="m378.06 194.86-3.37 1.36a1.91 1.91 0 0 1 1-2.43 1.78 1.78 0 0 1 2.37 1.07z"/><path d="m391.76 196.17-3.42-1.32a1.77 1.77 0 0 1 2.31-1.09 1.93 1.93 0 0 1 1.11 2.41z"/><path d="m390.46 200a1.49 1.49 0 1 1-1.36-1.66 1.52 1.52 0 0 1 1.36 1.66z"/></g><polygon points="383.42 196.81 382.87 206.57 387.9 205.38" fill="#f29b8f"/><path d="m434.87 301.22a8.92 8.92 0 0 0-1.42-1.66c-5.42-5-15.6-11.65-24.25-17.16l-39.37 22.73a0.36 0.36 0 0 0 0 0.62l28.59 16.51z" opacity=".15"/><path d="m446.8 289.66v0.64a2.62 2.62 0 0 1-1.31 2.26l-45.76 26.44a2.67 2.67 0 0 1-1.31 0.34 2.58 2.58 0 0 1-1.31-0.35l-24.95-14.35a2.64 2.64 0 0 1-1.31-2.27v-0.88a0.33 0.33 0 0 0 0.17 0.29l27.39 15.82z" fill="#37474f"/><path d="m398.42 317.59v1.74a2.67 2.67 0 0 0 1.31-0.34l45.76-26.43a2.58 2.58 0 0 0 1.31-2.26v-0.64z" fill="#263238"/><path d="m446.8 289.66-27.13-15.66a1.55 1.55 0 0 0-1.56 0l-47.11 27.18a0.35 0.35 0 0 0 0 0.6l27.39 15.81z" fill="#455a64"/><path d="m412.82 269 3.05 1.11c2.52 0.92 7.82 3.47 8.64 4.58s5.77 8 6.41 9.68 1 5.3-2.39 5.7c-3.06 0.37-5.93-2-8-4.05a31.1 31.1 0 0 1-2.64-3.17 11.76 11.76 0 0 1-6.52-2.62 19.83 19.83 0 0 0-5.19-2.5" fill="#ffc7a7"/><polygon points="441.05 290.54 398.17 315.29 383.53 306.85 426.33 282.14" fill="#37474f"/><polygon points="426.33 282.14 441.04 290.54 440.49 290.86 426.33 282.78 384.09 307.17 383.54 306.85" fill="#263238"/><polygon points="404 284.29 390.98 291.81 391.25 291.96 398.42 296.1 411.18 288.74 411.44 288.59" fill="#263238"/><polygon points="404 284.6 391.25 291.96 398.42 296.1 411.18 288.74" fill="#37474f"/><path d="m399.16 318a3.1 3.1 0 0 0 2.67-0.21l45.57-26.31a3.06 3.06 0 0 0 1.5-2.16l5-29.75a2.92 2.92 0 0 0 0-0.51 3.11 3.11 0 0 0-0.91-2.2l-47.36 27.34a2.28 2.28 0 0 0-1.11 1.6z" fill="#37474f"/><path d="m398.42 317.59 0.31 0.18a3.42 3.42 0 0 0 0.43 0.21l5.39-32.2a2.28 2.28 0 0 1 1.11-1.6l47.34-27.34a2.75 2.75 0 0 0-0.64-0.48l-47.45 27.39a2.31 2.31 0 0 0-1.11 1.6z" fill="#455a64"/><path d="m405 284.79-0.73-0.43a2.27 2.27 0 0 0-0.44 1l-5.4 32.24 0.31 0.18a3.42 3.42 0 0 0 0.43 0.21l5.39-32.2a2.27 2.27 0 0 1 0.44-1z" fill="#263238"/><path d="m424.82 290.52c0.34-2 2.39-4.64 4.59-5.91s3.72-0.69 3.39 1.3-2.39 4.64-4.6 5.91-3.71 0.69-3.38-1.3z" fill="#6da5ea"/><path d="m335.12 285.13c-6.07-1.8-5.55-6.06-4.65-12.33 1.69-11.66 5.09-28.36 6.81-35.54 1.86-7.74 6.35-10 13.71-11.93 4.43 5.15 0 22.45 0 22.45l-4.44 25.39s23.63 9.39 27.38 10.77c2.52 0.92 7.82 3.47 8.65 4.58s5.76 8 6.41 9.68 1 5.3-2.39 5.7c-3.06 0.37-5.93-2-8-4a30.39 30.39 0 0 1-2.65-3.17 25.17 25.17 0 0 1-7.39-3.91s-27.07-5.82-33.44-7.69z" fill="#ffc7a7"/><path d="m351.41 224.71s-6.47 0.47-9.53 3.79c-3.91 4.23-4.83 7.33-6.34 15.06-1.07 5.49-3.77 18.58-3.77 18.58a20.07 20.07 0 0 0 16.42 3.74l3.81-16.64a53.58 53.58 0 0 0 2.93-8c1.79-7.5-0.45-13.92-3.52-16.53z" fill="#37474f"/><path d="m434.94 241.77-2.94-5.55 2.38-6.86v-4.2l-7.28 4.2v4.19l3.13 5.42a0.48 0.48 0 0 0 0.21 0.19z" fill="#6da5ea"/><path d="m434.94 241.77-2.94-5.55 2.38-6.86v-4.2l-7.28 4.2v4.19l3.13 5.42a0.48 0.48 0 0 0 0.21 0.19z" opacity=".2"/><path d="m452.31 191.77a4.78 4.78 0 0 0-2.18-3.77l-0.86-0.48a4.79 4.79 0 0 0-4.36 0l-27.23 15.74a4.82 4.82 0 0 0-2.18 3.74v30a4.82 4.82 0 0 0 2.18 3.78l0.86 0.48a4.85 4.85 0 0 0 4.36 0l8.76-5.06 3.12 5.4a0.46 0.46 0 0 0 0.84-0.08l3.3-9.52 11.21-6.49a4.8 4.8 0 0 0 2.18-3.78z" fill="#6da5ea"/><path d="m415.5 237a4.82 4.82 0 0 0 2.18 3.78l0.86 0.48a4.86 4.86 0 0 0 4 0.17c-1 0.39-1.81-0.19-1.81-1.43v-30a4.55 4.55 0 0 1 0.64-2.15l-5.22-3a4.44 4.44 0 0 0-0.64 2.15z" opacity=".2"/><path d="m452.24 191.15c-0.25-0.92-1.1-1.22-2.1-0.64l-27.24 15.76a4.21 4.21 0 0 0-1.53 1.62l-5.23-3a4.49 4.49 0 0 1 1.54-1.63l27.22-15.75a4.87 4.87 0 0 1 4.37 0l0.87 0.48a4.81 4.81 0 0 1 2.1 3.16z" fill="#fff" opacity=".3"/><g fill="#fafafa"><path d="m442.35 203.36 1.15-2.19 3.14-0.7a2.46 2.46 0 0 0-1.3-2.07c-1.18-0.5-2.85 0.45-4 2.32a8.31 8.31 0 0 0-1.35 4.69 2.29 2.29 0 0 1-0.29 1.16l-1.6 3.07-1.18 2.23 2.19 1.54 0.9-1.71 1.48-2.82a1.67 1.67 0 0 1 1-0.9 5.51 5.51 0 0 0 3.25-3c0.08-0.15 0.16-0.31 0.23-0.46l-3.16 0.69z"/><path d="m433.78 217.88-0.83 1.59-1.48 2.82a1.6 1.6 0 0 1-1 0.9 5.53 5.53 0 0 0-3.26 3c-0.08 0.16-0.15 0.31-0.22 0.47l3.15-0.7 0.43 1.82-1.15 2.2-3.14 0.69a2.46 2.46 0 0 0 1.3 2.07c1.18 0.51 2.84-0.45 4-2.31a8.32 8.32 0 0 0 1.34-4.69 2.36 2.36 0 0 1 0.29-1.17l1.84-3.51 0.78-1.52z"/><path d="m446.22 220.13-14.22-10.13c0.08-0.15 0.08-0.33 0-0.39l-1.33-1c-0.2-0.16-0.2-0.59 0-1 0.89-1.7 2.34-2.53 3.22-1.86l0.24 0.17c0.17-0.32 0.17-0.69 0-0.82l-0.37-0.27c-1.33-1-3.5 0.24-4.83 2.79l-1.8 3.38-0.14 0.28-0.11 0.21-0.11 0.2c0.38 0.28 0 1.61-0.52 2.5s-0.63 0.93-0.84 0.93-0.21 0-0.28 0.17l-0.1 0.2-0.45 0.85v0.08c-0.13 0.23-0.13 0.5 0 0.59l1.64 1.23c0.14 0.11 0.37 0 0.51-0.29l0.44-0.85 0.11-0.21c0.09-0.16 0.09-0.34 0-0.4a5 5 0 0 1 1-2.18c0.66-1 1.3-0.84 1.3-0.84l0.25 0.19c0.09 0.07 0.23 0 0.32-0.18l0.09-0.18 13.76 11.13c0.2 0.16 0.53 0 0.74-0.42l1.51-2.89c0.19-0.4 0.18-0.84-0.03-0.99z"/></g></g></svg>
