<svg width="240" height="240" version="1.1" viewBox="0 0 240 240" xmlns="http://www.w3.org/2000/svg"><g transform="matrix(.61093 0 0 .61093 -30.504 -19.965)"><g opacity=".3"><path d="m252.7 365.39 62.22 35.77a2.88 2.88 0 0 0 2.59 0l110.13-63.58a0.79 0.79 0 0 0 0-1.5l-62.22-35.77a2.82 2.82 0 0 0-2.59 0l-110.13 63.58a0.79 0.79 0 0 0 0 1.5z"/><path d="m442.76 384c-0.2-1.59-2.11-2.4-3.16-3l-42.48-24.6a6.11 6.11 0 0 0-6.08 0l-42.47 24.4c-1.25 0.73-3.3 2.11-3.3 3.72s1.12 2 3.18 3.17l42.17 24.36a6.94 6.94 0 0 0 6.94 0l43.52-24.93a3.25 3.25 0 0 0 1.68-3.12z"/></g><g fill="none" stroke="#6da5ea" stroke-miterlimit="10"><path d="m297.73 257.89 10-5.78a4.79 4.79 0 0 1 4.33 0l62.83 36.27"/><path d="m293.67 255.55 14.08-8.13a4.79 4.79 0 0 1 4.33 0l66.92 38.58"/><path d="m383 283.69-70.95-41a4.79 4.79 0 0 0-4.33 0l-18.12 10.51"/><path d="m387.09 281.35-75-43.31a4.79 4.79 0 0 0-4.33 0l-22.22 12.82"/></g><path d="m234.62 45.75-64.73 37.37a4.78 4.78 0 0 0-2.16 3.75v177.92a4.8 4.8 0 0 0 2.16 3.75l64.73 37.37a4.79 4.79 0 0 0 4.33 0l64.72-37.37a4.78 4.78 0 0 0 2.17-3.75v-177.92a4.76 4.76 0 0 0-2.17-3.75l-64.67-37.37a4.79 4.79 0 0 0-4.38 0z" fill="#37474f"/><path d="m305.84 86.86v177.93a4.8 4.8 0 0 1-2.16 3.75l-64.68 37.37a4.34 4.34 0 0 1-2.16 0.52v-182.93a4.48 4.48 0 0 0 2.16-0.5l64.73-37.37 0.59-0.49 0.77-0.64a4.49 4.49 0 0 1 0.75 2.36z" fill="#263238"/><path d="m178 104.38 48.48 28a4.81 4.81 0 0 1 2.16 3.75v18.46c0 1.38-1 1.94-2.17 1.25l-48.47-28a4.78 4.78 0 0 1-2.17-3.75v-18.46c0.02-1.38 0.99-1.94 2.17-1.25z" fill="#455a64"/><path d="m179.91 112.51a4.64 4.64 0 0 0 2.17 3.59l40.35 23.3c1.2 0.69 2.17 0.2 2.17-1.09a4.64 4.64 0 0 0-2.17-3.6l-40.35-23.3c-1.2-0.69-2.17-0.2-2.17 1.1z" fill="#6da5ea"/><path d="m179.91 121.89a4.64 4.64 0 0 0 2.17 3.59l40.35 23.3c1.2 0.69 2.17 0.2 2.17-1.09a4.64 4.64 0 0 0-2.17-3.6l-40.35-23.3c-1.2-0.69-2.17-0.2-2.17 1.1z" fill="#263238"/><path d="m182.08 120.79 22.21 12.83v4.69l-22.21-12.83a4.64 4.64 0 0 1-2.17-3.59c0-1.3 0.97-1.79 2.17-1.1z" fill="#6da5ea"/><path d="m178 137.21 48.48 28a4.8 4.8 0 0 1 2.16 3.75v18.44c0 1.38-1 1.94-2.17 1.25l-48.47-28a4.78 4.78 0 0 1-2.17-3.75v-18.44c0.02-1.38 0.99-1.94 2.17-1.25z" fill="#455a64"/><path d="m179.91 145.34a4.64 4.64 0 0 0 2.17 3.6l40.35 23.29c1.2 0.69 2.17 0.2 2.17-1.09a4.64 4.64 0 0 0-2.17-3.6l-40.35-23.29c-1.2-0.69-2.17-0.2-2.17 1.09z" fill="#6da5ea"/><path d="m179.91 154.72a4.64 4.64 0 0 0 2.17 3.6l40.35 23.29c1.2 0.7 2.17 0.2 2.17-1.09a4.64 4.64 0 0 0-2.17-3.6l-40.35-23.29c-1.2-0.69-2.17-0.2-2.17 1.09z" fill="#263238"/><path d="m182.08 153.63 34.39 19.85v4.69l-34.39-19.85a4.64 4.64 0 0 1-2.17-3.6c0-1.29 0.97-1.78 2.17-1.09z" fill="#6da5ea"/><path d="m178 170 48.48 28a4.8 4.8 0 0 1 2.16 3.75v18.45c0 1.38-1 1.94-2.17 1.25l-48.47-27.95a4.78 4.78 0 0 1-2.17-3.75v-18.46c0.02-1.38 0.99-1.94 2.17-1.29z" fill="#455a64"/><path d="m179.91 178.17a4.64 4.64 0 0 0 2.17 3.6l40.35 23.3c1.2 0.69 2.17 0.2 2.17-1.1a4.64 4.64 0 0 0-2.17-3.59l-40.35-23.3c-1.2-0.69-2.17-0.2-2.17 1.09z" fill="#6da5ea"/><path d="m179.91 187.56a4.64 4.64 0 0 0 2.17 3.59l40.35 23.3c1.2 0.69 2.17 0.2 2.17-1.1a4.64 4.64 0 0 0-2.17-3.59l-40.35-23.3c-1.2-0.69-2.17-0.2-2.17 1.1z" fill="#263238"/><path d="m182.08 186.46 14.08 8.13v4.69l-14.08-8.13a4.64 4.64 0 0 1-2.17-3.59c0-1.3 0.97-1.79 2.17-1.1z" fill="#6da5ea"/><path d="m178 202.88 48.48 28a4.8 4.8 0 0 1 2.16 3.75v18.46c0 1.38-1 1.94-2.17 1.25l-48.47-28a4.78 4.78 0 0 1-2.17-3.75v-18.46c0.02-1.38 0.99-1.94 2.17-1.25z" fill="#455a64"/><path d="m179.91 211a4.64 4.64 0 0 0 2.17 3.59l40.35 23.3c1.2 0.69 2.17 0.2 2.17-1.1a4.64 4.64 0 0 0-2.17-3.59l-40.35-23.3c-1.2-0.68-2.17-0.19-2.17 1.1z" fill="#6da5ea"/><path d="m179.91 220.39a4.64 4.64 0 0 0 2.17 3.59l40.35 23.3c1.2 0.69 2.17 0.2 2.17-1.09a4.64 4.64 0 0 0-2.17-3.6l-40.35-23.3c-1.2-0.69-2.17-0.2-2.17 1.1z" fill="#263238"/><path d="m182.08 219.29 22.21 12.82v4.69l-22.21-12.8a4.64 4.64 0 0 1-2.17-3.59c0-1.32 0.97-1.81 2.17-1.12z" fill="#6da5ea"/><path d="m178 235.71 48.48 28a4.8 4.8 0 0 1 2.16 3.75v18.44c0 1.38-1 1.94-2.17 1.25l-48.47-28a4.78 4.78 0 0 1-2.17-3.75v-18.4c0.02-1.42 0.99-2 2.17-1.29z" fill="#455a64"/><path d="m179.91 243.84a4.64 4.64 0 0 0 2.17 3.6l40.35 23.29c1.2 0.69 2.17 0.2 2.17-1.09a4.64 4.64 0 0 0-2.17-3.6l-40.35-23.29c-1.2-0.7-2.17-0.2-2.17 1.09z" fill="#6da5ea"/><path d="m179.91 253.22a4.64 4.64 0 0 0 2.17 3.6l40.35 23.29c1.2 0.69 2.17 0.2 2.17-1.09a4.64 4.64 0 0 0-2.17-3.6l-40.35-23.29c-1.2-0.69-2.17-0.2-2.17 1.09z" fill="#263238"/><path d="m182.08 252.13 30.33 17.51v4.69l-30.33-17.51a4.64 4.64 0 0 1-2.17-3.6c0-1.29 0.97-1.78 2.17-1.09z" fill="#6da5ea"/><path d="m246.94 134.8c2.24-1.3 4.06-0.12 4.06 2.64v107.27a9.33 9.33 0 0 1-4.06 7.36c-2.24 1.3-4.06 0.11-4.06-2.65v-107.27a9.31 9.31 0 0 1 4.06-7.35z" fill="#37474f"/><path d="m246.94 249.69a4.63 4.63 0 0 0 2-3.67v-107.57c0-1.38-0.91-2-2-1.33a4.65 4.65 0 0 0-2 3.68v107.57c-0.03 1.38 0.88 1.97 2 1.32z" fill="#263238"/><path d="m246.94 249.69a4.63 4.63 0 0 0 2-3.67v-51.43l-4.06 2.35v51.43c0.03 1.38 0.94 1.97 2.06 1.32z" fill="#6da5ea"/><path d="m259.12 127.76c2.25-1.3 4.07-0.11 4.07 2.65v107.27a9.31 9.31 0 0 1-4.06 7.35c-2.25 1.3-4.07 0.12-4.07-2.64v-107.27a9.33 9.33 0 0 1 4.06-7.36z" fill="#37474f"/><path d="m259.13 242.66a4.65 4.65 0 0 0 2-3.67v-107.57c0-1.39-0.91-2-2-1.33a4.65 4.65 0 0 0-2 3.67v107.57c-0.04 1.38 0.87 1.98 2 1.33z" fill="#6da5ea"/><path d="m271.31 120.73c2.24-1.3 4.06-0.12 4.06 2.64v107.27a9.3 9.3 0 0 1-4.06 7.36c-2.24 1.3-4.06 0.11-4.06-2.65v-107.27a9.31 9.31 0 0 1 4.06-7.35z" fill="#37474f"/><path d="m271.31 235.62a4.63 4.63 0 0 0 2-3.67v-107.57c0-1.38-0.91-2-2-1.33a4.65 4.65 0 0 0-2 3.67v107.58c-0.03 1.38 0.88 1.97 2 1.32z" fill="#263238"/><path d="m271.31 235.62a4.63 4.63 0 0 0 2-3.67v-83.09l-4.06 2.34v83.1c0.03 1.38 0.94 1.97 2.06 1.32z" fill="#6da5ea"/><path d="m283.5 113.69c2.24-1.3 4.06-0.12 4.06 2.65v107.27a9.31 9.31 0 0 1-4.06 7.39c-2.25 1.3-4.06 0.12-4.06-2.64v-107.31a9.29 9.29 0 0 1 4.06-7.36z" fill="#37474f"/><path d="m283.5 228.59a4.65 4.65 0 0 0 2-3.67v-107.58c0-1.38-0.91-2-2-1.32a4.63 4.63 0 0 0-2 3.67v107.57c-0.03 1.38 0.88 1.98 2 1.33z" fill="#263238"/><path d="m283.5 228.59a4.65 4.65 0 0 0 2-3.67v-18.16l-4.06 2.34v18.16c0.03 1.38 0.94 1.98 2.06 1.33z" fill="#6da5ea"/><path d="m295.68 106.66c2.25-1.3 4.07-0.12 4.07 2.64v107.27a9.31 9.31 0 0 1-4.07 7.36c-2.24 1.3-4.06 0.11-4.06-2.65v-107.28a9.31 9.31 0 0 1 4.06-7.34z" fill="#37474f"/><path d="m295.68 221.55a4.63 4.63 0 0 0 2-3.67v-107.57c0-1.38-0.9-2-2-1.33a4.65 4.65 0 0 0-2 3.67v107.58c-0.03 1.38 0.88 1.97 2 1.32z" fill="#263238"/><path d="m295.68 221.55a4.63 4.63 0 0 0 2-3.67v-56.12l-4.06 2.34v56.13c0.03 1.38 0.94 1.97 2.06 1.32z" fill="#6da5ea"/><path d="m244.61 265.12 53.39-30.83c1-0.56 1.74-0.11 1.74 1v19.45a3.83 3.83 0 0 1-1.74 3l-53.4 30.83c-1 0.55-1.73 0.11-1.73-1v-19.45a3.82 3.82 0 0 1 1.74-3z" fill="#37474f"/><path d="m246.8 270.89c0 1.29 1 1.78 2.17 1.09l44.68-25.8a4.64 4.64 0 0 0 2.17-3.6c0-1.29-1-1.78-2.17-1.09l-44.65 25.8a4.64 4.64 0 0 0-2.2 3.6z" fill="#263238"/><path d="m246.8 270.89c0 1.29 1 1.78 2.17 1.09l32.5-18.77v-4.69l-32.47 18.77a4.64 4.64 0 0 0-2.2 3.6z" fill="#6da5ea"/><path d="m246.8 280.27c0 1.29 1 1.78 2.17 1.09l44.68-25.8a4.64 4.64 0 0 0 2.17-3.6c0-1.29-1-1.78-2.17-1.09l-44.65 25.8a4.64 4.64 0 0 0-2.2 3.6z" fill="#263238"/><path d="m246.8 280.27c0 1.29 1 1.78 2.17 1.09l12.19-7v-4.69l-12.19 7a4.64 4.64 0 0 0-2.17 3.6z" fill="#6da5ea"/><path d="m303.67 83.12-64.67-37.37a4.79 4.79 0 0 0-4.33 0l-64.78 37.37a1.32 1.32 0 0 0 0 2.5l64.73 37.38a4.79 4.79 0 0 0 4.33 0l64.72-37.36a1.32 1.32 0 0 0 0-2.52z" fill="#455a64"/><g fill="none" stroke="#6da5ea" stroke-miterlimit="10"><path d="m184 323.57 10-5.79a4.79 4.79 0 0 1 4.33 0l59.52 34.37a2.21 2.21 0 0 0 3.31-1.91v-49.24"/><path d="m179.91 321.22 14.09-8.13a4.79 4.79 0 0 1 4.33 0l63.58 36.71a2.21 2.21 0 0 0 3.31-1.91v-46.89"/><path d="m175.85 318.87 18.15-10.47a4.79 4.79 0 0 1 4.33 0l67.67 39.06a2.2 2.2 0 0 0 3.3-1.91v-44.26"/><path d="m171.78 316.53 22.22-12.82a4.79 4.79 0 0 1 4.33 0l71.67 41.4a2.2 2.2 0 0 0 3.3-1.91v-41.91"/></g><path d="m116.82 113.75-64.73 37.37a4.78 4.78 0 0 0-2.16 3.75v177.92a4.8 4.8 0 0 0 2.16 3.75l64.73 37.37a4.79 4.79 0 0 0 4.33 0l64.72-37.37a4.78 4.78 0 0 0 2.17-3.75v-177.92a4.78 4.78 0 0 0-2.17-3.75l-64.72-37.37a4.79 4.79 0 0 0-4.33 0z" fill="#37474f"/><path d="m188 154.86v177.93a4.8 4.8 0 0 1-2.16 3.75l-64.73 37.37a4.34 4.34 0 0 1-2.16 0.52v-182.93a4.48 4.48 0 0 0 2.16-0.52l64.73-37.37 0.59-0.49 0.77-0.64a4.49 4.49 0 0 1 0.8 2.38z" fill="#263238"/><path d="m60.22 172.38 48.48 28a4.78 4.78 0 0 1 2.16 3.75v18.45c0 1.38-1 1.94-2.17 1.25l-48.47-28a4.78 4.78 0 0 1-2.17-3.75v-18.45c0-1.38 0.95-1.94 2.17-1.25z" fill="#455a64"/><path d="m62.12 180.51a4.62 4.62 0 0 0 2.16 3.59l40.35 23.3c1.2 0.69 2.17 0.2 2.17-1.09a4.64 4.64 0 0 0-2.17-3.6l-40.35-23.3c-1.2-0.69-2.16-0.2-2.16 1.1z" fill="#6da5ea"/><path d="m62.12 189.89a4.62 4.62 0 0 0 2.16 3.59l40.35 23.3c1.2 0.69 2.17 0.2 2.17-1.09a4.64 4.64 0 0 0-2.17-3.6l-40.35-23.3c-1.2-0.69-2.16-0.2-2.16 1.1z" fill="#263238"/><path d="m64.28 188.79 22.21 12.83v4.69l-22.21-12.83a4.62 4.62 0 0 1-2.16-3.59c0-1.3 0.96-1.79 2.16-1.1z" fill="#6da5ea"/><path d="m60.22 205.21 48.48 28a4.8 4.8 0 0 1 2.16 3.75v18.44c0 1.38-1 1.94-2.17 1.25l-48.47-28a4.78 4.78 0 0 1-2.17-3.75v-18.44c0-1.38 0.95-1.94 2.17-1.25z" fill="#455a64"/><path d="m62.12 213.34a4.63 4.63 0 0 0 2.16 3.6l40.35 23.29c1.2 0.69 2.17 0.2 2.17-1.09a4.64 4.64 0 0 0-2.17-3.6l-40.35-23.29c-1.2-0.69-2.16-0.2-2.16 1.09z" fill="#6da5ea"/><path d="m62.12 222.72a4.63 4.63 0 0 0 2.16 3.6l40.35 23.3c1.2 0.69 2.17 0.2 2.17-1.1a4.65 4.65 0 0 0-2.17-3.6l-40.35-23.29c-1.2-0.69-2.16-0.2-2.16 1.09z" fill="#263238"/><path d="m64.28 221.63 34.39 19.85v4.69l-34.39-19.85a4.63 4.63 0 0 1-2.16-3.6c0-1.29 0.96-1.78 2.16-1.09z" fill="#6da5ea"/><path d="m60.22 238 48.48 28a4.8 4.8 0 0 1 2.16 3.75v18.45c0 1.38-1 1.94-2.17 1.25l-48.47-28a4.78 4.78 0 0 1-2.17-3.75v-18.41c0-1.38 0.95-1.94 2.17-1.29z" fill="#455a64"/><path d="m62.12 246.17a4.63 4.63 0 0 0 2.16 3.6l40.35 23.3c1.2 0.69 2.17 0.2 2.17-1.1a4.64 4.64 0 0 0-2.17-3.59l-40.35-23.3c-1.2-0.69-2.16-0.2-2.16 1.09z" fill="#6da5ea"/><path d="m62.12 255.56a4.62 4.62 0 0 0 2.16 3.59l40.35 23.3c1.2 0.69 2.17 0.2 2.17-1.1a4.64 4.64 0 0 0-2.17-3.59l-40.35-23.3c-1.2-0.69-2.16-0.2-2.16 1.1z" fill="#263238"/><path d="m64.28 254.46 14.08 8.13v4.69l-14.08-8.13a4.62 4.62 0 0 1-2.16-3.59c0-1.3 0.96-1.79 2.16-1.1z" fill="#6da5ea"/><path d="m60.22 270.88 48.48 28a4.8 4.8 0 0 1 2.16 3.75v18.46c0 1.38-1 1.94-2.17 1.25l-48.47-28a4.78 4.78 0 0 1-2.17-3.75v-18.46c0-1.38 0.95-1.94 2.17-1.25z" fill="#455a64"/><path d="m62.12 279a4.62 4.62 0 0 0 2.16 3.59l40.35 23.3c1.2 0.69 2.17 0.2 2.17-1.09a4.64 4.64 0 0 0-2.17-3.6l-40.35-23.3c-1.2-0.68-2.16-0.19-2.16 1.1z" fill="#6da5ea"/><path d="m62.12 288.39a4.62 4.62 0 0 0 2.16 3.61l40.35 23.3c1.2 0.69 2.17 0.2 2.17-1.09a4.64 4.64 0 0 0-2.17-3.6l-40.35-23.3c-1.2-0.71-2.16-0.22-2.16 1.08z" fill="#263238"/><path d="m64.28 287.29 22.21 12.83v4.69l-22.21-12.81a4.62 4.62 0 0 1-2.16-3.59c0-1.32 0.96-1.81 2.16-1.12z" fill="#6da5ea"/><path d="m60.22 303.71 48.48 28a4.8 4.8 0 0 1 2.16 3.75v18.44c0 1.38-1 1.94-2.17 1.25l-48.47-28a4.78 4.78 0 0 1-2.17-3.75v-18.4c0-1.42 0.95-2 2.17-1.29z" fill="#455a64"/><path d="m62.12 311.84a4.63 4.63 0 0 0 2.16 3.6l40.35 23.29c1.2 0.69 2.17 0.2 2.17-1.09a4.64 4.64 0 0 0-2.17-3.6l-40.35-23.29c-1.2-0.69-2.16-0.2-2.16 1.09z" fill="#6da5ea"/><path d="m62.12 321.22a4.63 4.63 0 0 0 2.16 3.6l40.35 23.29c1.2 0.69 2.17 0.2 2.17-1.09a4.64 4.64 0 0 0-2.17-3.6l-40.35-23.29c-1.2-0.69-2.16-0.2-2.16 1.09z" fill="#263238"/><path d="m64.28 320.13 30.33 17.51v4.69l-30.33-17.51a4.63 4.63 0 0 1-2.16-3.6c0-1.29 0.96-1.78 2.16-1.09z" fill="#6da5ea"/><path d="m129.14 202.8c2.24-1.3 4.06-0.12 4.06 2.64v107.27a9.31 9.31 0 0 1-4.06 7.36c-2.24 1.3-4.06 0.12-4.06-2.65v-107.27a9.31 9.31 0 0 1 4.06-7.35z" fill="#37474f"/><path d="m129.14 317.69a4.63 4.63 0 0 0 2-3.67v-107.57c0-1.38-0.91-2-2-1.33a4.66 4.66 0 0 0-2 3.68v107.57c-0.03 1.38 0.86 1.97 2 1.32z" fill="#263238"/><path d="m129.14 317.69a4.63 4.63 0 0 0 2-3.67v-51.43l-4.06 2.35v51.43c0.03 1.38 0.92 1.97 2.06 1.32z" fill="#6da5ea"/><path d="m141.33 195.76c2.24-1.3 4.06-0.11 4.06 2.65v107.27a9.31 9.31 0 0 1-4.06 7.35c-2.25 1.3-4.07 0.12-4.07-2.64v-107.27a9.31 9.31 0 0 1 4.07-7.36z" fill="#37474f"/><path d="m141.33 310.66a4.65 4.65 0 0 0 2-3.67v-107.57c0-1.39-0.91-2-2-1.33a4.65 4.65 0 0 0-2 3.67v107.57c-0.04 1.38 0.87 1.98 2 1.33z" fill="#6da5ea"/><path d="m153.51 188.73c2.24-1.3 4.06-0.12 4.06 2.64v107.27a9.3 9.3 0 0 1-4.06 7.36c-2.24 1.3-4.06 0.11-4.06-2.65v-107.27a9.31 9.31 0 0 1 4.06-7.35z" fill="#37474f"/><path d="m153.51 303.62a4.63 4.63 0 0 0 2-3.67v-107.57c0-1.38-0.91-2-2-1.33a4.65 4.65 0 0 0-2 3.68v107.57c-0.03 1.38 0.88 1.97 2 1.32z" fill="#263238"/><path d="m153.51 303.62a4.63 4.63 0 0 0 2-3.67v-83.09l-4.06 2.34v83.1c0.03 1.38 0.94 1.97 2.06 1.32z" fill="#6da5ea"/><path d="m165.7 181.69c2.24-1.3 4.06-0.11 4.06 2.65v107.27a9.31 9.31 0 0 1-4.06 7.39c-2.25 1.3-4.06 0.12-4.06-2.64v-107.31a9.29 9.29 0 0 1 4.06-7.36z" fill="#37474f"/><path d="m165.7 296.59a4.65 4.65 0 0 0 2-3.67v-107.58c0-1.38-0.91-2-2-1.32a4.63 4.63 0 0 0-2 3.67v107.57c-0.03 1.38 0.88 1.98 2 1.33z" fill="#263238"/><path d="m165.7 296.59a4.65 4.65 0 0 0 2-3.67v-18.16l-4.06 2.35v18.15c0.03 1.38 0.94 1.98 2.06 1.33z" fill="#6da5ea"/><path d="m177.88 174.66c2.25-1.3 4.07-0.12 4.07 2.64v107.27a9.31 9.31 0 0 1-4.07 7.36c-2.24 1.3-4.06 0.11-4.06-2.65v-107.28a9.31 9.31 0 0 1 4.06-7.34z" fill="#37474f"/><path d="m177.88 289.55a4.61 4.61 0 0 0 2-3.67v-107.57c0-1.38-0.91-2-2-1.33a4.65 4.65 0 0 0-2 3.67v107.58c-0.03 1.38 0.88 1.97 2 1.32z" fill="#263238"/><path d="m177.88 289.55a4.61 4.61 0 0 0 2-3.67v-56.12l-4.06 2.34v56.13c0.03 1.38 0.94 1.97 2.06 1.32z" fill="#6da5ea"/><path d="m126.81 333.12 53.4-30.83c1-0.56 1.74-0.11 1.74 1v19.45a3.83 3.83 0 0 1-1.74 3l-53.4 30.83c-1 0.56-1.73 0.11-1.73-1v-19.45a3.82 3.82 0 0 1 1.73-3z" fill="#37474f"/><path d="m129 338.89c0 1.29 1 1.78 2.17 1.09l44.68-25.8a4.64 4.64 0 0 0 2.17-3.6c0-1.29-1-1.78-2.17-1.09l-44.68 25.8a4.64 4.64 0 0 0-2.17 3.6z" fill="#263238"/><path d="m129 338.89c0 1.29 1 1.78 2.17 1.09l32.5-18.77v-4.69l-32.5 18.77a4.64 4.64 0 0 0-2.17 3.6z" fill="#6da5ea"/><path d="m129 348.27c0 1.29 1 1.79 2.17 1.09l44.68-25.8a4.64 4.64 0 0 0 2.15-3.56c0-1.29-1-1.78-2.17-1.09l-44.68 25.8a4.64 4.64 0 0 0-2.15 3.56z" fill="#263238"/><path d="m129 348.27c0 1.29 1 1.79 2.17 1.09l12.19-7v-4.69l-12.19 7a4.64 4.64 0 0 0-2.17 3.6z" fill="#6da5ea"/><path d="m185.87 151.12-64.72-37.37a4.79 4.79 0 0 0-4.33 0l-64.73 37.37a1.32 1.32 0 0 0 0 2.5l64.73 37.38a4.76 4.76 0 0 0 4.33 0l64.72-37.36a1.32 1.32 0 0 0 0-2.52z" fill="#455a64"/><path d="m256.52 308.8v54.77a1.42 1.42 0 0 0 0.65 1.12l52.5 30.31a1.42 1.42 0 0 0 1.3 0l1.75-1a1.48 1.48 0 0 0 0.65-1.13v-54.81a0.76 0.76 0 0 0-0.75-0.75l-55.35-29.26a0.76 0.76 0 0 0-0.75 0.75z" fill="#fafafa"/><path d="m312.62 337.31h-1.55a0.75 0.75 0 0 0-0.75 0.75v56.53c0 0.41 0.29 0.58 0.65 0.37l1.75-1a1.48 1.48 0 0 0 0.65-1.13v-54.77a0.76 0.76 0 0 0-0.75-0.75z" fill="#f5f5f5"/><path d="m361.07 246.05v54.76a1.44 1.44 0 0 0 0.65 1.13l54.57 31.48a1.48 1.48 0 0 0 1.3 0l1.74-1a1.44 1.44 0 0 0 0.65-1.13v-54.77a0.74 0.74 0 0 0-0.75-0.75l-57.41-30.47a0.74 0.74 0 0 0-0.75 0.75z" fill="#e0e0e0"/><path d="m419.23 275.77h-1.54a0.74 0.74 0 0 0-0.75 0.75v56.48c0 0.42 0.29 0.58 0.65 0.38l1.74-1a1.44 1.44 0 0 0 0.65-1.13v-54.73a0.74 0.74 0 0 0-0.75-0.75z" fill="#ebebeb"/><path d="m251.4 307.08v-0.51a2.88 2.88 0 0 1 1.3-2.25l110.13-63.58a2.82 2.82 0 0 1 2.59 0l58.34 33.67a2.91 2.91 0 0 1 1.3 2.25v0.52a2.88 2.88 0 0 1-1.3 2.25l-110.13 63.57a2.82 2.82 0 0 1-2.59 0l-58.34-33.67a2.88 2.88 0 0 1-1.3-2.25z" fill="#f5f5f5"/><path d="m312.34 339.81v3.52a2.74 2.74 0 0 1-1.34-0.33l-58.33-33.68a2.87 2.87 0 0 1-1.3-2.25v-0.52a2.87 2.87 0 0 1 1.06-2.08c-0.47 0.4-0.39 1 0.24 1.33l58.33 33.7a2.63 2.63 0 0 0 1.34 0.31z" fill="#ebebeb"/><path d="m252.7 305.82 58.3 33.67a2.82 2.82 0 0 0 2.59 0l110.13-63.58a0.79 0.79 0 0 0 0-1.5l-58.34-33.67a2.82 2.82 0 0 0-2.59 0l-110.09 63.58a0.79 0.79 0 0 0 0 1.5z" fill="#fafafa"/><path d="m346.72 282.3 33-19.07a2.29 2.29 0 0 1 2.13 0l10.44 6.09c0.59 0.34 0.59 0.89 0 1.24l-33 19.07a2.35 2.35 0 0 1-2.13 0l-10.44-6.1a0.65 0.65 0 0 1 0-1.23z" fill="#ebebeb"/><path d="m352.57 270.47-3.5-2a0.53 0.53 0 0 1 0-1l27.41-15.82a0.53 0.53 0 0 0 0-1l-0.28-0.17a2 2 0 0 0-1.74 0l-26.66 15.34c-0.47 0.28-0.92 0.3-0.93 0.05a1.75 1.75 0 0 1 0-0.46l1.51-7.82a1.49 1.49 0 0 0-0.68-1.47l-0.28-0.16a0.66 0.66 0 0 0-1.05 0.48l-1.74 9.08a2.85 2.85 0 0 0 0 1 1.45 1.45 0 0 1-0.63 1.48l-16.62 9.6c-0.48 0.27-0.48 0.72 0 1l0.28 0.16a1.91 1.91 0 0 0 1.74 0l15.88-9.17a3.47 3.47 0 0 1 0.94-0.45h0.07l5.4 3.12a1.89 1.89 0 0 0 1.73 0l11.3-6.5c0.48-0.28 0.64-0.63 0.36-0.79a1.84 1.84 0 0 0-1.42 0.14l-10.2 4.91c-0.46 0.27-0.88 0.46-0.89 0.45z" fill="#ebebeb"/><path d="m381.69 260.7 9.88 5.7a2 2 0 0 1 0 3.55l-31.9 18.41a2.37 2.37 0 0 1-2.14 0l-9.87-5.7a2 2 0 0 1 0-3.54l31.9-18.42a2.35 2.35 0 0 1 2.13 0z" fill="#37474f"/><path d="m358.6 288.62a2.23 2.23 0 0 1-1.07-0.26l-9.87-5.7a2 2 0 0 1 0-3.54l1-0.6h9.92z" fill="#263238"/><path d="m347.65 279.12 31.9-18.42a2.37 2.37 0 0 1 2.14 0l9.87 5.7a0.65 0.65 0 0 1 0 1.23l-31.9 18.42a2.35 2.35 0 0 1-2.13 0l-9.88-5.7a0.65 0.65 0 0 1 0-1.23z" fill="#455a64"/><path d="m376.81 269.2 1-0.58c0.05 0 0-0.07 0-0.1l-1.16-0.67a0.22 0.22 0 0 0-0.16 0l-1 0.58v0.09l1.16 0.67a0.18 0.18 0 0 0 0.16 0.01zm-2-2.31-1 0.58v0.09l1.16 0.67a0.18 0.18 0 0 0 0.16 0l1-0.58v-0.09l-1.13-0.66a0.18 0.18 0 0 0-0.17-0.01zm-3.25 1.88-1.7 1v0.09l1.16 0.67a0.15 0.15 0 0 0 0.16 0l1.7-1v-0.09l-1.16-0.67a0.15 0.15 0 0 0-0.14 0zm1.78-1-1 0.58c-0.05 0 0 0.07 0 0.09l1.16 0.67a0.18 0.18 0 0 0 0.16 0l1-0.58v-0.1l-1.16-0.67a0.18 0.18 0 0 0-0.14-0.02zm-3.92 2.23-1 0.58v0.1l1.16 0.67a0.18 0.18 0 0 0 0.16 0l1-0.58v-0.09l-1.16-0.67a0.18 0.18 0 0 0-0.16-0.01zm-1.47 0.85-1 0.58c-0.05 0 0 0.07 0 0.09l1.16 0.67a0.18 0.18 0 0 0 0.16 0l1-0.58v-0.09l-1.16-0.67a0.18 0.18 0 0 0-0.11 0.01zm4.57 2.73 1-0.58c0.05 0 0-0.07 0-0.09l-1.16-0.67a0.18 0.18 0 0 0-0.16 0l-1 0.58v0.09l1.16 0.68a0.22 0.22 0 0 0 0.16 0zm-1.47 0.85 1-0.58v-0.1l-1.16-0.67a0.22 0.22 0 0 0-0.16 0l-1 0.58v0.09l1.16 0.67a0.18 0.18 0 0 0 0.16 0.02zm-1.47 0.84 1-0.58v-0.09l-1.16-0.67a0.15 0.15 0 0 0-0.16 0l-1 0.58c-0.05 0 0 0.06 0 0.09l1.16 0.67a0.15 0.15 0 0 0 0.16 0.01zm-1.46 0.85 1-0.58v-0.09l-1.16-0.67a0.15 0.15 0 0 0-0.16 0l-1 0.57a0.06 0.06 0 0 0 0 0.1l1.17 0.67a0.18 0.18 0 0 0 0.15 0.01zm7.22-6.09 1-0.58v-0.09l-1.16-0.67a0.15 0.15 0 0 0-0.16 0l-1 0.58v0.09l1.16 0.67a0.15 0.15 0 0 0 0.16-0.03zm-1.35 2.7 2.24-1.29v-0.1l-2.82-1.62a0.18 0.18 0 0 0-0.16 0l-1.16 0.67v0.09l1.49 0.87c0.05 0 0.05 0.06 0 0.09l-0.93 0.53v0.1l1.16 0.67a0.18 0.18 0 0 0 0.19 0zm-7.51-1-1 0.58a0.045 0-90 0 0 0 0.09l1.17 0.67a0.18 0.18 0 0 0 0.16 0l1-0.58v-0.1l-1.16-0.67a0.18 0.18 0 0 0-0.17-0.01zm-1.46 0.85-1 0.58v0.09l1.16 0.67a0.15 0.15 0 0 0 0.16 0l1-0.58c0.05 0 0-0.06 0-0.09l-1.16-0.67a0.15 0.15 0 0 0-0.18-0.02zm-7.34 9.5a0.15 0.15 0 0 0 0.16 0l1-0.58c0.05 0 0-0.06 0-0.09l-1.16-0.67a0.15 0.15 0 0 0-0.16 0l-1 0.58v0.09zm-4.41-2.72-1 0.58v0.09l1.16 0.67a0.15 0.15 0 0 0 0.16 0l1-0.58v-0.09l-1.16-0.67a0.15 0.15 0 0 0-0.16-0.02zm2.36 2a0.22 0.22 0 0 0 0.16 0l1-0.58v-0.09l-1.16-0.67a0.18 0.18 0 0 0-0.16 0l-1 0.58c-0.05 0 0 0.07 0 0.1zm4.64 1.25 1-0.58v-0.1l-1.16-0.67a0.22 0.22 0 0 0-0.16 0l-1 0.58v0.09l1.16 0.67a0.18 0.18 0 0 0 0.16-0.02zm-1.63 0.84a0.15 0.15 0 0 0 0.16 0l1-0.58v-0.09l-1.16-0.67a0.15 0.15 0 0 0-0.16 0l-1 0.58c-0.05 0 0 0.06 0 0.09zm-3.9-4.93-1 0.58v0.09l1.16 0.67a0.18 0.18 0 0 0 0.16 0l1-0.58v-0.1l-1.16-0.67a0.22 0.22 0 0 0-0.16-0.02zm7.34-4.24-1 0.58v0.09l1.16 0.68a0.22 0.22 0 0 0 0.16 0l1-0.58v-0.09l-1.16-0.67a0.18 0.18 0 0 0-0.16-0.04zm-5.87 3.39-1 0.58v0.09l1.16 0.68a0.22 0.22 0 0 0 0.16 0l1-0.58c0.05 0 0-0.07 0-0.09l-1.16-0.67a0.18 0.18 0 0 0-0.16-0.04zm7.34-4.24-1 0.58v0.1l1.16 0.67a0.18 0.18 0 0 0 0.16 0l1-0.58c0.05 0 0-0.07 0-0.09l-1.16-0.67a0.18 0.18 0 0 0-0.16-0.04zm-2.94 1.7-1 0.58c-0.05 0 0 0.07 0 0.09l1.16 0.67a0.18 0.18 0 0 0 0.16 0l1-0.58v-0.1l-1.16-0.67a0.18 0.18 0 0 0-0.16-0.02zm-1.47 0.85-1 0.58v0.09l1.17 0.67a0.15 0.15 0 0 0 0.16 0l1-0.58v-0.09l-1.17-0.65a0.15 0.15 0 0 0-0.16 0zm-1.46 0.84-1 0.58v0.1l1.16 0.67a0.18 0.18 0 0 0 0.16 0l1-0.58c0.05 0 0-0.07 0-0.09l-1.16-0.67a0.18 0.18 0 0 0-0.16-0.04zm7.5 1 1-0.58c0.05 0 0-0.07 0-0.1l-1.16-0.67a0.22 0.22 0 0 0-0.16 0l-1 0.58v0.09l1.16 0.67a0.18 0.18 0 0 0 0.16 0.02zm12.89-12.82-1 0.58v0.09l1.17 0.67a0.15 0.15 0 0 0 0.16 0l1-0.58v-0.09l-1.16-0.67a0.15 0.15 0 0 0-0.17 0zm-1.77 1-1 0.58v0.1l1.16 0.67a0.18 0.18 0 0 0 0.16 0l1-0.58c0.05 0 0-0.07 0-0.09l-1.16-0.67a0.18 0.18 0 0 0-0.16-0.01zm3.24-1.87-1 0.58c-0.05 0 0 0.07 0 0.09l1.16 0.67a0.18 0.18 0 0 0 0.16 0l1-0.58v-0.1l-1.16-0.67a0.22 0.22 0 0 0-0.16 0.05zm-7.6 7.84 1-0.58v-0.1l-1.16-0.67a0.22 0.22 0 0 0-0.16 0l-1 0.58v0.09l1.16 0.67a0.18 0.18 0 0 0 0.16 0.04zm9.23-8.68a0.18 0.18 0 0 0-0.16 0l-1 0.58v0.1l1.16 0.67a0.22 0.22 0 0 0 0.16 0l1-0.58v-0.09zm-14.52 13.71 1-0.58v-0.09l-1.16-0.67a0.2 0.2 0 0 0-0.17 0l-1 0.58v0.1l1.16 0.67a0.22 0.22 0 0 0 0.17-0.01zm18-10.39 1-0.58c0.05 0 0-0.07 0-0.1l-1.16-0.67a0.18 0.18 0 0 0-0.16 0l-1 0.58v0.09l1.16 0.67a0.18 0.18 0 0 0 0.16-0.01zm-3.13-0.12 1-0.58v-0.09l-1.16-0.67a0.18 0.18 0 0 0-0.16 0l-1 0.58c-0.05 0 0 0.06 0 0.09l1.16 0.67a0.15 0.15 0 0 0 0.16-0.02zm1.31-2.19a0.22 0.22 0 0 0-0.16 0l-1 0.58v0.09l1.16 0.67a0.18 0.18 0 0 0 0.16 0l1-0.58v-0.1zm0.31-0.17 2.82 1.62a0.18 0.18 0 0 0 0.16 0l1-0.58c0.05 0 0-0.07 0-0.09l-2.82-1.63a0.18 0.18 0 0 0-0.16 0l-1 0.58s-0.05 0.05 0 0.08zm-3.41 1.87-1 0.58c-0.05 0 0 0.06 0 0.09l1.16 0.67a0.15 0.15 0 0 0 0.16 0l1-0.58v-0.09l-1.16-0.67a0.15 0.15 0 0 0-0.16 0zm-11.05 6.37-1 0.59v0.09l1.17 0.67a0.18 0.18 0 0 0 0.16 0l1-0.58v-0.09l-1.16-0.67a0.18 0.18 0 0 0-0.17-0.03zm14.32-4.94a0.15 0.15 0 0 0 0.16 0l1-0.58v-0.09l-1.16-0.67a0.15 0.15 0 0 0-0.16 0l-1 0.58v0.09zm-12.87 4.08-1 0.58v0.09l1.16 0.67a0.15 0.15 0 0 0 0.16 0l1-0.58v-0.09l-1.16-0.67a0.15 0.15 0 0 0-0.14 0zm-11 9.7a0.18 0.18 0 0 0 0.16 0l1-0.58a0.06 0.06 0 0 0 0-0.1l-1.16-0.67a0.25 0.25 0 0 0-0.17 0l-1 0.58v0.09zm-2.21-2.07-1 0.58v0.09l1.16 0.67a0.18 0.18 0 0 0 0.16 0l1-0.58v-0.09l-1.16-0.67a0.15 0.15 0 0 0-0.14 0zm3.84 1.23 1-0.58v-0.09l-1.16-0.67a0.18 0.18 0 0 0-0.16 0l-1 0.58a0.06 0.06 0 0 0 0 0.1l1.17 0.67a0.22 0.22 0 0 0 0.17-0.01zm1.46-0.85 1-0.58v-0.09l-1.16-0.67a0.15 0.15 0 0 0-0.16 0l-1 0.58c-0.05 0 0 0.06 0 0.09l1.16 0.67a0.18 0.18 0 0 0 0.18 0zm1.47-0.85 1-0.58v-0.09l-1.16-0.67a0.15 0.15 0 0 0-0.16 0l-1 0.58v0.09l1.16 0.67a0.15 0.15 0 0 0 0.18 0zm-5.3-0.38-1 0.58v0.09l1.16 0.67a0.15 0.15 0 0 0 0.16 0l1-0.58v-0.09l-1.16-0.67a0.15 0.15 0 0 0-0.14 0zm1.47-0.85-1 0.58v0.09l1.16 0.67a0.18 0.18 0 0 0 0.16 0l1-0.58c0.05 0 0-0.07 0-0.1l-1.16-0.67a0.22 0.22 0 0 0-0.14 0.01zm5.87-3.39-1 0.58v0.09l1.16 0.67a0.18 0.18 0 0 0 0.16 0l1-0.58c0.05 0 0-0.07 0-0.1l-1.16-0.67a0.22 0.22 0 0 0-0.14 0.01zm-1.47 0.85-1 0.58v0.09l1.16 0.67a0.15 0.15 0 0 0 0.16 0l1-0.58v-0.09l-1.16-0.67a0.15 0.15 0 0 0-0.14 0zm2.94-1.7-1 0.58v0.1l1.16 0.67a0.22 0.22 0 0 0 0.16 0l1-0.58v-0.09l-1.16-0.67a0.18 0.18 0 0 0-0.14-0.01zm-5.88 3.39-1 0.58a0.06 0.06 0 0 0 0 0.1l1.17 0.67a0.22 0.22 0 0 0 0.16 0l1-0.58v-0.09l-1.17-0.67a0.18 0.18 0 0 0-0.14-0.01zm1.47-0.84-1 0.58c-0.05 0 0 0.06 0 0.09l1.16 0.67a0.18 0.18 0 0 0 0.16 0l1-0.58v-0.09l-1.16-0.67a0.15 0.15 0 0 0-0.14 0zm-1.07 6 1-0.58c0.05 0 0-0.07 0-0.09l-1.16-0.67a0.18 0.18 0 0 0-0.16 0l-1 0.58v0.09l1.16 0.68a0.22 0.22 0 0 0 0.18-0.03zm-8.61-0.87-1.17-0.67a0.18 0.18 0 0 0-0.16 0l-1 0.58a0.06 0.06 0 0 0 0 0.1l1.17 0.67a0.18 0.18 0 0 0 0.16 0l1-0.58s0.06-0.09 0.02-0.12zm2.19 0.64-1.16-0.67a0.22 0.22 0 0 0-0.16 0l-1.54 0.89a0.06 0.06 0 0 0 0 0.1l1.17 0.67a0.22 0.22 0 0 0 0.16 0l1.54-0.89s0.06-0.09 0.01-0.12zm-4-1.94-1.16-0.67a0.18 0.18 0 0 0-0.16 0l-1.23 0.71c-0.05 0 0 0.07 0 0.09l1.16 0.68a0.22 0.22 0 0 0 0.16 0l1.24-0.72s0.08-0.08 0.03-0.11zm1-0.54a0.22 0.22 0 0 0 0.16 0l1-0.58v-0.09l-1.16-0.67a0.18 0.18 0 0 0-0.16 0l-1 0.58v0.09zm5.08 3.22-1.16-0.67a0.15 0.15 0 0 0-0.16 0l-1.93 1.11c-0.05 0 0 0.07 0 0.09l1.16 0.67a0.18 0.18 0 0 0 0.16 0l1.94-1.12s0.03-0.07-0.02-0.1zm1 1.36-1.16-0.67a0.18 0.18 0 0 0-0.16 0l-1.23 0.72v0.09l1.16 0.67a0.15 0.15 0 0 0 0.16 0l1.24-0.71s-0.01-0.09-0.06-0.12zm4.88-10.89a0.18 0.18 0 0 0 0.16 0l1-0.58v-0.1l-1.16-0.67a0.22 0.22 0 0 0-0.16 0l-1 0.58v0.09zm-2.94 1.7a0.15 0.15 0 0 0 0.16 0l1-0.58c0.05 0 0-0.06 0-0.09l-1.16-0.67a0.15 0.15 0 0 0-0.16 0l-1 0.58v0.09zm-6.51 3.76a0.18 0.18 0 0 0 0.16 0l1-0.58c0.05 0 0-0.07 0-0.09l-1.16-0.67a0.18 0.18 0 0 0-0.16 0l-1 0.58v0.1zm8-4.61a0.15 0.15 0 0 0 0.16 0l1-0.58v-0.09l-1.16-0.67a0.17 0.17 0 0 0-0.17 0l-1 0.58v0.09zm-2.94 1.7a0.22 0.22 0 0 0 0.16 0l1-0.58v-0.09l-1.16-0.67a0.18 0.18 0 0 0-0.16 0l-1 0.58v0.1zm0.34 8.45a0.18 0.18 0 0 0-0.16 0l-1.54 0.9c-0.05 0 0 0.06 0 0.09l1.16 0.67a0.15 0.15 0 0 0 0.16 0l1.55-0.89v-0.09zm-2.45-7.24a0.18 0.18 0 0 0 0.16 0l1-0.58v-0.1l-1.16-0.67a0.18 0.18 0 0 0-0.16 0l-1 0.58v0.09zm-1.46 0.85a0.15 0.15 0 0 0 0.16 0l1-0.58v-0.09l-1.17-0.67a0.15 0.15 0 0 0-0.16 0l-1 0.58v0.09zm31.04-9.34a0.18 0.18 0 0 0-0.16 0l-2.47 1.43v0.09l1.16 0.67a0.18 0.18 0 0 0 0.16 0l2.47-1.43c0.05 0 0.05-0.07 0-0.09zm-3.25 1.87a0.15 0.15 0 0 0-0.16 0l-1 0.58v0.09l1.17 0.67a0.15 0.15 0 0 0 0.16 0l1-0.58v-0.09zm-19.88 11 1-0.58a0.045 0 90 0 0 0-0.09l-1.17-0.67a0.18 0.18 0 0 0-0.16 0l-1 0.58v0.1l1.16 0.67a0.18 0.18 0 0 0 0.17 0zm17-9.31a0.22 0.22 0 0 0-0.16 0l-1 0.58v0.09l1.16 0.67a0.18 0.18 0 0 0 0.16 0l1-0.58c0.05 0 0-0.07 0-0.1zm7.65-4.41a0.18 0.18 0 0 0-0.16 0l-1 0.58v0.1l1.16 0.67a0.18 0.18 0 0 0 0.16 0l1-0.58v-0.09zm2.63-0.18-2.83-1.63a0.18 0.18 0 0 0-0.16 0l-1 0.58v0.09l2.82 1.63a0.15 0.15 0 0 0 0.16 0l1-0.58s0-0.06-0.04-0.06zm-15.77 7.76a0.18 0.18 0 0 0-0.16 0l-1.24 0.71v0.09l1.16 0.68a0.22 0.22 0 0 0 0.16 0l1.24-0.72v-0.09zm3.71-2.14a0.15 0.15 0 0 0-0.16 0l-1.55 0.89v0.09l1.16 0.67a0.18 0.18 0 0 0 0.16 0l1.55-0.9v-0.09zm-7.11 4.1a0.22 0.22 0 0 0-0.16 0l-8.27 4.77v0.1l1.16 0.67a0.18 0.18 0 0 0 0.16 0l8.27-4.77v-0.1zm-8.73 5a0.22 0.22 0 0 0-0.16 0l-1.24 0.72v0.09l1.16 0.67a0.18 0.18 0 0 0 0.16 0l1.24-0.71v-0.09zm10.43-6a0.18 0.18 0 0 0-0.16 0l-1.24 0.71v0.1l1.16 0.67a0.22 0.22 0 0 0 0.16 0l1.24-0.71v-0.1zm-12.13 7a0.18 0.18 0 0 0-0.16 0l-1.24 0.72v0.09l1.16 0.67a0.15 0.15 0 0 0 0.16 0l1.24-0.71v-0.09zm15.53-9a0.15 0.15 0 0 0-0.16 0l-1.24 0.71v0.09l1.16 0.67a0.18 0.18 0 0 0 0.16 0l1.24-0.72v-0.09zm5.25-3a0.18 0.18 0 0 0-0.16 0l-1 0.58v0.1l1.16 0.67a0.22 0.22 0 0 0 0.16 0l1-0.58a0.045 0 90 0 0 0-0.09zm3.22-2.34 1-0.58v-0.09l-1.16-0.67a0.18 0.18 0 0 0-0.16 0l-1 0.58v0.1l1.16 0.67a0.18 0.18 0 0 0 0.11 0.03zm-6.56 0 1-0.58v-0.09l-1.16-0.67a0.2 0.2 0 0 0-0.17 0l-1 0.58v0.09l1.16 0.68a0.22 0.22 0 0 0 0.12-0.01zm-3.33 5.75 2.94-1.69v-0.1l-1.16-0.67a0.18 0.18 0 0 0-0.16 0l-2.94 1.69v0.1l1.16 0.67a0.18 0.18 0 0 0 0.16 0zm8.26-4.87a0.18 0.18 0 0 0 0.16 0l1-0.58v-0.09l-1.16-0.67a0.18 0.18 0 0 0-0.16 0l-1 0.58c-0.05 0 0 0.07 0 0.09zm-1.5-1 1-0.58v-0.09l-1.16-0.67a0.18 0.18 0 0 0-0.16 0l-1 0.58c-0.05 0 0 0.07 0 0.1l1.16 0.67a0.18 0.18 0 0 0 0.11 0.04zm-8.28 6.77 1-0.58v-0.09l-1.16-0.67a0.18 0.18 0 0 0-0.16 0l-1 0.58c-0.05 0 0 0.07 0 0.09l1.16 0.67a0.18 0.18 0 0 0 0.16 0zm6.49-3.84a0.15 0.15 0 0 0 0.16 0l1-0.58c0.05 0 0-0.06 0-0.09l-1.16-0.67a0.15 0.15 0 0 0-0.16 0l-1 0.58v0.09zm-13.83 8.08 1-0.58v-0.1l-1.16-0.67a0.22 0.22 0 0 0-0.16 0l-1 0.58c-0.05 0 0 0.07 0 0.09l1.16 0.67a0.18 0.18 0 0 0 0.16-0.04zm1.47-0.85 1-0.58v-0.09l-1.16-0.67a0.18 0.18 0 0 0-0.16 0l-1 0.58v0.09l1.16 0.68a0.22 0.22 0 0 0 0.16-0.06zm-2.93 1.61 1-0.58v-0.09l-1.16-0.67a0.15 0.15 0 0 0-0.16 0l-1 0.58v0.09l1.17 0.67a0.15 0.15 0 0 0 0.15 0zm5.87-3.39 1-0.58v-0.09l-1.17-0.67a0.15 0.15 0 0 0-0.16 0l-1 0.58v0.09l1.16 0.67a0.15 0.15 0 0 0 0.17 0.03zm-1.47 0.85 1-0.58c0.05 0 0-0.07 0-0.09l-1.16-0.67a0.18 0.18 0 0 0-0.16 0l-1 0.58v0.1l1.16 0.67a0.18 0.18 0 0 0 0.16 0.02zm2.92-1.66 1-0.58v-0.1l-1.16-0.67a0.18 0.18 0 0 0-0.16 0l-1 0.58a0.045 0-90 0 0 0 0.09l1.17 0.67a0.18 0.18 0 0 0 0.15 0.01zm6.71-12.54a0.18 0.18 0 0 0 0.16 0l1-0.58v-0.09l-0.31-0.18a0.15 0.15 0 0 0-0.16 0l-1 0.58c-0.05 0 0 0.06 0 0.09zm-7.22 4.66a0.15 0.15 0 0 0 0.16 0l1-0.58c0.05 0 0-0.06 0-0.09l-1.16-0.67a0.15 0.15 0 0 0-0.16 0l-1 0.58v0.09zm2.93-1.7a0.18 0.18 0 0 0 0.16 0l1-0.58v-0.09l-1.16-0.68a0.22 0.22 0 0 0-0.16 0l-1 0.58v0.09zm-4.7 2.78a0.18 0.18 0 0 0 0.16 0l1-0.58v-0.09l-1.17-0.68a0.22 0.22 0 0 0-0.16 0l-1 0.58v0.09zm3.26-1.88a0.18 0.18 0 0 0 0.16 0l1-0.58a0.06 0.06 0 0 0 0-0.1l-1.17-0.67a0.18 0.18 0 0 0-0.16 0l-1 0.58v0.09zm-6.2 3.58a0.15 0.15 0 0 0 0.16 0l1-0.58c0.05 0 0-0.06 0-0.09l-1.16-0.67a0.15 0.15 0 0 0-0.16 0l-1 0.58v0.09zm1.47-0.85a0.18 0.18 0 0 0 0.16 0l1-0.58v-0.1l-1.16-0.67a0.18 0.18 0 0 0-0.16 0l-1 0.58v0.09zm7.55-4.85a0.18 0.18 0 0 0 0.16 0l1-0.58v-0.1l-0.3-0.18a0.22 0.22 0 0 0-0.16 0l-1 0.58v0.09zm4.4-2.54a0.15 0.15 0 0 0 0.16 0l1-0.58c0.05 0 0-0.06 0-0.09l-0.31-0.18a0.18 0.18 0 0 0-0.16 0l-1 0.58v0.09zm2.44 1.41a0.15 0.15 0 0 0 0.16 0l1-0.58c0.05 0 0-0.06 0-0.09l-1.16-0.67a0.15 0.15 0 0 0-0.16 0l-1 0.58v0.09zm3.67 3.72 1-0.58c0.05 0 0-0.06 0-0.09l-1.16-0.67a0.15 0.15 0 0 0-0.16 0l-1 0.58v0.09l1.16 0.67a0.15 0.15 0 0 0 0.16-0.05zm-9.05-3.44a0.18 0.18 0 0 0 0.16 0l1-0.58v-0.09l-0.31-0.18a0.18 0.18 0 0 0-0.16 0l-1 0.58a0.06 0.06 0 0 0 0 0.1zm-11.95 7.4a0.18 0.18 0 0 0 0.16 0l1-0.58v-0.09l-1.16-0.67a0.18 0.18 0 0 0-0.16 0l-1 0.58v0.1z" fill="#6da5ea"/><path d="m364.6 262.4-12 6.93h-0.06l-4.54-2.65a2.46 2.46 0 0 1-1.11-2.42l1.7-8.8 10-8.09 2 1.16-1.69 8.8a2.45 2.45 0 0 0 1.1 2.42z" fill="#455a64"/><path d="m352.6 269.33v2.31l-6.27-3.64a3.69 3.69 0 0 1-1.67-3.65l1.93-10.06 2 1.15-1.7 8.8a2.46 2.46 0 0 0 1.11 2.42l4.53 2.62z" fill="#263238"/><polygon points="364.6 264.71 364.6 262.4 352.6 269.33 352.6 271.64" fill="#37474f"/><path d="m375.62 204a2.3 2.3 0 0 1 1 1.81v36.84a2.36 2.36 0 0 1-1.07 1.85l-45.91 26.5a2 2 0 0 1-3.07-1.78v-36.8a2.36 2.36 0 0 1 1.07-1.85l45.91-26.51a2.29 2.29 0 0 1 2.07-0.06z" fill="#455a64"/><path d="m329.64 271a2 2 0 0 1-3.07-1.78v-36.8a2.19 2.19 0 0 1 0.31-1l35.73 20.58z" fill="#263238"/><path d="m376.62 242.67v-36.84c0-0.68-0.48-1-1.07-0.61l-45.91 26.51a2.35 2.35 0 0 0-1.07 1.84v36.84c0 0.68 0.48 1 1.07 0.62l45.91-26.51a2.36 2.36 0 0 0 1.07-1.85z" fill="#37474f"/><path d="m374 207.27-43.58 25.16a1.86 1.86 0 0 0-0.86 1.47v32.71c0 0.54 0.38 0.77 0.86 0.49l43.58-25.1a1.88 1.88 0 0 0 0.85-1.48v-32.7c0.01-0.6-0.37-0.82-0.85-0.55z" fill="#fff"/><path d="m313.08 326.59-25.85-14.92a2.88 2.88 0 0 1-1.3-2.25v-15.76a2.86 2.86 0 0 1 1.3-2.25l17.71-10.22a2.84 2.84 0 0 1 2.6 0l25.83 14.91a2.86 2.86 0 0 1 1.3 2.25v15.76a2.86 2.86 0 0 1-1.3 2.25l-17.7 10.22a2.87 2.87 0 0 1-2.59 0.01z" fill="#263238"/><path d="m315.67 307.82 17.7-10.22a0.79 0.79 0 0 0 0-1.5l-25.83-14.91a2.84 2.84 0 0 0-2.6 0l-17.71 10.22a0.79 0.79 0 0 0 0 1.5l25.84 14.92a2.87 2.87 0 0 0 2.6-0.01z" fill="#455a64"/><path d="m314.38 308.14v18.76a2.74 2.74 0 0 1-1.3-0.31l-25.84-14.91a2.87 2.87 0 0 1-1.3-2.25v-15.77a2.91 2.91 0 0 1 1-2c-0.36 0.41-0.26 0.91 0.32 1.25l25.85 14.92a2.71 2.71 0 0 0 1.27 0.31z" fill="#37474f"/><path d="m293.7 292.36a1.88 1.88 0 0 1 1.71 0l18.59 10.73c0.47 0.28 0.49 0.73 0 1a1.85 1.85 0 0 1-1.7 0l-18.58-10.72c-0.47-0.29-0.48-0.73-0.02-1.01z" fill="#37474f"/><path d="m293.7 292.36a1.88 1.88 0 0 1 1.71 0l11.31 6.53-1.68 1-11.31-6.53c-0.48-0.28-0.49-0.72-0.03-1z" fill="#6da5ea"/><path d="m296.92 290.5a1.88 1.88 0 0 1 1.71 0l18.58 10.72c0.48 0.28 0.49 0.73 0 1a1.85 1.85 0 0 1-1.7 0l-18.51-10.72c-0.53-0.28-0.54-0.72-0.08-1z" fill="#37474f"/><path d="m296.92 290.5a1.88 1.88 0 0 1 1.71 0l1.52 0.87-1.69 1-1.46-0.87c-0.53-0.28-0.54-0.72-0.08-1z" fill="#6da5ea"/><path d="m300.15 288.64a1.85 1.85 0 0 1 1.7 0l18.58 10.72c0.48 0.28 0.49 0.73 0 1a1.88 1.88 0 0 1-1.71 0l-18.58-10.72c-0.45-0.28-0.46-0.72 0.01-1z" fill="#37474f"/><path d="m300.15 288.64a1.85 1.85 0 0 1 1.7 0l6.57 3.79-1.68 1-6.57-3.79c-0.48-0.28-0.49-0.72-0.02-1z" fill="#6da5ea"/><path d="m303.37 286.78a1.85 1.85 0 0 1 1.7 0l18.58 10.72c0.48 0.28 0.49 0.72 0 1a1.88 1.88 0 0 1-1.71 0l-18.58-10.72c-0.44-0.28-0.46-0.72 0.01-1z" fill="#37474f"/><path d="m303.37 286.78a1.85 1.85 0 0 1 1.7 0l13.31 7.68-1.68 1-13.31-7.68c-0.47-0.28-0.49-0.72-0.02-1z" fill="#6da5ea"/><path d="m306.59 284.92a1.88 1.88 0 0 1 1.71 0l18.58 10.72c0.47 0.28 0.48 0.72 0 1a1.88 1.88 0 0 1-1.71 0l-18.57-10.72c-0.46-0.28-0.47-0.73-0.01-1z" fill="#37474f"/><path d="m306.59 284.92a1.88 1.88 0 0 1 1.71 0l16.7 9.66-1.68 1-16.73-9.65c-0.45-0.29-0.46-0.74 0-1.01z" fill="#6da5ea"/><path d="m316.4 321.46v-3.2a2.59 2.59 0 0 1 1-2.08c0.56-0.33 1 0.08 1 0.91v3.19a2.6 2.6 0 0 1-1 2.09c-0.54 0.32-1-0.09-1-0.91z" fill="#37474f"/><path d="m317.47 316.66a1.45 1.45 0 0 0-0.68 1.16c0 0.43 0.3 0.6 0.68 0.39a1.49 1.49 0 0 0 0.67-1.17c0-0.42-0.3-0.6-0.67-0.38z" fill="#6da5ea"/><path d="m319.61 319.62v-3.2a2.58 2.58 0 0 1 1-2.08c0.56-0.33 1 0.08 1 0.91v3.19a2.61 2.61 0 0 1-1 2.09c-0.55 0.32-1-0.09-1-0.91z" fill="#37474f"/><path d="m320.62 318.5a1.47 1.47 0 0 0-0.67 1.16c0 0.43 0.3 0.6 0.67 0.39a1.51 1.51 0 0 0 0.68-1.17c0-0.43-0.3-0.6-0.68-0.38z" fill="#6da5ea"/><path d="m379.47 359.07c0.38 0.51 0.45 1.67 0.84 3.25a7.37 7.37 0 0 1 0.26 3.57 7.13 7.13 0 0 1-4 3.15c-2.07 0.64-4.63 0.1-7.11-1.38s-4.34-3.27-7.86-4.28-5.29-1.82-7-3.16c-2-1.56-3.22-3.91 0.52-4.92s10.53 0.56 17.92 0.88z" fill="#263238"/><path d="m379.47 354.45v5.55s-0.76 1.84-3.92 2a4.77 4.77 0 0 1-4.19-2v-5.49z" fill="#ffa8a7"/><path d="m368.89 318.2c0 6.89 1.94 38.68 1.94 38.68s2.82 3.56 8.94 0l2.08-35.27z" fill="#37474f"/><path d="m362.84 369.9c0.39 0.51 0.45 1.68 0.84 3.25a4.64 4.64 0 0 1-3.77 6.72c-2.08 0.65-4.64 0.11-7.11-1.37s-4.35-3.28-7.87-4.28-5.29-1.82-7-3.16c-2-1.57-3.21-3.92 0.52-4.92s10.53 0.55 17.92 0.87z" fill="#263238"/><path d="m362.84 365.28v5.54s-0.76 1.84-3.91 2a4.78 4.78 0 0 1-4.2-2v-5.49z" fill="#ffa8a7"/><path d="m352.26 329c0 6.9 1.94 38.68 1.94 38.68s2.82 3.57 8.94 0l2.08-35.27z" fill="#37474f"/><path d="m373.69 394.44a4.56 4.56 0 0 0 0.08 0.78 1.84 1.84 0 0 0 0.7 1.08 2 2 0 0 0 2.14-0.16 6.53 6.53 0 0 0 3-5.12 2.1 2.1 0 0 0-0.84-1.87l-0.14-0.08a1.82 1.82 0 0 0-1.25-0.05 3.53 3.53 0 0 0-0.73 0.32 6.5 6.5 0 0 0-2.96 5.1z" fill="#455a64"/><path d="m374.5 388.1a2.63 2.63 0 0 1 1.31-0.4 1.54 1.54 0 0 1 0.83 0.23h0.08l1.9 1.1a1.82 1.82 0 0 0-1.25-0.05 3.53 3.53 0 0 0-0.73 0.32 6.5 6.5 0 0 0-2.95 5.1 4.56 4.56 0 0 0 0.08 0.78 1.84 1.84 0 0 0 0.7 1.08l-2-1.13-0.17-0.1h-0.05a2.19 2.19 0 0 1-0.72-1.82 6.5 6.5 0 0 1 2.97-5.11z" fill="#263238"/><path d="m405.63 377.27a3.64 3.64 0 0 0 0.08 0.77 1.81 1.81 0 0 0 0.7 1.08 2 2 0 0 0 2.14-0.17 6.52 6.52 0 0 0 3-5.11 2.08 2.08 0 0 0-0.84-1.87l-0.14-0.08a1.77 1.77 0 0 0-1.25 0 3 3 0 0 0-0.73 0.31 6.52 6.52 0 0 0-2.96 5.07z" fill="#455a64"/><path d="m406.44 370.92a2.73 2.73 0 0 1 1.31-0.4 1.55 1.55 0 0 1 0.83 0.24h0.08l1.9 1.1a1.77 1.77 0 0 0-1.25 0 3 3 0 0 0-0.73 0.31 6.52 6.52 0 0 0-2.95 5.11 3.64 3.64 0 0 0 0.08 0.77 1.81 1.81 0 0 0 0.7 1.08l-2-1.13-0.16-0.1h-0.05a2.16 2.16 0 0 1-0.73-1.81 6.53 6.53 0 0 1 2.97-5.17z" fill="#263238"/><path d="m399.93 401.15a3.64 3.64 0 0 1-0.08 0.77 1.76 1.76 0 0 1-0.7 1.08 2 2 0 0 1-2.15-0.17 6.5 6.5 0 0 1-3-5.11 2.07 2.07 0 0 1 0.83-1.87l0.14-0.08a1.79 1.79 0 0 1 1.26 0 3.13 3.13 0 0 1 0.72 0.31 6.52 6.52 0 0 1 2.98 5.07z" fill="#455a64"/><path d="m399.13 394.8a2.8 2.8 0 0 0-1.32-0.4 1.55 1.55 0 0 0-0.83 0.24h-0.07l-1.91 1.1a1.79 1.79 0 0 1 1.26 0 3.13 3.13 0 0 1 0.72 0.31 6.52 6.52 0 0 1 2.95 5.11 3.64 3.64 0 0 1-0.08 0.77 1.76 1.76 0 0 1-0.7 1.08l2-1.13 0.17-0.1h0.05a2.19 2.19 0 0 0 0.72-1.81 6.52 6.52 0 0 0-2.96-5.17z" fill="#263238"/><path d="m420.67 391a3.71 3.71 0 0 1-0.09 0.78 1.75 1.75 0 0 1-0.7 1.08 2.08 2.08 0 0 1-2.15-0.17 6.52 6.52 0 0 1-2.95-5.12 2.12 2.12 0 0 1 0.83-1.87l0.15-0.08a1.85 1.85 0 0 1 1.26-0.05 3.71 3.71 0 0 1 0.72 0.32 6.51 6.51 0 0 1 2.93 5.11z" fill="#455a64"/><path d="m419.86 384.65a2.69 2.69 0 0 0-1.32-0.4 1.57 1.57 0 0 0-0.83 0.23h-0.07l-1.91 1.1a1.85 1.85 0 0 1 1.26-0.05 3.71 3.71 0 0 1 0.72 0.32 6.51 6.51 0 0 1 3 5.1 3.71 3.71 0 0 1-0.09 0.78 1.75 1.75 0 0 1-0.7 1.08l2-1.13 0.17-0.1a2.17 2.17 0 0 0 0.72-1.81 6.52 6.52 0 0 0-2.95-5.12z" fill="#263238"/><path d="m380.59 378.54a3.64 3.64 0 0 1-0.08 0.77 1.81 1.81 0 0 1-0.7 1.08 2 2 0 0 1-2.14-0.17 6.5 6.5 0 0 1-2.95-5.11 2.07 2.07 0 0 1 0.83-1.87l0.14-0.08a1.77 1.77 0 0 1 1.25-0.05 3 3 0 0 1 0.73 0.31 6.52 6.52 0 0 1 2.92 5.12z" fill="#455a64"/><path d="m379.78 372.19a2.73 2.73 0 0 0-1.31-0.4 1.55 1.55 0 0 0-0.83 0.24h-0.08l-1.9 1.1a1.77 1.77 0 0 1 1.25-0.05 3 3 0 0 1 0.73 0.31 6.52 6.52 0 0 1 2.95 5.11 3.64 3.64 0 0 1-0.08 0.77 1.81 1.81 0 0 1-0.7 1.08l1.95-1.13 0.16-0.1a0.1 0.1 0 0 0 0.05 0 2.16 2.16 0 0 0 0.73-1.81 6.53 6.53 0 0 0-2.92-5.12z" fill="#263238"/><polygon points="398.21 377.61 398.21 372.3 408.75 369.28 408.75 371.53" fill="#f5f5f5"/><polygon points="408.75 369.28 398.21 372.3 397.18 371.66 407.75 368.77" fill="#fafafa"/><polygon points="393.65 372.47 393.65 379.02 378.71 373.42 378.71 371.14" fill="#f5f5f5"/><g fill="#fafafa"><polygon points="393.65 372.47 378.71 371.14 379.81 370.85 394.54 371.8"/><path d="m393.25 378.3c0 1.69 5.2 1.69 5.2 0v-14.78h-5.2z"/><path d="m397.15 374.45 2.85 18.55h-2l-2.67-18.56a3.22 3.22 0 0 0 1.82 0.01z"/></g><polygon points="398.05 393.01 395.38 374.45 395.38 379.55 398.05 396.15" fill="#f5f5f5"/><rect x="398.05" y="393.01" width="1.95" height="3.14" fill="#ebebeb"/><polygon points="394.49 374.47 394.49 379.4 375.22 389.5 375.22 386.39" fill="#f5f5f5"/><path d="m394.49 374.47a2.27 2.27 0 0 1-1.24-0.56l-19.25 11.66 1.2 0.82z" fill="#fafafa"/><polygon points="374.02 388.59 375.22 389.5 375.22 386.39 374.02 385.57" fill="#ebebeb"/><polygon points="418.79 382.82 418.79 385.93 398.2 378.88 398.2 374.26" fill="#f5f5f5"/><path d="m398.2 374.26c0.17-0.05 0.24-0.35 0.25-0.8l20.95 9.11-0.61 0.25z" fill="#fafafa"/><polygon points="418.79 382.82 419.39 382.57 419.39 385.58 418.79 385.93" fill="#ebebeb"/><path d="m400.25 337.77h-8.8v30.48c0 2.53 8.8 2.53 8.8 0z" fill="#f0f0f0"/><path d="m362 340.51a4.39 4.39 0 0 1 2.2-3.81l30.8-17.78a4.38 4.38 0 0 1 4.4 0l30.79 17.78a4.4 4.4 0 0 1 2.2 3.81l-35.19 20.32z" fill="#6da5ea"/><path d="m362 340.51v2.54l33 19.06a4.36 4.36 0 0 0 2.17 0.58 4.32 4.32 0 0 0 2.18-0.58l33-19.06v-2.54l-33 19.06a4.33 4.33 0 0 1-2.18 0.59 4.37 4.37 0 0 1-2.17-0.59z" fill="#fafafa"/><path d="m362 340.51v2.54l33 19.06a4.36 4.36 0 0 0 2.17 0.58v-2.53a4.37 4.37 0 0 1-2.17-0.59z" fill="#f5f5f5"/><path d="m362 340.51a4.36 4.36 0 0 1 0.47-2l33.27 19.2a2.87 2.87 0 0 0 2.89 0l33.28-19.2a4.39 4.39 0 0 1 0.47 2l-35.19 20.32z" opacity=".1"/><path d="m421.69 326.65s-28.57-8.63-33.53-10-14.5-3.65-17.28-2.41-4.2 2.7-4.45 6.71c-0.05 0.76 0 4.43 0 4.43s13.81 4.28 25.12 4.28 30.14-3.01 30.14-3.01z" fill="#263238"/><polygon points="408.16 275.41 397.27 278.1 399.17 288.34 409.67 289.55" fill="#ffa8a7"/><path d="m387.47 269.92s-1.38 4.22-1 4.48a7.46 7.46 0 0 0 2.3 0.14z" fill="#f28f8f"/><path d="m390.18 256.38c-1.81 1.9-3.53 5.09-2.77 13.16 0.83 8.84 3.47 11.2 4.58 11.72 1.67 0.77 7.33-0.58 9.17-1.94 2.31-1.7 6.64-5.93 7.78-11.14 1.33-6.13-0.38-13.09-4.86-14.5-6.3-1.98-12.37 1.09-13.9 2.7z" fill="#ffa8a7"/><path d="m386.05 260.73c1.07 2 3.1 7.06 8.85 8.49 0 0 0.31-3.43 3.16-3.47s3.82 3.47 2.4 5.92-3.19 1.89-3.19 1.89 0.29 4.82 3.77 6.54a9 9 0 0 0 8-0.53c1.71-1.09 3.7-5.84 4.72-9.65 2.17-8.07 1.78-14.24-3.35-15.49-1.08-3.39-2.81-4.47-6-4.69-6.94-0.45-11.43 4.69-17.2 4.69-3.05 0-2.39 3.98-1.16 6.3z" fill="#263238"/><path d="m410.29 255 3.47-1.49a1.89 1.89 0 1 0-3.47 1.49z" fill="#263238"/><path d="m421.62 323.21c0 5.49 0.51 11.2-1.77 15.22s-12.66 12.3-24.33 10.33c-7.63-1.28-32.27-10.67-32.27-10.67s-10.91-4-11-6.91c0-0.7-0.07-1.43 0-2.19 0.23-3.82 1.78-7.93 9.76-7.72 8.72 0.23 34.59 4.47 34.59 4.47z" fill="#37474f"/><path d="m419.59 287.74c-0.94-2.87-4.58-6-8.22-5.31-6.68 1.24-14 3.41-15.94 4 0 0 0.87 14.73-6.69 19.19l-1 18.76a16.09 16.09 0 0 0 4.76 5.57c3.12 2 7.46 5 15.31 4.31a19.35 19.35 0 0 0 13.87-7.59s-0.09-17.73-0.39-25.66c-0.24-6.76-1.05-11.3-1.7-13.27z" fill="#455a64"/><path d="m388.55 309.23a25 25 0 0 0 5.34-8.85s0 7-5.42 10.71z" fill="#37474f"/><path d="m395.43 286.41c-4.12 1.24-6.64 1.46-11.19 8.47s-14.55 20.93-15.54 22.6c-1.37 2.33-2 5.09-0.78 7.23s4.34 1.12 8.86-2.85 13-14.69 13-14.69a74.79 74.79 0 0 0 5.65-20.76z" fill="#ffa8a7"/><path d="m395.43 286.41a31.4 31.4 0 0 0-6 1.89 9.47 9.47 0 0 0-4.43 3.7c-3.19 5.3-7.75 12.84-7.75 12.84s-0.78 6.57 7.2 8.86l4.24-4.58a23.64 23.64 0 0 0 4.23-6.29c1.76-3.95 3.81-10.22 2.51-16.42z" fill="#455a64"/><path d="m369.31 325.69c-3.82-0.46-12.37-12.18-15.22-15.91s-5.24-5.94-7.81-7.35a10.27 10.27 0 0 1-5.5-8.12c-0.65-4.18 3.24-6.85 6.43-2.65 2 2.67 4.06 4.36 4.17 3.91s-0.63-2.3-0.61-4.24c0-2.32 1.65-0.79 2.14 0a29.75 29.75 0 0 1 1.72 3.85c0.81 2.08 0.48 4.19 1.47 5.62s14.29 14.2 14.29 14.2z" fill="#ffa8a7"/><polygon points="402.83 307.81 434.05 289.69 434.05 329.03 402.83 347.12" fill="#6da5ea"/><polygon points="402.83 307.81 434.05 289.69 434.05 329.03 402.83 347.12" opacity=".1"/><path d="m400 345.48 2.84 1.64v-36.05c0-1.71 0.51-2.56 1.2-2.94 2.38-1.46 5.52 1.65 5.52 1.65v-2.62l30.17-17.46c-2.84-1.64-4.7-2.72-10.43 0.53s-22.53 13-25.19 14.61c-2.13 1.31-4.12 2.84-4.12 6.41z" fill="#6da5ea"/><path d="m404.11 304.84c2.62-1.7 19.46-11.36 25.19-14.61s7.59-2.17 10.43-0.53l-30.17 17.46a7.54 7.54 0 0 0-5.45-2.32z" fill="#fff" opacity=".4"/><polygon points="409.56 307.16 409.55 309.78 439.73 292.25 439.73 289.69" fill="#6da5ea"/><polygon points="409.56 307.16 409.55 309.78 439.73 292.25 439.73 289.69" opacity=".2"/><path d="m410 359.63a2.65 2.65 0 0 0 1.36-0.37 2.68 2.68 0 0 0 1.37-2.36v-20.63a1.4 1.4 0 0 0-2.8 0v20.52l-2.22-1.28a1.39 1.39 0 0 0-1.91 0.51 1.41 1.41 0 0 0 0.51 1.91l2.32 1.33a2.71 2.71 0 0 0 1.37 0.37z" fill="#e6e6e6"/><path d="m427.08 349.69a2.75 2.75 0 0 0 1.36-0.37 2.71 2.71 0 0 0 1.37-2.37v-20.63a1.4 1.4 0 0 0-2.8 0v20.52l-2.22-1.28a1.39 1.39 0 0 0-1.91 0.51 1.41 1.41 0 0 0 0.51 1.91l2.32 1.34a2.82 2.82 0 0 0 1.37 0.37z" fill="#e6e6e6"/></g></svg>
