<svg width="400" height="400" version="1.1" viewBox="0 0 400 400" xmlns="http://www.w3.org/2000/svg"><g transform="matrix(1.2223 0 0 1.2223 -139.48 -67.71)"><ellipse cx="388.75" cy="294.68" rx="46.64" ry="26.93" fill="#e0e0e0"/><path d="m431.16 170.72c-1.78-0.33-3.26-1.18-5.8-1.45a10.84 10.84 0 0 1-5-1.38c-2-1.09-6.19-6.16-9.61-11.28a60.31 60.31 0 0 1-7.69-19c-1.45-8.14-1.73-20-2.29-24.77s-2.55-6.16-5.14-7.24c-3.05-1.27-6.24 0.57-6.27 7.47a128.21 128.21 0 0 0 3.55 28.19 63.88 63.88 0 0 0 8.74 19.11c3.6 5.44 7.31 9 12 13.54 1.29 1.23 1.94 2.46 4.13 5.09a14.47 14.47 0 0 0 3 3 18.12 18.12 0 0 0 4.73 2.23 12.38 12.38 0 0 0 6.53 0.22 7.87 7.87 0 0 0 3.22-1.63 5.18 5.18 0 0 0 1.75-3.1 1.39 1.39 0 0 0-0.01-0.72 1.7 1.7 0 0 0-1-0.8c-2.28-1-4.89-1.68-7.05-2.89-1.82-1-3-2-2.57-2.13s1.42 0.54 3.24 0.59 3.48-0.93 3.43-1.9-0.11-0.82-1.89-1.15z" fill="#ffa8a7"/><path d="m390.34 135.26s-1.66-13.23-2.09-20.58 1.82-9.48 4.58-11.32c6.09-0.47 9.58 5.9 10.61 10.15s1.56 14.84 1.56 21.73 9.63 26.76 9.63 26.76-4.86 2.25-6.33 6.66c0 0-7.73-9.12-10.6-13.77-5.26-8.55-6.7-13.78-7.36-19.63z" fill="#6da5ea"/><path d="m390.34 135.26s-1.66-13.23-2.09-20.58 1.82-9.48 4.58-11.32c6.09-0.47 9.58 5.9 10.61 10.15s1.56 14.84 1.56 21.73 9.63 26.76 9.63 26.76-4.86 2.25-6.33 6.66c0 0-7.73-9.12-10.6-13.77-5.26-8.55-6.7-13.78-7.36-19.63z" opacity=".1"/><rect transform="rotate(180 369.14 282.76)" x="365" y="275.67" width="8.29" height="14.18" fill="#ffa8a7"/><polygon points="392.44 264.54 392.02 279.55 400.3 279.84 400.72 264.83" fill="#ffa8a7"/><g fill="#263238"><path d="m373.29 285.77v-1.19c0.79 0.35 2.63 7.38 5.92 10.37 2.61 2.39 6.18 5.14 7.09 7.8s-5 4.29-7.41 3.86c-2.84-0.51-7.75-2.5-9-4.35s-1.81-4.59-2.81-5.95-3.32-2.87-3.86-4.44c-0.3-0.86 0-2.75 0.47-4.35s0.8-3.07 1.3-2.94v0.91a6.65 6.65 0 0 0 4.15 1.4c1.22 0.04 4.16-0.2 4.15-1.12z"/><path d="m400.39 277.28c0.43 0 0.78 0.62 1.73 1.65a18.26 18.26 0 0 0 4.87 3.51c3.11 1.55 9.14 3.94 11.87 5.17 1.7 0.77 1.62 2.83-0.14 4s-6 2-11.13 0.88c-2.78-0.63-6.41-3.2-8.7-3.06s-6.59 0.11-8.28-1.06-1-3.66-0.54-5.8c0.52-2.34 1.27-5.92 2.05-5.76v0.74c1 1.51 6.07 2.12 8.26 1z"/><path d="m365.55 163.24v57.31c-0.19 2.27-1.88 6.22-2.33 15.91-0.56 11.88-1 44.45-1 44.45s6.19 4 11.67 0.14c0 0 7.36-46.7 8.84-58.47 1.3-10.27 3.49-38.18 3.49-38.18l5 42s-1.35 7.72-1.64 13.17 0 33.67 0 33.67 6.54 3.76 11.35 1.19c0 0 5.67-43.58 6.53-48.5s-3.11-62.74-3.11-62.74z"/></g><path d="m386.16 184.4a30.69 30.69 0 0 0 11.54-6.62s-2.22 4.17-8.84 8.05l0.14 22.58z"/><path d="m373.51 106a18.74 18.74 0 0 0-3.42 0.79c-2.28 0.89-3.32 3.69-3.86 6.16a28.79 28.79 0 0 0-0.68 6.3v44c5.81 6.32 26.06 9.26 38.75 0 0 0-0.25-38.86-1.2-45.24-1.65-11.09-7-15-12.29-14.63l-12.81 1.82z" fill="#6da5ea"/><path d="m378.41 125.17s6.94-0.28 9.79-1.39v-1.39c-2.85 1.11-9.79 1.39-9.79 1.39z" fill="#37474f"/><path d="m390.13 111.6-12.13-8.93-0.05-2.2s-2.57 0.39-3.2 5.31a20.85 20.85 0 0 0 9.29 9.9l2.52-4.49z" fill="#6da5ea"/><path d="m390.13 111.6-12.13-8.93-0.05-2.2s-2.57 0.39-3.2 5.31a20.85 20.85 0 0 0 9.29 9.9l2.52-4.49z" opacity=".1"/><path d="m390.8 101a6 6 0 0 1 3.94 2.37c1.2 2 0.92 9.55 0.92 9.55l-3.19-3.66-2.34 2.34c0.25-2.53 0.68-6.77 0.68-6.77z" fill="#6da5ea"/><path d="m390.8 101a6 6 0 0 1 3.94 2.37c1.2 2 0.92 9.55 0.92 9.55l-3.19-3.66-2.34 2.34c0.25-2.53 0.68-6.77 0.68-6.77z" opacity=".1"/><path d="m372.84 85s1.9 9 2.67 10.43a4 4 0 0 0 2.34 1.89l-0.13-6.3z" fill="#263238"/><path d="m375.23 72.17a4.42 4.42 0 0 0-3.65 1.28c-1.57 1.61-0.7 6.63 1.26 11.55l3.59 0.41z" fill="#263238"/><path d="m377.51 85.41c-0.72 0.43-1.75-1-2.64-1.88s-3.79-2.2-5.23 0.85 1.27 7.21 3.56 7.92c3.93 1.24 4.52-1.28 4.52-1.28l0.3 14.18s5.13 5.45 12.11 6.4l0.68-6.77v-4.32a24.78 24.78 0 0 0 5.3 0.27c2.9-0.45 4.72-2.73 5.59-5.86 1.41-5 1.95-9.09 0.75-19-1.31-10.84-13.92-11-20.72-6.67s-4.22 16.16-4.22 16.16z" fill="#ffa8a7"/><path d="m377.51 86.63c-0.37 0-1.74-2.28-2.64-3.1-1.24-1.13 0.36-11.36 0.36-11.36 1.49-7 13.66-8 20.46-5.77 3.53 1.09 5.81 2.68 5.68 5.66-0.45 2-4.76 3-6.4 3.21-4.6 0.56-11.69-0.68-12.67-0.81-1.33-0.18-1.7 0.24-2.42 3.78-0.63 3.1-1.16 8.36-2.37 8.39z" fill="#263238"/><path d="m375.24 73-4.36-2.34a2.4 2.4 0 0 1 3.3-1.09 2.6 2.6 0 0 1 1.06 3.43z" fill="#263238"/><path d="m390.8 100.51s-6.45-1.3-8.71-2.5a7.47 7.47 0 0 1-3.09-3.09 10.09 10.09 0 0 0 1.77 3.64c1.65 2.11 10.06 3.67 10.06 3.67z" fill="#f28f8f"/><path d="m389.66 85a1.3 1.3 0 1 1-1.29-1.35 1.32 1.32 0 0 1 1.29 1.35z" fill="#263238"/><path d="m388.29 80.1-2.77 1.53a1.65 1.65 0 0 1 0.65-2.2 1.54 1.54 0 0 1 2.12 0.67z" fill="#263238"/><path d="m390.22 92.74 2.95 1.11a1.54 1.54 0 0 1-2 1 1.64 1.64 0 0 1-0.95-2.11z" fill="#f28f8f"/><path d="m401.2 81.18-2.53-1.94a1.53 1.53 0 0 1 2.2-0.34 1.69 1.69 0 0 1 0.33 2.28z" fill="#263238"/><path d="m400.42 84.62a1.3 1.3 0 1 1-1.29-1.35 1.32 1.32 0 0 1 1.29 1.35z" fill="#263238"/><polygon points="397.91 88.6 393.42 82.2 393.85 89.98" fill="#f28f8f"/><path d="m380.93 76.87s12.86 7.18 21.8 1.71-2.64-10.16-2.64-10.16z" fill="#263238"/><path d="m400 56.16c-7.66-1.19-16-1.55-25.62 3.13s-11.75 10.93-11.75 10.93 9.82 2.67 17.81 0.38 19.56-14.44 19.56-14.44z" fill="#6da5ea"/><path d="m400 56.16c-7.66-1.19-16-1.55-25.62 3.13s-11.75 10.93-11.75 10.93 9.82 2.67 17.81 0.38 19.56-14.44 19.56-14.44z" fill="#fff" opacity=".4"/><path d="m368 73.18s-4.92-1.73-5.37-3a33.59 33.59 0 0 0 11.42-2.15c6.39-2.32 13-9.34 20.22-11.31s10.26 1.31 10.26 1.31a34.74 34.74 0 0 1-4.08 8.72s-2.23 5.12-10.69 7.28-21.76-0.85-21.76-0.85z" fill="#6da5ea"/><path d="m368 73.18 0.4 1.35a3.06 3.06 0 0 0 1.89 1.94 34.8 34.8 0 0 0 19.71-0.47c6-1.83 8.63-3.69 9.7-5a3.25 3.25 0 0 0 1-2.89l-0.2-1.33s-1.84 2.78-11.56 5.88-20.94 0.52-20.94 0.52z" fill="#37474f"/><path d="m395 59.53c-0.06 1.47-1.64 4.47-3.74 3.47v3.77c0 2.36 1.39 3 3.62 2.25a5.64 5.64 0 0 0 3.89-5.26v-3.25c-1.65 2.42-3.77-0.4-3.77-0.98z" fill="#fafafa"/><path d="m240 100.48-117.26 67.7a9.58 9.58 0 0 0-4.33 7.5v130.71a9.56 9.56 0 0 0 4.33 7.5l117.26 67.71a9.57 9.57 0 0 0 8.66 0l117.34-67.71a9.56 9.56 0 0 0 4.33-7.5v-130.71a9.58 9.58 0 0 0-4.33-7.5l-117.27-67.7a9.57 9.57 0 0 0-8.73 0z" fill="#37474f"/><path d="m244.37 241.92v140.71a8.83 8.83 0 0 1-4.33-1l-117.27-67.7a9.58 9.58 0 0 1-4.33-7.5v-130.75a9.69 9.69 0 0 1 3.89-7.22c-1.94 1.39-1.79 3.43 0.44 4.72l117.23 67.7a8.86 8.86 0 0 0 4.37 1.04z" fill="#263238"/><path d="m366 168.18-117.27-67.7a9.57 9.57 0 0 0-8.66 0l-117.26 67.7c-2.39 1.38-2.39 3.62 0 5l117.19 67.7a9.57 9.57 0 0 0 8.66 0l117.34-67.7c2.35-1.38 2.35-3.62 0-5z" fill="#455a64"/><path d="m254.65 246.82 105.35-60.82c1.19-0.69 2.16-0.13 2.16 1.25v117a4.8 4.8 0 0 1-2.16 3.75l-105.35 60.77c-1.19 0.69-2.16 0.14-2.16-1.25v-116.95a4.77 4.77 0 0 1 2.16-3.75z" fill="#263238"/><path d="m254.49 250.57a2.82 2.82 0 0 1 1.16-2l104.5-60.34v116a2.85 2.85 0 0 1-1.16 2l-104.5 60.33z" fill="#37474f"/><path d="m252.86 257.23 22.87-13.23a1.54 1.54 0 0 1 1.5 0l3.7 2.14-24 13.4z" fill="#455a64"/><path d="m281.3 247v15.76a2.88 2.88 0 0 1-1.3 2.24l-23.08 13.33v-18.76l23.08-13.32c0.71-0.41 1.3-0.08 1.3 0.75z" fill="#263238"/><polygon points="252.86 275.99 252.86 257.23 256.92 259.57 256.92 278.34"/><g fill="#455a64"><path d="m266.7 261.1c1.12-0.65 2-0.13 2 1.17a4.51 4.51 0 0 1-2 3.52c-1.12 0.64-2 0.12-2-1.18a4.47 4.47 0 0 1 2-3.51z"/><path d="m274.83 256.41c1.12-0.65 2-0.13 2 1.17a4.51 4.51 0 0 1-2 3.52c-1.13 0.64-2 0.12-2-1.18a4.49 4.49 0 0 1 2-3.51z"/><path d="m252.48 257.45-5.62 3.25a5 5 0 0 1-5 0l-4.11-2.37a1.49 1.49 0 0 0-1.5 0l-3.68 2.12 9.29 4.94a5 5 0 0 0 5 0l9.68-5.59z"/></g><path d="m233.47 279.31 8.39 4.85a5 5 0 0 0 5 0l9.68-5.59v-18.77l-9.68 5.59a5 5 0 0 1-5 0l-8.39-4.84c-0.71-0.41-1.3-0.08-1.3 0.75v15.76a2.88 2.88 0 0 0 1.3 2.25z" fill="#37474f"/><path d="m244.39 284.82a4.89 4.89 0 0 0 2.48-0.67l9.68-5.59v-18.76l-9.68 5.59a4.89 4.89 0 0 1-2.48 0.67z" fill="#263238"/><path d="m252.86 337 22.87-13.2a1.49 1.49 0 0 1 1.5 0l3.7 2.14-24 13.4z" fill="#455a64"/><path d="m281.3 326.74v15.76a2.88 2.88 0 0 1-1.3 2.25l-23.08 13.32v-18.76l23.08-13.31c0.71-0.42 1.3-0.09 1.3 0.74z" fill="#263238"/><polygon points="252.86 355.73 252.86 336.97 256.92 339.31 256.92 358.07"/><g fill="#455a64"><path d="m266.7 340.83c1.12-0.65 2-0.12 2 1.17a4.48 4.48 0 0 1-2 3.52c-1.12 0.65-2 0.13-2-1.17a4.51 4.51 0 0 1 2-3.52z"/><path d="m274.83 336.14c1.12-0.65 2-0.12 2 1.17a4.49 4.49 0 0 1-2 3.52c-1.13 0.65-2 0.13-2-1.17a4.5 4.5 0 0 1 2-3.52z"/><path d="m252.48 337.19-5.62 3.25a5 5 0 0 1-5 0l-4.11-2.37a1.49 1.49 0 0 0-1.5 0l-3.68 2.12 9.29 4.94a5 5 0 0 0 5 0l9.68-5.59z"/></g><path d="m233.47 359.05 8.39 4.84a5 5 0 0 0 5 0l9.68-5.59v-18.76l-9.68 5.59a5 5 0 0 1-5 0l-8.39-4.84c-0.71-0.42-1.3-0.08-1.3 0.75v15.76a2.9 2.9 0 0 0 1.3 2.25z" fill="#37474f"/><g fill="#263238"><path d="m244.39 364.56a5 5 0 0 0 2.48-0.67l9.68-5.59v-18.76l-9.68 5.59a5.1 5.1 0 0 1-2.48 0.67z"/><path d="m323.72 260.93 0.68-1.18-4.13-2.39h-0.08c-3.3-1.84-7.82-1.55-12.82 1.34-10.09 5.83-18.28 20-18.28 31.66 0 5.72 2 9.76 5.18 11.72l0.24 0.14 4.13 2.39 0.69-1.21a16.53 16.53 0 0 0 8-2.49c10.1-5.83 18.28-20 18.28-31.66a16.7 16.7 0 0 0-1.89-8.32z"/><ellipse transform="rotate(-60 312.05 282.46)" cx="312.04" cy="282.45" rx="25.85" ry="14.92"/></g><ellipse transform="rotate(-60 311.39 282.08)" cx="311.38" cy="282.08" rx="25.85" ry="14.92" fill="#37474f"/><g fill="#6da5ea"><path d="m313.26 268c-0.41 0.15-0.66-0.19-0.56-0.76l0.84-4.86a1.79 1.79 0 0 1 0.92-1.3c0.4-0.15 0.66 0.19 0.56 0.76l-0.84 4.85a1.79 1.79 0 0 1-0.92 1.31z"/><path d="m306.37 273.25a0.37 0.37 0 0 1-0.52-0.2l-1.36-3.18a1.68 1.68 0 0 1 0.41-1.51c0.39-0.46 0.83-0.52 1-0.15l1.36 3.18a1.66 1.66 0 0 1-0.41 1.5 1.06 1.06 0 0 1-0.48 0.36z"/><path d="m301.11 282.3a0.6 0.6 0 0 1-0.22 0l-3-0.29c-0.36 0-0.47-0.54-0.25-1.13s0.69-1 1-1l3 0.29c0.35 0 0.47 0.54 0.25 1.13a1.64 1.64 0 0 1-0.78 1z"/><path d="m295.93 294.41c-0.32 0.12-0.56-0.05-0.58-0.45a1.91 1.91 0 0 1 0.7-1.48l3.55-2.71c0.42-0.32 0.79-0.18 0.82 0.32a1.94 1.94 0 0 1-0.7 1.48l-3.56 2.71a0.78 0.78 0 0 1-0.23 0.13z"/><path d="m299.39 302.53a0.4 0.4 0 0 1-0.4 0c-0.27-0.21-0.23-0.83 0.09-1.38l2.72-4.68c0.32-0.55 0.8-0.82 1.07-0.61s0.23 0.84-0.09 1.39l-2.71 4.67a1.48 1.48 0 0 1-0.68 0.61z"/><path d="m307.16 303.26c-0.41 0.15-0.66-0.19-0.56-0.76l0.84-4.85a1.8 1.8 0 0 1 0.91-1.31c0.41-0.15 0.66 0.19 0.56 0.76l-0.84 4.86a1.81 1.81 0 0 1-0.91 1.3z"/><path d="m316.24 296.34a0.37 0.37 0 0 1-0.52-0.21l-1.36-3.13a1.66 1.66 0 0 1 0.41-1.5c0.39-0.46 0.84-0.53 1-0.15l1.35 3.17a1.68 1.68 0 0 1-0.41 1.51 1.23 1.23 0 0 1-0.47 0.31z"/><path d="m323.18 284.4a0.56 0.56 0 0 1-0.22 0l-3-0.29c-0.35 0-0.46-0.54-0.24-1.13s0.68-1 1-1l3 0.29c0.36 0 0.47 0.54 0.25 1.13a1.7 1.7 0 0 1-0.79 1z"/><path d="m321.77 274.71c-0.31 0.12-0.55-0.06-0.58-0.46a1.92 1.92 0 0 1 0.7-1.47l3.56-2.72c0.42-0.32 0.78-0.17 0.82 0.33a2 2 0 0 1-0.7 1.47l-3.57 2.72a0.94 0.94 0 0 1-0.23 0.13z"/><path d="m319.14 268.56a0.4 0.4 0 0 1-0.4 0c-0.27-0.21-0.23-0.83 0.09-1.38l2.71-4.68c0.32-0.55 0.8-0.82 1.08-0.61s0.23 0.84-0.09 1.39l-2.72 4.67a1.47 1.47 0 0 1-0.67 0.61z"/></g><path d="m320.25 271.24c-1.74-2.58-5.06-3.1-8.87-0.9-5.6 3.24-10.15 11.12-10.15 17.59 0 4.63 2.32 7.27 5.69 7.24l7.81 0.18 9.83-18z" fill="#263238"/><path d="m318 276.85a16.76 16.76 0 0 0-7.54 13.15c0 4.83 3.39 6.78 7.57 4.37a16.74 16.74 0 0 0 7.57-13.11c0-4.86-3.39-6.82-7.6-4.41z" fill="#455a64"/><path d="m354.14 244.13a9 9 0 0 0-4.49-8.16l-13.54-7.81h-0.06a4.07 4.07 0 0 0-4 0.42 12.7 12.7 0 0 0-5.74 10c0 2 0.8 3.42 2.07 3.9h0.08l13 4.12a7.25 7.25 0 0 1 5.05 6.54l1.49 27.77a2.35 2.35 0 0 0 4.69 0z" fill="#263238"/><path d="m358.1 118.33s-16.85 25.07-19.68 31.24c-0.95 2.09-1.77 3.19 1.65 6.71s16 14 17.23 15.57 1.18 4 2.13 6.15-0.14 7.9 0.72 11.44 10.14-1.66 10.14-10.71c0-5.08 0.17-8-2.93-10.39s-16-17.51-16-17.51l11.72-17.67z" fill="#ffa8a7"/><path d="m361.57 138.19c4-5.27 10.57-13.08 10.57-13.08 3.06-4.27 5.55-15.32 0.71-19-3.28-0.49-6.38-0.4-11 5.34s-9.15 12.08-13.95 19.13-11.19 17.31-11.19 21 7.44 9.85 14.15 14.42a8.9 8.9 0 0 1 7.92-6.63l-6.3-8.81s5.1-7.1 9.09-12.37z" fill="#6da5ea"/><path d="m361.57 138.19c4-5.27 10.57-13.08 10.57-13.08 3.06-4.27 5.55-15.32 0.71-19-3.28-0.49-6.38-0.4-11 5.34s-9.15 12.08-13.95 19.13-11.19 17.31-11.19 21 7.44 9.85 14.15 14.42a8.9 8.9 0 0 1 7.92-6.63l-6.3-8.81s5.1-7.1 9.09-12.37z" opacity=".05"/><path d="m362 113.84a6.78 6.78 0 0 1 4.54 2.71l0.17-0.27a0.71 0.71 0 0 0-0.08-0.89 7.14 7.14 0 0 0-3.68-2.2 0.71 0.71 0 0 0-0.72 0.3z" fill="#37474f"/><path d="m364.13 119.23c-0.91 1.39-2.49 2-3.54 1.28s-1.16-2.36-0.25-3.76 2.5-2 3.54-1.28 1.12 2.37 0.25 3.76z" fill="#37474f"/></g></svg>
