<svg width="240" height="240" version="1.1" viewBox="0 0 240 240" xmlns="http://www.w3.org/2000/svg"><g transform="matrix(.60361 0 0 .60361 -38.232 -22.978)"><path d="m406.75 361c7.38 4.46 19.34 4.46 26.72 0s7.37-11.68 0-16.14-19.34-4.46-26.72 0-7.37 11.66 0 16.14z" opacity=".3"/><path d="m315.6 52.44 55.27 31.92a4.09 4.09 0 0 1 1.85 3.2v151.94a4.09 4.09 0 0 1-1.85 3.2l-55.27 31.92a4.09 4.09 0 0 1-3.7 0l-55.27-31.92a4.07 4.07 0 0 1-1.85-3.2v-151.94a4.09 4.09 0 0 1 1.85-3.2l55.27-31.92a4.15 4.15 0 0 1 3.7 0z" fill="#37474f"/><path d="m254.78 87.56v151.94a4.1 4.1 0 0 0 1.84 3.2l55.28 31.92a3.72 3.72 0 0 0 1.85 0.44v-156.22a3.83 3.83 0 0 1-1.85-0.44l-55.28-31.91-0.5-0.42-0.66-0.55a3.85 3.85 0 0 0-0.68 2.04z" fill="#263238"/><path d="m363.93 102.51-41.4 23.9a4.1 4.1 0 0 0-1.85 3.21v15.75c0 1.18 0.82 1.66 1.84 1.07l41.4-23.9a4.09 4.09 0 0 0 1.85-3.2v-15.76c0.01-1.18-0.77-1.66-1.84-1.07z" fill="#455a64"/><path d="m362.31 109.46a4 4 0 0 1-1.85 3.07l-34.46 19.89c-1 0.59-1.85 0.17-1.85-0.93a4 4 0 0 1 1.85-3.07l34.46-19.9c1.02-0.59 1.85-0.17 1.85 0.94z" fill="#6da5ea"/><path d="m362.31 117.47a4 4 0 0 1-1.85 3.07l-34.46 19.89c-1 0.59-1.85 0.17-1.85-0.93a4 4 0 0 1 1.85-3.07l34.46-19.9c1.02-0.59 1.85-0.17 1.85 0.94z" fill="#263238"/><path d="m360.46 116.53-19 11v4l19-11a4 4 0 0 0 1.85-3.07c0-1.1-0.83-1.52-1.85-0.93z" fill="#6da5ea"/><path d="m363.93 130.55-41.4 23.9a4.1 4.1 0 0 0-1.85 3.2v15.76c0 1.18 0.82 1.66 1.84 1.07l41.4-23.9a4.09 4.09 0 0 0 1.85-3.2v-15.76c0.01-1.18-0.77-1.62-1.84-1.07z" fill="#455a64"/><path d="m362.31 137.49a4 4 0 0 1-1.85 3.08l-34.46 19.89c-1 0.59-1.85 0.17-1.85-0.93a4 4 0 0 1 1.85-3.08l34.46-19.89c1.02-0.56 1.85-0.17 1.85 0.93z" fill="#6da5ea"/><path d="m362.31 145.51a4 4 0 0 1-1.85 3.07l-34.46 19.89c-1 0.59-1.85 0.17-1.85-0.93a4 4 0 0 1 1.85-3.07l34.46-19.9c1.02-0.57 1.85-0.17 1.85 0.94z" fill="#263238"/><path d="m360.46 144.57-29.37 17v4l29.37-16.95a4 4 0 0 0 1.85-3.07c0-1.15-0.83-1.55-1.85-0.98z" fill="#6da5ea"/><path d="m363.93 158.59-41.4 23.9a4.09 4.09 0 0 0-1.85 3.2v15.76c0 1.18 0.82 1.66 1.84 1.07l41.4-23.9a4.1 4.1 0 0 0 1.85-3.21v-15.75c0.01-1.18-0.77-1.66-1.84-1.07z" fill="#455a64"/><path d="m362.31 165.53a4 4 0 0 1-1.85 3.07l-34.46 19.9c-1 0.59-1.85 0.17-1.85-0.94a4 4 0 0 1 1.85-3.07l34.46-19.89c1.02-0.6 1.85-0.17 1.85 0.93z" fill="#6da5ea"/><path d="m362.31 173.54a4 4 0 0 1-1.85 3.07l-34.46 19.9c-1 0.59-1.85 0.17-1.85-0.94a4 4 0 0 1 1.85-3.07l34.46-19.89c1.02-0.61 1.85-0.17 1.85 0.93z" fill="#263238"/><path d="m360.46 172.61-12 6.94v4l12-6.95a4 4 0 0 0 1.85-3.07c0-1.09-0.83-1.53-1.85-0.92z" fill="#6da5ea"/><path d="m363.93 186.63-41.4 23.9a4.09 4.09 0 0 0-1.85 3.2v15.76c0 1.18 0.82 1.66 1.84 1.07l41.4-23.9a4.1 4.1 0 0 0 1.85-3.21v-15.75c0.01-1.18-0.77-1.7-1.84-1.07z" fill="#455a64"/><path d="m362.31 193.57a4 4 0 0 1-1.85 3.07l-34.46 19.9c-1 0.59-1.85 0.17-1.85-0.94a4 4 0 0 1 1.85-3.07l34.46-19.89c1.02-0.59 1.85-0.17 1.85 0.93z" fill="#6da5ea"/><path d="m362.31 201.58a4 4 0 0 1-1.85 3.07l-34.46 19.9c-1 0.59-1.85 0.17-1.85-0.94a4 4 0 0 1 1.85-3.07l34.46-19.89c1.02-0.59 1.85-0.17 1.85 0.93z" fill="#263238"/><path d="m360.46 200.65-19 10.95v4l19-10.95a4 4 0 0 0 1.85-3.07c0-1.1-0.83-1.52-1.85-0.93z" fill="#6da5ea"/><path d="m363.93 214.67-41.4 23.9a4.09 4.09 0 0 0-1.85 3.2v15.76c0 1.18 0.82 1.65 1.84 1.06l41.4-23.9a4.09 4.09 0 0 0 1.85-3.2v-15.76c0.01-1.18-0.77-1.65-1.84-1.06z" fill="#455a64"/><path d="m362.31 221.61a4 4 0 0 1-1.85 3.07l-34.46 19.9c-1 0.58-1.85 0.17-1.85-0.94a4 4 0 0 1 1.85-3.07l34.46-19.9c1.02-0.58 1.85-0.17 1.85 0.94z" fill="#6da5ea"/><path d="m362.31 229.62a4 4 0 0 1-1.85 3.07l-34.46 19.9c-1 0.59-1.85 0.17-1.85-0.94a4 4 0 0 1 1.85-3.07l34.46-19.89c1.02-0.59 1.85-0.18 1.85 0.93z" fill="#263238"/><path d="m360.46 228.69-25.9 14.95v4l25.9-15a4 4 0 0 0 1.85-3.07c0-1.06-0.83-1.47-1.85-0.88z" fill="#6da5ea"/><path d="m305.08 128.49c-1.92-1.11-3.47-0.1-3.47 2.26v91.61a8 8 0 0 0 3.47 6.28c1.91 1.11 3.46 0.1 3.46-2.26v-91.61a8 8 0 0 0-3.46-6.28z" fill="#37474f"/><path d="m305.08 226.61a4 4 0 0 1-1.74-3.14v-91.86c0-1.18 0.78-1.69 1.74-1.13a4 4 0 0 1 1.73 3.13v91.87c0 1.17-0.81 1.68-1.73 1.13z" fill="#263238"/><path d="m305.08 226.61a4 4 0 0 1-1.74-3.14v-43.92l3.47 2v43.92c0 1.18-0.81 1.69-1.73 1.14z" fill="#6da5ea"/><path d="m294.67 122.48c-1.92-1.11-3.47-0.1-3.47 2.26v91.61a7.94 7.94 0 0 0 3.47 6.28c1.91 1.11 3.47 0.1 3.47-2.26v-91.61a8 8 0 0 0-3.47-6.28z" fill="#37474f"/><path d="m294.67 220.6a4 4 0 0 1-1.74-3.14v-91.86c0-1.18 0.78-1.68 1.74-1.13a4 4 0 0 1 1.73 3.14v91.86c0 1.18-0.77 1.68-1.73 1.13z" fill="#6da5ea"/><path d="m284.26 116.48c-1.91-1.12-3.47-0.1-3.47 2.25v91.61a8 8 0 0 0 3.47 6.28c1.92 1.11 3.47 0.1 3.47-2.26v-91.6a7.94 7.94 0 0 0-3.47-6.28z" fill="#37474f"/><path d="m284.26 214.59a3.94 3.94 0 0 1-1.73-3.13v-91.87c0-1.17 0.77-1.68 1.73-1.13a4 4 0 0 1 1.74 3.14v91.86c0 1.18-0.78 1.69-1.74 1.13z" fill="#263238"/><path d="m284.26 214.59a3.94 3.94 0 0 1-1.73-3.13v-71l3.47 2v71c0 1.18-0.78 1.69-1.74 1.13z" fill="#6da5ea"/><path d="m273.86 110.47c-1.92-1.11-3.47-0.1-3.47 2.26v91.6a7.94 7.94 0 0 0 3.47 6.28c1.91 1.11 3.46 0.1 3.46-2.26v-91.6a8 8 0 0 0-3.46-6.28z" fill="#37474f"/><path d="m273.86 208.58a4 4 0 0 1-1.74-3.13v-91.86c0-1.18 0.78-1.69 1.74-1.14a4 4 0 0 1 1.73 3.14v91.86c0 1.18-0.78 1.69-1.73 1.13z" fill="#263238"/><path d="m273.86 208.58a4 4 0 0 1-1.74-3.13v-15.51l3.47 2v15.5c0 1.19-0.78 1.7-1.73 1.14z" fill="#6da5ea"/><path d="m263.45 104.46c-1.92-1.11-3.47-0.1-3.47 2.26v91.6a7.94 7.94 0 0 0 3.47 6.28c1.91 1.12 3.47 0.1 3.47-2.25v-91.61a8 8 0 0 0-3.47-6.28z" fill="#37474f"/><path d="m263.45 202.58a4 4 0 0 1-1.74-3.14v-91.86c0-1.18 0.78-1.69 1.74-1.13a3.94 3.94 0 0 1 1.73 3.13v91.86c0 1.18-0.77 1.69-1.73 1.14z" fill="#263238"/><path d="m263.45 202.58a4 4 0 0 1-1.74-3.14v-47.93l3.47 2v47.92c0 1.19-0.77 1.7-1.73 1.15z" fill="#6da5ea"/><path d="m307.06 239.78-45.6-26.33c-0.82-0.47-1.48-0.09-1.48 0.86v16.61a3.26 3.26 0 0 0 1.48 2.56l45.6 26.33c0.82 0.47 1.48 0.09 1.48-0.85v-16.62a3.26 3.26 0 0 0-1.48-2.56z" fill="#37474f"/><path d="m305.19 244.71c0 1.1-0.83 1.52-1.85 0.93l-38.16-22a4 4 0 0 1-1.85-3.07c0-1.11 0.83-1.53 1.85-0.94l38.16 22a4 4 0 0 1 1.85 3.08z" fill="#263238"/><path d="m305.19 244.71c0 1.1-0.83 1.52-1.85 0.93l-27.75-16v-4l27.75 16a4 4 0 0 1 1.85 3.07z" fill="#6da5ea"/><path d="m305.19 252.72c0 1.1-0.83 1.52-1.85 0.93l-38.16-22a4 4 0 0 1-1.85-3.07c0-1.11 0.83-1.53 1.85-0.94l38.16 22a4 4 0 0 1 1.85 3.08z" fill="#263238"/><path d="m305.19 252.72c0 1.1-0.83 1.52-1.85 0.93l-10.41-6v-4l10.41 6a4 4 0 0 1 1.85 3.07z" fill="#6da5ea"/><g fill="#455a64"><path d="m256.63 84.36 55.27-31.92a4.15 4.15 0 0 1 3.7 0l55.27 31.92a1.12 1.12 0 0 1 0 2.13l-55.27 31.91a4.09 4.09 0 0 1-3.7 0l-55.27-31.91a1.12 1.12 0 0 1 0-2.13z"/><path d="m264.34 242.14a0.5 0.5 0 0 1 0.46 0.07 1.57 1.57 0 0 1 0.7 1.22 0.53 0.53 0 0 1-0.16 0.42l-0.08 0.05-30.06 17.35-2-1.14z"/><path d="m268.4 244.49a0.49 0.49 0 0 1 0.46 0.06 1.57 1.57 0 0 1 0.71 1.22 0.52 0.52 0 0 1-0.17 0.43l-0.08 0.05-30.06 17.35-2-1.14z"/><path d="m272.46 246.83a0.5 0.5 0 0 1 0.46 0.07 1.54 1.54 0 0 1 0.7 1.21 0.54 0.54 0 0 1-0.16 0.43l-0.09 0.05-30.05 17.35-2-1.14z"/><path d="m276.52 249.17a0.55 0.55 0 0 1 0.47 0.07 1.57 1.57 0 0 1 0.7 1.22 0.51 0.51 0 0 1-0.16 0.42l-0.08 0.05-30.06 17.35-2-1.14z"/></g><path d="m71 347.56a8.79 8.79 0 0 0 4.1 6.81l115 66.37a9.07 9.07 0 0 0 8.21 0l157.28-90.81a7.71 7.71 0 0 0 0-13.63l-114.96-66.37a9.11 9.11 0 0 0-8.2 0l-157.29 90.81a8.79 8.79 0 0 0-4.14 6.82z" fill="#6da5ea"/><path d="m194.2 412.84v8.88a8.44 8.44 0 0 1-4.11-1l-114.95-66.35a7.68 7.68 0 0 1-0.42-13.37c-1.84 1.32-1.7 3.25 0.42 4.47l115 66.37a8.33 8.33 0 0 0 4.06 1z" opacity=".7"/><path d="m67.19 340.89a8.79 8.79 0 0 1-3.85-7v-137.14a9.07 9.07 0 0 1 4.1-7.1l157.29-90.81a7.71 7.71 0 0 1 11.8 6.81v137.18a9.05 9.05 0 0 1-4.1 7.1l-157.29 90.81a8.78 8.78 0 0 1-7.95 0.15z" fill="#6da5ea"/><path d="m74.65 341a8.83 8.83 0 0 1-7.46-0.1 8.8 8.8 0 0 1-3.85-7v-137.15a8.37 8.37 0 0 1 1.2-4l7.7 4.44a8.38 8.38 0 0 0-1.21 4v137.19c-0.03 2.42 1.59 3.51 3.62 2.62z" opacity=".7"/><path d="m71 201.2v137.18c0 2.61 1.83 3.67 4.1 2.36l157.29-90.81a9.05 9.05 0 0 0 4.1-7.1v-137.18c0-2.62-1.84-3.68-4.1-2.37l-157.25 90.81a9.06 9.06 0 0 0-4.14 7.11z" opacity=".5"/><path d="m75.14 345.48 115 66.37a9.07 9.07 0 0 0 8.21 0l157.23-90.85c2.27-1.31 2.27-3.43 0-4.74l-114.95-66.33a9.11 9.11 0 0 0-8.2 0l-157.29 90.81c-2.27 1.31-2.27 3.43 0 4.74z" fill="#6da5ea"/><path d="m75.14 345.48 115 66.37a9.07 9.07 0 0 0 8.21 0l157.23-90.85c2.27-1.31 2.27-3.43 0-4.74l-114.95-66.33a9.11 9.11 0 0 0-8.2 0l-157.29 90.81c-2.27 1.31-2.27 3.43 0 4.74z" opacity=".3"/><path d="m77.35 201.7 151.65-87.53c1.36-0.78 2.46-0.14 2.46 1.43v118.75a5.44 5.44 0 0 1-2.46 4.26l-151.65 87.53c-1.36 0.78-2.47 0.15-2.47-1.42v-118.72a5.47 5.47 0 0 1 2.47-4.3z" fill="#fafafa"/><path d="m177.4 183.17-1 27.42c0 11.29-7.09 31.68-21.68 46.75a7.2 7.2 0 0 1-3.8 1.9c-0.74 0.07-1.45 0.1-2.15 0.1a17.7 17.7 0 0 1-8.92-2.26l-0.09-0.05-0.17-0.11c-6.49-3.92-9.69-11.92-9.69-19.46l-1-26.21a2.77 2.77 0 0 1 0.74-1.91 3.79 3.79 0 0 1 1.31-1c6.68-3 16.69-14.79 21.39-26.46 0.34-0.83 0.84-1.1 1.4-0.84l0.08 0.05a2 2 0 0 1 0.51 0.41l0.09 0.11c5 5.8 14.79 5.79 21.33 0.79 0.5-0.38 0.91-0.5 1.19-0.38 0.34 0.2 0.48 0.56 0.46 1.15z" fill="#6da5ea"/><path d="m153.17 181a1.38 1.38 0 0 0-0.79 0.88c-4.7 11.67-14.71 23.5-21.39 26.46a3.79 3.79 0 0 0-1.31 1 2.77 2.77 0 0 0-0.74 1.91l1 26.21c0 7.57 3.2 15.57 9.72 19.46l0.17 0.11 0.09 0.05a17.7 17.7 0 0 0 8.92 2.26c0.7 0 1.41 0 2.15-0.1a6.18 6.18 0 0 0 2.22-0.76z" opacity=".2"/><path d="m88.48 341.93 146-84.29a4.55 4.55 0 0 1 4.1 0l7.47 4.31a1.25 1.25 0 0 1 0 2.37l-146.05 84.28a4.55 4.55 0 0 1-4.1 0l-7.45-4.3a1.25 1.25 0 0 1 0.03-2.37z" opacity=".3"/><path d="m107.73 353 146-84.29a4.49 4.49 0 0 1 4.1 0l45.93 26.52a1.25 1.25 0 0 1 0 2.37l-145.83 84.21a4.58 4.58 0 0 1-4.11 0l-46.09-26.41a1.24 1.24 0 0 1 0-2.4z" opacity=".3"/><path d="m238.6 306.67 4.57-2.64c0.19-0.11 0.18-0.3 0-0.42l-5.28-3.05a0.82 0.82 0 0 0-0.73 0l-4.57 2.64c-0.2 0.12-0.19 0.3 0 0.42l5.29 3.06a0.82 0.82 0 0 0 0.72-0.01zm-9-10.48-4.6 2.63c-0.2 0.12-0.19 0.3 0 0.43l5.29 3.05a0.82 0.82 0 0 0 0.73 0l4.57-2.64c0.19-0.11 0.18-0.3 0-0.42l-5.28-3.05a0.79 0.79 0 0 0-0.73 0zm-14.77 8.52-7.74 4.47c-0.19 0.11-0.18 0.3 0 0.42l5.29 3a0.8 0.8 0 0 0 0.72 0l7.74-4.47c0.19-0.11 0.18-0.3 0-0.42l-5.28-3a0.82 0.82 0 0 0-0.75 0zm8.07-4.71-4.58 2.64c-0.19 0.11-0.18 0.3 0 0.42l5.29 3a0.82 0.82 0 0 0 0.73 0l4.57-2.64c0.19-0.11 0.18-0.3 0-0.42l-5.28-3.05a0.82 0.82 0 0 0-0.73 0.05zm-17.9 10.4-4.61 2.6c-0.19 0.12-0.18 0.31 0 0.43l5.28 3.05a0.82 0.82 0 0 0 0.73 0l4.57-2.64c0.2-0.11 0.19-0.3 0-0.42l-5.29-3a0.79 0.79 0 0 0-0.68-0.02zm-6.68 3.85-4.57 2.64c-0.19 0.11-0.18 0.3 0 0.42l5.28 3.05a0.79 0.79 0 0 0 0.73 0l4.57-2.64c0.2-0.11 0.19-0.3 0-0.42l-5.33-3.03a0.82 0.82 0 0 0-0.72-0.02zm20.79 12.41 4.58-2.64c0.19-0.11 0.18-0.3 0-0.42l-5.29-3.05a0.79 0.79 0 0 0-0.73 0l-4.67 2.63c-0.19 0.11-0.18 0.3 0 0.42l5.28 3a0.82 0.82 0 0 0 0.79 0.06zm-6.68 3.86 4.57-2.64c0.2-0.11 0.19-0.3 0-0.42l-5.29-3a0.82 0.82 0 0 0-0.73 0l-4.63 2.54c-0.19 0.11-0.18 0.3 0 0.42l5.28 3.06a0.82 0.82 0 0 0 0.76 0.04zm-6.68 3.86 4.57-2.64c0.2-0.11 0.19-0.3 0-0.42l-5.32-3.05a0.79 0.79 0 0 0-0.73 0l-4.57 2.64c-0.19 0.11-0.18 0.3 0 0.42l5.28 3.05a0.82 0.82 0 0 0 0.73 0zm-6.75 3.85 4.57-2.63c0.2-0.12 0.18-0.31 0-0.43l-5.29-3.05a0.82 0.82 0 0 0-0.73 0l-4.55 2.63c-0.19 0.11-0.18 0.3 0 0.42l5.28 3.05a0.79 0.79 0 0 0 0.72 0.01zm32.89-27.7 4.57-2.64c0.19-0.11 0.18-0.3 0-0.42l-5.28-3.05a0.82 0.82 0 0 0-0.73 0l-4.57 2.58c-0.2 0.11-0.19 0.3 0 0.42l5.29 3.05a0.82 0.82 0 0 0 0.75 0.06zm-6.17 12.28 10.2-5.89c0.2-0.11 0.18-0.3 0-0.42l-12.84-7.41a0.82 0.82 0 0 0-0.73 0l-5.27 3.05c-0.2 0.11-0.19 0.3 0 0.42l6.8 3.92c0.21 0.12 0.22 0.31 0 0.42l-4.22 2.44c-0.19 0.11-0.18 0.3 0 0.42l5.29 3.05a0.8 0.8 0 0 0 0.8 0zm-34.15-4.7-4.57 2.64c-0.19 0.11-0.18 0.3 0 0.42l5.28 3.05a0.82 0.82 0 0 0 0.73 0l4.57-2.64c0.2-0.11 0.19-0.3 0-0.42l-5.29-3.05a0.79 0.79 0 0 0-0.69 0zm-6.65 3.89-4.57 2.64c-0.19 0.11-0.18 0.3 0 0.42l5.28 3.05a0.79 0.79 0 0 0 0.73 0l4.57-2.63c0.2-0.12 0.18-0.31 0-0.43l-5.29-3a0.82 0.82 0 0 0-0.72-0.05zm-33.38 43.25a0.79 0.79 0 0 0 0.73 0l4.57-2.63c0.19-0.12 0.18-0.31 0-0.43l-5.29-3.05a0.79 0.79 0 0 0-0.72 0l-4.58 2.64c-0.19 0.11-0.18 0.3 0 0.42zm-20.07-12.39-4.57 2.63c-0.19 0.12-0.18 0.3 0 0.43l5.28 3.05a0.82 0.82 0 0 0 0.73 0l4.57-2.64c0.2-0.11 0.19-0.3 0-0.42l-5.29-3.05a0.79 0.79 0 0 0-0.72-0.03zm10.76 9.05a0.82 0.82 0 0 0 0.73 0l4.57-2.64c0.19-0.11 0.18-0.3 0-0.42l-5.28-3.05a0.82 0.82 0 0 0-0.73 0l-4.57 2.64c-0.2 0.12-0.19 0.3 0 0.42zm21.1 5.68 4.57-2.63c0.2-0.12 0.19-0.31 0-0.43l-5.29-3.05a0.82 0.82 0 0 0-0.73 0l-4.57 2.64c-0.19 0.11-0.18 0.3 0 0.42l5.28 3.05a0.79 0.79 0 0 0 0.74-0.03zm-7.41 3.85a0.82 0.82 0 0 0 0.73 0l4.57-2.64c0.2-0.11 0.18-0.3 0-0.42l-5.29-3.05a0.82 0.82 0 0 0-0.73 0l-4.57 2.64c-0.19 0.12-0.18 0.3 0 0.42zm-17.77-22.44-4.57 2.64c-0.19 0.11-0.18 0.3 0 0.42l5.29 3.05a0.77 0.77 0 0 0 0.72 0l4.58-2.63c0.19-0.12 0.18-0.3 0-0.43l-5.29-3a0.82 0.82 0 0 0-0.73-0.05zm33.41-19.29-4.56 2.61c-0.2 0.11-0.18 0.3 0 0.42l5.29 3.05a0.82 0.82 0 0 0 0.73 0l4.57-2.64c0.19-0.11 0.18-0.3 0-0.42l-5.28-3.05a0.82 0.82 0 0 0-0.75 0zm-26.72 15.43-4.58 2.64c-0.19 0.11-0.18 0.3 0 0.42l5.29 3.05a0.82 0.82 0 0 0 0.73 0l4.57-2.64c0.19-0.11 0.18-0.3 0-0.42l-5.29-3.05a0.8 0.8 0 0 0-0.72-0.03zm33.4-19.29-4.57 2.64c-0.2 0.12-0.18 0.3 0 0.42l5.29 3.06a0.82 0.82 0 0 0 0.73 0l4.57-2.64c0.2-0.11 0.18-0.3 0-0.42l-5.26-3.07a0.82 0.82 0 0 0-0.76-0.02zm-13.36 7.72-4.57 2.64c-0.2 0.11-0.19 0.3 0 0.42l5.29 3a0.82 0.82 0 0 0 0.73 0l4.57-2.64c0.19-0.12 0.18-0.3 0-0.42l-5.28-3.06a0.82 0.82 0 0 0-0.74 0.03zm-6.68 3.86-4.57 2.57c-0.2 0.11-0.19 0.3 0 0.42l5.29 3.05a0.79 0.79 0 0 0 0.73 0l4.57-2.64c0.19-0.11 0.18-0.3 0-0.42l-5.28-3a0.79 0.79 0 0 0-0.74-0.01zm-6.68 3.85-4.52 2.61c-0.2 0.11-0.19 0.3 0 0.42l5.29 3.06a0.82 0.82 0 0 0 0.73 0l4.57-2.64c0.19-0.11 0.18-0.3 0-0.42l-5.28-3.05a0.82 0.82 0 0 0-0.79-0.01zm34.15 4.7 4.57-2.64c0.19-0.11 0.18-0.3 0-0.42l-5.28-3.05a0.82 0.82 0 0 0-0.73 0l-4.57 2.64c-0.2 0.11-0.18 0.3 0 0.42l5.29 3.05a0.82 0.82 0 0 0 0.72 0.02zm58.68-58.29-4.58 2.64c-0.19 0.11-0.18 0.3 0 0.42l5.29 3a0.82 0.82 0 0 0 0.73 0l4.57-2.64c0.19-0.12 0.18-0.3 0-0.42l-5.29-3.06a0.79 0.79 0 0 0-0.72 0.03zm-8.09 4.67-4.57 2.64c-0.2 0.11-0.19 0.3 0 0.42l5.29 3.05a0.79 0.79 0 0 0 0.73 0l4.57-2.63c0.19-0.12 0.18-0.31 0-0.43l-5.28-3.07a0.82 0.82 0 0 0-0.74-0.01zm14.74-8.56-4.57 2.64c-0.2 0.11-0.19 0.3 0 0.42l5.29 3.05a0.82 0.82 0 0 0 0.73 0l4.57-2.64c0.19-0.11 0.18-0.3 0-0.42l-5.28-3.05a0.82 0.82 0 0 0-0.74 0zm-34.58 35.66 4.57-2.64c0.19-0.11 0.18-0.3 0-0.42l-5.28-3a0.82 0.82 0 0 0-0.73 0l-4.58 2.6c-0.19 0.12-0.18 0.3 0 0.42l5.29 3.06a0.82 0.82 0 0 0 0.76-0.02zm42-39.5a0.82 0.82 0 0 0-0.73 0l-4.57 2.64c-0.2 0.12-0.19 0.3 0 0.42l5.29 3.06a0.82 0.82 0 0 0 0.73 0l4.57-2.64c0.19-0.11 0.18-0.3 0-0.42zm-66.09 62.13 4.57-2.64c0.2-0.11 0.18-0.3 0-0.42l-5.29-3a0.82 0.82 0 0 0-0.73 0l-4.57 2.64c-0.2 0.12-0.18 0.3 0 0.42l5.28 3.06a0.82 0.82 0 0 0 0.76-0.06zm81.93-47.3 4.57-2.64c0.19-0.11 0.18-0.3 0-0.42l-5.28-3.05a0.82 0.82 0 0 0-0.73 0l-4.57 2.64c-0.2 0.11-0.18 0.3 0 0.42l5.29 3a0.79 0.79 0 0 0 0.74 0.05zm-14.23-0.5 4.57-2.64c0.19-0.11 0.18-0.3 0-0.42l-5.28-3.05a0.82 0.82 0 0 0-0.73 0l-4.59 2.62c-0.2 0.11-0.19 0.3 0 0.42l5.29 3a0.82 0.82 0 0 0 0.76 0.07zm5.94-10a0.82 0.82 0 0 0-0.73 0l-4.57 2.64c-0.2 0.12-0.19 0.3 0 0.42l5.29 3.06a0.82 0.82 0 0 0 0.73 0l4.57-2.64c0.19-0.11 0.18-0.3 0-0.42zm1.4-0.81 12.84 7.41a0.79 0.79 0 0 0 0.73 0l4.57-2.64c0.2-0.11 0.18-0.3 0-0.42l-12.84-7.41a0.79 0.79 0 0 0-0.73 0l-4.57 2.64c-0.2 0.14-0.18 0.33 0.02 0.45zm-15.47 8.52-4.57 2.64c-0.2 0.11-0.19 0.3 0 0.42l5.29 3.05a0.79 0.79 0 0 0 0.73 0l4.57-2.63c0.19-0.12 0.18-0.3 0-0.43l-5.29-3.05a0.82 0.82 0 0 0-0.73 0zm-50.29 29-4.61 2.69c-0.19 0.11-0.18 0.3 0 0.42l5.28 3.05a0.82 0.82 0 0 0 0.73 0l4.57-2.64c0.2-0.12 0.19-0.3 0-0.42l-5.29-3.06a0.82 0.82 0 0 0-0.68 0.01zm65.26-22.42a0.82 0.82 0 0 0 0.73 0l4.57-2.64c0.19-0.11 0.18-0.3 0-0.42l-5.28-3a0.79 0.79 0 0 0-0.73 0l-4.57 2.64c-0.2 0.11-0.19 0.3 0 0.42zm-58.58 18.56-4.57 2.64c-0.19 0.11-0.18 0.3 0 0.42l5.28 3.1a0.8 0.8 0 0 0 0.72 0l4.58-2.64c0.19-0.11 0.18-0.3 0-0.42l-5.3-3.03a0.82 0.82 0 0 0-0.71-0.02zm-50.07 44.17a0.82 0.82 0 0 0 0.73 0l4.57-2.64c0.19-0.11 0.18-0.3 0-0.42l-5.28-3.05a0.82 0.82 0 0 0-0.73 0l-4.57 2.64c-0.2 0.11-0.19 0.3 0 0.42zm-10.05-9.45-4.57 2.64c-0.2 0.11-0.19 0.3 0 0.42l5.29 3a0.79 0.79 0 0 0 0.73 0l4.57-2.64c0.19-0.11 0.18-0.3 0-0.42l-5.28-3.05a0.79 0.79 0 0 0-0.74 0.1zm17.46 5.61 4.57-2.64c0.19-0.11 0.18-0.3 0-0.42l-5.28-3a0.82 0.82 0 0 0-0.73 0l-4.6 2.59c-0.2 0.11-0.19 0.3 0 0.42l5.29 3.06a0.82 0.82 0 0 0 0.75 0.04zm6.68-3.86 4.57-2.64c0.19-0.11 0.18-0.3 0-0.42l-5.28-3.05a0.79 0.79 0 0 0-0.73 0l-4.57 2.64c-0.2 0.11-0.19 0.3 0 0.42l5.29 3a0.79 0.79 0 0 0 0.72 0.1zm6.68-3.85 4.57-2.64c0.19-0.12 0.18-0.3 0-0.42l-5.28-3.06a0.82 0.82 0 0 0-0.73 0l-4.55 2.68c-0.2 0.11-0.19 0.3 0 0.42l5.29 3.05a0.82 0.82 0 0 0 0.71 0.02zm-24.14-1.76-4.57 2.64c-0.2 0.11-0.19 0.3 0 0.42l5.29 3.05a0.82 0.82 0 0 0 0.73 0l4.57-2.64c0.19-0.12 0.18-0.3 0-0.42l-5.28-3.06a0.82 0.82 0 0 0-0.74 0.06zm6.68-3.86-4.53 2.69c-0.2 0.11-0.19 0.3 0 0.42l5.29 3.05a0.82 0.82 0 0 0 0.73 0l4.57-2.64c0.19-0.11 0.18-0.3 0-0.42l-5.28-3.05a0.82 0.82 0 0 0-0.78 0zm26.72-15.43-4.57 2.64c-0.19 0.11-0.18 0.3 0 0.42l5.28 3.05a0.79 0.79 0 0 0 0.73 0l4.57-2.64c0.2-0.11 0.19-0.3 0-0.42l-5.26-2.98a0.82 0.82 0 0 0-0.75-0.02zm-6.68 3.86-4.57 2.69c-0.19 0.11-0.18 0.3 0 0.42l5.28 3.05a0.82 0.82 0 0 0 0.73 0l4.57-2.64c0.2-0.11 0.19-0.3 0-0.42l-5.29-3.05a0.79 0.79 0 0 0-0.72 0zm13.36-7.71-4.57 2.63c-0.19 0.12-0.18 0.31 0 0.43l5.28 3a0.82 0.82 0 0 0 0.73 0l4.57-2.64c0.2-0.11 0.19-0.3 0-0.42l-5.29-3.05a0.79 0.79 0 0 0-0.72 0.1zm-26.72 15.42-4.57 2.72c-0.2 0.12-0.18 0.3 0 0.42l5.29 3.06a0.82 0.82 0 0 0 0.73 0l4.57-2.64c0.19-0.11 0.18-0.3 0-0.42l-5.28-3a0.82 0.82 0 0 0-0.74-0.09zm6.68-3.85-4.57 2.64c-0.19 0.11-0.18 0.3 0 0.42l5.28 3a0.79 0.79 0 0 0 0.73 0l4.57-2.63c0.2-0.12 0.18-0.31 0-0.43l-5.29-3.05a0.82 0.82 0 0 0-0.72 0.1zm-4.89 27.28 4.57-2.64c0.2-0.11 0.19-0.3 0-0.42l-5.29-3a0.79 0.79 0 0 0-0.73 0l-4.55 2.57c-0.19 0.11-0.18 0.3 0 0.42l5.28 3.05a0.82 0.82 0 0 0 0.72 0.02zm-39.2-4-5.29-3.05a0.82 0.82 0 0 0-0.73 0l-4.57 2.64c-0.19 0.11-0.18 0.3 0 0.42l5.28 3.05a0.82 0.82 0 0 0 0.73 0l4.57-2.64c0.21-0.07 0.21-0.26 0.02-0.38zm10 2.94-5.29-3.05a0.8 0.8 0 0 0-0.72 0l-7 4.06c-0.19 0.11-0.18 0.3 0 0.42l5.28 3a0.82 0.82 0 0 0 0.73 0l7-4.06c0.2-0.02 0.2-0.21 0.02-0.33zm-18.12-8.84-5.29-3.05a0.82 0.82 0 0 0-0.73 0l-5.6 3.24c-0.2 0.11-0.19 0.3 0 0.42l5.29 3.05a0.82 0.82 0 0 0 0.73 0l5.62-3.25c0.22-0.06 0.21-0.22 0-0.37zm4.31-2.49a0.79 0.79 0 0 0 0.73 0l4.57-2.64c0.2-0.11 0.18-0.3 0-0.42l-5.29-3a0.82 0.82 0 0 0-0.73 0l-4.57 2.64c-0.19 0.11-0.18 0.3 0 0.42zm23.14 14.68-5.29-3a0.79 0.79 0 0 0-0.73 0l-8.79 5c-0.19 0.11-0.18 0.3 0 0.42l5.29 3.05a0.8 0.8 0 0 0 0.72 0l8.8-5.08c0.22-0.05 0.21-0.24 0-0.39zm4.39 6.19-5.29-3.05a0.82 0.82 0 0 0-0.73 0l-5.63 3.25c-0.19 0.11-0.18 0.3 0 0.42l5.29 3.05a0.82 0.82 0 0 0 0.73 0l5.62-3.25c0.23-0.08 0.21-0.27 0.01-0.39zm22.16-49.54a0.82 0.82 0 0 0 0.73 0l4.57-2.64c0.2-0.12 0.19-0.3 0-0.42l-5.29-3.06a0.82 0.82 0 0 0-0.73 0l-4.57 2.64c-0.19 0.11-0.18 0.3 0 0.42zm-13.36 7.71a0.79 0.79 0 0 0 0.73 0l4.57-2.64c0.2-0.11 0.19-0.3 0-0.42l-5.29-3.05a0.82 0.82 0 0 0-0.73 0l-4.6 2.67c-0.19 0.11-0.18 0.3 0 0.42zm-29.63 17.14a0.82 0.82 0 0 0 0.73 0l4.57-2.64c0.2-0.11 0.19-0.3 0-0.42l-5.29-3.06a0.82 0.82 0 0 0-0.73 0l-4.59 2.62c-0.19 0.11-0.18 0.3 0 0.42zm36.31-21a0.82 0.82 0 0 0 0.73 0l4.57-2.64c0.2-0.11 0.19-0.3 0-0.42l-5.3-3a0.79 0.79 0 0 0-0.73 0l-4.57 2.63c-0.19 0.12-0.18 0.31 0 0.43zm-13.36 7.71a0.82 0.82 0 0 0 0.73 0l4.57-2.64c0.2-0.11 0.18-0.3 0-0.42l-5.29-3.06a0.82 0.82 0 0 0-0.73 0l-4.57 2.64c-0.19 0.11-0.18 0.3 0 0.42zm1.55 38.46a0.82 0.82 0 0 0-0.73 0l-7 4.06c-0.2 0.11-0.19 0.3 0 0.42l5.29 3.05a0.82 0.82 0 0 0 0.73 0l7-4.06c0.19-0.11 0.18-0.3 0-0.42zm-11.14-32.92a0.82 0.82 0 0 0 0.73 0l4.57-2.64c0.2-0.11 0.19-0.3 0-0.42l-5.35-3a0.79 0.79 0 0 0-0.73 0l-4.57 2.63c-0.19 0.12-0.18 0.3 0 0.43zm-6.68 3.85a0.82 0.82 0 0 0 0.73 0l4.57-2.64c0.2-0.11 0.19-0.3 0-0.42l-5.29-3.05a0.82 0.82 0 0 0-0.73 0l-4.57 2.64c-0.19 0.11-0.18 0.3 0 0.42zm141.63-42.35a0.82 0.82 0 0 0-0.73 0l-11.27 6.49c-0.2 0.11-0.18 0.3 0 0.42l5.29 3a0.79 0.79 0 0 0 0.73 0l11.25-6.49c0.2-0.11 0.18-0.3 0-0.42zm-14.77 8.53a0.79 0.79 0 0 0-0.73 0l-4.57 2.64c-0.19 0.11-0.18 0.3 0 0.42l5.28 3.05a0.79 0.79 0 0 0 0.73 0l4.57-2.64c0.2-0.11 0.19-0.3 0-0.42zm-90.5 50.07 4.58-2.64c0.19-0.11 0.18-0.3 0-0.42l-5.31-3.05a0.82 0.82 0 0 0-0.73 0l-4.57 2.64c-0.19 0.11-0.18 0.3 0 0.42l5.28 3.06a0.82 0.82 0 0 0 0.71-0.01zm77.14-42.35a0.82 0.82 0 0 0-0.73 0l-4.57 2.64c-0.2 0.11-0.18 0.3 0 0.42l5.28 3a0.82 0.82 0 0 0 0.73 0l4.57-2.64c0.2-0.11 0.18-0.3 0-0.42zm34.81-20.1a0.82 0.82 0 0 0-0.73 0l-4.61 2.6c-0.19 0.11-0.18 0.3 0 0.42l5.28 3.05a0.82 0.82 0 0 0 0.73 0l4.57-2.64c0.2-0.11 0.18-0.3 0-0.42zm12-0.81-12.84-7.41a0.79 0.79 0 0 0-0.73 0l-4.57 2.63c-0.19 0.12-0.18 0.31 0 0.43l12.83 7.41a0.82 0.82 0 0 0 0.73 0l4.57-2.64c0.16-0.11 0.15-0.3-0.06-0.42zm-71.75 35.32a0.8 0.8 0 0 0-0.72 0l-5.63 3.25c-0.2 0.11-0.18 0.3 0 0.42l5.29 3.05a0.79 0.79 0 0 0 0.73 0l5.63-3.25c0.19-0.11 0.18-0.3 0-0.42zm16.88-9.75a0.82 0.82 0 0 0-0.73 0l-7 4.06c-0.19 0.11-0.18 0.3 0 0.42l5.28 3.05a0.82 0.82 0 0 0 0.73 0l7-4.06c0.2-0.11 0.19-0.3 0-0.42zm-32.35 18.68a0.79 0.79 0 0 0-0.73 0l-37.73 21.71c-0.19 0.11-0.18 0.3 0 0.42l5.28 3a0.82 0.82 0 0 0 0.73 0l37.62-21.73c0.2-0.11 0.19-0.3 0-0.42zm-39.73 22.94a0.79 0.79 0 0 0-0.73 0l-5.7 3.22c-0.19 0.11-0.18 0.3 0 0.42l5.29 3.05a0.79 0.79 0 0 0 0.72 0l5.63-3.25c0.19-0.11 0.18-0.3 0-0.42zm47.47-27.4a0.79 0.79 0 0 0-0.73 0l-5.63 3.25c-0.19 0.11-0.18 0.3 0 0.42l5.28 3.05a0.82 0.82 0 0 0 0.73 0l5.63-3.25c0.19-0.11 0.18-0.3 0-0.42zm-55.21 31.87a0.82 0.82 0 0 0-0.73 0l-5.62 3.25c-0.2 0.11-0.18 0.3 0 0.42l5.29 3.05a0.82 0.82 0 0 0 0.73 0l5.62-3.25c0.2-0.11 0.19-0.3 0-0.42zm70.68-40.81a0.82 0.82 0 0 0-0.73 0l-5.63 3.25c-0.19 0.11-0.18 0.3 0 0.42l5.29 3a0.79 0.79 0 0 0 0.73 0l5.62-3.24c0.2-0.12 0.18-0.31 0-0.43zm23.91-13.8a0.82 0.82 0 0 0-0.73 0l-4.57 2.64c-0.19 0.11-0.18 0.3 0 0.42l5.28 3.06a0.82 0.82 0 0 0 0.73 0l4.57-2.64c0.2-0.11 0.18-0.3 0-0.42zm14.57-10.64 4.57-2.64c0.19-0.11 0.18-0.3 0-0.42l-5.28-3.05a0.79 0.79 0 0 0-0.73 0l-4.57 2.64c-0.2 0.11-0.18 0.3 0 0.42l5.29 3.05a0.82 0.82 0 0 0 0.72 0zm-29.87-0.2 4.57-2.63c0.19-0.12 0.18-0.31 0-0.43l-5.28-3.05a0.79 0.79 0 0 0-0.73 0l-4.57 2.64c-0.2 0.11-0.18 0.3 0 0.42l5.29 3.05a0.79 0.79 0 0 0 0.72 0.01zm-15.14 26.2 13.36-7.71c0.2-0.11 0.19-0.3 0-0.42l-5.29-3.05a0.82 0.82 0 0 0-0.73 0l-13.38 7.68c-0.19 0.12-0.18 0.31 0 0.43l5.28 3.05a0.82 0.82 0 0 0 0.76 0.02zm37.6-22.14a0.79 0.79 0 0 0 0.73 0l4.57-2.63c0.19-0.12 0.18-0.31 0-0.43l-5.28-3.05a0.82 0.82 0 0 0-0.73 0l-4.57 2.64c-0.2 0.11-0.19 0.3 0 0.42zm-6.82-4.35 4.57-2.63c0.19-0.12 0.18-0.31 0-0.43l-5.28-3.05a0.82 0.82 0 0 0-0.73 0l-4.6 2.6c-0.2 0.11-0.19 0.3 0 0.42l5.29 3.05a0.79 0.79 0 0 0 0.75 0.03zm-37.46 30.35 4.57-2.64c0.2-0.11 0.18-0.3 0-0.42l-5.29-3.05a0.82 0.82 0 0 0-0.73 0l-4.57 2.64c-0.2 0.11-0.18 0.3 0 0.42l5.28 3.05a0.82 0.82 0 0 0 0.74-0.01zm29.54-17.48a0.82 0.82 0 0 0 0.73 0l4.57-2.64c0.2-0.11 0.18-0.3 0-0.42l-5.3-3.04a0.82 0.82 0 0 0-0.73 0l-4.57 2.64c-0.2 0.12-0.18 0.3 0 0.42zm-62.91 36.76 4.57-2.64c0.19-0.12 0.18-0.3 0-0.42l-5.34-3.08a0.82 0.82 0 0 0-0.73 0l-4.59 2.65c-0.2 0.11-0.19 0.3 0 0.42l5.29 3.05a0.82 0.82 0 0 0 0.77 0.02zm6.68-3.86 4.57-2.64c0.19-0.11 0.18-0.3 0-0.42l-5.34-3.05a0.82 0.82 0 0 0-0.73 0l-4.57 2.64c-0.2 0.11-0.19 0.3 0 0.42l5.29 3.05a0.82 0.82 0 0 0 0.75 0zm-13.4 7.72 4.58-2.64c0.19-0.11 0.18-0.3 0-0.42l-5.29-3.05a0.79 0.79 0 0 0-0.73 0l-4.57 2.64c-0.19 0.11-0.18 0.3 0 0.42l5.29 3.05a0.79 0.79 0 0 0 0.72 0zm26.73-15.43 4.57-2.63c0.19-0.12 0.18-0.31 0-0.43l-5.28-3.05a0.82 0.82 0 0 0-0.73 0l-4.57 2.64c-0.2 0.11-0.19 0.3 0 0.42l5.29 3.05a0.79 0.79 0 0 0 0.72-0.01zm-6.68 3.86 4.57-2.64c0.19-0.11 0.18-0.3 0-0.42l-5.28-3.05a0.82 0.82 0 0 0-0.73 0l-4.57 2.64c-0.2 0.12-0.19 0.3 0 0.42l5.29 3.06a0.82 0.82 0 0 0 0.72-0.02zm13.36-7.71 4.57-2.64c0.19-0.11 0.18-0.3 0-0.42l-5.28-3a0.79 0.79 0 0 0-0.73 0l-4.57 2.64c-0.2 0.11-0.18 0.3 0 0.42l5.29 3.05a0.82 0.82 0 0 0 0.72-0.06zm30.56-57.06a0.82 0.82 0 0 0 0.73 0l4.57-2.64c0.2-0.11 0.19-0.3 0-0.42l-1.41-0.81a0.82 0.82 0 0 0-0.73 0l-4.57 2.64c-0.19 0.11-0.18 0.3 0 0.42zm-32.87 21.21a0.82 0.82 0 0 0 0.73 0l4.57-2.64c0.2-0.11 0.19-0.3 0-0.42l-5.29-3.05a0.82 0.82 0 0 0-0.73 0l-4.57 2.64c-0.19 0.11-0.18 0.3 0 0.42zm13.36-7.71a0.79 0.79 0 0 0 0.73 0l4.57-2.64c0.2-0.11 0.19-0.3 0-0.42l-5.29-3.05a0.79 0.79 0 0 0-0.73 0l-4.57 2.64c-0.19 0.11-0.18 0.3 0 0.42zm-21.52 12.42a0.82 0.82 0 0 0 0.73 0l4.58-2.64c0.19-0.11 0.18-0.3 0-0.42l-5.29-3a0.82 0.82 0 0 0-0.73 0l-4.6 2.58c-0.19 0.11-0.18 0.3 0 0.42zm14.84-8.58a0.82 0.82 0 0 0 0.73 0l4.57-2.64c0.2-0.11 0.19-0.3 0-0.42l-5.29-3a0.82 0.82 0 0 0-0.73 0l-4.57 2.64c-0.19 0.12-0.18 0.3 0 0.42zm-28.15 16.29a0.82 0.82 0 0 0 0.73 0l4.57-2.64c0.2-0.11 0.19-0.3 0-0.42l-5.29-3.05a0.79 0.79 0 0 0-0.73 0l-4.57 2.63c-0.19 0.12-0.18 0.31 0 0.43zm6.68-3.86a0.82 0.82 0 0 0 0.73 0l4.57-2.64c0.2-0.12 0.19-0.3 0-0.42l-5.29-3.06a0.82 0.82 0 0 0-0.73 0l-4.64 2.69c-0.19 0.11-0.18 0.3 0 0.42zm34.32-22.07a0.79 0.79 0 0 0 0.73 0l4.57-2.63c0.2-0.12 0.19-0.3 0-0.43l-1.41-0.81a0.82 0.82 0 0 0-0.73 0l-4.57 2.64c-0.19 0.11-0.18 0.3 0 0.42zm20-11.57a0.79 0.79 0 0 0 0.73 0l4.58-2.64c0.19-0.11 0.18-0.3 0-0.42l-1.41-0.81a0.79 0.79 0 0 0-0.73 0l-4.57 2.63c-0.19 0.12-0.18 0.31 0 0.43zm11.11 6.41a0.79 0.79 0 0 0 0.73 0l4.57-2.64c0.19-0.11 0.18-0.3 0-0.42l-5.28-3a0.79 0.79 0 0 0-0.73 0l-4.57 2.64c-0.2 0.11-0.19 0.3 0 0.42zm16.7 16.95 4.57-2.64c0.2-0.11 0.18-0.3 0-0.42l-5.29-3a0.82 0.82 0 0 0-0.73 0l-4.57 2.64c-0.2 0.11-0.18 0.3 0 0.42l5.28 3.05a0.79 0.79 0 0 0 0.76-0.05zm-41.15-15.65a0.82 0.82 0 0 0 0.73 0l4.57-2.64c0.2-0.11 0.19-0.3 0-0.42l-1.41-0.81a0.79 0.79 0 0 0-0.73 0l-4.57 2.64c-0.19 0.11-0.18 0.3 0 0.42zm-54.39 33.64a0.82 0.82 0 0 0 0.73 0l4.57-2.64c0.2-0.11 0.19-0.3 0-0.42l-5.29-3.05a0.82 0.82 0 0 0-0.73 0l-4.55 2.64c-0.19 0.11-0.18 0.3 0 0.42z" fill="#263238"/><path d="m215.9 357.25 45.1-26.05a5.46 5.46 0 0 1 4.92 0l25.87 14.94c1.36 0.78 1.36 2.05 0 2.84l-45.11 26a5.4 5.4 0 0 1-4.92 0l-25.86-14.89c-1.36-0.79-1.36-2.09 0-2.84z" opacity=".3"/><path d="m67.19 340.88a6 6 0 0 0 1.26 0.54 5.48 5.48 0 0 1-1.26-0.53 2.59 2.59 0 0 1-0.39-0.25 3.68 3.68 0 0 0 0.39 0.24z" fill="#6da5ea"/><path d="m236.49 105c-0.29-2.12-2-2.9-4.07-1.7l-157.28 90.79a8.28 8.28 0 0 0-2.9 3l-7.7-4.43a8.39 8.39 0 0 1 2.9-3.06l157.29-90.77a7.68 7.68 0 0 1 11.76 6.17z" opacity=".3"/><path d="m74.37 341.27a0.13 0.13 0 0 1 0.06 0z" fill="#6da5ea"/><path d="m359.69 323.12a8.82 8.82 0 0 1-4.1 6.81l-157.29 90.81a8.43 8.43 0 0 1-4.11 1v-8.87a8.44 8.44 0 0 0 4.11-1l157.29-90.87c2.11-1.23 2.25-3.15 0.41-4.47a8.84 8.84 0 0 1 3.69 6.59z" opacity=".5"/><path d="m460.37 245.36-18.37-10.6c-0.41-0.22-1-0.07-1.72 0.48-0.38 0.28-0.76 0.56-1.14 0.82l-0.43 0.27c-0.25 0.16-0.5 0.33-0.76 0.48s-0.36 0.2-0.54 0.31l-0.67 0.37-0.62 0.31-0.62 0.3-0.69 0.29c-0.19 0.08-0.38 0.17-0.58 0.24l-0.75 0.28-0.53 0.19-0.81 0.25-0.48 0.14-0.87 0.22-0.44 0.1c-0.3 0.07-0.61 0.13-0.92 0.18l-0.38 0.07-1 0.14h-0.33c-0.34 0-0.69 0.07-1 0.09h-1.57-1.11-0.17c-0.38 0-0.77 0-1.15-0.08h-0.11l-1.19-0.16h-0.06l-0.55-0.11-11.4-6.58c-0.84-0.47-1.61-0.13-2.11 1.1-6.62 16.44-20.72 33.11-30.12 37.28a4 4 0 0 0-0.54 0.28 3.15 3.15 0 0 0-0.33 0.22l-0.15 0.1-0.41 0.35c-0.14 0.13-0.27 0.27-0.4 0.41a4 4 0 0 0-1.05 2.68l1.36 16.7c0 10.77 4.58 22.13 13.93 27.56l18.38 10.59 0.13 0.07a25.86 25.86 0 0 0 15.59 3.05 10.11 10.11 0 0 0 5.35-2.68c20.56-21.23 30.55-50 30.55-65.86l1.36-18.4c-0.01-0.73-0.22-1.24-0.58-1.45z" fill="#6da5ea"/><path d="m427.64 243.93a1.18 1.18 0 0 0-1.17 0.06l-0.2 0.15a2.43 2.43 0 0 0-0.31 0.38 3.9 3.9 0 0 0-0.26 0.54 82.6 82.6 0 0 1-6.19 12.18 97.84 97.84 0 0 1-6.83 9.83c-1.2 1.5-2.4 2.93-3.61 4.27a0.1 0.1 0 0 1 0 0.05l-1 1.11c-0.35 0.35-0.68 0.71-1 1.05-0.17 0.19-0.34 0.37-0.52 0.54-3.86 3.88-7.64 6.78-10.87 8.21a5.23 5.23 0 0 0-1.49 1l-0.37 0.37a0.71 0.71 0 0 1-0.07 0.09l0.07-0.09-18.36-10.58a0.2 0.2 0 0 1 0.06-0.07 0.79 0.79 0 0 1 0.12-0.15l0.11-0.1a0.94 0.94 0 0 1 0.1-0.1l0.11-0.1a3.48 3.48 0 0 1 0.3-0.26l0.15-0.1c0.11-0.07 0.22-0.16 0.33-0.22a3.08 3.08 0 0 1 0.54-0.28c9.4-4.17 23.51-20.84 30.12-37.28 0.36-0.88 0.85-1.31 1.41-1.31a1.4 1.4 0 0 1 0.7 0.22l11.29 6.66z" fill="#fff" opacity=".4"/><path d="m460.37 245.36-18.37-10.6c-0.4-0.21-1-0.06-1.71 0.48-0.37 0.29-0.76 0.57-1.15 0.83l-0.42 0.27c-0.25 0.16-0.5 0.33-0.76 0.48s-0.36 0.2-0.54 0.31l-0.67 0.37c-0.2 0.11-0.41 0.2-0.62 0.3l-0.62 0.31-0.7 0.29c-0.18 0.09-0.38 0.17-0.57 0.25l-0.75 0.27-0.53 0.19-0.82 0.25-0.48 0.14-0.86 0.22-0.43 0.1-0.93 0.18-0.39 0.07c-0.32 0.06-0.64 0.1-1 0.14h-0.33l-1 0.1h-0.27-1.08-0.21-1.12-0.16c-0.39 0-0.78-0.05-1.16-0.08h-0.11c-0.4 0-0.8-0.09-1.18-0.15h-0.06a3.26 3.26 0 0 1-0.55-0.12l6.84 3.94 0.12 0.07a2.67 2.67 0 0 1 0.68 0.61 0.86 0.86 0 0 1 0.13 0.14c7 8.18 20.84 8.17 30.07 1.11 0.7-0.53 1.28-0.7 1.67-0.52h0.06a0.9 0.9 0 0 1 0.39 0.48 0.91 0.91 0 0 0-0.41-0.43z" opacity=".1"/><path d="m407.68 330.58-18.13-10.44c-9.34-5.44-13.93-16.8-13.93-27.57l-1.36-16.7a4.22 4.22 0 0 1 1.68-3.3 5.26 5.26 0 0 0-0.63 0.62l18.37 10.58a3.92 3.92 0 0 0-1 2.69l1.35 16.7c-0.03 10.67 4.47 21.93 13.65 27.42z" opacity=".2"/><path d="m460.91 246.91-1.36 18.4c0 15.9-10 44.63-30.54 65.86a10 10 0 0 1-5.37 2.67 25.77 25.77 0 0 1-15.58-3l-0.13-0.07-0.24-0.15c-9.19-5.49-13.7-16.74-13.7-27.42l-1.35-16.7a3.94 3.94 0 0 1 1-2.68 4.25 4.25 0 0 1 0.36-0.37 5.17 5.17 0 0 1 1.49-1c3.24-1.44 7-4.34 10.88-8.21l0.52-0.54 1-1.06 1-1.11c1.22-1.35 2.42-2.78 3.62-4.28a98.35 98.35 0 0 0 6.83-9.83 82.43 82.43 0 0 0 6.18-12.17 5.67 5.67 0 0 1 0.27-0.55 2.33 2.33 0 0 1 0.31-0.37 1.3 1.3 0 0 1 0.2-0.15 1.12 1.12 0 0 1 1.16-0.06l0.13 0.06a2.52 2.52 0 0 1 0.68 0.61l0.13 0.15c7 8.17 20.84 8.16 30.07 1.11 0.69-0.53 1.28-0.7 1.67-0.53h0.05a0.53 0.53 0 0 1 0.23 0.19 1.92 1.92 0 0 1 0.49 1.2z" fill="#6da5ea"/><path d="m432.11 307.26-10.94 6.31 1.69-19.79c-1.31-0.69-2.14-2.4-2.14-4.84 0-4.36 2.65-9.42 5.92-11.31s5.92 0.11 5.92 4.47a15 15 0 0 1-2.14 7.32z" fill="#455a64"/><g fill="#37474f"><polygon points="422.2 301.53 421.17 313.57 432.11 307.26"/><path d="m426.64 277.63a12.89 12.89 0 0 0-5.05 6.7l8.83 5.09a15 15 0 0 0 2.14-7.32c0-4.36-2.65-6.36-5.92-4.47z"/><path d="m440.4 198.69c-3-1.76-6.86-1.56-10.49 0.53l-28.75 16.61a21.89 21.89 0 0 0-10.16 17.65v35.22a2.52 2.52 0 0 0 1.49 2.07 8 8 0 0 0 7.18 0 2.52 2.52 0 0 0 1.49-2.07v-35.22a11.85 11.85 0 0 1 5.11-8.85l28.73-16.63v35.25a2.52 2.52 0 0 0 1.5 2.07 7.94 7.94 0 0 0 7.17 0 2.52 2.52 0 0 0 1.49-2.07v-35.25c0.02-4.15-1.72-7.56-4.76-9.31z"/></g><path d="m435 208v35.22a2.52 2.52 0 0 0 1.5 2.07 5.79 5.79 0 0 0 1.49 0.59v-39.6z" fill="#263238"/></g></svg>
