<svg width="240" height="240" version="1.1" viewBox="0 0 240 240" xmlns="http://www.w3.org/2000/svg"><g transform="matrix(.58826 0 0 .58826 -30.386 -29.388)"><g opacity=".3"><ellipse cx="402.11" cy="373.46" rx="57.53" ry="33.22"/><path d="m196.14 445.23-142.73-82.4c-2.34-1.35-2.34-3.54 0-4.9l206.34-119.12a9.32 9.32 0 0 1 8.48 0l142.69 82.38c2.34 1.35 2.34 3.54 0 4.89l-206.3 119.15a9.38 9.38 0 0 1-8.48 0z"/></g><path d="m62.22 351.49a9.93 9.93 0 0 0 4.62 7.68l129.49 74.76a10.25 10.25 0 0 0 9.25 0l191.91-110.79a8.69 8.69 0 0 0 0-15.35l-129.49-74.79a10.19 10.19 0 0 0-9.25 0l-191.91 110.82a9.91 9.91 0 0 0-4.62 7.67z" fill="#37474f"/><path d="m201 425v10a9.37 9.37 0 0 1-4.62-1.1l-129.54-74.73a8.66 8.66 0 0 1-0.47-15.05c-2.07 1.48-1.91 3.66 0.47 5l129.5 74.77a9.37 9.37 0 0 0 4.66 1.11z" fill="#263238"/><path d="m57.88 344a9.91 9.91 0 0 1-4.33-7.84v-154.55a10.22 10.22 0 0 1 4.62-8l191.91-110.79a9.94 9.94 0 0 1 9-0.17 9.94 9.94 0 0 1 4.33 7.84v154.51a10.21 10.21 0 0 1-4.62 8l-191.95 110.82a9.93 9.93 0 0 1-8.96 0.18z" fill="#455a64"/><path d="m66.3 344.1a10 10 0 0 1-8.42-0.12 9.91 9.91 0 0 1-4.33-7.84v-154.53a9.28 9.28 0 0 1 1.36-4.55l8.66 5a9.47 9.47 0 0 0-1.35 4.54v154.55c0 2.73 1.78 3.96 4.08 2.95z" fill="#263238"/><path d="m62.22 186.62v154.53c0 3 2.07 4.14 4.62 2.67l191.91-110.82a10.21 10.21 0 0 0 4.62-8v-154.51c0-2.94-2.06-4.14-4.62-2.66l-191.91 110.78a10.24 10.24 0 0 0-4.62 8.01z" fill="#37474f"/><path d="m66.84 349.15 129.49 74.77a10.25 10.25 0 0 0 9.25 0l191.91-110.79c2.55-1.48 2.55-3.87 0-5.34l-129.49-74.79a10.19 10.19 0 0 0-9.25 0l-191.91 110.82c-2.55 1.47-2.55 3.86 0 5.33z" fill="#455a64"/><path d="m69.33 184.55 185.55-107.1c1.53-0.88 2.78-0.16 2.78 1.61v142.57a6.13 6.13 0 0 1-2.78 4.8l-185.55 107.1c-1.53 0.88-2.78 0.16-2.78-1.61v-142.57a6.13 6.13 0 0 1 2.78-4.8z" fill="#6da5ea"/><path d="m69.33 184.55 185.55-107.1c1.53-0.88 2.78-0.16 2.78 1.61v142.57a6.13 6.13 0 0 1-2.78 4.8l-185.55 107.1c-1.53 0.88-2.78 0.16-2.78-1.61v-142.57a6.13 6.13 0 0 1 2.78-4.8z" opacity=".4"/><path d="m81.87 345.15 179.2-103.44a5.08 5.08 0 0 1 4.62 0l8.41 4.85c1.27 0.74 1.27 1.93 0 2.67l-179.22 103.43a5.08 5.08 0 0 1-4.62 0l-8.39-4.84c-1.27-0.74-1.27-1.93 0-2.67z" fill="#37474f"/><path d="m103.55 357.67 179.19-103.45a5.08 5.08 0 0 1 4.62 0l51.74 29.87c1.28 0.74 1.28 1.94 0 2.67l-179 103.32a5.14 5.14 0 0 1-4.63 0l-51.91-29.75c-1.28-0.73-1.29-1.93-0.01-2.66z" fill="#263238"/><path d="m261 298.21 5.64-3.26c0.24-0.14 0.25-0.36 0-0.5l-5.92-3.45a1 1 0 0 0-0.86 0l-5.65 3.26c-0.23 0.14-0.24 0.36 0 0.49l6 3.44a1 1 0 0 0 0.79 0.02zm-9.67-12.1-5.64 3.26a0.26 0.26 0 0 0 0 0.49l6 3.44a1 1 0 0 0 0.86 0l5.65-3.26a0.26 0.26 0 0 0 0-0.5l-6-3.44a1 1 0 0 0-0.85 0.01zm-18.23 10.52-9.54 5.51c-0.24 0.14-0.25 0.37 0 0.5l6 3.44a1 1 0 0 0 0.86 0l9.55-5.51c0.24-0.14 0.24-0.36 0-0.5l-6-3.43a0.93 0.93 0 0 0-0.85-0.01zm10-5.76-5.65 3.26c-0.24 0.14-0.24 0.36 0 0.49l6 3.44a1 1 0 0 0 0.86 0l5.64-3.26c0.24-0.14 0.24-0.36 0-0.5l-6-3.44a0.94 0.94 0 0 0-0.84 0.01zm-22.1 12.78-5.64 3.25c-0.24 0.14-0.24 0.37 0 0.5l6 3.44a1 1 0 0 0 0.86 0l5.64-3.25c0.24-0.14 0.24-0.36 0-0.5l-6-3.44a1 1 0 0 0-0.86 0zm-8.24 4.76-5.65 3.26a0.26 0.26 0 0 0 0 0.49l5.89 3.44a0.93 0.93 0 0 0 0.86 0l5.64-3.25c0.24-0.14 0.24-0.36 0-0.5l-5.95-3.44a1 1 0 0 0-0.82 0zm23.38 14 5.64-3.26c0.24-0.14 0.24-0.36 0-0.49l-5.95-3.44a1 1 0 0 0-0.86 0l-5.65 3.26a0.26 0.26 0 0 0 0 0.5l5.95 3.44a1 1 0 0 0 0.84-0.01zm-8.25 4.76 5.65-3.26c0.24-0.14 0.24-0.36 0-0.49l-5.98-3.42a1 1 0 0 0-0.86 0l-5.64 3.26c-0.24 0.14-0.24 0.36 0 0.5l5.95 3.44a1 1 0 0 0 0.85-0.03zm-8.24 4.76 5.64-3.26a0.26 0.26 0 0 0 0-0.49l-6-3.44a0.93 0.93 0 0 0-0.86 0l-5.62 3.26c-0.24 0.14-0.24 0.36 0 0.5l6 3.44a1 1 0 0 0 0.81-0.01zm-8.25 4.76 5.64-3.26c0.24-0.13 0.25-0.36 0-0.49l-6-3.44a1 1 0 0 0-0.86 0l-5.64 3.25c-0.24 0.14-0.25 0.36 0 0.5l5.95 3.44a1 1 0 0 0 0.88 0zm41.37-33.69 5.65-3.26a0.26 0.26 0 0 0 0-0.5l-6-3.43a0.93 0.93 0 0 0-0.86 0l-5.56 3.19c-0.24 0.14-0.24 0.36 0 0.49l5.95 3.44a1 1 0 0 0 0.82 0.07zm-8.41 14.68 12.58-7.27c0.24-0.14 0.24-0.36 0-0.49l-14.46-8.35a1 1 0 0 0-0.86 0l-6.51 3.76c-0.24 0.14-0.24 0.36 0 0.5l7.66 4.42a0.26 0.26 0 0 1 0 0.49l-5.21 3c-0.24 0.14-0.24 0.36 0 0.5l6 3.43a0.93 0.93 0 0 0 0.8-0.02zm-39.88-4.48-5.64 3.26a0.26 0.26 0 0 0 0 0.49l5.95 3.44a1 1 0 0 0 0.86 0l5.65-3.26a0.26 0.26 0 0 0 0-0.5l-5.95-3.44a1 1 0 0 0-0.87-0.02zm-8.24 4.76-5.65 3.26c-0.24 0.14-0.24 0.36 0 0.49l6 3.44a1 1 0 0 0 0.86 0l5.64-3.26c0.24-0.14 0.24-0.36 0-0.5l-6-3.44a0.94 0.94 0 0 0-0.85-0.02zm-43.45 52.04a1 1 0 0 0 0.86 0l5.64-3.26c0.24-0.14 0.25-0.36 0-0.5l-6-3.43a0.93 0.93 0 0 0-0.86 0l-5.64 3.26c-0.24 0.14-0.25 0.36 0 0.49zm-22.52-14-5.64 3.25c-0.24 0.14-0.25 0.36 0 0.5l5.95 3.44a1 1 0 0 0 0.86 0l5.64-3.26c0.24-0.13 0.25-0.36 0-0.49l-6-3.44a0.93 0.93 0 0 0-0.81 0zm11.85 10.34a0.93 0.93 0 0 0 0.86 0l5.64-3.26c0.24-0.14 0.24-0.36 0-0.49l-6-3.44a0.93 0.93 0 0 0-0.86 0l-5.64 3.26c-0.24 0.14-0.24 0.36 0 0.5zm24.38 6.06 5.64-3.26a0.26 0.26 0 0 0 0-0.49l-6-3.44a1 1 0 0 0-0.86 0l-5.64 3.25c-0.24 0.14-0.24 0.36 0 0.5l6 3.44a1 1 0 0 0 0.86 0.02zm-9.11 4.77a1 1 0 0 0 0.86 0l5.64-3.26c0.24-0.13 0.25-0.36 0-0.49l-5.89-3.42a1 1 0 0 0-0.86 0l-5.64 3.25c-0.24 0.14-0.25 0.36 0 0.5zm-18.87-25.94-5.65 3.26a0.26 0.26 0 0 0 0 0.5l5.95 3.44a1 1 0 0 0 0.86 0l5.64-3.26c0.24-0.14 0.24-0.36 0-0.49l-6-3.44a0.94 0.94 0 0 0-0.8 0.01zm41.22-23.8-5.64 3.26c-0.24 0.14-0.24 0.36 0 0.49l6 3.44a0.93 0.93 0 0 0 0.86 0l5.64-3.26c0.24-0.14 0.24-0.36 0-0.5l-6-3.43a0.93 0.93 0 0 0-0.86 0.02zm-33 19-5.64 3.26c-0.24 0.14-0.24 0.36 0 0.5l5.95 3.43a0.93 0.93 0 0 0 0.86 0l5.65-3.26c0.24-0.14 0.24-0.36 0-0.49l-5.95-3.44a1 1 0 0 0-0.85 0.06zm41.26-23.74-5.65 3.31c-0.24 0.14-0.25 0.36 0 0.49l5.95 3.44a0.93 0.93 0 0 0 0.86 0l5.64-3.26c0.24-0.14 0.25-0.36 0-0.5l-6-3.43a0.93 0.93 0 0 0-0.8-0.05zm-16.49 9.52-5.64 3.26c-0.24 0.14-0.25 0.36 0 0.5l6 3.43a0.93 0.93 0 0 0 0.86 0l5.64-3.26c0.24-0.14 0.25-0.36 0-0.5l-5.95-3.43a0.93 0.93 0 0 0-0.92 0zm-8.26 4.79-5.64 3.26c-0.24 0.14-0.24 0.36 0 0.5l6 3.43a0.93 0.93 0 0 0 0.86 0l5.64-3.26c0.24-0.14 0.24-0.36 0-0.49l-6-3.44a0.93 0.93 0 0 0-0.86 0zm-8.25 4.73-5.63 3.27c-0.24 0.14-0.25 0.36 0 0.5l5.95 3.43a0.93 0.93 0 0 0 0.86 0l5.64-3.26c0.24-0.14 0.25-0.36 0-0.49l-5.95-3.44a1 1 0 0 0-0.87-0.01zm39.87 4.48 5.64-3.25c0.24-0.14 0.25-0.36 0-0.5l-5.93-3.46a1 1 0 0 0-0.86 0l-5.64 3.25c-0.24 0.14-0.25 0.36 0 0.5l6 3.44a1 1 0 0 0 0.8 0.02zm74.7-70.62-5.64 3.25c-0.24 0.14-0.25 0.36 0 0.5l5.95 3.44a1 1 0 0 0 0.86 0l5.64-3.26c0.24-0.13 0.25-0.36 0-0.49l-5.95-3.44a0.93 0.93 0 0 0-0.85 0zm-10 5.76-5.57 3.26a0.26 0.26 0 0 0 0 0.49l5.95 3.44a1 1 0 0 0 0.86 0l5.64-3.25c0.24-0.14 0.24-0.36 0-0.5l-6-3.44a1 1 0 0 0-0.85 0zm18.22-10.53-5.64 3.26c-0.24 0.14-0.24 0.36 0 0.5l6 3.44a1 1 0 0 0 0.86 0l5.64-3.26c0.24-0.14 0.24-0.36 0-0.49l-6-3.44a1 1 0 0 0-0.83-0.01zm-44.11 43.18 5.64-3.26a0.26 0.26 0 0 0 0-0.49l-6-3.44a1 1 0 0 0-0.86 0l-5.65 3.26a0.26 0.26 0 0 0 0 0.5l5.95 3.44a1 1 0 0 0 0.92-0.01zm53.25-47.93a1 1 0 0 0-0.86 0l-5.64 3.26c-0.24 0.14-0.25 0.36 0 0.5l5.95 3.44a1 1 0 0 0 0.86 0l5.64-3.26c0.24-0.14 0.25-0.36 0-0.49zm-83.8 75.39 5.64-3.25c0.24-0.14 0.24-0.37 0-0.5l-6-3.44a1 1 0 0 0-0.86 0l-5.64 3.25c-0.24 0.14-0.24 0.36 0 0.5l6 3.44a1 1 0 0 0 0.86-0.01zm101.11-58.38 5.65-3.26a0.26 0.26 0 0 0 0-0.49l-6-3.44a1 1 0 0 0-0.86 0l-5.64 3.25c-0.24 0.14-0.24 0.36 0 0.5l6 3.44a0.94 0.94 0 0 0 0.85-0.01zm-16.75-0.15 5.65-3.26a0.26 0.26 0 0 0 0-0.49l-5.95-3.44a1 1 0 0 0-0.86 0l-5.64 3.26c-0.24 0.14-0.25 0.36 0 0.5l5.95 3.44a1 1 0 0 0 0.85-0.02zm7.94-11.93a0.94 0.94 0 0 0-0.85 0l-5.65 3.26a0.26 0.26 0 0 0 0 0.5l5.95 3.44a1 1 0 0 0 0.86 0l5.64-3.26a0.26 0.26 0 0 0 0-0.49zm1.74-1 14.46 8.35a1 1 0 0 0 0.86 0l5.64-3.26c0.24-0.13 0.25-0.36 0-0.49l-14.46-8.35a1 1 0 0 0-0.86 0l-5.64 3.26c-0.23 0.1-0.23 0.32 0 0.49zm-19.09 10.5-5.64 3.25c-0.24 0.14-0.24 0.36 0 0.5l6 3.44a1 1 0 0 0 0.86 0l5.64-3.25c0.24-0.14 0.24-0.37 0-0.5l-6-3.44a1 1 0 0 0-0.86 0zm-62.08 35.83-5.64 3.25c-0.24 0.14-0.24 0.36 0 0.5l6 3.44a1 1 0 0 0 0.86 0l5.64-3.25c0.24-0.14 0.24-0.37 0-0.5l-6-3.44a1 1 0 0 0-0.86 0zm79.12-28.49a1 1 0 0 0 0.86 0l5.64-3.25c0.24-0.14 0.24-0.37 0-0.5l-5.95-3.44a1 1 0 0 0-0.86 0l-5.65 3.25a0.26 0.26 0 0 0 0 0.5zm-70.87 23.73-5.64 3.25c-0.24 0.14-0.24 0.36 0 0.5l5.95 3.44a1 1 0 0 0 0.86 0l5.65-3.26a0.26 0.26 0 0 0 0-0.49l-6-3.44a0.93 0.93 0 0 0-0.8 0zm-63.25 53.69a1 1 0 0 0 0.86 0l5.64-3.26c0.24-0.14 0.24-0.36 0-0.5l-6-3.44a0.94 0.94 0 0 0-0.85 0l-5.65 3.26c-0.24 0.14-0.24 0.36 0 0.49zm-11-10.85-5.64 3.26c-0.24 0.14-0.25 0.36 0 0.49l6 3.44a0.93 0.93 0 0 0 0.86 0l5.64-3.26c0.24-0.14 0.25-0.36 0-0.5l-6-3.43a0.93 0.93 0 0 0-0.8 0zm20.08 6.08 5.65-3.25a0.26 0.26 0 0 0 0-0.5l-5.95-3.44a1 1 0 0 0-0.86 0l-5.64 3.26a0.26 0.26 0 0 0 0 0.49l5.95 3.44a0.93 0.93 0 0 0 0.91 0zm8.25-4.76 5.64-3.25c0.24-0.14 0.25-0.36 0-0.5l-5.95-3.44a1 1 0 0 0-0.86 0l-5.65 3.26a0.26 0.26 0 0 0 0 0.49l5.95 3.44a0.93 0.93 0 0 0 0.93 0zm8.25-4.76 5.64-3.25c0.24-0.14 0.24-0.36 0-0.5l-6-3.44a1 1 0 0 0-0.86 0l-5.53 3.22c-0.24 0.14-0.24 0.37 0 0.5l6 3.44a1 1 0 0 0 0.81 0.06zm-28.34-1.32-5.64 3.26c-0.24 0.14-0.24 0.36 0 0.49l6 3.44a0.93 0.93 0 0 0 0.86 0l5.64-3.26c0.24-0.14 0.24-0.36 0-0.5l-6-3.43a0.93 0.93 0 0 0-0.8 0zm8.25-4.76-5.64 3.26c-0.24 0.14-0.25 0.36 0 0.49l5.95 3.44a1 1 0 0 0 0.86 0l5.65-3.26c0.23-0.14 0.24-0.36 0-0.5l-6-3.43a0.93 0.93 0 0 0-0.76 0zm33-19-5.64 3.25c-0.24 0.14-0.24 0.37 0 0.5l6 3.44a1 1 0 0 0 0.86 0l5.64-3.25c0.24-0.14 0.24-0.36 0-0.5l-6-3.44a1 1 0 0 0-0.82-0.04zm-8.24 4.76-5.64 3.26c-0.24 0.13-0.25 0.36 0 0.49l6 3.44a0.93 0.93 0 0 0 0.86 0l5.64-3.25c0.24-0.14 0.25-0.36 0-0.5l-5.95-3.44a1 1 0 0 0-0.87-0.04zm16.49-9.52-5.64 3.25c-0.24 0.14-0.25 0.36 0 0.5l6 3.44a1 1 0 0 0 0.86 0l5.64-3.25c0.24-0.14 0.25-0.36 0-0.5l-6-3.44a1 1 0 0 0-0.82-0.04zm-33 19-5.65 3.26c-0.24 0.14-0.24 0.36 0 0.49l5.95 3.44a1 1 0 0 0 0.86 0l5.64-3.26c0.24-0.14 0.24-0.36 0-0.5l-6-3.44a1 1 0 0 0-0.74 0.01zm8.24-4.76-5.64 3.26a0.26 0.26 0 0 0 0 0.49l6 3.44a0.94 0.94 0 0 0 0.85 0l5.65-3.26c0.24-0.14 0.24-0.36 0-0.5l-6-3.44a1 1 0 0 0-0.84 0.01zm-8.3 32.29 5.65-3.26a0.26 0.26 0 0 0 0-0.49l-5.95-3.44a0.93 0.93 0 0 0-0.86 0l-5.64 3.25c-0.24 0.14-0.24 0.36 0 0.5l5.95 3.44a1 1 0 0 0 0.91 0zm-45.9-3.45-6-3.44a1 1 0 0 0-0.86 0l-5.54 3.23c-0.24 0.14-0.24 0.36 0 0.5l6 3.44a1 1 0 0 0 0.86 0l5.64-3.26a0.26 0.26 0 0 0-0.04-0.47zm11.54 3.16-5.95-3.44a0.93 0.93 0 0 0-0.86 0l-8.68 5c-0.24 0.14-0.25 0.36 0 0.5l6 3.44a1 1 0 0 0 0.86 0l8.68-5c0.24-0.15 0.25-0.37 0.01-0.5zm-20.56-9.87-6-3.44a1 1 0 0 0-0.86 0l-6.94 4c-0.24 0.14-0.25 0.36 0 0.5l6 3.44a1 1 0 0 0 0.86 0l7-4c0.23-0.15 0.23-0.37 0-0.5zm5.32-3.08a0.93 0.93 0 0 0 0.86 0l5.64-3.26c0.24-0.14 0.24-0.36 0-0.5l-6-3.43a0.91 0.91 0 0 0-0.85 0l-5.65 3.26c-0.24 0.14-0.24 0.36 0 0.49zm25.98 16.58-6-3.43a0.93 0.93 0 0 0-0.86 0l-10.85 6.26c-0.24 0.14-0.24 0.37 0 0.5l6 3.44a1 1 0 0 0 0.86 0l10.85-6.26c0.23-0.13 0.23-0.35 0-0.51zm4.6 7.17-6-3.44a1 1 0 0 0-0.86 0l-6.94 4a0.26 0.26 0 0 0 0 0.49l6 3.44a0.93 0.93 0 0 0 0.86 0l6.94-4c0.23-0.11 0.23-0.33 0-0.47zm30.79-59.17a1 1 0 0 0 0.86 0l5.64-3.26a0.26 0.26 0 0 0 0-0.49l-6-3.44a1 1 0 0 0-0.86 0l-5.64 3.25c-0.24 0.14-0.24 0.36 0 0.5zm-16.45 9.55a0.94 0.94 0 0 0 0.85 0l5.65-3.25a0.26 0.26 0 0 0 0-0.5l-6-3.44a1 1 0 0 0-0.86 0l-5.64 3.25c-0.24 0.14-0.24 0.36 0 0.5zm-36.58 21.11a0.93 0.93 0 0 0 0.86 0l5.65-3.26a0.26 0.26 0 0 0 0-0.5l-5.95-3.43a0.93 0.93 0 0 0-0.86 0l-5.64 3.26c-0.24 0.14-0.24 0.36 0 0.49zm44.82-25.87a1 1 0 0 0 0.86 0l5.64-3.25c0.24-0.14 0.25-0.37 0-0.5l-6-3.44a1 1 0 0 0-0.86 0l-5.64 3.25c-0.24 0.14-0.25 0.36 0 0.5zm-16.49 9.52a1 1 0 0 0 0.86 0l5.64-3.25c0.24-0.14 0.24-0.36 0-0.5l-5.95-3.44a1 1 0 0 0-0.86 0l-5.65 3.26a0.26 0.26 0 0 0 0 0.49zm-1.75 45.35a1 1 0 0 0-0.86 0l-8.68 5c-0.24 0.14-0.25 0.36 0 0.49l5.95 3.44a1 1 0 0 0 0.86 0l8.68-5a0.26 0.26 0 0 0 0-0.49zm-10.07-38.52a1 1 0 0 0 0.86 0l5.64-3.26c0.24-0.14 0.24-0.36 0-0.5l-6-3.44a1 1 0 0 0-0.86 0l-5.64 3.26c-0.24 0.14-0.24 0.36 0 0.49zm-8.25 4.76a0.93 0.93 0 0 0 0.86 0l5.64-3.26c0.24-0.14 0.25-0.36 0-0.5l-5.95-3.43a0.93 0.93 0 0 0-0.86 0l-5.69 3.29c-0.23 0.14-0.24 0.36 0 0.49zm171.08-54.44a1 1 0 0 0-0.86 0l-13.89 8a0.26 0.26 0 0 0 0 0.49l6 3.44a0.93 0.93 0 0 0 0.86 0l13.88-8c0.24-0.14 0.25-0.36 0-0.5zm-18.28 10.54a0.93 0.93 0 0 0-0.86 0l-5.62 3.25c-0.24 0.14-0.24 0.36 0 0.5l5.95 3.43a0.93 0.93 0 0 0 0.86 0l5.65-3.26a0.26 0.26 0 0 0 0-0.5zm-111.48 61.9 5.64-3.26c0.24-0.14 0.25-0.36 0-0.49l-5.95-3.44a1 1 0 0 0-0.86 0l-5.65 3.29c-0.23 0.14-0.24 0.36 0 0.5l5.95 3.44a1 1 0 0 0 0.87-0.04zm95-52.39a1 1 0 0 0-0.86 0l-5.64 3.26c-0.24 0.14-0.25 0.36 0 0.5l5.95 3.43a0.93 0.93 0 0 0 0.86 0l5.64-3.26c0.24-0.14 0.25-0.36 0-0.49zm43-24.81a1 1 0 0 0-0.86 0l-5.69 3.3a0.26 0.26 0 0 0 0 0.49l6 3.44a1 1 0 0 0 0.86 0l5.64-3.25c0.24-0.14 0.24-0.36 0-0.5zm14.2-1.32-14.51-8.38a1 1 0 0 0-0.86 0l-5.64 3.25c-0.24 0.14-0.24 0.36 0 0.5l14.46 8.35a1 1 0 0 0 0.86 0l5.64-3.25c0.23-0.11 0.24-0.33 0-0.47zm-88 43.92a0.93 0.93 0 0 0-0.86 0l-6.95 4c-0.24 0.14-0.24 0.36 0 0.5l6 3.44a1 1 0 0 0 0.86 0l6.94-4c0.24-0.14 0.25-0.36 0-0.49zm20.83-12a1 1 0 0 0-0.86 0l-8.68 5c-0.24 0.14-0.25 0.36 0 0.49l6 3.44a1 1 0 0 0 0.86 0l8.68-5c0.24-0.13 0.25-0.36 0-0.49zm-39.93 23.05a1 1 0 0 0-0.86 0l-46.43 26.81c-0.24 0.14-0.25 0.36 0 0.49l5.95 3.44a0.93 0.93 0 0 0 0.86 0l46.38-26.83a0.26 0.26 0 0 0 0-0.5zm-49 28.32a0.93 0.93 0 0 0-0.86 0l-6.94 4c-0.24 0.14-0.25 0.36 0 0.5l6 3.43a0.93 0.93 0 0 0 0.86 0l7-4a0.26 0.26 0 0 0 0-0.5zm58.59-33.83a0.93 0.93 0 0 0-0.86 0l-6.94 4c-0.24 0.14-0.25 0.36 0 0.5l6 3.44a1 1 0 0 0 0.86 0l6.94-4c0.24-0.13 0.25-0.36 0-0.49zm-68.14 39.34a1 1 0 0 0-0.86 0l-6.94 4c-0.24 0.14-0.24 0.36 0 0.5l6 3.44a0.94 0.94 0 0 0 0.85 0l6.95-4c0.24-0.14 0.24-0.36 0-0.49zm87.23-50.36a0.93 0.93 0 0 0-0.86 0l-6.94 4c-0.24 0.14-0.24 0.36 0 0.5l6 3.43a0.93 0.93 0 0 0 0.86 0l6.94-4c0.24-0.14 0.24-0.36 0-0.5zm29.51-17a0.93 0.93 0 0 0-0.86 0l-5.7 3.18c-0.24 0.14-0.24 0.36 0 0.5l6 3.43a0.93 0.93 0 0 0 0.86 0l5.64-3.26c0.24-0.14 0.24-0.36 0-0.49zm18.27-13 5.65-3.25c0.24-0.14 0.24-0.36 0-0.5l-6-3.44a1 1 0 0 0-0.86 0l-5.64 3.25c-0.24 0.14-0.24 0.37 0 0.5l6 3.44a0.94 0.94 0 0 0 0.79-0.08zm-35.23 0.7 5.64-3.25c0.24-0.14 0.24-0.36 0-0.5l-6-3.44a1 1 0 0 0-0.86 0l-5.64 3.26c-0.24 0.14-0.24 0.36 0 0.49l6 3.44a0.93 0.93 0 0 0 0.8-0.08zm-20.33 31.3 16.49-9.53a0.26 0.26 0 0 0 0-0.49l-6-3.44a0.93 0.93 0 0 0-0.86 0l-16.49 9.52a0.26 0.26 0 0 0 0 0.49l6 3.44a1 1 0 0 0 0.86 0.01zm46.44-27.31a1 1 0 0 0 0.86 0l5.64-3.25c0.24-0.14 0.24-0.36 0-0.5l-6-3.44a1 1 0 0 0-0.86 0l-5.65 3.26a0.26 0.26 0 0 0 0 0.49zm-7.65-4.92 5.65-3.25c0.23-0.14 0.24-0.36 0-0.5l-5.95-3.44a1 1 0 0 0-0.86 0l-5.63 3.26c-0.24 0.14-0.25 0.36 0 0.5l5.95 3.44a1 1 0 0 0 0.8-0.01zm-47 37 5.64-3.26c0.24-0.14 0.24-0.36 0-0.5l-6-3.44a1 1 0 0 0-0.86 0l-5.65 3.26c-0.24 0.14-0.24 0.36 0 0.49l5.95 3.44a1 1 0 0 0 0.84 0zm36.38-21.59a0.93 0.93 0 0 0 0.86 0l5.64-3.26c0.24-0.14 0.25-0.36 0-0.5l-5.95-3.43a0.93 0.93 0 0 0-0.86 0l-5.64 3.26c-0.24 0.14-0.25 0.36 0 0.5zm-77.69 45.35 5.64-3.26c0.24-0.14 0.25-0.36 0-0.49l-5.95-3.44a0.93 0.93 0 0 0-0.86 0l-5.64 3.26c-0.24 0.14-0.25 0.36 0 0.5l6 3.43a0.93 0.93 0 0 0 0.81 0.03zm8.25-4.76 5.64-3.26c0.24-0.14 0.24-0.36 0-0.49l-6-3.44a0.93 0.93 0 0 0-0.86 0l-5.64 3.26c-0.24 0.14-0.24 0.36 0 0.5l6 3.43a0.93 0.93 0 0 0 0.86 0.03zm-16.49 9.52 5.64-3.26c0.24-0.14 0.24-0.36 0-0.49l-6-3.44a1 1 0 0 0-0.86 0l-5.64 3.26c-0.24 0.14-0.24 0.36 0 0.5l6 3.44a1 1 0 0 0 0.86 0.02zm33-19 5.64-3.26c0.24-0.14 0.24-0.36 0-0.5l-6-3.43a0.91 0.91 0 0 0-0.85 0l-5.65 3.26c-0.24 0.14-0.24 0.36 0 0.49l6 3.44a0.93 0.93 0 0 0 0.84-0.01zm-8.24 4.75 5.64-3.26c0.24-0.14 0.25-0.36 0-0.5l-6-3.43a0.93 0.93 0 0 0-0.86 0l-5.64 3.26c-0.24 0.14-0.25 0.36 0 0.5l6 3.43a0.93 0.93 0 0 0 0.86 0zm16.49-9.52 5.65-3.26a0.26 0.26 0 0 0 0-0.5l-6-3.43a0.93 0.93 0 0 0-0.86 0l-5.64 3.26c-0.24 0.14-0.24 0.36 0 0.49l5.95 3.44a0.93 0.93 0 0 0 0.87 0zm41.37-68.34a0.93 0.93 0 0 0 0.86 0l5.65-3.26c0.24-0.14 0.24-0.36 0-0.49l-1.58-0.92a1 1 0 0 0-0.86 0l-5.64 3.26c-0.24 0.14-0.24 0.36 0 0.5zm-40.77 26.1a0.94 0.94 0 0 0 0.85 0l5.65-3.26c0.24-0.14 0.24-0.36 0-0.5l-6-3.44a1 1 0 0 0-0.86 0l-5.64 3.26a0.26 0.26 0 0 0 0 0.49zm16.49-9.52a1 1 0 0 0 0.86 0l5.64-3.25c0.24-0.14 0.24-0.36 0-0.5l-6-3.44a1 1 0 0 0-0.86 0l-5.64 3.26a0.26 0.26 0 0 0 0 0.49zm-26.58 15.33a0.93 0.93 0 0 0 0.86 0l5.64-3.26c0.24-0.14 0.24-0.36 0-0.5l-6-3.43a0.93 0.93 0 0 0-0.86 0l-5.57 3.28c-0.24 0.14-0.24 0.36 0 0.5zm18.31-10.57a0.93 0.93 0 0 0 0.86 0l5.64-3.25c0.24-0.14 0.25-0.36 0-0.5l-6-3.44a1 1 0 0 0-0.86 0l-5.64 3.26c-0.24 0.13-0.25 0.36 0 0.49zm-34.8 20.09a0.91 0.91 0 0 0 0.85 0l5.65-3.26c0.24-0.14 0.24-0.36 0-0.49l-6-3.44a0.93 0.93 0 0 0-0.86 0l-5.64 3.26c-0.24 0.14-0.24 0.36 0 0.5zm8.24-4.76a0.93 0.93 0 0 0 0.86 0l5.64-3.26c0.24-0.14 0.25-0.36 0-0.49l-5.95-3.44a0.93 0.93 0 0 0-0.86 0l-5.64 3.26c-0.24 0.14-0.25 0.36 0 0.5zm42.6-27.12a0.93 0.93 0 0 0 0.86 0l5.65-3.26c0.23-0.14 0.24-0.36 0-0.49l-1.58-0.92a1 1 0 0 0-0.86 0l-5.64 3.25c-0.24 0.14-0.25 0.36 0 0.5zm24.74-14.28a0.93 0.93 0 0 0 0.86 0l5.64-3.26c0.24-0.14 0.25-0.36 0-0.5l-1.59-0.91a1 1 0 0 0-0.86 0l-5.65 3.26a0.26 0.26 0 0 0 0 0.5zm12.51 7.22a0.93 0.93 0 0 0 0.86 0l5.64-3.26c0.24-0.14 0.24-0.36 0-0.49l-6-3.44a0.91 0.91 0 0 0-0.85 0l-5.65 3.26c-0.24 0.14-0.24 0.36 0 0.5zm18.15 19.51 5.64-3.25c0.24-0.14 0.25-0.36 0-0.5l-5.95-3.44a1 1 0 0 0-0.86 0l-5.58 3.24c-0.24 0.14-0.25 0.36 0 0.5l5.95 3.44a1 1 0 0 0 0.8 0.01zm-47.13-17.19a0.93 0.93 0 0 0 0.86 0l5.64-3.26c0.24-0.14 0.24-0.36 0-0.49l-1.59-0.92a0.93 0.93 0 0 0-0.86 0l-5.67 3.24c-0.24 0.14-0.24 0.36 0 0.5zm-67.34 41.4a0.93 0.93 0 0 0 0.86 0l5.64-3.26c0.24-0.14 0.24-0.36 0-0.49l-5.94-3.46a1 1 0 0 0-0.86 0l-5.65 3.26c-0.23 0.14-0.24 0.36 0 0.5z" fill="#455a64"/><path d="m228.48 360.67 50.82-29.34a6.14 6.14 0 0 1 5.54 0l29.16 16.82c1.53 0.89 1.53 2.32 0 3.21l-50.81 29.33a6.1 6.1 0 0 1-5.55 0l-29.14-16.82c-1.5-0.87-1.5-2.32-0.02-3.2z" fill="#263238"/><path d="m219.88 138.24c-15.88 14.27-29.6 13.52-38.18 6.91-8.57 16.52-22.29 33.1-38.17 37.17l-9.07 24.5s4.86 5.6 4.86 19a66.8 66.8 0 0 1-2.25 16.63c-1.65 6.61-3.78 13.45-3.78 24.88 0 7.74 1 15.27 4.94 22.12a27.3 27.3 0 0 0 9.93 10l-13.79-8a27.39 27.39 0 0 1-10.45-10.25c-3.92-6.86-4.92-14.38-4.92-22.13 0-11.42 2.13-18.27 3.78-24.89a66.52 66.52 0 0 0 2.22-16.62c0-13.4-4.86-19-4.86-19l9.06-24.5c15.88-4.07 29.6-20.65 38.17-37.17 8.58 6.61 22.3 7.36 38.18-6.91z" fill="#6da5ea"/><g fill="#fff"><path d="m172.42 139.8-5-2.91a22 22 0 0 0 5 2.91z" opacity=".8"/><path d="m205.57 130c-13.07 11.74-24.67 13.31-33.15 9.82l9.28 5.35c8.58 6.61 22.3 7.36 38.18-6.91z" opacity=".85"/><path d="m167.39 136.89c-8.57 16.52-22.29 33.1-38.17 37.17l14.31 8.26c15.88-4.07 29.6-20.65 38.17-37.17z" opacity=".65"/><polygon points="129.22 174.06 120.16 198.56 134.46 206.82 143.53 182.32" opacity=".55"/><path d="m138.23 289.45c-3.92-6.85-4.94-14.38-4.94-22.12 0-11.43 2.13-18.27 3.78-24.88a66.8 66.8 0 0 0 2.25-16.63c0-13.4-4.86-19-4.86-19l-14.3-8.26s4.86 5.6 4.86 19a66.52 66.52 0 0 1-2.26 16.62c-1.65 6.62-3.78 13.47-3.78 24.89 0 7.75 1 15.27 4.94 22.12a27.39 27.39 0 0 0 10.45 10.25l13.79 8a27.3 27.3 0 0 1-9.93-9.99z" opacity=".4"/></g><path d="m138.23 289.45c-3.92-6.85-4.94-14.38-4.94-22.12 0-11.43 2.13-18.27 3.78-24.88a66.8 66.8 0 0 0 2.25-16.63c0-13.4-4.86-19-4.86-19l-14.3-8.26s4.86 5.6 4.86 19a66.52 66.52 0 0 1-2.26 16.62c-1.65 6.62-3.78 13.47-3.78 24.89 0 7.75 1 15.27 4.94 22.12a27.39 27.39 0 0 0 10.45 10.25l13.79 8a27.3 27.3 0 0 1-9.93-9.99z" opacity=".05"/><path d="m181.7 306.23c-23.72 0.27-37.31-6-43.48-16.78-3.91-6.85-4.93-14.38-4.93-22.13 0-11.42 2.12-18.25 3.78-24.87a66.72 66.72 0 0 0 2.25-16.62c0-13.4-4.86-19-4.86-19l9.07-24.51c15.88-4.07 29.6-20.66 38.17-37.17 8.58 6.61 22.3 7.36 38.18-6.91l9.07 14a68.86 68.86 0 0 0-4.87 24.61 40.12 40.12 0 0 0 2.26 14c1.65 4.7 3.78 9.09 3.78 20.51a82.13 82.13 0 0 1-4.94 27.83c-6.18 17.96-19.75 39.91-43.48 67.04z" fill="#6da5ea"/><path d="m181.7 306.23c-23.72 0.27-37.31-6-43.48-16.78-3.91-6.85-4.93-14.38-4.93-22.13 0-11.42 2.12-18.25 3.78-24.87a66.72 66.72 0 0 0 2.25-16.62c0-13.4-4.86-19-4.86-19l9.07-24.51c15.88-4.07 29.6-20.66 38.17-37.17 8.58 6.61 22.3 7.36 38.18-6.91l9.07 14a68.86 68.86 0 0 0-4.87 24.61 40.12 40.12 0 0 0 2.26 14c1.65 4.7 3.78 9.09 3.78 20.51a82.13 82.13 0 0 1-4.94 27.83c-6.18 17.96-19.75 39.91-43.48 67.04z" fill="#fff" opacity=".75"/><path d="m178.89 300.07c-18.37-0.22-30.25-4.82-35.31-13.67-2.86-5-4.13-10.88-4.13-19.08a75.86 75.86 0 0 1 3-21.13c0.19-0.76 0.39-1.5 0.57-2.25a71.85 71.85 0 0 0 2.44-18.11c0-9.77-2.34-16.16-4.2-19.7l7-18.8c17-5.91 29.29-22.7 35.8-33.71a28.1 28.1 0 0 0 11.09 2.24c7.68 0 15.49-2.86 23.29-8.51l3.65 5.66a75.83 75.83 0 0 0-4.16 23.88 46.32 46.32 0 0 0 2.6 16.07c0.19 0.54 0.39 1.08 0.59 1.62 1.46 4 2.84 7.77 2.84 16.84a76.4 76.4 0 0 1-4.6 25.82c-6.07 17.62-19.68 38.76-40.47 62.83z" fill="#6da5ea"/><path d="m178.89 300.07c-18.37-0.22-30.25-4.82-35.31-13.67-2.86-5-4.13-10.88-4.13-19.08a75.86 75.86 0 0 1 3-21.13c0.19-0.76 0.39-1.5 0.57-2.25a71.85 71.85 0 0 0 2.44-18.11c0-9.77-2.34-16.16-4.2-19.7l7-18.8c17-5.91 29.29-22.7 35.8-33.71a28.1 28.1 0 0 0 11.09 2.24c7.68 0 15.49-2.86 23.29-8.51l3.65 5.66a75.83 75.83 0 0 0-4.16 23.88 46.32 46.32 0 0 0 2.6 16.07c0.19 0.54 0.39 1.08 0.59 1.62 1.46 4 2.84 7.77 2.84 16.84a76.4 76.4 0 0 1-4.6 25.82c-6.07 17.62-19.68 38.76-40.47 62.83z" fill="#fff" opacity=".4"/><path d="m178.89 300.07c-18.37-0.22-30.25-4.82-35.31-13.67-2.86-5-4.13-10.88-4.13-19.08a75.86 75.86 0 0 1 3-21.13c0.19-0.76 0.39-1.5 0.57-2.25a71.85 71.85 0 0 0 2.44-18.11c0-9.77-2.34-16.16-4.2-19.7l7-18.8c17-5.91 29.29-22.7 35.8-33.71a28.1 28.1 0 0 0 11.09 2.24c7.68 0 15.49-2.86 23.29-8.51l3.65 5.66a75.83 75.83 0 0 0-4.16 23.88 46.32 46.32 0 0 0 2.6 16.07c0.19 0.54 0.39 1.08 0.59 1.62 1.46 4 2.84 7.77 2.84 16.84a76.4 76.4 0 0 1-4.6 25.82c-6.07 17.62-19.68 38.76-40.47 62.83z" opacity=".15"/><path d="m147.79 291.49c6.26 5.52 16.66 8.41 31.1 8.58l-9.21-5.25a67.59 67.59 0 0 1-21.89-3.33z" fill="#fff" opacity=".8"/><polygon points="217.28 150.24 222.08 153.01 218.43 147.35 216.34 148.79" opacity=".15"/><path d="m215.72 190.19a46.32 46.32 0 0 1-2.6-16.07 75.83 75.83 0 0 1 4.16-23.88l-0.94-1.45c-7.1 4.69-14.2 7.07-21.2 7.07a28.1 28.1 0 0 1-11.09-2.24c-6.51 11-18.8 27.8-35.8 33.71l-7 18.8c1.86 3.54 4.2 9.93 4.2 19.7a71.85 71.85 0 0 1-2.44 18.11c-0.18 0.75-0.38 1.49-0.57 2.25a75.86 75.86 0 0 0-3 21.13c0 8.2 1.27 14.08 4.13 19.08a20.61 20.61 0 0 0 6 6.5q9.21 4.2 24.54 4.4c20.78-24.08 34.39-45.21 40.46-62.83a76.35 76.35 0 0 0 4.6-25.82c0-9.07-1.39-12.84-2.85-16.84-0.21-0.54-0.41-1.08-0.6-1.62z" fill="#455a64"/><path d="m148.25 187.33-7 18.8c1.86 3.54 4.2 9.93 4.2 19.7a71.85 71.85 0 0 1-2.44 18.11c-0.18 0.75-0.38 1.49-0.57 2.25a75.86 75.86 0 0 0-3 21.13c0 8.2 1.27 14.08 4.13 19.08a20.61 20.61 0 0 0 6 6.5q9.21 4.2 24.54 4.4v-69.3l10-3v-71.38a110 110 0 0 1-10 14.24c-6.67 8.03-15.37 15.82-25.86 19.47z" fill="#37474f"/><path d="m198.12 202.42a3.19 3.19 0 0 0-0.38-0.55l-0.05-0.06a4.4 4.4 0 0 0-1-0.81l-3.33-1.92a7.23 7.23 0 0 0-1.92-0.74 10 10 0 0 0-1.22-0.19v-9.86c0-4.95-1.87-8.86-5.13-10.74s-7-1.56-10.83 0.68c-7.12 4.11-12.69 14.14-12.69 22.83v11.64l-6.64 3.83a4 4 0 0 0-0.56 0.39l-0.18 0.14a2.43 2.43 0 0 0-0.91 1.8v39.93a2.24 2.24 0 0 0 0.07 0.51 2.94 2.94 0 0 0 1.25 1.62l0.37 0.24 1.63 0.94 1.71 1a7.15 7.15 0 0 0 2.14 0.77 9 9 0 0 0 6.05-0.78l30.23-17.45a2.88 2.88 0 0 0 1.7-2.36v-39.91a2.06 2.06 0 0 0-0.31-0.95zm-30.05-1.36c0-6.36 4.32-14.22 9.43-17.17 1.74-1 3.3-1.26 4.29-0.68 1.17 0.67 1.86 2.57 1.86 5.08v11.64l-8.59 5-7 4z" fill="#263238"/><path d="m201.88 205.13a2.87 2.87 0 0 0-1.7-2.36l-3.33-1.93a9 9 0 0 0-8.19 0l-30.23 17.45a2.89 2.89 0 0 0-1.7 2.37v39.93a2.86 2.86 0 0 0 1.7 2.37l3.33 1.93a9.09 9.09 0 0 0 8.19 0l30.23-17.46a2.88 2.88 0 0 0 1.7-2.36z" fill="#6da5ea"/><path d="m161.76 225-3.33-2c-2.27-1.3-2.27-3.42 0-4.73l30.23-17.45a9 9 0 0 1 8.19 0l3.33 1.93c2.26 1.3 2.26 3.42 0 4.72l-30.18 17.53a9.09 9.09 0 0 1-8.24 0z" fill="#fff" opacity=".4"/><path d="m165.86 225.93v39.93a8.39 8.39 0 0 1-4.1-1l-3.34-1.86a2.85 2.85 0 0 1-1.69-2.38v-39.96a2.86 2.86 0 0 0 1.69 2.36l3.34 1.93a8.29 8.29 0 0 0 4.1 0.98z" opacity=".1"/><path d="m187.86 245.68-7.22 4.17 1.12-13.06c-0.86-0.46-1.41-1.58-1.41-3.19 0-2.88 1.74-6.22 3.9-7.46s3.9 0.07 3.9 3a9.82 9.82 0 0 1-1.41 4.82z" fill="#455a64"/><polygon points="187.86 245.68 181.32 241.91 180.64 249.85" fill="#37474f"/><path d="m184.25 226.14a8.5 8.5 0 0 0-3.33 4.42l5.82 3.36a9.82 9.82 0 0 0 1.41-4.82c0-2.89-1.74-4.21-3.9-2.96z" fill="#37474f"/><path d="m193.71 206v-16c0-5-1.87-8.86-5.13-10.74s-7-1.55-10.83 0.68c-7.12 4.11-12.69 14.14-12.69 22.83v16.05a1.62 1.62 0 0 0 1 1.34 5.13 5.13 0 0 0 4.61 0 1.62 1.62 0 0 0 1-1.34v-16c0-6.36 4.32-14.22 9.43-17.17 1.74-1 3.31-1.25 4.3-0.68 1.16 0.67 1.86 2.57 1.86 5.08v16a1.61 1.61 0 0 0 1 1.32 5.13 5.13 0 0 0 4.61 0 1.65 1.65 0 0 0 1-1.32z" fill="#e0e0e0"/><polyline points="232.57 276.21 236.97 273.67 238.71 271.55 234.31 274.09 232.57 276.21" fill="#6da5ea"/><polyline points="232.57 276.21 236.97 273.67 238.71 271.55 234.31 274.09 232.57 276.21" opacity=".4"/><polyline points="244.54 283.12 248.94 280.58 252.62 277.32 248.22 279.86 244.54 283.12" fill="#6da5ea"/><polyline points="244.54 283.12 248.94 280.58 252.62 277.32 248.22 279.86 244.54 283.12" opacity=".4"/><path d="m282 291.9a9.34 9.34 0 0 1 1.82 4.79 9.52 9.52 0 0 1-1.82-4.79zm10.23 0.13c-1.48-10.08-6.89-20-13.35-23.78-3.1-1.79-6-1.85-8.26-0.51l-4.14 2.39-0.24 0.14a4.32 4.32 0 0 0-0.53 0.34 7.71 7.71 0 0 0-1 0.78l-0.14 0.13c-0.13 0.13-0.26 0.28-0.38 0.42s-0.31 0.36-0.44 0.54a10.58 10.58 0 0 0-0.81 1.24c-0.12 0.22-0.25 0.45-0.36 0.69l-36.19-20.89-4.4 2.53v2.81l0.38 0.21 0.35 0.21v0.59l-0.73 0.42v1.63l5.32 11.25 5.26 3 1.74-2.12 4.64 2.78 2.66 4.56 2.94 1.69 3.67-3.26 4.51 2.61 1.52 6.25 7.56 4.37a41.81 41.81 0 0 0 1.43 4.7l0.17 0.49c2.52 6.6 6.52 12.26 11 14.87a12.39 12.39 0 0 0 1.7 0.81 9.65 9.65 0 0 0 0.95 0.32 8.45 8.45 0 0 0 0.84 0.19 7.31 7.31 0 0 0 2.68 0l0.37-0.09a2.29 2.29 0 0 0 0.51-0.15l0.39-0.15a3 3 0 0 0 0.41-0.19l0.37-0.19 0.19-0.11 0.09-0.05 4.15-2.39c3.34-1.94 5.51-6.84 5.51-13.77a35.77 35.77 0 0 0-0.39-5.34z" fill="#6da5ea"/><path d="m280.66 300.4c-1.73-1-3.14-4-3.14-6.65s1.41-4 3.14-3 3.15 4 3.15 6.66-1.41 3.99-3.15 2.99zm7.13-5.83c-1.48-10.08-6.9-20.05-13.36-23.78-3-1.72-5.75-1.85-8-0.66l-0.24 0.14a4.32 4.32 0 0 0-0.53 0.34 7.71 7.71 0 0 0-1 0.78l-0.14 0.13c-0.13 0.13-0.26 0.28-0.38 0.42s-0.31 0.36-0.44 0.54a10.58 10.58 0 0 0-0.81 1.24c-0.12 0.22-0.25 0.45-0.36 0.69a17.48 17.48 0 0 0-1.4 4.28l-39.13-22.64v2.81l0.38 0.21 0.35 0.21v0.59l-0.73 0.42v1.63l5.32 11.25 5.26 3 1.74-2.12 4.64 2.78 2.66 4.56 2.94 1.69 3.67-3.26 4.51 2.61 1.52 6.25 7.56 4.37a41.81 41.81 0 0 0 1.43 4.7l0.17 0.49c2.52 6.6 6.52 12.26 11 14.87a12.39 12.39 0 0 0 1.7 0.81 9.65 9.65 0 0 0 0.95 0.32 8.45 8.45 0 0 0 0.84 0.19 7.31 7.31 0 0 0 2.68 0l0.37-0.09a2.29 2.29 0 0 0 0.51-0.15l0.39-0.15a3 3 0 0 0 0.41-0.19l0.37-0.19 0.19-0.11 0.09-0.05c3.2-2 5.26-6.85 5.26-13.62a37.23 37.23 0 0 0-0.39-5.31z" fill="#6da5ea"/><path d="m283.81 297.37c0 2.68-1.41 4-3.14 3s-3.15-4-3.15-6.65 1.41-4 3.15-3a4.56 4.56 0 0 1 1.33 1.18 9.43 9.43 0 0 0 1.82 4.79 5.27 5.27 0 0 1-0.01 0.68z" opacity=".4"/><path d="m292.59 297.37c0 6.93-2.17 11.83-5.51 13.77l-4.15 2.39c3.2-2 5.26-6.85 5.26-13.62a37.23 37.23 0 0 0-0.4-5.34c-1.48-10.08-6.9-20.05-13.36-23.78-3-1.72-5.75-1.85-8-0.66l4.14-2.39c2.3-1.34 5.16-1.28 8.26 0.51 6.46 3.75 11.87 13.75 13.35 23.75a35.77 35.77 0 0 1 0.41 5.37z" fill="#fff" opacity=".4"/><path d="m288.19 299.91c0 6.77-2.06 11.6-5.26 13.62l4.15-2.39c3.34-1.94 5.51-6.84 5.51-13.77v-0.77l-4.39 2.54c-0.02 0.25-0.01 0.51-0.01 0.77z" fill="#6da5ea"/><path d="m288.19 299.91c0 6.77-2.06 11.6-5.26 13.62l4.15-2.39c3.34-1.94 5.51-6.84 5.51-13.77v-0.77l-4.39 2.54c-0.02 0.25-0.01 0.51-0.01 0.77z" opacity=".1"/><polygon points="221.99 260.29 222.72 259.87 222.72 259.27 261.34 281.57 261.34 283" opacity=".15"/><polygon points="221.99 260.29 222.72 259.87 222.72 259.86 261.34 282.17 261.34 283" opacity=".15"/><path d="m278.46 311.18a8.44 8.44 0 0 1-4.21-1.26c-6.42-3.71-11.64-14.73-11.64-24.57 0-5.74 1.74-10 4.77-11.78 2.12-1.22 4.62-1.07 7.24 0.44 6.41 3.71 11.63 14.73 11.63 24.57 0 5.74-1.74 10-4.77 11.78a5.91 5.91 0 0 1-3.02 0.82zm-8-37.69a5.3 5.3 0 0 0-2.66 0.71c-2.76 1.59-4.4 5.76-4.4 11.15 0 9.61 5 20.34 11.27 23.93 2.38 1.38 4.62 1.53 6.5 0.45 2.76-1.59 4.4-5.76 4.4-11.15 0-9.61-5-20.35-11.27-23.93a7.74 7.74 0 0 0-3.89-1.16z" opacity=".15"/><path d="m262.58 274.41a17.48 17.48 0 0 0-1.4 4.28l-39.18-22.64 4.4-2.53z" fill="#fff" opacity=".5"/><path d="m412 385c0.15 1.37 0.34 5.21 7.3 6.17s11.34-1.35 13.2-4.7 1.43-6.08 1.72-9.18 2.86-4.75 3.6-6.35c1.08-2.35-0.5-6-0.5-6z" fill="#263238"/><path d="m361.17 374.14a4.19 4.19 0 0 0 0.45 3.36 14.61 14.61 0 0 0 11.16 3 26.83 26.83 0 0 0 11.8-4.63 15.59 15.59 0 0 1 9.11-2.63c3.35-0.11 5.8-0.85 6.06-1.73 0.44-1.55 0.44-2.52-0.29-2.48z" fill="#263238"/><path d="m435.66 359.58c-0.87 6.35-13.18 5.84-12.18 0.77l-2.19-15.41 13.93 0.43z" fill="#ffa8a7"/><path d="m412.46 381.88c0.62-1.15 2.41-2.79 3.2-3.82a34.43 34.43 0 0 0 7.24-18.47c0-0.37 0.07-1.09 0.45-1.32s0.75 0.09 1.15 0.27a7.61 7.61 0 0 0 2.16 0.56c2.46 0.28 5.19-0.31 5.8-0.23s0.63 1.55 0.59 3.15c0.88-0.55 1.17-1.65 1.95-2.29 0.43-0.35 0.62-0.36 0.61-0.93v-1.08c0.64-0.18 1.17 2.24 1.69 4.09 0.6 2.15 1.35 4.57 0.51 6.75a18.35 18.35 0 0 1-2 3.36 13.82 13.82 0 0 0-2.52 6.16c-0.1 1 0 2-0.16 2.94a8.64 8.64 0 0 1-6.07 7.07c-4.25 1.32-10.62 1.11-14.36-1.85-1.3-1.03-0.86-3.24-0.24-4.36z" fill="#37474f"/><path d="m396.62 358.52c-3.38 2.62-7.44 4.16-11.59 2.27l-1-25.93 14 2.51z" fill="#ffa8a7"/><path d="m364 369.66c0.93-0.3 1.84-0.63 2.74-1a50.69 50.69 0 0 0 7.26-3.66c1-0.62 2-1.27 3-2s2-1.52 3-2.32a10.17 10.17 0 0 0 1.41-1.52 15.53 15.53 0 0 0 2.1-3.38 1.22 1.22 0 0 1 0.52-0.69 1 1 0 0 1 1 0.2 5.19 5.19 0 0 0 0.77 0.52l0.82 0.34a9.56 9.56 0 0 0 2.74 0.67c3.54 0.31 3.65-0.4 3.8 0.74a8.09 8.09 0 0 1 0 1.28c1.87-0.31 3.34-0.91 3.42-1.62l0.22-2.26c1.86-0.17 2 3.16 2.6 6.9 0.49 3 1.22 5.21 0.38 7.44-2.81 2.45-7.77 1.86-10.59 2.32-4 0.66-5.87 3.62-11.42 5.54-9 3.1-14.61-0.47-16.29-2-1.09-1.93-1.31-4.28 2.52-5.5z" fill="#37474f"/><path d="m431.73 205.18c0.71 11 2 27.11 2.45 39.82 0.84 23.88 0.51 51.11 0.51 51.11a82.42 82.42 0 0 1 2.57 15.3c0.57 15.26 0.47 49.52 0.47 49.52s-6.33 6.37-15.79 1.37c0 0-8.39-48-10.73-63.08-2.24-14.35-6.61-43-6.61-43l-2 40.72a62.75 62.75 0 0 1 1.49 19.55c-0.51 7-4.5 41.51-4.5 41.51-3.64 3.41-14.24 1.55-16.56-1.16 0 0-3.71-51-4.13-58.38-0.89-15.93-3.26-75.34-2.07-84.56s54.9-8.72 54.9-8.72z" fill="#263238"/><path d="m404.6 256.18-2.78-18.38s-7.63-1.44-13.21-5.58c0 0 2.17 4.91 10.61 8.41l2.78 17.12 0.66 39.15z"/><g fill="#263238"><path d="m420.19 131.43c0.51 2.07 4 1.75 5.56 1.36a3.87 3.87 0 0 0 3.06-4.12 4.25 4.25 0 0 0 2.05-1.25 3 3 0 0 0 0.14-3.42 4.24 4.24 0 0 0 1.74-4.05 4.68 4.68 0 0 0-1.72-2.81 4.89 4.89 0 0 0-3.06-1.09c-0.36 0-0.72 0.72-0.2 0.78a5.36 5.36 0 0 1 2.23 1 4.27 4.27 0 0 1 1.52 1.92 3.16 3.16 0 0 1-1.08 3.44 4.56 4.56 0 0 0-0.61-0.63 3.55 3.55 0 0 0-2.54-0.9 1.82 1.82 0 0 0-1.67 1c-0.24 0.78 0.57 1.44 1.17 1.78a3.52 3.52 0 0 0 2.89 0.26 2.18 2.18 0 0 0 0.23-0.09 3.09 3.09 0 0 1 0.14 0.32c0.54 1.43-0.33 2.32-1.5 2.72-0.71-1.47-2.63-2.54-4.17-1.77a1.29 1.29 0 0 0-0.37 2.12 3.44 3.44 0 0 0 2.37 0.94 8.25 8.25 0 0 0 1.21 0 2.64 2.64 0 0 1-0.42 1.83 3.68 3.68 0 0 1-2.91 1.24 4.76 4.76 0 0 1-3.43-1.09c-0.29-0.25-0.71 0.2-0.63 0.51zm9.13-7.68a2.29 2.29 0 0 1-1.93-0.32c-0.42-0.28-0.89-0.69-0.14-0.74a2.61 2.61 0 0 1 2.07 1.06zm-2.09 4.15a4.65 4.65 0 0 1-1.26-0.12c-0.3-0.07-1.61-0.74-0.94-1 0.51-0.23 1.41 0.28 1.77 0.6a2.55 2.55 0 0 1 0.43 0.52z"/><path d="m422.62 92.75a5.85 5.85 0 0 1 0.65 0.13 3 3 0 0 1 1.6-3.37 3.22 3.22 0 0 1 4.15 1.7l-4.53 2.07a6.37 6.37 0 0 1 3.45 2.94c1.24 2.56-0.4 8-2.05 14.7a94.35 94.35 0 0 1-3.65 12.44c-0.76 2-2.13 2-2.13 2v-6.69l0.29-5.55s-3.56-4.87-3.95-8.86c-0.51-5.13 0.57-7.23 0.57-7.23z"/><path d="m398 87a11.3 11.3 0 1 1-11.32 11.26 11.29 11.29 0 0 1 11.32-11.26z"/></g><path d="m420.19 112.24c1.34 1.16 2.43-1.84 3.56-3s4.79-2.77 6.61 1.09-1.68 9.27-4.43 10.54c-4 1.87-5.82-2.18-5.82-2.18v16.75c-4.23 7.62-13.38 5.84-17.71 6.91a9.53 9.53 0 0 1 0-6v-5.45a20.22 20.22 0 0 1-5.53 0.29c-3.66-0.58-5.62-3.59-6.71-7.55-1.76-6.36-2.13-17.05 0.32-29.4 4.1-3.16 17.95-2.64 26.52 2.76-0.6 11 1.85 14.08 3.19 15.24z" fill="#ffa8a7"/><path d="m402.41 130.9s8.16-1.61 11-3.12a9.32 9.32 0 0 0 4-3.89 12.81 12.81 0 0 1-2.26 4.6c-2.09 2.66-12.73 4.59-12.73 4.59z" fill="#f28f8f"/><path d="m384.89 105.63a3.24 3.24 0 0 0 0.75 1.75 1.85 1.85 0 0 1 0.3 0.63 31.12 31.12 0 0 0 1 4.72 5.21 5.21 0 0 0 5 3.45 7.69 7.69 0 0 0 1.72-0.11 0.42 0.42 0 0 0 0.13 0 4.87 4.87 0 0 0 1.42-0.52h0.08l0.13-0.08 0.14-0.11a0.45 0.45 0 0 0 0.14-0.1 0.61 0.61 0 0 0 0.16-0.12l0.14-0.14 0.28-0.27a6.73 6.73 0 0 0 1.15-1.77c0.77-1.63 0.62-3.94 1.82-4.17a0.8 0.8 0 0 0 0.15 0h0.16c1.64 0.06 1.4 2.56 2.28 4.37a6.09 6.09 0 0 0 5.9 3.7h0.82a6.85 6.85 0 0 0 0.85-0.1l0.27-0.06 0.26-0.07h0.16a5.87 5.87 0 0 0 1-0.43c0.11-0.08 0.22-0.14 0.33-0.21a6.44 6.44 0 0 0 0.56-0.48 5.21 5.21 0 0 0 1.1-1.65 28.13 28.13 0 0 0 1.07-4.64 2 2 0 0 1 0.28-0.67 3.16 3.16 0 0 0 0.83-1.66 1.45 1.45 0 0 0-1-1.5l-0.86-0.14c-2.79-0.39-6.43-0.61-8.62-0.06-2.76 0.69-3.73 1.55-5.25 1.5s-2.32-1-4.91-1.89c-2-0.72-5.46-0.75-8.06-0.57-0.29 0-0.54 0-0.81 0.06-0.43-0.08-0.91 0.59-0.87 1.34zm17.95 2.06a2.3 2.3 0 0 1 0.79-0.61 1.09 1.09 0 0 1 0.15-0.08h0.07a4.21 4.21 0 0 0 0.39-0.17c0.11 0 0.24-0.08 0.36-0.13a9.61 9.61 0 0 1 1.18-0.35l0.47-0.1c0.39-0.07 0.8-0.13 1.2-0.17h0.29c2.63-0.16 4.26 0.49 4.84 1s0.28 3 0 4.22v0.09a0.19 0.19 0 0 1 0 0.1 3.48 3.48 0 0 1-0.12 0.49 1.81 1.81 0 0 1-0.09 0.31c-0.06 0.17-0.12 0.34-0.19 0.52a0.53 0.53 0 0 1-0.08 0.17 0.27 0.27 0 0 1-0.05 0.11v0.11l-0.08 0.15c0 0.06-0.06 0.11-0.1 0.16a0.62 0.62 0 0 1-0.11 0.17 1 1 0 0 1-0.11 0.17 4.12 4.12 0 0 1-3.71 1.67 5.06 5.06 0 0 1-3.94-1.52 5.42 5.42 0 0 1-1.23-2.52c-0.3-1.43-0.46-3.05 0.07-3.79zm-15.45-1.58a1.77 1.77 0 0 1 0.65-0.4l0.28-0.11h0.57a5.58 5.58 0 0 1 0.61-0.09h0.52a0.44 0.44 0 0 0 0.16 0 3 3 0 0 1 0.42 0h0.3a11.12 11.12 0 0 1 1.21 0.13c1.87 0.31 3.82 1.22 4.31 2s0.35 2.37 0.08 3.75a7.06 7.06 0 0 1-0.25 0.91 0.11 0.11 0 0 0 0 0.07 0.42 0.42 0 0 1 0 0.1v0.06a1.17 1.17 0 0 1-0.05 0.11c0 0.08-0.07 0.15-0.11 0.22a1.86 1.86 0 0 1-0.1 0.2v0.06l-0.08 0.14-0.08 0.11a4.12 4.12 0 0 1-3.94 1.71 4.53 4.53 0 0 1-2-0.52c-1.84-1-2.27-3.08-2.48-4-0.28-1.48-0.59-3.94-0.02-4.45z" fill="#263238"/><path d="m414.1 105.3 12 2.69a5.2 5.2 0 0 0-2.75 1.77l-9.26-1.76z" fill="#263238"/><path d="m387.39 110.34c0.21 1 0.64 3.07 2.48 4a4.53 4.53 0 0 0 2 0.52 4.12 4.12 0 0 0 3.94-1.71l0.08-0.11 0.08-0.14v-0.06a1.86 1.86 0 0 0 0.1-0.2c0-0.07 0.07-0.14 0.11-0.22a1.17 1.17 0 0 0 0.05-0.11v-0.06a0.42 0.42 0 0 0 0-0.1 0.11 0.11 0 0 1 0-0.07 7.06 7.06 0 0 0 0.25-0.91c0.27-1.38 0.42-3-0.08-3.75s-2.44-1.7-4.31-2a11.12 11.12 0 0 0-1.21-0.13h-0.3a3 3 0 0 0-0.42 0 0.44 0.44 0 0 1-0.16 0h-0.52a5.58 5.58 0 0 0-0.61 0.09h-0.57l-0.28 0.11a1.77 1.77 0 0 0-0.65 0.4c-0.55 0.73-0.24 3.19 0.02 4.45z" fill="#37474f"/><path d="m402.77 111.44a5.42 5.42 0 0 0 1.23 2.56 5.06 5.06 0 0 0 3.86 1.56 4.12 4.12 0 0 0 3.71-1.67 1 1 0 0 0 0.11-0.17 0.62 0.62 0 0 0 0.11-0.17c0-0.05 0.06-0.1 0.1-0.16l0.08-0.15v-0.11a0.27 0.27 0 0 0 0.05-0.11 0.53 0.53 0 0 0 0.08-0.17c0.07-0.18 0.13-0.35 0.19-0.52a1.81 1.81 0 0 0 0.09-0.31 3.48 3.48 0 0 0 0.12-0.49 0.19 0.19 0 0 0 0-0.1v-0.09c0.27-1.22 0.6-3.66 0-4.22s-2.21-1.21-4.84-1h-0.29c-0.4 0-0.81 0.1-1.2 0.17l-0.47 0.1a9.61 9.61 0 0 0-1.18 0.35c-0.12 0-0.25 0.08-0.36 0.13a4.21 4.21 0 0 1-0.39 0.17h-0.07a1.09 1.09 0 0 0-0.15 0.08 2.3 2.3 0 0 0-0.79 0.61c-0.45 0.7-0.29 2.32 0.01 3.71z" fill="#37474f"/><path d="m387.71 85.51c0-0.13 0-0.27 0.05-0.41a1.29 1.29 0 0 1 0.27-0.71c0.55-0.57 1.65 0.87 2 1.2a14.78 14.78 0 0 0 1.17 0.92 8.89 8.89 0 0 1 1.1 0.65 11.58 11.58 0 0 1 0-4.11c0.17-0.9 0.42-3 1.54-3.21 0.66-0.14 1.24 0.42 1.73 0.88 4.47 4.18 10.31 2.25 15.69 2.42 4.51 0.14 9.94 2 12 6.36 0.93 2 1.09 4.11-0.75 5.49-1.18 0.9-2.34 0.86-3 2.29-0.16 0.35-1.19 4.61-0.58 4.57a4.69 4.69 0 0 1-5-3.43c-0.11-0.47-0.36-1.32-0.46-1.8a1 1 0 0 0-1.29-0.78c-1.37 0.3-2.26 0.86-3.55 1.21a25.91 25.91 0 0 1-11.34 0.67 13.46 13.46 0 0 1-7.12-3.82 10.7 10.7 0 0 1-2.46-8.39z" fill="#263238"/><path d="m405.28 103.09 4 0.61a2.09 2.09 0 0 0-1.72-2.33 2 2 0 0 0-2.28 1.72z" fill="#263238"/><path d="m404.36 121.47-3.33 0.87a1.69 1.69 0 0 0 2.06 1.29 1.81 1.81 0 0 0 1.27-2.16z" fill="#f28f8f"/><path d="m390.3 103.32 4-0.44a1.94 1.94 0 0 0-2.15-1.81 2.12 2.12 0 0 0-1.85 2.25z" fill="#263238"/><path d="m400 108.82-0.54 9.33-5.2-1.36 5.19-8.08a1.23 1.23 0 0 1 0.55 0.11z" fill="#f28f8f"/><path d="m422.34 115.3a2.44 2.44 0 1 0 2.44-2.43 2.43 2.43 0 0 0-2.44 2.43z" fill="#263238"/><path d="m422.08 110.85a5.24 5.24 0 0 1 1.08-2 2.43 2.43 0 0 1 1.93-0.66s0.07 0.08 0 0.1c-0.27 0.16-0.46 0.25-0.73 0.44a4.41 4.41 0 0 0-0.74 0.63 2.84 2.84 0 0 0-0.47 0.76 3.43 3.43 0 0 0-0.28 1 3.11 3.11 0 0 0 0.23 1.6 2.86 2.86 0 0 0 0.46 0.77 2.75 2.75 0 0 1 0.54 0.59c0.15 0.31-0.28 0.84-0.61 0.66a3.2 3.2 0 0 1-1.33-1.69 3.12 3.12 0 0 1-0.08-2.2z" fill="#263238"/><path d="m387.42 144.07c-3.38 2.22-8.05 5.1-9.19 8.23s-4.43 21.28-4.79 27.13a30 30 0 0 0 9.5 2.68z" fill="#455a64"/><path d="m427.35 135.42c8.56 4.7 17 11.72 18.82 14.42 0 0-5 16.67-9.41 24.58s-6.77 31.3-6.77 31.3-30.16 10-39.61 10.79-10.65-3.23-10.65-3.23-0.2-26.15 2-43.6 1.72-22.64 5.72-25.61c2.59-1.91 13.75-6.75 13.75-6.75v5c6.1 0.12 26.15-6.9 26.15-6.9z" fill="#37474f"/><path d="m398.85 145a6.64 6.64 0 0 1-0.64-3.64l2.52-1.83v3.17z" fill="#6da5ea"/><path d="m398.85 145a6.64 6.64 0 0 1-0.64-3.64l2.52-1.83v3.17z" opacity=".25"/><polygon points="403.75 143.07 410.27 139.35 415.17 143.23 405.27 147.34" fill="#6da5ea"/><polygon points="403.75 143.07 410.27 139.35 415.17 143.23 405.27 147.34" opacity=".25"/><path d="m420.11 128.34v1.32c-0.25 1.25-2.71 4.15-8.92 6.93s-8.79 5.75-8.79 5.75a16.09 16.09 0 0 1 4.92 0.91c2.83 1 7.53 4.6 8.87 4.56s3.19-3.74 6.7-7.43c3-3.1 4.46-5 4.46-5s-4.82-7.01-7.24-7.04z" fill="#455a64"/><path d="m402.4 142.34c-2.25 0.25-4.36 1.81-4.91 1s1.36-8.34 4.89-10.63z" fill="#455a64"/><path d="m380.6 181.8s-0.27 4.67-0.34 6.27 2.6 29 2.6 29l-9.42 4s-1.14-10.56-1.51-16.44a95.68 95.68 0 0 1 0.81-18.13c0.74-5 1-6.92 1-6.92a35.1 35.1 0 0 0 6.86 2.22z" fill="#f28f8f"/><path d="m374.2 234.46v2a35.7 35.7 0 0 0 1.58 7.78c0.59 1.48 2 4.73 2.74 5.11a3.58 3.58 0 0 0 2.3 0.41c1.49-0.14 3.05 0.63 4.46-0.05a8.66 8.66 0 0 1 1.72-0.71c0.87-0.21 1.87 0.05 2.65-0.41 0.5-0.29 0.81-0.83 1.3-1.13 0.72-0.44 1.67-0.28 2.44-0.63a2.53 2.53 0 0 0 1.27-1.52c0.44-1.32 0-2.81-0.26-4.13a3.63 3.63 0 0 0 0.67-2.23 19.24 19.24 0 0 0-0.59-5.07c-0.33-1-7.17-4.89-7.17-4.89l-1.35-0.89a11.51 11.51 0 0 0-8.4 1.35c-4.01 2.55-3.36 5.01-3.36 5.01z" fill="#ffa8a7"/><path d="m376.05 234.27c-1.81 3-0.75 8.41-0.74 8.47a33.65 33.65 0 0 1-1.11-6.26v-2s-0.65-2.5 3.31-5a11.51 11.51 0 0 1 8.4-1.35s-8.05 3.11-9.86 6.14z" fill="#f28f8f"/><path d="m394.35 241.15a17 17 0 0 0-2.91-5.37c-0.76-0.7-1.4-1.59-0.64-1.29s1.82 0.47 2.24-0.06 0.51 0.39 0 1.11-0.08 1.27 0.47 2.45a12.06 12.06 0 0 1 0.84 3.16z" fill="#f28f8f"/><path d="m443.56 150.17c2.85 1 3.23 8.8 2.61 15.8s-6.08 23.55-8.57 29.31c-2.79 6.47-4.48 10.2-6.34 12.23s-5.75 3.7-10.73 6.28c-4.5 2.33-7.58 3.51-15.26 5.89-8.66 2.69-12 2.85-13.84 4.14s-2.36 4.09-4.17 5.14l-1.35-0.89a29.23 29.23 0 0 0-8.61 3.6 11.79 11.79 0 0 0-3.1 2.79v2s-2.19 0.92-4.05-3-2.71-9.8-0.57-12.37 8.92-6.09 14.42-7.81 8.23-3.52 14.65-7.4c6.84-4.13 11.59-6.88 15-8.74 1.29-0.75 2.16-1.66 2.74-4 0.46-1.88 1.83-7.44 2.67-11.62 1.34-6.99 4.35-28.13 24.5-31.35z" fill="#ffa8a7"/><path d="m446.17 149.84s1.33 0.23 1.51 5.77a84.67 84.67 0 0 1-0.75 15.69c-0.73 4.25-5 16.8-5 16.8s-12.27 4-24.83-0.77c0 0 2.95-18.1 4.06-22.9s16.66-19.61 25.01-14.59z" fill="#455a64"/><path d="m402.75 150.2c-0.7 4.5-1.66 15.19-1.66 30.28 0 3.7-5.4 11.21-6.67 11.05s-3.6-7.22-3.93-11.32c0.51-9.92 6.51-25.31 9.13-30.57z" fill="#6da5ea"/><path d="m399.42 150.07a4.28 4.28 0 0 1 0.2-0.43l3.13 0.56-0.19 1.32a5.39 5.39 0 0 1-3.14-1.45z" opacity=".15"/><path d="m403.75 143.07a13.57 13.57 0 0 0-3-0.36 7.07 7.07 0 0 0-1.92 2.3 10.72 10.72 0 0 0 0.77 4.63 3.77 3.77 0 0 0 3.13 0.56 6.62 6.62 0 0 0 2.52-2.86 6 6 0 0 0-1.5-4.27z" fill="#6da5ea"/></g></svg>
