<svg xmlns="http://www.w3.org/2000/svg" width="12" height="16" viewBox="0 0 12 16"><path fill="#fff" d="m6-5e-6c-2.3767 1.7068-3.8003 2-6 2v7.5c0 0.44969 0.058085 0.87204 0.1582 1.27l5.8418-3.07 4.9258 2.59c-0.50727 2.6771-3.5292 4.0893-4.9258 4.61-1.2704-0.47373-3.8878-1.6866-4.7305-3.92l-0.89258 0.46995c1.1202 2.7664 4.433 4.1349 5.623 4.55 1.4413-0.50279 6-2.4122 6-6.5v-5.9h-1v5.6l-5-2.6-5 2.6v-6.3c1.8606-0.10398 3.5174-0.69509 5-1.7 1.4826 1.0049 3.1394 1.596 5 1.7h1v-0.9c-2.1979 0-3.622-0.2923-6-2z"/></svg>
